<svg xmlns="http://www.w3.org/2000/svg" xmlns:xlink="http://www.w3.org/1999/xlink" width="390.576" height="288" viewBox="0 0 390.576 288">
  <defs>
    <radialGradient id="radial-gradient" cx="0.5" cy="0.5" r="0.718" gradientUnits="objectBoundingBox">
      <stop offset="0" stop-color="#055548"/>
      <stop offset="1" stop-color="#01362c"/>
    </radialGradient>
  </defs>
  <g id="Group_53816" data-name="Group 53816" transform="translate(-174.521 -83.298)">
    <path id="Path_45653" data-name="Path 45653" d="M1123.531,591.634a6.036,6.036,0,0,0,.285,4.005,6.95,6.95,0,0,1,.8-4.209c2.359-4.213,8.1-7.182,13.238-7.182a3.014,3.014,0,0,0-.836,2.136,5.5,5.5,0,0,1,1.715-1.928c1.226-.563,2.749-.224,4.032-.115,2.07.177,4.24.64,6.067.208a62.331,62.331,0,0,1-4.136,5.486c-.655.694-1.426,2.313-2.182,2.883-1.056.771-2.271.3-3.674.54,1.025.416,2.1.578,3.119,1.037-.771,1.974-2.5,3.643-3.686,5.3-.632.864-3.176.806-4.976,1.006a10.718,10.718,0,0,0,4.992.3c-.042,0-.917,3.785-1.9,5.058-2.883,3.292-8.793,5.96-13.6,7.158l-1.3-2.806C1118.189,604.066,1118.852,595.959,1123.531,591.634Z" transform="translate(-583.738 -307.776)" fill="#2ec2ae"/>
    <path id="Path_45654" data-name="Path 45654" d="M1141.376,591.27a26.278,26.278,0,0,0-5.3,2.7,34.215,34.215,0,0,0-4.625,3.766,50.017,50.017,0,0,0-7.633,9.614,57.149,57.149,0,0,0-5.481,11.565,56.525,56.525,0,0,0-3.257,19.683c0,1.21.062,2.417.146,3.624a20.591,20.591,0,0,0,.463,3.7.636.636,0,0,0,.64.524.617.617,0,0,0,.613-.555c0-1.079-.17-2.147-.258-3.227s-.143-2.089-.17-3.134a57.243,57.243,0,0,1,.2-6.3,63.792,63.792,0,0,1,2.266-12.3,57.223,57.223,0,0,1,4.865-11.622,50.923,50.923,0,0,1,7.008-9.911,31.835,31.835,0,0,1,10.659-7.825C1141.711,591.489,1141.576,591.193,1141.376,591.27Z" transform="translate(-581.062 -312.149)" fill="#19a193"/>
    <path id="Path_45655" data-name="Path 45655" d="M1036.62,502.519c-1.156-2.051-5.663-4.846-5.663-4.846-.07,2.378-.844,5.2-1.766,6.241.385-2.336,1.091-5.582.116-6.723-1.823-2.128-3.778-4.8-6.341-6.191-.659,1.156-.967,2.456-1.631,3.616-.139-1.762.543-3.169-.424-4.595-.7-1.033-2.891-2.17-3.855-2.991a37.388,37.388,0,0,0-7.887-4.73c.906,1.993.5,4.414.362,6.7-.093,1.43-.52,3.084.158,4.495a7.778,7.778,0,0,0,2.367,2.1,4.491,4.491,0,0,1-2.7-1.129c-.177,5.717,2.1,12.42,5.875,16.445a8.54,8.54,0,0,0,4.352,2.367,7.279,7.279,0,0,1-4.549-1.06c3,6.588,10.1,11.048,18.26,11.468l3.469.335C1039.33,517.595,1039.747,508.1,1036.62,502.519Z" transform="translate(-515.981 -245.193)" fill="#048077"/>
    <path id="Path_45656" data-name="Path 45656" d="M1048.552,572.742c-.131-1.5-.281-2.992-.42-4.491-.281-2.991-.578-5.987-.871-8.978l-.879-9.067c-.274-2.83-.509-5.667-.956-8.481a31.167,31.167,0,0,0-2.259-7.976,51.5,51.5,0,0,0-4.24-7.17c-3.369-5.03-6.738-10.065-10.177-15.034s-6.9-9.911-10.408-14.833c-.44-.617-.875-1.234-1.314-1.847-.058-.081-.2,0-.139.085q4.7,7.656,9.564,15.215t9.826,15.061c1.565,2.371,3.2,4.711,4.552,7.209a27.983,27.983,0,0,1,2.76,7.744,77,77,0,0,1,1.083,8.138q.443,4.487.886,8.982c.586,5.956,1.126,11.923,1.816,17.871a12.09,12.09,0,0,0,.428,2.2.466.466,0,0,0,.914-.123A22.526,22.526,0,0,0,1048.552,572.742Z" transform="translate(-520.715 -252.895)" fill="#006b61"/>
    <path id="Path_45657" data-name="Path 45657" d="M1064.615,424.935a8.957,8.957,0,0,0,3.832,4.271,11.978,11.978,0,0,1-2.914-5.659c-1.43-7.2.073-16.541,3.419-23.087a5.987,5.987,0,0,0,1.985,3.107c-.385-1.037-1.207-2.772-1.137-4.021.112-2.082,1.457-3.743,2.34-5.351,1.411-2.575,3.141-5.127,3.373-8.057a54.82,54.82,0,0,1,5.034,10.767c.478,1.6,1.978,4.387,2.085,6.056.147,2.313-1.3,3.492-2.139,5.64,1.288-.91,2.313-2.217,3.593-3.13,1.719,3.331,2.135,7.744,2.721,11.441.316,1.978-2.174,5.289-3.855,7.76,1.476-.605,3.8-3.373,5.181-6.1,0,0,2.837,6.264,2.814,9.421-.05,8.589-5.724,19.382-11.769,25.164l-3.184-2.7A29.937,29.937,0,0,1,1064.615,424.935Z" transform="translate(-550.012 -186.101)" fill="#2ec2ae"/>
    <path id="Path_45658" data-name="Path 45658" d="M1116.2,521.333c-.509-9.094,5.011-23.241,13.577-27.458l.116,3.246s.771-3.5,1.5-4.279,13.793-5.011,15.2-7.432c0,0-2.074,6.754-3.145,9.178s-4.221,4.071-4.221,4.071l3.631-1.392S1135.53,518.708,1116.2,521.333Z" transform="translate(-581.732 -247.104)" fill="#048077"/>
    <path id="Path_45659" data-name="Path 45659" d="M1053.488,608.35s3.126-6.873,2.521-9.672c-.956-4.406-5.289-8.288-5.289-8.288l-.636,2.768a7.842,7.842,0,0,0-1.157-3.7c-.771-1.11-4.132-3.631-7.424-6.168C1041.5,583.282,1037,603.243,1053.488,608.35Z" transform="translate(-535.505 -307.253)" fill="#2ec2ae"/>
    <path id="Path_45660" data-name="Path 45660" d="M1068.235,446.365c-.42-5.566-.921-11.125-1.43-16.676-.505-5.466-.933-11.033-1.739-16.422-.054-.385-.416-.274-.385.1.254,4.961.771,9.915,1.156,14.86s.729,9.922,1.014,14.9c.567,9.849,1.118,19.7,1.507,29.563.771,19.837,1.114,39.67.844,59.484q-.112,8.361-.362,16.7c-.166,5.555-.42,11.09-.489,16.657,0,.979.96,1.156,1.041.2.386-4.911.586-9.857.771-14.814s.3-9.934.385-14.907q.289-14.918.143-29.875C1070.5,486.182,1069.738,466.241,1068.235,446.365Zm-1.075,81.942a59.592,59.592,0,0,0-1.6-11.1,60.41,60.41,0,0,0-3.677-10.547,83.97,83.97,0,0,0-5.4-9.722c-2.217-3.55-4.691-6.939-7.082-10.366-.177-.258-.594-.027-.424.247,1.95,3.107,3.816,6.26,5.643,9.44.921,1.6,1.819,3.215,2.652,4.865s1.542,3.292,2.267,4.969a64.375,64.375,0,0,1,5.115,20.862c.15,2.012.2,4.032.146,6.048-.023,1.033-.066,2.07-.131,3.084-.031.5-.07,1-.116,1.507a9.816,9.816,0,0,0,.031,1.58.963.963,0,0,0,1.881.255,20.59,20.59,0,0,0,.733-5.647C1067.272,531.908,1067.252,530.135,1067.16,528.308Z" transform="translate(-540.418 -202.624)" fill="#19a193"/>
    <path id="Path_45661" data-name="Path 45661" d="M1136.507,501.082c-2.39,1.9-4.768,3.789-7.074,5.782s-4.572,4.071-6.757,6.218a50.179,50.179,0,0,0-10.192,13.492c-2.7,5.532-3.766,11.518-4.341,17.594-.605,6.434-.875,12.906-.91,19.371s.146,13.041.705,19.525c.069.806.146,1.6.255,2.4s1.36.825,1.326-.046c-.119-3.211-.409-6.415-.551-9.637s-.22-6.426-.232-9.637c-.027-6.457.22-12.917.706-19.355.447-5.948,1.133-12.027,3.377-17.605a50.882,50.882,0,0,1,8.866-14.167,74.081,74.081,0,0,1,6.311-6.426c2.243-2.043,4.626-3.932,6.908-5.921.57-.5,1.156-.979,1.734-1.469C1136.7,501.156,1136.584,501.017,1136.507,501.082Z" transform="translate(-576.24 -256.725)" fill="#006b61"/>
    <path id="Path_45662" data-name="Path 45662" d="M1096.2,751.685h-20.982c-6.715-15.8,6.711-31.61,0-47.415H1096.2C1089.486,720.067,1102.916,735.876,1096.2,751.685Z" transform="translate(-555.378 -381.597)" fill="#ffb300"/>
    <path id="Path_45663" data-name="Path 45663" d="M1099.292,704.24H1078.31q.385.929.7,1.87h15.758c-6.4,11.684,5.659,34.936-9.02,45.557h13.53C1106.007,735.857,1092.577,720.049,1099.292,704.24Z" transform="translate(-558.469 -381.579)" fill="#ff9500"/>
    <rect id="Rectangle_20816" data-name="Rectangle 20816" width="24.725" height="3.111" rx="1.555" transform="translate(517.968 319.55)" fill="#ffb300"/>
    <path id="Path_45664" data-name="Path 45664" d="M588.813,342.826H339.266L328.75,184.82H599.329Z" transform="translate(-97.852 -62.387)" fill="#e67b30"/>
    <path id="Path_45665" data-name="Path 45665" d="M352.658,344.464,342.3,197.34H602.436L592.078,344.464Z" transform="translate(-106.179 -70.081)" fill="url(#radial-gradient)"/>
    <path id="Path_45666" data-name="Path 45666" d="M647.933,411.137h0l-19.59-8.808-9.213-4.144,4.209,7.636,12.035,21.838h0l2.818,5.123,2.313-5.1,4.379-9.76h0Zm-6.252-2,5.273,2.375-2.456,5.424a6.168,6.168,0,0,1-2.833-7.8Zm-20.816-9.371,5.782,2.594c-.019.039-.038.077-.062.116v.027a4.033,4.033,0,0,1-2.764,1.947,2.981,2.981,0,0,1-.316.046Zm2.9,5.254h.131a4.587,4.587,0,0,0,3.146-2.22v-.027c.031-.054.058-.108.085-.166l.894.4,13.014,5.825a6.869,6.869,0,0,0,3.2,8.77l-4.279,9.475c-.085-.035-.173-.073-.262-.1a5.2,5.2,0,0,0-3.442,0c-.116.039-.227.081-.339.127l-11.769-21.356Zm12.432,22.562.247-.093a4.687,4.687,0,0,1,3.084,0l.216.089-1.588,3.531Zm-32.94-53.44a1.027,1.027,0,0,0-.062-.478,1.052,1.052,0,0,0-1.87-.185c-.732-.227-1.511-.447-2.313-.652,3.084-4.375,4.9-8.369,3.531-9.583s-5.142,1.045-9.151,4.626a1.048,1.048,0,0,0-.937-.216c-2.494-4.73-5.223-8.149-6.939-7.486-1.2.466-1.407,2.775-.952,5.91a1.052,1.052,0,0,0,.359,2.02c.189.914.424,1.87.69,2.852-5.62-.177-10.254.544-10.508,2.417-.243,1.812,3.728,3.67,8.916,5.011a37.562,37.562,0,0,0-2.7,4.329,1.01,1.01,0,0,0-.609.046,1.053,1.053,0,0,0-.6,1.365,1.064,1.064,0,0,0,.385.47c-.586,1.584-.659,2.795,0,3.377.52.462,1.4.424,2.494,0a26.991,26.991,0,0,0,7.22-5.127c2.594,5.1,5.512,8.9,7.3,8.211.844-.332,1.2-1.577,1.156-3.385a1.182,1.182,0,0,0,.158-.042,1.052,1.052,0,0,0-.316-2.035,40.344,40.344,0,0,0-1.11-5.308,39.635,39.635,0,0,0,5.177-.135,14.653,14.653,0,0,0,3.651-.752c.917-.355,1.584-.852,1.677-1.542C608.074,376.552,606.173,375.26,603.252,374.143Zm-9.56-5.856v-.027a24.348,24.348,0,0,1,6.553-4.556c.937-.385,1.623-.385,1.977-.081.968.863-.362,4.4-3.7,9.078-1.3-.316-2.652-.6-4.04-.84-.347-.809-.713-1.6-1.083-2.379a1.052,1.052,0,0,0,.274-1.195Zm-6.052,8.8c.22.563.447,1.126.682,1.681-1.241-.216-2.405-.459-3.492-.717q.971-1.33,2.143-2.76C587.188,375.9,587.408,376.5,587.64,377.091Zm-1.376-5.628c1.01.05,2.074.123,3.188.235q-.526.578-1.041,1.156c-.424.478-.844.964-1.253,1.449C586.822,373.31,586.521,372.365,586.263,371.463Zm1.85,5.443c-.274-.7-.524-1.392-.771-2.066.459-.547.937-1.1,1.442-1.665.436-.489.867-.956,1.3-1.411.621.069,1.253.143,1.9.231.721.1,1.418.2,2.1.316q.386.952.8,1.966c.274.705.528,1.392.771,2.066q-.686.821-1.438,1.665-.651.736-1.3,1.411c-.628-.066-1.26-.143-1.9-.231-.721-.1-1.419-.2-2.1-.316C588.646,378.236,588.38,377.585,588.114,376.906Zm6.472,1.442c.428-.474.844-.96,1.257-1.449.335.975.632,1.927.894,2.818-1.033-.046-2.1-.123-3.192-.231C593.9,379.111,594.247,378.734,594.586,378.348Zm.771-4.24q-.328-.844-.682-1.681c1.241.22,2.405.463,3.492.721-.644.883-1.361,1.808-2.143,2.76q-.316-.917-.667-1.816Zm-2.448-4.418c.316.655.628,1.345.94,2.062-.6-.1-1.195-.189-1.792-.27-.509-.069-1.021-.131-1.542-.189.574-.6,1.137-1.156,1.688-1.7A1.038,1.038,0,0,0,592.909,369.69Zm-7.517-1.7a1.052,1.052,0,0,0-.358-2.012c-.44-3.061-.193-5.011.655-5.35,1.2-.463,3.693,2.255,6.31,7.236a1.035,1.035,0,0,0-.166,1.392c-.651.624-1.3,1.276-1.927,1.951-1.276-.131-2.544-.224-3.77-.274-.308-1.021-.551-2.016-.744-2.934Zm-9.791,5.431c.062-.439.528-.829,1.353-1.156,1.654-.644,4.741-.991,8.789-.844.3,1.083.655,2.19,1.037,3.3-.875,1.056-1.7,2.132-2.467,3.188-5.574-1.368-8.885-3.211-8.712-4.479Zm5.216,14.128c-.451-.386-.385-1.392.123-2.81a1.034,1.034,0,0,0,.547-.054,1.052,1.052,0,0,0,.6-1.365,1.026,1.026,0,0,0-.316-.432,36.247,36.247,0,0,1,2.748-4.418c1.291.316,2.652.6,4.036.84.447,1.041.921,2.059,1.407,3.034-4.529,4.2-8.138,6.114-9.147,5.212Zm8.334-8.138c.594.1,1.191.189,1.793.27.513.069,1.022.135,1.542.193q-1.095,1.133-2.136,2.116-.59-1.206-1.2-2.571Zm8.866,6.222a1.052,1.052,0,0,0,.154,1.985c.023,1.65-.278,2.7-.871,2.918-1.26.49-3.97-2.567-6.742-8.1.852-.794,1.7-1.638,2.54-2.513,1.3.135,2.564.227,3.774.281a38.443,38.443,0,0,1,1.153,5.431Zm9.371-7.895c-.12.875-1.927,1.569-4.873,1.862a39.722,39.722,0,0,1-5.269.127c-.3-1.083-.655-2.186-1.033-3.292.871-1.06,1.7-2.136,2.463-3.192.875.22,1.7.447,2.459.682a.98.98,0,0,0,.062.489,1.052,1.052,0,0,0,1.874.177c2.88,1.1,4.448,2.259,4.325,3.153Zm-146.1,48.2a6.326,6.326,0,1,0-6.887-2.815A6.353,6.353,0,0,0,461.289,425.944Zm-6.064-2.382a5.9,5.9,0,0,1,3.084-9.541,5.979,5.979,0,0,1,4.132.49,5.9,5.9,0,1,1-7.216,9.051Zm6.048,2.382a6.326,6.326,0,1,0-6.887-2.815A6.353,6.353,0,0,0,461.274,425.944Zm-6.048-2.382a5.9,5.9,0,0,1,3.084-9.541,5.979,5.979,0,0,1,4.132.49,5.9,5.9,0,1,1-7.216,9.051Zm6.341,3.446a7.413,7.413,0,0,0,5.636-6.939,7.49,7.49,0,1,0-13.928,3.469l.1.173.147.227.023.027.216.3c.085.1.166.212.254.316a6.968,6.968,0,0,0,.617.648l.2.181.158.131a7.544,7.544,0,0,0,6.588,1.461Zm-6.422-1.951a6.861,6.861,0,0,1-1.368-1.6,7.05,7.05,0,0,1,1.388-9.082,7.04,7.04,0,1,1-.019,10.678Zm10.928-4.772a6.326,6.326,0,1,0-4.8,5.659A6.326,6.326,0,0,0,466.073,420.285Zm-10.848,3.277a5.9,5.9,0,0,1,3.084-9.541,5.979,5.979,0,0,1,4.132.49,5.9,5.9,0,1,1-7.216,9.051Zm6.048,2.382a6.326,6.326,0,1,0-6.887-2.815A6.353,6.353,0,0,0,461.274,425.944Zm-6.048-2.382a5.9,5.9,0,0,1,3.084-9.541,5.979,5.979,0,0,1,4.132.49,5.9,5.9,0,1,1-7.216,9.051Zm6.048,2.382a6.326,6.326,0,1,0-6.887-2.815A6.353,6.353,0,0,0,461.274,425.944Zm-6.048-2.382a5.9,5.9,0,0,1,3.084-9.541,5.979,5.979,0,0,1,4.132.49,5.9,5.9,0,1,1-7.216,9.051Z" transform="translate(-173.733 -170.091)" fill="#19a193"/>
    <path id="Path_45667" data-name="Path 45667" d="M453.876,526.922l.844-.713.355-.3-.2-.181a6.865,6.865,0,0,1-1.368-1.6l-.146-.227-.355.3-.8.679-.443.385.463.1a1.46,1.46,0,0,1,.825.5,1.5,1.5,0,0,1,.362.964.551.551,0,0,1,0,.081v.416Zm-.066-.586a1.989,1.989,0,0,0-.062-.2,1.45,1.45,0,0,0-.081-.181.513.513,0,0,0-.05-.089.31.31,0,0,0-.039-.069.379.379,0,0,0-.062-.092.936.936,0,0,0-.112-.154,1.568,1.568,0,0,0-.177-.181.805.805,0,0,0-.108-.093l-.035-.031a1.715,1.715,0,0,0-.343-.2h0l.513-.435.023.027.216.3c.085.1.166.212.254.316a6.935,6.935,0,0,0,.617.648l-.544.459Z" transform="translate(-173.444 -270.757)" fill="#19a193"/>
    <path id="Path_45668" data-name="Path 45668" d="M418.388,540.233a1.48,1.48,0,0,0,.563-.278l1.422-1.129,10.142-8.06.983-.771a.421.421,0,0,0,.069-.054,1.959,1.959,0,0,0,.694-1.415v-.116a2.263,2.263,0,0,0-.058-.451h0a2,2,0,0,0-.062-.2,1.47,1.47,0,0,0-.081-.181.517.517,0,0,0-.05-.089.316.316,0,0,0-.039-.069.388.388,0,0,0-.062-.092.934.934,0,0,0-.112-.154,1.587,1.587,0,0,0-.177-.181.8.8,0,0,0-.108-.092l-.035-.031a1.722,1.722,0,0,0-.343-.2h0a1.921,1.921,0,0,0-.412-.139H430.6a1.954,1.954,0,0,0-1.638.474l-.944.86-9.606,8.693-1.345,1.218a1.469,1.469,0,0,0,1.334,2.513Zm-1.106-.771a1,1,0,0,1,.085-1.384l1.338-1.21.343-.312,8.912-8.064.351-.316.952-.863a1.487,1.487,0,0,1,1.345-.351,1.459,1.459,0,0,1,.825.5,1.5,1.5,0,0,1,.362.964.578.578,0,0,1,0,.081,1.492,1.492,0,0,1-.528,1.087.167.167,0,0,1-.042.031l-1.01.8-.366.293-9.41,7.459-.366.289-1.4,1.122a.991.991,0,0,1-1.392-.139Z" transform="translate(-151.829 -272.353)" fill="#19a193"/>
    <path id="Path_45669" data-name="Path 45669" d="M433.41,365.731h0l-.3-.355-1.908-2.251-.3-.355-9.606,8.693.3.355,1.368,1.611.3.359Zm-11.472,5.782,8.912-8.064,1.889,2.224-9.41,7.467Zm172.281-82.825-19.891-7.629,8.866-23.129,19.891,7.629Zm-19.189-7.941,18.889,7.236,8.481-22.127L583.51,258.62Z" transform="translate(-154.72 -107.314)" fill="#19a193"/>
    <path id="Path_45670" data-name="Path 45670" d="M572.262,242.239l-2.012-.771,1.1-2.872,2.012.771Zm-1.307-1.083.995.385.709-1.854-.995-.385Zm6.561,8.342-15.134-5.805c-.069-.027-.085-.158-.031-.3s.154-.231.224-.2L577.709,249c.069.023.081.158.027.3S577.586,249.525,577.516,249.5Zm-1,2.475-15.134-5.8c-.069-.027-.085-.162-.031-.3s.154-.227.224-.2l15.134,5.782c.069.027.081.158.027.3S576.587,252,576.518,251.973Zm-1,2.475-15.134-5.8c-.073-.027-.085-.162-.031-.3s.15-.227.22-.2l15.122,5.821c.069.027.085.162.031.3S575.589,254.475,575.519,254.448Zm-1,2.475-15.134-5.8c-.069-.027-.081-.158-.027-.3s.15-.231.22-.2l15.134,5.8c.069.027.085.162.031.3S574.587,256.949,574.517,256.922Zm-1,2.479-15.134-5.821c-.069-.027-.081-.158-.031-.3s.154-.231.224-.2l15.134,5.805c.069.027.081.158.031.3S573.588,259.428,573.519,259.4Zm-1,2.475-15.134-5.782c-.069-.027-.085-.162-.031-.3s.154-.227.224-.2l15.134,5.8c.069.027.081.158.027.3S572.59,261.9,572.521,261.876Zm-172.35-4.861a23.131,23.131,0,0,0-2.845-4.395,6.083,6.083,0,0,0-1.839-1.577,2.024,2.024,0,0,0-2.44.386,3.035,3.035,0,0,0-.628,1.095,9.038,9.038,0,0,0-.385,1.873,20.8,20.8,0,0,0-.166,2.159q-.027,1.133.031,2.24t.2,2.047a10.272,10.272,0,0,0,.343,1.584,2.368,2.368,0,0,0,.652,1.156.852.852,0,0,0,.809.12,1.111,1.111,0,0,0,.648-.474,1.8,1.8,0,0,0,.212-.867,7.738,7.738,0,0,0-.081-1.264c-.042-.42-.108-.879-.2-1.368a1.09,1.09,0,0,0-.05-.216c.3-.035.605-.085.917-.15a10.946,10.946,0,0,0,1.712-.517,6.255,6.255,0,0,0,.991-.482,1.09,1.09,0,0,0,.035.12c.158.493.331.96.52,1.407a4.271,4.271,0,0,0,.933,1.469.987.987,0,0,0,1,.212,1.068,1.068,0,0,0,.736-.729,2.509,2.509,0,0,0-.127-1.5A16.733,16.733,0,0,0,400.17,257.015Zm-3.084-.478a2.525,2.525,0,0,1-1.23.7,2.641,2.641,0,0,1-1.334.154.836.836,0,0,1-.64-.586,4.2,4.2,0,0,1-.173-1.018,7.75,7.75,0,0,1,0-1.234,3.76,3.76,0,0,1,.247-1.083.879.879,0,0,1,.528-.574.894.894,0,0,1,.771.146,3.829,3.829,0,0,1,.825.713,6.837,6.837,0,0,1,.713.964,4.313,4.313,0,0,1,.428.887.937.937,0,0,1-.143.933Zm14.163,6.993v-.065a4.592,4.592,0,0,0,1.715-1.156,2.609,2.609,0,0,0,.655-1.835,2.552,2.552,0,0,0-.32-1.276,2.313,2.313,0,0,0-1.029-.925,4.278,4.278,0,0,0-1.889-.351,7.215,7.215,0,0,0-2.733.409,3.038,3.038,0,0,0-1.407,1.079,4.917,4.917,0,0,0-.5,1.156,9.256,9.256,0,0,0-.335,1.862c-.077.771-.116,1.742-.116,2.922a14.157,14.157,0,0,0,.1,1.823,5.689,5.689,0,0,0,.335,1.349,2.348,2.348,0,0,0,.991,1.187,3.292,3.292,0,0,0,1.677.385,6.239,6.239,0,0,0,1.927-.3,6.12,6.12,0,0,0,1.712-.848,4.428,4.428,0,0,0,1.21-1.3A3.084,3.084,0,0,0,413.7,266a2.282,2.282,0,0,0-.644-1.742A3.027,3.027,0,0,0,411.249,263.53Zm-3.176-3.292a3.122,3.122,0,0,1,1.638-.385,2.29,2.29,0,0,1,1.392.358,1.13,1.13,0,0,1,.474.948,1.519,1.519,0,0,1-.744,1.3,3.28,3.28,0,0,1-1.858.5,1.878,1.878,0,0,1-1.122-.3,1.245,1.245,0,0,1-.416-1.072A1.453,1.453,0,0,1,408.073,260.238Zm3.2,6.939a2.4,2.4,0,0,1-.964.713,3.549,3.549,0,0,1-1.4.262,1.654,1.654,0,0,1-1.195-.385,1.78,1.78,0,0,1-.386-1.3,1.646,1.646,0,0,1,.5-1.365,2.1,2.1,0,0,1,1.349-.385,3.3,3.3,0,0,1,1.858.416,1.233,1.233,0,0,1,.594,1.041,1.611,1.611,0,0,1-.358,1Zm14.706-17.115a6,6,0,0,0-3.2,0,5.012,5.012,0,0,0-2.425,1.642,7.375,7.375,0,0,0-1.434,3.011,6.732,6.732,0,0,0-.108,3,4.395,4.395,0,0,0,1.318,2.336,7.563,7.563,0,0,0,5.628,1.577,1.438,1.438,0,0,0,1.218-.983.976.976,0,0,0-.131-.848,1.33,1.33,0,0,0-.794-.47,3.95,3.95,0,0,0-.74-.089,9.236,9.236,0,0,1-.995-.058,5.937,5.937,0,0,1-.991-.147,3.053,3.053,0,0,1-1.927-1.28,3.593,3.593,0,0,1-.17-2.787,3.955,3.955,0,0,1,.871-1.816,2.387,2.387,0,0,1,1.334-.729,3.612,3.612,0,0,1,1.542.058,3.146,3.146,0,0,1,1.033.428c.278.181.532.366.771.547a2.04,2.04,0,0,0,.771.385,1.4,1.4,0,0,0,1.045-.073,1.11,1.11,0,0,0,.536-.752,1.749,1.749,0,0,0-.628-1.712A5.343,5.343,0,0,0,425.979,250.061Zm16.807,7.594a5.18,5.18,0,0,0-2.822-1.01,8.411,8.411,0,0,0-3.647.678,6.816,6.816,0,0,0-2.351,1.365,1.2,1.2,0,0,0-.386,1.365.706.706,0,0,0,.7.409,3.83,3.83,0,0,0,1.523-.355c.17-.069.331-.143.49-.224a15.071,15.071,0,0,0,.385,1.592c.208.7.451,1.419.736,2.163s.586,1.453.91,2.12a14.666,14.666,0,0,0,.8,1.465,4.45,4.45,0,0,0-1.446.975.9.9,0,0,0-.227.918.875.875,0,0,0,.409.409,1.543,1.543,0,0,0,.86.054,7.444,7.444,0,0,0,1.542-.466,8.642,8.642,0,0,0,2.621-1.573,6.8,6.8,0,0,0,1.642-2.166,6.169,6.169,0,0,0,.6-2.544,6.819,6.819,0,0,0-.509-2.7A5.59,5.59,0,0,0,442.786,257.655Zm.123,5.782a3.569,3.569,0,0,1-.5,1.627,2.113,2.113,0,0,1-.937.856c-.347.135-.705-.085-1.075-.667a16.578,16.578,0,0,1-1.268-2.664c-.3-.771-.536-1.43-.69-1.97a4.168,4.168,0,0,1-.216-1.28.586.586,0,0,1,.335-.59,2.015,2.015,0,0,1,.925-.112,3.027,3.027,0,0,1,1.1.332,3.783,3.783,0,0,1,1.083.844,4.667,4.667,0,0,1,.863,1.446,4.756,4.756,0,0,1,.385,2.174Zm-42.48,53.174,4.213-5.358,4.5,4.776,1.65-11.842,4.807-5.805-28.911-6.773Zm4.587-5.832,2.267-2.883,1.18,6.553Zm3.882,2.7-1.122-6.218h0l-12.613-9.946,15.034,6.939Zm1.542-9.787-19.59-9.024,16.1,12.7-2.7,3.469-3.708,4.715-12.682-23.033,26.664,6.249Zm74.838-73.265a2.7,2.7,0,1,0-3.211-2.066,2.827,2.827,0,0,0,.243.663L478.1,233.15a4.163,4.163,0,0,0-3.115-.547,4.241,4.241,0,0,0-1.156.428l-2.98-3.543a2.2,2.2,0,1,0-1.372.941,2.154,2.154,0,0,0,.358-.112l3,3.516a4.186,4.186,0,0,0-1.041,3.751l-4.24,2.1a1.7,1.7,0,1,0,.678,1.126l4.036-2a4.194,4.194,0,0,0,3.277,2.074l.443,5.231a2.193,2.193,0,1,0,1.311-.039l-.451-5.289a4.194,4.194,0,0,0,2.768-2.143l4.248,1.446a1.75,1.75,0,0,0,.035.281,1.7,1.7,0,1,0,.412-1.515L480,237.39a4.186,4.186,0,0,0-.918-3.392L483.181,230A2.672,2.672,0,0,0,485.278,230.424Zm-8.866,8.8a2.579,2.579,0,1,1,1.974-3.065,2.579,2.579,0,0,1-1.974,3.065Zm86.325,91.456-3.4,3.377-3.381-3.4-2.413,2.394,3.377,3.408-3.408,3.377,2.4,2.417,3.408-3.377,3.377,3.4,2.417-2.4-3.381-3.415,3.408-3.377Zm1.4,9.186-1.426,1.415-3.377-3.4-3.408,3.377-1.415-1.426,3.408-3.377-3.381-3.408,1.426-1.415,3.381,3.408,3.4-3.377,1.415,1.426-3.415,3.377ZM435.982,326.1h13.877v-3.635H435.982Zm.744-2.891h12.4v2.147h-12.4Zm8.149-3.616a1.951,1.951,0,1,0-1.951,1.951A1.951,1.951,0,0,0,444.875,319.594Zm-3.153,0a1.2,1.2,0,1,1,.351.853A1.2,1.2,0,0,1,441.722,319.594Zm1.2,7.34a1.951,1.951,0,1,0,1.951,1.927A1.951,1.951,0,0,0,442.924,326.934Zm0,3.153a1.207,1.207,0,1,1,1.2-1.207A1.207,1.207,0,0,1,442.924,330.087Z" transform="translate(-133.457 -87.133)" fill="#19a193"/>
    <path id="Path_45671" data-name="Path 45671" d="M611.076,567.1H580.989a8.249,8.249,0,0,0-8.249,8.249v5.512h46.582v-5.512A8.249,8.249,0,0,0,611.076,567.1Z" transform="translate(-247.788 -297.304)" fill="#ffb300"/>
    <rect id="Rectangle_20817" data-name="Rectangle 20817" width="23.518" height="3.577" rx="1.789" transform="translate(397.396 276.677)" fill="#fff"/>
    <rect id="Rectangle_20818" data-name="Rectangle 20818" width="3.564" height="23.43" rx="1.782" transform="translate(408.478 273.49) rotate(-72.474)" fill="#fff"/>
    <path id="Path_45672" data-name="Path 45672" d="M601.389,601.248h-261.2l-.459-6.538H601.844Z" transform="translate(-104.6 -314.271)" fill="#80331d"/>
    <path id="Path_45673" data-name="Path 45673" d="M649.565,355.025c-.729-4.441-3.284-8.35-5.983-11.95-16.684-18.754,1.052-26.5-14.425-48.405l-53.694,7.116c-6.322,8.365,2.49,19.5-.586,28.58-1.257,3.731-4.267,6.553-6.434,9.845a24.621,24.621,0,0,0-1.769,23.434q1.8-2.984,3.612-5.96c-2.544,9.9,7.189,19.421,18.889,16.19,10.678-2.945,26.8-2.116,29.725-.478,8.377,2.467,23.04-2.371,23.835-13.943,1.122,1.241,1.954,5.085,1.037,7.54A12.52,12.52,0,0,0,649.565,355.025Z" transform="translate(-242.732 -129.892)" fill="#521c00"/>
    <path id="Path_45674" data-name="Path 45674" d="M650.511,494.037c.054-.339.081-.532.081-.563,0-.6-28.26-11.565-28.26-11.565H600.684s-28.264,10.975-28.264,11.565c0,.031.031.224.085.563-.054.039-.085.069-.085.089,0,.6,12.428,70.979,12.428,70.979h53.328S650.6,494.727,650.6,494.126A.335.335,0,0,0,650.511,494.037Z" transform="translate(-247.591 -244.953)" fill="#ff5773"/>
    <path id="Path_45675" data-name="Path 45675" d="M666.375,454.25a11.3,11.3,0,0,1-4.283-12.474l.035-.131-6.792-.355-6.8.355.035.131c1.307,4.834.227,9.942-3.647,12.8-.821.605,10.624,20.461,10.624,20.461S667.254,454.863,666.375,454.25Z" transform="translate(-292.12 -219.992)" fill="#fca174"/>
    <path id="Path_45676" data-name="Path 45676" d="M658.873,441.41l-4.533.235v.131a15.029,15.029,0,0,1,.528,3.951c3.323,1.927,7.71,2.968,12.451.119a15.284,15.284,0,0,1,.547-4.067h0l.035-.131-6.754-.359Z" transform="translate(-297.932 -219.992)" fill="#ea6a42"/>
    <path id="Path_45677" data-name="Path 45677" d="M625.638,290.28s-26.267,18.118-26.629,20.862c-.964,7.324-1.927,21.761,3.855,29.2,3.855,4.973,11.7,9.213,17.108,11.715a13.553,13.553,0,0,0,11.441,0c5.4-2.5,13.238-6.742,17.108-11.715,5.782-7.436,4.807-21.865,3.855-29.2C651.986,308.382,625.638,290.28,625.638,290.28Z" transform="translate(-263.483 -127.194)" fill="#fca174"/>
    <ellipse id="Ellipse_2160" data-name="Ellipse 2160" cx="5.054" cy="3.034" rx="5.054" ry="3.034" transform="translate(372.428 203.921)" fill="#ea6a42"/>
    <path id="Path_45678" data-name="Path 45678" d="M651.71,421.042a7.039,7.039,0,0,0,1.816,4.148,7.3,7.3,0,0,0,5.4,2.8A7.959,7.959,0,0,0,666.089,421,24.6,24.6,0,0,1,651.71,421.042Z" transform="translate(-296.316 -207.523)" fill="#210a00"/>
    <path id="Path_45679" data-name="Path 45679" d="M662.417,434.06a7.006,7.006,0,0,0,4.938-2.34,15.469,15.469,0,0,0-9.945-.039A7.087,7.087,0,0,0,662.417,434.06Z" transform="translate(-299.819 -213.594)" fill="#f35877"/>
    <ellipse id="Ellipse_2161" data-name="Ellipse 2161" cx="5.054" cy="3.034" rx="5.054" ry="3.034" transform="translate(342.33 203.921)" fill="#ea6a42"/>
    <path id="Path_45680" data-name="Path 45680" d="M656.61,343.04a10.148,10.148,0,0,0-1.592-1.962.688.688,0,0,1-.05.277.771.771,0,0,0-.385-.686.977.977,0,0,1,.05.274,4.073,4.073,0,0,0-1.515-1.349c-1.018-.52-1.3-.636-1.3-.636l.119.347a4.342,4.342,0,0,0-1.241-.69c-.744-.227-4.98-.351-6.912.736a.606.606,0,0,0-.278.594l.081.771a.659.659,0,0,0,.9.567C647.177,340.153,652.925,340.658,656.61,343.04Zm-41.1,0a10.246,10.246,0,0,1,1.588-1.962.65.65,0,0,0,.054.277.771.771,0,0,1,.385-.686,1.164,1.164,0,0,0-.05.274A4.076,4.076,0,0,1,619,339.594c1.018-.52,1.3-.636,1.3-.636l-.12.347a4.339,4.339,0,0,1,1.241-.69c.744-.227,4.98-.351,6.912.736a.605.605,0,0,1,.278.594l-.081.771a.659.659,0,0,1-.9.567C624.951,340.153,619.191,340.658,615.51,343.04Z" transform="translate(-274.071 -156.802)" fill="#521c00"/>
    <path id="Path_45681" data-name="Path 45681" d="M634.283,373.8c-.505-.131-.948.185-1.423.316a3.157,3.157,0,0,1-1.272.108,1.986,1.986,0,0,1-1.654-1.338c-.25-.94.385-1.866.771-2.671a3.825,3.825,0,0,0,.447-2.652.254.254,0,0,0-.49.135c.266,1.191-.663,2.2-1.18,3.18a2.826,2.826,0,0,0,2.028,4.495,4.08,4.08,0,0,0,1.658-.108c.547-.143,1.206-.343,1.4-.933A.439.439,0,0,0,634.283,373.8Zm-9.387-9.9a8.542,8.542,0,0,0-3.026-6.734c-3.369-2.926-8.068-1.26-9.7.239s-1.8,2.567-4,2.313Z" transform="translate(-269.56 -167.309)" fill="#ea6a42"/>
    <path id="Path_45682" data-name="Path 45682" d="M625.17,367.8s-.254-6.279-4.7-8.427-9.344,2.313-9.344,2.313a8.123,8.123,0,0,1-2.961.027,9.463,9.463,0,0,0,2.961,2.066C612.942,364.563,625.17,367.8,625.17,367.8Z" transform="translate(-269.56 -169.297)" fill="#290e2b"/>
    <path id="Path_45683" data-name="Path 45683" d="M629.889,369.711s-4.7,3.011-9.19,1.58a6.846,6.846,0,0,1-4.849-5.617s2.856-4.684,8.168-3.624C628.359,362.918,629.889,369.711,629.889,369.711Z" transform="translate(-274.28 -171.202)" fill="#fff"/>
    <circle id="Ellipse_2162" data-name="Ellipse 2162" cx="4.699" cy="4.699" r="4.699" transform="translate(344.376 190.282)" fill="#290e2b"/>
    <path id="Path_45684" data-name="Path 45684" d="M627.205,363.557a1.4,1.4,0,0,1-2.617-.324,1.006,1.006,0,0,1,.027-.451,7.4,7.4,0,0,1,2.155-.682A1.272,1.272,0,0,1,627.205,363.557Z" transform="translate(-279.641 -171.328)" fill="#fff"/>
    <circle id="Ellipse_2163" data-name="Ellipse 2163" cx="0.74" cy="0.74" r="0.74" transform="translate(351.651 193.786)" fill="#fff"/>
    <path id="Path_45685" data-name="Path 45685" d="M689.256,363.9a8.554,8.554,0,0,1,3.03-6.734c3.369-2.926,8.064-1.26,9.7.239s1.8,2.567,4,2.313Z" transform="translate(-319.388 -167.309)" fill="#ea6a42"/>
    <path id="Path_45686" data-name="Path 45686" d="M688.55,367.8s.258-6.279,4.7-8.427,9.344,2.313,9.344,2.313a8.123,8.123,0,0,0,2.961.027,9.463,9.463,0,0,1-2.953,2.051C700.778,364.563,688.55,367.8,688.55,367.8Z" transform="translate(-318.955 -169.297)" fill="#290e2b"/>
    <path id="Path_45687" data-name="Path 45687" d="M688.55,369.711s4.7,3.011,9.19,1.58a6.847,6.847,0,0,0,4.861-5.617s-2.86-4.684-8.172-3.624C690.084,362.918,688.55,369.711,688.55,369.711Z" transform="translate(-318.955 -171.202)" fill="#fff"/>
    <circle id="Ellipse_2164" data-name="Ellipse 2164" cx="4.699" cy="4.699" r="4.699" transform="translate(371.434 190.282)" fill="#290e2b"/>
    <path id="Path_45688" data-name="Path 45688" d="M709.307,363.557a1.4,1.4,0,0,0,2.617-.324,1.066,1.066,0,0,0-.027-.451,7.438,7.438,0,0,0-2.155-.682A1.272,1.272,0,0,0,709.307,363.557Z" transform="translate(-331.663 -171.328)" fill="#fff"/>
    <circle id="Ellipse_2165" data-name="Ellipse 2165" cx="0.74" cy="0.74" r="0.74" transform="translate(372.073 193.786)" fill="#fff"/>
    <path id="Path_45689" data-name="Path 45689" d="M644.033,274.727c-7.987-11.087-22.778-7.848-25.924-8.157-31.348-3.053-33.009,26.629-28.857,35.418,0,0,3.03-1.523,3.589-1.9,4.653-3.173,9.9-7.07,11.106-15.57l.347-.216a13.615,13.615,0,0,1-5.273,13.064c10.181-.227,17.428-7.452,16.722-16.19h.023A20.55,20.55,0,0,0,634.057,296.4s-3.246-7.259-2.4-9.83c1.418,3.038,2.463,8.982,10.022,13.079a48.813,48.813,0,0,0,5.89,1.966S653.1,287.336,644.033,274.727Z" transform="translate(-256.918 -112.489)" fill="#521c00"/>
    <path id="Path_45690" data-name="Path 45690" d="M733.23,364.668s2.8-7.625,7.744-4.83,4.969,12.783-7.378,12.528Z" transform="translate(-346.412 -169.56)" fill="#fca174"/>
    <path id="Path_45691" data-name="Path 45691" d="M744.945,368s-4.815,2.1-2.579,7.047c0,0,.432-3.227,1.384-3.2a2.7,2.7,0,0,1,1.719.987,3.73,3.73,0,0,0-.729-1.646,2.267,2.267,0,0,1-.224-2.76A1.543,1.543,0,0,1,744.945,368Z" transform="translate(-351.662 -174.954)" fill="#ea6a42"/>
    <path id="Path_45692" data-name="Path 45692" d="M588.2,364.668s-2.795-7.625-7.74-4.83-4.969,12.783,7.378,12.528Z" transform="translate(-250.628 -169.56)" fill="#fca174"/>
    <path id="Path_45693" data-name="Path 45693" d="M587.9,368s4.815,2.1,2.579,7.047c0,0-.432-3.227-1.384-3.2a2.713,2.713,0,0,0-1.723.987,3.763,3.763,0,0,1,.732-1.646,2.263,2.263,0,0,0,.22-2.76A1.482,1.482,0,0,0,587.9,368Z" transform="translate(-256.778 -174.954)" fill="#ea6a42"/>
    <path id="Path_45694" data-name="Path 45694" d="M649.065,510.336s-5.69-6.723-7.49-6.372a71.773,71.773,0,0,0-7.405,2.664s5.678-8.866,6.738-8.569S648.676,508.439,649.065,510.336Z" transform="translate(-285.538 -254.872)" fill="#e02444"/>
    <path id="Path_45695" data-name="Path 45695" d="M633.366,473c-2.213.975-6.877,5.458-8.866,8.481l3.708,9.749s6.253-7.081,7.629-6.754,7.266,10.462,7.266,10.462S638.57,476.874,633.366,473Z" transform="translate(-279.595 -239.478)" fill="#fff"/>
    <path id="Path_45696" data-name="Path 45696" d="M672.53,510.336s5.659-6.723,7.448-6.372a70.914,70.914,0,0,1,7.355,2.664s-5.639-8.866-6.7-8.569S672.923,508.439,672.53,510.336Z" transform="translate(-309.11 -254.872)" fill="#e02444"/>
    <path id="Path_45697" data-name="Path 45697" d="M682.229,473c2.2.975,6.835,5.458,8.789,8.481l-3.685,9.749s-6.21-7.081-7.579-6.754-7.224,10.462-7.224,10.462S677.063,476.878,682.229,473Z" transform="translate(-309.11 -239.478)" fill="#fff"/>
    <path id="Path_45698" data-name="Path 45698" d="M540.71,510.355c-11.623,3.9-22.042,52.711-20.689,66.488.717,7.286,10.859,12.482,16.052,7.135s20.142-54.056,20.142-54.056S554.83,505.621,540.71,510.355Z" transform="translate(-215.318 -262.057)" fill="#ff5773"/>
    <path id="Path_45699" data-name="Path 45699" d="M534.549,666.249l10.023,9.336s-8.589,11.9-10.235,11.761-18.014-10.05-13.658-18.388C524.977,660.741,534.549,666.249,534.549,666.249Z" transform="translate(-215.344 -357.122)" fill="#ff5773"/>
    <path id="Path_45700" data-name="Path 45700" d="M560.97,687.8c.856-1.272,8,4.911,6.426,5.486-2.112.771-9.325,8.8-8.65,12.112.385,1.869-7.636-4.113-7.987-4.429C549.209,699.545,559.124,686.716,560.97,687.8Z" transform="translate(-234.18 -371.368)" fill="#ff96a8"/>
    <path id="Path_45701" data-name="Path 45701" d="M749.794,510.355c11.626,3.9,22.042,52.711,20.689,66.488-.717,7.286-10.859,12.482-16.052,7.135s-20.141-54.056-20.141-54.056S735.678,505.621,749.794,510.355Z" transform="translate(-347.063 -262.057)" fill="#ff5773"/>
    <path id="Path_45702" data-name="Path 45702" d="M774.583,666.249l-10.023,9.336s8.589,11.9,10.235,11.761,18.014-10.05,13.658-18.388C784.17,660.741,774.583,666.249,774.583,666.249Z" transform="translate(-365.664 -357.122)" fill="#ff5773"/>
    <path id="Path_45703" data-name="Path 45703" d="M760.28,687.8c-.852-1.272-7.991,4.911-6.426,5.486,2.116.771,9.325,8.8,8.65,12.112-.386,1.869,7.636-4.113,7.987-4.429C772.041,699.545,762.126,686.716,760.28,687.8Z" transform="translate(-358.948 -371.368)" fill="#ff96a8"/>
    <circle id="Ellipse_2166" data-name="Ellipse 2166" cx="2.263" cy="2.263" r="2.263" transform="translate(361.654 260.263)" fill="#e02444"/>
    <circle id="Ellipse_2167" data-name="Ellipse 2167" cx="2.263" cy="2.263" r="2.263" transform="translate(361.654 270.22)" fill="#e02444"/>
    <path id="Path_45704" data-name="Path 45704" d="M647.187,577.59s-1.827,8.55-20.531,10.023l22.046.7Zm-69.684,0s1.827,8.55,20.531,10.023L576,588.3Z" transform="translate(-249.791 -303.75)" fill="#e02444"/>
    <path id="Path_45705" data-name="Path 45705" d="M646.717,601.59H562.851a3.118,3.118,0,0,0-3.084,3.415l4.576,47.264a3.119,3.119,0,0,0,3.084,2.818h74.714a3.119,3.119,0,0,0,3.084-2.818l4.595-47.264a3.118,3.118,0,0,0-3.1-3.415Z" transform="translate(-239.807 -318.499)" fill="#2e4287"/>
    <rect id="Rectangle_20819" data-name="Rectangle 20819" width="308.738" height="29.293" transform="translate(211.82 339.692)" fill="#e67b30"/>
    <rect id="Rectangle_20820" data-name="Rectangle 20820" width="320.018" height="8.5" transform="translate(206.18 331.192)" fill="#80331d"/>
    <path id="Path_45706" data-name="Path 45706" d="M569.162,824.41H203.156a1.156,1.156,0,1,0,0,2.313H569.182a1.156,1.156,0,1,0,0-2.313Z" transform="translate(-19.963 -455.425)" fill="#2e4287"/>
    <path id="Path_45707" data-name="Path 45707" d="M259.268,488.8a3.535,3.535,0,1,1,6.488,2.243l2.344,5.112-2.471,1.133-2.151-4.687a3.41,3.41,0,0,1-.694.069,3.511,3.511,0,0,1-1.785-.49,33.325,33.325,0,0,0,6.187,61.681,31.941,31.941,0,0,0,17.651-.416,3.469,3.469,0,0,1,.54-1.542l-2.34-5.088,2.471-1.137,2.155,4.687a3.714,3.714,0,0,1,.694-.069,3.535,3.535,0,1,1-1.8,6.553,35.483,35.483,0,0,1-20.33.671,37.112,37.112,0,0,1-6.954-68.72Z" transform="translate(-42.792 -247.213)" fill="#ffb300"/>
    <path id="Path_45708" data-name="Path 45708" d="M258.86,532.671a28.813,28.813,0,0,0,21.182,27.99,27.935,27.935,0,0,0,7.089.914,28.359,28.359,0,0,0,26.695-19.355,29.6,29.6,0,0,0,1.577-9.548c0-15.963-12.655-28.911-28.271-28.911S258.86,516.708,258.86,532.671Z" transform="translate(-54.904 -258.38)" fill="#048077"/>
    <ellipse id="Ellipse_2168" data-name="Ellipse 2168" cx="11.584" cy="18.885" rx="11.584" ry="18.885" transform="matrix(0.599, -0.801, 0.801, 0.599, 217.952, 261.311)" fill="#0a9386"/>
    <path id="Path_45709" data-name="Path 45709" d="M272.354,514.87a29.212,29.212,0,0,0-4.506,15.662,28.806,28.806,0,0,0,21.182,27.986,27.813,27.813,0,0,0,21.88-3.358A27.944,27.944,0,0,1,280.072,567.5a29.162,29.162,0,0,1-7.717-52.626Z" transform="translate(-54.922 -265.208)" fill="#006b61"/>
    <path id="Path_45710" data-name="Path 45710" d="M294.469,553.595c-.416-.443-.825-.521-2.193-.875-3.469-.906-3.146-1.022-4.822-1.315-1.565-.274-1.623-.135-3.084-.439-1.245-.266-1.349-.386-3.065-.879-3.065-.844-3.469-.617-4.387-1.314a5.065,5.065,0,0,1-1.75-2.629,6.512,6.512,0,0,1,.436-3.944c.139-.432.116-.274,1.315-3.084a20.464,20.464,0,0,0,.879-2.193c.482-1.611.042-2.949.439-3.084.231-.069.385.385.875.439.594.066.836-.517,1.314-.439a1.335,1.335,0,0,1,.879,1.314c-.027.74-.771.9-1.318,1.754a3.512,3.512,0,0,0,0,3.947,2.81,2.81,0,0,0,2.633.875c.975-.227,1.041-.964,2.19-1.315.771-.235.867.05,2.193,0a7.49,7.49,0,0,0,3.5-.875c.863-.5.74-.74,1.754-1.318a20.824,20.824,0,0,1,2.193-.875c1.673-.771,1.446-1.361,2.629-1.754.555-.185.6-.054,3.508,0,1.156.023,1.723.031,2.19,0,1.746-.119,1.893-.447,3.084-.44a4.458,4.458,0,0,1,3.084.879,4.276,4.276,0,0,1,1.315,2.629c.146.956-.154.956,0,1.754.274,1.384,1.2,1.449,1.754,3.084.3.863.081.991.439,1.754.493,1.045,1,1.022,1.315,1.754.516,1.191-.6,1.808-.44,3.5.127,1.361.879,1.33,1.315,3.084a8.321,8.321,0,0,1,0,3.508,12.844,12.844,0,0,1-1.314,3.943c-.871,1.789-1.311,2.7-2.19,3.084-1.083.474-1.542-.235-3.508,0-1.638.2-1.723.744-3.084.879a6.69,6.69,0,0,1-4.383-1.318c-.439-.324-1.322-1.681-3.084-4.383-1.438-2.224-1.6-2.548-1.754-3.084C294.981,555.009,295.112,554.285,294.469,553.595Z" transform="translate(-64.828 -276.86)" fill="#2ec2ae"/>
    <path id="Path_45711" data-name="Path 45711" d="M338.135,555.75a6.7,6.7,0,0,1,.17,1.006c-4.722.964-11.179-.813-16.9-5.1a26.579,26.579,0,0,1-8.145-9.56,5.769,5.769,0,0,0,.771-.366c.864-.5.74-.74,1.754-1.318a20.81,20.81,0,0,1,2.193-.875c1.673-.771,1.446-1.361,2.629-1.754.555-.185.6-.054,3.508,0,1.156.023,1.723.031,2.19,0,1.746-.119,1.893-.447,3.084-.439a4.458,4.458,0,0,1,3.084.879,4.275,4.275,0,0,1,1.315,2.629c.146.956-.154.956,0,1.754.274,1.384,1.2,1.449,1.754,3.084.3.863.081.991.439,1.754.493,1.045,1,1.022,1.314,1.754.517,1.191-.6,1.808-.439,3.5C336.948,554.043,337.7,554.012,338.135,555.75Z" transform="translate(-88.334 -279.016)" fill="#39d3b9"/>
    <path id="Path_45712" data-name="Path 45712" d="M313.388,620.329a7.162,7.162,0,0,0,.162,1.642,27.934,27.934,0,0,0,7.089.913,28.359,28.359,0,0,0,26.695-19.355,4.028,4.028,0,0,0-1.542,1.241c-1.133,1.542-.624,2.587-1.708,3.358s-1.731-.05-3.3.621c-1.816.771-1.8,2.209-2.964,2.247s-1.542-1.453-3.431-1.715c-.32-.046-1.28-.177-1.646.308-.412.547.956,1.361.86,2.537-.031.351-.181.678-2.24,2.444a15.3,15.3,0,0,1-2.964,2.251,10.813,10.813,0,0,1-2.571.821,19,19,0,0,1-4.021.42c-3.936.027-6.2-.185-6.2-.185a2.237,2.237,0,0,0-1.642.312C313.835,618.309,313.411,618.718,313.388,620.329Z" transform="translate(-88.412 -319.691)" fill="#2ec2ae"/>
    <rect id="Rectangle_20821" data-name="Rectangle 20821" width="8.157" height="13.049" transform="translate(228.423 309.065)" fill="#ffb300"/>
    <path id="Path_45713" data-name="Path 45713" d="M290.29,706.129h32.465a13.045,13.045,0,0,0-13.049-13.049h-6.368A13.049,13.049,0,0,0,290.29,706.129Z" transform="translate(-74.218 -374.72)" fill="#ffb300"/>
    <rect id="Rectangle_20822" data-name="Rectangle 20822" width="35.885" height="2.718" transform="translate(214.287 328.686)" fill="#ff9500"/>
    <circle id="Ellipse_2169" data-name="Ellipse 2169" cx="1.361" cy="1.361" r="1.361" transform="translate(218.631 240.557)" fill="#ff9500"/>
    <circle id="Ellipse_2170" data-name="Ellipse 2170" cx="1.361" cy="1.361" r="1.361" transform="translate(244.189 305.257)" fill="#ff9500"/>
    <path id="Path_45714" data-name="Path 45714" d="M275.212,546.192a5.077,5.077,0,0,0,1.75,2.629,3.6,3.6,0,0,0,1.723.675,29.682,29.682,0,0,1,.185-15.223c-.285-.146-.409-.409-.59-.355-.385.12.042,1.457-.44,3.084a20.08,20.08,0,0,1-.879,2.193c-1.2,2.795-1.176,2.637-1.314,3.084A6.48,6.48,0,0,0,275.212,546.192Zm14.621,31.352A7.182,7.182,0,0,0,290,579.19a27.752,27.752,0,0,0,7.089.914,28.117,28.117,0,0,0,23.646-13.049l.039-.065c.027-.042.054-.085.077-.127a27.69,27.69,0,0,1-12.124,4.144c-.247.224-.543.482-.89.771a15.516,15.516,0,0,1-2.968,2.248,10.824,10.824,0,0,1-2.571.821,19.013,19.013,0,0,1-4.021.42c-3.94.027-6.2-.185-6.2-.185a2.236,2.236,0,0,0-1.642.312C290.281,575.528,289.857,575.936,289.834,577.544Z" transform="translate(-64.857 -276.909)" fill="#19a193"/>
    <rect id="Rectangle_20823" data-name="Rectangle 20823" width="55.348" height="8.839" transform="translate(488.775 276.056) rotate(90)" fill="#fffaf2"/>
    <rect id="Rectangle_20824" data-name="Rectangle 20824" width="50.591" height="0.439" transform="translate(486.624 277.695) rotate(90)" fill="#f5dac2"/>
    <rect id="Rectangle_20825" data-name="Rectangle 20825" width="50.591" height="0.439" transform="translate(484.573 277.698) rotate(90)" fill="#f5dac2"/>
    <rect id="Rectangle_20826" data-name="Rectangle 20826" width="50.591" height="0.439" transform="translate(482.526 277.698) rotate(90)" fill="#f5dac2"/>
    <rect id="Rectangle_20827" data-name="Rectangle 20827" width="1.095" height="56.828" transform="translate(488.401 274.58)" fill="#f43459"/>
    <rect id="Rectangle_20828" data-name="Rectangle 20828" width="10.285" height="1.099" transform="translate(479.211 330.309)" fill="#f43459"/>
    <rect id="Rectangle_20829" data-name="Rectangle 20829" width="1.095" height="56.828" transform="translate(479.211 274.58)" fill="#f43459"/>
    <rect id="Rectangle_20830" data-name="Rectangle 20830" width="59.604" height="9.144" transform="translate(479.369 271.804) rotate(90)" fill="#544799"/>
    <rect id="Rectangle_20831" data-name="Rectangle 20831" width="9.144" height="1.488" transform="translate(470.226 285.088)" fill="#ffb300"/>
    <rect id="Rectangle_20832" data-name="Rectangle 20832" width="9.144" height="1.488" transform="translate(470.226 323.64)" fill="#ffb300"/>
    <circle id="Ellipse_2171" data-name="Ellipse 2171" cx="2.802" cy="2.802" r="2.802" transform="translate(471.995 274.125)" fill="#fff"/>
    <path id="Path_45715" data-name="Path 45715" d="M959.763,630.885v2.1a6.078,6.078,0,0,1-.05.929,1.4,1.4,0,0,1-.216.547,1.422,1.422,0,0,1-.439.386,1.155,1.155,0,0,1-.613.162,1.245,1.245,0,0,1-1.157-.736,1.387,1.387,0,0,1-.478.736,1.272,1.272,0,0,1-.771.258,1.584,1.584,0,0,1-.694-.166,1.389,1.389,0,0,1-.54-.455,1.515,1.515,0,0,1-.251-.713c0-.174-.031-.6-.035-1.276V630.87Zm-.871,1.06h-1.214v1.465a.69.69,0,0,0,.189.428.551.551,0,0,0,.409.158.575.575,0,0,0,.385-.135.586.586,0,0,0,.185-.386c0-.1,0-.4,0-.906Zm-2.086,0h-1.384v.979a5.157,5.157,0,0,0,.031.725.67.67,0,0,0,.212.386.633.633,0,0,0,.444.15.674.674,0,0,0,.385-.116.631.631,0,0,0,.239-.332,3.564,3.564,0,0,0,.077-.94Zm.3,4.013a3.373,3.373,0,0,1,1.345.239,2.441,2.441,0,0,1,.717.49,2.045,2.045,0,0,1,.474.679,2.867,2.867,0,0,1,.208,1.129,2.463,2.463,0,0,1-.721,1.854,3.207,3.207,0,0,1-3.986,0,2.76,2.76,0,0,1,0-3.708A2.7,2.7,0,0,1,957.111,635.958Zm.035,1.091a1.963,1.963,0,0,0-1.338.424,1.411,1.411,0,0,0,0,2.085,2.008,2.008,0,0,0,1.368.386,1.962,1.962,0,0,0,1.345-.385,1.461,1.461,0,0,0,0-2.1,1.977,1.977,0,0,0-1.376-.4Zm-.035,4.61a3.31,3.31,0,0,1,1.345.239,2.511,2.511,0,0,1,.717.486,2.128,2.128,0,0,1,.49.678,2.888,2.888,0,0,1,.208,1.133,2.467,2.467,0,0,1-.721,1.854,3.215,3.215,0,0,1-3.986,0,2.756,2.756,0,0,1,0-3.7A2.7,2.7,0,0,1,957.111,641.66Zm.035,1.091a1.961,1.961,0,0,0-1.349.409,1.345,1.345,0,0,0-.463,1.045,1.329,1.329,0,0,0,.459,1.041,2.007,2.007,0,0,0,1.369.4,1.981,1.981,0,0,0,1.345-.385,1.462,1.462,0,0,0-.008-2.1A1.958,1.958,0,0,0,957.146,642.751Zm-2.625,4.838h5.243v1.064h-2.313l2.313,2.139v1.426l-2.028-1.985-3.2,2.085v-1.353L957,649.523l-.89-.871h-1.584Z" transform="translate(-482.345 -336.492)" fill="#fff"/>
    <path id="Path_45716" data-name="Path 45716" d="M1014.51,641.479l-7.081,1.072L999.6,590.688l7.082-1.068,2.066,13.673Z" transform="translate(-510.1 -311.143)" fill="#2ec2ae"/>
    <rect id="Rectangle_20833" data-name="Rectangle 20833" width="4.148" height="38.622" transform="translate(494.532 292.783) rotate(-8.59)" fill="#006b61"/>
    <circle id="Ellipse_2172" data-name="Ellipse 2172" cx="1.669" cy="1.669" r="1.669" transform="translate(492.044 281.788)" fill="#fff"/>
    <rect id="Rectangle_20834" data-name="Rectangle 20834" width="5.601" height="34.682" transform="matrix(0.96, -0.28, 0.28, 0.96, 448.813, 286.388)" fill="#f43459"/>
    <rect id="Rectangle_20835" data-name="Rectangle 20835" width="1.615" height="0.289" transform="matrix(0.96, -0.28, 0.28, 0.96, 449.257, 287.824)" fill="#faedde"/>
    <rect id="Rectangle_20836" data-name="Rectangle 20836" width="1.615" height="0.289" transform="translate(450.056 290.629) rotate(-16.28)" fill="#faedde"/>
    <rect id="Rectangle_20837" data-name="Rectangle 20837" width="1.615" height="0.289" transform="matrix(0.96, -0.28, 0.28, 0.96, 450.874, 293.365)" fill="#faedde"/>
    <rect id="Rectangle_20838" data-name="Rectangle 20838" width="1.615" height="0.289" transform="matrix(0.96, -0.281, 0.281, 0.96, 451.681, 296.172)" fill="#faedde"/>
    <rect id="Rectangle_20839" data-name="Rectangle 20839" width="1.615" height="0.289" transform="translate(452.508 298.899) rotate(-16.31)" fill="#faedde"/>
    <rect id="Rectangle_20840" data-name="Rectangle 20840" width="1.615" height="0.289" transform="translate(453.296 301.715) rotate(-16.28)" fill="#faedde"/>
    <rect id="Rectangle_20841" data-name="Rectangle 20841" width="1.615" height="0.289" transform="matrix(0.96, -0.28, 0.28, 0.96, 454.112, 304.47)" fill="#faedde"/>
    <rect id="Rectangle_20842" data-name="Rectangle 20842" width="1.615" height="0.289" transform="matrix(0.96, -0.28, 0.28, 0.96, 454.927, 307.23)" fill="#faedde"/>
    <rect id="Rectangle_20843" data-name="Rectangle 20843" width="1.615" height="0.289" transform="translate(455.744 309.983) rotate(-16.31)" fill="#faedde"/>
    <rect id="Rectangle_20844" data-name="Rectangle 20844" width="1.615" height="0.289" transform="translate(456.536 312.805) rotate(-16.28)" fill="#faedde"/>
    <rect id="Rectangle_20845" data-name="Rectangle 20845" width="1.615" height="0.289" transform="translate(457.368 315.53) rotate(-16.31)" fill="#faedde"/>
    <rect id="Rectangle_20846" data-name="Rectangle 20846" width="1.615" height="0.289" transform="translate(458.156 318.347) rotate(-16.28)" fill="#faedde"/>
    <rect id="Rectangle_20847" data-name="Rectangle 20847" width="1.361" height="30.719" transform="matrix(-0.991, -0.132, 0.132, -0.991, 462.42, 318.611)" fill="#2ec2ae"/>
    <path id="Path_45717" data-name="Path 45717" d="M925.8,693.31l.239,1.48.135.848.355-.783.62-1.365Z" transform="translate(-464.749 -374.862)" fill="#ffc3c0"/>
    <path id="Path_45718" data-name="Path 45718" d="M935.854,611.416l1.157.154a.266.266,0,0,0,.3-.227l.17-1.28a.852.852,0,0,0-.729-.956h0a.852.852,0,0,0-.96.729l-.17,1.284a.266.266,0,0,0,.235.3Zm-.162.613,1.322.177a.181.181,0,0,0,.2-.158h0a.181.181,0,0,0-.158-.2l-1.322-.177a.181.181,0,0,0-.2.158h0a.181.181,0,0,0,.158.2Zm-.077.563,1.322.177a.181.181,0,0,0,.2-.158h0a.177.177,0,0,0-.154-.2l-1.322-.177a.189.189,0,0,0-.208.158h0a.181.181,0,0,0,.158.2Z" transform="translate(-470.682 -323.113)" fill="#006b61"/>
    <path id="Path_45719" data-name="Path 45719" d="M926.42,697.15l.135.848.355-.782Z" transform="translate(-465.13 -377.222)" fill="#4d4d4d"/>
    <rect id="Rectangle_20848" data-name="Rectangle 20848" width="1.361" height="30.719" transform="translate(457.334 287.376) rotate(-4.22)" fill="#ff9500"/>
    <path id="Path_45720" data-name="Path 45720" d="M917.527,608.911l-.54-1.4-.3-.8-.189.84-.324,1.461Z" transform="translate(-458.831 -321.645)" fill="#ffc2e5"/>
    <path id="Path_45721" data-name="Path 45721" d="M922.856,689.217l-1.156.085a.266.266,0,0,0-.247.285l.1,1.288a.852.852,0,0,0,.91.771h0a.852.852,0,0,0,.771-.91l-.092-1.291A.266.266,0,0,0,922.856,689.217Zm.035-.636-1.33.1a.181.181,0,0,0-.17.193h0a.185.185,0,0,0,.2.17l1.33-.1a.185.185,0,0,0,.17-.2h0A.185.185,0,0,0,922.891,688.581Zm-.042-.582-1.33.1a.181.181,0,0,0-.17.2h0a.181.181,0,0,0,.2.166l1.33-.1a.185.185,0,0,0,.17-.2h0a.185.185,0,0,0-.2-.169Z" transform="translate(-462.013 -371.598)" fill="#862a26"/>
    <path id="Path_45722" data-name="Path 45722" d="M917.5,607.512l-.3-.8-.189.84Z" transform="translate(-459.347 -321.645)" fill="#033691"/>
    <rect id="Rectangle_20849" data-name="Rectangle 20849" width="1.361" height="30.719" transform="translate(446.638 330.265) rotate(180)" fill="#2ec2ae"/>
    <path id="Path_45723" data-name="Path 45723" d="M886.47,721.01l.385,1.449.216.833.278-.817.482-1.418Z" transform="translate(-440.58 -391.884)" fill="#ffc3c0"/>
    <path id="Path_45724" data-name="Path 45724" d="M888.887,638.325l1.156.039a.262.262,0,0,0,.274-.254l.042-1.291a.848.848,0,0,0-.821-.879h0a.848.848,0,0,0-.879.821l-.043,1.291a.262.262,0,0,0,.27.274Zm-.1.628,1.334.046a.185.185,0,0,0,.189-.177h0a.189.189,0,0,0-.177-.189l-1.334-.046a.185.185,0,0,0-.189.177h0a.181.181,0,0,0,.177.189Zm-.019.567,1.334.046a.185.185,0,0,0,.189-.177h0a.185.185,0,0,0-.177-.189l-1.334-.046a.185.185,0,0,0-.189.177h0A.185.185,0,0,0,888.767,639.52Z" transform="translate(-441.883 -339.606)" fill="#006b61"/>
    <path id="Path_45725" data-name="Path 45725" d="M887.47,724.77l.216.833.278-.817Z" transform="translate(-441.195 -394.195)" fill="#4d4d4d"/>
    <rect id="Rectangle_20850" data-name="Rectangle 20850" width="1.361" height="30.719" transform="translate(439.654 298.648) rotate(-7.23)" fill="#ff9500"/>
    <path id="Path_45726" data-name="Path 45726" d="M880.33,720.73l.605,1.372.351.786.143-.852.251-1.476Z" transform="translate(-436.807 -391.607)" fill="#ffc3c0"/>
    <path id="Path_45727" data-name="Path 45727" d="M869.876,638.732l1.156-.147a.27.27,0,0,0,.231-.3l-.166-1.284a.848.848,0,0,0-.948-.736h0a.856.856,0,0,0-.74.952l.166,1.28a.262.262,0,0,0,.3.231Zm0,.636,1.322-.17a.185.185,0,0,0,.162-.2h0a.185.185,0,0,0-.2-.158l-1.326.169a.181.181,0,0,0-.158.2h0a.181.181,0,0,0,.2.158Zm.073.563,1.322-.17a.181.181,0,0,0,.158-.2h0a.181.181,0,0,0-.2-.158l-1.322.17a.181.181,0,0,0-.158.2h0a.181.181,0,0,0,.2.158Z" transform="translate(-430.092 -339.805)" fill="#006b61"/>
    <path id="Path_45728" data-name="Path 45728" d="M881.9,724.456l.351.786.143-.852Z" transform="translate(-437.772 -393.961)" fill="#4d4d4d"/>
    <rect id="Rectangle_20851" data-name="Rectangle 20851" width="17.239" height="27.034" transform="translate(452.378 304.15)" fill="#ffb300"/>
    <rect id="Rectangle_20852" data-name="Rectangle 20852" width="13.326" height="16.445" transform="translate(439.051 314.743)" fill="#ffb300"/>
    <rect id="Rectangle_20853" data-name="Rectangle 20853" width="18.492" height="3.581" transform="translate(451.753 303.395)" fill="#ffb300"/>
    <rect id="Rectangle_20854" data-name="Rectangle 20854" width="13.943" height="3.581" transform="translate(438.439 314.088)" fill="#ffb300"/>
    <path id="Path_45729" data-name="Path 45729" d="M868.74,674.243v13.515c1.064-7.108,4.306-12.085,13.322-11.4v11.4c.328-4.691,6.846-22.4,17.239-22.593V663.55H882.062v10.693Z" transform="translate(-429.685 -356.574)" fill="#ff9500"/>
    <path id="Path_45730" data-name="Path 45730" d="M430.038,688.431H387.7c2.768-4.009,2.34-7.914,0-11.761h42.338a5.883,5.883,0,0,1,5.883,5.882h0a5.883,5.883,0,0,1-5.883,5.879Z" transform="translate(-134.078 -364.636)" fill="#fffaf2"/>
    <path id="Path_45731" data-name="Path 45731" d="M456.07,688.431h15.982a5.882,5.882,0,0,0,5.882-5.879h0a5.882,5.882,0,0,0-5.882-5.882h-2.313S475.171,688.015,456.07,688.431Z" transform="translate(-176.093 -364.636)" fill="#fff4e3"/>
    <path id="Path_45732" data-name="Path 45732" d="M398.358,684.449h0l37.6-.17a.258.258,0,1,0,0-.513l-37.592.174a.254.254,0,0,0-.254.254.258.258,0,0,0,.251.254Zm5.593,5.069-5.863.023a.258.258,0,0,0,0,.513h0l5.867-.027a.254.254,0,1,0,0-.509Zm-2.721-2.887a.254.254,0,1,0,0,.509h0l13.076-.058a.254.254,0,0,0,.254-.254.258.258,0,0,0-.258-.254Zm27.975-.008-10.828.054a.254.254,0,1,0,0,.509h0l10.828-.054a.258.258,0,0,0,.254-.258.251.251,0,0,0-.254-.251Zm-8.735,2.81-13.072.054a.254.254,0,0,0-.254.258.251.251,0,0,0,.243.251h0l13.076-.054a.258.258,0,0,0,.254-.258A.254.254,0,0,0,420.47,689.434Zm15.739-2.806h-4.46a.258.258,0,0,0-.251.258.25.25,0,0,0,.239.25h0l4.456-.019a.258.258,0,0,0,.254-.258.254.254,0,0,0-.239-.231Zm-7.455,2.818-7.2.031a.255.255,0,0,0-.254.258.251.251,0,0,0,.243.251h0l7.2-.031A.251.251,0,0,0,429,689.7.258.258,0,0,0,428.754,689.445Z" transform="translate(-140.323 -368.996)" fill="#f5dac2"/>
    <path id="Path_45733" data-name="Path 45733" d="M428.172,688.181h-43.56a.671.671,0,0,1,0-1.338h43.56a4.965,4.965,0,0,0,0-9.926h-43.56a.671.671,0,0,1,0-1.338h43.56a6.3,6.3,0,0,1,0,12.6Z" transform="translate(-131.799 -363.967)" fill="#2e4287"/>
    <rect id="Rectangle_20855" data-name="Rectangle 20855" width="52.137" height="7.193" transform="translate(251.336 324.215)" fill="#ff5773"/>
    <rect id="Rectangle_20856" data-name="Rectangle 20856" width="4.499" height="3.342" transform="translate(293.801 326.516)" fill="#fff"/>
    <rect id="Rectangle_20857" data-name="Rectangle 20857" width="4.499" height="3.342" transform="translate(256.509 326.516)" fill="#fff"/>
    <path id="Path_45734" data-name="Path 45734" d="M441.1,714.24H422.713a1.673,1.673,0,0,0-1.673,1.673h0a1.669,1.669,0,0,0,1.673,1.669H441.1a1.669,1.669,0,0,0,1.673-1.669h0a1.673,1.673,0,0,0-1.673-1.673Z" transform="translate(-154.566 -387.724)" fill="#fff"/>
    <rect id="Rectangle_20858" data-name="Rectangle 20858" width="1.241" height="7.193" transform="translate(290.335 324.215)" fill="#e63351"/>
    <rect id="Rectangle_20859" data-name="Rectangle 20859" width="1.241" height="7.193" transform="translate(263.232 324.215)" fill="#e63351"/>
    <path id="Path_45735" data-name="Path 45735" d="M458.86,660.585h19.078a13.16,13.16,0,0,1,0-7.625H458.86Z" transform="translate(-177.807 -350.066)" fill="#fffaf2"/>
    <path id="Path_45736" data-name="Path 45736" d="M388.524,660.257h26.918a6.878,6.878,0,0,1,0-8.727H388.524a4.364,4.364,0,0,0-4.364,4.364h0A4.364,4.364,0,0,0,388.524,660.257Z" transform="translate(-131.903 -349.188)" fill="#30c5e3"/>
    <path id="Path_45737" data-name="Path 45737" d="M397.132,659.047h1.156a3.287,3.287,0,0,1,.505.027.738.738,0,0,1,.3.12.727.727,0,0,1,.22.239.682.682,0,0,1-.316.96.732.732,0,0,1,.385.258.7.7,0,0,1,.139.432.841.841,0,0,1-.089.385.771.771,0,0,1-.251.3.832.832,0,0,1-.385.135c-.1,0-.331,0-.7.019h-.979Zm.578.478v.663h.806a.384.384,0,0,0,.235-.1.316.316,0,0,0,.085-.224.3.3,0,0,0-.293-.32h-.493Zm0,1.156v.771h.54a2.583,2.583,0,0,0,.385-.019.351.351,0,0,0,.208-.116.384.384,0,0,0-.162-.594,2.021,2.021,0,0,0-.513-.038Zm2.2-.181a1.8,1.8,0,0,1,.131-.736,1.361,1.361,0,0,1,.266-.385,1.116,1.116,0,0,1,.385-.258,1.567,1.567,0,0,1,.624-.123,1.35,1.35,0,0,1,1.014.385,1.758,1.758,0,0,1,0,2.182,1.5,1.5,0,0,1-2.028,0A1.476,1.476,0,0,1,399.907,660.5Zm.6-.023a1.068,1.068,0,0,0,.224.74.724.724,0,0,0,.571.251.732.732,0,0,0,.57-.247,1.114,1.114,0,0,0,.22-.752,1.06,1.06,0,0,0-.216-.732.8.8,0,0,0-1.156,0,1.087,1.087,0,0,0-.212.74Zm2.517.023a1.864,1.864,0,0,1,.131-.736,1.3,1.3,0,0,1,.27-.385,1.077,1.077,0,0,1,.385-.258,1.543,1.543,0,0,1,.617-.116,1.346,1.346,0,0,1,1.014.385,1.758,1.758,0,0,1,0,2.182,1.334,1.334,0,0,1-1.01.385,1.353,1.353,0,0,1-1.018-.385A1.476,1.476,0,0,1,403.022,660.5Zm.6-.023a1.087,1.087,0,0,0,.224.74.732.732,0,0,0,.574.251.721.721,0,0,0,.567-.247,1.094,1.094,0,0,0,.224-.752,1.08,1.08,0,0,0-.216-.732.737.737,0,0,0-.574-.243.744.744,0,0,0-.578.243,1.087,1.087,0,0,0-.212.74Zm2.644,1.438v-2.868h.578v1.272L408,659.047h.771l-1.079,1.118,1.137,1.75h-.748l-.79-1.345-.47.478v.867Z" transform="translate(-139.867 -353.775)" fill="#fff"/>
    <path id="Path_45738" data-name="Path 45738" d="M432.553,659.953H388.222a4.942,4.942,0,0,1-4.992-4.849v-.092a4.942,4.942,0,0,1,4.977-4.861h44.331v1.287H388.207a3.655,3.655,0,0,0-3.689,3.581v.077a3.654,3.654,0,0,0,3.689,3.581h44.331Z" transform="translate(-131.331 -348.339)" fill="#30c5e3"/>
    <path id="Path_45739" data-name="Path 45739" d="M442.691,657.1a10.36,10.36,0,0,1,1.488-6.939H443.5a11.151,11.151,0,0,0-1.384,7.031,8.93,8.93,0,0,0,.806,2.783h.671A8.062,8.062,0,0,1,442.691,657.1Zm-4.256,0a10.338,10.338,0,0,1,1.488-6.939h-.678a11.153,11.153,0,0,0-1.4,7.016,8.932,8.932,0,0,0,.806,2.783h.671A8.06,8.06,0,0,1,438.436,657.1Z" transform="translate(-164.838 -348.346)" fill="#fff"/>
    <path id="Path_45740" data-name="Path 45740" d="M387.027,650.3a4.923,4.923,0,0,0-3.8,4.718v.093a4.946,4.946,0,0,0,4.977,4.865h8.743C383.473,658.638,386.931,650.523,387.027,650.3Z" transform="translate(-131.331 -348.432)" fill="#0aa4c4"/>
    <rect id="Rectangle_20860" data-name="Rectangle 20860" width="15.227" height="0.251" transform="translate(283.539 303.934)" fill="#f5dac2"/>
    <rect id="Rectangle_20861" data-name="Rectangle 20861" width="15.227" height="0.251" transform="translate(283.539 307.462)" fill="#f5dac2"/>
    <rect id="Rectangle_20862" data-name="Rectangle 20862" width="6.831" height="0.251" transform="translate(283.539 309.227)" fill="#f5dac2"/>
    <rect id="Rectangle_20863" data-name="Rectangle 20863" width="3.068" height="0.251" transform="translate(291.392 309.227)" fill="#f5dac2"/>
    <rect id="Rectangle_20864" data-name="Rectangle 20864" width="3.068" height="0.251" transform="translate(295.701 309.227)" fill="#f5dac2"/>
    <rect id="Rectangle_20865" data-name="Rectangle 20865" width="8.353" height="0.251" transform="translate(282.66 305.696)" fill="#f5dac2"/>
    <rect id="Rectangle_20866" data-name="Rectangle 20866" width="5.046" height="0.251" transform="translate(292.07 305.696)" fill="#f5dac2"/>
    <path id="Path_45741" data-name="Path 45741" d="M475.36,659.841l1.3-.871,1.21.871V656.31H475.36Z" transform="translate(-187.946 -352.125)" fill="#e02444"/>
    <path id="Path_45742" data-name="Path 45742" d="M425.73,587.514a8.588,8.588,0,0,1,7.633-2.1,5.55,5.55,0,0,1,3.828,3.28s-2.876,1.2-5.1.359C432.094,589.056,427.442,587.067,425.73,587.514Z" transform="translate(-157.448 -308.443)" fill="#acba0a"/>
    <path id="Path_45743" data-name="Path 45743" d="M437.19,590.642s-5.782-3.585-11.46-1.183C425.73,589.458,431.84,586.4,437.19,590.642Z" transform="translate(-157.448 -310.387)" fill="#7b8a17"/>
    <path id="Path_45744" data-name="Path 45744" d="M454.583,593.365s-.621-3.219.574-3.7c0,0,1.38-.22.794.813a5.212,5.212,0,0,0-.586,2.883Z" transform="translate(-175.08 -311.161)" fill="#0a1e30"/>
    <path id="Path_45745" data-name="Path 45745" d="M446.766,612.157c-5.038,7.837-9.429,4.553-9.429,4.553-4.144,2.313-7.856-2.232-8.8-3.535-.154-.208-.235-.335-.235-.335-2.822-4.078-3.554-8.149-1.476-12.208a7.37,7.37,0,0,1,5.763-4.028,8.211,8.211,0,0,1,4.657.987,7.775,7.775,0,0,1,4.406-.983,7.467,7.467,0,0,1,3.369,1.129,7.939,7.939,0,0,1,2.637,2.749C449.819,604.25,449.159,608.159,446.766,612.157Z" transform="translate(-157.386 -315.415)" fill="#e63351"/>
    <path id="Path_45746" data-name="Path 45746" d="M431.9,606.624c-.659,1.542-.621,3.566-.771,3.566-.254,0-.721-2.587-.062-4.826s2.089-3.785,3.192-3.469S432.822,604.481,431.9,606.624Z" transform="translate(-160.524 -318.661)" fill="#ff5773"/>
    <ellipse id="Ellipse_2173" data-name="Ellipse 2173" cx="0.59" cy="0.894" rx="0.59" ry="0.894" transform="translate(270.209 292.143)" fill="#ff5773"/>
    <path id="Path_45747" data-name="Path 45747" d="M451.393,614.011c-5.038,7.837-9.429,4.553-9.429,4.553-4.144,2.313-7.856-2.232-8.8-3.535a16.084,16.084,0,0,0,2.864,1.843c2.552,1.156,6.168-1.5,6.168-1.5s2.872,1.7,5.944-1.646a12.618,12.618,0,0,0,1.507-14.136,7.937,7.937,0,0,1,2.637,2.748C454.446,606.1,453.787,610.014,451.393,614.011Z" transform="translate(-162.014 -317.27)" fill="#e02444"/>
    <path id="Path_45761" data-name="Path 45761" d="M956.929,235.307h0l-.177.066c-.547.27-1.095.517-1.65.744-5.42,2.513-23.279,9.6-30.175,20.855h0L903,243.525c6.507-10.612,5.721-27.689,5.3-34.582q-.181-1.515-.239-3.049a.468.468,0,0,0,0-.089h0c-.328-10.308,4.021-20.936,13.878-28.638,17.833-14.286,45.352-3.9,51.986,15.832C980.039,208.6,972.433,228.121,956.929,235.307Z" transform="translate(-450.738 -53.606)" fill="#ffb300"/>
    <path id="Path_45762" data-name="Path 45762" d="M973.9,227.2c-.116-.343-.243-.686-.385-1.025,2.348,14.228-5.162,29.852-18.665,36.112h0l-.177.065c-.547.27-1.095.517-1.654.744-2.29,1.064-8.041,4.957-13.916,9.1a30.673,30.673,0,0,1-33.7,1.06l-.193-.116a28.344,28.344,0,0,1-2.2,4.583l21.942,13.453h0c6.9-11.252,24.756-18.341,30.176-20.855.555-.227,1.1-.474,1.65-.744l.177-.066h0C972.433,262.313,980.039,242.788,973.9,227.2Z" transform="translate(-450.738 -87.797)" fill="#f59700"/>
    <path id="Path_45763" data-name="Path 45763" d="M923.54,318.814l-11.95-7.586.258-.339c.123-.162,10.235-13.542,14.29-24.131a8.168,8.168,0,0,1-4.24-7.71c.17-2.7,1.156-4.749,2.614-5.447a2.19,2.19,0,0,1,2.313.2c1.48,1.06,2.1,3.681,1.692,7.2a24.491,24.491,0,0,1-1.372,5.4c.247.12.493.224.736.316a7.948,7.948,0,0,0,1.927.459,7.167,7.167,0,0,1,1.322-5.4c1.133-1.638,2.486-2.506,3.716-2.386a2.12,2.12,0,0,1,1.758,1.322c.594,1.361.123,3.253-1.253,5.061a5.829,5.829,0,0,1-4.449,2.213,4.866,4.866,0,0,0,2.968,2.429,4.079,4.079,0,0,0,1.569.2,10.154,10.154,0,0,1,2.583-7.282c1.592-1.723,3.4-2.12,4.961-1.06,1.272.852,1.542,2.244.771,3.82a11.346,11.346,0,0,1-7.374,5.192,3.083,3.083,0,0,0,.532,1.056,6.555,6.555,0,0,0,1.823,1.469c3.739-2.949,7.586-4.68,9.741-4.024a2.465,2.465,0,0,1,1.758,2.525A3.451,3.451,0,0,1,947.864,296c-2.475.937-6.345.154-9.051-1.257a33.336,33.336,0,0,0-5.578,5.782,77,77,0,0,0-9.476,17.806Zm-10.794-7.795,10.408,6.607a77.564,77.564,0,0,1,9.417-17.555,34.1,34.1,0,0,1,5.486-5.732,6.973,6.973,0,0,1-1.8-1.5,3.884,3.884,0,0,1-.7-1.446,4.887,4.887,0,0,1-1.974-.231,5.61,5.61,0,0,1-3.558-3.18,8.563,8.563,0,0,1-2.429-.536,7.922,7.922,0,0,1-.736-.312c-3.782,9.807-12.478,21.672-14.136,23.888Zm35.869-20.3a1.885,1.885,0,0,0-.408-.181c-1.727-.524-5.2.925-8.766,3.674,2.5,1.21,5.948,1.866,8.1,1.052a2.7,2.7,0,0,0,1.862-2.91,1.9,1.9,0,0,0-.8-1.634Zm-22.358-16.348a1.407,1.407,0,0,0-1.4-.062c-.933.443-1.989,1.927-2.17,4.788a7.39,7.39,0,0,0,3.708,6.885l.039.023a23.594,23.594,0,0,0,1.272-5.077c.544-4.707-.91-6.145-1.368-6.472Zm9.051,5.983a1.294,1.294,0,0,0-.555-.181c-.921-.092-2.043.675-3,2.051a6.3,6.3,0,0,0-1.157,4.984,5.1,5.1,0,0,0,4.1-1.927c1.415-1.862,1.542-3.427,1.157-4.275a1.427,1.427,0,0,0-.575-.651Zm7.116,2.506c-1.611-.987-3.084.2-3.855,1.014a9.437,9.437,0,0,0-2.386,6.657,10.6,10.6,0,0,0,6.823-4.784c.621-1.237.459-2.186-.486-2.822Z" transform="translate(-456.017 -116.797)" fill="#fff"/>
    <path id="Path_45764" data-name="Path 45764" d="M893.384,383.363c2.263-3.689,7.563-4.556,11.838-1.927s5.909,7.737,3.647,11.43-7.563,4.553-11.838,1.927S891.133,387.053,893.384,383.363Z" transform="translate(-444.206 -182.276)" fill="#5168b8"/>
    <path id="Path_45765" data-name="Path 45765" d="M917.431,374.881,903.449,366.3a4.66,4.66,0,0,1-1.542-6.407h0l21.946,13.453h0a4.664,4.664,0,0,1-6.422,1.538Z" transform="translate(-449.645 -169.97)" fill="#5168b8"/>
    <path id="Path_45766" data-name="Path 45766" d="M913.476,388.842l-15.419-9.464a1.118,1.118,0,0,1-.386-1.542h0a1.118,1.118,0,0,1,1.542-.386l15.446,9.487a1.122,1.122,0,0,1,.385,1.542h0a1.122,1.122,0,0,1-1.569.362Z" transform="translate(-447.363 -180.662)" fill="#2e4287"/>
    <rect id="Rectangle_20867" data-name="Rectangle 20867" width="2.236" height="18.168" transform="matrix(0.523, -0.852, 0.852, 0.523, 449.502, 200.632)" fill="#5168b8"/>
    <rect id="Rectangle_20868" data-name="Rectangle 20868" width="3.014" height="18.168" transform="matrix(0.523, -0.852, 0.852, 0.523, 451.791, 196.889)" fill="#5168b8"/>
    <path id="Path_45767" data-name="Path 45767" d="M907.416,398.761,892,389.293a1.118,1.118,0,0,1-.385-1.542h0a1.122,1.122,0,0,1,1.542-.366l15.419,9.464a1.118,1.118,0,0,1,.385,1.542h0a1.118,1.118,0,0,1-1.542.37Z" transform="translate(-443.639 -186.764)" fill="#2e4287"/>
    <path id="Path_45768" data-name="Path 45768" d="M960.557,109.982q-1.65-7.324-3.292-14.648a1.332,1.332,0,0,0-2.594.6q1.642,7.324,3.292,14.648A1.332,1.332,0,0,0,960.557,109.982Zm22.281-.971q1.927-12.166,3.855-24.339A1.34,1.34,0,0,0,985.4,83.3a1.383,1.383,0,0,0-1.376,1.288q-1.927,12.166-3.855,24.339a1.333,1.333,0,0,0,2.664.085Zm28.6-.432-9.884,9.56c-1.233,1.191.559,3.157,1.793,1.966l9.888-9.56C1014.478,109.354,1012.685,107.388,1011.44,108.579Z" transform="translate(-482.467 0)" fill="#ffb300"/>
    <ellipse id="Ellipse_2176" data-name="Ellipse 2176" cx="18.815" cy="12.305" rx="18.815" ry="12.305" transform="translate(468.672 124.967) rotate(-4.66)" fill="#ffdb63"/>
    <path id="Path_45769" data-name="Path 45769" d="M559.1,351.051c2.837-.852,5.05-3.855,5.678-7.71l.339-2.1.343,2.1c.625,3.855,2.837,6.858,5.674,7.71l1.542.463-1.542.463c-2.837.848-5.05,3.855-5.674,7.71l-.343,2.1-.339-2.1c-.628-3.855-2.841-6.858-5.678-7.71l-1.542-.463Zm-375.053,17.62c2.837-.852,5.054-3.855,5.678-7.71l.343-2.1.339,2.1c.624,3.855,2.841,6.858,5.678,7.71l1.542.463-1.542.463c-2.837.848-5.054,3.855-5.678,7.71l-.339,2.1-.343-2.1c-.624-3.855-2.841-6.858-5.678-7.71l-1.542-.463Z" transform="translate(-7.98 -158.51)" fill="#5168b8"/>
    <path id="Path_45770" data-name="Path 45770" d="M781.8,380.267a3.833,3.833,0,0,0,2.367-3.215l.143-.875.143.875a3.839,3.839,0,0,0,2.367,3.215l.648.193-.648.193a3.834,3.834,0,0,0-2.367,3.215l-.143.875-.143-.875a3.827,3.827,0,0,0-2.367-3.215l-.644-.193ZM552.164,156.57a3.821,3.821,0,0,0,2.367-3.211l.143-.879.143.879a3.827,3.827,0,0,0,2.367,3.211l.648.2-.648.193a3.827,3.827,0,0,0-2.367,3.211l-.143.879-.143-.879a3.82,3.82,0,0,0-2.367-3.211l-.644-.193Z" transform="translate(-234.748 -42.514)" fill="#30c5e3"/>
    <path id="Path_45771" data-name="Path 45771" d="M448.367,133.32a3.839,3.839,0,0,0,2.367-3.215l.143-.875.143.875a3.832,3.832,0,0,0,2.367,3.215l.644.193-.644.193a3.827,3.827,0,0,0-2.367,3.215l-.143.875-.143-.875a3.834,3.834,0,0,0-2.367-3.215l-.648-.193Zm-228.149,241.1a3.834,3.834,0,0,0,2.367-3.211l.143-.879.143.879a3.821,3.821,0,0,0,2.367,3.211l.644.193-.644.2a3.821,3.821,0,0,0-2.367,3.211l-.143.879-.143-.879a3.834,3.834,0,0,0-2.367-3.211l-.648-.2Z" transform="translate(-30.76 -28.226)" fill="#ff5773"/>
  </g>
</svg>
