<svg xmlns="http://www.w3.org/2000/svg" width="21.656" height="21.704" viewBox="0 0 21.656 21.704">
  <g id="Group_1323" data-name="Group 1323" transform="translate(0.7 0.7)">
    <circle id="Ellipse_1151" data-name="Ellipse 1151" cx="0.485" cy="0.485" r="0.485" transform="translate(9.643 9.643)" fill="none" stroke="#d10000" stroke-linecap="round" stroke-linejoin="round" stroke-width="1.4"/>
    <path id="Path_6262" data-name="Path 6262" d="M12,5.5v6.3l3.392,3.392" transform="translate(-1.872 -1.672)" fill="none" stroke="#d10000" stroke-linecap="round" stroke-linejoin="round" stroke-width="1.4"/>
    <circle id="Ellipse_1152" data-name="Ellipse 1152" cx="9.207" cy="9.207" r="9.207" transform="translate(0.921 0.921)" fill="none" stroke="#d10000" stroke-linecap="round" stroke-linejoin="round" stroke-width="1.4"/>
    <path id="Path_6263" data-name="Path 6263" d="M20.5,9.061a4.33,4.33,0,0,0,0-6.2,4.33,4.33,0,0,0-6.2,0m-5.234,0a4.33,4.33,0,0,0-6.2,0,4.33,4.33,0,0,0,0,6.2" transform="translate(-1.55 -1.55)" fill="none" stroke="#d10000" stroke-linecap="round" stroke-linejoin="round" stroke-width="1.4"/>
    <g id="Group_1322" data-name="Group 1322" transform="translate(1.89 16.524)">
      <path id="Path_6264" data-name="Path 6264" d="M5.148,18.6,3.5,22.38l3.3-2.423m9.886,0,3.3,2.423L18.328,18.6" transform="translate(-3.5 -18.6)" fill="none" stroke="#d10000" stroke-linecap="round" stroke-linejoin="round" stroke-width="1.4"/>
    </g>
  </g>
</svg>
