<svg xmlns="http://www.w3.org/2000/svg" width="55" height="70.627" viewBox="0 0 55 70.627">
  <g id="Group_52640" data-name="Group 52640" transform="translate(-11.54 -7.813)">
    <path id="Path_44114" data-name="Path 44114" d="M46.522,8H17.234a5.694,5.694,0,0,0-5.694,5.694V72.932a5.694,5.694,0,0,0,5.694,5.694H60.846a5.694,5.694,0,0,0,5.694-5.694V28.018Z" transform="translate(0 -0.187)" fill="#83a0f0"/>
    <path id="Path_44115" data-name="Path 44115" d="M27.39,22.324a5.694,5.694,0,0,0,5.694,5.694H47.408L27.39,8Z" transform="translate(19.132)" fill="#b3c3ed"/>
    <path id="Path_44116" data-name="Path 44116" d="M36.961,21.668a1.58,1.58,0,0,0-1.408-.247L23.269,25.153a1.573,1.573,0,0,0-1.118,1.51V37.6a6.36,6.36,0,0,0-2.033,0c-2.526.392-4.356,2.091-4.08,3.79s2.526,2.744,5.053,2.352c2.454-.392,4.225-2,4.08-3.644h.145V27.839l9.1-2.759v8.8a6.359,6.359,0,0,0-2.033,0c-2.526.392-4.356,2.091-4.08,3.79s2.526,2.744,5.053,2.352c2.454-.392,4.225-2,4.08-3.644h.145V22.946A1.568,1.568,0,0,0,36.961,21.668Z" transform="translate(10.529 16.46)" fill="#fff"/>
  </g>
</svg>
