<svg id="pin" xmlns="http://www.w3.org/2000/svg" width="53.999" height="53.999" viewBox="0 0 53.999 53.999">
  <path id="Path_43903" data-name="Path 43903" d="M57.142,8.588V52.554a4.588,4.588,0,0,1-4.588,4.588H8.588A4.588,4.588,0,0,1,4,52.554V8.588A4.588,4.588,0,0,1,8.588,4H52.554A4.588,4.588,0,0,1,57.142,8.588Z" transform="translate(-3.571 -3.571)" fill="#655f68"/>
  <rect id="Rectangle_19884" data-name="Rectangle 19884" width="44.551" height="12.811" transform="translate(4.724 6.878)" fill="#e7f2f1"/>
  <path id="Path_43904" data-name="Path 43904" d="M351.915,408.39A2.815,2.815,0,1,1,349.1,411.2,2.814,2.814,0,0,1,351.915,408.39Z" transform="translate(-311.697 -364.635)" fill="#6fceae"/>
  <path id="Path_43905" data-name="Path 43905" d="M105.184,408.39a2.815,2.815,0,1,1-2.814,2.815A2.814,2.814,0,0,1,105.184,408.39Z" transform="translate(-91.402 -364.635)" fill="#e15c63"/>
  <rect id="Rectangle_19885" data-name="Rectangle 19885" width="10.566" height="8.246" transform="translate(37.403 32.893)" fill="#bcb9ad"/>
  <rect id="Rectangle_19886" data-name="Rectangle 19886" width="10.566" height="8.246" transform="translate(21.716 32.893)" fill="#bcb9ad"/>
  <rect id="Rectangle_19887" data-name="Rectangle 19887" width="10.566" height="8.246" transform="translate(6.03 32.893)" fill="#bcb9ad"/>
  <rect id="Rectangle_19888" data-name="Rectangle 19888" width="10.566" height="8.246" transform="translate(21.716 41.139)" fill="#cdc7b9"/>
  <rect id="Rectangle_19889" data-name="Rectangle 19889" width="10.566" height="8.246" transform="translate(37.403 24.648)" fill="#cdc7b9"/>
  <rect id="Rectangle_19890" data-name="Rectangle 19890" width="10.566" height="8.246" transform="translate(21.716 24.648)" fill="#cdc7b9"/>
  <rect id="Rectangle_19891" data-name="Rectangle 19891" width="10.566" height="8.246" transform="translate(6.03 24.648)" fill="#cdc7b9"/>
  <path id="Path_43906" data-name="Path 43906" d="M436.99,82.18V93.064h-2.75A66.734,66.734,0,0,0,436.99,82.18Z" transform="translate(-387.715 -73.375)" fill="#d6eae8"/>
  <path id="Path_43907" data-name="Path 43907" d="M380.193,230.05V238.3h-8.1a50.278,50.278,0,0,0,4.686-8.246h3.417Z" transform="translate(-332.224 -205.402)" fill="#bcb9ad"/>
  <path id="Path_43908" data-name="Path 43908" d="M359.666,307.01v8.246H349.1v-5.062q1.321-1.556,2.463-3.183Z" transform="translate(-311.697 -274.117)" fill="#aba49a"/>
  <path id="Path_43909" data-name="Path 43909" d="M213.256,384.04v8.238H202.69v-1.893A40.914,40.914,0,0,0,213.256,384.04Z" transform="translate(-180.974 -342.894)" fill="#bcb9ad"/>
  <path id="Path_43910" data-name="Path 43910" d="M62.151,9.722V53.688a4.588,4.588,0,0,1-4.588,4.588H13.6A4.585,4.585,0,0,1,9.61,55.958,53.619,53.619,0,0,0,30.3,52.2V54.09H40.863V45.852a41.594,41.594,0,0,0,5.12-5.07v5.062H56.55V29.353H53.133c.756-1.669,1.409-3.332,1.972-4.958h2.75V13.51a55.62,55.62,0,0,0,.82-8.24A4.588,4.588,0,0,1,62.151,9.722ZM51.611,51.275A2.814,2.814,0,1,0,48.8,54.09,2.814,2.814,0,0,0,51.611,51.275Z" transform="translate(-8.58 -4.705)" fill="#5d5560"/>
  <g id="Group_52020" data-name="Group 52020">
    <path id="Path_43911" data-name="Path 43911" d="M48.982,0H5.017A5.022,5.022,0,0,0,0,5.017V48.982A5.022,5.022,0,0,0,5.017,54H48.982A5.022,5.022,0,0,0,54,48.982V5.017A5.022,5.022,0,0,0,48.982,0Zm4.16,48.982a4.164,4.164,0,0,1-4.16,4.16H5.017a4.164,4.164,0,0,1-4.16-4.16V5.017A4.164,4.164,0,0,1,5.017.857H48.982a4.164,4.164,0,0,1,4.16,4.16Z" fill="#3a322b"/>
    <path id="Path_43912" data-name="Path 43912" d="M85.071,60.2H40.521a.429.429,0,0,0-.429.429V73.441a.429.429,0,0,0,.429.429H85.071a.429.429,0,0,0,.429-.429V60.63A.429.429,0,0,0,85.071,60.2Zm-.429,12.811H40.949V61.058H84.643Z" transform="translate(-35.797 -53.751)" fill="#3a322b"/>
    <path id="Path_43913" data-name="Path 43913" d="M55.843,91.2a.429.429,0,0,0,.606,0l2.006-2.006v2.837a.429.429,0,1,0,.857,0V89.189L61.318,91.2a.429.429,0,0,0,.606-.606L59.49,88.155l2.434-2.434a.429.429,0,0,0-.606-.606L59.312,87.12V84.284a.429.429,0,1,0-.857,0V87.12l-2.006-2.006a.429.429,0,0,0-.606.606l2.434,2.434-2.434,2.434A.429.429,0,0,0,55.843,91.2Zm9.855,0a.429.429,0,0,0,.606,0l2.006-2.006v2.837a.429.429,0,1,0,.857,0V89.19L71.172,91.2a.429.429,0,0,0,.606-.606l-2.434-2.434,2.434-2.434a.429.429,0,1,0-.606-.606L69.167,87.12V84.284a.429.429,0,1,0-.857,0V87.12L66.3,85.114a.429.429,0,0,0-.606.606l2.434,2.434L65.7,90.589A.429.429,0,0,0,65.7,91.2Zm9.855,0a.429.429,0,0,0,.606,0l2.006-2.006v2.837a.429.429,0,1,0,.857,0V89.19L81.027,91.2a.429.429,0,0,0,.606-.606L79.2,88.155l2.434-2.434a.429.429,0,1,0-.606-.606L79.021,87.12V84.284a.429.429,0,0,0-.857,0V87.12l-2.006-2.006a.429.429,0,0,0-.606.606l2.434,2.434-2.434,2.434A.429.429,0,0,0,75.552,91.2Zm9.855,0a.429.429,0,0,0,.606,0l2.006-2.006v2.837a.429.429,0,1,0,.857,0V89.19L90.882,91.2a.429.429,0,0,0,.606-.606l-2.434-2.434,2.434-2.434a.429.429,0,0,0-.606-.606L88.876,87.12V84.284a.429.429,0,0,0-.857,0V87.12l-2.006-2.006a.429.429,0,0,0-.606.606l2.434,2.434-2.434,2.434A.429.429,0,0,0,85.407,91.2Zm-22.13,7.894H52.711a.429.429,0,0,0-.429.429v16.491a.429.429,0,0,0,.429.429H63.277a.429.429,0,0,0,.429-.429V99.518A.429.429,0,0,0,63.277,99.089Zm-.429.857v7.389H53.139V99.947Zm-9.709,15.634v-7.389h9.709v7.389ZM78.963,99.089H68.4a.429.429,0,0,0-.429.429v24.737a.429.429,0,0,0,.429.429H78.963a.429.429,0,0,0,.429-.429V99.518A.429.429,0,0,0,78.963,99.089Zm-10.138,9.1h9.709v7.389H68.825Zm9.709-8.246v7.389H68.825V99.947Zm-9.709,23.88v-7.389h9.709v7.389ZM94.649,99.089H84.083a.429.429,0,0,0-.429.429v16.491a.429.429,0,0,0,.429.429H94.649a.429.429,0,0,0,.429-.429V99.518A.429.429,0,0,0,94.649,99.089Zm-.429.857v7.389H84.512V99.947Zm-9.709,15.634v-7.389h9.709v7.389ZM60.463,118.2a3.243,3.243,0,1,0,3.243,3.243A3.247,3.247,0,0,0,60.463,118.2Zm0,5.629a2.386,2.386,0,1,1,2.386-2.386A2.389,2.389,0,0,1,60.463,123.826ZM86.9,118.2a3.243,3.243,0,1,0,3.243,3.243A3.247,3.247,0,0,0,86.9,118.2Zm0,5.629a2.386,2.386,0,1,1,2.386-2.386A2.388,2.388,0,0,1,86.9,123.826Z" transform="translate(-46.68 -74.871)" fill="#3a322b"/>
  </g>
</svg>
