<svg xmlns="http://www.w3.org/2000/svg" xmlns:xlink="http://www.w3.org/1999/xlink" width="1920" height="1412.995" viewBox="0 0 1920 1412.995">
  <defs>
    <linearGradient id="linear-gradient" x1="-0.051" y1="0.5" x2="1.017" y2="0.5" gradientUnits="objectBoundingBox">
      <stop offset="0" stop-color="#fcee21"/>
      <stop offset="0.468" stop-color="#8ecce1"/>
      <stop offset="0.984" stop-color="#29abe2"/>
    </linearGradient>
    <linearGradient id="linear-gradient-2" x1="-0.05" y1="0.5" x2="1.018" y2="0.5" xlink:href="#linear-gradient"/>
    <linearGradient id="linear-gradient-3" x1="-0.05" y1="0.5" x2="1.019" y2="0.5" xlink:href="#linear-gradient"/>
    <linearGradient id="linear-gradient-4" x1="-0.05" y1="0.5" x2="1.02" y2="0.5" xlink:href="#linear-gradient"/>
    <linearGradient id="linear-gradient-5" x1="-0.05" y1="0.5" x2="1.021" y2="0.5" xlink:href="#linear-gradient"/>
    <linearGradient id="linear-gradient-6" x1="-0.05" y1="0.5" x2="1.022" y2="0.5" xlink:href="#linear-gradient"/>
    <linearGradient id="linear-gradient-7" x1="-0.05" y1="0.5" x2="1.023" y2="0.5" xlink:href="#linear-gradient"/>
    <linearGradient id="linear-gradient-8" x1="-0.05" y1="0.5" x2="1.024" y2="0.5" xlink:href="#linear-gradient"/>
    <linearGradient id="linear-gradient-9" x1="-0.05" y1="0.5" x2="1.025" y2="0.5" xlink:href="#linear-gradient"/>
    <linearGradient id="linear-gradient-10" x1="-0.049" y1="0.5" x2="1.026" y2="0.5" xlink:href="#linear-gradient"/>
    <linearGradient id="linear-gradient-11" x1="-0.049" y1="0.5" x2="1.027" y2="0.5" xlink:href="#linear-gradient"/>
    <linearGradient id="linear-gradient-12" x1="-0.049" y1="0.5" x2="1.028" y2="0.5" xlink:href="#linear-gradient"/>
    <linearGradient id="linear-gradient-13" x1="-0.049" y1="0.5" x2="1.029" y2="0.5" xlink:href="#linear-gradient"/>
    <linearGradient id="linear-gradient-14" x1="-0.049" y1="0.5" x2="1.03" y2="0.5" xlink:href="#linear-gradient"/>
    <linearGradient id="linear-gradient-15" x1="-0.049" y1="0.5" x2="1.03" y2="0.5" xlink:href="#linear-gradient"/>
    <linearGradient id="linear-gradient-16" x1="-0.049" y1="0.5" x2="1.031" y2="0.5" xlink:href="#linear-gradient"/>
    <linearGradient id="linear-gradient-17" x1="-0.048" y1="0.5" x2="1.032" y2="0.5" xlink:href="#linear-gradient"/>
    <linearGradient id="linear-gradient-18" x1="-0.048" y1="0.5" x2="1.033" y2="0.5" xlink:href="#linear-gradient"/>
    <linearGradient id="linear-gradient-19" x1="-0.048" y1="0.5" x2="1.034" y2="0.5" xlink:href="#linear-gradient"/>
    <linearGradient id="linear-gradient-20" x1="-0.048" y1="0.5" x2="1.035" y2="0.5" xlink:href="#linear-gradient"/>
    <linearGradient id="linear-gradient-21" x1="-0.048" y1="0.5" x2="1.036" y2="0.5" xlink:href="#linear-gradient"/>
    <linearGradient id="linear-gradient-22" x1="-0.048" y1="0.5" x2="1.037" y2="0.5" xlink:href="#linear-gradient"/>
    <linearGradient id="linear-gradient-23" x1="-0.048" y1="0.5" x2="1.038" y2="0.5" xlink:href="#linear-gradient"/>
    <linearGradient id="linear-gradient-24" x1="-0.048" y1="0.5" x2="1.039" y2="0.5" xlink:href="#linear-gradient"/>
    <linearGradient id="linear-gradient-25" x1="-0.047" y1="0.5" x2="1.04" y2="0.5" xlink:href="#linear-gradient"/>
    <linearGradient id="linear-gradient-26" x1="-0.047" y1="0.5" x2="1.041" y2="0.5" xlink:href="#linear-gradient"/>
    <linearGradient id="linear-gradient-27" x1="-0.047" y1="0.5" x2="1.042" y2="0.5" xlink:href="#linear-gradient"/>
    <linearGradient id="linear-gradient-28" x1="-0.047" y1="0.5" x2="1.043" y2="0.5" xlink:href="#linear-gradient"/>
    <linearGradient id="linear-gradient-29" x1="-0.047" y1="0.5" x2="1.044" y2="0.5" xlink:href="#linear-gradient"/>
    <linearGradient id="linear-gradient-30" x1="-0.047" y1="0.5" x2="1.045" y2="0.5" xlink:href="#linear-gradient"/>
    <linearGradient id="linear-gradient-31" x1="-0.047" y1="0.5" x2="1.046" y2="0.5" xlink:href="#linear-gradient"/>
    <linearGradient id="linear-gradient-32" x1="-0.046" y1="0.5" x2="1.047" y2="0.5" xlink:href="#linear-gradient"/>
    <linearGradient id="linear-gradient-33" x1="-0.046" y1="0.5" x2="1.047" y2="0.5" xlink:href="#linear-gradient"/>
    <linearGradient id="linear-gradient-34" x1="-0.046" y1="0.5" x2="1.048" y2="0.5" xlink:href="#linear-gradient"/>
    <linearGradient id="linear-gradient-35" x1="-0.046" y1="0.5" x2="1.049" y2="0.5" xlink:href="#linear-gradient"/>
    <linearGradient id="linear-gradient-36" x1="-0.046" y1="0.5" x2="1.05" y2="0.5" xlink:href="#linear-gradient"/>
    <linearGradient id="linear-gradient-37" x1="-0.046" y1="0.5" x2="1.051" y2="0.5" xlink:href="#linear-gradient"/>
    <linearGradient id="linear-gradient-38" x1="-0.046" y1="0.5" x2="1.052" y2="0.5" xlink:href="#linear-gradient"/>
    <linearGradient id="linear-gradient-39" x1="-0.045" y1="0.5" x2="1.053" y2="0.5" xlink:href="#linear-gradient"/>
    <linearGradient id="linear-gradient-40" x1="-0.045" y1="0.5" x2="1.054" y2="0.5" xlink:href="#linear-gradient"/>
    <linearGradient id="linear-gradient-41" x1="-0.045" y1="0.5" x2="1.055" y2="0.5" xlink:href="#linear-gradient"/>
    <linearGradient id="linear-gradient-42" x1="-0.045" y1="0.5" x2="1.056" y2="0.5" xlink:href="#linear-gradient"/>
    <linearGradient id="linear-gradient-43" x1="-0.045" y1="0.5" x2="1.057" y2="0.5" xlink:href="#linear-gradient"/>
    <linearGradient id="linear-gradient-44" x1="-0.045" y1="0.5" x2="1.058" y2="0.5" xlink:href="#linear-gradient"/>
    <linearGradient id="linear-gradient-45" x1="-0.045" y1="0.5" x2="1.059" y2="0.5" xlink:href="#linear-gradient"/>
    <linearGradient id="linear-gradient-46" x1="-0.044" y1="0.5" x2="1.06" y2="0.5" xlink:href="#linear-gradient"/>
    <linearGradient id="linear-gradient-47" x1="-0.044" y1="0.5" x2="1.061" y2="0.5" xlink:href="#linear-gradient"/>
    <linearGradient id="linear-gradient-48" x1="-0.044" y1="0.5" x2="1.062" y2="0.5" xlink:href="#linear-gradient"/>
    <linearGradient id="linear-gradient-49" x1="-0.044" y1="0.5" x2="1.063" y2="0.5" xlink:href="#linear-gradient"/>
    <linearGradient id="linear-gradient-50" x1="-0.044" y1="0.5" x2="1.064" y2="0.5" xlink:href="#linear-gradient"/>
    <linearGradient id="linear-gradient-51" x1="-0.044" y1="0.5" x2="1.064" y2="0.5" xlink:href="#linear-gradient"/>
    <linearGradient id="linear-gradient-52" x1="-0.044" y1="0.5" x2="1.065" y2="0.5" xlink:href="#linear-gradient"/>
    <linearGradient id="linear-gradient-53" x1="-0.053" y1="0.5" x2="1.015" y2="0.5" xlink:href="#linear-gradient"/>
    <linearGradient id="linear-gradient-54" x1="-0.053" y1="0.5" x2="1.016" y2="0.5" xlink:href="#linear-gradient"/>
    <linearGradient id="linear-gradient-55" x1="-0.053" y1="0.5" x2="1.017" y2="0.5" xlink:href="#linear-gradient"/>
    <linearGradient id="linear-gradient-56" x1="-0.052" y1="0.5" x2="1.018" y2="0.5" xlink:href="#linear-gradient"/>
    <linearGradient id="linear-gradient-57" x1="-0.052" y1="0.5" x2="1.019" y2="0.5" xlink:href="#linear-gradient"/>
    <linearGradient id="linear-gradient-58" x1="-0.052" y1="0.5" x2="1.02" y2="0.5" xlink:href="#linear-gradient"/>
    <linearGradient id="linear-gradient-59" x1="-0.052" y1="0.5" x2="1.021" y2="0.5" xlink:href="#linear-gradient"/>
    <linearGradient id="linear-gradient-60" x1="-0.052" y1="0.5" x2="1.022" y2="0.5" xlink:href="#linear-gradient"/>
    <linearGradient id="linear-gradient-61" x1="-0.052" y1="0.5" x2="1.022" y2="0.5" xlink:href="#linear-gradient"/>
    <linearGradient id="linear-gradient-62" x1="-0.052" y1="0.5" x2="1.023" y2="0.5" xlink:href="#linear-gradient"/>
    <linearGradient id="linear-gradient-63" x1="-0.052" y1="0.5" x2="1.024" y2="0.5" xlink:href="#linear-gradient"/>
    <linearGradient id="linear-gradient-64" x1="-0.051" y1="0.5" x2="1.025" y2="0.5" xlink:href="#linear-gradient"/>
    <linearGradient id="linear-gradient-65" x1="-0.051" y1="0.5" x2="1.026" y2="0.5" xlink:href="#linear-gradient"/>
    <linearGradient id="linear-gradient-66" x1="-0.051" y1="0.5" x2="1.027" y2="0.5" xlink:href="#linear-gradient"/>
    <linearGradient id="linear-gradient-67" x1="-0.051" y1="0.5" x2="1.028" y2="0.5" xlink:href="#linear-gradient"/>
    <linearGradient id="linear-gradient-68" x1="-0.051" y1="0.5" x2="1.029" y2="0.5" xlink:href="#linear-gradient"/>
    <linearGradient id="linear-gradient-69" x1="-0.051" y1="0.5" x2="1.03" y2="0.5" xlink:href="#linear-gradient"/>
    <linearGradient id="linear-gradient-70" x1="-0.051" y1="0.5" x2="1.031" y2="0.5" xlink:href="#linear-gradient"/>
    <linearGradient id="linear-gradient-71" x1="-0.05" y1="0.5" x2="1.032" y2="0.5" xlink:href="#linear-gradient"/>
    <linearGradient id="linear-gradient-72" x1="-0.05" y1="0.5" x2="1.033" y2="0.5" xlink:href="#linear-gradient"/>
    <linearGradient id="linear-gradient-73" x1="-0.05" y1="0.5" x2="1.034" y2="0.5" xlink:href="#linear-gradient"/>
    <linearGradient id="linear-gradient-74" x1="-0.05" y1="0.5" x2="1.035" y2="0.5" xlink:href="#linear-gradient"/>
    <linearGradient id="linear-gradient-75" x1="-0.05" y1="0.5" x2="1.036" y2="0.5" xlink:href="#linear-gradient"/>
    <linearGradient id="linear-gradient-76" x1="-0.05" y1="0.5" x2="1.037" y2="0.5" xlink:href="#linear-gradient"/>
    <linearGradient id="linear-gradient-77" x1="-0.05" y1="0.5" x2="1.038" y2="0.5" xlink:href="#linear-gradient"/>
    <linearGradient id="linear-gradient-78" x1="-0.05" y1="0.5" x2="1.039" y2="0.5" xlink:href="#linear-gradient"/>
    <linearGradient id="linear-gradient-79" x1="-0.049" y1="0.5" x2="1.04" y2="0.5" xlink:href="#linear-gradient"/>
    <linearGradient id="linear-gradient-80" x1="-0.049" y1="0.5" x2="1.041" y2="0.5" xlink:href="#linear-gradient"/>
    <linearGradient id="linear-gradient-81" x1="-0.049" y1="0.5" x2="1.041" y2="0.5" xlink:href="#linear-gradient"/>
    <linearGradient id="linear-gradient-82" x1="-0.049" y1="0.5" x2="1.042" y2="0.5" xlink:href="#linear-gradient"/>
    <linearGradient id="linear-gradient-83" x1="-0.049" y1="0.5" x2="1.043" y2="0.5" xlink:href="#linear-gradient"/>
    <linearGradient id="linear-gradient-84" x1="-0.049" y1="0.5" x2="1.044" y2="0.5" xlink:href="#linear-gradient"/>
    <linearGradient id="linear-gradient-85" x1="-0.049" y1="0.5" x2="1.045" y2="0.5" xlink:href="#linear-gradient"/>
    <linearGradient id="linear-gradient-86" x1="-0.048" y1="0.5" x2="1.046" y2="0.5" xlink:href="#linear-gradient"/>
    <linearGradient id="linear-gradient-87" x1="-0.048" y1="0.5" x2="1.047" y2="0.5" xlink:href="#linear-gradient"/>
    <linearGradient id="linear-gradient-88" x1="-0.048" y1="0.5" x2="1.048" y2="0.5" xlink:href="#linear-gradient"/>
    <linearGradient id="linear-gradient-89" x1="-0.048" y1="0.5" x2="1.049" y2="0.5" xlink:href="#linear-gradient"/>
    <linearGradient id="linear-gradient-90" x1="-0.048" y1="0.5" x2="1.05" y2="0.5" xlink:href="#linear-gradient"/>
    <linearGradient id="linear-gradient-91" x1="-0.048" y1="0.5" x2="1.051" y2="0.5" xlink:href="#linear-gradient"/>
    <linearGradient id="linear-gradient-92" x1="-0.048" y1="0.5" x2="1.052" y2="0.5" xlink:href="#linear-gradient"/>
    <linearGradient id="linear-gradient-93" x1="-0.047" y1="0.5" x2="1.053" y2="0.5" xlink:href="#linear-gradient"/>
    <linearGradient id="linear-gradient-94" x1="-0.047" y1="0.5" x2="1.054" y2="0.5" xlink:href="#linear-gradient"/>
    <linearGradient id="linear-gradient-95" x1="-0.047" y1="0.5" x2="1.055" y2="0.5" xlink:href="#linear-gradient"/>
    <linearGradient id="linear-gradient-96" x1="-0.047" y1="0.5" x2="1.056" y2="0.5" xlink:href="#linear-gradient"/>
    <linearGradient id="linear-gradient-97" x1="-0.047" y1="0.5" x2="1.057" y2="0.5" xlink:href="#linear-gradient"/>
    <linearGradient id="linear-gradient-98" x1="-0.047" y1="0.5" x2="1.057" y2="0.5" xlink:href="#linear-gradient"/>
    <linearGradient id="linear-gradient-99" x1="-0.047" y1="0.5" x2="1.058" y2="0.5" xlink:href="#linear-gradient"/>
    <linearGradient id="linear-gradient-100" x1="-0.046" y1="0.5" x2="1.059" y2="0.5" xlink:href="#linear-gradient"/>
    <linearGradient id="linear-gradient-101" x1="-0.046" y1="0.5" x2="1.06" y2="0.5" xlink:href="#linear-gradient"/>
    <linearGradient id="linear-gradient-102" x1="-0.046" y1="0.5" x2="1.061" y2="0.5" xlink:href="#linear-gradient"/>
    <linearGradient id="linear-gradient-103" x1="-0.046" y1="0.5" x2="1.062" y2="0.5" xlink:href="#linear-gradient"/>
    <linearGradient id="linear-gradient-104" x1="-0.046" y1="0.5" x2="1.063" y2="0.5" xlink:href="#linear-gradient"/>
    <linearGradient id="linear-gradient-105" x1="1.087" y1="0.5" x2="0" y2="0.5" xlink:href="#linear-gradient"/>
    <linearGradient id="linear-gradient-106" x1="1.086" y1="0.5" x2="0" y2="0.5" xlink:href="#linear-gradient"/>
    <linearGradient id="linear-gradient-107" x1="1.086" y1="0.5" x2="0" y2="0.5" xlink:href="#linear-gradient"/>
    <linearGradient id="linear-gradient-108" x1="1.085" y1="0.5" x2="0" y2="0.5" xlink:href="#linear-gradient"/>
    <linearGradient id="linear-gradient-109" x1="1.085" y1="0.5" x2="0" y2="0.5" xlink:href="#linear-gradient"/>
    <linearGradient id="linear-gradient-110" x1="1.084" y1="0.5" x2="-0.001" y2="0.5" xlink:href="#linear-gradient"/>
    <linearGradient id="linear-gradient-111" x1="1.084" y1="0.5" x2="-0.004" y2="0.5" xlink:href="#linear-gradient"/>
    <linearGradient id="linear-gradient-112" x1="1.083" y1="0.5" x2="-0.006" y2="0.5" xlink:href="#linear-gradient"/>
    <linearGradient id="linear-gradient-113" x1="1.083" y1="0.5" x2="-0.008" y2="0.5" xlink:href="#linear-gradient"/>
    <linearGradient id="linear-gradient-114" x1="1.083" y1="0.5" x2="-0.01" y2="0.5" xlink:href="#linear-gradient"/>
    <linearGradient id="linear-gradient-115" x1="1.082" y1="0.5" x2="-0.013" y2="0.5" xlink:href="#linear-gradient"/>
    <linearGradient id="linear-gradient-116" x1="1.082" y1="0.5" x2="-0.015" y2="0.5" xlink:href="#linear-gradient"/>
    <linearGradient id="linear-gradient-117" x1="1.082" y1="0.5" x2="-0.017" y2="0.5" xlink:href="#linear-gradient"/>
    <linearGradient id="linear-gradient-118" x1="1.081" y1="0.5" x2="-0.019" y2="0.5" xlink:href="#linear-gradient"/>
    <linearGradient id="linear-gradient-119" x1="1.081" y1="0.5" x2="-0.021" y2="0.5" xlink:href="#linear-gradient"/>
    <linearGradient id="linear-gradient-120" x1="1.081" y1="0.5" x2="-0.023" y2="0.5" xlink:href="#linear-gradient"/>
    <linearGradient id="linear-gradient-121" x1="1.08" y1="0.5" x2="-0.026" y2="0.5" xlink:href="#linear-gradient"/>
    <linearGradient id="linear-gradient-122" x1="1.08" y1="0.5" x2="-0.028" y2="0.5" xlink:href="#linear-gradient"/>
    <linearGradient id="linear-gradient-123" x1="1.08" y1="0.5" x2="-0.03" y2="0.5" xlink:href="#linear-gradient"/>
    <linearGradient id="linear-gradient-124" x1="1.079" y1="0.5" x2="-0.032" y2="0.5" xlink:href="#linear-gradient"/>
    <linearGradient id="linear-gradient-125" x1="1.079" y1="0.5" x2="-0.034" y2="0.5" xlink:href="#linear-gradient"/>
    <linearGradient id="linear-gradient-126" x1="1.079" y1="0.5" x2="-0.037" y2="0.5" xlink:href="#linear-gradient"/>
    <linearGradient id="linear-gradient-127" x1="1.078" y1="0.5" x2="-0.039" y2="0.5" xlink:href="#linear-gradient"/>
    <linearGradient id="linear-gradient-128" x1="1.078" y1="0.5" x2="-0.041" y2="0.5" xlink:href="#linear-gradient"/>
    <linearGradient id="linear-gradient-129" x1="1.078" y1="0.5" x2="-0.043" y2="0.5" xlink:href="#linear-gradient"/>
    <linearGradient id="linear-gradient-130" x1="1.077" y1="0.5" x2="-0.045" y2="0.5" xlink:href="#linear-gradient"/>
    <linearGradient id="linear-gradient-131" x1="1.077" y1="0.5" x2="-0.048" y2="0.5" xlink:href="#linear-gradient"/>
    <linearGradient id="linear-gradient-132" x1="1.077" y1="0.5" x2="-0.05" y2="0.5" xlink:href="#linear-gradient"/>
    <linearGradient id="linear-gradient-133" x1="1.076" y1="0.5" x2="-0.052" y2="0.5" xlink:href="#linear-gradient"/>
    <linearGradient id="linear-gradient-134" x1="1.076" y1="0.5" x2="-0.054" y2="0.5" xlink:href="#linear-gradient"/>
    <linearGradient id="linear-gradient-135" x1="1.076" y1="0.5" x2="-0.056" y2="0.5" xlink:href="#linear-gradient"/>
    <linearGradient id="linear-gradient-136" x1="1.075" y1="0.5" x2="-0.059" y2="0.5" xlink:href="#linear-gradient"/>
    <linearGradient id="linear-gradient-137" x1="1.075" y1="0.5" x2="-0.061" y2="0.5" xlink:href="#linear-gradient"/>
    <linearGradient id="linear-gradient-138" x1="1.075" y1="0.5" x2="-0.063" y2="0.5" xlink:href="#linear-gradient"/>
    <linearGradient id="linear-gradient-139" x1="1.074" y1="0.5" x2="-0.065" y2="0.5" xlink:href="#linear-gradient"/>
    <linearGradient id="linear-gradient-140" x1="1.074" y1="0.5" x2="-0.067" y2="0.5" xlink:href="#linear-gradient"/>
    <linearGradient id="linear-gradient-141" x1="1.074" y1="0.5" x2="-0.07" y2="0.5" xlink:href="#linear-gradient"/>
    <linearGradient id="linear-gradient-142" x1="1.073" y1="0.5" x2="-0.072" y2="0.5" xlink:href="#linear-gradient"/>
    <linearGradient id="linear-gradient-143" x1="1.073" y1="0.5" x2="-0.074" y2="0.5" xlink:href="#linear-gradient"/>
    <linearGradient id="linear-gradient-144" x1="1.073" y1="0.5" x2="-0.076" y2="0.5" xlink:href="#linear-gradient"/>
    <linearGradient id="linear-gradient-145" x1="1.072" y1="0.5" x2="-0.078" y2="0.5" xlink:href="#linear-gradient"/>
    <linearGradient id="linear-gradient-146" x1="1.072" y1="0.5" x2="-0.081" y2="0.5" xlink:href="#linear-gradient"/>
    <linearGradient id="linear-gradient-147" x1="1.072" y1="0.5" x2="-0.083" y2="0.5" xlink:href="#linear-gradient"/>
    <linearGradient id="linear-gradient-148" x1="1.071" y1="0.5" x2="-0.085" y2="0.5" xlink:href="#linear-gradient"/>
    <linearGradient id="linear-gradient-149" x1="1.071" y1="0.5" x2="-0.087" y2="0.5" xlink:href="#linear-gradient"/>
    <linearGradient id="linear-gradient-150" x1="1.071" y1="0.5" x2="-0.089" y2="0.5" xlink:href="#linear-gradient"/>
    <linearGradient id="linear-gradient-151" x1="1.07" y1="0.5" x2="-0.092" y2="0.5" xlink:href="#linear-gradient"/>
    <linearGradient id="linear-gradient-152" x1="1.07" y1="0.5" x2="-0.094" y2="0.5" xlink:href="#linear-gradient"/>
    <linearGradient id="linear-gradient-153" x1="1.07" y1="0.5" x2="-0.096" y2="0.5" xlink:href="#linear-gradient"/>
    <linearGradient id="linear-gradient-154" x1="1.069" y1="0.5" x2="-0.098" y2="0.5" xlink:href="#linear-gradient"/>
    <linearGradient id="linear-gradient-155" x1="1.069" y1="0.5" x2="-0.1" y2="0.5" xlink:href="#linear-gradient"/>
    <linearGradient id="linear-gradient-156" x1="1.069" y1="0.5" x2="-0.103" y2="0.5" xlink:href="#linear-gradient"/>
  </defs>
  <g id="Group_51686" data-name="Group 51686" transform="translate(-11693 -4148.463)">
    <g id="_1002505_5978" data-name="1002505_5978" transform="translate(11158.848 4822.258)">
      <g id="Group_51684" data-name="Group 51684" transform="translate(1002.999 -30.257)">
        <g id="Group_51681" data-name="Group 51681" transform="translate(0.058 0)">
          <path id="Path_42299" data-name="Path 42299" d="M512.739,662.045c-204.306,28.9-306.517-80.5-355.678-133.205C102.85,470.682,44.518,468.3,0,480.027v5.92c43.3-11.666,100.354-9.867,153.346,46.839C197.457,580.032,283.765,672.55,446.513,672.55a474.665,474.665,0,0,0,66.98-4.875c243.774-34.883,559.23-254.57,937.544-651.98V7.743C1071.911,406.836,756.223,627.22,512.739,662.045Z" transform="translate(0 -7.743)" opacity="0.15" fill="url(#linear-gradient)"/>
          <path id="Path_42300" data-name="Path 42300" d="M158.279,523.162C103.14,464.134,44.518,461.639,0,473.421v5.92c43.357-11.782,100.7-9.809,154.565,47.826C199.489,575.342,285.448,667.4,448.777,667.4c198.27,0,511.056-136.688,1002.261-651.69V7.87C556.038,947.968,257.008,628.8,158.279,523.162Z" transform="translate(0 -0.499)" opacity="0.15" fill="url(#linear-gradient-2)"/>
          <path id="Path_42301" data-name="Path 42301" d="M159.556,517.542C103.488,457.585,44.576,454.858,0,466.7v5.978c43.415-11.84,101.05-9.751,155.9,48.871,44.46,47.594,131.406,140.809,296.94,140.809a487.1,487.1,0,0,0,68.373-4.992c243.716-34.593,556.5-250.681,929.825-641.475V8C558.591,943.8,258.633,623.7,159.556,517.542Z" transform="translate(0 6.688)" opacity="0.15" fill="url(#linear-gradient-3)"/>
          <path id="Path_42302" data-name="Path 42302" d="M524.347,646.522c-210.052,30.008-317.661-85.5-363.63-134.6C103.836,450.981,44.634,448.137,0,460.093v5.8c43.473-11.957,101.4-9.693,157.118,49.916,41.209,44.228,131.812,141.157,300.6,141.157a486.444,486.444,0,0,0,67.328-4.875c243.542-34.477,555.167-248.766,925.994-636.251V8.124C1079.4,397.118,767.657,612.162,524.347,646.522Z" transform="translate(0 13.99)" opacity="0.15" fill="url(#linear-gradient-4)"/>
          <path id="Path_42303" data-name="Path 42303" d="M528.294,641.483c-212.2,29.833-320.157-85.785-366.3-135.12C104.068,444.432,44.634,441.414,0,453.486v5.8c43.473-12.015,101.689-9.693,158.337,50.96,41.442,44.46,132.277,141.621,302.454,141.621A479.882,479.882,0,0,0,528.874,647c243.542-34.3,553.716-246.85,922.163-631.027V8.25C1081.952,393.878,771.43,607.238,528.294,641.483Z" transform="translate(0 21.177)" opacity="0.15" fill="url(#linear-gradient-5)"/>
          <path id="Path_42304" data-name="Path 42304" d="M532.125,636.327C342.271,663.2,235.242,577.879,163.155,500.742,104.417,437.941,44.692,434.923,0,447v5.63c43.531-12.131,101.979-9.635,159.556,52.005,63.613,68.025,154.1,142.2,303.615,142.2a494.888,494.888,0,0,0,69.592-5.05c243.426-34.128,552.323-244.993,918.275-625.8v-7.6C1084.39,390.753,775.2,602.315,532.125,636.327Z" transform="translate(0 28.364)" opacity="0.15" fill="url(#linear-gradient-6)"/>
          <path id="Path_42305" data-name="Path 42305" d="M536.013,631.23c-191.537,26.641-299.262-58.738-371.64-136.107C104.707,431.335,44.692,428.085,0,440.216v4.933c43.3-12.3,101.689-9.4,160.833,53.8,63.788,68.315,154.739,142.724,305.473,142.724a497.571,497.571,0,0,0,70.346-5.108c243.368-33.954,550.93-243.02,914.386-620.58V8.5C1086.943,387.514,779.033,597.276,536.013,631.23Z" transform="translate(0 35.609)" opacity="0.15" fill="url(#linear-gradient-7)"/>
          <path id="Path_42306" data-name="Path 42306" d="M539.844,626.133C344.36,653.47,232.63,561.3,165.592,489.619,105.113,424.845,44.75,421.42,0,433.725v4.759c43.3-12.3,102.037-9.287,162.052,54.849,59.435,63.613,153.636,143.072,309.361,143.072a495.605,495.605,0,0,0,69.127-4.992c243.252-33.78,549.537-241.1,910.5-615.3V8.629C1089.381,384.332,782.806,592.294,539.844,626.133Z" transform="translate(0 42.796)" opacity="0.15" fill="url(#linear-gradient-8)"/>
          <path id="Path_42307" data-name="Path 42307" d="M543.733,621.093c-197.457,27.279-309.651-65.181-376.922-137.036C105.345,418.3,44.808,414.871,0,427.234v4.643c43.357-12.479,102.385-9.287,163.271,55.894C222.937,551.617,317.6,631.308,474.605,631.308a504.5,504.5,0,0,0,69.766-4.992c243.136-33.664,548.2-239.247,906.666-610.19V8.755C1091.761,381.149,786.637,587.429,543.733,621.093Z" transform="translate(0 49.983)" opacity="0.15" fill="url(#linear-gradient-9)"/>
          <path id="Path_42308" data-name="Path 42308" d="M547.622,615.88c-199.2,27.4-312.031-65.3-379.649-137.442C105.636,411.69,44.808,408.091,0,420.57v4.643c43.357-12.479,102.675-9.229,164.606,56.881C224.446,546.172,319.518,626.153,477.8,626.153a505.632,505.632,0,0,0,70.462-5.05c243.078-33.432,546.693-237.274,902.778-604.967V8.882C1094.315,377.91,790.351,582.448,547.622,615.88Z" transform="translate(0 57.227)" opacity="0.15" fill="url(#linear-gradient-10)"/>
          <path id="Path_42309" data-name="Path 42309" d="M169.307,473.216C105.984,405.656,44.866,401.883,0,414.42v5.4c43.705-12.537,103.6-9.4,165.767,57.113C225.9,541.125,321.376,621.454,480.932,621.454a525.374,525.374,0,0,0,71.159-4.992c243.02-33.374,545.358-235.416,898.947-599.8V9C872.306,606.6,440.941,763.656,169.307,473.216Z" transform="translate(0 63.958)" opacity="0.15" fill="url(#linear-gradient-11)"/>
          <path id="Path_42310" data-name="Path 42310" d="M170.526,467.769c-64.252-68.6-125.6-72.552-170.526-59.9v4.585c43.473-12.711,103.256-9.171,167.043,58.97C202.449,509.269,302.57,616.239,486.62,616.239a514.708,514.708,0,0,0,69.36-4.817c242.788-33.2,543.849-233.559,895-594.635V9.125C873.989,603.818,442.973,758.789,170.526,467.769Z" transform="translate(0 71.088)" opacity="0.15" fill="url(#linear-gradient-12)"/>
          <path id="Path_42311" data-name="Path 42311" d="M559.23,600.7c-228.451,31.226-348.191-96.929-387.485-138.951C106.564,392.217,44.924,388.154,0,400.865v5.4c43.763-12.769,104.184-9.345,168.32,59.144,35.521,37.959,135.991,145.336,321.492,145.336a525.833,525.833,0,0,0,70.056-4.875c242.672-33.084,542.456-231.586,891.169-589.411v-7.2C1101.628,368.362,801.727,567.618,559.23,600.7Z" transform="translate(0 78.732)" opacity="0.15" fill="url(#linear-gradient-13)"/>
          <path id="Path_42312" data-name="Path 42312" d="M563.119,595.546C408.206,616.5,280.515,570.995,172.964,456.13,106.912,385.61,44.982,381.431,0,394.258v5.456c43.821-12.827,104.591-9.287,169.539,60.073C261.187,557.645,367.112,605.7,491.9,605.7a529.168,529.168,0,0,0,71.8-4.992c242.613-32.91,541-229.67,887.28-584.188V9.385C1104.066,365.238,805.442,562.695,563.119,595.546Z" transform="translate(0 85.919)" opacity="0.15" fill="url(#linear-gradient-14)"/>
          <path id="Path_42313" data-name="Path 42313" d="M567.007,590.506c-156.538,21.127-284.926-24.668-392.883-140C107.145,379.061,44.982,374.766,0,387.709v5.282c43.821-12.885,104.881-9.229,170.816,61.176,91.938,98.148,198.5,146.381,324.278,146.381a540.172,540.172,0,0,0,72.494-5.049c242.439-32.735,539.554-227.813,883.45-579.022V9.511C1106.561,362,809.157,557.771,567.007,590.506Z" transform="translate(0 93.106)" opacity="0.15" fill="url(#linear-gradient-15)"/>
          <path id="Path_42314" data-name="Path 42314" d="M570.838,585.466c-157.815,21.185-287.131-24.726-395.495-140.4C107.493,372.628,45.04,368.158,0,381.1v5.282c43.879-13,105.171-9.171,172.035,62.22,92.286,98.438,199.489,146.9,326.251,146.9a541.064,541.064,0,0,0,73.19-5.108C813.8,557.78,1109.579,364.56,1451.038,16.6V9.636C1108.941,358.93,812.929,552.9,570.838,585.466Z" transform="translate(0 100.237)" opacity="0.15" fill="url(#linear-gradient-16)"/>
          <path id="Path_42315" data-name="Path 42315" d="M176.562,440.072c-44.17-47.188-90.429-71.1-137.5-71.1h-.755A139.345,139.345,0,0,0,0,375.007v5.108a134.825,134.825,0,0,1,38.365-6.094h.755c45.737,0,90.893,23.449,134.25,69.592C265.192,541.586,375.587,590.283,503.1,590.283c253.351-.058,574.03-193.046,947.992-573.16V9.752C889.66,581.461,449.3,731.092,176.562,440.072Z" transform="translate(0 106.853)" opacity="0.15" fill="url(#linear-gradient-17)"/>
          <path id="Path_42316" data-name="Path 42316" d="M177.781,434.509C132.973,386.683,86.25,362.421,39,362.421H37.553A136.707,136.707,0,0,0,0,368.515v5.05a130.594,130.594,0,0,1,37.669-6.094H39c45.969,0,91.589,23.681,135.527,70.637C267.107,536.836,378.373,585.939,506.7,585.939c253.061,0,572.405-191.537,944.335-568.633V9.877C891.285,578.626,451.331,726.515,177.781,434.509Z" transform="translate(0 113.984)" opacity="0.15" fill="url(#linear-gradient-18)"/>
          <path id="Path_42317" data-name="Path 42317" d="M179,428.434c-45.5-48.523-92.576-73.19-140.112-73.19H36.914A136.438,136.438,0,0,0,0,361.338v4.992a129.705,129.705,0,0,1,36.972-6.152h1.915c46.259,0,92.286,24.087,136.92,71.681,78.472,83.7,187.126,148.528,335.48,148.528C729,580.329,1032.5,440.043,1450.98,16.572V10.013C747.749,723.227,371.466,633.727,179,428.434Z" transform="translate(0 121.741)" opacity="0.15" fill="url(#linear-gradient-19)"/>
          <path id="Path_42318" data-name="Path 42318" d="M586.335,565.075C425.212,586.55,288.757,538.55,180.219,422.815,134.076,373.6,86.54,348.7,38.83,348.7H36.218A135.85,135.85,0,0,0,0,354.674v4.992a129.224,129.224,0,0,1,36.276-6.153c.871-.058,1.683-.058,2.5-.058,46.491,0,92.983,24.494,138.255,72.784,92.634,98.845,205.583,148.7,336.467,148.7a550.683,550.683,0,0,0,73.364-4.992c241.743-32.039,532.3-218.236,864.122-553.135V10.14C1118.634,346.2,827.9,533.094,586.335,565.075Z" transform="translate(0 128.986)" opacity="0.15" fill="url(#linear-gradient-20)"/>
          <path id="Path_42319" data-name="Path 42319" d="M590.224,560.206c-162.342,21.3-299.842-26.7-408.728-142.84C134.714,367.509,86.714,342.2,38.772,342.2H35.579A131.392,131.392,0,0,0,0,348.355v4.875a129.633,129.633,0,0,1,35.7-6.21c1.045-.058,2.031-.058,3.018-.058,46.723,0,93.679,24.842,139.59,73.771,92.924,99.193,206.512,149.167,338.44,149.109a559.273,559.273,0,0,0,73.945-4.992c241.627-31.865,530.848-216.321,860.291-547.97V10.263C1121.072,343.247,831.619,528.4,590.224,560.206Z" transform="translate(0 136.002)" opacity="0.15" fill="url(#linear-gradient-21)"/>
          <path id="Path_42320" data-name="Path 42320" d="M594.113,554.994c-163.619,21.649-302.106-26.641-411.4-143.3-47.362-50.554-95.827-76.208-144-76.208-1.277,0-2.5,0-3.773.058A135.959,135.959,0,0,0,0,341.691v4.875a129.738,129.738,0,0,1,35.057-6.21h3.6c46.956,0,94.317,25.19,140.925,74.815C272.853,514.655,387.079,564.8,519.936,564.8a580.056,580.056,0,0,0,74.7-4.992c241.395-31.749,529.339-214.463,856.4-542.92v-6.5C1123.51,339.95,835.333,523.361,594.113,554.994Z" transform="translate(0 143.246)" opacity="0.15" fill="url(#linear-gradient-22)"/>
          <path id="Path_42321" data-name="Path 42321" d="M598,550.068c-165.186,21.708-304.37-26.815-414.068-143.711C135.817,354.99,86.946,329.046,38.6,329.046c-1.451,0-2.9.058-4.3.116A129.123,129.123,0,0,0,0,335.2v4.817a127.668,127.668,0,0,1,34.477-6.21H38.6c47.13,0,95.014,25.422,142.2,75.86,93.621,99.831,208.543,150.1,342.445,150.1a578.583,578.583,0,0,0,75.222-5.05c241.278-31.575,527.887-212.49,852.572-537.7v-6.5C1125.831,336.881,839.106,518.551,598,550.068Z" transform="translate(0 150.319)" opacity="0.15" fill="url(#linear-gradient-23)"/>
          <path id="Path_42322" data-name="Path 42322" d="M601.89,545.027c-164.083,21.3-308.2-28.5-416.738-144.233C136.4,348.789,87.12,322.5,38.54,322.5c-1.567,0-3.25.058-4.875.116-12.247.406-23.333,2.96-33.664,6.036v4.818a122.945,122.945,0,0,1,33.78-6.21c48.987-1.683,98.845,24.087,148.354,76.847C275.175,503.3,393.986,554.546,528.99,554.546a567.8,567.8,0,0,0,73.423-4.875C843.575,518.212,1128.849,339.038,1451.1,17.024V10.639C1128.327,333.756,842.7,513.627,601.89,545.027Z" transform="translate(0 157.449)" opacity="0.15" fill="url(#linear-gradient-24)"/>
          <path id="Path_42323" data-name="Path 42323" d="M186.313,395.4c-49.393-52.586-99.135-79.227-147.89-79.227-1.8,0-3.6,0-5.4.116A122.682,122.682,0,0,0,0,322.271v4.759a125.79,125.79,0,0,1,33.316-6.21c1.683-.058,3.366-.116,5.108-.116,47.594,0,96.291,26.235,144.872,78.008,70.811,75.454,182.947,151.14,348.075,151.14,211.5,0,510.185-124.905,919.668-532.879v-6.21C722.675,737.964,347.03,566.567,186.313,395.4Z" transform="translate(0 164.465)" opacity="0.15" fill="url(#linear-gradient-25)"/>
          <path id="Path_42324" data-name="Path 42324" d="M609.552,534.889C398.919,562.342,263.8,470.927,187.532,389.727,137.5,336.387,87.352,309.4,38.365,309.4c-2.031,0-3.947,0-5.978.116A127.786,127.786,0,0,0,0,315.608v4.7a123.275,123.275,0,0,1,32.619-6.21c49.567-2.031,100.76,24.377,151.953,78.878,67.444,71.855,180.509,151.43,350.571,151.43a576.645,576.645,0,0,0,74.99-4.992c240.7-31.11,523.418-206.8,840.905-522.315V10.89C1133.028,327.448,850.192,503.837,609.552,534.889Z" transform="translate(0 171.767)" opacity="0.15" fill="url(#linear-gradient-26)"/>
          <path id="Path_42325" data-name="Path 42325" d="M613.5,529.962a588.389,588.389,0,0,1-75.106,4.934c-169.829,0-282.546-79.111-349.584-150.56-50.728-54.095-101.282-81.374-150.5-81.374q-3.221,0-6.443.174A128.819,128.819,0,0,0,0,309.172v4.643a121.638,121.638,0,0,1,32.039-6.268c49.858-2.612,101.747,24.494,153.81,79.923,67.618,72.088,181.206,151.895,352.486,151.895a586.219,586.219,0,0,0,75.628-4.992c240.582-30.936,521.967-204.887,837.075-517.15v-6.21C1135.408,324.437,853.849,499.084,613.5,529.962Z" transform="translate(0 178.783)" opacity="0.15" fill="url(#linear-gradient-27)"/>
          <path id="Path_42326" data-name="Path 42326" d="M617.329,524.864c-214.057,27.57-350.513-64.252-427.3-146.09C138.719,324.1,87.643,296.355,38.249,296.355c-2.322,0-4.7.116-7.023.232A126.835,126.835,0,0,0,0,302.565v4.643a120.947,120.947,0,0,1,31.575-6.152c2.206-.116,4.411-.174,6.675-.174,48.291,0,98.264,27.221,148.818,81.026,67.909,72.32,182.018,152.359,354.459,152.359a596.528,596.528,0,0,0,76.267-4.992c240.408-30.82,520.458-203.029,833.244-512.042V11.139C1137.846,321.255,857.505,494.044,617.329,524.864Z" transform="translate(0 185.97)" opacity="0.15" fill="url(#linear-gradient-28)"/>
          <path id="Path_42327" data-name="Path 42327" d="M621.218,519.766c-215.914,27.4-352.95-64.484-429.971-146.613-52.005-55.313-103.43-83.406-153.055-83.406-2.5,0-4.934.058-7.487.232A122.594,122.594,0,0,0,0,296.017V300.6a118.947,118.947,0,0,1,30.878-6.152c2.438-.174,4.817-.232,7.255-.232,48.465,0,98.961,27.628,150.153,82.129C256.427,448.9,371.059,529.285,544.836,529.227a605.369,605.369,0,0,0,76.847-4.992C861.8,493.59,1140.574,323.064,1451.038,17.243V11.265C1140.167,318.13,861.22,489.121,621.218,519.766Z" transform="translate(0 193.157)" opacity="0.15" fill="url(#linear-gradient-29)"/>
          <path id="Path_42328" data-name="Path 42328" d="M625.107,514.9a607.618,607.618,0,0,1-76.9,4.992c-173.66,0-287.944-79.923-355.736-152.069-55.43-59.086-110.1-87.7-162.284-84.16A121.021,121.021,0,0,0,0,289.639v4.527a119.726,119.726,0,0,1,30.414-6.211c2.554-.174,5.108-.232,7.72-.232,48.7,0,99.541,27.918,151.372,83.174,68.373,72.784,183.643,153.4,358.58,153.4a613.795,613.795,0,0,0,77.369-5.05c240-30.53,517.44-199.372,825.524-501.943v-5.92C1142.489,315.119,864.818,484.368,625.107,514.9Z" transform="translate(0 200.173)" opacity="0.15" fill="url(#linear-gradient-30)"/>
          <path id="Path_42329" data-name="Path 42329" d="M193.685,362.658c-56.3-59.957-111.266-88.571-164.083-85.2A122.214,122.214,0,0,0,0,283.374V287.9a118.654,118.654,0,0,1,29.891-6.152c2.728-.174,5.456-.29,8.184-.29,48.871,0,100.3,28.324,152.765,84.218C252.771,431.611,369.55,519.2,552.5,519.2c208.195,0,502.291-113.935,898.541-501.885v-5.8C707.352,741.147,325.439,502.886,193.685,362.658Z" transform="translate(0 206.961)" opacity="0.15" fill="url(#linear-gradient-31)"/>
          <path id="Path_42330" data-name="Path 42330" d="M194.9,357.038c-53.979-57.461-106.68-86.482-156.944-86.482-3.018,0-5.978.116-8.938.348A120.719,120.719,0,0,0,0,276.883v4.469A115.062,115.062,0,0,1,29.369,275.2c2.844-.174,5.746-.29,8.59-.29,49.1,0,100.876,28.614,154.042,85.263C248.882,420.826,367.519,514.33,556.676,514.33a611.35,611.35,0,0,0,76.557-4.933c239.479-30.24,514.248-195.658,817.747-491.9V11.633C709.383,737.21,327.006,497.614,194.9,357.038Z" transform="translate(0 214.149)" opacity="0.15" fill="url(#linear-gradient-32)"/>
          <path id="Path_42331" data-name="Path 42331" d="M636.773,500.06c-234.256,29.717-376.631-80.388-440.651-148.528-54.559-58.1-107.725-87.527-158.163-87.527q-4.7,0-9.4.348A120.242,120.242,0,0,0,0,270.39V274.8a115.984,115.984,0,0,1,28.847-6.152c52.237-3.831,107.319,25.074,164.49,85.959C250.449,415.378,369.55,509.231,560.1,509.231a610.742,610.742,0,0,0,77.137-4.934c239.247-30.123,512.8-193.859,813.858-486.852V11.757C1149.57,305.737,875.846,469.995,636.773,500.06Z" transform="translate(0 221.222)" opacity="0.15" fill="url(#linear-gradient-33)"/>
          <path id="Path_42332" data-name="Path 42332" d="M640.6,495.192a623.839,623.839,0,0,1-77.253,4.875c-190.492,0-309.129-93.331-366.068-153.868-58.854-62.627-115.735-92.112-169.307-88.165A118.862,118.862,0,0,0,0,263.954v4.411a112.383,112.383,0,0,1,28.324-6.094c3.25-.232,6.385-.406,9.635-.406,49.509,0,102.153,29.369,156.6,87.352,57.287,61,176.911,155.145,368.8,155.145a630.9,630.9,0,0,0,77.718-4.933C880.083,469.479,1152.3,307.369,1451.1,17.568V11.88C1151.892,302.726,879.445,465.242,640.6,495.192Z" transform="translate(0 228.238)" opacity="0.15" fill="url(#linear-gradient-34)"/>
          <path id="Path_42333" data-name="Path 42333" d="M644.493,490.207c-237.97,29.717-381.449-80.91-445.875-149.4-59.725-63.614-117.3-93.5-171.048-89.21A123.874,123.874,0,0,0,0,257.46v4.411a108.737,108.737,0,0,1,27.86-6.094c52.528-4.237,109.06,25.306,167.972,87.991C253.293,405,373.381,499.377,566.6,499.377a629.61,629.61,0,0,0,78.356-4.933c238.725-29.833,509.663-190.2,806.138-476.869V12C1154.213,299.54,883.1,460.49,644.493,490.207Z" transform="translate(0 235.254)" opacity="0.15" fill="url(#linear-gradient-35)"/>
          <path id="Path_42334" data-name="Path 42334" d="M648.324,485.509C408.5,515.459,264.379,404.367,199.779,335.53,143.246,275.341,88.8,244.985,37.9,244.985c-3.657,0-7.255.116-10.854.464A113.9,113.9,0,0,0,0,251.254v4.353a113.349,113.349,0,0,1,27.4-6.094c3.482-.348,6.965-.464,10.506-.464,49.858,0,103.372,30.066,159.208,89.442,57.693,61.408,178.3,156.074,372.8,156.074a638.225,638.225,0,0,0,78.878-4.992c238.493-29.6,508.1-188.4,802.25-471.877V12.123C1156.535,296.642,886.7,455.966,648.324,485.509Z" transform="translate(0 242.099)" opacity="0.15" fill="url(#linear-gradient-36)"/>
          <path id="Path_42335" data-name="Path 42335" d="M652.154,480.526C410.644,510.359,265.772,399.152,200.94,330.14c-61.466-65.355-120.262-96-174.415-91.125A119.856,119.856,0,0,0,0,244.819v4.3a111.928,111.928,0,0,1,26.815-6.036c3.657-.29,7.255-.464,10.97-.464,50.09,0,104.01,30.414,160.485,90.487C256.2,394.683,377.212,489.639,573.16,489.639a648.061,648.061,0,0,0,79.459-4.992C890.937,455.162,1159.2,297.985,1451.038,17.7V12.247C1158.857,293.516,890.357,451.157,652.154,480.526Z" transform="translate(0 249.172)" opacity="0.15" fill="url(#linear-gradient-37)"/>
          <path id="Path_42336" data-name="Path 42336" d="M202.217,324.405C140,258.18,80.968,227.244,26.119,232.351A115.5,115.5,0,0,0,0,238.155v4.179a112.5,112.5,0,0,1,26.467-5.978c53.34-4.817,111.614,25.6,173.08,91.009,52.3,55.546,175.808,157.118,379.011,157.118,205.989,0,493.933-104.533,872.48-466.712v-5.4C699.981,732.785,307.04,435.961,202.217,324.405Z" transform="translate(0 256.416)" opacity="0.15" fill="url(#linear-gradient-38)"/>
          <path id="Path_42337" data-name="Path 42337" d="M659.932,470.786c-245.051,30.065-391.258-81.955-456.5-151.314-58.506-62.279-114.168-93.737-165.65-93.737a119.511,119.511,0,0,0-12.131.638A115.3,115.3,0,0,0,0,232v4.179a111.442,111.442,0,0,1,26-5.92,112.484,112.484,0,0,1,11.724-.638c50.5,0,105.287,31.11,163.039,92.634,58.216,61.872,180.393,157.525,379.011,157.525a655.9,655.9,0,0,0,80.562-5.05c237.68-29.137,503.394-182.947,790.7-456.961V12.491C1163.442,287.375,897.612,441.65,659.932,470.786Z" transform="translate(0 263.09)" opacity="0.15" fill="url(#linear-gradient-39)"/>
          <path id="Path_42338" data-name="Path 42338" d="M663.821,465.918c-246.967,30.065-393.754-82.245-459.166-151.895C140.693,246,80.446,214.424,25.19,219.938A111.155,111.155,0,0,0,0,225.568v4.179a114.21,114.21,0,0,1,25.538-5.978c54.095-5.688,113.413,25.828,176.5,92.983,58.448,62.162,181.031,158.1,380.984,158.1a652.744,652.744,0,0,0,81.142-5.108C901.675,440.786,1166,288.659,1451.038,17.838V12.614C1165.706,284.306,901.152,436.9,663.821,465.918Z" transform="translate(0 270.106)" opacity="0.15" fill="url(#linear-gradient-40)"/>
          <path id="Path_42339" data-name="Path 42339" d="M667.651,460.99C418.77,491.23,271.518,378.571,205.815,308.631,140.983,239.678,80.039,207.639,24.61,213.559A118.322,118.322,0,0,0,0,219.248v4.121a103.647,103.647,0,0,1,25.074-5.862,114.491,114.491,0,0,1,12.6-.7c50.844,0,106.506,31.749,165.65,94.666,58.622,62.278,181.67,158.511,383.016,158.511a664.145,664.145,0,0,0,81.781-5.108c237.158-28.789,500.2-179.348,782.922-446.978V12.736C1167.969,281.178,904.751,432.2,667.651,460.99Z" transform="translate(0 277.065)" opacity="0.15" fill="url(#linear-gradient-41)"/>
          <path id="Path_42340" data-name="Path 42340" d="M207.092,303.527C141.331,233.587,79.633,201.316,24.2,207.41A113.621,113.621,0,0,0,0,213.1v4.063a106.579,106.579,0,0,1,24.668-5.92,121.151,121.151,0,0,1,13-.7c51.018,0,107.087,32.1,166.869,95.71,58.8,62.453,182.424,158.918,385.047,158.918a672.423,672.423,0,0,0,82.3-5.108c236.867-28.673,498.635-177.491,779.091-441.986V12.855C860.175,569.937,423.413,533.429,207.092,303.527Z" transform="translate(0 283.853)" opacity="0.15" fill="url(#linear-gradient-42)"/>
          <path id="Path_42341" data-name="Path 42341" d="M675.429,451.366a676.525,676.525,0,0,1-82.477,5.108c-202.739,0-326.019-96.117-384.641-158.4C141.8,227.267,79.691,194.648,23.8,201.032A106.558,106.558,0,0,0,0,206.663v4a108.648,108.648,0,0,1,24.2-5.862c54.907-5.978,115.909,26.061,181.612,96,58.97,62.685,183.063,159.5,387.079,159.44a694.261,694.261,0,0,0,82.883-5.108c236.519-28.5,497.009-175.692,775.2-437.111v-5.05C1172.5,275.21,911.89,422.867,675.429,451.366Z" transform="translate(0 290.869)" opacity="0.15" fill="url(#linear-gradient-43)"/>
          <path id="Path_42342" data-name="Path 42342" d="M209.53,292.573C142.086,220.95,79.517,187.808,23.391,194.6A107.717,107.717,0,0,0,0,200.055V204a112.459,112.459,0,0,1,23.8-5.746,108.3,108.3,0,0,1,13.814-.871c51.425,0,108.363,32.851,169.423,97.8,48,51.076,175.692,159.846,391.374,159.846a689.032,689.032,0,0,0,81.258-4.992c236.229-28.382,495.442-173.892,771.372-432.177V13.1C691.739,725.447,285.332,373.309,209.53,292.573Z" transform="translate(0 297.999)" opacity="0.15" fill="url(#linear-gradient-44)"/>
          <path id="Path_42343" data-name="Path 42343" d="M683.149,441.8c-265.25,31.691-418.828-97.278-472.4-154.274-68.257-72.436-131.29-105.578-187.706-98.961A108.762,108.762,0,0,0,0,193.961v3.947a110.04,110.04,0,0,1,23.449-5.8,126.846,126.846,0,0,1,14.1-.813c51.657,0,108.944,33.142,170.7,98.845,48.174,51.193,176.33,160.311,393.405,160.311a687,687,0,0,0,81.839-4.992c235.939-28.208,493.7-172.093,767.483-427.3V13.22C1177.024,269.241,919.029,413.532,683.149,441.8Z" transform="translate(0 304.673)" opacity="0.15" fill="url(#linear-gradient-45)"/>
          <path id="Path_42344" data-name="Path 42344" d="M687.037,436.815a689.828,689.828,0,0,1-82.013,4.992c-217.191,0-345.057-108.712-393.057-159.73C142.84,208.6,78.994,175.048,22.636,182.071A115.344,115.344,0,0,0,0,187.469v3.947a111.2,111.2,0,0,1,23.1-5.688,99.65,99.65,0,0,1,14.452-.929c51.831,0,109.582,33.49,171.977,99.831C257.878,336.055,386.5,445.463,604.967,445.463a695.531,695.531,0,0,0,82.361-4.992C922.918,412.379,1179.461,270.178,1450.98,18.1V13.344C1179.229,266.115,922.512,408.723,687.037,436.815Z" transform="translate(0 311.746)" opacity="0.15" fill="url(#linear-gradient-46)"/>
          <path id="Path_42345" data-name="Path 42345" d="M690.868,432.173a698.383,698.383,0,0,1-82.535,4.992c-218.7,0-346.972-109-395.146-160.194C149.457,209.236,90.429,174.992,37.495,174.992a122.05,122.05,0,0,0-15.323.987A108.668,108.668,0,0,0,0,181.318v3.889a107.335,107.335,0,0,1,22.694-5.688c55.72-7.2,118.985,26.409,188.113,99.947,48.465,51.541,177.607,161.239,397.526,161.239a706.555,706.555,0,0,0,82.941-4.992C926.459,407.8,1181.725,267.277,1450.98,18.279V13.462C1181.435,263.273,926.168,404.256,690.868,432.173Z" transform="translate(0 318.477)" opacity="0.15" fill="url(#linear-gradient-47)"/>
          <path id="Path_42346" data-name="Path 42346" d="M214.405,271.75C143.537,196.528,78.878,162.283,21.824,169.829A109.139,109.139,0,0,0,0,175.169V179a103.884,103.884,0,0,1,22.23-5.688c56.01-7.487,119.74,26.525,189.8,100.992,48.581,51.6,178.245,161.646,399.616,161.646a714.468,714.468,0,0,0,83.464-4.992C930,403.214,1183.931,263.74,1450.98,17.876v-4.3C868.011,549.943,423.587,494.049,214.405,271.75Z" transform="translate(0 325.265)" opacity="0.15" fill="url(#linear-gradient-48)"/>
          <path id="Path_42347" data-name="Path 42347" d="M698.7,423.119c-273.027,32.329-428.753-98.5-483.079-156.132C143.943,190.837,78.7,156.244,21.475,163.963A113.951,113.951,0,0,0,0,169.3v3.773a112.328,112.328,0,0,1,21.94-5.63A114.8,114.8,0,0,1,37.495,166.4c52.353,0,111.44,34.593,175.866,102.966,48.755,51.889,178.884,162.284,401.705,162.226a699.589,699.589,0,0,0,83.986-5.05c120.842-14.162,248.94-58.738,380.694-132.277C1200.473,226.939,1324.972,134.188,1451.1,18.8V13.694C1185.962,257.294,933.133,395.549,698.7,423.119Z" transform="translate(0 331.711)" opacity="0.15" fill="url(#linear-gradient-49)"/>
          <path id="Path_42348" data-name="Path 42348" d="M702.534,418.306c-193.568,22.868-370.6-34.36-485.749-156.6-65.7-69.824-125.95-105.055-179.406-105.055a108.456,108.456,0,0,0-16.31,1.161A106.556,106.556,0,0,0,0,162.982V166.7a108.2,108.2,0,0,1,21.533-5.514c56.3-8.126,121.249,26.7,192.988,102.966C313.6,369.377,458.3,426.664,620,426.664a707.463,707.463,0,0,0,82.883-4.933c120.959-14.162,249-58.448,380.52-131.522,119.74-66.516,243.02-157.873,367.635-271.4V13.815C1188.168,254.339,936.674,390.795,702.534,418.306Z" transform="translate(0 338.613)" opacity="0.15" fill="url(#linear-gradient-50)"/>
          <path id="Path_42349" data-name="Path 42349" d="M706.423,413.38c-194.729,22.868-372.917-34.535-488.3-157.118-73.364-77.95-139.706-113.3-197.341-104.939A106.7,106.7,0,0,0,0,156.546v3.715A105.741,105.741,0,0,1,21.185,154.8a108.261,108.261,0,0,1,16.252-1.219c52.76,0,112.6,35.289,178.362,105.171C315.165,364.335,460.675,421.8,623.308,421.8a715.71,715.71,0,0,0,83.406-4.992c121.133-14.046,249.114-58.1,380.4-130.768,118.695-65.7,240.7-155.609,363.92-267.223V13.938C1190.315,251.27,940.156,386.158,706.423,413.38Z" transform="translate(0 345.629)" opacity="0.15" fill="url(#linear-gradient-51)"/>
          <path id="Path_42350" data-name="Path 42350" d="M710.312,408.567c-196.18,22.752-375.238-34.593-491.031-157.641C145.1,172.164,78.3,136.411,20.431,145.059A104.2,104.2,0,0,0,0,150.283v3.657a102.315,102.315,0,0,1,20.837-5.456,112.921,112.921,0,0,1,16.6-1.219c52.934,0,113.239,35.637,179.638,106.216,99.657,105.868,245.864,163.445,409.6,163.445a712.666,712.666,0,0,0,83.928-4.992c121.249-14.046,249.23-57.809,380.288-130.013,117.65-64.774,238.493-153.346,360.147-263.16v-4.7C1192.463,248.373,943.7,381.462,710.312,408.567Z" transform="translate(0 352.531)" opacity="0.15" fill="url(#linear-gradient-52)"/>
        </g>
        <g id="Group_51682" data-name="Group 51682" transform="translate(0 174.531)">
          <path id="Path_42351" data-name="Path 42351" d="M509.373,520.064c-204.19,22.462-306.517-62.337-355.678-103.14C100.877,373.045,44,370.2,0,378.5v4.469C42.836,374.728,98.439,377.224,149.98,420,194.092,456.625,280.4,528.248,443.148,528.248a608.317,608.317,0,0,0,66.922-3.831C754.6,497.37,1071.157,326.38,1450.981,16.96V10.75C1070.286,321.5,753.554,493.017,509.373,520.064Z" transform="translate(0.115 -10.75)" opacity="0.2" fill="url(#linear-gradient-53)"/>
          <path id="Path_42352" data-name="Path 42352" d="M154.913,412.585C101.166,367.951,44.054,364.991,0,373.233V377.7c42.893-8.3,98.787-5.572,151.2,37.959,44.924,37.263,130.884,108.6,294.212,108.538,198.734,0,512.448-106.274,1005.627-507.341V10.822C553.31,742.2,253.816,494.54,154.913,412.585Z" transform="translate(0.058 -6.643)" opacity="0.2" fill="url(#linear-gradient-54)"/>
          <path id="Path_42353" data-name="Path 42353" d="M156.132,408.187C101.515,362.973,44.112,359.781,0,368.138v4.469c42.951-8.358,99.135-5.572,152.475,38.6,44.46,36.914,131.464,109.06,296.94,109.06a652.933,652.933,0,0,0,68.431-3.831C762.2,489.5,1076.264,321.3,1451.038,16.987V10.893C555.98,739.024,255.383,490.49,156.132,408.187Z" transform="translate(0.058 -2.593)" opacity="0.2" fill="url(#linear-gradient-55)"/>
          <path id="Path_42354" data-name="Path 42354" d="M521.039,508.034c-210.11,22.984-317.661-66.225-363.63-104.3C101.863,357.765,44.17,354.515,0,362.931v4.411c43.009-8.474,99.483-5.572,153.694,39.468C195.019,441.055,285.506,516.1,454.291,516.1a629.844,629.844,0,0,0,67.386-3.773c244.3-26.815,557.024-193.568,929.361-495.384V10.967C1077.889,313.828,765.045,481.277,521.039,508.034Z" transform="translate(0.058 1.628)" opacity="0.2" fill="url(#linear-gradient-56)"/>
          <path id="Path_42355" data-name="Path 42355" d="M524.927,504.044c-212.026,23.1-320.215-66.4-366.3-104.649C102.211,352.729,44.228,349.3,0,357.779v4.353c43.067-8.474,99.773-5.456,154.971,40.281,41.5,34.361,132.335,109.7,302.57,109.7a628.643,628.643,0,0,0,68.025-3.831C769.8,481.639,1081.139,316.163,1450.98,16.959v-5.92C1080.443,311.346,768.818,477.4,524.927,504.044Z" transform="translate(0.058 5.735)" opacity="0.2" fill="url(#linear-gradient-57)"/>
          <path id="Path_42356" data-name="Path 42356" d="M528.758,500.11c-189.912,20.663-296.882-45.33-368.912-105.055C102.617,347.635,44.286,344.152,0,352.742v4.3c43.125-8.532,100.18-5.456,156.19,41.035,63.613,52.644,154.1,110.047,303.557,110.047a658,658,0,0,0,69.65-3.831c244.123-26.525,554.238-190.666,921.583-487.316V11.11C1082.938,308.863,772.707,473.643,528.758,500.11Z" transform="translate(0.058 9.785)" opacity="0.2" fill="url(#linear-gradient-58)"/>
          <path id="Path_42357" data-name="Path 42357" d="M532.7,496.119c-191.653,20.431-299.262-45.446-371.64-105.4C102.908,342.541,44.344,338.943,0,347.533v3.715c42.893-8.59,99.889-5.224,157.525,42.37C221.312,446.551,312.205,504.129,463,504.129a642.731,642.731,0,0,0,70.346-3.947c244.065-26.293,552.787-189.1,917.752-483.2v-5.8C1085.434,306.381,776.421,469.768,532.7,496.119Z" transform="translate(0.058 13.892)" opacity="0.2" fill="url(#linear-gradient-59)"/>
          <path id="Path_42358" data-name="Path 42358" d="M536.536,492.071C341.11,512.966,229.322,441.749,162.284,386.319,103.256,337.448,44.4,333.676,0,342.324v3.657c42.951-8.648,100.238-5.108,158.744,43.3C218.178,438.5,312.321,500.023,468.1,500.023a645.814,645.814,0,0,0,69.069-3.831c244.007-26.235,551.394-187.648,913.864-479.133v-5.8C1087.872,303.842,780.194,465.836,536.536,492.071Z" transform="translate(0.058 18.056)" opacity="0.2" fill="url(#linear-gradient-60)"/>
          <path id="Path_42359" data-name="Path 42359" d="M540.424,488.251c-197.4,20.953-309.651-50.438-376.98-106.1C103.546,332.468,44.46,328.637,0,337.343v4.179c43.241-8.706,101.166-5.224,159.962,43.415,59.667,49.451,154.332,111.149,311.277,111.149a659.54,659.54,0,0,0,69.824-3.831c243.948-26.177,550-186.255,909.975-475.186V11.324C1090.31,301.416,784.025,462.074,540.424,488.251Z" transform="translate(0.058 21.992)" opacity="0.2" fill="url(#linear-gradient-61)"/>
          <path id="Path_42360" data-name="Path 42360" d="M544.313,484.146c-199.14,21.069-312.031-50.612-379.591-106.506C103.894,327.26,44.518,323.255,0,332.077v3.6c43.067-8.764,100.934-4.992,161.239,44.866,59.841,49.567,154.971,111.5,313.192,111.5a670.2,670.2,0,0,0,70.4-3.831c243.89-26.061,548.666-184.746,906.2-471.123V11.4C1092.805,298.82,787.8,458.143,544.313,484.146Z" transform="translate(0.058 26.213)" opacity="0.2" fill="url(#linear-gradient-62)"/>
          <path id="Path_42361" data-name="Path 42361" d="M165.941,373.528C104.243,322.509,44.518,318.388,0,327.153v4.179c43.357-8.764,101.863-5.108,162.458,45.04,60.131,49.742,155.609,111.9,315.165,111.846a684.789,684.789,0,0,0,71.1-3.831C792.5,458.5,1095.94,301.15,1450.98,17.327V11.465C870.623,476.378,438.155,598.845,165.941,373.528Z" transform="translate(0.058 30.035)" opacity="0.2" fill="url(#linear-gradient-63)"/>
          <path id="Path_42362" data-name="Path 42362" d="M167.1,369.3C104.591,317.53,44.576,313.293,0,322.173v4.179c43.473-8.822,102.269-5.05,163.735,45.795,35.405,29.369,135.527,112.136,319.577,112.136a647.793,647.793,0,0,0,69.3-3.773c243.542-25.77,545.764-181.844,898.424-463.055v-5.92C872.306,474.3,440.129,595.143,167.1,369.3Z" transform="translate(0.058 34.027)" opacity="0.2" fill="url(#linear-gradient-64)"/>
          <path id="Path_42363" data-name="Path 42363" d="M555.922,472.173c-228.161,24.087-348.133-75.048-387.6-107.667C104.881,312.037,44.634,307.684,0,316.622V320.1c43.183-8.938,101.921-4.818,164.954,47.3C200.533,396.777,301,479.893,486.562,479.893a692.827,692.827,0,0,0,69.94-3.714c243.484-25.713,544.371-180.335,894.536-459.108V11.614C1100.235,291.374,799.174,446.4,555.922,472.173Z" transform="translate(0.058 38.534)" opacity="0.2" fill="url(#linear-gradient-65)"/>
          <path id="Path_42364" data-name="Path 42364" d="M559.81,468.924C404.665,485.118,277.148,449.886,169.6,360.967,105.229,307.627,44.692,303.158,0,312.212v4.063c43.531-9,102.908-4.933,166.231,47.42C257.82,439.439,363.746,476.7,488.477,476.643a696.9,696.9,0,0,0,71.855-3.889c243.252-25.538,543.095-179.638,890.7-455.626V11.673C1102.789,288.763,802.83,443.328,559.81,468.924Z" transform="translate(0.058 41.899)" opacity="0.2" fill="url(#linear-gradient-66)"/>
          <path id="Path_42365" data-name="Path 42365" d="M563.641,464.876c-156.364,16.31-284.868-19.1-392.883-108.363C105.519,302.534,44.75,298.007,0,307v4c43.589-9,103.256-4.875,167.508,48.291,91.88,75.976,198.444,113.3,324.22,113.3a694.841,694.841,0,0,0,72.552-3.889c243.136-25.48,541.7-178.187,886.758-451.621v-5.34C1105.284,286.224,806.545,439.4,563.641,464.876Z" transform="translate(0.058 46.063)" opacity="0.2" fill="url(#linear-gradient-67)"/>
          <path id="Path_42366" data-name="Path 42366" d="M567.472,460.942C409.831,477.368,280.4,441.788,172.035,352.23,105.868,297.5,44.75,292.8,0,301.908v3.366c43.357-9.171,102.908-4.7,168.727,49.684C261.013,431.225,368.215,468.72,494.978,468.72a706.879,706.879,0,0,0,73.19-3.889c243.02-25.422,540.25-176.794,882.927-447.674v-5.34C1107.722,283.741,810.317,435.578,567.472,460.942Z" transform="translate(0.058 50.114)" opacity="0.2" fill="url(#linear-gradient-68)"/>
          <path id="Path_42367" data-name="Path 42367" d="M173.2,347.719C128.968,311.153,82.767,292.7,35.7,292.7h-.755A168.872,168.872,0,0,0,0,296.643v3.947a160.822,160.822,0,0,1,35-4.063h.755c45.737,0,90.893,18.167,134.25,53.921,91.822,75.918,202.275,113.529,329.734,113.529,254.164,0,575.888-150.328,951.358-446.4V11.891C888.151,456.721,446.745,573.559,173.2,347.719Z" transform="translate(0.058 54.335)" opacity="0.2" fill="url(#linear-gradient-69)"/>
          <path id="Path_42368" data-name="Path 42368" d="M174.473,343.436c-45.33-37.437-92.4-56.01-140.228-55.778A178.846,178.846,0,0,0,0,291.605v3.889a169.912,169.912,0,0,1,34.3-4.063H35.7c45.969,0,91.589,18.4,135.527,54.675,92.576,76.5,203.9,114.516,332.113,114.516,253.816,0,574.321-149.167,947.7-442.973V11.961C889.6,454.586,448.545,569.914,174.473,343.436Z" transform="translate(0.058 58.327)" opacity="0.2" fill="url(#linear-gradient-70)"/>
          <path id="Path_42369" data-name="Path 42369" d="M175.692,338.7c-45.563-37.553-92.634-56.591-140.112-56.591H33.548a171.918,171.918,0,0,0-33.548,4v3.831a163.423,163.423,0,0,1,33.606-4.063h2.031c46.2,0,92.286,18.689,136.862,55.546C251.03,406.2,359.683,456.348,508.037,456.348c218.236,0,522.722-109.292,943.058-439.2V12.04C745.485,567.207,368.447,497.847,175.692,338.7Z" transform="translate(0.058 62.834)" opacity="0.2" fill="url(#linear-gradient-71)"/>
          <path id="Path_42370" data-name="Path 42370" d="M582.969,445.321c-160.949,16.542-297.579-20.6-406.116-110.163C130.709,297.025,83.115,277.7,35.463,277.7c-.871,0-1.8,0-2.612.058A165.431,165.431,0,0,0,0,281.644v3.831a165.7,165.7,0,0,1,33.026-4.121h2.5c46.433,0,92.983,18.922,138.2,56.358,92.634,76.5,205.583,115.1,336.467,115.1a723.741,723.741,0,0,0,73.364-3.831c242.439-24.9,534.388-170.99,867.43-431.771V12.1C1117.473,273.866,825.292,420.421,582.969,445.321Z" transform="translate(0.058 66.199)" opacity="0.2" fill="url(#linear-gradient-72)"/>
          <path id="Path_42371" data-name="Path 42371" d="M586.858,441.271c-162.516,16.6-299.842-20.547-408.728-110.511-46.781-38.6-94.782-58.216-142.666-58.216H32.271a167.415,167.415,0,0,0-32.271,4v3.831a162.921,162.921,0,0,1,32.329-4.063h3.076c46.723,0,93.621,19.154,139.59,57.113,92.982,76.731,206.57,115.445,338.5,115.445a736.172,736.172,0,0,0,74-3.831c242.323-24.784,533-169.539,863.6-427.824V12.17C1119.853,271.383,829.007,416.6,586.858,441.271Z" transform="translate(0.058 70.249)" opacity="0.2" fill="url(#linear-gradient-73)"/>
          <path id="Path_42372" data-name="Path 42372" d="M590.746,437.394c-163.387,16.832-302.048-20.6-411.4-110.917-48.639-40.107-98.148-59.9-147.774-58.97a170.54,170.54,0,0,0-31.575,4v3.715a161.3,161.3,0,0,1,31.691-4c1.219-.058,2.438-.058,3.6-.058,46.956,0,94.317,19.5,140.925,57.925,93.273,77.079,207.556,115.851,340.471,115.851a732.506,732.506,0,0,0,74.641-3.831C833.476,416.5,1122.813,273.021,1451.1,17.29V12.24C1122.291,268.9,832.78,412.843,590.746,437.394Z" transform="translate(0.058 74.242)" opacity="0.2" fill="url(#linear-gradient-74)"/>
          <path id="Path_42373" data-name="Path 42373" d="M594.635,433.46c-165.07,16.832-304.37-20.721-414.068-111.266-48.116-39.7-96.929-59.841-145.336-59.841-1.451,0-2.9.058-4.353.116A163.791,163.791,0,0,0,0,266.359v3.773a155.163,155.163,0,0,1,31.052-4.063c1.393-.058,2.786-.058,4.179-.058,47.188,0,94.956,19.734,142.2,58.738C271.112,402,386.034,441.005,519.878,441.005a727.9,727.9,0,0,0,75.28-3.889c242.091-24.552,530.093-166.579,855.88-419.814V12.311C1124.67,266.475,836.436,409.025,594.635,433.46Z" transform="translate(0.058 78.292)" opacity="0.2" fill="url(#linear-gradient-75)"/>
          <path id="Path_42374" data-name="Path 42374" d="M598.466,429.641c-164.083,16.542-308.142-22.114-416.738-111.73-50.38-41.558-101.34-61.988-151.43-60.479A162.135,162.135,0,0,0,0,261.379v3.715a159.7,159.7,0,0,1,30.588-4.063c1.509-.058,3.018-.058,4.643-.058,47.362,0,95.594,20.082,143.537,59.493,93.041,76.789,211.852,116.547,346.914,116.547a720.546,720.546,0,0,0,73.423-3.831C840.964,408.8,1127.688,268,1451.1,17.315V12.381C1127.05,264.049,840.209,405.264,598.466,429.641Z" transform="translate(0.058 82.285)" opacity="0.2" fill="url(#linear-gradient-76)"/>
          <path id="Path_42375" data-name="Path 42375" d="M183,312.946C133.612,272.2,83.87,251.538,35.115,251.538c-1.8,0-3.6,0-5.456.116A160.888,160.888,0,0,0,0,255.485v3.773a152.95,152.95,0,0,1,29.891-4.063c1.741-.058,3.482-.116,5.166-.116,47.652,0,96.349,20.373,144.872,60.421,70.811,58.332,183,116.9,348.133,116.9,212.084,0,511.868-97.336,922.976-415.171V12.465C720.585,578.486,343.9,445.745,183,312.946Z" transform="translate(0.058 87.076)" opacity="0.2" fill="url(#linear-gradient-77)"/>
          <path id="Path_42376" data-name="Path 42376" d="M606.244,421.717c-210.749,21.011-345.753-49.451-422.02-112.484-50.032-41.268-100.18-62.1-149.167-62.1-1.973,0-4,0-5.92.058A164.305,164.305,0,0,0,0,251.133v3.657a150.288,150.288,0,0,1,29.253-3.947c1.915-.116,3.889-.116,5.746-.116,47.884,0,96.987,20.489,146.207,61.118C248.65,367.506,361.715,429.088,531.718,429.03c23.913,0,48.871-1.1,75.048-3.714,241.453-24.2,525.624-162.342,844.272-408.032V12.524C1131.809,259.026,847.522,397.572,606.244,421.717Z" transform="translate(0.058 90.441)" opacity="0.2" fill="url(#linear-gradient-78)"/>
          <path id="Path_42377" data-name="Path 42377" d="M610.132,417.839C397.7,439.082,262,368.214,185.443,305.122,134.772,263.274,84.16,242.089,35,242.089c-2.148,0-4.3.058-6.443.116A169.606,169.606,0,0,0,0,246.094v3.715a148.992,148.992,0,0,1,28.731-4.063c2.089-.058,4.179-.116,6.268-.116,48.058,0,97.684,20.837,147.483,61.93C250.217,363.4,363.8,425.152,535.085,425.152c24.029,0,49.219-1.219,75.57-3.831,241.279-24.029,524-160.833,840.383-403.969V12.593C1134.189,256.6,851.237,393.868,610.132,417.839Z" transform="translate(0.058 94.377)" opacity="0.2" fill="url(#linear-gradient-79)"/>
          <path id="Path_42378" data-name="Path 42378" d="M613.963,413.963c-213.941,21.3-350.513-49.8-427.3-113.181C135.353,258.47,84.334,236.994,34.941,236.994c-2.38,0-4.759.058-7.081.116A162.816,162.816,0,0,0,0,241v3.657a148.178,148.178,0,0,1,28.092-4c50.554-2.089,102.733,18.98,155.609,62.627,67.851,56.068,182.018,118,354.518,118,24.261,0,49.625-1.219,76.209-3.831,241.1-23.913,522.548-159.382,836.552-400.08v-4.7C1136.569,254.117,855.009,390.05,613.963,413.963Z" transform="translate(0.058 98.427)" opacity="0.2" fill="url(#linear-gradient-80)"/>
          <path id="Path_42379" data-name="Path 42379" d="M617.91,410.086C402.4,431.271,265.018,360.112,187.938,296.557c-51.947-42.893-103.43-64.542-153-64.542-2.5,0-4.992,0-7.545.116A151.318,151.318,0,0,0,0,235.962V239.5a152.939,152.939,0,0,1,27.628-3.947c50.728-2.031,103.662,19.154,157.409,63.5C253.119,355.3,367.809,417.4,541.585,417.4c24.378,0,50.032-1.219,76.847-3.831C859.363,389.714,1139.471,255.58,1451.1,17.377V12.734C1138.948,251.749,858.608,386.231,617.91,410.086Z" transform="translate(0.058 102.42)" opacity="0.2" fill="url(#linear-gradient-81)"/>
          <path id="Path_42380" data-name="Path 42380" d="M621.683,406.266C404.2,427.684,266.352,356.119,189.041,292.331,136.4,248.916,84.566,226.918,34.767,226.918c-2.67,0-5.34.116-8.01.232A152.318,152.318,0,0,0,0,230.981v3.541a152.293,152.293,0,0,1,27.047-3.947c2.554-.116,5.166-.174,7.778-.174,48.639,0,99.541,21.591,151.43,64.31,68.315,56.474,183.585,118.811,358.58,118.811,24.551,0,50.438-1.277,77.427-3.889,240.64-23.681,519.471-156.48,828.775-392.186V12.8C1141.328,249.38,862.265,382.585,621.683,406.266Z" transform="translate(0.058 106.356)" opacity="0.2" fill="url(#linear-gradient-82)"/>
          <path id="Path_42381" data-name="Path 42381" d="M190.318,287.192c-56.3-46.433-111.5-68.547-164.025-65.935A156.626,156.626,0,0,0,0,225.03v3.541a147.85,147.85,0,0,1,26.583-3.889c51.309-2.322,105.4,19.212,160.949,65.007,61.872,51.018,178.652,118.869,361.6,118.869,208.833-.058,504.032-88.8,901.907-391.2V12.888C705.146,580.882,322.246,396.078,190.318,287.192Z" transform="translate(0.058 111.205)" opacity="0.2" fill="url(#linear-gradient-83)"/>
          <path id="Path_42382" data-name="Path 42382" d="M191.537,283.081c-57.171-47.188-113.065-69.534-165.825-66.69A151.437,151.437,0,0,0,0,220.106v3.482a147.8,147.8,0,0,1,26.061-3.947c51.715-2.612,106.39,19.386,162.632,65.761,62.337,51.483,180.045,119.856,364.21,119.8,208.543,0,502.7-88.107,898.076-387.833V12.956C707.294,577.816,323.756,392.083,191.537,283.081Z" transform="translate(0.058 115.083)" opacity="0.2" fill="url(#linear-gradient-84)"/>
          <path id="Path_42383" data-name="Path 42383" d="M633.349,394.635c-234.314,22.868-376.573-62.22-440.593-114.98C138.139,234.673,85.031,211.92,34.593,211.92c-3.134,0-6.327.058-9.461.29A156.676,156.676,0,0,0,0,215.867v3.482a147.551,147.551,0,0,1,25.48-3.831c3.076-.174,6.094-.232,9.171-.232,49.335,0,101.515,22.462,155.319,66.748,57.113,47.13,176.214,119.74,366.706,119.74,24.494,0,50.264-1.161,77.2-3.773,240.06-23.333,514.944-152.185,817.224-380.578V13.012C1148.351,242.1,873.234,371.3,633.349,394.635Z" transform="translate(0.058 118.278)" opacity="0.2" fill="url(#linear-gradient-85)"/>
          <path id="Path_42384" data-name="Path 42384" d="M637.238,390.759c-26.989,2.612-52.644,3.773-77.2,3.773-190.492,0-309.187-72.262-366.068-119.159C138.719,229.81,85.147,206.768,34.593,206.768c-3.366,0-6.675.116-9.983.348A157.713,157.713,0,0,0,0,210.714v3.424a147.714,147.714,0,0,1,25.016-3.831c3.192-.174,6.385-.232,9.577-.232,49.509,0,102.1,22.694,156.654,67.618,57.229,47.188,176.794,120.088,368.738,120.088,24.668,0,50.612-1.219,77.66-3.773,239.827-23.217,513.377-150.734,813.336-376.515V13.083C1150.673,239.619,876.891,367.542,637.238,390.759Z" transform="translate(0.058 122.328)" opacity="0.2" fill="url(#linear-gradient-86)"/>
          <path id="Path_42385" data-name="Path 42385" d="M641.126,387.053C403.272,409.922,259.62,324.369,195.252,271.319c-55.894-46.085-109.873-69.36-160.659-69.36-3.541,0-6.965.116-10.389.348a145.13,145.13,0,0,0-24.2,3.6v3.424A143.034,143.034,0,0,1,24.552,205.5c52.353-3.308,109.06,19.618,167.972,68.141C250.043,321,370.073,394.135,563.293,394.135c24.9,0,50.961-1.219,78.356-3.831,239.537-23.159,511.81-149.283,809.447-372.685V13.15C1152.995,237.364,880.606,363.895,641.126,387.053Z" transform="translate(0.058 126.15)" opacity="0.2" fill="url(#linear-gradient-87)"/>
          <path id="Path_42386" data-name="Path 42386" d="M644.957,383.118c-239.886,22.984-384-62.859-448.6-116.083-56.532-46.607-110.917-70.114-161.878-70.114-3.657,0-7.255.116-10.854.29A146.008,146.008,0,0,0,0,200.81v3.366A142.382,142.382,0,0,1,24.087,200.4c3.482-.232,6.907-.406,10.447-.406,49.858,0,103.372,23.275,159.15,69.244,57.693,47.536,178.245,120.9,372.8,120.9,25.016,0,51.367-1.219,78.878-3.889,239.363-22.984,510.3-147.832,805.616-368.738v-4.3C1155.258,234.939,884.2,360.134,644.957,383.118Z" transform="translate(0.058 130.143)" opacity="0.2" fill="url(#linear-gradient-88)"/>
          <path id="Path_42387" data-name="Path 42387" d="M648.846,379.3c-241.627,23.042-386.382-63.149-451.157-116.547C136.223,212.2,77.6,188.517,23.217,192.232A147.458,147.458,0,0,0,0,195.773v3.308a142.44,142.44,0,0,1,23.507-3.657c3.657-.29,7.255-.406,10.97-.406,50.09,0,104.01,23.565,160.485,70.056C252.829,312.726,373.9,386.381,569.794,386.381q37.872,0,79.459-3.889c239.073-22.927,508.734-146.381,801.785-364.849V13.29C1157.638,232.455,887.861,356.373,648.846,379.3Z" transform="translate(0.058 134.135)" opacity="0.2" fill="url(#linear-gradient-89)"/>
          <path id="Path_42388" data-name="Path 42388" d="M198.907,257.5C141.04,209.906,85.784,185.818,34.476,185.818c-3.889,0-7.836.116-11.724.464A135.29,135.29,0,0,0,0,189.823v3.308a138.842,138.842,0,0,1,23.159-3.773c53.34-3.773,111.614,19.85,173.08,70.462,52.3,43.009,175.75,121.713,379.011,121.713,206.628,0,495.674-81.432,875.788-363.978V13.377C697.89,574.174,303.9,344.039,198.907,257.5Z" transform="translate(0.001 139.098)" opacity="0.2" fill="url(#linear-gradient-90)"/>
          <path id="Path_42389" data-name="Path 42389" d="M656.624,371.66c-245.167,23.333-391.2-63.5-456.5-117.244C137.036,202.411,77.253,178.15,22.288,182.271A157.5,157.5,0,0,0,0,185.7V189a139.747,139.747,0,0,1,22.636-3.657c3.889-.29,7.836-.406,11.782-.406,50.5,0,105.287,24.029,163.1,71.623,58.274,47.942,180.393,122,378.953,122,25.6,0,52.47-1.219,80.62-3.831C895.58,352.042,1162.572,231.2,1451.038,17.607V13.428C1162.165,227.775,895.058,348.966,656.624,371.66Z" transform="translate(0.058 142.007)" opacity="0.2" fill="url(#linear-gradient-91)"/>
          <path id="Path_42390" data-name="Path 42390" d="M660.454,367.783C413.6,391.116,266.817,304.054,201.346,250.191c-64.02-52.7-124.5-77.079-179.522-72.842A138.542,138.542,0,0,0,0,180.716v3.192a147.6,147.6,0,0,1,22.172-3.541c4.063-.348,8.068-.522,12.189-.522,50.728,0,105.926,24.377,164.374,72.494S379.766,374.69,579.661,374.69c25.77,0,52.818-1.219,81.2-3.947,238.318-22.462,503.974-142.027,790.177-353.124V13.5C1164.487,225.234,898.715,345.205,660.454,367.783Z" transform="translate(0.058 146)" opacity="0.2" fill="url(#linear-gradient-92)"/>
          <path id="Path_42391" data-name="Path 42391" d="M664.343,364.021c-248.766,23.158-396.133-63.9-461.836-118-64.832-53.4-125.776-78.124-181.148-73.6A147.009,147.009,0,0,0,0,175.734v3.192a150.7,150.7,0,0,1,21.766-3.6c54.269-4.527,114.168,20.082,178.187,72.784C258.575,296.4,381.681,370.87,582.969,370.87c25.945,0,53.224-1.219,81.781-3.947,238.086-22.4,502.291-140.577,786.288-349.294V13.566C1166.808,223.038,902.255,341.558,664.343,364.021Z" transform="translate(0.058 149.879)" opacity="0.2" fill="url(#linear-gradient-93)"/>
          <path id="Path_42392" data-name="Path 42392" d="M203.726,241.91C138.023,187.816,76.383,162.8,20.895,167.5A140.358,140.358,0,0,0,0,170.867v3.192a130.878,130.878,0,0,1,21.417-3.541c4.237-.406,8.532-.58,12.943-.58,51.077,0,107.145,24.842,166.869,74.061,58.8,48.465,182.424,123.106,385.105,123.106,26.119,0,53.572-1.219,82.3-3.889,237.8-22.346,500.724-139.125,782.457-345.4V13.633C858.782,447.319,420.453,420.388,203.726,241.91Z" transform="translate(0.058 153.701)" opacity="0.2" fill="url(#linear-gradient-94)"/>
          <path id="Path_42393" data-name="Path 42393" d="M672.121,356.266C420.046,379.831,271.17,292.014,205,237.513c-66.574-54.791-128.5-80.155-184.514-75.164A143.915,143.915,0,0,0,0,165.658v3.134a140.059,140.059,0,0,1,20.895-3.482c54.733-4.875,115.793,20.2,181.554,74.293,59.028,48.581,183.121,123.454,387.137,123.454,26.293,0,53.921-1.219,82.883-3.889,237.39-22.172,499.1-137.675,778.569-341.574V13.705C1171.278,218.243,909.452,334.094,672.121,356.266Z" transform="translate(0.058 157.808)" opacity="0.2" fill="url(#linear-gradient-95)"/>
          <path id="Path_42394" data-name="Path 42394" d="M206.221,232.547C138.777,177.06,76.15,151.463,20.082,156.629A123.966,123.966,0,0,0,0,159.937v3.018a150.552,150.552,0,0,1,20.489-3.482c55.023-4.817,116.663,20.315,183.237,75.106,48,39.584,175.692,123.745,391.316,123.745,25.828,0,52.934-1.219,81.258-3.831,237.158-22.056,497.59-136.339,774.738-337.743v-2.96C689.533,568.666,282.082,295.058,206.221,232.547Z" transform="translate(0.058 162.599)" opacity="0.2" fill="url(#linear-gradient-96)"/>
          <path id="Path_42395" data-name="Path 42395" d="M679.84,348.625c-265.54,24.667-418.827-75.338-472.458-119.45C139.184,173.05,76.15,147.221,19.676,152.5A150.868,150.868,0,0,0,0,155.869v2.96a137.271,137.271,0,0,1,20.14-3.424c4.7-.464,9.345-.7,14.1-.7,51.6,0,108.944,25.712,170.7,76.5,48.116,39.7,176.33,124.151,393.405,124.151q39,0,81.839-3.831C917,329.53,1176.037,216.7,1450.98,17.673V13.842C1175.8,213.5,916.592,326.686,679.84,348.625Z" transform="translate(0.058 165.622)" opacity="0.2" fill="url(#linear-gradient-97)"/>
          <path id="Path_42396" data-name="Path 42396" d="M683.729,344.921c-267.4,24.493-421.323-75.628-475.07-119.856C139.532,168.184,75.976,142.182,19.27,147.58A154.471,154.471,0,0,0,0,150.946v2.844a148.7,148.7,0,0,1,19.734-3.308c55.372-5.34,118.173,20.373,186.487,76.557C254.57,266.855,383.248,351.6,601.716,351.6c26.177,0,53.688-1.219,82.361-3.831,236.519-21.882,494.34-133.437,766.96-330.024V13.91C1178.068,211.193,920.19,323.039,683.729,344.921Z" transform="translate(0.058 169.501)" opacity="0.2" fill="url(#linear-gradient-98)"/>
          <path id="Path_42397" data-name="Path 42397" d="M687.56,341.1c-28.789,2.612-56.3,3.831-82.535,3.831-218.7,0-346.972-84.392-395.2-124.035C139.88,163.32,75.686,136.969,18.863,142.715A130.064,130.064,0,0,0,0,146.023v2.844a134.981,134.981,0,0,1,19.328-3.424c4.875-.464,9.809-.7,14.859-.7,51.947,0,110.221,26.177,173.254,78.124C255.9,262.8,385.047,347.718,605.025,347.718c26.351,0,54.037-1.219,82.941-3.889,236.171-21.649,492.6-131.87,763.072-326.077V13.979C1180.274,208.824,923.672,319.393,687.56,341.1Z" transform="translate(0.058 173.437)" opacity="0.2" fill="url(#linear-gradient-99)"/>
          <path id="Path_42398" data-name="Path 42398" d="M211.1,217.013C140.286,158.8,75.454,132.1,18.573,138.135A120.119,120.119,0,0,0,0,141.385v2.844A139.872,139.872,0,0,1,18.98,140.8a146.541,146.541,0,0,1,15.207-.813c52.179,0,110.743,26.525,174.473,78.937,48.581,39.933,178.3,125.2,399.674,125.2,26.467,0,54.327-1.219,83.464-3.831,235.823-21.533,490.915-130.477,759.241-322.3V14.042C866.56,431.825,420.627,389.454,211.1,217.013Z" transform="translate(0.058 177.031)" opacity="0.2" fill="url(#linear-gradient-100)"/>
          <path id="Path_42399" data-name="Path 42399" d="M695.337,333.632c-273.143,25.016-428.753-76.209-483.021-120.9-71.623-58.97-137.152-85.843-194.207-79.691A130.43,130.43,0,0,0,0,136.29v2.786a143.111,143.111,0,0,1,18.573-3.366,153.6,153.6,0,0,1,15.613-.813c52.353,0,111.382,26.815,175.75,79.749,48.755,40.107,178.942,125.6,401.705,125.6q39.961,0,84.044-3.831c120.784-11.086,248.882-45.5,380.694-102.5,121.713-52.586,247.431-125.834,374.658-216.321V14.113C1184.743,204.257,930.812,312.156,695.337,333.632Z" transform="translate(0.058 181.081)" opacity="0.2" fill="url(#linear-gradient-101)"/>
          <path id="Path_42400" data-name="Path 42400" d="M699.168,329.756C505.6,347.342,328.631,303.115,213.535,208.449c-65.7-54.095-125.95-81.374-179.406-81.374a152.983,152.983,0,0,0-16.368.871A134.164,134.164,0,0,0,0,131.2v2.786a129.5,129.5,0,0,1,18.167-3.366c56.358-6.036,121.249,20.721,193.046,79.749,99.135,81.548,243.774,125.892,405.478,125.892q40.832,0,82.883-3.773c120.958-10.97,248.94-45.272,380.52-101.863,120.726-51.947,245.283-124.093,371-213.128V14.184C1186.891,201.774,934.352,308.4,699.168,329.756Z" transform="translate(0.058 185.131)" opacity="0.2" fill="url(#linear-gradient-102)"/>
          <path id="Path_42401" data-name="Path 42401" d="M703.114,326.05c-195.078,17.587-372.975-26.757-488.361-121.771C148.411,149.72,87.758,122.208,34.127,122.208a132.62,132.62,0,0,0-16.716.929A120.281,120.281,0,0,0,0,126.445v2.728a133.773,133.773,0,0,1,17.877-3.424,150.807,150.807,0,0,1,16.252-.929c52.7,0,112.6,27.338,178.3,81.374C311.8,287.917,457.25,332.493,620,332.493c27.338,0,55.2-1.277,83.406-3.831,121.075-10.912,249.114-44.982,380.4-101.283,119.74-51.309,243.02-122.235,367.229-209.82V14.251C1189.1,199.519,937.892,304.807,703.114,326.05Z" transform="translate(0.001 188.952)" opacity="0.2" fill="url(#linear-gradient-103)"/>
          <path id="Path_42402" data-name="Path 42402" d="M706.946,322.344c-196.18,17.587-375.238-26.873-490.973-122.119-74.177-61-141.041-88.629-198.85-81.955A142.429,142.429,0,0,0,0,121.521v2.67a138.265,138.265,0,0,1,17.529-3.308c56.59-6.5,122.758,20.837,196.18,81.258,99.657,81.955,245.806,126.588,409.6,126.588,27.512,0,55.546-1.277,83.928-3.773,121.249-10.97,249.172-44.808,380.23-100.7,118.753-50.612,240.7-120.494,363.514-206.628V14.318C1191.3,197.265,941.375,301.217,706.946,322.344Z" transform="translate(0.058 192.774)" opacity="0.2" fill="url(#linear-gradient-104)"/>
        </g>
      </g>
    </g>
    <g id="Group_51685" data-name="Group 51685" transform="translate(11693 4148.463)">
      <path id="Path_42403" data-name="Path 42403" d="M599.3,243.3c1.8,0,3.817,0,5.622-.069,208-1.041,442.243-57.189,642.821-154.216,188.918-91.336,345.632-9.786,443.839,74.748,9.509,8.12,18.184,16.588,26.929,24.985v-8.953c-7.5-7.149-14.783-14.367-22.765-21.238C1596.017,72.7,1436.943-10.167,1245.179,82.7,861.652,268.351,309.75,326.373,4.372,15.443L0,20.3C143.25,166.258,350.352,243.3,599.3,243.3Z" transform="translate(16.657 69.438)" opacity="0.3" fill="url(#linear-gradient-105)"/>
      <path id="Path_42404" data-name="Path 42404" d="M1239.835,98.521c196.483-95.153,355.9-13.881,455.152,71.07,9.647,8.4,18.531,17,27.415,25.61v-8.953c-7.7-7.357-15.13-14.714-23.389-21.793C1598.447,78.186,1436.735-4.336,1237.2,92.344,845.551,282.025,312.527,331.788,4.372,15.445L0,20.3C310.306,338.936,846.245,289.174,1239.835,98.521Z" transform="translate(12.77 62.08)" opacity="0.3" fill="url(#linear-gradient-106)"/>
      <path id="Path_42405" data-name="Path 42405" d="M1231.646,108.224c204.4-98.97,366.385-18.045,466.4,67.461,9.925,8.467,19.017,17.282,28.109,26.1v-9.022c-7.912-7.5-15.547-15.061-24.014-22.279-101.4-86.616-265.818-169-472.989-68.363C870.536,276.043,334.736,357.731,4.372,15.431L0,20.358C332.515,364.879,871.3,283.052,1231.646,108.224Z" transform="translate(9.023 54.528)" opacity="0.3" fill="url(#linear-gradient-107)"/>
      <path id="Path_42406" data-name="Path 42406" d="M1223.734,117.922c212.1-102.857,376.726-22.071,477.5,63.782,10.133,8.676,19.433,17.7,28.733,26.582v-9.022c-8.051-7.635-15.894-15.408-24.569-22.834C1603.235,89.4,1436.249,7.361,1221.1,111.745,849.645,292.056,335.083,361.252,4.372,15.412L0,20.2C333.07,368.609,850.478,299.135,1223.734,117.922Z" transform="translate(5.205 47.051)" opacity="0.3" fill="url(#linear-gradient-108)"/>
      <path id="Path_42407" data-name="Path 42407" d="M1215.822,127.543c219.8-106.743,387-26.235,488.744,60.034,10.411,8.884,19.919,18.045,29.358,27.206V205.83c-8.259-7.843-16.31-15.894-25.263-23.458C1605.6,94.854,1435.833,13.165,1213.184,121.366,737.974,352.134,286.084,312.643,4.442,15.386L0,20.175C283.724,319.584,738.252,359.7,1215.822,127.543Z" transform="translate(1.249 39.651)" opacity="0.3" fill="url(#linear-gradient-109)"/>
      <path id="Path_42408" data-name="Path 42408" d="M1205.133,137.312c227.507-110.769,397.478-30.4,500.057,56.217,10.619,9.023,20.266,18.462,29.913,27.762v-9.022c-8.467-8.051-16.657-16.1-25.818-23.944-103.967-88-276.159-169.276-506.65-57.328C726.106,362.667,288.513,320.539,1.943,15.369L0,17.521V22.8C288.582,327.618,727.633,369.607,1205.133,137.312Z" transform="translate(0.07 32.103)" opacity="0.3" fill="url(#linear-gradient-110)"/>
      <path id="Path_42409" data-name="Path 42409" d="M1193.265,144.93c235-114.308,407.749-34.563,511.3,52.608,10.827,9.161,20.613,18.739,30.468,28.247V216.9c-8.606-8.259-17.073-16.588-26.443-24.5-104.8-88.351-279.7-169.554-517.894-53.649C713.96,370.7,291.358,326.629,0,15.353v9.3C293.163,333.917,716.459,376.878,1193.265,144.93Z" transform="translate(0.139 26.636)" opacity="0.3" fill="url(#linear-gradient-111)"/>
      <path id="Path_42410" data-name="Path 42410" d="M1181.466,150.811c242.984-118.195,418.16-38.658,522.4,48.93,11.1,9.37,21.238,19.086,31.232,28.872v-9.092c-8.814-8.4-17.42-16.865-27.068-24.916-105.7-88.906-283.307-169.693-529.137-50.04C703.2,376.165,295.8,331.192,0,15.335v9.3C297.535,338.549,705.632,382.481,1181.466,150.811Z" transform="translate(0.07 22.976)" opacity="0.3" fill="url(#linear-gradient-112)"/>
      <path id="Path_42411" data-name="Path 42411" d="M507.83,297.075C704.521,322.13,927.17,274.727,1169.6,156.532c250.618-122.151,428.571-42.753,533.648,45.251,11.382,9.508,21.654,19.433,31.787,29.358v-8.884c-9.023-8.676-17.837-17.351-27.692-25.61-106.535-89.253-286.708-169.832-540.38-46.223C692.376,381.609,299.965,335.8,0,15.3v9.439C147.969,181.1,318.634,273.131,507.83,297.075Z" transform="translate(0.139 19.407)" opacity="0.3" fill="url(#linear-gradient-113)"/>
      <path id="Path_42412" data-name="Path 42412" d="M493.741,300.791c196.483,28.733,413.718-16.657,664.059-138.738,151.856-73.985,292.538-85.853,418.229-35.327C1639.6,152.4,1692.42,191.549,1735.1,233.33v-9.023c-42.406-40.74-94.459-78.7-156.784-103.9-127.218-51.22-269.7-39.283-423.088,35.535C674.955,389.836,307.46,344.862,0,15.263V24.7C149.5,183.359,311.139,274.209,493.741,300.791Z" transform="translate(0.07 16.108)" opacity="0.3" fill="url(#linear-gradient-114)"/>
      <path id="Path_42413" data-name="Path 42413" d="M1145.932,167.648c158.519-77.247,304.06-89.878,432.943-37.131,62.533,25.61,114.378,64.129,156.229,105.216V226.78c-41.642-39.977-92.585-77.385-153.938-102.51-130.41-53.441-277.755-40.948-437.8,37.131C664.475,394.946,310.792,349.625,0,15.237v9.578C311.9,357.051,666.7,401.469,1145.932,167.648Z" transform="translate(0.07 12.733)" opacity="0.3" fill="url(#linear-gradient-115)"/>
      <path id="Path_42414" data-name="Path 42414" d="M465.285,308.29c190.792,35.674,409.484-8.675,668.848-135.268,165.043-80.647,315.581-93.765,447.518-38.936,61.561,25.471,112.365,63.435,153.452,103.828v-8.953c-40.879-39.422-90.85-76.206-151.093-101.26-133.6-55.593-285.806-42.336-452.515,39.074C647.679,402.888,317.524,358.955,0,15.2v9.647C150.468,186.278,299.062,277.405,465.285,308.29Z" transform="translate(0.07 9.58)" opacity="0.3" fill="url(#linear-gradient-116)"/>
      <path id="Path_42415" data-name="Path 42415" d="M1122.265,177.849C1294.04,93.94,1449.436,80.2,1584.357,137.039c60.59,25.471,110.353,62.88,150.746,102.718V230.8c-40.116-38.866-89.115-75.1-148.386-100.011C1450.2,73.188,1293,86.93,1119.7,171.6,566.06,441.931,267.692,307.842,0,15.166v9.647C268.524,316.24,568.489,448.108,1122.265,177.849Z" transform="translate(0.07 6.904)" opacity="0.3" fill="url(#linear-gradient-117)"/>
      <path id="Path_42416" data-name="Path 42416" d="M436.9,314.808c187.044,43.03,401.225,1.249,673.636-131.867,178.507-87.241,338.831-101.538,476.6-42.684,59.479,25.471,108.34,62.325,147.969,101.538V232.7c-39.352-38.1-87.449-73.776-145.61-98.692-139.433-59.549-301.422-45.182-481.6,42.822C558.842,445.079,279.907,324.038,0,15.122V24.63C151.162,189.672,287.541,280.522,436.9,314.808Z" transform="translate(0.07 3.964)" opacity="0.3" fill="url(#linear-gradient-118)"/>
      <path id="Path_42417" data-name="Path 42417" d="M1098.6,187.972c185.24-90.642,350.491-105.563,491.1-44.7,58.508,25.471,106.466,61.839,145.4,100.5v-9.092c-38.658-37.617-85.783-72.8-143.042-97.582-142.278-61.769-309.126-46.778-496.031,44.766C553.151,447.127,284.7,331.639,0,15.087v9.855C284.9,339.828,555.233,453.651,1098.6,187.972Z" transform="translate(0.07 1.153)" opacity="0.3" fill="url(#linear-gradient-119)"/>
      <path id="Path_42418" data-name="Path 42418" d="M408.443,320.768c180.8,50.179,396.436,9.508,678.356-128.536,192.041-93.9,362.012-109.658,505.331-46.5,57.605,25.332,104.661,61.145,142.972,99.248v-9.231c-38.033-36.992-84.256-71.555-140.4-96.263-144.916-63.852-316.691-48.166-510.537,46.64C497.766,472.971,254.574,304.042,0,15.044v9.647C130.965,171.828,254.3,277.946,408.443,320.768Z" transform="translate(0.07 -1.025)" opacity="0.3" fill="url(#linear-gradient-120)"/>
      <path id="Path_42419" data-name="Path 42419" d="M394.285,323.99c177.674,53.857,394.077,13.6,680.785-126.662,198.843-97.3,373.6-113.614,519.7-48.583,56.564,25.194,102.787,60.52,140.4,98.068v-9.231c-37.339-36.368-82.73-70.514-137.975-95.083-147.553-65.934-324.187-49.485-524.9,48.583C787.043,330.722,572.168,370.907,395.951,317.4,251.659,273.672,137.559,172.412,0,15V25.067C136.449,180.324,250.2,280.266,394.285,323.99Z" transform="translate(0 -3.761)" opacity="0.3" fill="url(#linear-gradient-121)"/>
      <path id="Path_42420" data-name="Path 42420" d="M379.988,326.507c176.7,58.23,387.414,19.711,683.214-125,205.575-100.705,385.193-117.64,533.857-50.6,55.593,25.124,101.052,59.965,138.045,96.957v-9.3c-36.715-35.882-81.272-69.473-135.477-93.9-150.4-67.946-331.682-50.942-539.131,50.6C766.43,339.208,557.176,377.727,381.861,319.983,236.946,272.233,124.164,159.591,0,14.953V25.016C122.915,167.919,235.488,278.757,379.988,326.507Z" transform="translate(0.07 -5.792)" opacity="0.3" fill="url(#linear-gradient-122)"/>
      <path id="Path_42421" data-name="Path 42421" d="M1051.264,205.785c212.515-104.036,396.991-121.8,548.084-52.608,54.76,25.055,99.387,59.41,135.754,95.847v-9.3c-36.09-35.327-79.953-68.363-133.187-92.793-152.758-69.959-338.831-52.261-553.22,52.678C749.565,346.051,539.617,383.945,367.772,322.592,226.882,272.136,117.987,155.19,0,14.925V25.2C251.868,323.911,451.682,499.364,1051.264,205.785Z" transform="translate(0.07 -7.915)" opacity="0.3" fill="url(#linear-gradient-123)"/>
      <path id="Path_42422" data-name="Path 42422" d="M1039.466,209.972c219.525-107.507,408.651-125.829,562.173-54.69C1655.5,180.2,1699.291,214,1735.1,250.087v-9.37c-35.465-34.841-78.565-67.391-130.827-91.613-155.326-72.111-346.257-53.649-567.448,54.76C740.889,348.78,534.9,387.924,368.952,330.735,225.008,281.042,122.637,164.027,0,14.878V25.219C246.385,324.072,429.681,508.617,1039.466,209.972Z" transform="translate(0.07 -9.881)" opacity="0.3" fill="url(#linear-gradient-124)"/>
      <path id="Path_42423" data-name="Path 42423" d="M1027.736,213.67c226.327-110.908,420.1-130.132,576.193-56.772,52.955,24.777,96.055,58.16,131.243,93.765v-9.508c-34.841-34.286-77.247-66.42-128.675-90.5C1448.811,76.6,1253.161,95.683,1025.03,207.493c-293.58,143.736-496.17,183.99-656.841,130.271C221.954,288.9,123.262,168.071,0,14.828V25.238C240.832,324.438,407.68,517.52,1027.736,213.67Z" transform="translate(0 -11.427)" opacity="0.3" fill="url(#linear-gradient-125)"/>
      <path id="Path_42424" data-name="Path 42424" d="M5,31.571C237.084,328,390.259,523.714,1015.8,217.088c233.267-114.378,431.833-134.158,590.213-58.924,51.984,24.708,94.39,57.675,129.092,92.654V241.31c-34.286-33.8-75.928-65.378-126.385-89.392-160.115-76.067-360.554-56.287-595.557,58.993C392.133,515.247,240.069,321.194,9.925,27.268,6.8,23.243,3.192,18.87,0,14.775v10.48C1.6,27.407,3.4,29.558,5,31.571Z" transform="translate(0.07 -12.624)" opacity="0.3" fill="url(#linear-gradient-126)"/>
      <path id="Path_42425" data-name="Path 42425" d="M16.309,46.651c218.97,288.581,363.678,479.234,987.621,173.3,240.138-117.779,443.423-138.391,604.163-61.075,51.151,24.569,92.863,57.05,127.01,91.613v-9.508c-33.73-33.314-74.748-64.546-124.3-88.351-162.475-78.079-367.425-57.466-609.438,61.145C381.861,517.557,238.472,328.431,21.445,42.348,14.643,33.395,6.94,23.748,0,14.725V25.344C5.2,32.354,11.173,39.849,16.309,46.651Z" transform="translate(0.14 -13.337)" opacity="0.3" fill="url(#linear-gradient-127)"/>
      <path id="Path_42426" data-name="Path 42426" d="M25.125,59.786C232.018,342.329,368.605,529.1,992.132,223.232c247.217-121.179,455.083-142.486,618.044-63.3,50.318,24.43,91.405,56.564,125,90.711v-9.439c-33.175-32.9-73.5-63.713-122.29-87.449-164.7-80.231-374.5-58.855-623.388,63.227C370.618,520.628,235.211,335.666,30.121,55.552,20.335,42.157,10.2,28.346,0,14.673v10.9C8.467,37.091,17,48.612,25.125,59.786Z" transform="translate(0 -14.396)" opacity="0.3" fill="url(#linear-gradient-128)"/>
      <path id="Path_42427" data-name="Path 42427" d="M31.44,70.074c195.581,278.171,324.742,461.814,948.824,155.6,254.089-124.719,466.6-146.72,631.855-65.448,49.416,24.222,89.948,55.94,122.984,89.6V240.6c-32.689-32.551-72.319-62.949-120.277-86.616-166.847-82.035-381.237-60.035-637.2,65.517C358.264,523.421,230.213,341.513,36.437,65.979,24.639,49.184,12.285,31.833,0,14.621V25.795C10.549,40.647,21.307,55.569,31.44,70.074Z" transform="translate(0.07 -14.621)" opacity="0.3" fill="url(#linear-gradient-129)"/>
      <path id="Path_42428" data-name="Path 42428" d="M35.813,78.5C126.107,212.587,204.048,328.492,336.54,370.134c143.875,45.182,338.831,1.319,631.925-142.556,261.029-128.12,478.264-151.023,645.528-67.738a445.61,445.61,0,0,1,121.11,88.768v-9.231c-32.134-32.134-71.07-62.186-118.265-85.644C1447.77,69.685,1228.8,92.38,965.828,221.471c-620.959,304.822-741.791,125.066-924.949-147C27.623,54.832,13.811,34.774,0,14.578V26.1C12.007,43.589,24.222,61.287,35.813,78.5Z" transform="translate(0.07 -14.37)" opacity="0.3" fill="url(#linear-gradient-130)"/>
      <path id="Path_42429" data-name="Path 42429" d="M38.38,85.111c85.3,132.77,158.936,247.425,288.86,288.373,141.168,44.627,335.43,0,629.426-144.36,268.108-131.59,489.924-155.187,659.27-69.959a444.445,444.445,0,0,1,119.236,87.8v-9.092c-31.718-31.718-69.959-61.492-116.46-84.812C1447.631,67,1223.942,90.524,954.029,223.017,331.058,528.88,216.61,350.859,43.517,81.224,29.5,59.362,14.852,36.945,0,14.527V26.465C12.909,46.175,25.957,65.817,38.38,85.111Z" transform="translate(0 -13.764)" opacity="0.3" fill="url(#linear-gradient-131)"/>
      <path id="Path_42430" data-name="Path 42430" d="M39.352,89.849C119.791,221.717,189.334,335.608,317.038,376c138.808,44,332.446-1.11,627.76-146.165,274.91-134.991,501.375-159.421,672.873-72.249,47.195,23.944,85.784,54.621,117.432,87.033v-9.092c-31.232-31.3-68.918-60.8-114.656-84.048-173.094-88.074-401.433-63.713-678.286,72.249C316.275,531.05,208.212,354.07,44.766,86.1,30.4,62.573,15.2,38.49,0,14.477V26.692C13.256,47.791,26.721,69.1,39.352,89.849Z" transform="translate(0.07 -12.325)" opacity="0.3" fill="url(#linear-gradient-132)"/>
      <path id="Path_42431" data-name="Path 42431" d="M39.283,93.762c76,131.243,141.515,244.51,267,284.626C441.133,421.279,640.253,374.362,933,230.7c282.058-138.53,513.1-163.655,686.476-74.679,46.5,23.806,84.534,54.2,115.7,86.338v-9.161c-30.746-30.954-67.877-60.1-112.851-83.285-175.107-89.878-407.957-64.962-691.959,74.54C639.073,367.491,441.41,414.338,308.154,371.863,184.962,332.511,119.861,220.216,44.627,90.153,30.26,65.306,15.338,39.9,0,14.433V27C13.464,49.413,26.582,71.761,39.283,93.762Z" transform="translate(0 -10.824)" opacity="0.3" fill="url(#linear-gradient-133)"/>
      <path id="Path_42432" data-name="Path 42432" d="M37.964,95.654C109.52,226.55,171.359,339.609,294.9,379.377,427.738,422.2,626.65,374.8,921.132,230.159,1210.2,88.089,1445.688,62.2,1621.072,153.19c45.876,23.736,83.285,53.719,114.031,85.575V229.6c-30.4-30.607-66.767-59.479-111.185-82.591-177.258-91.821-414.481-66.072-705.562,76.9C625.4,367.786,427.876,414.981,296.7,372.784,175.592,333.709,114.309,221.761,43.516,92.114,29.427,66.435,14.991,40.478,0,14.382V27.291Q19.468,61.854,37.964,95.654Z" transform="translate(0.07 -8.136)" opacity="0.3" fill="url(#linear-gradient-134)"/>
      <path id="Path_42433" data-name="Path 42433" d="M35.813,95.815C169.9,356.219,266.79,544.3,909.263,228.515c296.148-145.471,536.286-172.191,713.474-79.4,45.182,23.736,82.036,53.441,112.365,84.95v-9.231c-29.913-30.4-65.8-58.924-109.45-81.758-179.063-93.834-420.936-67.252-719.027,79.19C611.8,367.185,414.273,415,284.973,372.876,165.668,333.94,108.062,222.061,41.365,92.553,28.455,67.5,14.506,41.194,0,14.335V27.73C12.215,50.564,24.222,73.328,35.813,95.815Z" transform="translate(0.07 -4.341)" opacity="0.3" fill="url(#linear-gradient-135)"/>
      <path id="Path_42434" data-name="Path 42434" d="M32.689,94.511C159,355.609,250.271,544.11,897.465,226.032,1200.691,77.022,1445.2,49.538,1624.4,144.274a434.547,434.547,0,0,1,110.7,84.187V219.23c-29.5-30.052-64.893-58.3-107.854-81.064-180.867-95.778-427.391-68.224-732.422,81.758C597.916,365.811,400.184,414.186,272.689,371.85,155.257,332.983,100.983,221.035,38.38,91.388,26.374,66.68,13.464,40.654,0,14.281v13.95C11.382,50.856,22.348,73.135,32.689,94.511Z" transform="translate(0.07 0.364)" opacity="0.3" fill="url(#linear-gradient-136)"/>
      <path id="Path_42435" data-name="Path 42435" d="M28.872,91.541c118.612,262,204.465,451.4,856.725,130.757,310.306-152.48,559.328-180.8,740.334-84.256,43.863,23.458,79.676,52.747,109.173,83.632V212.3a435.322,435.322,0,0,0-106.258-80.231C1446.1,34.491,1195.07,62.669,882.89,216.121c-299.062,147.067-497.28,195.719-622.9,153.521C144.222,330.638,93.418,218.481,34.563,88.557,23.736,64.543,12.146,39.558,0,14.225V28.8C10.133,50.177,19.641,71.206,28.872,91.541Z" transform="translate(0.07 6.318)" opacity="0.3" fill="url(#linear-gradient-137)"/>
      <path id="Path_42436" data-name="Path 42436" d="M24.361,86.83c53.857,127.7,100.428,237.986,208.906,281.433C360.416,419.136,557.94,372.636,873.8,217.379c317.246-156.02,570.849-185.17,753.59-86.686,43.239,23.389,78.5,52.331,107.646,82.868v-9.369c-28.733-29.289-63.019-56.981-104.8-79.537-184.615-99.525-440.022-70.514-759.142,86.477-309.959,152.411-511.786,200.23-635.6,150.745C129.578,319.472,83.424,210.3,30.191,84.054,20.613,61.5,10.549,38.04,0,14.165V29.919C8.4,49.283,16.518,68.369,24.361,86.83Z" transform="translate(0.139 13.458)" opacity="0.3" fill="url(#linear-gradient-138)"/>
      <path id="Path_42437" data-name="Path 42437" d="M19.364,79.838c50.11,127.7,93.418,238.055,199.12,282.2C343.9,414.3,542.324,367.448,861.93,210.317c324.325-159.56,582.439-189.4,766.916-89.045,42.753,23.25,77.455,51.983,106.258,82.313v-9.37a434.515,434.515,0,0,0-103.343-78.982c-186.35-101.469-446.338-71.486-772.537,88.906-313.5,154.354-516.436,202.451-638.449,151.578C117.5,312.618,74.679,203.585,25.194,77.27,17.143,56.8,8.814,35.558,0,14.112V31.324C6.663,47.773,13.187,64.152,19.364,79.838Z" transform="translate(0.069 22.602)" opacity="0.3" fill="url(#linear-gradient-139)"/>
      <path id="Path_42438" data-name="Path 42438" d="M13.811,69.859C60.173,197.84,100.358,308.4,203.77,353.235c123.539,53.51,322.868,6.524,646.222-152.48,331.474-163.1,593.891-193.845,780.172-91.474,42.2,23.042,76.483,51.5,104.939,81.55v-9.439a430.712,430.712,0,0,0-101.885-78.218C1445.2-.17,1180.772,30.576,847.494,194.508,530.178,350.6,326.338,398.972,206.2,346.85,105.355,303.125,65.656,193.884,19.641,67.291,13.395,50.079,6.8,32.034,0,14.058V32.45C4.581,45.012,9.439,57.713,13.811,69.859Z" transform="translate(0.07 34.455)" opacity="0.3" fill="url(#linear-gradient-140)"/>
      <path id="Path_42439" data-name="Path 42439" d="M7.7,56.479c42.961,128.467,80.023,239.3,181.145,284.9,121.943,54.9,322.243,7.7,649.345-153.313,338.484-166.431,605.412-198.148,793.289-94.042,41.642,23.042,75.512,51.289,103.551,81.064v-9.508a430.245,430.245,0,0,0-100.5-77.524c-189.82-105.355-458.553-73.638-798.98,93.9C514.563,339.856,309.682,388.438,191.348,335.136,92.725,290.648,56.079,181.129,13.674,54.189,9.3,41.141,4.581,27.469,0,14V33.854C2.5,41.349,5.276,49.192,7.7,56.479Z" transform="translate(0.069 49.292)" opacity="0.3" fill="url(#linear-gradient-141)"/>
      <path id="Path_42440" data-name="Path 42440" d="M1.249,45.74C40.81,174.692,74.956,286.085,174.065,332.378c120.208,56.425,321.411,8.745,652.329-154.215C1171.958,8.123,1443.259-24.5,1632.871,81.621c41.087,22.9,74.54,50.943,102.232,80.509v-9.578a428.645,428.645,0,0,0-99.248-76.9c-191.347-107.09-464.661-74.679-812.1,96.4C498.946,331.823,293.232,380.614,176.495,326.2,80.023,281.088,46.362,171.014,7.287,43.588,5,36.023,2.36,27.972,0,20.268V41.714C.416,43.033.833,44.352,1.249,45.74Z" transform="translate(0.07 61.35)" opacity="0.3" fill="url(#linear-gradient-142)"/>
      <path id="Path_42441" data-name="Path 42441" d="M159,336.635c118.542,57.605,320.855,9.786,655.522-154.979C1167.169,8.077,1442.981-25.307,1634.19,82.478A420.683,420.683,0,0,1,1735.1,162.431v-9.647a429.86,429.86,0,0,0-97.86-76.344C1444.23-32.386,1166.475.928,811.889,175.409,483.538,337.121,276.922,386.328,161.573,330.458,67.114,284.651,36.229,174.021.555,45.9.347,45.347.139,44.652,0,44.167V67.625C34.008,188.735,66.836,292.008,159,336.635Z" transform="translate(0.07 60.147)" opacity="0.3" fill="url(#linear-gradient-143)"/>
      <path id="Path_42442" data-name="Path 42442" d="M143.944,340.947c117.154,58.716,320.3,10.619,658.784-155.881C1162.38,7.878,1442.565-26.269,1635.369,83.389c40.046,22.764,72.6,50.318,99.734,79.329v-9.647a427.124,427.124,0,0,0-96.68-75.65c-194.47-110.769-476.667-76.691-838.4,101.4-332.029,163.446-539.756,213-653.37,156.02C60.312,291.462,30.052,191.66,0,74.02V99.491C28.733,208.525,61.006,299.375,143.944,340.947Z" transform="translate(0.07 58.888)" opacity="0.3" fill="url(#linear-gradient-144)"/>
      <path id="Path_42443" data-name="Path 42443" d="M128.953,345.4c115.419,59.9,319.675,11.59,661.838-156.922C1157.591,7.823,1442.148-27.3,1636.549,84.236c39.56,22.7,71.764,50.04,98.554,78.773v-9.647a420.485,420.485,0,0,0-95.431-75.1C1443.536-34.375,1156.967.743,788.223,182.234,452.515,347.624,243.955,397.595,131.66,339.226,55.107,299.527,25.055,213.6,0,110.124v26.3C24.5,230.54,56.148,307.647,128.953,345.4Z" transform="translate(0.07 57.625)" opacity="0.3" fill="url(#linear-gradient-145)"/>
      <path id="Path_42444" data-name="Path 42444" d="M113.962,349.764c114.1,61.006,319.259,12.493,665.169-157.894C1153.08,7.81,1442.01-28.141,1637.8,85.057a414.135,414.135,0,0,1,97.374,78.288v-9.717a419.334,419.334,0,0,0-94.251-74.54c-197.732-114.378-488.536-78.5-864.428,106.6C437.038,352.817,227.368,403,116.668,343.656,51.22,308.538,21.585,238.37,0,151.962v24.361C21.585,253.917,52.122,316.658,113.962,349.764Z" transform="translate(0 56.458)" opacity="0.3" fill="url(#linear-gradient-146)"/>
      <path id="Path_42445" data-name="Path 42445" d="M98.693,354.277c112.782,62.464,318.843,13.256,668.57-158.935C1148.153,7.674,1441.454-29.11,1638.909,85.961a412.959,412.959,0,0,1,96.194,77.8v-9.855a422.669,422.669,0,0,0-93.071-73.985C1442.773-36.259,1147.6.525,764.556,189.1c-343,169-553.567,219.525-662.948,159.074C47.681,318.326,19.294,263.7,0,195.55v21.168C19.572,277.378,47.958,326.307,98.693,354.277Z" transform="translate(0.07 55.136)" opacity="0.3" fill="url(#linear-gradient-147)"/>
      <path id="Path_42446" data-name="Path 42446" d="M83.563,358.759c111.394,63.5,318.565,14.02,671.971-160.045C1143.5,7.575,1441.038-30.111,1640.02,86.764a411.357,411.357,0,0,1,95.153,77.247v-9.855a421.406,421.406,0,0,0-92.03-73.429C1442.357-37.191,1142.878.426,752.757,192.536,406.084,363.27,194.262,414.073,86.547,352.651c-42.892-24.43-68.78-65.1-86.547-115.9V253.82C18.115,299.141,43.308,335.786,83.563,358.759Z" transform="translate(0 53.917)" opacity="0.3" fill="url(#linear-gradient-148)"/>
      <path id="Path_42447" data-name="Path 42447" d="M68.363,363.231c109.8,64.546,318.149,14.783,675.233-161.087C1138.644,7.536,1440.691-31.122,1641.061,87.35a413.731,413.731,0,0,1,94.112,76.9v-9.855a418.307,418.307,0,0,0-90.989-72.8C1442.01-38.2,1138.019.387,740.889,196.037,390.676,368.575,177.952,419.934,71.278,357.332,38.38,338.107,16.1,308.679,0,272.451v14.367C16.241,318.812,37.756,345.186,68.363,363.231Z" transform="translate(0 52.776)" opacity="0.3" fill="url(#linear-gradient-149)"/>
      <path id="Path_42448" data-name="Path 42448" d="M53.094,367.8c108.687,65.517,317.94,15.616,678.633-162.127C1133.925,7.454,1440.2-32.106,1641.963,88.31a408.971,408.971,0,0,1,93.14,76.344V154.73a417.141,417.141,0,0,0-89.948-72.388C1441.385-39.116,1133.3.306,729.09,199.5,375.2,373.838,161.364,425.544,56.217,361.97,32,347.395,14.089,326.643,0,302.144v13.6C13.742,336.707,30.954,354.474,53.094,367.8Z" transform="translate(0.07 51.469)" opacity="0.3" fill="url(#linear-gradient-150)"/>
      <path id="Path_42449" data-name="Path 42449" d="M37.825,372.493C145.193,439.12,355.557,388.733,719.79,209.116,1129.136,7.289,1439.719-33.035,1642.935,89.047a410.277,410.277,0,0,1,92.169,75.858v-9.925a413.961,413.961,0,0,0-88.976-71.833C1441.038-40.044,1128.511.21,717.222,202.869,359.791,379.086,145.055,431,41.018,366.524,24.43,356.252,11.382,342.579,0,327.241V337.86C10.827,351.116,22.764,363.123,37.825,372.493Z" transform="translate(0.07 50.177)" opacity="0.3" fill="url(#linear-gradient-151)"/>
      <path id="Path_42450" data-name="Path 42450" d="M22.556,377.049c106.188,67.669,317.524,16.8,685.435-164.557C1124.555,7.335,1439.3-33.961,1643.906,89.787a404.02,404.02,0,0,1,91.2,75.512V155.3a415.651,415.651,0,0,0-88-71.347c-206.477-125-523.307-83.771-941.745,122.5C344.591,384.406,128.536,436.737,25.749,371.358A142.1,142.1,0,0,1,0,350.051v8.537C7.079,365.181,14.089,371.705,22.556,377.049Z" transform="translate(0.07 48.952)" opacity="0.3" fill="url(#linear-gradient-152)"/>
      <path id="Path_42451" data-name="Path 42451" d="M7.149,381.737c105.078,68.571,317.524,17.42,689.044-165.806,423.5-208.7,742.694-250.9,948.616-125.343a403.281,403.281,0,0,1,90.225,74.956v-9.855a410.754,410.754,0,0,0-86.963-70.931C1440.205-41.974,1119,.085,693.486,209.962,329.114,389.58,112.088,442.327,10.549,376.116c-3.956-2.637-6.94-6.038-10.549-9.023v8.537C2.5,377.573,4.442,380,7.149,381.737Z" transform="translate(0.139 47.665)" opacity="0.3" fill="url(#linear-gradient-153)"/>
      <path id="Path_42452" data-name="Path 42452" d="M684.255,219.6C1114.908,7.292,1438.262-35.808,1645.641,91.41a407.538,407.538,0,0,1,89.392,74.679v-9.925A409.647,409.647,0,0,0,1648.9,85.58C1439.719-42.956,1114.353.144,681.687,213.422,318.842,392.206,102.163,446.064,0,382.976v7.287C105.355,451.547,322.729,397.759,684.255,219.6Z" transform="translate(0.139 46.287)" opacity="0.3" fill="url(#linear-gradient-154)"/>
      <path id="Path_42453" data-name="Path 42453" d="M672.456,223.077c437.732-215.846,765.389-259.918,974.087-130.9a405.809,405.809,0,0,1,88.56,74.193v-9.716a409.171,409.171,0,0,0-85.3-70.306C1439.3-43.92,1109.564.152,669.889,216.9,320.3,389.23,106.813,445.447,0,394.852v7.426C109.658,451.555,324.117,394.921,672.456,223.077Z" transform="translate(0.07 44.961)" opacity="0.3" fill="url(#linear-gradient-155)"/>
      <path id="Path_42454" data-name="Path 42454" d="M660.727,226.626C1105.4,7.24,1437.429-37.8,1647.376,92.884a401.653,401.653,0,0,1,87.8,73.915v-9.716a410.335,410.335,0,0,0-84.465-69.959C1438.817-44.882,1104.914.091,658.021,220.38,322.243,386.116,111.185,445.873,0,407.146v7.426C113.823,452.258,326.061,391.6,660.727,226.626Z" transform="translate(0 43.633)" opacity="0.3" fill="url(#linear-gradient-156)"/>
    </g>
  </g>
</svg>
