<svg xmlns="http://www.w3.org/2000/svg" width="23.611" height="22.518" viewBox="0 0 23.611 22.518">
  <path id="Path_141" data-name="Path 141" d="M11.885.514l2.7,5.417a.925.925,0,0,0,.7.509l6.034.872a.929.929,0,0,1,.614.357.9.9,0,0,1-.1,1.2L17.455,13.1a.885.885,0,0,0-.263.81l1.053,5.967a.915.915,0,0,1-.758,1.038,1,1,0,0,1-.6-.093L11.506,18.01a.906.906,0,0,0-.863,0L5.23,20.843a.944.944,0,0,1-1.253-.384.922.922,0,0,1-.095-.581l1.053-5.967a.915.915,0,0,0-.263-.81L.27,8.868a.914.914,0,0,1,0-1.3A1.059,1.059,0,0,1,.8,7.311L6.83,6.439a.947.947,0,0,0,.695-.509l2.7-5.417a.912.912,0,0,1,.532-.466.928.928,0,0,1,.71.051A.951.951,0,0,1,11.885.514Z" transform="translate(0.75 0.755)" fill="none" stroke="#200e32" stroke-linecap="round" stroke-linejoin="round" stroke-width="1.5"/>
</svg>
