<svg xmlns="http://www.w3.org/2000/svg" xmlns:xlink="http://www.w3.org/1999/xlink" width="884" height="90" viewBox="0 0 884 90">
  <defs>
    <clipPath id="clip-path">
      <rect id="Rectangle_19505" data-name="Rectangle 19505" width="884" height="90" transform="translate(10400.999 -4801.87)" fill="none"/>
    </clipPath>
  </defs>
  <g id="Mask_Group_102" data-name="Mask Group 102" transform="translate(-10400.999 4801.87)" clip-path="url(#clip-path)">
    <path id="Ellipse" d="M681,0C792.327,0,897.415,23.782,990.3,65.994,1210.89,166.242,1362,370.539,1362,606.257c0,334.827-272.767,106.777-648.873,106.777S0,941.084,0,606.257,304.894,0,681,0Z" transform="translate(10169.299 -4801.87)" fill="none" stroke="#f7f8fc" stroke-linecap="round" stroke-width="3" stroke-dasharray="0 0" opacity="0.4"/>
    <g id="Ellipse-2" data-name="Ellipse" transform="translate(10246.299 -4740.87)" fill="none" opacity="0.5">
      <path d="M604,0c333.58,0,604,248.232,604,554.441S937.58,668.147,604,668.147,0,860.65,0,554.441,270.42,0,604,0Z" stroke="none"/>
      <path d="M 604 2.99993896484375 C 583.4898681640625 2.99993896484375 562.8058471679688 3.95867919921875 542.52294921875 5.8494873046875 C 522.5346069335938 7.71282958984375 502.4500122070312 10.5267333984375 482.8267822265625 14.21270751953125 C 463.4583129882812 17.850830078125 444.0741577148438 22.42596435546875 425.2124633789062 27.8111572265625 C 406.562744140625 33.13592529296875 387.98046875 39.3790283203125 369.981689453125 46.3671875 C 352.150146484375 53.29052734375 334.4713745117188 61.10809326171875 317.4364624023438 69.60272216796875 C 300.5235595703125 78.036376953125 283.8499755859375 87.334716796875 267.87890625 97.23919677734375 C 251.9860229492188 107.0953369140625 236.4193725585938 117.7807006835938 221.6113891601562 128.99853515625 C 206.8407592773438 140.1881103515625 192.4827880859375 152.1668701171875 178.9361572265625 164.6019287109375 C 165.3907470703125 177.0359497070312 152.3428955078125 190.214111328125 140.1552734375 203.7705688476562 C 127.9385986328125 217.3590087890625 116.302490234375 231.6430053710938 105.56982421875 246.2257690429688 C 94.7862548828125 260.8779296875 84.6629638671875 276.174072265625 75.4814453125 291.6891479492188 C 66.2347412109375 307.3137817382812 57.7255859375 323.5283813476562 50.18994140625 339.8826904296875 C 42.584716796875 356.3880920410156 35.7904052734375 373.4281005859375 29.9959716796875 390.5296325683594 C 24.1361083984375 407.8236389160156 19.1578369140625 425.5962524414062 15.19921875 443.354248046875 C 11.18896484375 461.3443908691406 8.1275634765625 479.7574768066406 6.10009765625 498.0820922851562 C 4.0430908203125 516.67626953125 3 535.6380615234375 3 554.4405517578125 C 3 571.0653076171875 3.818115234375 586.5616455078125 5.431884765625 600.4989013671875 C 7.012939453125 614.1559448242188 9.4095458984375 626.7605590820312 12.5548095703125 637.9627075195312 C 15.62158203125 648.885009765625 19.5018310546875 658.8348388671875 24.087646484375 667.5354614257812 C 28.5394287109375 675.9813232421875 33.809326171875 683.5394897460938 39.7513427734375 689.9999389648438 C 42.65625 693.1583862304688 45.79150390625 696.13134765625 49.0697021484375 698.8360595703125 C 52.2972412109375 701.4990234375 55.76123046875 703.9828491210938 59.365478515625 706.2183837890625 C 66.3936767578125 710.57763671875 74.3037109375 714.2044067382812 82.8758544921875 716.9979248046875 C 91.1361083984375 719.68994140625 100.33251953125 721.7120971679688 110.209228515625 723.0084228515625 C 119.6229248046875 724.2440795898438 130.046875 724.8705444335938 141.19140625 724.8705444335938 C 152.7454833984375 724.8705444335938 165.127685546875 724.2299194335938 179.0450439453125 722.912109375 C 191.5975341796875 721.7235107421875 205.21630859375 719.9974975585938 220.6796875 717.6353149414062 C 249.6528930664062 713.2095947265625 280.94140625 707.17578125 314.06689453125 700.7877807617188 C 400.6956787109375 684.0820922851562 498.8827514648438 665.1473388671875 604 665.1473388671875 C 709.1312255859375 665.1473388671875 807.3176879882812 684.0827026367188 893.9456787109375 700.7890014648438 C 927.068603515625 707.1766967773438 958.3543090820312 713.2102661132812 987.3251953125 717.6358032226562 C 1002.787353515625 719.997802734375 1016.405090332031 721.7236328125 1028.956909179688 722.9122314453125 C 1042.873413085938 724.2299194335938 1055.254760742188 724.8705444335938 1066.80859375 724.8705444335938 C 1077.949829101562 724.8705444335938 1088.371704101562 724.2437744140625 1097.784301757812 723.0078125 C 1107.659423828125 721.7108764648438 1116.854736328125 719.6881103515625 1125.11474609375 716.9954833984375 C 1133.686279296875 714.201171875 1141.596313476562 710.5736083984375 1148.624755859375 706.213623046875 C 1152.229248046875 703.9776611328125 1155.693359375 701.4934692382812 1158.921264648438 698.830078125 C 1162.19970703125 696.125 1165.335083007812 693.151611328125 1168.240478515625 689.9928588867188 C 1174.183227539062 683.5316162109375 1179.453979492188 675.97314453125 1183.906616210938 667.5269775390625 C 1188.493530273438 658.8261108398438 1192.374633789062 648.8764038085938 1195.442138671875 637.95458984375 C 1198.588500976562 626.7525634765625 1200.985717773438 614.1488647460938 1202.5673828125 600.4932861328125 C 1204.181518554688 586.5570068359375 1205 571.062744140625 1205 554.4405517578125 C 1205 535.6380615234375 1203.956909179688 516.67626953125 1201.89990234375 498.0820922851562 C 1199.872436523438 479.7574768066406 1196.81103515625 461.3443908691406 1192.80078125 443.354248046875 C 1188.842163085938 425.5962524414062 1183.863891601562 407.8236389160156 1178.004028320312 390.5296325683594 C 1172.209594726562 373.4281005859375 1165.415283203125 356.3880920410156 1157.81005859375 339.8826904296875 C 1150.2744140625 323.5283813476562 1141.765258789062 307.3137817382812 1132.5185546875 291.6891479492188 C 1123.337036132812 276.174072265625 1113.213745117188 260.8779296875 1102.43017578125 246.2257690429688 C 1091.697509765625 231.6430053710938 1080.061401367188 217.3590087890625 1067.8447265625 203.7705688476562 C 1055.657104492188 190.214111328125 1042.609252929688 177.0359497070312 1029.063842773438 164.6019287109375 C 1015.517211914062 152.1668701171875 1001.159240722656 140.1881103515625 986.3886108398438 128.99853515625 C 971.5806274414062 117.7807006835938 956.0140380859375 107.0953369140625 940.12109375 97.23919677734375 C 924.1500244140625 87.334716796875 907.4764404296875 78.036376953125 890.5635375976562 69.60272216796875 C 873.5286254882812 61.10809326171875 855.849853515625 53.29052734375 838.018310546875 46.3671875 C 820.01953125 39.3790283203125 801.437255859375 33.13592529296875 782.7875366210938 27.8111572265625 C 763.9258422851562 22.42596435546875 744.5416870117188 17.850830078125 725.1732177734375 14.21270751953125 C 705.5499877929688 10.5267333984375 685.4653930664062 7.71282958984375 665.47705078125 5.8494873046875 C 645.1941528320312 3.95867919921875 624.5101318359375 2.99993896484375 604 2.99993896484375 M 604 -6.103515625e-05 C 937.5799560546875 -6.103515625e-05 1208 248.2314453125 1208 554.4405517578125 C 1208 690.089111328125 1154.926635742188 727.8705444335938 1066.80859375 727.8705444335938 C 956.0115966796875 727.8705444335938 789.8063354492188 668.1473388671875 604 668.1473388671875 C 418.2139892578125 668.1473388671875 251.9884033203125 727.8705444335938 141.19140625 727.8705444335938 C 53.051513671875 727.8705444335938 0 690.1077880859375 0 554.4405517578125 C 0 248.2314453125 270.4199829101562 -6.103515625e-05 604 -6.103515625e-05 Z" stroke="none" fill="#f7f8fc"/>
    </g>
  </g>
</svg>
