<svg xmlns="http://www.w3.org/2000/svg" width="16.453" height="16.453" viewBox="0 0 16.453 16.453">
  <g id="Group_52097" data-name="Group 52097" transform="translate(-4 -4)">
    <path id="Path_43763" data-name="Path 43763" d="M18.4,6.742H17.025V4.686a.686.686,0,0,0-1.371,0V6.742H8.8V4.686a.686.686,0,1,0-1.371,0V6.742H6.057A2.057,2.057,0,0,0,4,8.8v9.6a2.057,2.057,0,0,0,2.057,2.057H18.4A2.057,2.057,0,0,0,20.453,18.4V8.8A2.057,2.057,0,0,0,18.4,6.742ZM5.371,8.8a.686.686,0,0,1,.686-.686H18.4a.686.686,0,0,1,.686.686v.686H5.371Zm13.711,9.6a.686.686,0,0,1-.686.686H6.057a.686.686,0,0,1-.686-.686V10.855H19.082Z"/>
    <path id="Path_43764" data-name="Path 43764" d="M8.686,17.371h1.371a.686.686,0,1,0,0-1.371H8.686a.686.686,0,1,0,0,1.371Zm0,4.113h1.371a.686.686,0,1,0,0-1.371H8.686a.686.686,0,1,0,0,1.371ZM12.8,17.371H14.17a.686.686,0,1,0,0-1.371H12.8a.686.686,0,1,0,0,1.371Zm0,4.113H14.17a.686.686,0,1,0,0-1.371H12.8a.686.686,0,1,0,0,1.371Zm4.113,0h1.371a.686.686,0,1,0,0-1.371H16.912a.686.686,0,1,0,0,1.371Zm0-4.113h1.371a.686.686,0,1,0,0-1.371H16.912a.686.686,0,1,0,0,1.371Z" transform="translate(-1.258 -3.774)"/>
  </g>
</svg>
