<svg xmlns="http://www.w3.org/2000/svg" width="73" height="73" viewBox="0 0 73 73">
  <g id="Group_51588" data-name="Group 51588" transform="translate(-1353 -659)">
    <circle id="Ellipse_1713" data-name="Ellipse 1713" cx="36.5" cy="36.5" r="36.5" transform="translate(1353 659)" fill="#fedadc"/>
    <path id="Path_42236" data-name="Path 42236" d="M28.311,21.313a4.684,4.684,0,0,0-6.322-.334,11.227,11.227,0,0,0-1.054.99A22.318,22.318,0,0,1,16.687,18.5a22.367,22.367,0,0,1-3.468-4.257,11.359,11.359,0,0,0,.99-1.054,4.68,4.68,0,0,0-.334-6.322L12.018,5.02A4.68,4.68,0,0,0,8.059,3.676,4.777,4.777,0,0,0,4.522,6.065a13.767,13.767,0,0,0-.769,1.558,8.1,8.1,0,0,0,.513,7.095,45.35,45.35,0,0,0,7.06,9.138,45.412,45.412,0,0,0,9.142,7.063,8.234,8.234,0,0,0,4.1,1.1,7.8,7.8,0,0,0,2.989-.588,13.853,13.853,0,0,0,1.558-.768,4.785,4.785,0,0,0,2.386-3.539,4.679,4.679,0,0,0-1.335-3.957ZM29.3,26.83a2.566,2.566,0,0,1-1.281,1.9,11.281,11.281,0,0,1-1.3.644,5.844,5.844,0,0,1-5.13-.384,43.114,43.114,0,0,1-8.68-6.709A43.049,43.049,0,0,1,6.2,13.6,5.853,5.853,0,0,1,5.81,8.472a11.263,11.263,0,0,1,.644-1.3,2.573,2.573,0,0,1,1.9-1.285,2.433,2.433,0,0,1,.334-.023,2.474,2.474,0,0,1,1.755.731L12.3,8.448a2.5,2.5,0,0,1,.2,3.328,8.477,8.477,0,0,1-1.346,1.313,1.113,1.113,0,0,0-.366,1.272c.085.223.922,2.3,4.329,5.711s5.484,4.243,5.71,4.329a1.113,1.113,0,0,0,1.274-.367,8.269,8.269,0,0,1,1.311-1.345,2.5,2.5,0,0,1,3.329.2l1.855,1.855A2.469,2.469,0,0,1,29.3,26.83Zm2.252-12.307a1.113,1.113,0,0,1-1.091.9,1.169,1.169,0,0,1-.215-.02,1.113,1.113,0,0,1-.879-1.306,7.524,7.524,0,0,0-8.8-8.8,1.113,1.113,0,1,1-.427-2.184A9.751,9.751,0,0,1,31.552,14.523Zm-7.626-1.431a2.019,2.019,0,0,0-2.361-2.361,1.113,1.113,0,1,1-.393-2.19,4.243,4.243,0,0,1,4.944,4.944,1.113,1.113,0,0,1-1.094.916,1.189,1.189,0,0,1-.2-.017A1.113,1.113,0,0,1,23.925,13.092Z" transform="translate(1371.832 678.069)" fill="#ea414a"/>
  </g>
</svg>
