<svg xmlns="http://www.w3.org/2000/svg" width="20" height="20.01" viewBox="0 0 20 20.01" fill="#fff">
  <path id="Path_257" data-name="Path 257" d="M19.567,12.938c-.2-.037-.394-.08-.589-.127a10.71,10.71,0,0,1-1.21-.374,2.014,2.014,0,0,0-2.494.946l-.751,1.442a14.126,14.126,0,0,1-3.03-2.312,14.185,14.185,0,0,1-2.3-3.038l1.434-.746a2.014,2.014,0,0,0,.947-2.494A10.625,10.625,0,0,1,11.2,5.023q-.072-.293-.126-.59A3,3,0,0,0,8.11,2H5.034a3.037,3.037,0,0,0-2.3,1.059,3,3,0,0,0-.7,2.406,19.818,19.818,0,0,0,16.5,16.511,2.988,2.988,0,0,0,2.407-.7A3.038,3.038,0,0,0,22,18.975V15.9A3,3,0,0,0,19.567,12.938ZM21,18.975a2.039,2.039,0,0,1-.712,1.547,2.008,2.008,0,0,1-1.6.466A18.81,18.81,0,0,1,3.023,5.316a2,2,0,0,1,.465-1.605A2.035,2.035,0,0,1,5.034,3H8.11a2,2,0,0,1,1.976,1.615c.04.216.086.432.138.646a11.73,11.73,0,0,0,.41,1.326,1.014,1.014,0,0,1-.473,1.256l-1.884.98a.5.5,0,0,0-.213.674,15.139,15.139,0,0,0,2.721,3.722A15.112,15.112,0,0,0,14.5,15.951a.512.512,0,0,0,.382.033.5.5,0,0,0,.293-.245l.986-1.895a1.014,1.014,0,0,1,1.255-.473,11.483,11.483,0,0,0,1.325.409c.212.053.426.1.643.139A2,2,0,0,1,21,15.9Z" transform="translate(-2 -2)"/>
</svg>
