<svg xmlns="http://www.w3.org/2000/svg" width="24" height="24" viewBox="0 0 24 24">
  <path id="Path_142" data-name="Path 142" d="M25.4,20H7.4a1.8,1.8,0,1,1,0-3.6H20.557a3.309,3.309,0,0,0,3.219-2.5l2.205-8.755A.6.6,0,0,0,25.4,4.4H7.269l-.032-.128A3,3,0,0,0,4.326,2H2.6a.6.6,0,0,0,0,1.2H4.326A1.8,1.8,0,0,1,6.072,4.563L8.731,15.2H7.4a3,3,0,0,0,0,6H8.615a3,3,0,1,0,4.77,0h4.83a3,3,0,1,0,4.77,0H25.4a.6.6,0,1,0,0-1.2ZM7.57,5.6H24.63l-2.018,8.009A2.11,2.11,0,0,1,20.557,15.2H9.988ZM11,24.8A1.8,1.8,0,1,1,12.8,23,1.8,1.8,0,0,1,11,24.8Zm9.6,0A1.8,1.8,0,1,1,22.4,23,1.8,1.8,0,0,1,20.6,24.8Z" transform="translate(-2 -2)"/>
</svg>
