<svg xmlns="http://www.w3.org/2000/svg" width="16.219" height="16.219" viewBox="0 0 16.219 16.219">
  <path id="Path_43894" data-name="Path 43894" d="M8.376.264a8.109,8.109,0,1,0,8.106,8.107A8.123,8.123,0,0,0,8.376.264Zm0,1.474A6.637,6.637,0,1,1,1.738,8.371,6.621,6.621,0,0,1,8.376,1.738ZM8.365,3.2a.737.737,0,0,0-.73.752V8.371a.737.737,0,0,0,.219.521L10.8,11.842A.737.737,0,1,0,11.841,10.8L9.111,8.066V3.953A.737.737,0,0,0,8.365,3.2Z" transform="translate(-0.264 -0.264)" fill="#707070" fill-rule="evenodd"/>
</svg>
