<svg xmlns="http://www.w3.org/2000/svg" width="16.9" height="15.238" viewBox="0 0 16.9 15.238">
  <path id="Path_44005" data-name="Path 44005" d="M16.618,6.906,13.374,4.2a.586.586,0,0,0-.75.9l3.248,2.706a.976.976,0,0,1,0,1.5c-1.376,1.15-3.248,2.708-3.248,2.708a.585.585,0,0,0,.75.9s1.868-1.558,3.244-2.7a2.142,2.142,0,0,0,0-3.3ZM5.267,5.1a.586.586,0,0,0-.75-.9L1.272,6.906a2.142,2.142,0,0,0,0,3.3c1.376,1.146,3.244,2.7,3.244,2.7a.585.585,0,0,0,.75-.9S3.393,10.456,2.017,9.306a.976.976,0,0,1,0-1.5C3.4,6.657,5.267,5.1,5.267,5.1Zm5.465-3.762L6.043,15.4a.587.587,0,0,0,1.114.371L11.845,1.71a.587.587,0,1,0-1.114-.371Z" transform="translate(-0.494 -0.937)"/>
</svg>
