<svg xmlns="http://www.w3.org/2000/svg" xmlns:xlink="http://www.w3.org/1999/xlink" width="64" height="75" viewBox="0 0 64 75">
  <defs>
    <clipPath id="clip-path">
      <rect id="Rectangle_20831" data-name="Rectangle 20831" width="64" height="75" transform="translate(166 666.643)" fill="#fff" stroke="#707070" stroke-width="1"/>
    </clipPath>
  </defs>
  <g id="Mask_Group_4" data-name="Mask Group 4" transform="translate(-166 -666.643)" clip-path="url(#clip-path)">
    <g id="Group_54559" data-name="Group 54559" transform="translate(152.286 660.143)">
      <path id="Polygon_5" data-name="Polygon 5" d="M51.422,0a3,3,0,0,1,2.59,1.485l15.96,27.286a3,3,0,0,1,0,3.029L54.012,59.086a3,3,0,0,1-2.59,1.485H19.435a3,3,0,0,1-2.59-1.485L.886,31.8a3,3,0,0,1,0-3.029L16.846,1.485A3,3,0,0,1,19.435,0Z" transform="translate(30.286 0) rotate(30)" fill="#ffa199"/>
      <g id="Group_54584" data-name="Group 54584" transform="translate(26.759 25.254)">
        <g id="Group_54583" data-name="Group 54583" transform="translate(1.28 4.901)">
          <path id="Path_44625" data-name="Path 44625" d="M30.4,17.155V40.092a2.686,2.686,0,0,1-2.685,2.685H4.465A2.686,2.686,0,0,1,1.78,40.092V17.155A2.686,2.686,0,0,1,4.465,14.47H27.711A2.686,2.686,0,0,1,30.4,17.155Z" transform="translate(-1.632 -14.322)" fill="#ff444a"/>
          <path id="Path_44626" data-name="Path 44626" d="M34.394,14.47H11.145A2.686,2.686,0,0,0,8.46,17.155V40.092a2.678,2.678,0,0,0,1.057,2.132L36.384,15.358A2.674,2.674,0,0,0,34.394,14.47Z" transform="translate(-6.328 -14.322)" fill="#ff7d83"/>
          <path id="Path_44627" data-name="Path 44627" d="M12.02,44.327a2.676,2.676,0,0,0,1.627.552H36.894a2.686,2.686,0,0,0,2.685-2.685V19.257a2.667,2.667,0,0,0-.695-1.8Z" transform="translate(-8.831 -16.424)" fill="#ff5671"/>
          <path id="Path_44629" data-name="Path 44629" d="M17.5,50.809V32.94a1.332,1.332,0,0,1,1.33-1.33l20.586,0a1.332,1.332,0,0,1,1.33,1.33V50.809a1.332,1.332,0,0,1-1.33,1.33H18.833A1.329,1.329,0,0,1,17.5,50.809Z" transform="translate(-12.683 -26.372)" fill="#fff"/>
          <path id="Path_44630" data-name="Path 44630" d="M39.426,31.613h-.021V52.142h.021a1.332,1.332,0,0,0,1.33-1.33V32.946A1.333,1.333,0,0,0,39.426,31.613Zm-20.194,0H18.84a1.332,1.332,0,0,0-1.33,1.33V50.809a1.332,1.332,0,0,0,1.33,1.33h.392Z" transform="translate(-12.69 -26.372)" fill="#feacc2"/>
          <g id="Group_54570" data-name="Group 54570" transform="translate(3.555 1.918)">
            <path id="Path_44632" data-name="Path 44632" d="M15.067,21.339a.909.909,0,1,1-.909-.909A.9.9,0,0,1,15.067,21.339Zm3.388,0a.909.909,0,1,1-.909-.909A.9.9,0,0,1,18.456,21.339Zm3.385,0a.909.909,0,1,1-.909-.909A.9.9,0,0,1,21.841,21.339Z" transform="translate(-13.25 -20.43)" fill="#ff5671"/>
            <g id="Group_54569" data-name="Group 54569" transform="translate(11.216 0.187)">
              <path id="Path_44633" data-name="Path 44633" d="M64.455,21.779h0a.717.717,0,0,1-.719.719h-12a.717.717,0,0,1-.719-.719h0a.717.717,0,0,1,.719-.719h12A.719.719,0,0,1,64.455,21.779Z" transform="translate(-51.02 -21.06)" fill="#ff5671"/>
            </g>
          </g>
          <g id="Group_54575" data-name="Group 54575" transform="translate(4.003 1.806)">
            <path id="Path_44634" data-name="Path 44634" d="M16.957,21.339a.909.909,0,1,1-.909-.909A.9.9,0,0,1,16.957,21.339Z" transform="translate(-15.027 -20.317)" fill="#fff"/>
            <path id="Path_44635" data-name="Path 44635" d="M15.782,22.087A1.019,1.019,0,1,1,16.8,21.072,1.02,1.02,0,0,1,15.782,22.087Zm0-1.811a.8.8,0,1,0,.8.8A.8.8,0,0,0,15.782,20.276Z" transform="translate(-14.76 -20.05)"/>
            <path id="Path_44636" data-name="Path 44636" d="M28.367,21.339a.909.909,0,1,1-.909-.909A.9.9,0,0,1,28.367,21.339Z" transform="translate(-23.049 -20.317)" fill="#fff"/>
            <path id="Path_44637" data-name="Path 44637" d="M27.192,22.087a1.019,1.019,0,1,1,1.022-1.016A1.02,1.02,0,0,1,27.192,22.087Zm0-1.811a.8.8,0,1,0,.8.8A.8.8,0,0,0,27.192,20.276Z" transform="translate(-22.782 -20.05)"/>
            <g id="Group_54571" data-name="Group 54571" transform="translate(6.774)">
              <path id="Path_44638" data-name="Path 44638" d="M39.777,21.339a.909.909,0,1,1-.909-.909A.9.9,0,0,1,39.777,21.339Z" transform="translate(-37.844 -20.317)" fill="#fff"/>
              <path id="Path_44639" data-name="Path 44639" d="M38.592,22.087a1.019,1.019,0,1,1,1.022-1.016A1.02,1.02,0,0,1,38.592,22.087Zm0-1.811a.8.8,0,1,0,.8.8A.8.8,0,0,0,38.592,20.276Z" transform="translate(-37.57 -20.05)"/>
            </g>
            <g id="Group_54572" data-name="Group 54572" transform="translate(11.329 0.3)">
              <path id="Path_44640" data-name="Path 44640" d="M66.345,21.779h0a.717.717,0,0,1-.719.719h-12a.717.717,0,0,1-.719-.719h0a.717.717,0,0,1,.719-.719h12A.717.717,0,0,1,66.345,21.779Z" transform="translate(-52.91 -21.06)" fill="#fff"/>
            </g>
            <g id="Group_54573" data-name="Group 54573" transform="translate(11.374 0.3)">
              <path id="Path_44641" data-name="Path 44641" d="M66.406,21.535a.718.718,0,0,0-.674-.475h-12a.718.718,0,0,0-.674.475Z" transform="translate(-53.06 -21.06)" fill="#ff7d83"/>
            </g>
            <g id="Group_54574" data-name="Group 54574" transform="translate(11.181 0.151)">
              <path id="Path_44642" data-name="Path 44642" d="M65.275,22.294h-12a.867.867,0,0,1,0-1.734h12a.867.867,0,0,1,0,1.734Zm-12-1.437a.57.57,0,0,0,0,1.14h12a.57.57,0,0,0,0-1.14Z" transform="translate(-52.41 -20.56)"/>
            </g>
          </g>
          <g id="Group_54577" data-name="Group 54577" transform="translate(6.772 8.003)">
            <path id="Path_44643" data-name="Path 44643" d="M41.346,48.016l-1.028.564v4.143c0,4.535-14.486,4.535-14.486,0v-4.14l-1.03-.567a1.382,1.382,0,0,1,0-2.423l6.97-3.834a2.7,2.7,0,0,1,2.6,0l6.967,3.834A1.383,1.383,0,0,1,41.346,48.016Z" transform="translate(-24.085 -41.274)" fill="#015ed4"/>
            <path id="Path_44644" data-name="Path 44644" d="M30.98,74.97a.139.139,0,0,1-.08-.024,2.658,2.658,0,0,1-1.44-2.218v-2.7a.148.148,0,0,1,.3,0v2.7a2.345,2.345,0,0,0,1.3,1.966.152.152,0,0,1,.048.2A.143.143,0,0,1,30.98,74.97Z" transform="translate(-27.864 -61.279)"/>
            <path id="Path_44645" data-name="Path 44645" d="M48.466,61.11v5.455c0,4.535-14.486,4.535-14.486,0V61.11Z" transform="translate(-31.042 -55.114)" fill="#fff"/>
            <path id="Path_44646" data-name="Path 44646" d="M48.473,61.11v2.135l-5.939,3.267a2.7,2.7,0,0,1-2.6,0L33.99,63.245V61.11Z" transform="translate(-31.049 -55.114)" fill="#158ed8"/>
            <path id="Path_44647" data-name="Path 44647" d="M40.882,69.763a13.527,13.527,0,0,1-5.037-.861C34.3,68.26,33.49,67.33,33.49,66.214V60.758a.147.147,0,0,1,.148-.148H48.125a.147.147,0,0,1,.148.148v2.919a.148.148,0,1,1-.3,0V60.907H33.787v5.307c0,2.135,3.57,3.252,7.095,3.252s7.095-1.117,7.095-3.252v-1.69a.148.148,0,0,1,.3,0v1.69C48.27,68.652,44.439,69.763,40.882,69.763Z" transform="translate(-30.697 -54.762)"/>
            <path id="Path_44648" data-name="Path 44648" d="M45.366,48.016,38.4,51.85a2.711,2.711,0,0,1-2.607,0l-6.967-3.834a1.382,1.382,0,0,1,0-2.423l6.97-3.834a2.711,2.711,0,0,1,2.607,0l6.97,3.834A1.383,1.383,0,0,1,45.366,48.016Z" transform="translate(-26.911 -41.274)" fill="#fff"/>
            <path id="Path_44649" data-name="Path 44649" d="M45.369,51.725,38.4,55.556a2.7,2.7,0,0,1-2.6,0l-6.97-3.831a1.38,1.38,0,0,1,0-2.42l3.956-2.174a4.454,4.454,0,0,0,3.816,1.96A4.328,4.328,0,0,0,40.633,46.7l4.74,2.6A1.385,1.385,0,0,1,45.369,51.725Z" transform="translate(-26.911 -44.983)" fill="#158ed8"/>
            <path id="Path_44650" data-name="Path 44650" d="M36.748,51.977a2.842,2.842,0,0,1-1.375-.356L28.4,47.79a1.533,1.533,0,0,1,0-2.685l6.97-3.834a2.846,2.846,0,0,1,2.75,0l1.051.576a.149.149,0,1,1-.143.261l-1.054-.573a2.538,2.538,0,0,0-2.462,0l-6.97,3.831a1.234,1.234,0,0,0,0,2.162l6.97,3.834a2.538,2.538,0,0,0,2.462,0l6.97-3.834a1.234,1.234,0,0,0,0-2.162l-4.894-2.691a.149.149,0,0,1,.143-.261l4.894,2.691a1.533,1.533,0,0,1,0,2.685l-6.97,3.834A2.852,2.852,0,0,1,36.748,51.977Z" transform="translate(-26.563 -40.917)"/>
            <path id="Path_44651" data-name="Path 44651" d="M63.187,64.56a.147.147,0,0,1-.148-.148V61.573l-5.1-3.136a.149.149,0,1,1,.157-.252l5.167,3.181a.147.147,0,0,1,.071.128v2.922A.151.151,0,0,1,63.187,64.56Z" transform="translate(-47.838 -53.04)"/>
            <path id="Path_44652" data-name="Path 44652" d="M54.721,57.914c0,.478-.638.864-1.425.864s-1.425-.386-1.425-.864.638-.864,1.425-.864S54.721,57.436,54.721,57.914Z" transform="translate(-43.619 -52.259)" fill="#158ed8"/>
            <path id="Path_44653" data-name="Path 44653" d="M56.421,57.364c0,.478-.638.864-1.425.864s-1.425-.386-1.425-.864S54.208,56.5,55,56.5,56.421,56.886,56.421,57.364Z" transform="translate(-44.814 -51.873)" fill="#2abddc"/>
            <path id="Path_44654" data-name="Path 44654" d="M54.738,58.071c-.861,0-1.538-.428-1.538-.977s.674-.974,1.538-.974,1.535.428,1.535.974S55.6,58.071,54.738,58.071Zm0-1.728c-.713,0-1.316.344-1.316.751s.6.754,1.316.754,1.313-.344,1.313-.754S55.448,56.343,54.738,56.343Z" transform="translate(-44.554 -51.605)"/>
            <g id="Group_54576" data-name="Group 54576" transform="translate(14.645 10.739)">
              <path id="Path_44655" data-name="Path 44655" d="M74.954,78.047a.6.6,0,1,1-.6-.6A.6.6,0,0,1,74.954,78.047Z" transform="translate(-73.653 -77.34)" fill="#2abddc"/>
              <path id="Path_44656" data-name="Path 44656" d="M74.107,78.494a.707.707,0,1,1,.707-.707A.708.708,0,0,1,74.107,78.494Zm0-1.191a.484.484,0,1,0,.484.484A.484.484,0,0,0,74.107,77.3Z" transform="translate(-73.4 -77.08)"/>
            </g>
          </g>
          <g id="Group_54579" data-name="Group 54579" transform="translate(23.716 22.035)">
            <path id="Path_44658" data-name="Path 44658" d="M91.344,96.691l-4.582-.036a.656.656,0,0,0-.567.318L83.828,100.9a.656.656,0,0,1-1.215-.282l-.98-11.237a.655.655,0,0,1,1.042-.585l9.063,6.717A.655.655,0,0,1,91.344,96.691Z" transform="translate(-81.485 -88.516)" fill="#fff"/>
            <path id="Path_44659" data-name="Path 44659" d="M91.344,96.686l-4.582-.036a.661.661,0,0,0-.57.318l-2.364,3.92a.655.655,0,0,1-1.215-.279l-.98-11.237a.656.656,0,0,1,1.042-.588l1.111.823a3.387,3.387,0,0,0-.413,1.63A2.891,2.891,0,0,0,86.052,94.3a2.609,2.609,0,0,0,2.23-1.357L91.736,95.5A.656.656,0,0,1,91.344,96.686Z" transform="translate(-81.485 -88.51)" fill="#ffc378"/>
          </g>
        </g>
      </g>
    </g>
  </g>
</svg>
