<svg xmlns="http://www.w3.org/2000/svg" width="48.723" height="48.723" viewBox="0 0 48.723 48.723">
  <g id="Group_54709" data-name="Group 54709" transform="translate(-1332 -308)">
    <path id="Path_45885" data-name="Path 45885" d="M39.587,48.723H9.135A9.135,9.135,0,0,1,0,39.587V9.135A9.135,9.135,0,0,1,9.135,0H39.587a9.135,9.135,0,0,1,9.135,9.135V39.587A9.135,9.135,0,0,1,39.587,48.723Z" transform="translate(1332 308)" fill="#62e3d2"/>
    <path id="Path_45886" data-name="Path 45886" d="M27.112,40.258a4.965,4.965,0,1,0,4.965-4.965,4.965,4.965,0,0,0-4.965,4.965Zm7.574-2.3a.473.473,0,1,1,.669.669L31.43,42.555a.473.473,0,0,1-.669,0L28.8,40.593a.473.473,0,1,1,.669-.669L31.1,41.552l3.591-3.591Zm-8.214.414h-8A.473.473,0,0,1,18,37.9V21.866a.473.473,0,0,1,.473-.473H20.31V19.559a.473.473,0,0,1,.291-.437,9.491,9.491,0,0,1,11.476,2.017,9.492,9.492,0,0,1,11.516-2,.471.471,0,0,1,.25.416h0v1.834H45.68a.473.473,0,0,1,.473.473V37.9a.473.473,0,0,1-.473.473h-8a5.911,5.911,0,1,1-11.21,0Zm10.8-.946A5.935,5.935,0,0,0,35.8,35.666a8.546,8.546,0,0,1,7.313.326.473.473,0,0,0,.731-.4V22.339h1.364v15.09Zm-2.39-2.378a9.492,9.492,0,0,1,8.019-.209v-15A8.547,8.547,0,0,0,32.55,22.033V34.366a5.874,5.874,0,0,1,2.328.686ZM31.6,34.366V22.033a8.548,8.548,0,0,0-10.347-2.188v15a9.492,9.492,0,0,1,8.019.209,5.875,5.875,0,0,1,2.328-.686Zm-3.249,1.3a5.939,5.939,0,0,0-1.469,1.763H18.946V22.339H20.31V35.6h0a.472.472,0,0,0,.693.416,8.543,8.543,0,0,1,7.35-.345ZM23.4,27.589h6.058a.473.473,0,1,0,0-.946H23.4a.473.473,0,0,0,0,.946Zm6.058-4.034H23.4a.473.473,0,0,0,0,.946h6.058a.473.473,0,1,0,0-.946Zm11.294,0H34.694a.473.473,0,0,0,0,.946h6.058a.473.473,0,0,0,0-.946Zm0,3.087H34.694a.473.473,0,0,0,0,.946h6.058a.473.473,0,0,0,0-.946Zm0,3.087H34.694a.473.473,0,0,0,0,.946h6.058a.473.473,0,0,0,0-.946ZM23.4,30.676h6.058a.473.473,0,1,0,0-.946H23.4a.473.473,0,0,0,0,.946Z" transform="translate(1324 299.981)" fill="#4b3e2c" fill-rule="evenodd"/>
  </g>
</svg>
