<svg xmlns="http://www.w3.org/2000/svg" width="50" height="50" viewBox="0 0 50 50">
  <g id="Group_51807" data-name="Group 51807" transform="translate(-457 -225)">
    <circle id="Ellipse_1720" data-name="Ellipse 1720" cx="25" cy="25" r="25" transform="translate(457 225)" fill="#fea6a6"/>
    <path id="Path_42593" data-name="Path 42593" d="M29.419,11.092,17.256,5.479a3,3,0,0,0-2.513,0l-10.195,4.7a2,2,0,0,0,0,3.632L6,14.486v6.865a2,2,0,0,0,1.188,1.827l8,3.554a2,2,0,0,0,1.626,0l8-3.555A2,2,0,0,0,26,21.351V14.486l2-.923V18a1,1,0,0,0,2,0V12a1,1,0,0,0-.581-.908ZM24,21.35l-8,3.555L8,21.351V15.409l7.161,3.3a2,2,0,0,0,1.677,0L24,15.409ZM16,16.9,5.386,12l10.2-4.7a1,1,0,0,1,.838,0L26.614,12Z" transform="translate(465.614 233.797)" fill="#423739"/>
  </g>
</svg>
