<svg xmlns="http://www.w3.org/2000/svg" width="18.908" height="23.271" viewBox="0 0 18.908 23.271">
  <g id="Group_51710" data-name="Group 51710" transform="translate(-62 -578)">
    <rect id="Rectangle_19810" data-name="Rectangle 19810" width="6.402" height="1.067" rx="0.533" transform="translate(68.253 596.038)"/>
    <path id="Path_42476" data-name="Path 42476" d="M20.181,13.545V9.7l1.513,1.454A.738.738,0,0,0,22.726,10.1L19.454,7l-3.243,3.076a.73.73,0,1,0,1.033,1.033l1.513-1.454v3.891H10V28.09a2.182,2.182,0,0,0,2.182,2.182H26.726a2.182,2.182,0,0,0,2.182-2.182V13.545ZM27.453,28.09a.727.727,0,0,1-.727.727H12.182a.727.727,0,0,1-.727-.727V15h7.272v6.545a.727.727,0,0,0,1.454,0V15h7.272Z" transform="translate(52 571)"/>
  </g>
</svg>
