<svg xmlns="http://www.w3.org/2000/svg" width="29.074" height="20.718" viewBox="0 0 29.074 20.718">
  <g id="Group_53810" data-name="Group 53810" transform="translate(-3.935 -12)">
    <path id="Path_44825" data-name="Path 44825" d="M8.078,28.056H28.8A1.556,1.556,0,0,0,30.35,26.5V18.341l2.2-2.2a1.554,1.554,0,1,0-2.2-2.2l-.005.005v-.392A1.556,1.556,0,0,0,28.8,12H8.078a1.556,1.556,0,0,0-1.554,1.554V26.5a1.556,1.556,0,0,0,1.554,1.554ZM31.087,14.673a.518.518,0,1,1,.733.733L25.9,21.323l-.732-.732Zm-6.6,6.7.63.63-1.1.473ZM7.56,13.554a.518.518,0,0,1,.518-.518H28.8a.518.518,0,0,1,.518.518v1.428l-5.551,5.551a.516.516,0,0,0-.11.162l-1.1,2.564a.518.518,0,0,0,.68.68l2.563-1.1a.515.515,0,0,0,.162-.11l3.354-3.354V26.5a.518.518,0,0,1-.518.518H8.078A.518.518,0,0,1,7.56,26.5ZM32.422,29.092H20.509a.518.518,0,0,0-.518.518.518.518,0,0,1-.518.518H17.4a.518.518,0,0,1-.518-.518.518.518,0,0,0-.518-.518H4.453a.518.518,0,0,0-.518.518,3.111,3.111,0,0,0,3.108,3.108h22.79A3.111,3.111,0,0,0,32.94,29.61a.518.518,0,0,0-.518-.518Zm-2.59,2.59H7.042a2.075,2.075,0,0,1-2.006-1.554h10.9A1.557,1.557,0,0,0,17.4,31.164h2.072a1.557,1.557,0,0,0,1.465-1.036h10.9A2.075,2.075,0,0,1,29.832,31.682Z"/>
    <path id="Path_44826" data-name="Path 44826" d="M21.452,24.264h0l8.287-.013a.518.518,0,1,0,0-1.036h0l-8.287.013a.518.518,0,0,0,0,1.036Zm0-3.108h0l9.064-.013a.518.518,0,0,0,0-1.036h0l-9.064.013a.518.518,0,1,0,0,1.036Zm0,6.19h5.7a.518.518,0,1,0,0-1.036h-5.7a.518.518,0,0,0,0,1.036Zm7.769-1.023h-.005a.52.52,0,1,0,.005,0Zm-4.143-8.287h3.108a.518.518,0,1,0,0-1.036H25.078a.518.518,0,1,0,0,1.036Z" transform="translate(-8.194 -2.41)"/>
  </g>
</svg>
