<svg xmlns="http://www.w3.org/2000/svg" xmlns:xlink="http://www.w3.org/1999/xlink" width="1920" height="713.291" viewBox="0 0 1920 713.291">
  <defs>
    <clipPath id="clip-path">
      <rect id="Rectangle_19536" data-name="Rectangle 19536" width="250" height="79" transform="translate(0 0.431)"/>
    </clipPath>
    <clipPath id="clip-path-2">
      <rect id="Rectangle_19804" data-name="Rectangle 19804" width="1920" height="240"/>
    </clipPath>
  </defs>
  <g id="Group_51686" data-name="Group 51686" transform="translate(-4936 -5095.994)">
    <g id="Mask_Group_48273" data-name="Mask Group 48273" transform="translate(4936 5729.854)" clip-path="url(#clip-path)">
      <path id="Path_37987" data-name="Path 37987" d="M-8.428,493.281S-14.817,526.7,34.7,530.762c43.379,3.561,55.363-6.263,79.138,9.871,39.079,26.518,104.317,35.129,123.488-14.414s-34.689-95.212-127.52-88.186S-2.5,463.191-8.428,493.281Z" transform="translate(8.697 -420.113)" fill="#044783"/>
    </g>
    <g id="Group_48316" data-name="Group 48316" transform="translate(4986.13 5639.967)">
      <path id="Path_38049" data-name="Path 38049" d="M73.159,418c-.4-1.627-.8-3.264-1.193-4.893-.778-3.2-1.547-6.4-2.326-9.6a80.566,80.566,0,0,0-2.166-8.409c-.726-1.993-1.976-3.628-4.59-3.559-2.36.072-4.136,1.516-4.352,3.531a.8.8,0,0,0-.028.486q2.108,8.681,4.226,17.361,1.055,4.347,2.11,8.693c.313,1.292.428,2.786,1.541,3.784a3.942,3.942,0,0,0,2.751.909c2.538-.041,5.092-1.216,5.023-3.689A23.845,23.845,0,0,0,73.159,418Zm-1.794,5.8a4.148,4.148,0,0,1-2.607.549c-1.126-.142-1.239-1.138-1.436-1.948-.317-1.315-.635-2.631-.962-3.945-.56-2.325-1.131-4.656-1.691-6.981q-1.963-8.05-3.919-16.108a2.181,2.181,0,0,1,2.708-1.861c1.7.25,2.068,2.611,2.382,3.808,1.3,5.035,2.457,10.115,3.68,15.169q.969,3.955,1.918,7.906C71.686,421.373,72.436,423.008,71.365,423.8Z" transform="translate(-42.454 -325.434)" fill="#4c0696"/>
      <path id="Path_38050" data-name="Path 38050" d="M181.305,384.676q-.181-.532-.362-1.064l-.007-.039c-.017-.045-.026-.091-.045-.144q-3.086-9.172-6.165-18.353c-2.654-7.9-5.157-15.87-8.339-23.629-1.174-2.887-2.611-6.156-5.846-7.756a8.035,8.035,0,0,0-3.349-.848c-1.686-5.44-3.077-10.953-4.789-16.389-1.382-4.391-2.834-11.208-9.156-11.377a.315.315,0,0,0-.1-.026c-.1-.017-.206-.034-.319-.05a.2.2,0,0,0-.075-.013.169.169,0,0,0-.058-.016c-.192-.052-.391-.1-.582-.147a16.3,16.3,0,0,1-3.808-1.653,13.4,13.4,0,0,1-1.2-.8,4.148,4.148,0,0,1-.382-.294c-.183-.156-.367-.312-.534-.478-.144-.138-.28-.284-.406-.425-.069-.077-.127-.148-.186-.219-.022-.021-.132-.171-.155-.2-.088-.13-.167-.261-.247-.4-.041-.073-.073-.148-.105-.222-.026-.044-.151-.374-.069-.125a1.212,1.212,0,0,0-.428-.588,3.635,3.635,0,0,0-2.253-3.312,5.642,5.642,0,0,0-1.924-.52.84.84,0,0,0-.056-.205c-2.469-6.468-3.5-13.281-6.146-19.716a5.879,5.879,0,0,0-2.883-3.278,7.349,7.349,0,0,0-4.8-.557l-.035,0c-4.41-.1-8.4-1.868-11.971-4.038a4.4,4.4,0,0,0-2.1-2.013,6.9,6.9,0,0,0-3.076-.7c-2.808.008-5.5,1.266-8.017,2.2-5.686,2.13-11.284,4.437-16.816,6.853-7.035,3.087-13.972,6.357-20.852,9.691-.961-3.984-2.308-7.9-3.659-11.788-.337-.98-.732-2.174-2.08-2.38-1.33-.208-1.976.816-2.281,1.761-.4,1.234-.7,2.6-2.549,2.328-1.271-.185-2.365-.932-3.715-.71a.779.779,0,0,0-.67,1.09c1.945,4.731,3.769,9.495,5.654,14.243-.766.377-1.541.755-2.308,1.132a29.786,29.786,0,0,0-7.333,4.512c-1.713,1.593-3.482,3.757-2.71,6.051a.718.718,0,0,0,.091.193c1.574,5.859,3.1,11.716,4.621,17.583a.831.831,0,0,0,.036.145q4.22,16.283,8.353,32.586,3.264,12.765,6.614,25.5c1.006,3.788,1.963,7.56,2.775,11.383.68,3.209,1.461,6.768,4.031,9.292a15.147,15.147,0,0,0,4.855,3.024,25.691,25.691,0,0,0,5.84,1.771c4.009.629,8.308-.5,10.922-3.255a10.411,10.411,0,0,0,.737,1.027c4.26,5.2,12.407,5.154,18.841,3.821a18.97,18.97,0,0,0,5.3,7.516,13,13,0,0,0,7.357,2.791,34.408,34.408,0,0,0,8.671-1.135c11.067-.674,21.983-3.714,32.281-7.15q7.319-2.443,14.379-5.394c3.253-1.375,6.865-2.73,9.727-4.692a9.3,9.3,0,0,0,3.894-9.99A.65.65,0,0,0,181.305,384.676ZM146.58,308.427c1.794,1.922,2.454,4.778,3.215,7.106,1.888,5.791,3.349,11.681,5.15,17.493h-.009a7.2,7.2,0,0,0-.8.169.922.922,0,0,0-.427-.1,11.785,11.785,0,0,1-1.481-.092q-.307-.04-.619-.1c-.038-.01-.152-.034-.18-.038-.124-.03-.249-.068-.373-.1a13,13,0,0,1-1.264-.439c-.109-.048-.219-.1-.337-.15-.01-.006-.01-.006-.019-.005a.368.368,0,0,0-.1-.049c-.2-.106-.393-.206-.585-.313-.356-.2-.7-.423-1.032-.661-.157-.112-.305-.226-.456-.347a.559.559,0,0,1-.107-.088c-.075-.061-.162-.135-.238-.2s-.179-.18-.269-.27a.838.838,0,0,0,.15-.369,3.81,3.81,0,0,0-2.381-3.9,8.543,8.543,0,0,0-6.023-.171c-4.643,1.232-9.164,2.983-13.618,4.647-9.169,3.443-18.111,7.32-26.9,11.452-3.287,1.539-6.536,3.127-9.773,4.738q-1.781-6.189-3.551-12.373c11.482-6.157,22.717-12.658,34.549-18.3a171.194,171.194,0,0,1,18.886-7.8C140.748,307.233,144.333,306.031,146.58,308.427Zm-38.05,39.821q-5.513,2.4-10.982,4.884a.766.766,0,0,0-.385.371,16.753,16.753,0,0,1-2.758-.553q19.343-8.834,39.238-16.7,5.766-2.283,11.587-4.471a12.324,12.324,0,0,0,1.372,1.072q-15.616,5.854-30.9,12.341c-.01-.006-.01-.006-.019-.005a1.013,1.013,0,0,0-.884.377l-.007.009C112.7,346.466,110.607,347.346,108.53,348.248Zm2.919,2.056q-4.246,1.808-8.525,3.581c-.009,0-.009,0-.016.01a.91.91,0,0,0-.8-.315c-.59.052-1.2.083-1.829.091q4.315-1.949,8.656-3.853a.464.464,0,0,0,.091,0A4.734,4.734,0,0,1,111.45,350.3Zm-9.629,17.171c.4.98.792,1.96,1.193,2.94a15.359,15.359,0,0,1-13.785-.256.334.334,0,0,0-.1-.041c-.364-.929-.73-1.866-1.093-2.8A17.525,17.525,0,0,0,101.82,367.474Zm-14.288-2.707a1.142,1.142,0,0,0-.588-.178c-.953-2.333-1.914-4.664-2.709-7.027-.6-1.813-1.09-4-.252-5.745a8.623,8.623,0,0,0,4.667,4.7,19.417,19.417,0,0,0,5.1,1.574,11.211,11.211,0,0,0,4.178-.17q1.564,3.86,3.135,7.7A14.827,14.827,0,0,1,87.532,364.767Zm10.628-8.93h-.009c-2.831.913-5.755.147-8.356-.981-2.169-.952-3.89-2.773-3.869-4.9l1.4-.7c0,.023,0,.048,0,.071,1.814,4.37,7.356,5.811,12.36,5.88C99.175,355.425,98.677,355.63,98.161,355.837ZM142.917,327.9l.008.047q-21.174,7.348-41.467,16.454-5.85,2.639-11.621,5.409a.744.744,0,0,0-.151.116,6.356,6.356,0,0,1-.724-1.25.717.717,0,0,0-.124-.18,364.838,364.838,0,0,1,43.919-18.808,56.359,56.359,0,0,1,7.094-2.233,7.056,7.056,0,0,1,3.158.116A.665.665,0,0,0,142.917,327.9Zm1.116,2.626q-20.217,7.652-39.9,16.3-5.76,2.531-11.46,5.149a.789.789,0,0,0-.265.188,8.828,8.828,0,0,1-1.6-1.039q20.031-9.607,41.07-17.506,5.7-2.131,11.467-4.138A6.451,6.451,0,0,0,144.033,330.53Zm-28.323,16.389c.534.281,1.08.575,1.609.872.712.406,1.4.823,2.067,1.282a16.1,16.1,0,0,1,2.292,1.907,21.887,21.887,0,0,1,2.261,2.67,7.27,7.27,0,0,1,.926,1.506c-.2-.035-.379-.081-.5-.1a7.444,7.444,0,0,0-1.521-.11,4.217,4.217,0,0,0-2.648,1.259,3.407,3.407,0,0,0-1.062,2.5l-.01-.006a14.24,14.24,0,0,1-.927-1.7c-.974-2.053-1.654-4.242-3.24-6.02l-.172-.189a8.469,8.469,0,0,0-1.509-1.266,7.006,7.006,0,0,0-1.667-.848Q113.655,347.794,115.711,346.919Zm1.884-.819q9.99-4.207,20.11-8.155,5.313-2.077,10.671-4.065a12,12,0,0,0,1.453.578,1.675,1.675,0,0,0,.183.053c-.152.061-.3.113-.451.166-8.234,2.947-16.273,6.3-24.269,9.7q-3.07,1.31-6.138,2.628C118.651,346.7,118.132,346.4,117.594,346.1Zm18.782-41.739c.168.119.343.228.527.337a19.162,19.162,0,0,0,1.948,1.038c-2.178.607-4.31,1.509-6.308,2.257-3.354,1.271-6.652,2.653-9.9,4.115-6.634,2.991-13.073,6.3-19.439,9.7-6.075,3.26-12.077,6.62-18.142,9.886a.817.817,0,0,0-.6-.247c-1.042-.027-2.08-.039-3.115-.083,14.046-7.324,28.125-14.622,42.542-21.366Q130.085,307.1,136.376,304.362ZM82.69,332.967c-3.221,1.157-6.634,2.406-10.093,1.216a5.673,5.673,0,0,1-3.647-7.132,1.047,1.047,0,0,0,.031-.471c.213-.125.426-.25.631-.373a9.273,9.273,0,0,0,5.16,5.346A19.577,19.577,0,0,0,82.69,332.967Zm51.071-30.933a8.336,8.336,0,0,0,1.155,1.221c-15,6.582-29.573,13.877-44.019,21.345q-6.22,3.213-12.426,6.456a11.549,11.549,0,0,1-2.535-.726c-.325-.136-.646-.3-.959-.466q22.434-11.713,45.719-22.129Q127.2,304.836,133.761,302.034Zm-1.367-2.946a.9.9,0,0,1-.01.436.987.987,0,0,0,.521,1.136q-23.484,10.034-46.184,21.389-6.5,3.264-12.923,6.62a.959.959,0,0,0-.277.221,7.836,7.836,0,0,1-1.013-1c.025-.012.043-.014.068-.026a435.051,435.051,0,0,1,45.916-23.02q6.757-2.9,13.633-5.59A.928.928,0,0,0,132.393,299.088Zm-1.523-1.438a2.828,2.828,0,0,1,.465.2,442.671,442.671,0,0,0-47.192,21.736q-6.323,3.394-12.513,6.966a5.171,5.171,0,0,1-.407-1.161.567.567,0,0,1-.045-.1c7.313-4.28,14.82-8.3,22.412-12.2,8.5-4.36,16.96-9.008,25.927-12.6a69.276,69.276,0,0,1,7.465-2.586A7.063,7.063,0,0,1,130.871,297.649ZM70.84,308.4c1.016-1.622,3.524-2.608,5.228-3.559q3.574-1.975,7.166-3.9c4.771-2.546,9.592-5.028,14.433-7.49q3.575-1.821,7.163-3.619c1.139-.572,2.271-1.134,3.4-1.7.989-.5,2.472-1.566,3.685-1.5,1.257.06,1.765,1.372,2.134,2.23.46,1.105.876,2.217,1.259,3.341.786,2.317,1.457,4.649,2.112,6.992-2.177.907-4.312,1.889-6.424,2.9-9.672,4.644-19.2,9.569-28.609,14.611q-4.314,2.316-8.567,4.718-.944-3.164-1.906-6.326c-.354-1.168-.709-2.344-1.054-3.512A3.76,3.76,0,0,1,70.84,308.4Zm50.238-33.741c1.2,1.167,1.482,2.978,1.972,4.435.652,1.94,1.39,3.853,1.941,5.831,1,3.6,1.844,7.212,3.138,10.746a20.238,20.238,0,0,0-2.259.516c-2.175.623-4.3,1.365-6.387,2.173-.6-2.168-1.233-4.325-1.96-6.469-.651-1.933-1.194-4.362-2.716-5.943-1.895-1.971-4.381-1.162-6.558-.064q-4.067,2.032-8.123,4.078-8.115,4.1-16.152,8.317c-2.564,1.365-5.127,2.739-7.666,4.14-2.195,1.2-4.8,2.313-6.563,4.008-2.175,2.086-1.4,4.475-.663,6.933q1.381,4.561,2.756,9.132c0,.015.016.037.019.053-1.583.919-3.167,1.838-4.737,2.779a1.084,1.084,0,0,0-.873.391,10.825,10.825,0,0,0-2.443,5.579c-.611-2.159-1.206-4.329-1.818-6.488q-2.8-9.781-5.715-19.548a30.48,30.48,0,0,0,5.8-2.961c3.807-2.4,7.8-4.484,11.831-6.577,8.2-4.27,16.437-8.452,24.649-12.685q6.284-3.234,12.531-6.526C113.684,275.132,118.226,271.891,121.078,274.66Zm-8.35-1.29c-.423.218-.827.441-1.241.657q-3.127,1.662-6.276,3.3c-8.187,4.269-16.426,8.458-24.649,12.685q-6.284,3.234-12.524,6.517c-1.856.973-3.7,1.937-5.462,3.039q-.624.384-1.244.792a1.065,1.065,0,0,0-.635-.187c-1.54-.02-3.109,0-4.693-.011,14.346-6.837,28.365-14.157,42.585-21.19q6.18-3.065,12.424-6.028Q111.85,273.2,112.728,273.37Zm-3.89-1.16c-14.344,6.845-28.373,14.166-42.592,21.2q-6.455,3.2-12.983,6.3a.8.8,0,0,0-.385.371c-.7-.044-1.41-.1-2.1-.187,14.66-7.3,29.249-14.733,43.882-22.084q6.26-3.147,12.551-6.276C107.747,271.77,108.291,272,108.838,272.209Zm-4.7-2.247a.048.048,0,0,1,.024-.019c.408.235.824.469,1.248.694-14.836,7.38-29.575,14.889-44.373,22.328Q54.6,296.2,48.162,299.4c-.19-.044-.388-.08-.579-.132-.921-.258-1.883-.541-2.828-.882,15.4-7.286,30.7-14.732,46.062-22.091Q97.464,273.109,104.138,269.962ZM54.1,285.852c1.124-.554,2.259-1.1,3.393-1.648,9.7-4.665,19.531-9.164,29.625-13.157,2.861-1.138,5.743-2.264,8.674-3.27a11.277,11.277,0,0,1,3.834-.7C84.484,274.028,69.6,281.407,54.588,288.56c-.084-.549-.168-1.1-.27-1.646C54.251,286.559,54.177,286.206,54.1,285.852Zm33.485-11.376q6.641-3.154,13.332-6.228a1.118,1.118,0,0,0,.242-.168c.445.293.9.585,1.354.877-15.609,7.379-31.113,14.932-46.68,22.384q-6.536,3.127-13.086,6.232a15.072,15.072,0,0,1-1.652-.914C56.733,289.482,72.076,281.849,87.586,274.477Zm-46.766.209a20.516,20.516,0,0,0,2.071.625,4.208,4.208,0,0,0,3.031-.664,5.3,5.3,0,0,0,1.426-2.787c.082-.241.124-.65.375-.575.269.081.377.659.451.862.224.617.432,1.244.638,1.863a109.549,109.549,0,0,1,3.2,10.619q.243,1.009.432,2.027.279,1.349.451,2.712c-1.746.831-3.5,1.656-5.248,2.479q-.494-1.188-.961-2.379c-.252-.621-.5-1.242-.747-1.864C44.234,283.3,42.566,278.978,40.82,274.685ZM43.169,291.2c.641-.319,1.291-.633,1.933-.945.31.787.628,1.564.946,2.342q-3.173,1.491-6.352,2.943l-.007.009a6.684,6.684,0,0,1-1.337-1.757A43.916,43.916,0,0,1,43.169,291.2ZM36.59,295.12c1.9,3.092,5.916,4.717,9.6,5.8,3.973,1.172,8.153,1.16,12.3,1.176-.462.255-.924.5-1.4.727-4.2,2.023-9.088,1.921-13.57.655a13.567,13.567,0,0,1-8.454-6.827A12.687,12.687,0,0,1,36.59,295.12Zm2.223,21.938q-2.309-8.879-4.679-17.748a.353.353,0,0,0-.035-.09,14.874,14.874,0,0,0,5.65,4.952,24.113,24.113,0,0,0,11.213,2.16,16.433,16.433,0,0,0,3.192-.434q1.968,6.613,3.875,13.236a1.408,1.408,0,0,0-.444.055A23.873,23.873,0,0,1,38.813,317.057Zm.672,2.633a26.816,26.816,0,0,0,19.032,1.28c.016-.01.025-.011.041-.021.378,1.3.748,2.6,1.117,3.9a31.744,31.744,0,0,1-19.19-1.3C40.155,322.261,39.825,320.979,39.485,319.69Zm1.836,7.071c-.081-.289-.153-.579-.225-.869a34.04,34.04,0,0,0,19.113.841q6.273,21.96,12.031,44.031a31.348,31.348,0,0,1-19.263-.085,1.212,1.212,0,0,0-.394-.063C48.753,356.014,45.062,341.377,41.321,326.761Zm11.833,46.044a34.084,34.084,0,0,0,19.586-.135c.2.755.4,1.517.6,2.272a1.2,1.2,0,0,0-.591.1A25.1,25.1,0,0,1,53.68,374.8C53.5,374.14,53.332,373.468,53.154,372.805Zm25.279,24.231c-2.242,2.459-6.219,3.217-9.625,2.455-3.16-.709-6.762-2.036-8.856-4.295-2.363-2.537-2.879-6.181-3.5-9.3-.6-2.928-1.355-5.81-2.131-8.706a27.717,27.717,0,0,0,19.368-.381.876.876,0,0,0,.123-.073l.087.32q2.527,9.832,4.967,19.684A1.193,1.193,0,0,0,78.433,397.037Zm4.492,1.415c-2.056-2.248-2.543-5.3-3.231-8.021q-1.113-4.362-2.21-8.742-4.576-18.048-9.134-36.1A85.976,85.976,0,0,1,66,335.469a12.657,12.657,0,0,1,.51-5.852,7.112,7.112,0,0,0,2.461,4.769,10.973,10.973,0,0,0,8.745,2.089,28.763,28.763,0,0,0,4.78-1.33q1.792,6.247,3.591,12.493c-.466.232-.924.454-1.389.694a1.118,1.118,0,0,0-.741.365l-.324.164a.991.991,0,0,0-.51.531c-3.915,3.778-.606,9.874,1.009,14q3.562,9.094,7.135,18.193c2.238,5.718,4.537,11.419,6.707,17.162.319.833.642,1.689.975,2.551C93.513,402.384,86.758,402.632,82.925,398.452Zm7.251-25.692a17.936,17.936,0,0,0,13.592-.492q4.471,10.97,8.93,21.925a22.288,22.288,0,0,1-14.1.073C95.827,387.082,92.992,379.922,90.176,372.76Zm10.28,26.337c-.042-.129-.093-.256-.144-.383-.269-.713-.548-1.425-.825-2.137a25.137,25.137,0,0,0,13.967-.529c.272.681.555,1.369.836,2.049a17.649,17.649,0,0,1-13.633,1.051C100.589,399.126,100.522,399.112,100.456,399.1Zm6.641,10.561c-2.911-1.962-4.509-5.169-5.748-8.26a20.4,20.4,0,0,0,13.7-1.447q2.169,5.352,4.358,10.709C115.135,411.522,110.89,412.207,107.1,409.658Zm68.985-16.125a27.109,27.109,0,0,1-3.741,1.982c-1.746.831-3.526,1.62-5.321,2.378a188.856,188.856,0,0,1-29.079,9.7,101.248,101.248,0,0,1-16.31,2.733q-8.527-20.955-17.061-41.9-2.27-5.6-4.548-11.188c4.455-1.806,8.88-3.671,13.293-5.558a9.018,9.018,0,0,1,1.232,1.637c1.265,2.154,1.845,4.587,3.365,6.642.58.772,1.8,1.392,2.618.438.644-.739.16-1.675.521-2.477a2.429,2.429,0,0,1,2.479-1.385,6,6,0,0,0,2.716.084.778.778,0,0,0,.52-.627,4.258,4.258,0,0,0-.926-2.581,20.814,20.814,0,0,0-2.491-3.12,16.363,16.363,0,0,0-2.228-1.956c8.1-3.482,16.211-6.926,24.489-10.077,1.911-.72,3.825-1.432,5.743-2.114a20.9,20.9,0,0,1,4.545-1.368,1.547,1.547,0,0,0,.79.094,1.3,1.3,0,0,0,.412-.129h.009c3.618.242,5.445,3.408,6.614,6.026,3.32,7.479,5.659,15.293,8.236,22.98q3.351,10.013,6.721,20.022c.012.014,0,.023.014.03C179.867,387.354,179.591,391.094,176.081,393.533Z" transform="translate(-31.819 -265.087)" fill="#4c0696"/>
      <path id="Path_38051" data-name="Path 38051" d="M60.648,329.518c-.462.255-.924.5-1.4.727-4.2,2.023-9.088,1.921-13.57.655a13.567,13.567,0,0,1-8.454-6.827,12.6,12.6,0,0,1,1.523-1.535c1.9,3.092,5.916,4.717,9.6,5.8C52.319,329.513,56.5,329.5,60.648,329.518Z" transform="translate(-33.974 -292.505)" fill="#4c0696"/>
      <path id="Path_38052" data-name="Path 38052" d="M50.383,315.567q-3.173,1.491-6.352,2.943l-.007.009a6.685,6.685,0,0,1-1.337-1.757A43.76,43.76,0,0,1,47.5,314.17c.641-.319,1.291-.632,1.933-.945C49.748,314.012,50.065,314.79,50.383,315.567Z" transform="translate(-36.154 -288.06)" fill="#fff"/>
      <path id="Path_38053" data-name="Path 38053" d="M58.416,292.3q.279,1.349.451,2.712c-1.746.831-3.5,1.656-5.248,2.479q-.494-1.188-.961-2.379c-.252-.621-.5-1.241-.747-1.864-1.7-4.306-3.371-8.626-5.116-12.919a20.539,20.539,0,0,0,2.071.625,4.207,4.207,0,0,0,3.031-.664,5.3,5.3,0,0,0,1.426-2.787c.082-.241.124-.65.375-.575.269.081.377.659.451.862.224.617.432,1.244.638,1.863a109.544,109.544,0,0,1,3.2,10.619Q58.226,291.288,58.416,292.3Z" transform="translate(-37.793 -270.736)" fill="#fbc00a"/>
      <path id="Path_38054" data-name="Path 38054" d="M69.376,290.375c-.084-.549-.168-1.1-.27-1.646-.066-.354-.141-.708-.216-1.061,1.124-.554,2.259-1.1,3.393-1.648,9.7-4.665,19.531-9.164,29.625-13.157,2.861-1.139,5.743-2.264,8.674-3.27a11.276,11.276,0,0,1,3.834-.7C99.272,275.844,84.391,283.222,69.376,290.375Z" transform="translate(-46.607 -266.902)" fill="#fff"/>
      <path id="Path_38055" data-name="Path 38055" d="M108.67,271.691c-15.609,7.379-31.113,14.932-46.68,22.384Q55.454,297.2,48.9,300.307a15.074,15.074,0,0,1-1.652-.914c15.638-7.177,30.981-14.811,46.491-22.183q6.641-3.154,13.332-6.228a1.12,1.12,0,0,0,.242-.168C107.762,271.107,108.216,271.4,108.67,271.691Z" transform="translate(-37.975 -267.82)" fill="#fff"/>
      <path id="Path_38056" data-name="Path 38056" d="M113.994,275.07C99.158,282.45,84.42,289.959,69.622,297.4q-6.435,3.231-12.875,6.44c-.19-.044-.388-.08-.579-.132-.921-.258-1.883-.541-2.828-.882,15.4-7.286,30.7-14.732,46.062-22.091q6.648-3.19,13.321-6.336a.047.047,0,0,1,.024-.019C113.154,274.611,113.571,274.845,113.994,275.07Z" transform="translate(-40.404 -269.52)" fill="#fff"/>
      <path id="Path_38057" data-name="Path 38057" d="M121.422,278.091c-14.344,6.844-28.373,14.166-42.592,21.2q-6.455,3.2-12.983,6.3a.8.8,0,0,0-.385.371c-.7-.044-1.41-.1-2.1-.187,14.66-7.3,29.249-14.733,43.882-22.084q6.26-3.148,12.551-6.276C120.331,277.651,120.875,277.884,121.422,278.091Z" transform="translate(-44.403 -270.968)" fill="#fff"/>
      <path id="Path_38058" data-name="Path 38058" d="M128.779,280.544c-.423.218-.827.441-1.241.657q-3.127,1.662-6.276,3.3c-8.187,4.269-16.426,8.458-24.649,12.685q-6.284,3.234-12.524,6.517c-1.856.973-3.7,1.937-5.462,3.039q-.624.384-1.244.792a1.065,1.065,0,0,0-.635-.187c-1.54-.02-3.109,0-4.693-.011,14.346-6.837,28.365-14.157,42.585-21.19q6.18-3.065,12.424-6.028Q127.9,280.372,128.779,280.544Z" transform="translate(-47.87 -272.262)" fill="#fff"/>
      <path id="Path_38059" data-name="Path 38059" d="M189.94,371.311h-.009a7.2,7.2,0,0,0-.8.169.923.923,0,0,0-.427-.1,11.762,11.762,0,0,1-1.481-.092q-.307-.04-.619-.1c-.038-.01-.152-.034-.18-.038-.124-.03-.249-.068-.373-.1a13.018,13.018,0,0,1-1.263-.439c-.109-.048-.219-.1-.337-.15-.01-.006-.01-.006-.019-.005a.368.368,0,0,0-.1-.049c-.2-.106-.393-.206-.585-.313-.356-.2-.7-.423-1.032-.661-.157-.112-.305-.226-.456-.347a.562.562,0,0,1-.107-.088c-.075-.061-.162-.135-.238-.2s-.179-.18-.269-.27a.838.838,0,0,0,.15-.369,3.81,3.81,0,0,0-2.382-3.9,8.542,8.542,0,0,0-6.023-.171c-4.643,1.232-9.164,2.983-13.618,4.647-9.169,3.443-18.111,7.32-26.9,11.452-3.287,1.538-6.536,3.127-9.773,4.738q-1.781-6.189-3.551-12.373c11.482-6.156,22.717-12.658,34.549-18.3a171.15,171.15,0,0,1,18.886-7.8c2.764-.927,6.35-2.128,8.6.267,1.794,1.922,2.454,4.778,3.215,7.106C186.678,359.61,188.139,365.5,189.94,371.311Z" transform="translate(-66.814 -303.372)" fill="#fbc00a"/>
      <path id="Path_38060" data-name="Path 38060" d="M157.458,327.412a442.681,442.681,0,0,0-47.192,21.736q-6.323,3.394-12.513,6.966a5.171,5.171,0,0,1-.407-1.161.568.568,0,0,1-.045-.1c7.313-4.28,14.82-8.3,22.412-12.2,8.5-4.36,16.96-9.008,25.927-12.6a69.278,69.278,0,0,1,7.465-2.586,7.056,7.056,0,0,1,3.888-.263A2.8,2.8,0,0,1,157.458,327.412Z" transform="translate(-57.94 -294.646)" fill="#fff"/>
      <path id="Path_38061" data-name="Path 38061" d="M159.908,331.7q-23.484,10.034-46.184,21.389-6.5,3.264-12.923,6.62a.96.96,0,0,0-.277.221,7.836,7.836,0,0,1-1.013-1c.025-.012.043-.014.068-.026a435.057,435.057,0,0,1,45.916-23.02q6.757-2.9,13.633-5.59a.933.933,0,0,0,.268-.172.9.9,0,0,1-.01.437A.988.988,0,0,0,159.908,331.7Z" transform="translate(-58.822 -296.127)" fill="#fff"/>
      <path id="Path_38062" data-name="Path 38062" d="M163.556,336.986c-15,6.582-29.573,13.877-44.019,21.345q-6.22,3.213-12.426,6.456a11.557,11.557,0,0,1-2.535-.726c-.325-.136-.646-.3-.959-.466q22.434-11.713,45.719-22.129,6.511-2.9,13.067-5.7A8.358,8.358,0,0,0,163.556,336.986Z" transform="translate(-60.459 -298.818)" fill="#fff"/>
      <path id="Path_38063" data-name="Path 38063" d="M171.721,341.592c-2.178.607-4.31,1.509-6.308,2.257-3.354,1.271-6.652,2.653-9.9,4.115-6.634,2.991-13.073,6.3-19.439,9.705-6.075,3.26-12.077,6.62-18.142,9.886a.817.817,0,0,0-.6-.247c-1.042-.027-2.08-.039-3.115-.083,14.046-7.324,28.125-14.622,42.542-21.366q6.2-2.9,12.487-5.642c.168.119.343.229.527.337A19.016,19.016,0,0,0,171.721,341.592Z" transform="translate(-64.689 -300.942)" fill="#fff"/>
      <path id="Path_38064" data-name="Path 38064" d="M107.154,388.766c-3.221,1.157-6.634,2.406-10.093,1.216a5.673,5.673,0,0,1-3.647-7.132,1.046,1.046,0,0,0,.031-.471c.213-.125.426-.25.631-.373a9.273,9.273,0,0,0,5.16,5.346A19.576,19.576,0,0,0,107.154,388.766Z" transform="translate(-56.283 -320.885)" fill="#4c0696"/>
      <path id="Path_38065" data-name="Path 38065" d="M143.082,318.864c-2.177.907-4.312,1.889-6.424,2.9-9.672,4.644-19.2,9.569-28.609,14.611q-4.314,2.315-8.567,4.718-.944-3.164-1.906-6.326c-.354-1.168-.709-2.344-1.054-3.512a3.762,3.762,0,0,1-.02-3.184c1.016-1.622,3.524-2.608,5.228-3.559q3.574-1.974,7.166-3.9c4.771-2.546,9.592-5.028,14.433-7.49q3.575-1.821,7.163-3.619c1.139-.572,2.271-1.134,3.4-1.7.989-.5,2.472-1.566,3.685-1.5,1.257.06,1.765,1.372,2.134,2.23.46,1.105.876,2.217,1.259,3.341C141.756,314.188,142.428,316.521,143.082,318.864Z" transform="translate(-57.48 -284.754)" fill="#4c0696"/>
      <path id="Path_38066" data-name="Path 38066" d="M144.358,303.421a20.237,20.237,0,0,0-2.259.516c-2.175.623-4.3,1.365-6.387,2.173-.6-2.168-1.233-4.325-1.96-6.469-.651-1.933-1.194-4.362-2.716-5.943-1.895-1.971-4.381-1.162-6.558-.064q-4.067,2.032-8.123,4.078-8.115,4.1-16.152,8.317c-2.564,1.366-5.127,2.739-7.666,4.14-2.195,1.2-4.8,2.313-6.563,4.008-2.175,2.086-1.4,4.475-.663,6.933q1.381,4.561,2.756,9.132c0,.015.016.037.019.053-1.583.919-3.167,1.838-4.737,2.778a1.084,1.084,0,0,0-.873.392,10.825,10.825,0,0,0-2.443,5.579c-.611-2.159-1.206-4.329-1.818-6.488q-2.8-9.781-5.715-19.547a30.477,30.477,0,0,0,5.8-2.961c3.807-2.4,7.8-4.484,11.831-6.577,8.2-4.27,16.437-8.452,24.649-12.685q6.284-3.234,12.531-6.526c2.6-1.378,7.14-4.62,9.992-1.851,1.2,1.167,1.482,2.978,1.972,4.435.652,1.94,1.39,3.853,1.941,5.831C142.217,296.274,143.063,299.887,144.358,303.421Z" transform="translate(-48.047 -272.836)" fill="#c70a9c"/>
      <path id="Path_38067" data-name="Path 38067" d="M64.764,374.7a31.744,31.744,0,0,1-19.19-1.3c-.33-1.282-.659-2.564-1-3.852a26.817,26.817,0,0,0,19.032,1.28c.016-.01.025-.011.041-.021Q64.213,372.746,64.764,374.7Z" transform="translate(-36.907 -314.936)" fill="#4c0696"/>
      <path id="Path_38068" data-name="Path 38068" d="M59.542,350.294a1.408,1.408,0,0,0-.444.055,23.87,23.87,0,0,1-18.771-2.131q-2.309-8.879-4.679-17.748a.354.354,0,0,0-.035-.09,14.874,14.874,0,0,0,5.65,4.952,24.113,24.113,0,0,0,11.213,2.16,16.44,16.44,0,0,0,3.192-.434Q57.635,343.672,59.542,350.294Z" transform="translate(-33.332 -296.248)" fill="#c70a9c"/>
      <path id="Path_38069" data-name="Path 38069" d="M66.365,382.244a34.039,34.039,0,0,1-19.113-.841c.072.29.144.581.225.869,3.741,14.615,7.432,29.252,11.261,43.855a1.2,1.2,0,0,1,.394.063,31.348,31.348,0,0,0,19.263.085Q72.634,404.208,66.365,382.244Zm3.31,35.534c.07,2.473-2.484,3.647-5.023,3.689a3.942,3.942,0,0,1-2.751-.909c-1.113-1-1.228-2.491-1.541-3.784q-1.056-4.347-2.11-8.693-2.122-8.68-4.226-17.361a.8.8,0,0,1,.028-.486c.215-2.015,1.992-3.459,4.352-3.531,2.615-.068,3.865,1.567,4.59,3.559a80.557,80.557,0,0,1,2.166,8.409c.778,3.2,1.547,6.4,2.326,9.6.394,1.628.79,3.265,1.193,4.892A23.741,23.741,0,0,1,69.676,417.779Z" transform="translate(-37.975 -320.598)" fill="#c70a9c"/>
      <path id="Path_38070" data-name="Path 38070" d="M72.872,425.565a4.149,4.149,0,0,1-2.607.549c-1.126-.142-1.239-1.138-1.436-1.948-.317-1.315-.635-2.63-.962-3.945-.56-2.325-1.131-4.656-1.691-6.981q-1.963-8.05-3.919-16.108a2.181,2.181,0,0,1,2.708-1.861c1.7.25,2.068,2.611,2.382,3.808,1.3,5.035,2.457,10.115,3.68,15.169q.969,3.955,1.918,7.906C73.193,423.14,73.943,424.774,72.872,425.565Z" transform="translate(-43.96 -327.201)" fill="#fff"/>
      <path id="Path_38071" data-name="Path 38071" d="M87.5,473.16a1.2,1.2,0,0,0-.591.1,25.1,25.1,0,0,1-19.065-.239c-.178-.663-.349-1.335-.527-2a34.085,34.085,0,0,0,19.586-.135C87.094,471.643,87.3,472.405,87.5,473.16Z" transform="translate(-45.978 -363.304)" fill="#4c0696"/>
      <path id="Path_38072" data-name="Path 38072" d="M93.792,498.681a1.19,1.19,0,0,0-.428.29c-2.242,2.458-6.219,3.217-9.625,2.455-3.16-.709-6.762-2.036-8.856-4.295-2.363-2.537-2.879-6.181-3.5-9.3-.6-2.928-1.355-5.811-2.131-8.706a27.717,27.717,0,0,0,19.368-.381.887.887,0,0,0,.123-.073l.087.32Q91.353,488.829,93.792,498.681Z" transform="translate(-46.75 -367.021)" fill="#c70a9c"/>
      <path id="Path_38073" data-name="Path 38073" d="M121.549,460.214c-5.435,1.082-12.19,1.33-16.023-2.85-2.056-2.248-2.543-5.3-3.231-8.021q-1.113-4.362-2.21-8.742-4.576-18.048-9.134-36.1a85.975,85.975,0,0,1-2.35-10.122,12.657,12.657,0,0,1,.51-5.852,7.112,7.112,0,0,0,2.461,4.769,10.973,10.973,0,0,0,8.745,2.089,28.776,28.776,0,0,0,4.78-1.33q1.792,6.247,3.591,12.493c-.466.232-.924.454-1.389.694a1.119,1.119,0,0,0-.741.365l-.324.164a.991.991,0,0,0-.51.531c-3.915,3.778-.606,9.874,1.009,14q3.562,9.094,7.135,18.193c2.238,5.718,4.537,11.419,6.707,17.162C120.893,458.5,121.215,459.352,121.549,460.214Z" transform="translate(-54.42 -323.998)" fill="#fbc00a"/>
      <path id="Path_38074" data-name="Path 38074" d="M165.546,533.781c-4.267.862-8.513,1.547-12.306-1-2.911-1.962-4.509-5.169-5.748-8.26a20.394,20.394,0,0,0,13.7-1.448Q163.357,528.424,165.546,533.781Z" transform="translate(-77.962 -388.208)" fill="#3ae2bb"/>
      <path id="Path_38075" data-name="Path 38075" d="M159.2,517.656a17.65,17.65,0,0,1-13.633,1.051,2,2,0,0,0-.2-.051c-.042-.129-.093-.256-.144-.383-.269-.713-.548-1.425-.825-2.137a25.138,25.138,0,0,0,13.967-.529C158.634,516.288,158.916,516.976,159.2,517.656Z" transform="translate(-76.727 -384.646)" fill="#4c0696"/>
      <path id="Path_38076" data-name="Path 38076" d="M142.5,470.117a17.936,17.936,0,0,1-13.592.492c2.816,7.162,5.65,14.322,8.425,21.506a22.287,22.287,0,0,0,14.1-.073Q146.959,481.084,142.5,470.117Zm-1.419,15.318a1.2,1.2,0,0,1-1.49-.478q-1.5-3.963-3.02-7.916a.96.96,0,0,1,.559-1.3,1.218,1.218,0,0,1,1.49.478q1.5,3.963,3.013,7.926A.937.937,0,0,1,141.078,485.435Z" transform="translate(-70.548 -362.936)" fill="#3ae2bb"/>
      <path id="Path_38077" data-name="Path 38077" d="M140.322,463.747a15.359,15.359,0,0,1-13.785-.256.336.336,0,0,0-.1-.041c-.364-.929-.73-1.866-1.093-2.8a17.526,17.526,0,0,0,13.784.153C139.529,461.787,139.921,462.767,140.322,463.747Z" transform="translate(-69.128 -358.42)" fill="#4c0696"/>
      <path id="Path_38078" data-name="Path 38078" d="M135.389,444.806a14.829,14.829,0,0,1-13.534-.86,1.143,1.143,0,0,0-.588-.178c-.953-2.332-1.914-4.664-2.709-7.027-.6-1.813-1.09-4-.252-5.745a8.623,8.623,0,0,0,4.667,4.7,19.414,19.414,0,0,0,5.1,1.574,11.213,11.213,0,0,0,4.178-.17Q133.819,440.964,135.389,444.806Z" transform="translate(-66.141 -344.265)" fill="#3ae2bb"/>
      <path id="Path_38079" data-name="Path 38079" d="M135.6,432.053c-.515.215-1.013.42-1.529.627h-.009c-2.831.913-5.755.147-8.356-.981-2.169-.952-3.89-2.773-3.869-4.9l1.4-.7c0,.023,0,.048,0,.071C125.053,430.542,130.595,431.983,135.6,432.053Z" transform="translate(-67.728 -341.93)" fill="#4c0696"/>
      <path id="Path_38080" data-name="Path 38080" d="M180.852,384.4a.671.671,0,0,0-.093.329l.008.047q-21.174,7.348-41.466,16.454-5.85,2.639-11.621,5.409a.745.745,0,0,0-.151.116,6.352,6.352,0,0,1-.724-1.25.717.717,0,0,0-.124-.18A364.829,364.829,0,0,1,170.6,386.52a56.379,56.379,0,0,1,7.094-2.233A7.057,7.057,0,0,1,180.852,384.4Z" transform="translate(-69.661 -321.915)" fill="#fff"/>
      <path id="Path_38081" data-name="Path 38081" d="M183.182,389.317q-20.217,7.652-39.9,16.3-5.76,2.531-11.46,5.149a.789.789,0,0,0-.265.188,8.82,8.82,0,0,1-1.6-1.039q20.031-9.606,41.07-17.506,5.7-2.131,11.467-4.138A6.452,6.452,0,0,0,183.182,389.317Z" transform="translate(-70.968 -323.874)" fill="#fff"/>
      <path id="Path_38082" data-name="Path 38082" d="M188.137,393.732q-15.616,5.854-30.9,12.341c-.01-.006-.01-.006-.019-.005a1.013,1.013,0,0,0-.884.377l-.007.009c-2.088.895-4.179,1.775-6.257,2.677q-5.513,2.4-10.982,4.884a.767.767,0,0,0-.385.371,16.759,16.759,0,0,1-2.758-.553q19.343-8.834,39.238-16.7,5.766-2.283,11.587-4.471A12.2,12.2,0,0,0,188.137,393.732Z" transform="translate(-73.354 -325.97)" fill="#fff"/>
      <path id="Path_38083" data-name="Path 38083" d="M156.888,427.65q-4.246,1.808-8.525,3.581c-.009,0-.009,0-.016.01a.91.91,0,0,0-.8-.315c-.59.052-1.2.083-1.828.091q4.315-1.949,8.656-3.853a.472.472,0,0,0,.091,0A4.735,4.735,0,0,1,156.888,427.65Z" transform="translate(-77.257 -342.434)" fill="#fff"/>
      <path id="Path_38084" data-name="Path 38084" d="M206.937,397.314c-.152.061-.3.113-.451.166-8.234,2.947-16.273,6.3-24.269,9.7q-3.07,1.31-6.138,2.628c-.5-.308-1.022-.607-1.559-.9q9.99-4.207,20.11-8.155,5.313-2.077,10.671-4.066a12.008,12.008,0,0,0,1.453.578A1.76,1.76,0,0,0,206.937,397.314Z" transform="translate(-88.744 -327.89)" fill="#fff"/>
      <path id="Path_38085" data-name="Path 38085" d="M177.818,429.866c-.2-.035-.379-.081-.5-.1a7.455,7.455,0,0,0-1.521-.11,4.218,4.218,0,0,0-2.648,1.259,3.407,3.407,0,0,0-1.062,2.5l-.01-.006a14.221,14.221,0,0,1-.927-1.7c-.974-2.053-1.654-4.242-3.24-6.02l-.172-.189a8.463,8.463,0,0,0-1.509-1.266,7,7,0,0,0-1.667-.848q2.045-.881,4.1-1.756c.534.281,1.08.575,1.608.873.712.406,1.4.823,2.067,1.282a16.088,16.088,0,0,1,2.292,1.907,21.88,21.88,0,0,1,2.261,2.67A7.281,7.281,0,0,1,177.818,429.866Z" transform="translate(-84.772 -339.795)" fill="#fbc00a"/>
      <path id="Path_38086" data-name="Path 38086" d="M223.958,447.38c-.01-.006,0-.016-.014-.03q-3.365-10.01-6.721-20.022c-2.577-7.686-4.915-15.5-8.236-22.98-1.17-2.618-3-5.785-6.614-6.026h-.009a1.3,1.3,0,0,1-.412.129,1.548,1.548,0,0,1-.79-.094,20.909,20.909,0,0,0-4.545,1.368c-1.919.682-3.831,1.394-5.743,2.114-8.278,3.151-16.392,6.6-24.489,10.077a16.393,16.393,0,0,1,2.228,1.956,20.852,20.852,0,0,1,2.491,3.12,4.258,4.258,0,0,1,.926,2.581.777.777,0,0,1-.52.627,6,6,0,0,1-2.716-.084,2.429,2.429,0,0,0-2.479,1.385c-.36.8.124,1.738-.521,2.477-.822.954-2.038.335-2.618-.438-1.52-2.055-2.1-4.488-3.365-6.642a9.016,9.016,0,0,0-1.232-1.637c-4.413,1.887-8.838,3.752-13.293,5.558q2.27,5.6,4.548,11.188,8.538,20.94,17.061,41.9a101.246,101.246,0,0,0,16.31-2.733,188.856,188.856,0,0,0,29.079-9.7c1.8-.759,3.576-1.548,5.321-2.379a27.179,27.179,0,0,0,3.741-1.982C224.854,454.679,225.13,450.939,223.958,447.38Zm-51.324-10.2a1.5,1.5,0,0,1-1.753,1.377c-.067-.014-.127-.045-.185-.061a1.383,1.383,0,0,1-.565-.055,1.115,1.115,0,0,1-.62-.5,4.441,4.441,0,0,1-.239-.552c-.026-.044-.07-.085-.1-.129a2.673,2.673,0,0,1-.316-1.6.98.98,0,0,1,.179-.4c0-.015,0-.032,0-.055a1,1,0,0,1,.53-.715,1.231,1.231,0,0,1,.994-.085,3.209,3.209,0,0,1,.849.457,4.158,4.158,0,0,1,.422.36,3.577,3.577,0,0,1,.347.449A2.5,2.5,0,0,1,172.634,437.177Zm28.168,5.915c-.828,3.414-4.738,4.874-8.312,5.457a8.747,8.747,0,0,1-5.63-.551c-.07-.038-.125-.085-.187-.124a3.649,3.649,0,0,1-2.977-3.487,3.871,3.871,0,0,1,3.931-3.25,12.249,12.249,0,0,1,2.668.51,1.762,1.762,0,0,0,1.645-.342c.981-.834,1.462-2.009,2.591-2.737a4.27,4.27,0,0,1,4.885.308A4.072,4.072,0,0,1,200.8,443.092Zm2.668-16.428a1.955,1.955,0,0,1-.118.973,1.5,1.5,0,0,1-1.214.851,1.933,1.933,0,0,1-1.933-1.2,4.091,4.091,0,0,1-.221-.7.669.669,0,0,1-.148-.359c-.019-.3-.029-.6-.05-.9a.887.887,0,0,1,.06-.507.968.968,0,0,1,.334-.4,1.293,1.293,0,0,1,1.116-.157,3.031,3.031,0,0,1,1.534.962A2.544,2.544,0,0,1,203.47,426.664Z" transform="translate(-77.082 -328.672)" fill="#3ae2bb"/>
      <path id="Path_38087" data-name="Path 38087" d="M146.113,490.5a1.2,1.2,0,0,1-1.489-.478q-1.5-3.963-3.02-7.916a.96.96,0,0,1,.559-1.3,1.219,1.219,0,0,1,1.49.478q1.5,3.963,3.013,7.926A.937.937,0,0,1,146.113,490.5Z" transform="translate(-75.583 -368.002)" fill="#4c0696"/>
      <path id="Path_38088" data-name="Path 38088" d="M188.268,470.051a1.5,1.5,0,0,1-1.753,1.377c-.067-.014-.127-.045-.185-.061a1.384,1.384,0,0,1-.565-.055,1.115,1.115,0,0,1-.62-.5,4.442,4.442,0,0,1-.239-.552c-.026-.044-.07-.085-.1-.129a2.674,2.674,0,0,1-.316-1.6.98.98,0,0,1,.179-.4c0-.015,0-.032,0-.055a1,1,0,0,1,.53-.715,1.231,1.231,0,0,1,.994-.085,3.21,3.21,0,0,1,.849.457,4.147,4.147,0,0,1,.422.36,3.583,3.583,0,0,1,.347.449A2.5,2.5,0,0,1,188.268,470.051Z" transform="translate(-92.716 -361.547)" fill="#4c0696"/>
      <path id="Path_38089" data-name="Path 38089" d="M239.631,450.3a1.954,1.954,0,0,1-.118.973,1.5,1.5,0,0,1-1.214.851,1.933,1.933,0,0,1-1.932-1.2,4.091,4.091,0,0,1-.221-.7.67.67,0,0,1-.148-.359c-.019-.3-.029-.6-.05-.9a.887.887,0,0,1,.06-.506.968.968,0,0,1,.334-.4,1.293,1.293,0,0,1,1.116-.157,3.031,3.031,0,0,1,1.534.962A2.544,2.544,0,0,1,239.631,450.3Z" transform="translate(-113.242 -352.305)" fill="#4c0696"/>
      <path id="Path_38090" data-name="Path 38090" d="M226.292,479.261a1.993,1.993,0,0,1-.127.389,9.464,9.464,0,0,0-7.008-1.211c-4.141.757-6.586,3.1-7.233,5.534a3.6,3.6,0,0,1-2.737-3.418,3.871,3.871,0,0,1,3.931-3.25,12.241,12.241,0,0,1,2.668.51,1.762,1.762,0,0,0,1.645-.342c.981-.834,1.462-2.009,2.591-2.737a4.27,4.27,0,0,1,4.885.308A4.073,4.073,0,0,1,226.292,479.261Z" transform="translate(-102.571 -364.841)" fill="#4c0696"/>
      <path id="Path_38091" data-name="Path 38091" d="M227.984,483.429c-1.006,3.139-4.752,4.5-8.184,5.067a8.748,8.748,0,0,1-5.63-.551c-.07-.038-.125-.085-.187-.124-.077-.021-.162-.04-.24-.069.647-2.432,3.092-4.777,7.233-5.534A9.463,9.463,0,0,1,227.984,483.429Z" transform="translate(-104.39 -368.62)" fill="#4c0696"/>
      <path id="Path_38092" data-name="Path 38092" d="M227.984,483.429c-1.006,3.139-4.752,4.5-8.184,5.067a8.748,8.748,0,0,1-5.63-.551c-.07-.038-.125-.085-.187-.124-.077-.021-.162-.04-.24-.069.647-2.432,3.092-4.777,7.233-5.534A9.463,9.463,0,0,1,227.984,483.429Z" transform="translate(-104.39 -368.62)" fill="#c70a9c"/>
      <path id="Path_38093" data-name="Path 38093" d="M249.484,472.557c.333.732-.413,1.675-1.666,2.106s-2.538.187-2.871-.546.413-1.675,1.666-2.106S249.151,471.824,249.484,472.557Z" transform="translate(-116.807 -363.738)" fill="#fff"/>
      <path id="Path_38094" data-name="Path 38094" d="M195,493.947c.333.732-.413,1.675-1.666,2.106s-2.538.187-2.871-.546.413-1.675,1.666-2.106S194.664,493.215,195,493.947Z" transform="translate(-95.071 -373.946)" fill="#fff"/>
    </g>
    <path id="Path_38101" data-name="Path 38101" d="M315.148,436.5a3.467,3.467,0,0,0-3.875,1.345,10.935,10.935,0,0,0,.15,12.687c2.718,3.791,8.208,5.846,13.252,5.143,5.4-.753,9.641-4.334,10.656-9.036,1.008-4.669-1.521-9.147-6.255-11.453A13.458,13.458,0,0,0,315.148,436.5Zm4.979,8.8c.284-.026.174,0,0,0Zm8.561-3.012c-.044-.074-.037-.063,0,0Zm.007.008a2.044,2.044,0,0,1,.105.205,6.787,6.787,0,0,1,.266.692c.013.037.055.178.085.27a.771.771,0,0,1,.02.1c.033.241.061.482.072.724.006.1-.017.6-.007.661a8.981,8.981,0,0,1-.314,1.366c-.02.048-.111.307-.161.408a8.421,8.421,0,0,1-.493.877c-.068.106-.15.209-.212.316a.026.026,0,0,1-.005.01l-.007.006c-.181.186-.34.387-.524.57s-.41.374-.62.559c-.172.108-.336.225-.511.329-.233.138-.476.259-.72.381l-.02.01.029-.01-.041.014a1.6,1.6,0,0,1-.2.071l-.142.05q-.457.149-.93.258c-.129.029-.258.051-.388.08a.312.312,0,0,0-.039,0c-.277.008-.554.043-.831.061,2.638-.82,4.818-2.718,5.2-5.3a5.335,5.335,0,0,0-.109-2.018,4.75,4.75,0,0,0-.718-2.071c.15.12.3.239.443.366l.059.05c.017.024.039.056.078.106.175.226.36.443.521.679C328.616,442.175,328.655,442.238,328.7,442.3Z" transform="translate(4818.264 5196.847)" fill="#044783"/>
    <path id="Path_38102" data-name="Path 38102" d="M336.864,406.325c-3.683-4.028-9.439-6.165-15.321-6.063-5.847.1-11.23,2.63-14.361,6.931a14.346,14.346,0,0,0-2.583,6.57c-2.612,7.183,1.3,15.9,9.846,18.713,11.016,3.63,23.529-2.19,25.892-12.275A15.412,15.412,0,0,0,336.864,406.325Zm-10.573,12.851c-.009-.042-.02-.083-.03-.125.018.043.031.088.048.132Zm-7.887-11.07a8.2,8.2,0,0,0-2.431-.573c-.2-.014-.4,0-.6,0a12.573,12.573,0,0,1,4.279-1.562A2.772,2.772,0,0,0,318.4,408.106Zm5.249,19.413a9.156,9.156,0,0,0,1.381.095c.052,0,.1-.011.153-.014a15.3,15.3,0,0,1-2.271.413A8.465,8.465,0,0,0,323.653,427.519Zm8.463-4.341c.081-.061.163-.122.242-.186-.133.177-.266.353-.41.522C332.007,423.4,332.062,423.291,332.116,423.177Z" transform="translate(4813.593 5156.446)" fill="#044783"/>
    <g id="Group_50375" data-name="Group 50375" transform="translate(6645.042 5584.313)">
      <path id="Path_40179" data-name="Path 40179" d="M239.315,23.7,137.577,41.136a4.845,4.845,0,0,0-2.162,8.64l7.553,5.745a4.854,4.854,0,0,1,3.21-7.563l62.368-10.689L240.78,24.343a1.449,1.449,0,0,0-1.465-.644Z" transform="translate(-86.874 -4.222)" fill="#d4e1f4"/>
      <path id="Path_40180" data-name="Path 40180" d="M14.624,480.632a8.416,8.416,0,0,1-1.906.439,1.78,1.78,0,0,0,.191,3.549,1.818,1.818,0,0,0,.2-.011,12.009,12.009,0,0,0,2.711-.623,1.78,1.78,0,0,0-1.192-3.354Z" transform="translate(-0.793 -325.578)" fill="#1ae5be"/>
      <path id="Path_40181" data-name="Path 40181" d="M340.962,120.242a1.771,1.771,0,0,0,1.083-.369l10.3-7.919a1.779,1.779,0,1,0-2.169-2.822l-10.3,7.919a1.78,1.78,0,0,0,1.086,3.19Zm-6.656,5.116a1.771,1.771,0,0,0,1.083-.369l2.373-1.824a1.779,1.779,0,1,0-2.169-2.821l-2.373,1.824a1.78,1.78,0,0,0,1.086,3.19Z" transform="translate(-226.868 -64.073)" fill="#0635c9"/>
      <path id="Path_40182" data-name="Path 40182" d="M70.922,299.2a1.78,1.78,0,0,0-1.692,1.863c.037.778.059,1.553.067,2.3a1.78,1.78,0,0,0,1.78,1.762h.017a1.78,1.78,0,0,0,1.762-1.8c-.007-.8-.031-1.618-.071-2.441A1.78,1.78,0,0,0,70.922,299.2Zm-8.236,24.962a15.02,15.02,0,0,1-3.45,2.488,1.78,1.78,0,1,0,1.647,3.155,18.585,18.585,0,0,0,4.268-3.076,1.78,1.78,0,1,0-2.465-2.567Zm-27.247,13.98c-1.436.345-2.959.631-4.526.851a1.779,1.779,0,1,0,.494,3.524c1.68-.236,3.316-.543,4.864-.915a1.779,1.779,0,1,0-.83-3.461Zm2.433-24.9a1.78,1.78,0,0,0,3.149,1.658,7.376,7.376,0,0,1,2.563-2.822,1.78,1.78,0,1,0-1.92-3A11.045,11.045,0,0,0,37.872,313.233ZM22.559,347.087a1.78,1.78,0,0,0-2.46.534,16.324,16.324,0,0,1-2.752,3.295,1.78,1.78,0,0,0,2.384,2.643,19.871,19.871,0,0,0,3.361-4.011A1.78,1.78,0,0,0,22.559,347.087Zm21.359-12.129a30.847,30.847,0,0,1-4.108,1.862,1.779,1.779,0,1,0,1.236,3.338,34.366,34.366,0,0,0,4.584-2.079,1.78,1.78,0,1,0-1.712-3.121Zm25.666-19.191A1.78,1.78,0,0,0,67.3,316.82a22.068,22.068,0,0,1-1.914,3.971,1.779,1.779,0,1,0,3.026,1.873,25.636,25.636,0,0,0,2.227-4.612,1.78,1.78,0,0,0-1.053-2.285ZM26.82,339.489a1.78,1.78,0,0,0-3.512-.074l-.026.138q-.47.007-.943.007c-.23,0-.464,0-.693,0h-.018a1.78,1.78,0,0,0-.018,3.559q.343,0,.691,0-.1.284-.211.564a1.78,1.78,0,0,0,3.317,1.29q.375-.964.676-1.952l.428-.024a1.78,1.78,0,0,0,.309-3.507Zm12.987-14.547a1.78,1.78,0,0,0,.94-2.335,9.209,9.209,0,0,1-.721-3.579c0-.107,0-.214.005-.322a1.779,1.779,0,1,0-3.557-.125q-.007.223-.008.447A12.8,12.8,0,0,0,37.472,324a1.78,1.78,0,0,0,2.335.94Zm6.84,2.643c-.243-.074-.485-.153-.723-.236a9.055,9.055,0,0,1-2.86-1.6,1.78,1.78,0,0,0-2.288,2.726,12.607,12.607,0,0,0,3.978,2.237q.426.148.86.279a1.78,1.78,0,1,0,1.034-3.405Zm24.411-21.239a1.781,1.781,0,0,0-1.919,1.628,38.978,38.978,0,0,1-.628,4.518A1.78,1.78,0,1,0,72,313.2a42.654,42.654,0,0,0,.687-4.933A1.78,1.78,0,0,0,71.058,306.346ZM57.049,320.431a1.779,1.779,0,0,0-2.21,1.2c-.019.065-.039.13-.059.2a23.448,23.448,0,0,1-1.6,3.9,1.78,1.78,0,0,0,.752,2.4,1.719,1.719,0,0,0,.247.106,17.047,17.047,0,0,1-3.255.119,1.78,1.78,0,0,0-1.65,2.658q-.783.774-1.653,1.477a1.779,1.779,0,1,0,2.238,2.767A25.475,25.475,0,0,0,53.3,331.9a19.847,19.847,0,0,0,2.625-.349,1.779,1.779,0,0,0-.181-3.516,1.773,1.773,0,0,0,.59-.657,27.035,27.035,0,0,0,1.844-4.488c.026-.082.051-.165.075-.247A1.779,1.779,0,0,0,57.049,320.431Zm-34.764,4.786a8.22,8.22,0,0,0-1.667-.685,9,9,0,0,0-4.139-.292,1.78,1.78,0,1,0,.648,3.5,5.517,5.517,0,0,1,2.5.211,4.624,4.624,0,0,1,.942.386,1.78,1.78,0,0,0,1.712-3.121Zm29.481-13.375a1.78,1.78,0,0,0,.733-3.4,12.251,12.251,0,0,0-5.447-1.077,1.78,1.78,0,1,0,.14,3.556,8.615,8.615,0,0,1,3.842.765A1.777,1.777,0,0,0,51.766,311.841ZM18.581,341.351a1.779,1.779,0,0,0-.963-2.326,6.567,6.567,0,0,1-2.879-2.336,1.78,1.78,0,0,0-2.924,2.029,10.117,10.117,0,0,0,4.441,3.595,1.778,1.778,0,0,0,2.325-.962Zm-6.742-6.336a1.779,1.779,0,0,0,1.723-1.834q0-.1,0-.194a6.071,6.071,0,0,1,.986-3.322,1.78,1.78,0,0,0-3-1.919A9.711,9.711,0,0,0,10,332.987q0,.152.005.306a1.78,1.78,0,0,0,1.777,1.724Zm42.572-23.449a1.78,1.78,0,0,0-.382,2.487,6.9,6.9,0,0,1,1.293,3.526,1.779,1.779,0,0,0,1.771,1.621c.053,0,.106,0,.16-.007a1.78,1.78,0,0,0,1.615-1.931,10.41,10.41,0,0,0-1.969-5.316A1.78,1.78,0,0,0,54.411,311.566Zm-31.572,19.46a11.552,11.552,0,0,1,.811,4.031,1.78,1.78,0,0,0,1.777,1.709H25.5a1.78,1.78,0,0,0,1.707-1.849,15.057,15.057,0,0,0-1.09-5.279,1.779,1.779,0,1,0-3.277,1.388Z" transform="translate(0 -198.023)" fill="#1ae5be"/>
      <path id="Path_40183" data-name="Path 40183" d="M237.834,18.8a3.208,3.208,0,0,0-3-1.079L133.114,35.156a6.534,6.534,0,0,0-5.352,4.866,6.762,6.762,0,0,0,2.521,7.04l12.911,9.82a4.928,4.928,0,0,0,.854.521l1.184,6.05a1.78,1.78,0,0,0,2.259,1.363h0a1.78,1.78,0,0,0,1.234-2.046l-1-5.108c.114-.036.227-.076.338-.12l73.262-29.377L167.932,63.749l-.131.1a4.936,4.936,0,0,0-1.391,1.825c-.013.03-.022.059-.034.089h0L155.1,95.335l-3.4-17.356a1.78,1.78,0,0,0-2.259-1.362h0a1.78,1.78,0,0,0-1.234,2.046l3.525,18.013a3.387,3.387,0,0,0,5.676,1.8l32.886-18.6,7.148,2.6a9.18,9.18,0,0,0,3.231.613,7.365,7.365,0,0,0,6.485-3.751l.03-.05,31.136-57.069a1.773,1.773,0,0,0,.127-.292A3.2,3.2,0,0,0,237.834,18.8Zm-91.1,35.434a1.428,1.428,0,0,1-1.39-.188l-13.033-9.91a3.067,3.067,0,0,1,1.384-5.472l90.58-15.522Zm13.042,38.8,8.207-21.524a5.006,5.006,0,0,0,1.3.714l16.6,6.042Zm44.3-15.486c-1.1,1.849-3.111,2.443-5.4,1.582L170.511,68.885a1.46,1.46,0,0,1-.841-.8,1.246,1.246,0,0,1-.059-.823l.063-.166a1.389,1.389,0,0,1,.326-.45l62.9-41.923Z" transform="translate(-82.697 0)" fill="#0635c9"/>
    </g>
    <g id="Group_51687" data-name="Group 51687" transform="translate(4936 5095.994)" clip-path="url(#clip-path-2)">
      <path id="Path_42455" data-name="Path 42455" d="M343.4,27.236s56.317,131.793-45.659,172.871S-89.6,302.089-156.517,232.271-197.467,17.917-18.563-43.32,327.925-46.4,343.4,27.236Z" transform="translate(-207.147 -41.792)" fill="#fbc00a"/>
      <path id="Path_42456" data-name="Path 42456" d="M105.714,25.127s6.577,30.526-9.239,39.014C76.128,75.06,28.429,77.635,12.739,60.609S-10.4,16.493,28.234,4.32,101.318,7.812,105.714,25.127Z" transform="matrix(-0.899, 0.438, -0.438, -0.899, 1984.086, 193.063)" fill="#30c768"/>
    </g>
  </g>
</svg>
