<svg xmlns="http://www.w3.org/2000/svg" width="23.406" height="19.332" viewBox="0 0 23.406 19.332">
  <g id="Group_53809" data-name="Group 53809" transform="translate(-62.43 -96.122)">
    <path id="Path_45648" data-name="Path 45648" d="M148.15,176.97a9.861,9.861,0,0,0-4.4-1.093.363.363,0,0,0,.016.725,9.168,9.168,0,0,1,4.044,1.007.363.363,0,0,0,.342-.64Zm0,3.067a9.874,9.874,0,0,0-4.4-1.093.363.363,0,0,0,.016.725,9.188,9.188,0,0,1,4.044,1.007.363.363,0,0,0,.342-.64Zm0,3.067a9.872,9.872,0,0,0-4.4-1.093.363.363,0,0,0,.016.725,9.182,9.182,0,0,1,4.044,1.007.363.363,0,1,0,.342-.64Z" transform="translate(-76.068 -74.934)"/>
    <path id="Path_45649" data-name="Path 45649" d="M83.348,99.217V96.138l-.533-.011c-5.451-.109-7.784,1.519-8.68,2.476-.867-.927-3.079-2.482-8.166-2.482q-.253,0-.516.005l-.533.011v3.079H62.43v16.237H71.8a.544.544,0,0,0,0-1.088H63.518v-14.06h1.4v11.8l.555-.011c6.74-.136,8.157,2.5,8.167,2.522a.543.543,0,0,0,.724.26.536.536,0,0,0,.2-.169l.02-.027c.008-.012.015-.024.022-.036s.009-.013.012-.021c.013-.026,1.362-2.534,7.677-2.534.161,0,.326,0,.494,0l.555.011v-11.8h1.4v14.06H76.464a.544.544,0,1,0,0,1.088h9.372V99.217ZM66.007,111V97.21c5.607.009,7.279,2,7.582,2.445v13.327C72.464,112.088,70.232,111.007,66.007,111Zm16.252,0c-4.225.007-6.457,1.088-7.582,1.983V99.656c.3-.444,1.973-2.436,7.582-2.445Z" transform="translate(0 0)"/>
    <path id="Path_45650" data-name="Path 45650" d="M291.349,175.877a9.866,9.866,0,0,0-4.4,1.093.363.363,0,0,0,.342.64,9.273,9.273,0,0,1,4.02-1.007h.032a.363.363,0,0,0,.008-.725Zm0,3.067a9.865,9.865,0,0,0-4.4,1.093.363.363,0,0,0,.342.64,9.22,9.22,0,0,1,4.045-1.007.369.369,0,0,0,.37-.355A.363.363,0,0,0,291.349,178.945Zm0,3.067a9.866,9.866,0,0,0-4.4,1.093.363.363,0,0,0,.342.64,9.273,9.273,0,0,1,4.02-1.007h.032a.363.363,0,0,0,.008-.726Z" transform="translate(-210.762 -74.933)"/>
  </g>
</svg>
