<svg xmlns="http://www.w3.org/2000/svg" width="28.599" height="33.002" viewBox="0 0 28.599 33.002">
  <path id="Path_44637" data-name="Path 44637" d="M38.909,17.556c-.034,0-.067.034-.1.034a.486.486,0,0,1-.235.067c-.067.034-.1.034-.168.067l-.4.2a3.3,3.3,0,0,0-.5.4l-.034.034a1.769,1.769,0,0,0-.4.47v.034l-.067-.067-.168-.168L36.59,18.4l-.2-.269a.967.967,0,0,0-.672-.3.846.846,0,0,0-.672.3l-.235.269a2.174,2.174,0,0,1-.3.269,1.553,1.553,0,0,0-.235-.235c-.067-.034-.1-.1-.134-.134a5.747,5.747,0,0,0-.47-.37,1.362,1.362,0,0,0-.3-.168.123.123,0,0,0-.1-.034,1.639,1.639,0,0,0-.235-.1c-.034,0-.067-.034-.1-.034a2.142,2.142,0,0,0-.235-.067.117.117,0,0,1-.067-.034h-.034A12.13,12.13,0,0,0,35.683,14.8,13.687,13.687,0,0,0,38.909,17.556Zm0,27.524A13.5,13.5,0,0,0,35.717,47.8a13.688,13.688,0,0,0-3.125-2.689l.4-.1a1.193,1.193,0,0,0,.3-.134c.034,0,.034-.034.067-.034a3.122,3.122,0,0,1,.336-.168,4.518,4.518,0,0,0,.47-.37l.134-.134.269-.269.3.3.235.235a.9.9,0,0,0,1.344,0l.235-.269a1.552,1.552,0,0,1,.235-.235l.034-.034a.891.891,0,0,1,.2-.168l.034.034c.134.168.269.3.4.47l.034.034a2.05,2.05,0,0,0,.538.4,3.666,3.666,0,0,1,.37.2c.034.034.1.034.134.067.1.034.168.067.269.1C38.876,45.08,38.876,45.08,38.909,45.08ZM25.6,23.907c-.2.067-.437.134-.639.2l-.336.067a.9.9,0,0,0-.571.4.885.885,0,0,0-.1.706l.1.336a3.147,3.147,0,0,1,.134.538c-.034,0-.067.034-.1.034-.134.034-.3.067-.437.1a3.392,3.392,0,0,0-.5.235l-.3.2c-.034.034-.067.067-.1.067a.733.733,0,0,0-.168.134l-.1.1c-.067.034-.1.1-.134.134l-.1.1-.067.067A13.947,13.947,0,0,0,21.4,23.1a13.753,13.753,0,0,0,4.1-1.479v.034c0,.034-.034.067-.034.1a.426.426,0,0,0-.034.2c0,.034-.034.067-.034.134s-.034.134-.034.2v.437a3.7,3.7,0,0,0,.067.6c.034.067.034.134.067.2.034.1.067.235.1.37h0ZM46.336,40.341a1.9,1.9,0,0,0,0-.437.93.93,0,0,0-.034-.3.254.254,0,0,0-.034-.134c0-.067-.034-.134-.034-.2,0-.034-.034-.1-.034-.134a1.456,1.456,0,0,0-.034-.168c0-.034-.034-.1-.034-.134-.034-.067-.034-.1-.067-.168a1.515,1.515,0,0,1,.37-.1l.336-.067a.842.842,0,0,0,.571-.437.867.867,0,0,0,.1-.706l-.1-.336a3.147,3.147,0,0,1-.134-.538c.034,0,.034,0,.067-.034.1-.034.235-.067.336-.1.067-.034.1-.034.168-.067.168-.067.3-.134.47-.2a1.362,1.362,0,0,1,.3-.168l.1-.1a.59.59,0,0,0,.168-.134l.1-.1c.034-.034.1-.067.134-.134l.1-.1c.034-.034.067-.067.067-.1A13.2,13.2,0,0,0,50,39.5a13.645,13.645,0,0,0-3.73,1.277v-.067c.034-.1.034-.2.067-.3v-.067Zm-20.87-1.008a3.7,3.7,0,0,0-.067.6v.437c0,.067.034.134.034.2a.254.254,0,0,0,.034.134c0,.067.034.134.034.2,0,.034.034.067.034.1v.034a13.753,13.753,0,0,0-4.1-1.479,13.757,13.757,0,0,0,.773-4.234l.067.067.1.1a.336.336,0,0,0,.168.134l.1.1a.7.7,0,0,0,.2.134c.034.034.067.034.1.067l.3.2c.168.067.3.134.47.2a.3.3,0,0,0,.168.034c.1.034.235.067.336.1.034,0,.034,0,.067.034a2.518,2.518,0,0,1-.134.538l-.1.336a.867.867,0,0,0,.1.706,1.058,1.058,0,0,0,.571.437l.3.067c.235.067.437.134.672.2-.034.134-.1.269-.134.4-.1.034-.1.067-.1.134ZM50,23.067a13.977,13.977,0,0,0-.773,4.268l-.1-.1-.1-.1L48.89,27l-.1-.1c-.067-.034-.1-.1-.168-.134-.034-.034-.067-.067-.1-.067a1.362,1.362,0,0,0-.3-.168,3.392,3.392,0,0,0-.5-.235H47.58c-.134-.034-.235-.067-.37-.1a2.517,2.517,0,0,1,.134-.538l.1-.336a.892.892,0,0,0-.672-1.109l-.3-.1a1.894,1.894,0,0,1-.4-.134c.034-.034.034-.1.067-.134.034-.067.034-.1.067-.168,0-.034.034-.067.034-.1.034-.067.034-.134.067-.2V23.3a.572.572,0,0,0,.034-.235c0-.1.034-.2.034-.3v-.437a.2.2,0,0,0-.034-.134.981.981,0,0,0-.067-.3v-.067A13.535,13.535,0,0,0,50,23.067ZM33.062,19.74a.033.033,0,0,0-.034.034c-.1.067-.168.1-.269.168a4.178,4.178,0,0,0-1.68,1.58,1.194,1.194,0,0,0-.134.3,1.2,1.2,0,0,0-.134.37c0,.034-.034.067-.034.1a.981.981,0,0,0-.067.3v.034h-.034c-.1-.034-.235-.067-.336-.1-.034,0-.067-.034-.1-.034a1.687,1.687,0,0,0-.4-.067c-.1,0-.168-.034-.269-.034H29.1c-.067,0-.168.034-.235.034s-.1.034-.134.034c-.067,0-.1.034-.168.034-.067.034-.134.034-.168.067-.034,0-.067.034-.134.034a.478.478,0,0,1-.2.067c-.034,0-.067.034-.1.034l-.2.1c-.034,0-.034.034-.067.034a1.927,1.927,0,0,0-.235.134h-.034a.7.7,0,0,0-.2.134,1.967,1.967,0,0,1-.067-.437,2.749,2.749,0,0,1,.571-1.512c.1-.168.168-.336.269-.47l.1-.2a7.627,7.627,0,0,0,.6-1.479,11.613,11.613,0,0,0,1.647.2,5.231,5.231,0,0,1,2.319.269A1.208,1.208,0,0,1,33.062,19.74ZM44.555,40.005a1.755,1.755,0,0,1-.134.706c0,.034-.034.034-.034.067s-.034.1-.067.1a3.074,3.074,0,0,1-.3.571l-.3.5c-.034.067-.067.1-.134.235a7.628,7.628,0,0,0-.6,1.479,11.119,11.119,0,0,0-1.613-.2h-.4a4.219,4.219,0,0,1-1.983-.269,1.769,1.769,0,0,1-.47-.4c.034,0,.034-.034.067-.034a.117.117,0,0,0,.067-.034c.067-.034.1-.067.168-.1.034-.034.067-.034.1-.067.067-.034.1-.067.168-.1.034-.034.067-.034.1-.067a.464.464,0,0,0,.134-.1c.034-.034.067-.067.1-.067l.134-.134.1-.1c.067-.034.1-.1.134-.134l.1-.1c.067-.067.1-.134.134-.168s.034-.067.067-.1l.2-.3a1.194,1.194,0,0,0,.134-.3,1.638,1.638,0,0,0,.134-.37c0-.034.034-.067.034-.1a.981.981,0,0,0,.067-.3v-.034h.034c.1.034.235.067.37.1.034,0,.067.034.1.034a1.687,1.687,0,0,0,.4.067H41.6a1.9,1.9,0,0,1,.235.034h.437a.2.2,0,0,0,.134-.034c.1,0,.168-.034.235-.034a5.523,5.523,0,0,0,1.68-.739c.034,0,.034-.034.067-.034a.74.74,0,0,1,.168.538ZM25.634,31.335l-.034.034c-.067.067-.168.134-.235.2l-.067.067c-.1.1-.168.2-.235.269a1.864,1.864,0,0,0-.2.269,1.051,1.051,0,0,0-.168.336.117.117,0,0,1-.034.067c-.034.067-.067.168-.1.235,0,.034-.034.067-.034.1a2.141,2.141,0,0,0-.067.235c0,.034-.034.1-.034.134,0,.067-.034.134-.034.2a.2.2,0,0,1-.034.134,1.456,1.456,0,0,1-.034.168V34.7a1.4,1.4,0,0,1-.336-.134,2.748,2.748,0,0,1-1.042-1.277c-.067-.1-.1-.168-.168-.269s-.134-.235-.2-.336c0-.034-.034-.034-.034-.067a5.472,5.472,0,0,0-.941-1.277,7.953,7.953,0,0,0,.975-1.277c0-.034.034-.034.034-.067.067-.1.134-.235.2-.336s.1-.168.2-.336a2.639,2.639,0,0,1,1.008-1.21,1.4,1.4,0,0,1,.336-.134v.907a.252.252,0,0,0,.034.168c0,.067,0,.1.034.134,0,.067.034.134.034.2,0,.034.034.1.034.134.034.067.034.134.067.2,0,.034.034.067.034.134.034.067.067.168.1.235,0,.034.034.067.034.1.067.1.1.235.168.336a2.059,2.059,0,0,1,.134.2,2.174,2.174,0,0,0,.269.3c.034.034.034.067.067.067a1.552,1.552,0,0,0,.235.235C25.634,31.3,25.634,31.3,25.634,31.335Zm24.163,0a11.978,11.978,0,0,0-1.008,1.311l-.134.235c-.1.134-.168.3-.269.437a.123.123,0,0,0-.034.1,2.76,2.76,0,0,1-.975,1.143,1.193,1.193,0,0,1-.3.134v-.907a.426.426,0,0,0-.034-.2.2.2,0,0,0-.034-.134c0-.067-.034-.134-.034-.2,0-.034-.034-.067-.034-.134a2.141,2.141,0,0,1-.067-.235c0-.034-.034-.067-.034-.1-.034-.067-.067-.168-.1-.235a.117.117,0,0,0-.034-.067c-.067-.1-.1-.235-.168-.336a2.059,2.059,0,0,1-.134-.2,2.174,2.174,0,0,0-.269-.3c-.034-.034-.034-.067-.067-.067l-.235-.235H45.8l.034-.034a1.553,1.553,0,0,0,.235-.235c.034-.034.067-.034.067-.067.1-.1.168-.2.235-.269a1.864,1.864,0,0,0,.2-.269,1.051,1.051,0,0,0,.168-.336.123.123,0,0,0,.034-.1l.1-.2a.2.2,0,0,0,.034-.134c.034-.067.034-.134.067-.2,0-.034.034-.1.034-.134,0-.067.034-.1.034-.168a3568.287,3568.287,0,0,0,.067-.336v-.874a1.194,1.194,0,0,1,.3.134,3.025,3.025,0,0,1,1.042,1.243c.134.235.269.437.4.672.034.034.034.067.067.067a5.507,5.507,0,0,0,.874,1.243ZM33.062,42.929a1.316,1.316,0,0,1-.336.269,4.838,4.838,0,0,1-2.386.3,11.746,11.746,0,0,0-1.613.2,8.592,8.592,0,0,0-.6-1.479.7.7,0,0,0-.134-.2c-.1-.168-.168-.336-.269-.5a2.518,2.518,0,0,1-.538-1.512,1.967,1.967,0,0,1,.067-.437.033.033,0,0,1,.034.034h.034a.7.7,0,0,1,.2.134c.034.034.067.034.134.067.034.034.1.034.134.067s.1.034.134.067.1.034.134.067l.168.067c.034.034.1.034.134.067a.2.2,0,0,0,.134.034.3.3,0,0,0,.168.034c.034,0,.1.034.134.034a.426.426,0,0,0,.2.034.254.254,0,0,1,.134.034h.4a.655.655,0,0,0,.269-.034h.034a1.687,1.687,0,0,0,.4-.067c.034,0,.067-.034.1-.034.134-.034.235-.067.37-.1h.034v.034c.034.1.034.2.067.3,0,.034.034.067.034.1a1.638,1.638,0,0,0,.134.37c.034.1.1.2.134.3A4.3,4.3,0,0,0,33.062,42.9c-.034,0,0,0,0,.034ZM44.555,22.6v.067a1.57,1.57,0,0,1-.1.571c-.034,0-.034-.034-.067-.034a5.179,5.179,0,0,0-1.445-.672h-.034a.981.981,0,0,0-.3-.067.123.123,0,0,1-.1-.034c-.067,0-.168-.034-.235-.034h-.4a.931.931,0,0,0-.3.034c-.134.034-.269.034-.4.067a.123.123,0,0,0-.1.034c-.134.034-.235.067-.37.1h-.034v-.067c-.034-.1-.034-.2-.067-.3,0-.034-.034-.067-.034-.1a1.006,1.006,0,0,0-.134-.336,2.664,2.664,0,0,0-.134-.3l-.034-.034c-.067-.1-.1-.168-.168-.269-.034-.034-.067-.067-.067-.1-.034-.067-.1-.1-.134-.168l-.1-.1-.134-.134-.1-.1c-.034-.034-.1-.067-.134-.134l-.1-.1c-.034-.034-.1-.067-.134-.1s-.067-.067-.1-.067a.464.464,0,0,1-.134-.1.175.175,0,0,0-.134-.067c-.034-.034-.1-.067-.134-.1a.255.255,0,0,0-.134-.067.033.033,0,0,1-.034-.034,1.645,1.645,0,0,1,.437-.4,4.9,4.9,0,0,1,2.016-.3h.4a11.747,11.747,0,0,0,1.613-.2,8.592,8.592,0,0,0,.6,1.479l.034.067c.034.067.067.1.067.134l.3.5a4.182,4.182,0,0,1,.336.672c0,.034.034.034.034.067A1.368,1.368,0,0,1,44.555,22.6ZM44.488,20.177Zm-13.611,4.7-.034.034c-.2.134-.37.3-.538.437a.464.464,0,0,1-.134.1,3.346,3.346,0,0,0-.47.5l-.034.034a3.669,3.669,0,0,0-.437.571c-.034.034-.067.1-.1.134-.134.2-.269.4-.37.571-.034.034-.034.067-.067.1-.1.2-.2.37-.3.571-.034.034-.034.067-.067.134-.1.2-.168.437-.269.639-.034.067-.034.1-.067.168-.067.2-.134.437-.2.672v.034a5.217,5.217,0,0,0-.134.706.123.123,0,0,1-.034.1c-.067,0-.168-.034-.235-.034a1.669,1.669,0,0,1-1.008-.739.1.1,0,0,1-.034-.067,2.97,2.97,0,0,1-.269-1.613V27.3a.655.655,0,0,0-.034-.269V27c-.034-.4-.1-.84-.168-1.243.4-.134.773-.3,1.176-.47.067-.034.1-.067.168-.067a.123.123,0,0,1,.1-.034,3.191,3.191,0,0,0,.571-.336,2.84,2.84,0,0,1,1.546-.571H29.6a1.886,1.886,0,0,1,1.075.5C30.776,24.748,30.81,24.815,30.877,24.882Zm0,12.905a.59.59,0,0,0-.134.168,1.7,1.7,0,0,1-1.008.5c-.034,0-.2,0-.235.034a3.254,3.254,0,0,1-1.546-.571c-.2-.1-.37-.235-.571-.336a.123.123,0,0,0-.1-.034c-.067-.034-.1-.067-.168-.1a8.2,8.2,0,0,0-1.143-.47,5.045,5.045,0,0,0,.168-1.243V35.7a1.9,1.9,0,0,1,.034-.235V34.8a2.97,2.97,0,0,1,.269-1.613c.034-.034.034-.067.1-.134a1.781,1.781,0,0,1,.975-.672.426.426,0,0,1,.2-.034.123.123,0,0,0,.034.1,5.218,5.218,0,0,0,.134.706v.034c.067.235.134.471.2.672a.2.2,0,0,1,.034.134,5.6,5.6,0,0,0,.269.672c.034.034.034.067.067.134.1.2.2.37.3.571.034.034.034.067.067.1.134.2.235.4.37.6.034.034.067.1.1.134.134.2.3.37.437.571l.034.034c.168.168.3.336.471.5l.1.1a3.917,3.917,0,0,1,.538.37c-.034-.034-.034,0,0,0Zm7.965,2.386c-.034.034,0,0,0,.067a.1.1,0,0,0-.034.067,3.146,3.146,0,0,1-1.277,1.042c-.2.1-.4.235-.571.336-.034.034-.034.034-.067.034-.034.034-.067.067-.1.067l-.1.067a7.584,7.584,0,0,0-.975.773c-.269-.235-.571-.47-.874-.706-.034-.034-.1-.067-.134-.1l-.134-.1-.067-.067c-.2-.134-.4-.235-.571-.336a3.146,3.146,0,0,1-1.277-1.042c0-.034-.034-.067-.034-.134a1.784,1.784,0,0,1-.1-1.176c.034-.067.034-.134.067-.2a.033.033,0,0,1,.034.034c.235.1.47.168.672.269a.117.117,0,0,1,.067.034,6.039,6.039,0,0,0,1.512.3h.84c.269,0,.538-.034.807-.034h.034a10.032,10.032,0,0,0,1.512-.3c.034,0,.067-.034.1-.034.235-.067.437-.168.672-.235.034,0,.034,0,.067-.034.034.067.034.134.067.2a2.124,2.124,0,0,1-.134,1.21Zm.1-16.5c-.034.067-.034.134-.067.2a.123.123,0,0,0-.1-.034c-.2-.067-.37-.134-.571-.2l-.3-.1-.4-.1c-.1-.034-.2-.034-.269-.067l-.6-.1c-.1,0-.168-.034-.269-.034-.168,0-.37-.034-.538-.034h-.269a2.891,2.891,0,0,0-.538.034c-.1,0-.168.034-.269.034l-.6.1c-.1.034-.2.034-.269.067l-.4.1-.3.1c-.2.067-.37.134-.571.2-.034,0-.067.034-.1.034-.034-.067-.034-.134-.067-.2a2.219,2.219,0,0,1,0-.941l.1-.3a.1.1,0,0,0,.034-.067,3.146,3.146,0,0,1,1.277-1.042c.2-.1.4-.235.639-.37l.1-.067a.7.7,0,0,0,.2-.134,4.467,4.467,0,0,0,.874-.706,7.584,7.584,0,0,0,.975.773.735.735,0,0,0,.168.1l.034.034c.034,0,.034.034.067.034.2.134.4.235.571.336a3.147,3.147,0,0,1,1.277,1.042c0,.034.034.067.034.134a1.476,1.476,0,0,1,.168,1.176ZM45.5,25.689a5.045,5.045,0,0,0-.168,1.243v.034a1.9,1.9,0,0,1-.034.235v.672a3.344,3.344,0,0,1-.235,1.613c-.034.034-.034.067-.1.134a1.781,1.781,0,0,1-.975.672.426.426,0,0,1-.2.034v-.1a5.217,5.217,0,0,0-.134-.706v-.034c-.067-.235-.134-.47-.2-.672a.2.2,0,0,1-.034-.134,5.6,5.6,0,0,0-.269-.672c0-.034-.034-.067-.034-.1l-.3-.6a.1.1,0,0,1-.034-.067,6.3,6.3,0,0,0-.4-.6.464.464,0,0,1-.1-.134c-.134-.2-.3-.4-.437-.571l-.5-.5-.1-.1c-.168-.168-.37-.3-.571-.47a.033.033,0,0,1-.034-.034c.067-.067.1-.134.134-.168a1.7,1.7,0,0,1,1.008-.5c.034,0,.2,0,.235-.034a2.934,2.934,0,0,1,1.546.571,4.694,4.694,0,0,0,.571.3,1.981,1.981,0,0,0,.269.134.123.123,0,0,0,.1.034A2.651,2.651,0,0,0,45.5,25.689Zm0,11.292a8.364,8.364,0,0,0-.975.37c-.067,0-.1.034-.168.067-.1.034-.2.1-.3.134-.2.1-.4.235-.571.336a2.84,2.84,0,0,1-1.546.571h-.168a1.886,1.886,0,0,1-1.075-.5.733.733,0,0,1-.134-.168.033.033,0,0,0,.034-.034c.2-.134.37-.3.538-.437a.464.464,0,0,1,.134-.1l.47-.47a.033.033,0,0,1,.034-.034,3.669,3.669,0,0,0,.437-.571c.034-.034.067-.1.1-.134a5.846,5.846,0,0,0,.37-.6.123.123,0,0,0,.034-.1c.1-.2.2-.37.3-.571.034-.034.034-.067.067-.1.1-.2.168-.437.269-.672a.2.2,0,0,0,.034-.134c.067-.235.134-.437.2-.672v-.034a5.217,5.217,0,0,0,.134-.706v-.1c.067,0,.168.034.235.034a1.669,1.669,0,0,1,1.008.739.1.1,0,0,1,.034.067,2.97,2.97,0,0,1,.269,1.613V35.4a.655.655,0,0,0,.034.269V35.7A7.791,7.791,0,0,0,45.5,36.981ZM42,31.167v.3a6.322,6.322,0,0,1-.874,3.025,6.1,6.1,0,0,1-2.218,2.218.033.033,0,0,0-.034.034c-.034.034-.067.034-.1.067a6.376,6.376,0,0,1-6.116,0,.1.1,0,0,0-.067-.034c-.034-.034-.067-.034-.1-.067a6.228,6.228,0,0,1-3.025-5.243v-.3a6.322,6.322,0,0,1,.874-3.025,6.1,6.1,0,0,1,2.218-2.218.033.033,0,0,0,.034-.034c.034-.034.067-.034.1-.067a6.376,6.376,0,0,1,6.116,0c.034.034.067.034.1.067s.067.034.1.067A6.293,6.293,0,0,1,42,31.167Z" transform="translate(-21.4 -14.8)" fill="#91b"/>
</svg>
