<svg xmlns="http://www.w3.org/2000/svg" xmlns:xlink="http://www.w3.org/1999/xlink" width="64" height="75" viewBox="0 0 64 75">
  <defs>
    <clipPath id="clip-path">
      <rect id="Rectangle_20827" data-name="Rectangle 20827" width="64" height="75" transform="translate(166 666.643)" fill="#fff" stroke="#707070" stroke-width="1"/>
    </clipPath>
  </defs>
  <g id="Mask_Group_1" data-name="Mask Group 1" transform="translate(-166 -666.643)" clip-path="url(#clip-path)">
    <g id="Group_54531" data-name="Group 54531" transform="translate(152.286 660.143)">
      <path id="Polygon_2" data-name="Polygon 2" d="M51.422,0a3,3,0,0,1,2.59,1.485l15.96,27.286a3,3,0,0,1,0,3.029L54.012,59.086a3,3,0,0,1-2.59,1.485H19.435a3,3,0,0,1-2.59-1.485L.886,31.8a3,3,0,0,1,0-3.029L16.846,1.485A3,3,0,0,1,19.435,0Z" transform="translate(30 0.5) rotate(30)" fill="#ffa199"/>
      <g id="Group_55084" data-name="Group 55084" transform="translate(-26.286 2.5)">
        <path id="Path_46273" data-name="Path 46273" d="M225.432,420.571,224,422l1.179,2.948,1.179.59h.59l.59-.765v-2.184Z" transform="translate(-155.617 -367.34)" fill="#a8a8a8"/>
        <path id="Path_46274" data-name="Path 46274" d="M241.474,299.794,240,297.435l2.948-4.128L241.179,288l4.717,4.717Z" transform="translate(-170.437 -244.54)" fill="#961b20"/>
        <path id="Path_46275" data-name="Path 46275" d="M63.16,336.6l-4.128-.59a.59.59,0,0,0-.673.584v1.769h-.59a1.769,1.769,0,1,0,1.769,1.769v-2.858l2.948.421v1.258H61.9a1.769,1.769,0,1,0,1.769,1.769v-3.538a.59.59,0,0,0-.506-.584Z" transform="translate(0 -289.002)" fill="#fbb540"/>
        <path id="Path_46276" data-name="Path 46276" d="M405.45,210.376l-1.912-.478v-.553l1.626.407a.59.59,0,1,0,.286-1.144l-2.359-.59a.59.59,0,0,0-.733.572v2.359h-.59a1.769,1.769,0,1,0,1.769,1.769v-1.6l1.626.407a.59.59,0,1,0,.286-1.144Z" transform="translate(-318.644 -170.437)" fill="#02a437"/>
        <path id="Path_46277" data-name="Path 46277" d="M233.485,97.769,232.305,96h-1.568l-.59,1.769-.147.885h3.485Z" transform="translate(-161.174 -66.693)" fill="#fdc9a6"/>
        <path id="Path_46278" data-name="Path 46278" d="M239.165,96.785a1.768,1.768,0,0,1-2.325-.086l.233-.7h1.569Z" transform="translate(-167.51 -66.693)" fill="#f6bb92"/>
        <path id="Path_46279" data-name="Path 46279" d="M213.106,120l1.38.59v2.948h0a7.022,7.022,0,0,1,1.179,3.9v1.412h-5.9V127.32a4.269,4.269,0,0,0-.854-2.562l-.915-1.22V120.59l1.769-.59.1.1a2.226,2.226,0,0,0,3.24-.1Z" transform="translate(-140.796 -88.924)" fill="#537cd8"/>
        <path id="Path_46280" data-name="Path 46280" d="M169.179,132.01l1.769-1.061V128L168,129.638Z" transform="translate(-103.744 -96.334)" fill="#5d70b3"/>
        <path id="Path_46281" data-name="Path 46281" d="M123.538,150.222l-2.359,1.31-1.179,5.9V159.2l2.359.59.59-1.179-.59-1.179,1.179-4.128,1.179-.708Z" transform="translate(-59.283 -116.918)" fill="#fdc9a6"/>
        <rect id="Rectangle_21159" data-name="Rectangle 21159" width="3.538" height="4.717" rx="1.769" transform="translate(72.31 29.897) rotate(180)" fill="#fdc9a6"/>
        <path id="Path_46282" data-name="Path 46282" d="M220.517,26.359v-.9A1.458,1.458,0,0,0,219.059,24h0a1.458,1.458,0,0,0-1.3.806l-.187.374h-.175a1.393,1.393,0,0,0-1.322.952h0a1.393,1.393,0,0,0,.336,1.425l.571.571,1.769-1.769Z" transform="translate(-148.207)" fill="#55300b"/>
        <path id="Path_46283" data-name="Path 46283" d="M248.824,255.332l4.483-7.076-4.5-4.489A2.8,2.8,0,0,1,248,241.8V240h4.717v1.179l3.034,5.057a3.538,3.538,0,0,1,.5,1.821v.22a3.538,3.538,0,0,1-.686,2.093l-3.643,4.962Z" transform="translate(-177.848 -200.079)" fill="#d32b39"/>
        <path id="Path_46284" data-name="Path 46284" d="M262.116,448l1.38,2.948h-2.359L259.02,449.7,259,448Z" transform="translate(-188.037 -392.747)" fill="#cbcbcb"/>
        <path id="Path_46285" data-name="Path 46285" d="M328,33.671l3.538-1.415.59-4.717V25.179L331.538,24h-1.769v1.179l-.59,1.179.59,1.179-.59,2.948L328,30.88Z" transform="translate(-251.951)" fill="#fdc9a6"/>
        <path id="Path_46286" data-name="Path 46286" d="M298.359,117.333l-2.359.786v2.948l2.359-.943Z" transform="translate(-222.309 -86.453)" fill="#5d70b3"/>
        <path id="Path_46287" data-name="Path 46287" d="M104.845,126.739a.588.588,0,0,1-.417-.173l-.345-.345a3.415,3.415,0,0,1-1.007-2.43.59.59,0,1,1,1.179,0,2.243,2.243,0,0,0,.661,1.6l.345.345a.59.59,0,0,1-.417,1.007ZM96.59,116.714a.59.59,0,0,1-.56-.776l.173-.518a3.748,3.748,0,0,1,1.892-2.182.59.59,0,1,1,.527,1.055,2.576,2.576,0,0,0-1.3,1.5l-.173.518A.59.59,0,0,1,96.59,116.714Zm3.539-3.243a.59.59,0,0,1-.264-1.117l.59-.295a.59.59,0,1,1,.527,1.055l-.59.295A.588.588,0,0,1,100.128,113.471Zm17.69,2.889a.59.59,0,0,1-.219-1.137.778.778,0,0,0,.45-.477l.389-1.167a.59.59,0,1,1,1.119.373l-.389,1.167a1.955,1.955,0,0,1-1.131,1.2A.588.588,0,0,1,117.818,116.36Zm-2.359.943a.59.59,0,0,1-.219-1.137l.59-.236a.59.59,0,1,1,.438,1.1l-.59.236A.59.59,0,0,1,115.46,117.3Zm-11.794,4.717a.59.59,0,0,1-.59-.59v-.59a.59.59,0,1,1,1.179,0v.59A.59.59,0,0,1,103.666,122.021Z" transform="translate(-37.052 -81.51)" fill="#43dcfe"/>
      </g>
    </g>
  </g>
</svg>
