<svg id="Group_51692" data-name="Group 51692" xmlns="http://www.w3.org/2000/svg" width="20.218" height="21.346" viewBox="0 0 20.218 21.346">
  <path id="Path_42459" data-name="Path 42459" d="M8.523,19.264h-4.3a2.545,2.545,0,0,1-2.535-2.526V8.177A1.581,1.581,0,0,1,2.255,6.97l.758-.561A.842.842,0,0,0,2.04,5.071h0l-.777.58A3.256,3.256,0,0,0,0,8.177v8.57a4.229,4.229,0,0,0,4.219,4.219h4.3a.842.842,0,1,0,0-1.684Z" transform="translate(0 0.379)"/>
  <path id="Path_42460" data-name="Path 42460" d="M19.847,8.538a3.284,3.284,0,0,0-1.226-2.526L12.157.856a3.883,3.883,0,0,0-4.865,0L5.243,2.344a.858.858,0,1,0,1,1.394L8.321,2.185a2.208,2.208,0,0,1,2.807,0L17.592,7.34a1.581,1.581,0,0,1,.6,1.216v8.57a2.526,2.526,0,0,1-2.526,2.526H13.747a.356.356,0,0,1-.355-.356V15.433A2.236,2.236,0,0,0,11.165,13.2H8.358a2.236,2.236,0,0,0-2.236,2.236v1.478a.842.842,0,0,0,1.684,0V15.433a.543.543,0,0,1,.543-.552h2.807a.543.543,0,0,1,.543.543h0V19.3a2.049,2.049,0,0,0,2.049,2.04h1.871a4.219,4.219,0,0,0,4.219-4.219Z" transform="translate(0.371 0)"/>
</svg>
