<svg xmlns="http://www.w3.org/2000/svg" xmlns:xlink="http://www.w3.org/1999/xlink" width="49.2" height="49.2" viewBox="0 0 49.2 49.2">
  <defs>
    <clipPath id="clip-path">
      <rect id="Rectangle_20588" data-name="Rectangle 20588" width="26" height="28" transform="translate(-1 -1.5)" fill="#d86745" stroke="#d86745" stroke-width="1"/>
    </clipPath>
  </defs>
  <g id="Group_52266" data-name="Group 52266" transform="translate(-1080.4 -120.4)">
    <path id="Path_43881" data-name="Path 43881" d="M24.6,0A24.6,24.6,0,1,1,0,24.6,24.6,24.6,0,0,1,24.6,0Z" transform="translate(1080.4 120.4)" fill="#ffe7e1"/>
    <g id="Group_52267" data-name="Group 52267" transform="translate(1093.4 132.9)" clip-path="url(#clip-path)">
      <path id="Path_43885" data-name="Path 43885" d="M11.5,24.5a.5.5,0,0,1-.242-.063C10.879,24.228,2,19.243,2,13V2.156a.5.5,0,0,1,.834-.372A5.486,5.486,0,0,0,6.5,3.184,5.5,5.5,0,0,0,11.085.723a.5.5,0,0,1,.833,0A5.486,5.486,0,0,0,16.5,3.185a5.492,5.492,0,0,0,3.635-1.371.527.527,0,0,1,.832.164A.517.517,0,0,1,21,2.2V13c0,6.243-8.88,11.229-9.258,11.438A.517.517,0,0,1,11.5,24.5ZM3,3.163V13c0,5.122,7.088,9.584,8.5,10.422C12.91,22.584,20,18.117,20,13V3.164a6.494,6.494,0,0,1-3.5,1.021,6.488,6.488,0,0,1-5-2.348,6.484,6.484,0,0,1-5,2.348A6.493,6.493,0,0,1,3,3.163Z" fill="#d86745" stroke="#d86745" stroke-width="1"/>
      <path id="Path_43886" data-name="Path 43886" d="M14.5,15.5a.5.5,0,0,1-.354-.146l-6-6a.5.5,0,0,1,.707-.707l6,6a.5.5,0,0,1-.353.853Z" fill="#d86745" stroke="#d86745" stroke-width="1"/>
      <path id="Path_43887" data-name="Path 43887" d="M8.5,15.5a.5.5,0,0,1-.354-.853l6-6a.5.5,0,1,1,.707.707l-6,6A.5.5,0,0,1,8.5,15.5Z" fill="#d86745" stroke="#d86745" stroke-width="1"/>
    </g>
  </g>
</svg>
