<svg xmlns="http://www.w3.org/2000/svg" width="72.656" height="96.087" viewBox="0 0 72.656 96.087">
  <g id="Group_51615" data-name="Group 51615" transform="translate(-8.198 -2.296)">
    <path id="Path_42243" data-name="Path 42243" d="M38.8,38.239l-.02,3.176a3.378,3.378,0,0,1-.2,1.171c-1.151,3.692-6.882,5.141-10.7,5.141v-.02c-4.474,0-11-1.963-11-6.352l.02-3.136c-.02-1.608,1.052-3.255,3.176-4.486a17.032,17.032,0,0,1,15.482,0C37.729,34.964,38.8,36.611,38.8,38.239Z" transform="translate(8.559 29.129)" fill="#2d2c2b"/>
    <path id="Path_42244" data-name="Path 42244" d="M38.8,35.111l-.012,3.184c0,1.614-1.064,3-3.182,4.234-4.264,2.479-11.195,2.7-15.484.222-2.16-1.246-3.239-2.882-3.235-4.516l.012-3.186c0,1.634,1.074,3.269,3.235,4.518a17.062,17.062,0,0,0,15.482,0c2.12-1.231,3.18-2.842,3.184-4.454Z" transform="translate(8.558 32.258)" fill="#434240"/>
    <path id="Path_42245" data-name="Path 42245" d="M33.976,39.534c-4.242,2.465-11.125,2.477-15.42.038v3.192c4.3,2.431,11.171,2.418,15.409-.046,2.118-1.231,3.178-2.84,3.182-4.454l.012-3.184c0,1.612-1.064,3.223-3.182,4.454Z" transform="translate(10.2 32.288)" fill="#383736"/>
    <path id="Path_42246" data-name="Path 42246" d="M30.165,39.534a15.738,15.738,0,0,1-7.741,1.856v3.186a15.714,15.714,0,0,0,7.729-1.858c2.118-1.231,3.178-2.84,3.182-4.454l.012-3.184c0,1.612-1.064,3.223-3.182,4.454Z" transform="translate(14.011 32.288)" fill="#2d2c2b"/>
    <path id="Path_42247" data-name="Path 42247" d="M26.636,39.534c-.2.117-.415.228-.629.333v3.18c.21-.105.417-.212.617-.329,2.118-1.231,3.178-2.84,3.182-4.454l.012-3.184c0,1.612-1.064,3.223-3.182,4.454Z" transform="translate(17.54 32.288)" fill="#21201f"/>
    <path id="Path_42248" data-name="Path 42248" d="M35.565,33.727c4.287,2.477,4.307,6.491.048,8.97a17.064,17.064,0,0,1-15.486,0c-4.291-2.477-4.313-6.493-.05-8.972a17.07,17.07,0,0,1,15.486,0Z" transform="translate(8.564 29.126)" fill="#494847"/>
    <path id="Path_42249" data-name="Path 42249" d="M22.258,44.388l-2.152-1.177a71.434,71.434,0,0,0,1.332-13.557l2.154,1.177A71.507,71.507,0,0,1,22.26,44.388Z" transform="translate(11.728 26.944)" fill="#c4c2c0"/>
    <path id="Path_42250" data-name="Path 42250" d="M22.931,32.312l-2.154-1.177L25.95,28.15,28.1,29.327Z" transform="translate(12.389 25.463)" fill="#e0e2e2"/>
    <path id="Path_42251" data-name="Path 42251" d="M27.7,28.743A50.405,50.405,0,0,0,29.1,40.718l-7.91,4.565a71.419,71.419,0,0,0,1.332-13.557L27.7,28.743Z" transform="translate(12.796 26.047)" fill="#d6d4d2"/>
    <path id="Path_42252" data-name="Path 42252" d="M14.108,41.988,8.7,38.844a1.055,1.055,0,0,1-.437-.967l5.411,3.144a1.054,1.054,0,0,0,.437.967Z" transform="translate(0.06 35.043)" fill="#b2b0af"/>
    <path id="Path_42253" data-name="Path 42253" d="M13.678,43.383,8.265,40.239l-.014-4.76,5.413,3.146Z" transform="translate(0.052 32.681)" fill="#c4c2c0"/>
    <path id="Path_42254" data-name="Path 42254" d="M59.532,22.94l.014,4.76a3.3,3.3,0,0,1-1.5,2.6L12.5,56.6c-.832.478-1.5.091-1.509-.863l-.012-4.758Z" transform="translate(2.738 20.332)" fill="#e9e8e6"/>
    <path id="Path_42255" data-name="Path 42255" d="M62.266,43.27,13.716,71.3,8.3,68.16,8.2,31.38l.02.02a3.3,3.3,0,0,1,1.489-2.6L55.259,2.5a1.069,1.069,0,0,1,1.072-.1l5.339,3.116a1.033,1.033,0,0,1,.516.992Z" transform="translate(0 0.002)" fill="#494948"/>
    <path id="Path_42256" data-name="Path 42256" d="M32.976,2.4l5.411,3.146a1.058,1.058,0,0,0-1.072.105L31.908,2.5a1.059,1.059,0,0,1,1.07-.105Z" transform="translate(23.351)" fill="#434240"/>
    <path id="Path_42257" data-name="Path 42257" d="M13.715,56.864,8.3,53.722,8.2,16.954,13.618,20.1Z" transform="translate(0.005 14.436)" fill="#494948"/>
    <path id="Path_42258" data-name="Path 42258" d="M13.685,45.822,8.271,42.68,8.233,28.165l5.415,3.144Z" transform="translate(0.034 25.478)" fill="#383736"/>
    <path id="Path_42259" data-name="Path 42259" d="M14.37,31.842,8.959,28.7,54.508,2.4l5.411,3.146Z" transform="translate(0.749 0.103)" fill="#494948"/>
    <path id="Path_42260" data-name="Path 42260" d="M14.37,25.3,8.959,22.152,31.66,9.046l5.411,3.144Z" transform="translate(0.749 6.648)" fill="#383736"/>
    <path id="Path_42261" data-name="Path 42261" d="M14.37,21.559,8.959,18.415l9.654-5.574,5.411,3.144Z" transform="translate(0.749 10.386)" fill="#2d2c2b"/>
    <path id="Path_42262" data-name="Path 42262" d="M13.615,21.391,8.2,18.245a3.3,3.3,0,0,1,1.5-2.6l5.411,3.144a3.3,3.3,0,0,0-1.5,2.6Z" transform="translate(0.006 13.151)" fill="#494948"/>
    <path id="Path_42263" data-name="Path 42263" d="M57.977,4.088c.832-.48,1.509-.1,1.509.859l.1,36.764L11.024,69.745l-.093-36.764a3.3,3.3,0,0,1,1.5-2.6Z" transform="translate(2.692 1.561)" fill="#21201f"/>
    <path id="Path_42264" data-name="Path 42264" d="M57.579,40.125,52.738,42.92l-11.266,6.5-6.344,3.664L11.69,66.619l-.008-3.293L11.6,32.16a2.018,2.018,0,0,1,.834-1.439l11.9-6.87L49.073,9.568,55.417,5.9l2.07-1.195.06,23.2.032,12.215Z" transform="translate(3.354 2.377)" fill="#0780d3"/>
    <g id="Group_51615-2" data-name="Group 51615" transform="translate(15.036 7.088)">
      <path id="Path_42265" data-name="Path 42265" d="M49.034,9.569,35.088,53.087,11.651,66.62l-.008-3.293,12.65-39.475Zm8.473,18.34L52.7,42.919l-11.266,6.5L55.378,5.9l2.07-1.195Z" transform="translate(-11.643 -4.71)" fill="#3f9ae0"/>
    </g>
    <path id="Path_42266" data-name="Path 42266" d="M15.935,19.9a4.53,4.53,0,0,0-1.878,1.173,4.817,4.817,0,0,0-1.173,1.878.245.245,0,0,1-.47,0A4.732,4.732,0,0,0,9.363,19.9a.23.23,0,0,1,0-.449,5,5,0,0,0,1.9-1.171,4.876,4.876,0,0,0,1.151-1.88.24.24,0,0,1,.47,0,4.654,4.654,0,0,0,1.173,1.878,4.743,4.743,0,0,0,1.878,1.173.23.23,0,0,1,0,.449Z" transform="translate(0.972 13.698)" fill="#fff"/>
    <path id="Path_42267" data-name="Path 42267" d="M23.447,31.089l.73.425a.877.877,0,0,0-.885.087l-.732-.425a.886.886,0,0,1,.887-.087Z" transform="translate(14.145 28.276)" fill="#cc4848"/>
    <path id="Path_42268" data-name="Path 42268" d="M23.031,34.466,22.3,34.04a.873.873,0,0,1-.363-.8,2.749,2.749,0,0,1,1.241-2.15l.732.425a2.733,2.733,0,0,0-1.241,2.15A.871.871,0,0,0,23.031,34.466Z" transform="translate(13.529 28.361)" fill="#f25a5a"/>
    <path id="Path_42269" data-name="Path 42269" d="M23.032,33.4l-.734-.431a.847.847,0,0,1-.361-.79l.734.417A.866.866,0,0,0,23.032,33.4Z" transform="translate(13.53 29.428)" fill="#cc4848"/>
    <path id="Path_42270" data-name="Path 42270" d="M23.546,31.391c.687-.4,1.247-.079,1.25.713a2.745,2.745,0,0,1-1.243,2.15c-.687.4-1.247.077-1.25-.713a2.745,2.745,0,0,1,1.243-2.15Z" transform="translate(13.892 28.487)" fill="#c44141"/>
    <path id="Path_42271" data-name="Path 42271" d="M70.522,41.231a1.1,1.1,0,0,1-.637.883L34.364,62.626a3.278,3.278,0,0,1-3.017,0L19.3,55.633a1.046,1.046,0,0,1-.588-.857l-.024-3.057a1.077,1.077,0,0,0,.613.859l12.044,6.993a3.351,3.351,0,0,0,3.017,0l35.523-20.51a1.04,1.04,0,0,0,.613-.834l.024,3.005Z" transform="translate(10.33 35.389)" fill="#8d9799"/>
    <path id="Path_42272" data-name="Path 42272" d="M68.192,38.227a1.039,1.039,0,0,1-.615.834L32.059,59.57a3.351,3.351,0,0,1-3.017,0L21.029,54.92v3.055l8.011,4.651a3.278,3.278,0,0,0,3.017,0L67.58,42.115a1.092,1.092,0,0,0,.637-.883l-.024-3.005Z" transform="translate(12.637 35.388)" fill="#7e8a8c"/>
    <path id="Path_42273" data-name="Path 42273" d="M65.234,38.227a1.039,1.039,0,0,1-.615.834L29.1,59.57a3.351,3.351,0,0,1-3.017,0l-2.052-1.191v3.055l2.05,1.191a3.278,3.278,0,0,0,3.017,0l35.523-20.51a1.092,1.092,0,0,0,.637-.883l-.024-3.005Z" transform="translate(15.595 35.388)" fill="#6d797a"/>
    <path id="Path_42274" data-name="Path 42274" d="M61.353,38.227a1.039,1.039,0,0,1-.615.834L27.973,57.979v3.055L60.739,42.117a1.1,1.1,0,0,0,.637-.885l-.024-3.005Z" transform="translate(19.476 35.388)" fill="#8d9799"/>
    <path id="Path_42275" data-name="Path 42275" d="M53.752,38.227a1.039,1.039,0,0,1-.615.834L35.69,49.136v3.055L53.137,42.115a1.091,1.091,0,0,0,.639-.883l-.024-3.005Z" transform="translate(27.076 35.388)" fill="#7e8a8c"/>
    <path id="Path_42276" data-name="Path 42276" d="M48.16,38.227a1.039,1.039,0,0,1-.615.834l-6.177,3.561v3.055l6.179-3.561a1.092,1.092,0,0,0,.637-.883l-.024-3.005Z" transform="translate(32.668 35.388)" fill="#6d797a"/>
    <path id="Path_42277" data-name="Path 42277" d="M19.324,54.931c-.83.478-.85,1.264-.024,1.745l12.044,7a3.336,3.336,0,0,0,3.013-.008l35.521-20.51a.918.918,0,0,0,.01-1.737l-12.044-7a3.3,3.3,0,0,0-3,0Z" transform="translate(10.334 31.285)" fill="#a0a8aa"/>
    <path id="Path_42278" data-name="Path 42278" d="M39.326,43.15c-.145.083-.139.212,0,.294l2.723,1.582a.55.55,0,0,0,.488-.01l2.735-1.58a.149.149,0,0,0,.008-.276l-2.725-1.582a.556.556,0,0,0-.492-.008l-2.737,1.58Zm-4.742,2.739c-.139.079-.133.206.006.288l2.723,1.584a.543.543,0,0,0,.482-.008l2.741-1.584a.145.145,0,0,0,0-.27l-2.725-1.584a.544.544,0,0,0-.486-.01l-2.743,1.582Zm-4.736,2.733a.154.154,0,0,0,0,.292L32.571,50.5a.556.556,0,0,0,.488-.01L35.8,48.9a.146.146,0,0,0,0-.272L33.077,47.05a.544.544,0,0,0-.486-.012l-2.743,1.584Zm-4.734,2.733c-.147.085-.141.212,0,.294l2.723,1.584a.544.544,0,0,0,.488-.012l2.735-1.58a.147.147,0,0,0,.008-.274l-2.723-1.584a.556.556,0,0,0-.494-.008l-2.735,1.58ZM20.37,54.094c-.139.079-.133.208.006.288L23.1,55.966a.539.539,0,0,0,.48-.008l2.741-1.582a.146.146,0,0,0,0-.272L23.6,52.52a.544.544,0,0,0-.488-.01l-2.741,1.584ZM51.007,36.405c-.139.081-.133.21,0,.29l2.725,1.584a.539.539,0,0,0,.48-.008l2.743-1.582a.146.146,0,0,0,0-.272l-2.723-1.584a.544.544,0,0,0-.486-.01l-2.743,1.582ZM46.271,39.14a.156.156,0,0,0,0,.294l2.723,1.582a.556.556,0,0,0,.488-.01l2.741-1.584a.146.146,0,0,0,0-.272L49.5,37.568a.544.544,0,0,0-.486-.012L46.271,39.14ZM43.71,45.7c-.147.085-.141.212,0,.294l2.723,1.584a.544.544,0,0,0,.488-.012l2.735-1.58a.147.147,0,0,0,.008-.274L46.94,44.124a.556.556,0,0,0-.494-.008L43.71,45.7Zm-4.744,2.739c-.139.079-.133.208.006.288L41.7,50.307a.539.539,0,0,0,.48-.008l2.743-1.582a.146.146,0,0,0,0-.272L42.2,46.861a.544.544,0,0,0-.488-.01l-2.741,1.584Zm-4.734,2.733a.156.156,0,0,0,0,.294l2.725,1.582a.556.556,0,0,0,.486-.01l2.743-1.584a.145.145,0,0,0,0-.27L37.462,49.6a.544.544,0,0,0-.488-.012l-2.741,1.584ZM29.5,53.9c-.147.083-.139.212,0,.292l2.723,1.584a.54.54,0,0,0,.486-.012l2.737-1.578a.149.149,0,0,0,.008-.276L32.726,52.33a.556.556,0,0,0-.494-.006L29.5,53.9Zm-4.744,2.737c-.139.079-.133.208.006.29l2.725,1.582a.545.545,0,0,0,.48-.006l2.743-1.584a.146.146,0,0,0,0-.272l-2.723-1.582a.544.544,0,0,0-.488-.012l-2.741,1.584ZM55.389,38.954c-.139.079-.133.208.006.29l2.723,1.582a.549.549,0,0,0,.482-.006l2.741-1.584a.146.146,0,0,0,0-.272l-2.725-1.582a.544.544,0,0,0-.486-.012Zm-4.734,2.733a.156.156,0,0,0,0,.294l2.723,1.584a.556.556,0,0,0,.488-.012l2.741-1.584a.144.144,0,0,0,0-.27l-2.723-1.584a.544.544,0,0,0-.488-.01l-2.741,1.582Zm-2.562,6.558c-.147.083-.139.212,0,.292l2.723,1.584a.54.54,0,0,0,.486-.012l2.737-1.578a.149.149,0,0,0,.008-.276l-2.725-1.584a.556.556,0,0,0-.494-.006l-2.735,1.58ZM33.881,56.45c-.155.087-.143.212-.01.29L36.6,58.322a.549.549,0,0,0,.494-.006L49.3,51.268c.133-.077.115-.2-.006-.276L46.569,49.41a.53.53,0,0,0-.482-.008L33.879,56.448Zm-4.744,2.739c-.139.079-.133.206.006.288l2.723,1.584a.539.539,0,0,0,.48-.008l2.743-1.584a.144.144,0,0,0,0-.27l-2.723-1.584a.544.544,0,0,0-.486-.012l-2.743,1.584ZM59.774,41.5c-.139.079-.135.208,0,.29L62.5,43.374a.539.539,0,0,0,.48-.008l2.743-1.584a.145.145,0,0,0,0-.27L63,39.928a.544.544,0,0,0-.488-.012L59.774,41.5Z" transform="translate(11.888 31.984)" fill="#fff"/>
    <path id="Path_42279" data-name="Path 42279" d="M59.782,41.713l2.725,1.59a.537.537,0,0,0,.476-.01l2.745-1.58a.173.173,0,0,0,.089-.139v-.806a.147.147,0,0,1-.089.129l-2.745,1.582a.528.528,0,0,1-.486.01l-2.725-1.582a.178.178,0,0,1-.1-.149v.814c0,.052.03.1.109.139Zm1.562-2.547a.173.173,0,0,0,.089-.139v-.814a.173.173,0,0,1-.089.139L58.6,39.932a.558.558,0,0,1-.486.01l-2.725-1.58a.178.178,0,0,1-.1-.149v.8a.179.179,0,0,0,.109.149l2.725,1.592a.537.537,0,0,0,.476-.01l2.745-1.582Zm-27.471,17.5,2.723,1.58a.578.578,0,0,0,.5,0l12.2-7.048a.167.167,0,0,0,.1-.139v-.806a.142.142,0,0,1-.1.129L37.083,57.431a.528.528,0,0,1-.486.01l-2.725-1.58a.179.179,0,0,1-.109-.149l.01.814a.163.163,0,0,0,.1.139ZM54.931,43.5v.806a.179.179,0,0,0,.109.149l2.725,1.582a.559.559,0,0,0,.486-.01l2.735-1.582a.165.165,0,0,0,.1-.139V43.5a.147.147,0,0,1-.1.131l-2.745,1.58a.53.53,0,0,1-.486.02l-2.725-1.59a.167.167,0,0,1-.1-.139Zm-2.705-4.962-2.743,1.582a.56.56,0,0,1-.488.01l-2.723-1.58a.179.179,0,0,1-.109-.149l.01.814a.163.163,0,0,0,.1.139l2.723,1.592a.563.563,0,0,0,.488-.01l2.743-1.59a.149.149,0,0,0,.091-.131V38.4a.175.175,0,0,1-.091.139ZM35.8,48.017l-2.743,1.59a.56.56,0,0,1-.488.01l-2.723-1.58a.178.178,0,0,1-.1-.149v.8a.167.167,0,0,0,.1.149l2.723,1.582a.563.563,0,0,0,.488-.01L35.8,48.831a.173.173,0,0,0,.089-.139v-.8a.147.147,0,0,1-.089.129Zm-.258,5.955-.01-.806a.173.173,0,0,1-.089.139l-2.735,1.582a.56.56,0,0,1-.486.01L29.5,53.317a.192.192,0,0,1-.109-.151v.816c0,.05.04.1.109.139L32.222,55.7a.5.5,0,0,0,.486-.01l2.735-1.572A.2.2,0,0,0,35.543,53.972Zm8.164-8.053L46.43,47.5a.531.531,0,0,0,.488-.01l2.733-1.58a.165.165,0,0,0,.1-.139v-.816a.167.167,0,0,1-.1.149l-2.733,1.58a.56.56,0,0,1-.488.01L43.706,45.1c-.071-.04-.111-.089-.111-.139l.01.806a.167.167,0,0,0,.1.149Zm4.385,2.545,2.723,1.582a.526.526,0,0,0,.488-.012l2.733-1.58a.155.155,0,0,0,.1-.139v-.806a.165.165,0,0,1-.1.139L51.3,49.23a.56.56,0,0,1-.488.01l-2.723-1.582a.2.2,0,0,1-.111-.149v.806A.178.178,0,0,0,48.091,48.463Zm-7.556-3.182L37.79,46.874a.536.536,0,0,1-.476,0l-2.725-1.582a.179.179,0,0,1-.109-.149v.814a.192.192,0,0,0,.109.151l2.725,1.58a.559.559,0,0,0,.486-.01l2.735-1.58a.165.165,0,0,0,.1-.139v-.806a.159.159,0,0,1-.1.129Zm4.742-1.919a.173.173,0,0,0,.089-.139V42.41a.155.155,0,0,1-.1.139l-2.735,1.58a.528.528,0,0,1-.486.01l-2.723-1.58a.161.161,0,0,1-.1-.139v.8a.174.174,0,0,0,.1.149l2.723,1.582a.56.56,0,0,0,.486-.01ZM50.655,41.1a.179.179,0,0,1-.109-.149v.814a.192.192,0,0,0,.109.151l2.723,1.58a.55.55,0,0,0,.488-.01L56.61,41.9a.175.175,0,0,0,.091-.139v-.814a.167.167,0,0,1-.1.139l-2.735,1.58a.56.56,0,0,1-.488.01L50.655,41.1ZM45.018,48.5l-.01-.806a.173.173,0,0,1-.089.139l-2.745,1.582a.537.537,0,0,1-.476.01l-2.725-1.592c-.069-.04-.109-.089-.109-.139V48.5a.192.192,0,0,0,.109.149L41.7,50.234a.507.507,0,0,0,.476-.01l2.745-1.582a.155.155,0,0,0,.1-.139Zm-4.833,2.874a.173.173,0,0,0,.089-.139v-.806a.173.173,0,0,1-.089.139l-2.743,1.58a.56.56,0,0,1-.488.01l-2.723-1.58a.192.192,0,0,1-.109-.149l.01.814a.163.163,0,0,0,.1.139l2.723,1.592a.533.533,0,0,0,.488-.02l2.743-1.58ZM56.957,36.612a.149.149,0,0,0,.091-.129v-.814a.175.175,0,0,1-.089.139l-2.745,1.58a.537.537,0,0,1-.476.01l-2.725-1.582c-.069-.05-.109-.1-.109-.149v.806a.179.179,0,0,0,.109.149L53.738,38.2a.536.536,0,0,0,.476,0l2.745-1.592ZM31.059,50.76l-2.735,1.582a.56.56,0,0,1-.486.01L25.112,50.77c-.069-.05-.109-.1-.109-.149v.806a.179.179,0,0,0,.109.149l2.725,1.58a.527.527,0,0,0,.486-.01l2.735-1.58a.155.155,0,0,0,.1-.139v-.808a.187.187,0,0,1-.1.139ZM29.03,58.445l.01.816a.165.165,0,0,0,.1.139l2.725,1.592a.559.559,0,0,0,.486-.01L35.1,59.4a.173.173,0,0,0,.089-.139v-.814a.155.155,0,0,1-.1.139l-2.745,1.58a.508.508,0,0,1-.476.01l-2.725-1.582a.192.192,0,0,1-.109-.149ZM24.644,55.9l.012.806a.167.167,0,0,0,.1.149l2.725,1.58a.557.557,0,0,0,.486,0l2.745-1.58a.173.173,0,0,0,.089-.139V55.9a.165.165,0,0,1-.1.139l-2.735,1.582a.56.56,0,0,1-.486.01L24.755,56.05a.218.218,0,0,1-.109-.149Zm-4.373-2.545v.8a.179.179,0,0,0,.109.149l2.725,1.582a.536.536,0,0,0,.476,0L26.325,54.3a.149.149,0,0,0,.091-.129v-.814a.171.171,0,0,1-.091.139l-2.743,1.58a.56.56,0,0,1-.488.01l-2.723-1.58a.191.191,0,0,1-.1-.149Z" transform="translate(11.89 32.866)" fill="#6d797a"/>
    <path id="Path_42280" data-name="Path 42280" d="M37.838,40.351a.155.155,0,0,0,0,.292l2.725,1.584a.556.556,0,0,0,.486-.012l2.743-1.582a.146.146,0,0,0,0-.272l-2.723-1.584a.544.544,0,0,0-.488-.01l-2.741,1.584Z" transform="translate(29.089 35.868)" fill="#fff"/>
  </g>
</svg>
