<svg xmlns="http://www.w3.org/2000/svg" width="106.236" height="234.653" viewBox="0 0 106.236 234.653">
  <g id="Group_7" data-name="Group 7" transform="translate(0)">
    <circle id="Ellipse_1" data-name="Ellipse 1" cx="1.751" cy="1.751" r="1.751" transform="translate(106.236 234.653) rotate(-180)" fill="#70c217"/>
    <circle id="Ellipse_1-2" data-name="Ellipse 1" cx="1.751" cy="1.751" r="1.751" transform="translate(80.552 234.653) rotate(-180)" fill="#70c217"/>
    <circle id="Ellipse_1-3" data-name="Ellipse 1" cx="1.751" cy="1.751" r="1.751" transform="translate(54.869 234.653) rotate(-180)" fill="#70c217"/>
    <circle id="Ellipse_1-4" data-name="Ellipse 1" cx="1.751" cy="1.751" r="1.751" transform="translate(29.186 234.653) rotate(-180)" fill="#70c217"/>
    <circle id="Ellipse_1-5" data-name="Ellipse 1" cx="1.751" cy="1.751" r="1.751" transform="translate(3.502 234.653) rotate(-180)" fill="#70c217"/>
    <circle id="Ellipse_1-6" data-name="Ellipse 1" cx="1.751" cy="1.751" r="1.751" transform="translate(106.236 208.969) rotate(-180)" fill="#70c217"/>
    <circle id="Ellipse_1-7" data-name="Ellipse 1" cx="1.751" cy="1.751" r="1.751" transform="translate(80.552 208.969) rotate(-180)" fill="#70c217"/>
    <circle id="Ellipse_1-8" data-name="Ellipse 1" cx="1.751" cy="1.751" r="1.751" transform="translate(54.869 208.969) rotate(-180)" fill="#70c217"/>
    <circle id="Ellipse_1-9" data-name="Ellipse 1" cx="1.751" cy="1.751" r="1.751" transform="translate(29.186 208.969) rotate(-180)" fill="#70c217"/>
    <circle id="Ellipse_1-10" data-name="Ellipse 1" cx="1.751" cy="1.751" r="1.751" transform="translate(3.502 208.969) rotate(-180)" fill="#70c217"/>
    <circle id="Ellipse_1-11" data-name="Ellipse 1" cx="1.751" cy="1.751" r="1.751" transform="translate(106.236 183.286) rotate(-180)" fill="#70c217"/>
    <circle id="Ellipse_1-12" data-name="Ellipse 1" cx="1.751" cy="1.751" r="1.751" transform="translate(80.552 183.286) rotate(-180)" fill="#70c217"/>
    <circle id="Ellipse_1-13" data-name="Ellipse 1" cx="1.751" cy="1.751" r="1.751" transform="translate(54.869 183.286) rotate(-180)" fill="#70c217"/>
    <circle id="Ellipse_1-14" data-name="Ellipse 1" cx="1.751" cy="1.751" r="1.751" transform="translate(29.186 183.286) rotate(-180)" fill="#70c217"/>
    <circle id="Ellipse_1-15" data-name="Ellipse 1" cx="1.751" cy="1.751" r="1.751" transform="translate(3.502 183.286) rotate(-180)" fill="#70c217"/>
    <circle id="Ellipse_1-16" data-name="Ellipse 1" cx="1.751" cy="1.751" r="1.751" transform="translate(106.236 157.603) rotate(-180)" fill="#70c217"/>
    <circle id="Ellipse_1-17" data-name="Ellipse 1" cx="1.751" cy="1.751" r="1.751" transform="translate(80.552 157.603) rotate(-180)" fill="#70c217"/>
    <circle id="Ellipse_1-18" data-name="Ellipse 1" cx="1.751" cy="1.751" r="1.751" transform="translate(54.869 157.603) rotate(-180)" fill="#70c217"/>
    <circle id="Ellipse_1-19" data-name="Ellipse 1" cx="1.751" cy="1.751" r="1.751" transform="translate(29.186 157.603) rotate(-180)" fill="#70c217"/>
    <circle id="Ellipse_1-20" data-name="Ellipse 1" cx="1.751" cy="1.751" r="1.751" transform="translate(3.502 157.603) rotate(-180)" fill="#70c217"/>
    <circle id="Ellipse_1-21" data-name="Ellipse 1" cx="1.751" cy="1.751" r="1.751" transform="translate(106.236 131.919) rotate(-180)" fill="#70c217"/>
    <circle id="Ellipse_1-22" data-name="Ellipse 1" cx="1.751" cy="1.751" r="1.751" transform="translate(80.552 131.919) rotate(-180)" fill="#70c217"/>
    <circle id="Ellipse_1-23" data-name="Ellipse 1" cx="1.751" cy="1.751" r="1.751" transform="translate(54.869 131.919) rotate(-180)" fill="#70c217"/>
    <circle id="Ellipse_1-24" data-name="Ellipse 1" cx="1.751" cy="1.751" r="1.751" transform="translate(29.186 131.919) rotate(-180)" fill="#70c217"/>
    <circle id="Ellipse_1-25" data-name="Ellipse 1" cx="1.751" cy="1.751" r="1.751" transform="translate(3.502 131.919) rotate(-180)" fill="#70c217"/>
    <circle id="Ellipse_1-26" data-name="Ellipse 1" cx="1.751" cy="1.751" r="1.751" transform="translate(106.236 106.236) rotate(-180)" fill="#70c217"/>
    <circle id="Ellipse_1-27" data-name="Ellipse 1" cx="1.751" cy="1.751" r="1.751" transform="translate(80.552 106.236) rotate(-180)" fill="#70c217"/>
    <circle id="Ellipse_1-28" data-name="Ellipse 1" cx="1.751" cy="1.751" r="1.751" transform="translate(54.869 106.236) rotate(-180)" fill="#70c217"/>
    <circle id="Ellipse_1-29" data-name="Ellipse 1" cx="1.751" cy="1.751" r="1.751" transform="translate(29.186 106.236) rotate(-180)" fill="#70c217"/>
    <circle id="Ellipse_1-30" data-name="Ellipse 1" cx="1.751" cy="1.751" r="1.751" transform="translate(3.502 106.236) rotate(-180)" fill="#70c217"/>
    <circle id="Ellipse_1-31" data-name="Ellipse 1" cx="1.751" cy="1.751" r="1.751" transform="translate(106.236 80.552) rotate(-180)" fill="#70c217"/>
    <circle id="Ellipse_1-32" data-name="Ellipse 1" cx="1.751" cy="1.751" r="1.751" transform="translate(80.552 80.552) rotate(-180)" fill="#70c217"/>
    <circle id="Ellipse_1-33" data-name="Ellipse 1" cx="1.751" cy="1.751" r="1.751" transform="translate(54.869 80.552) rotate(-180)" fill="#70c217"/>
    <circle id="Ellipse_1-34" data-name="Ellipse 1" cx="1.751" cy="1.751" r="1.751" transform="translate(29.186 80.552) rotate(-180)" fill="#70c217"/>
    <circle id="Ellipse_1-35" data-name="Ellipse 1" cx="1.751" cy="1.751" r="1.751" transform="translate(3.502 80.552) rotate(-180)" fill="#70c217"/>
    <circle id="Ellipse_1-36" data-name="Ellipse 1" cx="1.751" cy="1.751" r="1.751" transform="translate(106.236 54.869) rotate(-180)" fill="#70c217"/>
    <circle id="Ellipse_1-37" data-name="Ellipse 1" cx="1.751" cy="1.751" r="1.751" transform="translate(80.552 54.869) rotate(-180)" fill="#70c217"/>
    <circle id="Ellipse_1-38" data-name="Ellipse 1" cx="1.751" cy="1.751" r="1.751" transform="translate(54.869 54.869) rotate(-180)" fill="#70c217"/>
    <circle id="Ellipse_1-39" data-name="Ellipse 1" cx="1.751" cy="1.751" r="1.751" transform="translate(29.186 54.869) rotate(-180)" fill="#70c217"/>
    <circle id="Ellipse_1-40" data-name="Ellipse 1" cx="1.751" cy="1.751" r="1.751" transform="translate(3.502 54.869) rotate(-180)" fill="#70c217"/>
    <circle id="Ellipse_1-41" data-name="Ellipse 1" cx="1.751" cy="1.751" r="1.751" transform="translate(106.236 29.186) rotate(-180)" fill="#70c217"/>
    <circle id="Ellipse_1-42" data-name="Ellipse 1" cx="1.751" cy="1.751" r="1.751" transform="translate(80.552 29.186) rotate(-180)" fill="#70c217"/>
    <circle id="Ellipse_1-43" data-name="Ellipse 1" cx="1.751" cy="1.751" r="1.751" transform="translate(54.869 29.186) rotate(-180)" fill="#70c217"/>
    <circle id="Ellipse_1-44" data-name="Ellipse 1" cx="1.751" cy="1.751" r="1.751" transform="translate(29.186 29.186) rotate(-180)" fill="#70c217"/>
    <circle id="Ellipse_1-45" data-name="Ellipse 1" cx="1.751" cy="1.751" r="1.751" transform="translate(3.502 29.186) rotate(-180)" fill="#70c217"/>
    <circle id="Ellipse_1-46" data-name="Ellipse 1" cx="1.751" cy="1.751" r="1.751" transform="translate(106.236 3.502) rotate(-180)" fill="#70c217"/>
    <circle id="Ellipse_1-47" data-name="Ellipse 1" cx="1.751" cy="1.751" r="1.751" transform="translate(80.552 3.502) rotate(-180)" fill="#70c217"/>
    <circle id="Ellipse_1-48" data-name="Ellipse 1" cx="1.751" cy="1.751" r="1.751" transform="translate(54.869 3.502) rotate(-180)" fill="#70c217"/>
    <circle id="Ellipse_1-49" data-name="Ellipse 1" cx="1.751" cy="1.751" r="1.751" transform="translate(29.186 3.502) rotate(-180)" fill="#70c217"/>
    <circle id="Ellipse_1-50" data-name="Ellipse 1" cx="1.751" cy="1.751" r="1.751" transform="translate(3.502 3.502) rotate(-180)" fill="#70c217"/>
  </g>
</svg>
