<svg xmlns="http://www.w3.org/2000/svg" width="472.16" height="213.764" viewBox="0 0 472.16 213.764">
  <g id="Group_7" data-name="Group 7" transform="translate(0 213.764) rotate(-90)">
    <circle id="Ellipse_1" data-name="Ellipse 1" cx="3.524" cy="3.524" r="3.524" transform="translate(213.763 472.16) rotate(-180)" fill="#d8d8d8"/>
    <circle id="Ellipse_1-2" data-name="Ellipse 1" cx="3.524" cy="3.524" r="3.524" transform="translate(162.085 472.16) rotate(-180)" fill="#d8d8d8"/>
    <circle id="Ellipse_1-3" data-name="Ellipse 1" cx="3.524" cy="3.524" r="3.524" transform="translate(110.405 472.16) rotate(-180)" fill="#d8d8d8"/>
    <circle id="Ellipse_1-4" data-name="Ellipse 1" cx="3.524" cy="3.524" r="3.524" transform="translate(58.726 472.16) rotate(-180)" fill="#d8d8d8"/>
    <circle id="Ellipse_1-5" data-name="Ellipse 1" cx="3.524" cy="3.524" r="3.524" transform="translate(7.047 472.16) rotate(-180)" fill="#d8d8d8"/>
    <circle id="Ellipse_1-6" data-name="Ellipse 1" cx="3.524" cy="3.524" r="3.524" transform="translate(213.764 420.481) rotate(-180)" fill="#d8d8d8"/>
    <circle id="Ellipse_1-7" data-name="Ellipse 1" cx="3.524" cy="3.524" r="3.524" transform="translate(162.085 420.481) rotate(-180)" fill="#d8d8d8"/>
    <circle id="Ellipse_1-8" data-name="Ellipse 1" cx="3.524" cy="3.524" r="3.524" transform="translate(110.405 420.481) rotate(-180)" fill="#d8d8d8"/>
    <circle id="Ellipse_1-9" data-name="Ellipse 1" cx="3.524" cy="3.524" r="3.524" transform="translate(58.726 420.481) rotate(-180)" fill="#d8d8d8"/>
    <circle id="Ellipse_1-10" data-name="Ellipse 1" cx="3.524" cy="3.524" r="3.524" transform="translate(7.047 420.481) rotate(-180)" fill="#d8d8d8"/>
    <circle id="Ellipse_1-11" data-name="Ellipse 1" cx="3.524" cy="3.524" r="3.524" transform="translate(213.764 368.801) rotate(-180)" fill="#d8d8d8"/>
    <circle id="Ellipse_1-12" data-name="Ellipse 1" cx="3.524" cy="3.524" r="3.524" transform="translate(162.085 368.801) rotate(-180)" fill="#d8d8d8"/>
    <circle id="Ellipse_1-13" data-name="Ellipse 1" cx="3.524" cy="3.524" r="3.524" transform="translate(110.405 368.801) rotate(-180)" fill="#d8d8d8"/>
    <circle id="Ellipse_1-14" data-name="Ellipse 1" cx="3.524" cy="3.524" r="3.524" transform="translate(58.726 368.801) rotate(-180)" fill="#d8d8d8"/>
    <circle id="Ellipse_1-15" data-name="Ellipse 1" cx="3.524" cy="3.524" r="3.524" transform="translate(7.047 368.801) rotate(-180)" fill="#d8d8d8"/>
    <circle id="Ellipse_1-16" data-name="Ellipse 1" cx="3.524" cy="3.524" r="3.524" transform="translate(213.764 317.122) rotate(-180)" fill="#d8d8d8"/>
    <circle id="Ellipse_1-17" data-name="Ellipse 1" cx="3.524" cy="3.524" r="3.524" transform="translate(162.085 317.122) rotate(-180)" fill="#d8d8d8"/>
    <circle id="Ellipse_1-18" data-name="Ellipse 1" cx="3.524" cy="3.524" r="3.524" transform="translate(110.405 317.122) rotate(-180)" fill="#d8d8d8"/>
    <circle id="Ellipse_1-19" data-name="Ellipse 1" cx="3.524" cy="3.524" r="3.524" transform="translate(58.726 317.122) rotate(-180)" fill="#d8d8d8"/>
    <circle id="Ellipse_1-20" data-name="Ellipse 1" cx="3.524" cy="3.524" r="3.524" transform="translate(7.047 317.122) rotate(-180)" fill="#d8d8d8"/>
    <circle id="Ellipse_1-21" data-name="Ellipse 1" cx="3.524" cy="3.524" r="3.524" transform="translate(213.764 265.443) rotate(-180)" fill="#d8d8d8"/>
    <circle id="Ellipse_1-22" data-name="Ellipse 1" cx="3.524" cy="3.524" r="3.524" transform="translate(162.085 265.443) rotate(-180)" fill="#d8d8d8"/>
    <circle id="Ellipse_1-23" data-name="Ellipse 1" cx="3.524" cy="3.524" r="3.524" transform="translate(110.405 265.443) rotate(-180)" fill="#d8d8d8"/>
    <circle id="Ellipse_1-24" data-name="Ellipse 1" cx="3.524" cy="3.524" r="3.524" transform="translate(58.726 265.443) rotate(-180)" fill="#d8d8d8"/>
    <circle id="Ellipse_1-25" data-name="Ellipse 1" cx="3.524" cy="3.524" r="3.524" transform="translate(7.047 265.443) rotate(-180)" fill="#d8d8d8"/>
    <circle id="Ellipse_1-26" data-name="Ellipse 1" cx="3.524" cy="3.524" r="3.524" transform="translate(213.764 213.764) rotate(-180)" fill="#d8d8d8"/>
    <circle id="Ellipse_1-27" data-name="Ellipse 1" cx="3.524" cy="3.524" r="3.524" transform="translate(162.085 213.764) rotate(-180)" fill="#d8d8d8"/>
    <circle id="Ellipse_1-28" data-name="Ellipse 1" cx="3.524" cy="3.524" r="3.524" transform="translate(110.405 213.764) rotate(-180)" fill="#d8d8d8"/>
    <circle id="Ellipse_1-29" data-name="Ellipse 1" cx="3.524" cy="3.524" r="3.524" transform="translate(58.726 213.764) rotate(-180)" fill="#d8d8d8"/>
    <circle id="Ellipse_1-30" data-name="Ellipse 1" cx="3.524" cy="3.524" r="3.524" transform="translate(7.047 213.764) rotate(-180)" fill="#d8d8d8"/>
    <circle id="Ellipse_1-31" data-name="Ellipse 1" cx="3.524" cy="3.524" r="3.524" transform="translate(213.764 162.085) rotate(-180)" fill="#d8d8d8"/>
    <circle id="Ellipse_1-32" data-name="Ellipse 1" cx="3.524" cy="3.524" r="3.524" transform="translate(162.085 162.085) rotate(-180)" fill="#d8d8d8"/>
    <circle id="Ellipse_1-33" data-name="Ellipse 1" cx="3.524" cy="3.524" r="3.524" transform="translate(110.405 162.085) rotate(-180)" fill="#d8d8d8"/>
    <circle id="Ellipse_1-34" data-name="Ellipse 1" cx="3.524" cy="3.524" r="3.524" transform="translate(58.726 162.085) rotate(-180)" fill="#d8d8d8"/>
    <circle id="Ellipse_1-35" data-name="Ellipse 1" cx="3.524" cy="3.524" r="3.524" transform="translate(7.047 162.085) rotate(-180)" fill="#d8d8d8"/>
    <circle id="Ellipse_1-36" data-name="Ellipse 1" cx="3.524" cy="3.524" r="3.524" transform="translate(213.764 110.406) rotate(-180)" fill="#d8d8d8"/>
    <circle id="Ellipse_1-37" data-name="Ellipse 1" cx="3.524" cy="3.524" r="3.524" transform="translate(162.085 110.406) rotate(-180)" fill="#d8d8d8"/>
    <circle id="Ellipse_1-38" data-name="Ellipse 1" cx="3.524" cy="3.524" r="3.524" transform="translate(110.405 110.406) rotate(-180)" fill="#d8d8d8"/>
    <circle id="Ellipse_1-39" data-name="Ellipse 1" cx="3.524" cy="3.524" r="3.524" transform="translate(58.726 110.406) rotate(-180)" fill="#d8d8d8"/>
    <circle id="Ellipse_1-40" data-name="Ellipse 1" cx="3.524" cy="3.524" r="3.524" transform="translate(7.047 110.406) rotate(-180)" fill="#d8d8d8"/>
    <circle id="Ellipse_1-41" data-name="Ellipse 1" cx="3.524" cy="3.524" r="3.524" transform="translate(213.764 58.726) rotate(-180)" fill="#d8d8d8"/>
    <circle id="Ellipse_1-42" data-name="Ellipse 1" cx="3.524" cy="3.524" r="3.524" transform="translate(162.085 58.726) rotate(-180)" fill="#d8d8d8"/>
    <circle id="Ellipse_1-43" data-name="Ellipse 1" cx="3.524" cy="3.524" r="3.524" transform="translate(110.405 58.726) rotate(-180)" fill="#d8d8d8"/>
    <circle id="Ellipse_1-44" data-name="Ellipse 1" cx="3.524" cy="3.524" r="3.524" transform="translate(58.726 58.726) rotate(-180)" fill="#d8d8d8"/>
    <circle id="Ellipse_1-45" data-name="Ellipse 1" cx="3.524" cy="3.524" r="3.524" transform="translate(7.047 58.726) rotate(-180)" fill="#d8d8d8"/>
    <circle id="Ellipse_1-46" data-name="Ellipse 1" cx="3.524" cy="3.524" r="3.524" transform="translate(213.764 7.047) rotate(-180)" fill="#d8d8d8"/>
    <circle id="Ellipse_1-47" data-name="Ellipse 1" cx="3.524" cy="3.524" r="3.524" transform="translate(162.085 7.047) rotate(-180)" fill="#d8d8d8"/>
    <circle id="Ellipse_1-48" data-name="Ellipse 1" cx="3.524" cy="3.524" r="3.524" transform="translate(110.405 7.047) rotate(-180)" fill="#d8d8d8"/>
    <circle id="Ellipse_1-49" data-name="Ellipse 1" cx="3.524" cy="3.524" r="3.524" transform="translate(58.726 7.047) rotate(-180)" fill="#d8d8d8"/>
    <circle id="Ellipse_1-50" data-name="Ellipse 1" cx="3.524" cy="3.524" r="3.524" transform="translate(7.047 7.047) rotate(-180)" fill="#d8d8d8"/>
  </g>
</svg>
