<svg xmlns="http://www.w3.org/2000/svg" width="20.5" height="20.5" viewBox="0 0 20.5 20.5">
  <path id="Path_52290" data-name="Path 52290" d="M11.646,14.854a.5.5,0,0,0,.707,0l4.5-4.5a.5.5,0,0,0-.707-.707L12.5,13.293V2.5a.5.5,0,0,0-1,0V13.293L7.853,9.647a.5.5,0,0,0-.707.707ZM21.5,14a.5.5,0,0,0-.5.5v5A1.5,1.5,0,0,1,19.5,21H4.5A1.5,1.5,0,0,1,3,19.5v-5a.5.5,0,0,0-1,0v5A2.5,2.5,0,0,0,4.5,22h15A2.5,2.5,0,0,0,22,19.5v-5A.5.5,0,0,0,21.5,14Z" transform="translate(-1.75 -1.75)" stroke="#000" stroke-width="0.5"/>
</svg>
