<svg id="Group_45571" data-name="Group 45571" xmlns="http://www.w3.org/2000/svg" width="40" height="40" viewBox="0 0 40 40">
  <path id="Path_40365" data-name="Path 40365" d="M32.5,40H7.5A7.5,7.5,0,0,1,0,32.5V7.5A7.5,7.5,0,0,1,7.5,0h25A7.5,7.5,0,0,1,40,7.5v25A7.5,7.5,0,0,1,32.5,40Z" fill="#c7def3"/>
  <path id="Path_43568" data-name="Path 43568" d="M14.29,17.29,13,18.59V13a1,1,0,0,0-2,0v5.59l-1.29-1.3a1,1,0,1,0-1.42,1.42l3,3a1,1,0,0,0,.33.21.94.94,0,0,0,.76,0,1,1,0,0,0,.33-.21l3-3a1,1,0,0,0-1.42-1.42ZM18.42,6.22A7,7,0,0,0,5.06,8.11,4,4,0,0,0,6,16a1,1,0,1,0,0-2,2,2,0,0,1,0-4A1,1,0,0,0,7,9a5,5,0,0,1,9.73-1.61,1,1,0,0,0,.78.67,3,3,0,0,1,.24,5.84,1,1,0,0,0,.5,1.94,5,5,0,0,0,.17-9.62Z" transform="translate(8.01 7.987)" fill="#044783"/>
</svg>
