<svg xmlns="http://www.w3.org/2000/svg" width="40" height="40" viewBox="0 0 40 40">
  <g id="Group_54652" data-name="Group 54652" transform="translate(-1771 -546)">
    <g id="Group_55055" data-name="Group 55055">
      <path id="Path_45651" data-name="Path 45651" d="M32.5,40H7.5A7.5,7.5,0,0,1,0,32.5V7.5A7.5,7.5,0,0,1,7.5,0h25A7.5,7.5,0,0,1,40,7.5v25A7.5,7.5,0,0,1,32.5,40Z" transform="translate(1771 546)" fill="#c7def3"/>
      <path id="Path_46272" data-name="Path 46272" d="M19.973,13.351a.894.894,0,0,0-.946.946v3.784a.894.894,0,0,1-.946.946H4.838a.894.894,0,0,1-.946-.946V14.3a.894.894,0,0,0-.946-.946A.894.894,0,0,0,2,14.3v3.784a2.787,2.787,0,0,0,2.838,2.838H18.081a2.787,2.787,0,0,0,2.838-2.838V14.3A.894.894,0,0,0,19.973,13.351ZM10.8,14.96a.914.914,0,0,0,1.324,0h0l3.784-3.784a.914.914,0,0,0,0-1.324h0a.914.914,0,0,0-1.324,0h0l-2.176,2.176V2.946a.946.946,0,1,0-1.892,0v9.081L8.338,9.851a.936.936,0,0,0-1.324,1.324Z" transform="translate(1780 555)" fill="#044783"/>
    </g>
  </g>
</svg>
