<svg xmlns="http://www.w3.org/2000/svg" width="22.933" height="22.933" viewBox="0 0 22.933 22.933">
  <g id="Group_52220" data-name="Group 52220" transform="translate(-3.5 -3.5)">
    <path id="Path_43869" data-name="Path 43869" d="M25.019,20a.914.914,0,0,0-.914.914v3.655a.914.914,0,0,1-.914.914H6.742a.914.914,0,0,1-.914-.914V20.914a.914.914,0,0,0-1.828,0v3.655a2.742,2.742,0,0,0,2.742,2.742H23.191a2.742,2.742,0,0,0,2.742-2.742V20.914A.914.914,0,0,0,25.019,20Z" transform="translate(0 -1.378)" fill="#005cbb" stroke="#005cbb" stroke-width="1"/>
    <path id="Path_43870" data-name="Path 43870" d="M13.367,19.645a2.742,2.742,0,0,0,3.875,0l5.172-5.172a.914.914,0,1,0-1.3-1.289l-4.9,4.9V4.914a.914.914,0,1,0-1.828,0V18.083l-4.9-4.9a.914.914,0,0,0-1.3,1.289Z" transform="translate(-0.338)" fill="#005cbb" stroke="#005cbb" stroke-width="1"/>
  </g>
</svg>
