<svg xmlns="http://www.w3.org/2000/svg" width="36.98" height="36.98" viewBox="0 0 36.98 36.98">
  <path id="Path_44171" data-name="Path 44171" d="M37.131,24.188a1.747,1.747,0,0,0-1.849,1.849v7.4a1.747,1.747,0,0,1-1.849,1.849H7.547A1.747,1.747,0,0,1,5.7,33.433v-7.4a1.747,1.747,0,0,0-1.849-1.849A1.747,1.747,0,0,0,2,26.037v7.4A5.448,5.448,0,0,0,7.547,38.98H33.433a5.448,5.448,0,0,0,5.547-5.547v-7.4A1.747,1.747,0,0,0,37.131,24.188ZM14.388,12.539l4.253-4.253V26.037a1.747,1.747,0,0,0,1.849,1.849,1.747,1.747,0,0,0,1.849-1.849V8.287l4.253,4.253a1.83,1.83,0,0,0,2.589-2.589l-7.4-7.4a1.787,1.787,0,0,0-2.589,0h0l-7.4,7.4a1.83,1.83,0,0,0,2.589,2.589Z" transform="translate(-2 -2)"/>
</svg>
