<svg xmlns="http://www.w3.org/2000/svg" width="22" height="22" viewBox="0 0 22 22">
  <g id="Group_53759" data-name="Group 53759" transform="translate(-1 -1)">
    <path id="Path_44800" data-name="Path 44800" d="M1,4A3,3,0,0,1,4,1h9a1,1,0,0,1,0,2H4A1,1,0,0,0,3,4V20a1,1,0,0,0,1,1H20a1,1,0,0,0,1-1V12a1,1,0,0,1,2,0v8a3,3,0,0,1-3,3H4a3,3,0,0,1-3-3Z" fill="#fff" fill-rule="evenodd"/>
    <path id="Path_44801" data-name="Path 44801" d="M19.531,3.293a1,1,0,0,0-1.414,0L9,12.414V15h2.586L20.7,5.879a1,1,0,0,0,0-1.414ZM16.7,1.879a3,3,0,0,1,4.243,0L22.117,3.05a3,3,0,0,1,0,4.242l-9.41,9.414A1,1,0,0,1,12,17H8a1,1,0,0,1-1-1V12a1,1,0,0,1,.293-.707Z" fill="#fff" fill-rule="evenodd"/>
  </g>
</svg>
