<svg xmlns="http://www.w3.org/2000/svg" width="18.537" height="13.295" viewBox="0 0 18.537 13.295">
  <g id="Group_52098" data-name="Group 52098" transform="translate(-1.93 -10.53)">
    <path id="Path_43759" data-name="Path 43759" d="M17.727,23.675H4.67a2.594,2.594,0,0,1-2.59-2.59V13.27a2.594,2.594,0,0,1,2.59-2.59H17.727a2.594,2.594,0,0,1,2.59,2.59v7.814a2.594,2.594,0,0,1-2.59,2.59ZM4.67,11.594A1.676,1.676,0,0,0,2.994,13.27v7.814A1.676,1.676,0,0,0,4.67,22.761H17.727A1.676,1.676,0,0,0,19.4,21.085V13.27a1.676,1.676,0,0,0-1.676-1.676Z" fill="#222" stroke="#222" stroke-width="0.3"/>
    <path id="Path_43760" data-name="Path 43760" d="M11.756,22.717a2.594,2.594,0,0,1-1.563-.521L3.076,16.814a.457.457,0,1,1,.552-.728l7.116,5.388a1.691,1.691,0,0,0,2.024,0l7.116-5.388a.457.457,0,1,1,.552.728L13.319,22.2a2.594,2.594,0,0,1-1.563.521Z" transform="translate(-0.557 -3.686)" fill="#222" stroke="#222" stroke-width="0.3"/>
    <path id="Path_43761" data-name="Path 43761" d="M3.126,35.644a.457.457,0,0,1-.3-.8l5.608-5a.458.458,0,1,1,.61.683l-5.608,5a.445.445,0,0,1-.3.116Zm16.963,0a.445.445,0,0,1-.3-.116l-5.608-5a.458.458,0,0,1,.61-.683l5.6,5a.457.457,0,0,1-.3.8Z" transform="translate(-0.409 -13.243)" fill="#222" stroke="#222" stroke-width="0.3"/>
  </g>
</svg>
