<svg xmlns="http://www.w3.org/2000/svg" xmlns:xlink="http://www.w3.org/1999/xlink" width="64" height="75" viewBox="0 0 64 75">
  <defs>
    <clipPath id="clip-path">
      <rect id="Rectangle_20827" data-name="Rectangle 20827" width="64" height="75" transform="translate(166 666.643)" fill="#fff" stroke="#707070" stroke-width="1"/>
    </clipPath>
  </defs>
  <g id="Mask_Group_1" data-name="Mask Group 1" transform="translate(-166 -666.643)" clip-path="url(#clip-path)">
    <g id="Group_54531" data-name="Group 54531" transform="translate(152.286 660.143)">
      <path id="Polygon_2" data-name="Polygon 2" d="M51.422,0a3,3,0,0,1,2.59,1.485l15.96,27.286a3,3,0,0,1,0,3.029L54.012,59.086a3,3,0,0,1-2.59,1.485H19.435a3,3,0,0,1-2.59-1.485L.886,31.8a3,3,0,0,1,0-3.029L16.846,1.485A3,3,0,0,1,19.435,0Z" transform="translate(30.286 0) rotate(30)" fill="#34c2a9"/>
      <g id="Group_53823" data-name="Group 53823" transform="translate(27.825 26.65)">
        <g id="Group_53822" data-name="Group 53822" transform="translate(0 0)">
          <path id="Path_43960" data-name="Path 43960" d="M24.349,72.45l1.183,10.722a2.481,2.481,0,0,1-2.194,2.739L13.41,87a2.48,2.48,0,0,1-2.739-2.194L9.486,74.088A2.482,2.482,0,0,1,11.68,71.35l9.927-1.094A2.485,2.485,0,0,1,24.349,72.45Z" transform="translate(-9.471 -51.881)" fill="#158ed8"/>
          <path id="Path_43961" data-name="Path 43961" d="M29.23,73.568l1.183,10.722a2.481,2.481,0,0,1-2.194,2.739l-9.927,1.094a2.489,2.489,0,0,1-1.791-.5L28.246,71.85A2.475,2.475,0,0,1,29.23,73.568Z" transform="translate(-14.352 -52.998)" fill="#015ed4"/>
          <path id="Path_43963" data-name="Path 43963" d="M27.185,77.929,28.295,88a.683.683,0,0,1-.6.749l-9.276,1.021a.679.679,0,0,1-.749-.6L16.561,79.1a.683.683,0,0,1,.6-.749l9.276-1.021a.667.667,0,0,1,.437.1A.69.69,0,0,1,27.185,77.929Z" transform="translate(-14.391 -56.8)" fill="#fff"/>
          <g id="Group_53813" data-name="Group 53813" transform="translate(9.715)">
            <path id="Path_43968" data-name="Path 43968" d="M50.622,7.16,49.207,17.855a2.485,2.485,0,0,1-2.787,2.136l-9.9-1.311a2.481,2.481,0,0,1-2.136-2.787L35.8,5.2a2.485,2.485,0,0,1,2.787-2.136l9.9,1.311A2.488,2.488,0,0,1,50.622,7.16Z" transform="translate(-34.359 -3.041)" fill="#ff7d83"/>
            <path id="Path_43969" data-name="Path 43969" d="M51.845,12.194,50.43,22.888a2.485,2.485,0,0,1-2.787,2.136l-9.9-1.311a2.482,2.482,0,0,1-1.62-.917L51.295,10.29A2.469,2.469,0,0,1,51.845,12.194Z" transform="translate(-35.582 -8.074)" fill="#ff5671"/>
            <path id="Path_43971" data-name="Path 43971" d="M53.4,12.143l-1.33,10.043a.68.68,0,0,1-.761.584l-9.252-1.226a.663.663,0,0,1-.431-.238.677.677,0,0,1-.153-.523l1.33-10.043a.68.68,0,0,1,.761-.584l9.252,1.226a.659.659,0,0,1,.4.2A.676.676,0,0,1,53.4,12.143Z" transform="translate(-39.298 -7.978)" fill="#fff"/>
          </g>
          <g id="Group_53814" data-name="Group 53814" transform="translate(17.857 17.868)">
            <path id="Path_43976" data-name="Path 43976" d="M90.941,68.463l-2.482,10.5a2.482,2.482,0,0,1-2.986,1.846l-9.719-2.3a2.483,2.483,0,0,1-1.846-2.986l2.482-10.5a2.485,2.485,0,0,1,2.986-1.846l9.719,2.3A2.481,2.481,0,0,1,90.941,68.463Z" transform="translate(-73.841 -63.111)" fill="#ffc378"/>
            <path id="Path_43977" data-name="Path 43977" d="M91.836,76.2,89.354,86.7a2.482,2.482,0,0,1-2.986,1.846l-9.719-2.3A2.485,2.485,0,0,1,75.13,85.17L91.485,74.25A2.46,2.46,0,0,1,91.836,76.2Z" transform="translate(-74.736 -70.846)" fill="#ffab41"/>
            <path id="Path_43979" data-name="Path 43979" d="M93.78,73.3l-2.332,9.86a.68.68,0,0,1-.816.5l-9.08-2.146a.673.673,0,0,1-.5-.813l2.332-9.86a.68.68,0,0,1,.816-.5l9.08,2.146a.682.682,0,0,1,.379.241A.673.673,0,0,1,93.78,73.3Z" transform="translate(-78.832 -68.117)" fill="#fff"/>
          </g>
          <g id="Group_53815" data-name="Group 53815" transform="translate(14.858 5.072)">
            <path id="Path_43982" data-name="Path 43982" d="M55.446,20.148a.831.831,0,0,0-.2-.33.629.629,0,0,0-.37-.168l-.089-.009a.6.6,0,0,0-.4.086.785.785,0,0,0-.266.281l-2.855,5.147a.568.568,0,0,0-.076.214.516.516,0,0,0,.752.51.547.547,0,0,0,.223-.211l.7-1.271,2.9.309L56.18,26.1a.527.527,0,0,0,.171.248.539.539,0,0,0,.278.116.5.5,0,0,0,.385-.11.512.512,0,0,0,.18-.345.585.585,0,0,0-.031-.226Zm.012,3.558-2.094-.223,1.314-2.411Z" transform="translate(-51.188 -19.637)" fill="#656d78"/>
          </g>
          <g id="Group_53816" data-name="Group 53816" transform="translate(5.103 23.484)">
            <path id="Path_43983" data-name="Path 43983" d="M30.543,89.915a1.621,1.621,0,0,0,.391-.5,1.552,1.552,0,0,0,.128-.96,1.574,1.574,0,0,0-.746-1.174,2.375,2.375,0,0,0-1.611-.232l-2.1.312a.489.489,0,0,0-.339.208.506.506,0,0,0-.092.385l.8,5.4a.511.511,0,0,0,.584.434l2.155-.321a2.83,2.83,0,0,0,1.733-.755,1.71,1.71,0,0,0,.388-1.452,1.463,1.463,0,0,0-.523-.96A2.029,2.029,0,0,0,30.543,89.915Zm.287,1.458a.79.79,0,0,1-.217.718,2.067,2.067,0,0,1-1.125.419l-1.559.232-.272-1.825,1.568-.232C30.216,90.535,30.738,90.761,30.83,91.373Zm-3.31-1.4-.257-1.718,1.522-.226a1.507,1.507,0,0,1,.911.1.687.687,0,0,1,.385.538.819.819,0,0,1-.183.706,1.69,1.69,0,0,1-1.009.4Z" transform="translate(-26.168 -87.007)" fill="#656d78"/>
          </g>
          <g id="Group_53817" data-name="Group 53817" transform="translate(23.586 23.51)">
            <path id="Path_43984" data-name="Path 43984" d="M97.2,87.245a.437.437,0,0,0-.217-.009,4.059,4.059,0,0,1-.807.1,3.153,3.153,0,0,1-.84-.122,2.457,2.457,0,0,1-1.137-.63,1.94,1.94,0,0,1-.529-1.006,2.9,2.9,0,0,1,.642-2.329,1.958,1.958,0,0,1,.969-.593,2.489,2.489,0,0,1,1.3.04,3.068,3.068,0,0,1,.785.324,4.041,4.041,0,0,1,.648.5.491.491,0,0,0,.189.1.451.451,0,0,0,.364-.043.435.435,0,0,0,.208-.269.467.467,0,0,0-.128-.486,4.83,4.83,0,0,0-.834-.669,3.942,3.942,0,0,0-1.045-.44,3.449,3.449,0,0,0-1.715-.052,2.933,2.933,0,0,0-1.437.816,3.9,3.9,0,0,0-.938,3.408,2.918,2.918,0,0,0,.816,1.433,3.422,3.422,0,0,0,1.5.831,4.009,4.009,0,0,0,1.125.156,4.833,4.833,0,0,0,1.058-.147.47.47,0,0,0,.361-.355.433.433,0,0,0-.043-.342A.473.473,0,0,0,97.2,87.245Z" transform="translate(-92.587 -81.574)" fill="#656d78"/>
          </g>
        </g>
      </g>
    </g>
  </g>
</svg>
