<svg xmlns="http://www.w3.org/2000/svg" width="53.079" height="48.942" viewBox="0 0 53.079 48.942">
  <g id="Group_1272" data-name="Group 1272" transform="translate(-4.485 -6.856)">
    <path id="Path_6195" data-name="Path 6195" d="M29.91,50.161A11.851,11.851,0,0,0,25.589,57a1.451,1.451,0,0,1-.36.63h0a1.521,1.521,0,0,1-.9.27c-.72,0-1.98,0-2.341-.9a1.736,1.736,0,0,1,0-1.17,23.777,23.777,0,0,1,2.791-6.391c.9-1.35.9-3.871.81-5.491a.812.812,0,0,0-.09-.45,34.887,34.887,0,0,0,9.632.81A5.88,5.88,0,0,1,29.91,50.161Z" transform="translate(-1.737 -3.657)" fill="#f98b85"/>
    <path id="Path_6196" data-name="Path 6196" d="M33.544,45.791c-7.562,3.781-9.452,4.951-12.153,5.131A8.216,8.216,0,0,1,13.02,45.16c-.27-.81-1.08-2.431-.54-3.151.45-.9,1.8-.9,2.791-.72,7.652.72,7.652,2.251,12.063,3.691A27.251,27.251,0,0,0,33.544,45.791Z" transform="translate(-0.78 -3.427)" fill="#fa9990"/>
    <path id="Path_6197" data-name="Path 6197" d="M55.093,38.041a1.437,1.437,0,0,0-.63.81,4.646,4.646,0,0,1-5.671,2.7,1.551,1.551,0,0,0-1.62.54,10.173,10.173,0,0,1-14.583,1.53,1.5,1.5,0,0,0-1.71-.18,8.353,8.353,0,0,1-7.022.45c-.9-.36-1.8-.9-2.7-1.26-2.25-.99-3.241-.36-5.131-.45-2.16-.09-4.321-2.07-5.311-3.871a7.263,7.263,0,0,1-.54-5.131c.18-.54.72-.99.63-1.53,0-.45-.36-.99-.36-1.53a5.49,5.49,0,0,1,1.71-4.591c.81-.72,1.89-1.26,2.431-2.25.81-1.44.18-2.791,2.881-4.411.81-.45,1.53-1.26,2.521-.81.81-1.8,2.7-2.431,4.5-2.791,4.771-1.08,9.812-2.25,14.223.45a1.436,1.436,0,0,0,1.35.18A6.5,6.5,0,0,1,48.7,20.848a1.529,1.529,0,0,0,1.26,1.26c.72.18,1.62.36,1.71.36a10.833,10.833,0,0,1,5.941,6.3C58.874,32.82,57.614,36.421,55.093,38.041Z" transform="translate(-0.544 -0.719)" fill="#ffada9"/>
    <path id="Path_6198" data-name="Path 6198" d="M27.022,27.989c-.54-.9-.27-1.98-.72-2.521-.45-.45-1.53-.18-2.431-.54a3.2,3.2,0,0,1-1.62-2.25,17.976,17.976,0,0,0-.45-2.341c-.18-.54-.72-1.26-1.35-1.17a.482.482,0,0,1-.45-.45c0-.9,1.98-.54,2.7,1.26.54,1.35.18,3.6,1.53,4.141.72.27,1.89,0,2.7.72.81.81.54,1.98.9,2.7.63,1.08,3.061.63,3.871-.09a1.179,1.179,0,0,0,.36-1.17c-.36-.9-2.341-.72-3.151-1.89-.99-1.53.72-3.421.09-4.591-.27-.54-.99-.99-.9-1.8.09-1.17,1.44-1.53,1.8-2.16.09-.18.09-.45,0-.45-.36-.18-.36-.72,0-.81l.45-.18c.45-.18.81.45.45.81h0a1.756,1.756,0,0,1-.09,1.17c-.45.81-1.62,1.08-1.71,1.71,0,.27.18.45.36.72a1.96,1.96,0,0,1,.45.72c.72,1.62-.9,3.421-.18,4.5.63.9,2.611.63,3.241,2.07a1.974,1.974,0,0,1-.54,2.16C31.162,29.16,28.012,29.7,27.022,27.989Zm8.732,11.162a2.5,2.5,0,0,1-1.17-1.89c-.36-2.791,2.611-2.7,2.971-3.961.18-.54-.18-1.08-.63-1.62-1.17-1.8-1.17-2.611.36-4.591.09-.09,1.26-1.44.72-2.341-.54-1.08-3.511-1.35-1.26-4.951.45-.72.81-1.62.45-2.16a.45.45,0,1,1,.72-.54c.63.81.45,1.89-.36,3.241-1.89,3.061.45,2.521,1.26,4.141.45.9.18,1.98-.72,3.151v-.09c-1.35,1.71-1.26,2.16-.27,3.511a2.935,2.935,0,0,1,.72,2.431c-.36,1.26-1.89,1.53-2.521,2.25a1.726,1.726,0,0,0,.36,2.611.557.557,0,0,1,.18.63A.918.918,0,0,1,35.753,39.152Z" transform="translate(-1.548 -0.749)" fill="#f48c87"/>
    <path id="Path_6199" data-name="Path 6199" d="M38.928,24.591a.435.435,0,0,1,.63,0,.811.811,0,0,0,.99,0c.81-.54,1.26-1.89,2.341-2.521a6.174,6.174,0,0,1,2.791-.54c.72-.09,1.53-.45,1.53-1.08a.482.482,0,0,1,.45-.45c.9,0,.45,2.16-1.89,2.431a1.755,1.755,0,0,0-.72.09c-1.53.09-1.89.27-2.7,1.44a6.3,6.3,0,0,1-1.26,1.44C39.738,26.211,38.3,25.131,38.928,24.591ZM30.2,34.043c-1.44,0-2.521-.99-3.511-1.98a.446.446,0,0,1,.63-.63,8.551,8.551,0,0,0,1.71,1.44,2.364,2.364,0,0,0,1.89.18,7.762,7.762,0,0,1,1.71-.99c1.71-.54,2.971,1.35,5.941.81.27-.09.45.09.54.36s-.09.45-.36.54c-3.151.63-4.5-1.17-5.851-.81C32.086,33.053,31.636,34.043,30.2,34.043ZM48.92,42.415c-2.341-1.44-2.431-2.611-1.89-4.5.9-2.971-.81-2.07-1.8-3.061a2.786,2.786,0,0,1-.45-2.431.459.459,0,0,1,.9.18c-.45,2.341.72,1.62,1.8,2.341a2.572,2.572,0,0,1,.63,2.611c-.45,1.71-.99,2.521,1.35,4.051C49.91,41.965,49.37,42.685,48.92,42.415ZM52.161,34.4c.09-1.08.72-2.25-1.62-1.98a.608.608,0,0,1-.54-.36c-.09-.18.18-.45.36-.54.81-.09,1.98-.18,2.521.81.45.72.09,1.53.09,2.16a2.226,2.226,0,0,0,2.521,2.341.459.459,0,0,1,.18.9A3.087,3.087,0,0,1,52.161,34.4Z" transform="translate(-2.202 -1.312)" fill="#f48c87"/>
    <path id="Path_6200" data-name="Path 6200" d="M50.349,32.8a.445.445,0,0,1,.09-.63c2.16-1.44.36-1.8,0-3.151-.54-1.53,1.08-2.7,1.08-3.871a.45.45,0,1,1,.9,0c0,1.44-1.44,2.521-1.17,3.6.27.81,2.611,2.16-.27,4.231A.6.6,0,0,1,50.349,32.8Zm-7.472,6.481c-.54-.54-.99-1.08-1.53-1.08-1.26-.09-2.16,2.16-5.041.81a12.412,12.412,0,0,1-2.25-1.53.45.45,0,1,1,.54-.72,7.041,7.041,0,0,0,1.98,1.35c2.521,1.17,2.971-1.08,4.771-.9a3.062,3.062,0,0,1,1.8,1.08l.27.27c.45.36,1.08.72,1.44.45a.445.445,0,0,1,.63.09C46.028,39.913,44.407,40.724,42.877,39.283ZM40.536,47.2a5.821,5.821,0,0,1-1.44-.81,1.891,1.891,0,0,1-.63-1.71,2.846,2.846,0,0,1,.63-1.17,1.687,1.687,0,0,0-.45-2.25.45.45,0,1,1,.54-.72,2.763,2.763,0,0,1,.63,3.421c-.27.36-.54.63-.54.9a.991.991,0,0,0,.36.9,3.593,3.593,0,0,0,1.17.63C41.437,46.575,41.076,47.385,40.536,47.2Zm-20.7-3.241a2.5,2.5,0,0,1,.63-3.241A5.283,5.283,0,0,1,23.343,40c2.611-.18,1.89-1.35,2.7-2.25,1.17-1.17,3.241.09,3.961-.72a.446.446,0,0,1,.63.63c-1.08,1.26-3.241,0-3.961.72-.54.54-.18,2.341-3.331,2.521a4.735,4.735,0,0,0-2.341.54,1.55,1.55,0,0,0-.36,2.07.475.475,0,0,1-.18.63A.516.516,0,0,1,19.832,43.964Zm12.513.99-1.08-1.8c-.9-1.53-.63-2.16.09-2.971.09-.09.18-.18.18-.27a.761.761,0,0,0,.18-.54.445.445,0,0,1,.09-.63c.54-.36,1.26.63.45,1.71a2.482,2.482,0,0,0-.63.81c-.18.54.36,1.26,1.44,3.241a.475.475,0,0,1-.18.63C32.795,45.315,32.525,45.225,32.345,44.954ZM18.662,38.113c-.72-3.061,1.62-4.411,1.17-5.311-.18-.36-.72-.36-1.26-.45a2.793,2.793,0,0,1-2.07-.54c-1.08-1.08,0-2.791.09-2.881a2.777,2.777,0,0,0,.45-1.62,1.549,1.549,0,0,0-.99-.99,5.54,5.54,0,0,0-1.71-.18.45.45,0,1,1,0-.9,5.476,5.476,0,0,1,2.07.27,2.139,2.139,0,0,1,1.53,1.62,3.018,3.018,0,0,1-.54,2.16l-.09.27c-.09.27-.54,1.17-.09,1.62a2.024,2.024,0,0,0,1.35.27,2.177,2.177,0,0,1,2.07.9c.9,1.71-1.8,2.611-1.08,5.491.09.27-.09.45-.36.54A.437.437,0,0,1,18.662,38.113Zm-2.971,1.8c-.9-.54-.72-.9-1.8-.36a2.344,2.344,0,0,1-1.35.36,1.867,1.867,0,0,1-1.44-2.16c.09-.81.36-1.53.36-2.16,0-.45-.36-1.17-.81-1.08a.425.425,0,0,1-.45-.45c-.09-.99,2.16-.54,2.16,1.53,0,.81-.36,1.53-.36,2.25,0,.54.27,1.17.72,1.26a2.012,2.012,0,0,0,.9-.27c.99-.54,1.53-.63,2.341.09a1.243,1.243,0,0,0,.36.27c.18.09.36.09.36,0,0-.27.27-.36.54-.36.54.09.45.9-.18,1.17A1.425,1.425,0,0,1,15.691,39.913Z" transform="translate(-0.57 -1.781)" fill="#f48c87"/>
    <path id="Path_6201" data-name="Path 6201" d="M21.59,31.975c-.81,0-1.26-.72-.81-1.08a.445.445,0,0,1,.63.09.314.314,0,0,0,.18.09c.72.09.9-1.08,1.35-1.71a2.854,2.854,0,0,1,2.25-1.08.45.45,0,1,1,0,.9,1.749,1.749,0,0,0-1.44.72c-.36.45-.45.99-.81,1.53A2.371,2.371,0,0,1,21.59,31.975Zm9-10.982a4.692,4.692,0,0,1-1.35-.54.516.516,0,0,1-.18-.63c.09-.27.36-.27.63-.18a5.507,5.507,0,0,0,1.08.45.863.863,0,0,0,.81-.18,1.472,1.472,0,0,1,1.98-.63,4.825,4.825,0,0,0,.99.45c.18,0,.45,0,.45-.09a.4.4,0,0,1,.54-.27c.72.27,0,1.53-1.17,1.26-.63-.18-1.35-.81-1.8-.54A1.976,1.976,0,0,1,30.592,20.993Zm6.841,7.382a.6.6,0,0,1,.63.18,1.6,1.6,0,0,0,1.98.63,4.81,4.81,0,0,0,1.35-1.35c.63-.54,1.53-1.08,2.341-.63.63.27.9,1.08,1.35,1.26a1.15,1.15,0,0,0,1.08-.18,4.038,4.038,0,0,0,.9-1.17.463.463,0,1,1,.81.45A4.353,4.353,0,0,1,46.706,29a2.167,2.167,0,0,1-2.07.27c-.63-.36-.9-1.08-1.26-1.26a1.4,1.4,0,0,0-1.35.45,8.926,8.926,0,0,1-1.62,1.53C38.6,30.895,36.534,28.824,37.434,28.374Zm19.8,2.7a.494.494,0,0,1-.36-.54,2.042,2.042,0,0,0-.36-.09c-.72.27-1.62,1.53-3.691-.45a.446.446,0,1,1,.63-.63c1.53,1.53,1.71.54,2.791.27a1.12,1.12,0,0,1,1.53,1.17C57.778,30.895,57.508,31.075,57.238,31.075Z" transform="translate(-1.608 -1.224)" fill="#f48c87"/>
    <g id="Group_1263" data-name="Group 1263" transform="translate(8.965 16.989)">
      <path id="Path_6202" data-name="Path 6202" d="M11.567,33.945a4.9,4.9,0,0,1,.54-8.372,5.942,5.942,0,0,0,1.98-1.08c.54-.72.36-1.89.54-2.971a4.265,4.265,0,0,1,4.951-3.331.459.459,0,0,1-.18.9A3.354,3.354,0,0,0,15.527,21.7a3.693,3.693,0,0,0-.09.99c-.09,2.07-.45,2.7-2.25,3.421-.18.09-.45.18-.63.27a3.934,3.934,0,0,0-.45,6.751.445.445,0,0,1,.09.63A.387.387,0,0,1,11.567,33.945Z" transform="translate(-9.462 -18.113)"/>
    </g>
    <g id="Group_1264" data-name="Group 1264" transform="translate(20.162 53.139)">
      <path id="Path_6203" data-name="Path 6203" d="M25.141,59.2h0a1.088,1.088,0,0,1-.9.27c-.72,0-1.98,0-2.341-.9.63-.63,2.25-.09,2.791.09C24.961,58.747,25.231,58.927,25.141,59.2Z" transform="translate(-21.9 -58.27)"/>
    </g>
    <g id="Group_1265" data-name="Group 1265" transform="translate(6.682 8.103)">
      <path id="Path_6204" data-name="Path 6204" d="M51.012,52.314c-8.012,0-19.8-8.012-26.376-13.593a72.057,72.057,0,0,1-13.5-14.763C6.9,17.566,5.822,12.615,8.073,9.915c3.241-3.781,11.973-.27,16.474,1.89a14.542,14.542,0,0,1,3.241,1.89c.09.09.09.18-.09.18-1.26.36-2.16.63-3.421-.18-3.511-1.8-12.423-5.581-14.943-2.7-1.71,1.98-.45,6.391,3.151,11.883C17.075,29.719,24.366,36.65,31.3,41.692,41.74,49.163,51.642,52.4,54.253,49.253c1.53-1.8.45-5.131-.54-7.2-.36-.9-1.53-2.16-.72-3.151,1.08-1.35,1.98,1.35,2.341,2.16C58.934,48.893,55.873,52.314,51.012,52.314Z" transform="translate(-6.925 -8.242)" fill="#fc4949"/>
    </g>
    <g id="Group_1266" data-name="Group 1266" transform="translate(47.756 46.873)">
      <ellipse id="Ellipse_1143" data-name="Ellipse 1143" cx="4.321" cy="4.591" rx="4.321" ry="4.591" transform="matrix(0.031, -0.999, 0.999, 0.031, 0, 8.638)" fill="#5762ef"/>
    </g>
    <g id="Group_1267" data-name="Group 1267" transform="translate(4.485 12.209)">
      <ellipse id="Ellipse_1144" data-name="Ellipse 1144" cx="3.601" cy="3.421" rx="3.601" ry="3.421" transform="translate(0 7.199) rotate(-88.296)" fill="#ffd55f"/>
    </g>
    <g id="Group_1268" data-name="Group 1268" transform="translate(45.344 6.856)">
      <path id="Path_6205" data-name="Path 6205" d="M50.257,13.2a.4.4,0,0,1-.36-.54l.72-5.4a.452.452,0,0,1,.9.09l-.72,5.4A.571.571,0,0,1,50.257,13.2Z" transform="translate(-49.874 -6.856)"/>
    </g>
    <g id="Group_1269" data-name="Group 1269" transform="translate(47.97 9.858)">
      <path id="Path_6206" data-name="Path 6206" d="M52.979,14.25a.445.445,0,0,1-.09-.63l2.521-3.241a.45.45,0,1,1,.72.54L53.609,14.16A.386.386,0,0,1,52.979,14.25Z" transform="translate(-52.791 -10.191)"/>
    </g>
    <g id="Group_1270" data-name="Group 1270" transform="translate(50.295 14.974)">
      <path id="Path_6207" data-name="Path 6207" d="M55.4,17.248c-.09-.27.09-.45.36-.54l3.421-.81c.27-.09.45.09.54.36s-.09.45-.36.54l-3.421.72C55.757,17.608,55.487,17.428,55.4,17.248Z" transform="translate(-55.374 -15.874)"/>
    </g>
    <g id="Group_1271" data-name="Group 1271" transform="translate(36.087 14.894)">
      <path id="Path_6208" data-name="Path 6208" d="M54.812,41.544a.475.475,0,0,1,.18-.63,3.565,3.565,0,0,0,1.8-3.331.425.425,0,0,1,.45-.45c3.061-.18,4.231-6.391.99-10.442a9.1,9.1,0,0,0-6.481-3.421.5.5,0,0,1-.45-.54,4.951,4.951,0,0,0-1.98-4.771c-2.611-1.89-7.112-1.62-9,0a.45.45,0,0,1-.54-.72c2.25-1.8,7.2-2.07,10.082,0a6.088,6.088,0,0,1,2.431,5.221,9.794,9.794,0,0,1,6.661,3.691c3.421,4.411,2.431,11.072-1.26,11.883a4.439,4.439,0,0,1-2.25,3.691A.475.475,0,0,1,54.812,41.544Z" transform="translate(-39.591 -15.786)"/>
    </g>
  </g>
</svg>
