<svg id="Group_47750" data-name="Group 47750" xmlns="http://www.w3.org/2000/svg" width="21.081" height="21.081" viewBox="0 0 21.081 21.081">
  <path id="Path_37432" data-name="Path 37432" d="M0,0H21.081V21.081H0Z" fill="none" fill-rule="evenodd"/>
  <path id="Path_37433" data-name="Path 37433" d="M7.013,11.1,5.587,9.676a11.339,11.339,0,0,0-1.513,1.24,12.638,12.638,0,0,0-1.7,2.042q-.234.35-.439.717l.027.048c.113.2.251.426.413.668a12.637,12.637,0,0,0,1.7,2.042A9.828,9.828,0,0,0,11.1,19.385a9.581,9.581,0,0,0,3.536-.659l-.962-.962A4.832,4.832,0,0,1,7.013,11.1Zm.64.64a3.954,3.954,0,0,0,5.382,5.382L7.653,11.742Zm.234-1.008.01.01,6.136,6.136.01.01,1.665,1.665.014.014L18.4,21.249a.439.439,0,0,1-.621.621L15.31,19.4a10.445,10.445,0,0,1-4.208.865,10.7,10.7,0,0,1-7.639-3.2A13.509,13.509,0,0,1,1.646,14.88q-.237-.354-.448-.725-.081-.142-.154-.288a.439.439,0,0,1,0-.384c.027-.056.078-.154.154-.288.124-.22.273-.463.448-.725a13.509,13.509,0,0,1,1.817-2.185A12.274,12.274,0,0,1,4.956,9.045L2.248,6.337a.439.439,0,0,1,.621-.621L5.949,8.8l.013.013Zm12.353,2.99.027-.048-.027-.048q-.194-.342-.413-.668a12.638,12.638,0,0,0-1.7-2.042A9.828,9.828,0,0,0,11.1,7.966a9.684,9.684,0,0,0-2.776.4.439.439,0,1,1-.25-.842A10.564,10.564,0,0,1,11.1,7.087a10.7,10.7,0,0,1,7.639,3.2,13.509,13.509,0,0,1,1.817,2.185c.175.262.324.505.448.725.076.134.126.232.154.288a.439.439,0,0,1,0,.384c-.027.056-.078.154-.154.288-.124.22-.273.463-.448.725a13.509,13.509,0,0,1-1.817,2.185q-.375.365-.78.7a.439.439,0,1,1-.558-.679q.376-.31.725-.649a12.637,12.637,0,0,0,1.7-2.042q.219-.327.413-.669ZM9.888,9.912a.439.439,0,0,1-.27-.836A4.835,4.835,0,0,1,15.7,15.159a.439.439,0,0,1-.836-.27A3.956,3.956,0,0,0,9.888,9.912Z" transform="translate(-0.561 -3.135)" fill="#707070"/>
</svg>
