<svg xmlns="http://www.w3.org/2000/svg" xmlns:xlink="http://www.w3.org/1999/xlink" width="64.604" height="64.604" viewBox="0 0 64.604 64.604">
  <defs>
    <filter id="Ellipse_328" x="0" y="0" width="64.604" height="64.604" filterUnits="userSpaceOnUse">
      <feOffset dy="1.883" input="SourceAlpha"/>
      <feGaussianBlur stdDeviation="3.766" result="blur"/>
      <feFlood flood-opacity="0.149"/>
      <feComposite operator="in" in2="blur"/>
      <feComposite in="SourceGraphic"/>
    </filter>
  </defs>
  <g id="Group_53881" data-name="Group 53881" transform="translate(11.297 9.415)">
    <g transform="matrix(1, 0, 0, 1, -11.3, -9.41)" filter="url(#Ellipse_328)">
      <circle id="Ellipse_328-2" data-name="Ellipse 328" cx="21.005" cy="21.005" r="21.005" transform="translate(11.3 9.41)" fill="#fff"/>
    </g>
    <path id="Icon_awesome-eye" data-name="Icon awesome-eye" d="M15.787,9.392A8.844,8.844,0,0,0,7.941,4.5,8.845,8.845,0,0,0,.1,9.392a.892.892,0,0,0,0,.8,8.844,8.844,0,0,0,7.845,4.892A8.845,8.845,0,0,0,15.787,10.2.892.892,0,0,0,15.787,9.392ZM7.941,13.765a3.971,3.971,0,1,1,3.971-3.971A3.971,3.971,0,0,1,7.941,13.765Zm0-6.618a2.628,2.628,0,0,0-.7.1A1.319,1.319,0,0,1,5.4,9.1,2.641,2.641,0,1,0,7.941,7.147Z" transform="translate(13.064 11.391)" fill="#044783"/>
  </g>
</svg>
