<svg xmlns="http://www.w3.org/2000/svg" xmlns:xlink="http://www.w3.org/1999/xlink" width="24.178" height="24.178" viewBox="0 0 24.178 24.178">
  <defs>
    <linearGradient id="linear-gradient" x1="0.5" x2="0.5" y2="1" gradientUnits="objectBoundingBox">
      <stop offset="0" stop-color="#00438c"/>
      <stop offset="1" stop-color="#1265da"/>
    </linearGradient>
  </defs>
  <path id="Icon_fa-brands-square-facebook" data-name="Icon fa-brands-square-facebook" d="M21.587,2.25h-19A2.59,2.59,0,0,0,0,4.84v19a2.59,2.59,0,0,0,2.59,2.59H10v-8.22H6.6V14.339H10V11.39c0-3.354,2-5.207,5.055-5.207a20.6,20.6,0,0,1,3,.261V9.736H16.361a1.935,1.935,0,0,0-2.181,2.09v2.512h3.712L17.3,18.208H14.18v8.22h7.407a2.59,2.59,0,0,0,2.59-2.59v-19a2.59,2.59,0,0,0-2.59-2.59Z" transform="translate(0 -2.25)" fill="url(#linear-gradient)"/>
</svg>
