<svg xmlns="http://www.w3.org/2000/svg" width="47" height="45" viewBox="0 0 47 45">
  <g id="Group_47519" data-name="Group 47519" transform="translate(-193 -7940)">
    <rect id="Rectangle_19322" data-name="Rectangle 19322" width="47" height="45" rx="6" transform="translate(193 7940)" fill="#fff"/>
    <g id="Group_47528" data-name="Group 47528" transform="translate(188.105 7932.131)">
      <path id="Path_37151" data-name="Path 37151" d="M42.179,17.166V33.429H13.894V17.166a1.3,1.3,0,0,1,1.3-1.3H40.875A1.3,1.3,0,0,1,42.179,17.166Z" fill="#313b5a"/>
      <path id="Path_37152" data-name="Path 37152" d="M40.9,34.359V19.5A.494.494,0,0,0,40.4,19H17.539a.494.494,0,0,0-.5.492V34.359Z" transform="translate(-0.934 -0.93)" fill="#0f9be8"/>
      <path id="Path_37153" data-name="Path 37153" d="M42.179,43.036v-2.2H13.894v2.2a1.3,1.3,0,0,0,1.3,1.3H40.875A1.3,1.3,0,0,0,42.179,43.036Z" transform="translate(0 -7.404)" fill="#20273a"/>
      <rect id="Rectangle_19343" data-name="Rectangle 19343" width="8.721" height="3.027" transform="translate(23.676 36.929)" fill="#313b5a"/>
      <path id="Path_37154" data-name="Path 37154" d="M37.944,51.533h0a1.423,1.423,0,0,0-1.427-1.419H25.732A1.423,1.423,0,0,0,24.3,51.533H37.944Z" transform="translate(-3.088 -10.157)" fill="#20273a"/>
      <path id="Path_37155" data-name="Path 37155" d="M34.389,43.035a.675.675,0,1,1-.672-.675A.671.671,0,0,1,34.389,43.035Z" transform="translate(-5.678 -7.857)" fill="#fff"/>
      <path id="Path_37156" data-name="Path 37156" d="M42.165,54.755c0,.5-6.323.9-14.12.9s-14.12-.4-14.12-.9,6.323-.9,14.12-.9S42.165,54.256,42.165,54.755Z" transform="translate(-0.009 -11.267)" opacity="0.1"/>
      <g id="Group_47529" data-name="Group 47529" transform="translate(18.658 21.794)">
        <path id="Path_37157" data-name="Path 37157" d="M39.424,28.438A4.14,4.14,0,0,1,31.7,30.513H28.389a4.141,4.141,0,1,1-3.583-6.221H35.284A4.144,4.144,0,0,1,39.424,28.438Z" transform="translate(-20.667 -24.293)" fill="#fff"/>
        <path id="Path_37158" data-name="Path 37158" d="M27.444,28.635v.8a.111.111,0,0,1-.107.107H26.071v1.265a.111.111,0,0,1-.107.107h-.8a.111.111,0,0,1-.107-.107V29.546H23.788a.111.111,0,0,1-.107-.107v-.8a.111.111,0,0,1,.107-.107h1.265V27.262a.111.111,0,0,1,.107-.107h.8a.111.111,0,0,1,.107.107v1.265h1.265A.111.111,0,0,1,27.444,28.635Z" transform="translate(-21.561 -25.142)" fill="#20273a"/>
        <path id="Path_37159" data-name="Path 37159" d="M40.09,29.774a.748.748,0,1,1-.748-.748A.748.748,0,0,1,40.09,29.774Z" transform="translate(-25.984 -25.697)" fill="#fed110"/>
        <path id="Path_37160" data-name="Path 37160" d="M44.751,29.774A.748.748,0,1,1,44,29.026.744.744,0,0,1,44.751,29.774Z" transform="translate(-27.366 -25.697)" fill="#95d600"/>
        <path id="Path_37161" data-name="Path 37161" d="M42.425,32.109a.748.748,0,1,1-.748-.748A.751.751,0,0,1,42.425,32.109Z" transform="translate(-26.676 -26.389)" fill="#0f9be8"/>
        <circle id="Ellipse_1536" data-name="Ellipse 1536" cx="0.748" cy="0.748" r="0.748" transform="translate(14.253 1.688)" fill="#ff3445"/>
        <g id="Group_47528-2" data-name="Group 47528" transform="translate(7.462 3.58)">
          <path id="Path_37162" data-name="Path 37162" d="M32.765,29.5v.394a.119.119,0,0,1-.118.118H31.4a.12.12,0,0,1-.124-.118V29.5a.12.12,0,0,1,.124-.118h1.249A.119.119,0,0,1,32.765,29.5Z" transform="translate(-31.275 -29.382)" fill="#95d600"/>
          <path id="Path_37163" data-name="Path 37163" d="M36.1,29.5v.394a.119.119,0,0,1-.118.118H34.73a.12.12,0,0,1-.124-.118V29.5a.12.12,0,0,1,.124-.118h1.249A.119.119,0,0,1,36.1,29.5Z" transform="translate(-32.263 -29.382)" fill="#ff3445"/>
        </g>
      </g>
    </g>
  </g>
</svg>
