<svg xmlns="http://www.w3.org/2000/svg" width="47" height="45" viewBox="0 0 47 45">
  <g id="Group_47524" data-name="Group 47524" transform="translate(-193 -7940)">
    <rect id="Rectangle_19322" data-name="Rectangle 19322" width="47" height="45" rx="6" transform="translate(193 7940)" fill="#fff"/>
    <g id="Group_47530" data-name="Group 47530" transform="translate(196.529 7901.786)">
      <path id="Path_37164" data-name="Path 37164" d="M34.144,137.156a3.011,3.011,0,0,1-3.011,3.011H9.481a3.011,3.011,0,0,1-3.011-3.011V120.514A3.011,3.011,0,0,1,9.481,117.5H31.133a3.011,3.011,0,0,1,3.011,3.011Z" transform="translate(0 -67.392)" fill="#d2d3d5"/>
      <path id="Path_37165" data-name="Path 37165" d="M34.144,123.47H6.47v-2.956A3.011,3.011,0,0,1,9.481,117.5H31.133a3.011,3.011,0,0,1,3.011,3.011Z" transform="translate(0 -67.392)" fill="#fd423d"/>
      <path id="Path_37166" data-name="Path 37166" d="M142.452,401.667a.609.609,0,0,1-.529.665h-2.39a.609.609,0,0,1-.529-.665v-.925a.609.609,0,0,1,.529-.665h2.39a.609.609,0,0,1,.529.665Zm0,4.153a.609.609,0,0,0-.529-.665h-2.39a.609.609,0,0,0-.529.665v.925a.609.609,0,0,0,.529.665h2.39a.609.609,0,0,0,.529-.665Zm0,5.078a.609.609,0,0,0-.529-.665h-2.39a.609.609,0,0,0-.529.665v.925a.609.609,0,0,0,.529.665h2.39a.609.609,0,0,0,.529-.665Zm5.657-10.156a.609.609,0,0,0-.529-.665h-2.39a.609.609,0,0,0-.529.665v.925a.609.609,0,0,0,.529.665h2.39a.609.609,0,0,0,.529-.665Zm0,5.078a.609.609,0,0,0-.529-.665h-2.39a.609.609,0,0,0-.529.665v.925a.609.609,0,0,0,.529.665h2.39a.609.609,0,0,0,.529-.665Zm0,5.078a.609.609,0,0,0-.529-.665h-2.39a.609.609,0,0,0-.529.665v.925a.609.609,0,0,0,.529.665h2.39a.609.609,0,0,0,.529-.665Zm5.657-10.156a.609.609,0,0,0-.529-.665h-2.39a.609.609,0,0,0-.529.665v.925a.609.609,0,0,0,.529.665h2.39a.609.609,0,0,0,.529-.665Zm0,5.078a.609.609,0,0,0-.529-.665h-2.39a.609.609,0,0,0-.529.665v.925a.609.609,0,0,0,.529.665h2.39a.609.609,0,0,0,.529-.665Zm0,5.078a.609.609,0,0,0-.529-.665h-2.39a.609.609,0,0,0-.529.665v.925a.609.609,0,0,0,.529.665h2.39a.609.609,0,0,0,.529-.665Zm5.657-10.156a.609.609,0,0,0-.529-.665H156.5a.609.609,0,0,0-.529.665v.925a.609.609,0,0,0,.529.665h2.39a.609.609,0,0,0,.529-.665Zm0,5.078a.609.609,0,0,0-.529-.665H156.5a.609.609,0,0,0-.529.665v.925a.609.609,0,0,0,.529.665h2.39a.609.609,0,0,0,.529-.665Zm0,5.078a.609.609,0,0,0-.529-.665H156.5a.609.609,0,0,0-.529.665v.925a.609.609,0,0,0,.529.665h2.39a.609.609,0,0,0,.529-.665Z" transform="translate(-128.907 -342.232)" fill="#7491af"/>
      <circle id="Ellipse_1537" data-name="Ellipse 1537" cx="1.606" cy="1.606" r="1.606" transform="translate(25.104 50.738)" fill="#e2e6e8"/>
      <circle id="Ellipse_1538" data-name="Ellipse 1538" cx="1.606" cy="1.606" r="1.606" transform="translate(12.239 50.738)" fill="#e2e6e8"/>
      <path id="Path_37167" data-name="Path 37167" d="M238.91,52.216a1.107,1.107,0,1,1-2.214,0V49.321a1.107,1.107,0,1,1,2.214,0Zm12.856-2.895a1.107,1.107,0,1,0-2.214,0v2.895a1.107,1.107,0,1,0,2.214,0Z" transform="translate(-223.924 0)" fill="#4e5963"/>
    </g>
  </g>
</svg>
