<svg xmlns="http://www.w3.org/2000/svg" width="47" height="45" viewBox="0 0 47 45">
  <g id="Group_47526" data-name="Group 47526" transform="translate(-193 -7940)">
    <rect id="Rectangle_19322" data-name="Rectangle 19322" width="47" height="45" rx="6" transform="translate(193 7940)" fill="#fff"/>
    <g id="Group_47534" data-name="Group 47534" transform="translate(199.499 7945.045)">
      <circle id="Ellipse_1548" data-name="Ellipse 1548" cx="0.612" cy="0.612" r="0.612" transform="translate(8.608 5.648)" fill="#fdcb4d"/>
      <path id="Path_37206" data-name="Path 37206" d="M4.223,44.585a.612.612,0,1,1,.612.592.612.612,0,0,1-.612-.592" transform="translate(-1.265 -13.933)" fill="#ff5892"/>
      <circle id="Ellipse_1549" data-name="Ellipse 1549" cx="0.612" cy="0.612" r="0.612" transform="translate(29.669 6.389)" fill="#02beff"/>
      <path id="Path_37207" data-name="Path 37207" d="M30.455,33.517,32.8,37.409H27.238V29.624H32.8Zm-26.694,0L1.413,37.409H6.979V29.624H1.413Z" transform="translate(-0.31 -9.063)" fill="#ff5f4a"/>
      <path id="Path_37208" data-name="Path 37208" d="M8.086,20.29H30.665v7.789H8.086ZM19.8,8.829l1.146,2.321,2.561.372a.473.473,0,0,1,.263.808l-1.854,1.807.438,2.551a.473.473,0,0,1-.687.5l-2.291-1.2-2.292,1.2a.473.473,0,0,1-.687-.5l.438-2.551-1.854-1.807a.473.473,0,0,1,.262-.808l2.561-.372,1.146-2.321a.473.473,0,0,1,.849,0Z" transform="translate(-2.578 -1.907)" fill="#ff5f4a"/>
      <path id="Path_37209" data-name="Path 37209" d="M30.58,24.454l2.2-3.645a.479.479,0,0,0-.409-.726H28.442v-1.7a.478.478,0,0,0-.478-.478h-.841V4.819a1.867,1.867,0,0,0-1.864-1.864H8.09A1.867,1.867,0,0,0,6.225,4.819V17.906h-.84a.478.478,0,0,0-.479.478v1.7H.979a.479.479,0,0,0-.409.726l2.2,3.645L.57,28.1a.479.479,0,0,0,.409.726H6.226V29.9a1.867,1.867,0,0,0,1.865,1.865H25.259A1.867,1.867,0,0,0,27.124,29.9V28.824H32.37a.479.479,0,0,0,.41-.726l-2.2-3.645ZM6.864,4.82A1.228,1.228,0,0,1,8.09,3.593H25.259A1.228,1.228,0,0,1,26.485,4.82V17.906H6.864V4.819Zm-1,14.042H27.486v6.832H5.863V18.861ZM1.826,27.868,3.737,24.7a.479.479,0,0,0,0-.5L1.826,21.04h3.08v5.133a.479.479,0,0,0,.479.479h.681v1.217H1.826Zm23.433,3.261H8.09A1.229,1.229,0,0,1,6.864,29.9V28.7a.473.473,0,0,0,.159-.351v-1.7h19.3v1.7a.473.473,0,0,0,.159.351v1.2a1.228,1.228,0,0,1-1.226,1.228Zm2.023-3.261V26.651h.682a.479.479,0,0,0,.479-.479V21.039h3.08l-1.91,3.167a.479.479,0,0,0,0,.494l1.91,3.167h-4.24Z" fill="#2e3f68"/>
      <path id="Path_37210" data-name="Path 37210" d="M27.389,23.46H16.526a.479.479,0,0,0,0,.957H27.389a.479.479,0,0,0,0-.957ZM26.158,10.8l-2.313-.336-1.034-2.1a.952.952,0,0,0-1.707,0l-1.034,2.1-2.313.336a.952.952,0,0,0-.527,1.624L18.9,14.058l-.4,2.3a.952.952,0,0,0,1.381,1l2.069-1.087,2.069,1.087a.952.952,0,0,0,1.381-1l-.4-2.3,1.675-1.631a.952.952,0,0,0-.528-1.624Zm-1.994,2.746a.478.478,0,0,0-.138.423l.445,2.546-2.291-1.2a.476.476,0,0,0-.445,0l-2.284,1.209.438-2.552a.479.479,0,0,0-.138-.423l-1.856-1.8,2.561-.372a.477.477,0,0,0,.361-.261l1.135-2.324L23.1,11.117a.478.478,0,0,0,.361.261l2.559.363-1.854,1.808Z" transform="translate(-5.283 -1.66)" fill="#2e3f68"/>
    </g>
  </g>
</svg>
