<svg xmlns="http://www.w3.org/2000/svg" width="47" height="45" viewBox="0 0 47 45">
  <g id="Group_47522" data-name="Group 47522" transform="translate(-193 -7940)">
    <rect id="Rectangle_19322" data-name="Rectangle 19322" width="47" height="45" rx="6" transform="translate(193 7940)" fill="#fff"/>
    <g id="Group_47531" data-name="Group 47531" transform="translate(200.495 7946.501)">
      <path id="Path_37168" data-name="Path 37168" d="M27.039,35.265A18.634,18.634,0,0,1,25.7,40.587a18.634,18.634,0,0,1-1.343-5.322c0-2.052.79-2.108,1.343-2.108S27.039,33.213,27.039,35.265Z" transform="translate(-9.583 -13.448)" fill="#fcb73e"/>
      <path id="Path_37169" data-name="Path 37169" d="M26.905,34.309a10.183,10.183,0,0,1-.734,2.908,10.183,10.183,0,0,1-.734-2.908c0-1.121.432-1.152.734-1.152S26.905,33.188,26.905,34.309Z" transform="translate(-10.059 -13.448)" fill="#ce2955"/>
      <path id="Path_37170" data-name="Path 37170" d="M20.542,24.815s-2.647-.6-3.4.811a.121.121,0,0,1-.23-.052c0-1.829.35-6.267,3.634-9.207Zm3.776,0s2.646-.6,3.4.811a.121.121,0,0,0,.23-.052c0-1.829-.35-6.267-3.634-9.207Z" transform="translate(-6.318 -6.083)" fill="#fcb73e"/>
      <path id="Path_37171" data-name="Path 37171" d="M29.1,35.828l-.354,1.426-.129.511a85.941,85.941,0,0,0-11.452,1.4,4.443,4.443,0,0,1,.387-.623c2.4-3.239,8.869-3.435,11.014-3.407A.557.557,0,0,1,29.1,35.828ZM17.161,39.163A86.025,86.025,0,0,0,5.7,37.765l-.129-.511-.354-1.426a.557.557,0,0,1,.533-.7c2.146-.028,8.621.168,11.019,3.413A4.384,4.384,0,0,1,17.161,39.163Z" transform="translate(-1.183 -14.313)" fill="#deddff"/>
      <path id="Path_37172" data-name="Path 37172" d="M29.444,46.3a.6.6,0,0,1-.606.606H18.273a1.968,1.968,0,0,1-1.9,1.482h-.8a1.963,1.963,0,0,1-1.9-1.482H3.111a.606.606,0,0,1,0-1.213h11a.472.472,0,0,1,.46.488h2.8a.481.481,0,0,1,.466-.488h11A.6.6,0,0,1,29.444,46.3Z" transform="translate(0 -18.948)" fill="#e83d62"/>
      <path id="Path_37173" data-name="Path 37173" d="M29.444,46.533a.6.6,0,0,1-.606.606H18.273a1.966,1.966,0,0,1-1.9,1.488h-.8a1.961,1.961,0,0,1-1.9-1.488H3.111a.6.6,0,0,1-.606-.606.609.609,0,0,1,.079-.3.616.616,0,0,0,.528.3H13.676a1.962,1.962,0,0,0,1.9,1.482h.8a1.968,1.968,0,0,0,1.9-1.482H28.838a.616.616,0,0,0,.528-.3A.609.609,0,0,1,29.444,46.533Z" transform="translate(0 -19.182)" fill="#ce2955"/>
      <path id="Path_37174" data-name="Path 37174" d="M29.325,40.336V43.1H18.216a.491.491,0,0,0-.438.483,1,1,0,0,1-1,1h-.8a1,1,0,0,1-1-1,.491.491,0,0,0-.438-.483H3.435V40.336a.562.562,0,0,1,.573-.561A56.448,56.448,0,0,1,16.374,41.2h.011a56.448,56.448,0,0,1,12.367-1.426A.562.562,0,0,1,29.325,40.336Z" transform="translate(-0.408 -16.351)" fill="#deddff"/>
      <path id="Path_37175" data-name="Path 37175" d="M29.325,40.086v.977H18.216a.491.491,0,0,0-.438.483,1,1,0,0,1-1,.994h-.8a1,1,0,0,1-1-.994.491.491,0,0,0-.438-.483H3.435v-.977H14.544a.491.491,0,0,1,.438.483,1,1,0,0,0,1,1h.8a1,1,0,0,0,1-1,.491.491,0,0,1,.438-.483Zm-12.939-.924c-.309-.084-.69-.168-1.128-.253-2.672-.505-7.477-.954-10.329-1.145L4.8,37.254a67.455,67.455,0,0,1,9.1.85.281.281,0,0,0,.22-.5c-2.463-2.034-6.847-2.419-9.207-2.47a.3.3,0,0,1,.073-.006C7.129,35.1,13.6,35.3,16,38.539v.006a4.385,4.385,0,0,1,.387.617Zm11.581-1.909-.129.511c-2.852.191-7.657.64-10.323,1.145-.438.084-.825.168-1.128.253a4.443,4.443,0,0,1,.387-.623c2.4-3.239,8.869-3.436,11.014-3.407a.3.3,0,0,1,.073.006c-2.36.051-6.733.435-9.2,2.463a.281.281,0,0,0,.22.5A66.8,66.8,0,0,1,27.966,37.254Z" transform="translate(-0.408 -14.313)" fill="#c6c6f7"/>
      <path id="Path_37176" data-name="Path 37176" d="M23.222,21.152l.066-10.621,3.889.024-.066,10.621Z" transform="translate(-9.087 -3.523)" fill="#65b9ff"/>
      <path id="Path_37177" data-name="Path 37177" d="M23.222,21.153l.066-10.621,3.889.024-.006,1.019-.981-.006a1.924,1.924,0,0,0-1.936,1.912l-.048,7.678Z" transform="translate(-9.087 -3.524)" fill="#3e7fff"/>
      <path id="Path_37178" data-name="Path 37178" d="M23.207,30.669,23.2,32.34a1.945,1.945,0,0,0,3.889.024l.011-1.672-3.889-.024Z" transform="translate(-9.076 -12.356)" fill="#5b5e8b"/>
      <path id="Path_37179" data-name="Path 37179" d="M23.2,32.341l.011-1.672,3.889.024-.006.857L24.7,31.535a.911.911,0,0,0-.917.905l0,.761a1.892,1.892,0,0,0,.1.634,1.937,1.937,0,0,1-.688-1.495Z" transform="translate(-9.076 -12.356)" fill="#312e4b"/>
      <path id="Path_37180" data-name="Path 37180" d="M23.34,7.008l1.152-2.847.61-1.52a.227.227,0,0,1,.422,0l.592,1.524,1.113,2.864Z" transform="translate(-9.139)" fill="#ffaf93"/>
      <path id="Path_37181" data-name="Path 37181" d="M25.392,4.161,26,2.642a.227.227,0,0,1,.422,0l.592,1.524a1.459,1.459,0,0,1-1.625-.007Z" transform="translate(-10.039)" fill="#312e4b"/>
      <path id="Path_37182" data-name="Path 37182" d="M23.218,29.452h3.891v.707H23.218Z" transform="translate(-9.086 -11.823)" fill="#deddff"/>
      <path id="Path_37183" data-name="Path 37183" d="M23.216,29.452H24.2v.707h-.986Z" transform="translate(-9.085 -11.823)" fill="#c6c6f7"/>
    </g>
  </g>
</svg>
