<svg xmlns="http://www.w3.org/2000/svg" width="47" height="45" viewBox="0 0 47 45">
  <g id="Group_47954" data-name="Group 47954" transform="translate(-197 -8345)">
    <g id="Group_47527" data-name="Group 47527" transform="translate(4 405)">
      <rect id="Rectangle_19322" data-name="Rectangle 19322" width="47" height="45" rx="6" transform="translate(193 7940)" fill="#fff"/>
    </g>
    <g id="Group_47533" data-name="Group 47533" transform="translate(175.586 8329.98)">
      <path id="Path_37198" data-name="Path 37198" d="M35.414,25.474V49.756a1.455,1.455,0,0,0,1.454,1.454H53.589a1.455,1.455,0,0,0,1.455-1.454V29.46l-5.436-5.44H36.868a1.455,1.455,0,0,0-1.454,1.454Z" fill="#6675e9"/>
      <path id="Path_37199" data-name="Path 37199" d="M78.2,25.186v3.986a1.455,1.455,0,0,0,1.455,1.455h3.982v-.387Z" transform="translate(-28.59 -0.779)" fill="#dddce0"/>
      <path id="Path_37200" data-name="Path 37200" d="M78.2,24.02v3.986a1.455,1.455,0,0,0,1.454,1.454h3.982Z" transform="translate(-28.59)" fill="#386384"/>
      <path id="Path_37201" data-name="Path 37201" d="M43.037,26.457a.245.245,0,0,1-.245.245h-3.84a.245.245,0,1,1,0-.491h3.84A.245.245,0,0,1,43.037,26.457Zm4.076,0a.245.245,0,0,1-.245.245H44a.245.245,0,1,1,0-.491h2.865A.245.245,0,0,1,47.112,26.457ZM37.755,35a.245.245,0,0,1,.245.245v4.808a.245.245,0,0,1-.491,0V35.246A.245.245,0,0,1,37.755,35Zm0-4.075A.245.245,0,0,1,38,31.17v2.865a.245.245,0,0,1-.491,0V31.17A.245.245,0,0,1,37.755,30.925Z" transform="translate(-1.401 -1.465)" fill="#fff"/>
      <path id="Path_37202" data-name="Path 37202" d="M56.171,69.322H43.114a1.1,1.1,0,0,1-1.1-1.095V55.873a1.1,1.1,0,0,1,1.1-1.095H56.172a1.1,1.1,0,0,1,1.1,1.095V68.227a1.1,1.1,0,0,1-1.1,1.095ZM43.114,55.441a.432.432,0,0,0-.432.431V68.227a.432.432,0,0,0,.432.431H56.172a.432.432,0,0,0,.432-.431V55.873a.432.432,0,0,0-.432-.431Z" transform="translate(-4.414 -20.554)" fill="#dddce0"/>
      <path id="Path_37203" data-name="Path 37203" d="M56.935,64.663H42.352a.332.332,0,1,1,0-.663H56.935a.332.332,0,1,1,0,.663Zm0,3.807H42.352a.332.332,0,1,1,0-.663H56.935a.332.332,0,0,1,0,.663Zm0,3.807H42.352a.332.332,0,1,1,0-.663H56.935a.332.332,0,0,1,0,.663Z" transform="translate(-4.414 -26.717)" fill="#dddce0"/>
      <path id="Path_37204" data-name="Path 37204" d="M64.332,69.322A.332.332,0,0,1,64,68.99V55.11a.332.332,0,1,1,.663,0V68.99A.332.332,0,0,1,64.332,69.322Z" transform="translate(-19.103 -20.554)" fill="#dddce0"/>
    </g>
  </g>
</svg>
