<svg xmlns="http://www.w3.org/2000/svg" width="26" height="25.999" viewBox="0 0 26 25.999">
  <path id="Path_61526" data-name="Path 61526" d="M16,29a1.072,1.072,0,0,1-.126-.008h0a1,1,0,0,1-.53-.238q-.028-.025-.055-.052l-2.995-2.995a1,1,0,1,1,1.414-1.414L15,25.586V13a1,1,0,0,1,2,0V25.586l1.293-1.293a1,1,0,1,1,1.414,1.414l-3,3a.994.994,0,0,1-.64.291h0ZM29,15a7.008,7.008,0,0,1-7,7H19V13a3,3,0,0,0-6,0v9H10A7,7,0,0,1,9.29,8.04a6.987,6.987,0,0,1,13.42,0A7,7,0,0,1,29,15Z" transform="translate(-3 -3.001)" fill="#00be55"/>
</svg>
