<svg xmlns="http://www.w3.org/2000/svg" width="22.302" height="23.045" viewBox="0 0 22.302 23.045">
  <g id="_icons" transform="translate(-3 -3)">
    <path id="Path_43897" data-name="Path 43897" d="M25.054,8.328A4.454,4.454,0,0,0,25.3,6.965,3.914,3.914,0,0,0,21.337,3H6.965A3.817,3.817,0,0,0,3,6.965a4.454,4.454,0,0,0,.248,1.363h0a10.9,10.9,0,0,0,.743,1.239l6.071,7.062a1.407,1.407,0,0,1,.372.991v6.443a1.977,1.977,0,0,0,.991,1.735,1.841,1.841,0,0,0,1.115.248,2.3,2.3,0,0,0,.867-.248l3.345-1.735A1.922,1.922,0,0,0,17.868,22.2V17.5a1.407,1.407,0,0,1,.372-.991l6.071-7.186a2.265,2.265,0,0,0,.743-.991ZM5.85,5.85a2,2,0,0,1,1.115-.372H21.337a1.472,1.472,0,0,1,1.487,1.239H5.478C5.6,6.469,5.726,6.1,5.85,5.85Zm10.532,9.169a4,4,0,0,0-.991,2.6v4.46L12.912,23.32v-5.7a4,4,0,0,0-.991-2.6L6.965,9.2h14.5Z" fill="#005cbb"/>
  </g>
</svg>
