<svg xmlns="http://www.w3.org/2000/svg" width="57.492" height="46.937" viewBox="0 0 57.492 46.937">
  <g id="Group_52599" data-name="Group 52599" transform="translate(-0.976 -3)">
    <path id="Path_44105" data-name="Path 44105" d="M50.52,21.253V18.646A7.823,7.823,0,0,0,42.7,10.823H26.324L25.5,8.349A7.823,7.823,0,0,0,18.078,3H8.8A7.823,7.823,0,0,0,.976,10.823v33.9a5.215,5.215,0,0,0,5.215,5.215h.863a5.215,5.215,0,0,0,5.131-4.282l3.658-20.119a5.215,5.215,0,0,1,5.131-4.282Z" transform="translate(0 0)" fill="#8cddb8"/>
    <path id="Path_44106" data-name="Path 44106" d="M52.113,10H17.227A5.215,5.215,0,0,0,12.1,14.282L8.438,34.4a5.215,5.215,0,0,1-5.131,4.282H45.67A5.215,5.215,0,0,0,50.8,34.4l3.878-21.327A2.608,2.608,0,0,0,52.113,10Z" transform="translate(3.747 11.253)" fill="#5aba97"/>
  </g>
</svg>
