<svg xmlns="http://www.w3.org/2000/svg" width="57.57" height="47" viewBox="0 0 57.57 47">
  <g id="Group_52599" data-name="Group 52599" transform="translate(-0.976 -3)">
    <path id="Path_44105" data-name="Path 44105" d="M50.587,21.278V18.667a7.833,7.833,0,0,0-7.833-7.833h-16.4l-.826-2.477A7.833,7.833,0,0,0,18.1,3H8.809A7.833,7.833,0,0,0,.976,10.833V44.778A5.222,5.222,0,0,0,6.2,50h.864A5.222,5.222,0,0,0,12.2,45.712l3.663-20.146A5.222,5.222,0,0,1,21,21.278Z" transform="translate(0 0)" fill="#b3c3ed"/>
    <path id="Path_44106" data-name="Path 44106" d="M52.18,10H17.246a5.222,5.222,0,0,0-5.138,4.288L8.445,34.434a5.222,5.222,0,0,1-5.138,4.288H45.727a5.222,5.222,0,0,0,5.138-4.288l3.883-21.356A2.611,2.611,0,0,0,52.18,10Z" transform="translate(3.755 11.278)" fill="#83a0f0"/>
  </g>
</svg>
