<svg xmlns="http://www.w3.org/2000/svg" width="57.852" height="47.231" viewBox="0 0 57.852 47.231">
  <g id="Group_52599" data-name="Group 52599" transform="translate(-0.976 -3)">
    <path id="Path_44105" data-name="Path 44105" d="M50.83,21.367V18.744a7.872,7.872,0,0,0-7.872-7.872H26.483l-.83-2.489A7.872,7.872,0,0,0,18.185,3H8.848A7.872,7.872,0,0,0,.976,10.872V44.983a5.248,5.248,0,0,0,5.248,5.248h.868a5.248,5.248,0,0,0,5.163-4.309l3.681-20.245A5.248,5.248,0,0,1,21.1,21.367Z" transform="translate(0 0)" fill="#e9c9f7"/>
    <path id="Path_44106" data-name="Path 44106" d="M52.419,10H17.314a5.248,5.248,0,0,0-5.163,4.309L8.47,34.554a5.248,5.248,0,0,1-5.163,4.309H45.935A5.248,5.248,0,0,0,51.1,34.554L55,13.093A2.624,2.624,0,0,0,52.419,10Z" transform="translate(3.785 11.367)" fill="#b895e3"/>
  </g>
</svg>
