<svg xmlns="http://www.w3.org/2000/svg" width="57.025" height="46.555" viewBox="0 0 57.025 46.555">
  <g id="Group_52599" data-name="Group 52599" transform="translate(-0.976 -3)">
    <path id="Path_44105" data-name="Path 44105" d="M50.118,21.1V18.518a7.759,7.759,0,0,0-7.759-7.759H26.118L25.3,8.306A7.759,7.759,0,0,0,17.939,3h-9.2A7.759,7.759,0,0,0,.976,10.759V44.383a5.173,5.173,0,0,0,5.173,5.173H7a5.173,5.173,0,0,0,5.089-4.247l3.628-19.956A5.173,5.173,0,0,1,20.811,21.1Z" transform="translate(0 0)" fill="#f7b940"/>
    <path id="Path_44106" data-name="Path 44106" d="M51.717,10h-34.6a5.173,5.173,0,0,0-5.089,4.248L8.4,34.2a5.173,5.173,0,0,1-5.089,4.248H45.326A5.173,5.173,0,0,0,50.415,34.2l3.846-21.154A2.586,2.586,0,0,0,51.717,10Z" transform="translate(3.698 11.105)" fill="#fca403"/>
  </g>
</svg>
