<svg xmlns="http://www.w3.org/2000/svg" xmlns:xlink="http://www.w3.org/1999/xlink" width="75.587" height="69.288" viewBox="0 0 75.587 69.288">
  <defs>
    <linearGradient id="linear-gradient" x1="-0.667" y1="0.25" x2="1.011" y2="0.879" gradientUnits="objectBoundingBox">
      <stop offset="0" stop-opacity="0.102"/>
      <stop offset="1" stop-opacity="0"/>
    </linearGradient>
    <linearGradient id="linear-gradient-2" x1="0.042" y1="0.327" x2="1.005" y2="0.817" gradientUnits="objectBoundingBox">
      <stop offset="0" stop-color="#fff" stop-opacity="0.2"/>
      <stop offset="1" stop-color="#fff" stop-opacity="0"/>
    </linearGradient>
  </defs>
  <g id="Group_51617" data-name="Group 51617" transform="translate(0 -1)">
    <path id="Path_42285" data-name="Path 42285" d="M37.793,1A37.835,37.835,0,0,0,0,38.793v12.6A31.564,31.564,0,0,0,3.754,66.31a1.581,1.581,0,0,0,1.389.828h7.744a4.713,4.713,0,0,0,9.159-1.575V37.219a4.713,4.713,0,0,0-9.159-1.575H5.143a1.575,1.575,0,0,0-1.386.828c-.208.384-.359.8-.548,1.19a34.427,34.427,0,0,1,9.039-22.188l3.275,3.275a1.562,1.562,0,0,0,2.227,0,28.342,28.342,0,0,1,40.086,0,1.575,1.575,0,0,0,2.23,0l3.275-3.275a34.471,34.471,0,0,1,9.042,22.188c-.192-.394-.34-.806-.548-1.19a1.59,1.59,0,0,0-1.392-.828H62.7a4.713,4.713,0,0,0-9.159,1.575V65.564A4.713,4.713,0,0,0,62.7,67.138h7.744a1.575,1.575,0,0,0,1.386-.828,31.532,31.532,0,0,0,3.757-14.919v-12.6A37.835,37.835,0,0,0,37.793,1Z" fill="#303c42"/>
    <path id="Path_42286" data-name="Path 42286" d="M5,13.575a1.575,1.575,0,0,1,3.149,0V41.92A1.575,1.575,0,0,1,5,41.92Z" transform="translate(10.747 23.644)" fill="#b3b3b3"/>
    <path id="Path_42287" data-name="Path 42287" d="M3.951,13h6.5V38.2h-6.5a28.365,28.365,0,0,1,0-25.2Z" transform="translate(2.149 25.793)" fill="#ccc"/>
    <path id="Path_42288" data-name="Path 42288" d="M21.149,41.92a1.575,1.575,0,0,1-3.149,0V13.575a1.575,1.575,0,1,1,3.149,0Z" transform="translate(38.69 23.644)" fill="#b3b3b3"/>
    <path id="Path_42289" data-name="Path 42289" d="M14.873,43.224V14.879A1.575,1.575,0,0,1,16.448,13.3a1.341,1.341,0,0,1,.249.05,1.556,1.556,0,0,0-3.1.249V41.948a1.557,1.557,0,0,0,1.326,1.524,1.659,1.659,0,0,1-.05-.249ZM2.276,29.051a28.368,28.368,0,0,1,2.954-12.6h5.219V15.178h-6.5a28.365,28.365,0,0,0,0,25.2h.734A28.389,28.389,0,0,1,2.276,29.051Zm53.54,14.172V14.879A1.575,1.575,0,0,1,57.391,13.3a1.341,1.341,0,0,1,.249.05,1.556,1.556,0,0,0-3.1.249V41.948a1.557,1.557,0,0,0,1.326,1.524,1.658,1.658,0,0,1-.05-.249Z" transform="translate(2.149 23.615)" fill="#fff" opacity="0.2"/>
    <path id="Path_42290" data-name="Path 42290" d="M26.494,38.2H20V13h6.494A28.367,28.367,0,0,1,26.494,38.2Z" transform="translate(42.989 25.793)" fill="#ccc"/>
    <path id="Path_42291" data-name="Path 42291" d="M49.044,13.288a31.5,31.5,0,0,0-42.259,0L4.6,11.1a34.43,34.43,0,0,1,46.637,0Z" transform="translate(9.879 2.149)" fill="#b3b3b3"/>
    <path id="Path_42292" data-name="Path 42292" d="M27.914,3.442a34.4,34.4,0,0,1,22.531,8.44l.787-.787A34.434,34.434,0,0,0,4.6,11.1l.787.787A34.386,34.386,0,0,1,27.914,3.442Z" transform="translate(9.879 2.149)" fill="#fff" opacity="0.2"/>
    <path id="Path_42293" data-name="Path 42293" d="M26.494,38.2a28.367,28.367,0,0,0,2.749-15.952L20,13V38.2Z" transform="translate(42.989 25.793)" fill="url(#linear-gradient)"/>
    <path id="Path_42294" data-name="Path 42294" d="M37.793,1A37.835,37.835,0,0,0,0,38.793v12.6A31.564,31.564,0,0,0,3.754,66.31a1.581,1.581,0,0,0,1.389.828h7.744a4.713,4.713,0,0,0,9.159-1.575V37.219a4.713,4.713,0,0,0-9.159-1.575H5.143a1.575,1.575,0,0,0-1.386.828c-.208.384-.359.8-.548,1.19a34.427,34.427,0,0,1,9.039-22.188l3.275,3.275a1.562,1.562,0,0,0,2.227,0,28.342,28.342,0,0,1,40.086,0,1.575,1.575,0,0,0,2.23,0l3.275-3.275a34.471,34.471,0,0,1,9.042,22.188c-.192-.394-.34-.806-.548-1.19a1.59,1.59,0,0,0-1.392-.828H62.7a4.713,4.713,0,0,0-9.159,1.575V65.564A4.713,4.713,0,0,0,62.7,67.138h7.744a1.575,1.575,0,0,0,1.386-.828,31.532,31.532,0,0,0,3.757-14.919v-12.6A37.835,37.835,0,0,0,37.793,1Z" fill="url(#linear-gradient-2)"/>
  </g>
</svg>
