<svg xmlns="http://www.w3.org/2000/svg" width="22.691" height="20.946" viewBox="0 0 22.691 20.946">
  <path id="Path_140" data-name="Path 140" d="M64.451,64a6.712,6.712,0,0,0-5.106,2.4A6.712,6.712,0,0,0,54.24,64,6.17,6.17,0,0,0,48,70.278c0,4.337,3.857,7.819,9.7,13.183l1.645,1.484,1.645-1.484c5.843-5.364,9.7-8.846,9.7-13.183A6.17,6.17,0,0,0,64.451,64ZM60.046,81.96l-.23.211-.47.424-.47-.424-.23-.211a69.457,69.457,0,0,1-6.7-6.654c-1.525-1.893-2.2-3.444-2.2-5.028a4.543,4.543,0,0,1,1.294-3.235,4.467,4.467,0,0,1,3.2-1.3,4.992,4.992,0,0,1,3.77,1.775l1.336,1.588,1.336-1.588a4.992,4.992,0,0,1,3.77-1.775,4.468,4.468,0,0,1,3.2,1.3,4.544,4.544,0,0,1,1.294,3.236c0,1.584-.68,3.134-2.2,5.028A69.453,69.453,0,0,1,60.046,81.96Z" transform="translate(-48 -64)"/>
</svg>
