<svg xmlns="http://www.w3.org/2000/svg" width="55.328" height="53.222" viewBox="0 0 55.328 53.222">
  <g id="Group_1316" data-name="Group 1316" transform="translate(-2.617 -3.762)">
    <path id="Path_6236" data-name="Path 6236" d="M39.273,13.907c-3,16.749-1.939,10.931-2.116,12.165-2.909.088-5.377.176-8.374.264,1.146-2.733,2.292-5.377,3.438-8.11A27.328,27.328,0,0,1,24.2,18.05c2.556-3.879,4.76-9.256,6.964-13.663a.189.189,0,0,1,.353.088c-.264,3.173,0,7.669-.441,10.49ZM19.351,28.628c-2.2,1.851-4.143,3.526-6.347,5.377L3.219,26.337l6.788-4.76a4.415,4.415,0,0,1-.705-.617c-2.116-1.851-4.584-4.936-6.611-6.876-.176-.088,0-.353.176-.264,4.584,1.851,9.785,4.319,14.369,5.553a31.033,31.033,0,0,1-5.818,5.465C14.062,26.16,16.706,27.306,19.351,28.628ZM57.872,18.579c-2.027,1.5-4.5,3.879-6.347,5.025l4.848,4.408c-11.548,6.876-7.581,4.5-8.462,5.025C46.325,31.361,45,29.863,43.5,28.188c2.2-.793,4.408-1.41,6.611-2.116a23.7,23.7,0,0,1-4.055-4.848c3.526-.529,7.934-1.939,11.636-2.909C57.872,18.227,58.049,18.4,57.872,18.579Z" transform="translate(0 -0.063)" fill="#ffd55f"/>
    <path id="Path_6237" data-name="Path 6237" d="M11.5,26.187c2.645,1.322,5.289,2.468,7.934,3.7-2.2,1.851-4.143,3.526-6.347,5.377L3.3,27.686l6.788-4.76a4.415,4.415,0,0,1-.705-.617,38.125,38.125,0,0,0,7.052-.617A23.76,23.76,0,0,1,11.5,26.187ZM39.265,15.873,37.238,27.421c-2.909.088-5.377.176-8.374.264,1.146-2.733,2.292-5.377,3.438-8.11a28.581,28.581,0,0,1-7.757-.088C28.952,17.725,34.065,14.9,39.265,15.873ZM53.017,31.388l-5.025,3c-1.587-1.675-2.909-3.173-4.408-4.848,2.2-.793,4.408-1.41,6.611-2.116a23.7,23.7,0,0,1-4.055-4.848l1.587-.264C49.138,24.248,49.843,25.746,53.017,31.388Z" transform="translate(-0.081 -1.412)" fill="#fcc11a"/>
    <path id="Path_6238" data-name="Path 6238" d="M32.1,51.134a5.188,5.188,0,0,0,4.848,4.76c.088.088.176.088.176.176a10.4,10.4,0,0,1,3.967,5.642.809.809,0,0,0,.353.529h0a.846.846,0,0,0,.793.176c.529-.088,1.675-.088,2.027-.882v-.088a1.524,1.524,0,0,0-.088-.882A21.051,21.051,0,0,0,41.532,55.1c-.793-1.146-.97-3.35-.97-4.76V49.9A30.708,30.708,0,0,1,32.1,51.134Z" transform="translate(-3.494 -5.467)" fill="#f86089"/>
    <path id="Path_6239" data-name="Path 6239" d="M32.9,52.25c7.14,3.173,8.462,3.879,10.754,3.967A7.181,7.181,0,0,0,49.3,53.572a9.519,9.519,0,0,0,1.587-3.35c.264-.705.529-1.675.176-2.2-.617-.97-2.38-.529-3.35-.353a15.16,15.16,0,0,0-4.055.97c-1.763.705-3.526,1.939-5.289,2.556A28.53,28.53,0,0,1,32.9,52.25Z" transform="translate(-3.588 -5.172)" fill="#f86089"/>
    <path id="Path_6240" data-name="Path 6240" d="M41.433,51.139a10.152,10.152,0,0,0,8.2,2.821c.088-.176.264-.264.353-.441A9.924,9.924,0,0,1,41.7,50.874C41.521,50.61,41.256,50.963,41.433,51.139Zm-.617,1.322a9.832,9.832,0,0,0,5.465,3.79c.264-.088.441-.176.705-.264a9.449,9.449,0,0,1-5.818-3.7A.324.324,0,0,0,40.9,52.2h0A.324.324,0,0,0,40.816,52.461Zm-2.556,0a10.694,10.694,0,0,0,4.408,4.231c-.088-.088-.088-.176-.176-.264.264.088.617.088.882.176a9.573,9.573,0,0,1-4.848-4.231C38.436,52.02,38.083,52.285,38.259,52.461Zm6.347-1.322a8.951,8.951,0,0,0,6.259.441,3.467,3.467,0,0,0,.176-.529,8.124,8.124,0,0,1-6.259-.353C44.606,50.61,44.43,50.963,44.606,51.139Zm-7.581,4.848h.264c.088.088.176.088.176.176a3.947,3.947,0,0,1-.353-1.763c.088-1.322.617-1.587.264-1.763a.169.169,0,0,0-.264.088A5.148,5.148,0,0,0,37.025,55.987ZM35,55.282c.176.088.264.176.441.264a3.505,3.505,0,0,1,.705-2.733c.176-.176-.176-.441-.353-.264A3.621,3.621,0,0,0,35,55.282Z" transform="translate(-3.835 -5.56)" fill="#ef3f75"/>
    <path id="Path_6241" data-name="Path 6241" d="M11.256,46.24a3.929,3.929,0,0,0,5.994,2.027,8.914,8.914,0,0,0,12.606,2.292,3.776,3.776,0,0,1,3.35-.529,7.3,7.3,0,0,0,5.113-.264c1.234-.529,2.38-1.5,3.7-1.763.97-.176,1.939,0,3-.088A6.1,6.1,0,0,0,49.426,44.3a6.185,6.185,0,0,0,.264-4.5,4.749,4.749,0,0,1-.617-1.146,5.425,5.425,0,0,1,.264-1.587,4.855,4.855,0,0,0-1.675-3.967,11.162,11.162,0,0,1-2.2-1.851c-.793-1.146-.264-2.38-2.645-3.7-.705-.353-1.41-1.058-2.292-.617,0-.088-.088-.176-.088-.264l-.088-.088A5.91,5.91,0,0,0,39.2,25.436c-1.322-.705-1.763-.705-7.228-1.675a7.883,7.883,0,0,0-3.79-.088c-1.587.441-2.821,1.675-4.319,2.2-2.027.705-4.5.353-6.259,1.587-.882.705-2.645,2.468-2.292,3.614a.674.674,0,0,1-.176.793,1.5,1.5,0,0,1-.617.088c-3-.353-5.465,3.262-6.171,5.73C7.2,41.832,8.7,45.094,11.256,46.24Z" transform="translate(-0.633 -2.336)" fill="#ff85ab"/>
    <path id="Path_6242" data-name="Path 6242" d="M26.879,42.245c.264-1.41.441-2.909-.353-3.79-.441-.441-1.587-1.058-1.322-2.116.088-.353.264-.441.353-.705.176-.441-.176-.97-.617-1.234-.441-.353-1.058-.529-1.5-.882A1.512,1.512,0,0,1,23,31.667a1.923,1.923,0,0,1,.353-.441.937.937,0,0,0-.176-1.058,3.77,3.77,0,0,0-1.146-.793c-1.146-.793-1.146-1.763-.529-2.2A.686.686,0,0,1,22.207,27c.264.088.176.529-.088.441-.353-.088-.617.353-.529.705.088.882,1.322,1.146,1.939,1.851a1.342,1.342,0,0,1,.176,1.587,1.923,1.923,0,0,1-.353.441c-.264.353,0,.882.353,1.234.441.353.97.529,1.5.882A1.665,1.665,0,0,1,26,35.81c-.176.441-.705.793,0,1.587.793.793,2.116,1.146,1.322,5.025A.237.237,0,1,1,26.879,42.245ZM43.8,37.309c-.264-.088-.088-.529.176-.441a3.464,3.464,0,0,0,2.116.264c1.234-.353,1.675-1.675,2.027-2.733.088-.264.529-.088.441.176-.441,1.234-.97,2.645-2.38,3A3.734,3.734,0,0,1,43.8,37.309ZM34.46,35.282a1.231,1.231,0,0,1,.264-1.322l.264-.264c.705-.441.176-.793-.088-1.675a1.961,1.961,0,0,1,1.146-2.2,5.764,5.764,0,0,1,2.027-.529c-.441-.97.353-2.116,1.851-2.116a5.155,5.155,0,0,1,1.675.353c.088,0,.176.176.176.264-.176.441-.705-.176-1.851-.176a1.663,1.663,0,0,0-1.322.529.938.938,0,0,0,0,1.234c.176.176.088.353-.176.353a4.705,4.705,0,0,0-2.2.441,1.656,1.656,0,0,0-.882,1.763c.176.529.705,1.234.353,1.763-.176.264-.441.353-.617.529-.353.353-.264,1.058.529,1.587a2.583,2.583,0,0,0,2.645-.088,2.526,2.526,0,0,0,1.058-2.468.234.234,0,0,1,.264-.264,2.75,2.75,0,0,0,2.027.176c.529-.176.97-.97.617-1.41a.221.221,0,1,1,.353-.264c.617.705,0,1.763-.793,2.027a2.936,2.936,0,0,1-1.939-.088A3.134,3.134,0,0,1,38.6,35.987C37.016,37.133,34.9,36.516,34.46,35.282Zm-14.545.882c.088-.353-.353-.617-.617-.793-.441-.176-1.058-.264-1.322-.793-.264-.353-.264-.882-.529-1.058a1.718,1.718,0,0,0-.705-.088c-.353-.088-.793-.353-.705-.793.088-.264.529-.176.441.088,0,.088.176.176.264.176a1.743,1.743,0,0,1,.882.176c.441.264.441.882.617,1.234s.705.441,1.146.617a1.168,1.168,0,0,1,.882,1.322C20.268,36.516,19.827,36.427,19.915,36.163Zm-7.934,9.785a1.013,1.013,0,0,1,.705-1.5c.264,0,.617.088.705-.088.264-.176-.088-1.146.617-1.322h.353c.264.176,0,.529-.176.353-.529.088.264,1.5-1.234,1.41-.264,0-.529,0-.617.264a.393.393,0,0,0,0,.441C12.51,45.948,12.158,46.212,11.981,45.948Zm33.585-5.025c-.176-.176.088-.529.353-.264a.59.59,0,0,0,.882-.176.218.218,0,0,1,.353-.088.92.92,0,0,0,1.587-.264c.088-.264.529-.088.441.176a1.329,1.329,0,0,1-2.116.617,1.844,1.844,0,0,1-.529.353A1.1,1.1,0,0,1,45.567,40.923Z" transform="translate(-1.093 -2.749)" fill="#f86089"/>
    <path id="Path_6243" data-name="Path 6243" d="M19.089,50.434a3.52,3.52,0,0,1-1.763-1.41,1.634,1.634,0,0,1-.617.176,2.872,2.872,0,0,1-1.146.353,4.434,4.434,0,0,1-4.76-3.438,3.527,3.527,0,0,1-1.675-1.322c-1.587-1.763-1.939-5.906.353-9.08a8.627,8.627,0,0,1,5.553-3.526,5.15,5.15,0,0,1,1.939-4.672c1.41-1.146,3.526-1.234,5.377-1.234,1.058.088,3.085-.529,4.319.264a.441.441,0,1,1-.529.705c-.793-.617-2.645-.088-3.79-.176-1.675,0-3.614.088-4.848,1.058A4.1,4.1,0,0,0,16,32.363a.5.5,0,0,1-.353.617,7.762,7.762,0,0,0-6.7,9.432,3.644,3.644,0,0,0,.882,1.851c.617.705.882,1.058,1.41,1.058a.416.416,0,0,1,.441.441,3.423,3.423,0,0,0,3.79,2.909,2.8,2.8,0,0,0,.793-.264,7.413,7.413,0,0,0,.882-.353.4.4,0,0,1,.705.176,2.629,2.629,0,0,0,1.5,1.41.393.393,0,0,1,.264.529A.37.37,0,0,1,19.089,50.434Zm28.737-9.961a.436.436,0,0,1,.088-.617,3.438,3.438,0,0,0-.617-5.818,1.253,1.253,0,0,0-.529-.176c-1.587-.529-2.027-1.058-2.2-2.909,0-.353-.088-.617-.088-.882a3.027,3.027,0,0,0-3.438-2.116c-.264.088-.441-.088-.529-.353s.088-.441.353-.529a3.829,3.829,0,0,1,4.584,2.733c.088.353.088.705.176.97.176,1.5.353,1.763,1.587,2.2.176.088.441.176.617.264a4.279,4.279,0,0,1,.793,7.316C48.267,40.649,48,40.649,47.826,40.473Z" transform="translate(-0.62 -2.651)"/>
    <g id="Group_1298" data-name="Group 1298" transform="translate(29.585 28.773)">
      <path id="Path_6244" data-name="Path 6244" d="M34.171,36.159a2.236,2.236,0,0,1-.176-1.058c0-.793-.088-.793-.529-1.41-.441-.705-.264-1.234.176-1.5.353-.176.793.088.617.353-.088.088-.176.176-.264.088h-.088c-.353.088-.176.529,0,.793a1.948,1.948,0,0,1,.529,1.587,1.185,1.185,0,0,0,.176.793,1.09,1.09,0,0,0,1.234.353c.97-.264,1.322-1.146,1.587-.793a.268.268,0,0,1,0,.353,3.234,3.234,0,0,1-1.5.882A1.444,1.444,0,0,1,34.171,36.159Z" transform="translate(-33.21 -32.135)" fill="#f86089"/>
    </g>
    <g id="Group_1299" data-name="Group 1299" transform="translate(31.587 22.314)">
      <path id="Path_6245" data-name="Path 6245" d="M35.762,28.679c.176-.264.441-.529.529-.705.264-.705-.882-1.5-.617-2.468a.84.84,0,0,1,1.41-.441.221.221,0,1,1-.353.264c-.176-.176-.529,0-.617.264a1.539,1.539,0,0,0,.353,1.058,2.007,2.007,0,0,1,.353,1.41,2.015,2.015,0,0,1-.617.882c-.176.176-.264.529-.088.617a.268.268,0,0,1,0,.353C35.674,30.178,35.145,29.473,35.762,28.679Z" transform="translate(-35.481 -24.807)" fill="#f86089"/>
    </g>
    <g id="Group_1300" data-name="Group 1300" transform="translate(25.599 22.815)">
      <path id="Path_6246" data-name="Path 6246" d="M28.963,31.656c.176,0,.264-.264.264-.529-.088-.529-.793-1.234-.441-1.939.264-.529.97-.529,1.41-.882a1.092,1.092,0,0,0,.264-1.234,10.5,10.5,0,0,0-.793-1.322.221.221,0,1,1,.353-.264A4.736,4.736,0,0,1,30.9,26.9a1.691,1.691,0,0,1-.441,1.763c-.441.353-1.058.353-1.234.705-.264.441.353,1.058.441,1.675a.812.812,0,0,1-.617.97C28.7,32.185,28.611,31.744,28.963,31.656Z" transform="translate(-28.689 -25.376)" fill="#f86089"/>
    </g>
    <g id="Group_1301" data-name="Group 1301" transform="translate(12.373 33.366)">
      <path id="Path_6247" data-name="Path 6247" d="M20.486,47.707c-.529-.882-.264-1.322-1.851-1.058a2.157,2.157,0,0,1-1.587-.176.892.892,0,0,1-.353-.617c-.088-.882,1.587-1.763-.441-2.116-.617-.088-1.234-.441-1.234-1.058,0-.529.617-.793.793-.97s.441-.441.353-.617-.353-.176-.705-.176a1.881,1.881,0,0,1-1.675-1.41,1.974,1.974,0,0,1,.617-2.116.221.221,0,1,1,.264.353,1.483,1.483,0,0,0,.793,2.645h.176a.9.9,0,0,1,.882.441c.264.441-.088.882-.529,1.146-.529.353-.617.441-.617.617,0,.353.529.529.793.529.441.088,1.146.176,1.322.793.176.705-.617,1.234-.529,1.675s.793.529,1.234.441h.176c.529-.088,1.234-.264,1.675.176.353.264.441.793.617,1.058a1.566,1.566,0,0,0,2.2.353.221.221,0,1,1,.264.353A1.545,1.545,0,0,1,20.486,47.707Z" transform="translate(-13.684 -37.345)" fill="#f86089"/>
    </g>
    <g id="Group_1302" data-name="Group 1302" transform="translate(22.239 35.468)">
      <path id="Path_6248" data-name="Path 6248" d="M26.748,50.634c-1.675-.176-2.2-1.41-1.675-2.2.617-.882,2.116-.441,2.468-1.234s-1.322-1.763-.97-2.909a1.5,1.5,0,0,1,1.939-.705c.705.264,1.146.617,1.763.882.529.176,1.234.088,1.41-.353.176-.353,0-.97.176-1.41.353-.793,1.322-.882,2.2-.617,1.587.529,2.2.97,3.262-.793a3.511,3.511,0,0,1,1.5-1.5c.793-.264,1.851.353,1.675,1.146-.088.264-.529.176-.441-.088.088-.441-.617-.793-1.058-.705a2.592,2.592,0,0,0-1.234,1.322,2.614,2.614,0,0,1-1.5,1.41,4.273,4.273,0,0,1-2.292-.441c-.617-.176-1.5-.176-1.675.353-.176.353,0,.97-.176,1.41a1.5,1.5,0,0,1-1.939.617c-.97-.353-1.851-1.322-2.733-.793-.176.088-.264.264-.353.353-.264.882,1.41,1.851.97,2.909s-2.027.529-2.556,1.234a.937.937,0,0,0,.176,1.058c.705.705,2.909.705,4.231-.793a5.711,5.711,0,0,1,1.41-1.5c1.763-.882,3.614,1.587,5.289.97,1.322-.529,1.5-2.733,3.085-3.173.882-.264,1.763.264,2.556.353A3.127,3.127,0,0,0,45.7,42.26c0-.264.441-.353.441,0a3.522,3.522,0,0,1-3.967,3.614c-.264-.088-.529-.088-.793-.176-1.5-.441-2.027-.264-3,1.322A3.67,3.67,0,0,1,36.8,48.695c-1.851.705-3.7-1.763-5.2-.97-.529.264-.793.882-1.234,1.322A4.275,4.275,0,0,1,26.748,50.634Z" transform="translate(-24.877 -39.73)" fill="#f86089"/>
    </g>
    <g id="Group_1303" data-name="Group 1303" transform="translate(36.909 40.18)">
      <path id="Path_6249" data-name="Path 6249" d="M41.679,52.237c-.264-.088-.176-.529.088-.441s.617-.264.705-.617c0-.088.088-.176.088-.264.353-1.146.793-1.322,1.939-1.322.882,0,1.146-.088,1.939-1.058s1.322-1.234,2.468-.793a2.587,2.587,0,0,0,.882.264h0c1.058,0,1.675-1.322,2.733-2.821a.221.221,0,1,1,.353.264c-.97,1.322-1.763,3-3.085,3-.088,0-.264.088-1.058-.264-.97-.441-1.234-.264-1.939.617A2.589,2.589,0,0,1,45.2,49.945c-.617.088-1.322-.088-1.763.264a3.962,3.962,0,0,0-.529,1.058C42.648,51.8,42.207,52.325,41.679,52.237Z" transform="translate(-41.519 -45.076)" fill="#f86089"/>
    </g>
    <g id="Group_1304" data-name="Group 1304" transform="translate(29.208 45.095)">
      <path id="Path_6250" data-name="Path 6250" d="M34.208,53.515a1.99,1.99,0,0,1-1.234-2.733c.088-.264.529-.088.353.176a1.511,1.511,0,0,0,.97,2.116C34.649,53.162,34.561,53.6,34.208,53.515Z" transform="translate(-32.783 -50.652)" fill="#f86089"/>
    </g>
    <g id="Group_1305" data-name="Group 1305" transform="translate(19.135 45.257)">
      <path id="Path_6251" data-name="Path 6251" d="M22.012,50.892c.176-.176.529.088.264.353a1.809,1.809,0,0,0,0,2.556.268.268,0,0,1,0,.353C21.835,54.595,20.6,52.215,22.012,50.892Z" transform="translate(-21.355 -50.835)" fill="#f86089"/>
    </g>
    <g id="Group_1306" data-name="Group 1306" transform="translate(20.849 32.621)">
      <path id="Path_6252" data-name="Path 6252" d="M25.945,41.348a1.853,1.853,0,0,1-1.146-1.5c0-.97,1.146-1.851-1.322-2.821-.088,0-.176-.088-.176-.264,0-.264.353-.176.529-.264a.234.234,0,0,1,.264.264c2.292,1.058,1.146,2.292,1.146,3a1.226,1.226,0,0,0,.882,1.058A4.881,4.881,0,0,0,27.708,41c.088,0,.264.088.264.176s-.088.264-.176.264A4.234,4.234,0,0,1,25.945,41.348Z" transform="translate(-23.3 -36.5)" fill="#f86089"/>
    </g>
    <g id="Group_1307" data-name="Group 1307" transform="translate(26.315 32.092)">
      <path id="Path_6253" data-name="Path 6253" d="M29.853,40.131c-.264-.088-.176-.529.088-.441.176.088.441-.176.441-.441,0-.617-.882-1.146-.882-1.939a1.441,1.441,0,0,1,.97-1.234,4.623,4.623,0,0,1,1.5-.176c.264,0,.353.441,0,.441a6.672,6.672,0,0,0-1.322.088.937.937,0,0,0-.705.793c0,.617.882,1.146.882,1.939a1.088,1.088,0,0,1-.353.705C30.293,40.219,30.117,40.219,29.853,40.131Z" transform="translate(-29.5 -35.9)" fill="#f86089"/>
    </g>
    <g id="Group_1308" data-name="Group 1308" transform="translate(19.133 38.682)">
      <path id="Path_6254" data-name="Path 6254" d="M21.747,45.336a1.594,1.594,0,0,1-.176-1.851.221.221,0,1,1,.353.264,1.055,1.055,0,0,0,.088,1.234.944.944,0,0,0,1.234.088.221.221,0,1,1,.264.353A1.256,1.256,0,0,1,21.747,45.336Z" transform="translate(-21.353 -43.376)" fill="#f86089"/>
    </g>
    <g id="Group_1309" data-name="Group 1309" transform="translate(36.617 38.808)">
      <path id="Path_6255" data-name="Path 6255" d="M41.2,43.767c-.088-.264.353-.353.441-.088.088.793.176,1.234.264,2.027,0,.088-.088.264-.176.264C41.287,46.059,41.463,45.53,41.2,43.767Z" transform="translate(-41.187 -43.519)" fill="#f86089"/>
    </g>
    <g id="Group_1310" data-name="Group 1310" transform="translate(15.909 32.35)">
      <path id="Path_6256" data-name="Path 6256" d="M17.876,37.61A9.993,9.993,0,0,1,21.49,36.2a.45.45,0,0,1,.176.882A8.63,8.63,0,0,0,18.4,38.315.441.441,0,1,1,17.876,37.61Z" transform="translate(-17.695 -36.193)"/>
    </g>
    <g id="Group_1311" data-name="Group 1311" transform="translate(23.988 32.498)">
      <path id="Path_6257" data-name="Path 6257" d="M30.421,38.423c-1.234-.617-1.939-.441-3.35-1.234a.454.454,0,1,1,.441-.793c1.234.617,1.939.529,3.35,1.234a.454.454,0,0,1-.441.793Z" transform="translate(-26.861 -36.361)"/>
    </g>
    <g id="Group_1312" data-name="Group 1312" transform="translate(24.286 37.472)">
      <path id="Path_6258" data-name="Path 6258" d="M27.376,43.675a.465.465,0,0,1,.617.176.711.711,0,0,0,.793.264c.793-.176,1.234-1.146,1.5-1.851a.434.434,0,1,1,.793.353c-.441,1.058-.97,2.116-2.2,2.38C28.258,45.086,26.671,44.028,27.376,43.675Z" transform="translate(-27.199 -42.003)"/>
    </g>
    <g id="Group_1313" data-name="Group 1313" transform="translate(24.498 3.762)">
      <path id="Path_6259" data-name="Path 6259" d="M27.493,17.018,33.311,4.06a.455.455,0,0,1,.617-.264.584.584,0,0,1,.176.617L28.286,17.371A.434.434,0,1,1,27.493,17.018Z" transform="translate(-27.44 -3.762)"/>
    </g>
    <g id="Group_1314" data-name="Group 1314" transform="translate(11.197 19.09)">
      <path id="Path_6260" data-name="Path 6260" d="M12.482,26.924a.426.426,0,0,1,0-.617l4.76-5.025a.436.436,0,0,1,.617.617L13.1,26.924C13.011,27.1,12.659,27.1,12.482,26.924Z" transform="translate(-12.35 -21.15)"/>
    </g>
    <g id="Group_1315" data-name="Group 1315" transform="translate(49.612 27.455)">
      <path id="Path_6261" data-name="Path 6261" d="M56.168,34.572l6.7-3.879a.454.454,0,0,1,.441.793l-6.7,3.879C56.08,35.541,55.639,34.836,56.168,34.572Z" transform="translate(-55.929 -30.64)"/>
    </g>
  </g>
</svg>
