<svg xmlns="http://www.w3.org/2000/svg" width="44.093" height="55.882" viewBox="0 0 44.093 55.882">
  <g id="Group_1294" data-name="Group 1294" transform="translate(-9.223 -2.568)">
    <circle id="Ellipse_1145" data-name="Ellipse 1145" cx="3.202" cy="3.202" r="3.202" transform="translate(17.385 51.958)"/>
    <circle id="Ellipse_1146" data-name="Ellipse 1146" cx="3.202" cy="3.202" r="3.202" transform="translate(18.008 52.047)" fill="#feadd6"/>
    <circle id="Ellipse_1147" data-name="Ellipse 1147" cx="0.8" cy="0.8" r="0.8" transform="translate(20.409 54.448)" fill="#fff"/>
    <circle id="Ellipse_1148" data-name="Ellipse 1148" cx="3.202" cy="3.202" r="3.202" transform="translate(35.795 48.756)"/>
    <circle id="Ellipse_1149" data-name="Ellipse 1149" cx="3.202" cy="3.202" r="3.202" transform="translate(36.329 48.756)" fill="#feadd6"/>
    <circle id="Ellipse_1150" data-name="Ellipse 1150" cx="0.8" cy="0.8" r="0.8" transform="translate(38.73 51.157)" fill="#fff"/>
    <g id="Group_1273" data-name="Group 1273" transform="translate(9.558 43.427)">
      <path id="Path_6209" data-name="Path 6209" d="M11.653,58.579a10,10,0,0,0,3.647.356,120.247,120.247,0,0,0,28.194-5.07c1.512-.445,3.113-1.067,3.647-2.312a1.382,1.382,0,0,0-.445-1.779,2.944,2.944,0,0,0-2.135,0,69.533,69.533,0,0,1-14.141,3.291c-5.6.534-11.3-.445-16.81,1.067-1.245.356-4.269.978-3.913,2.49A3.274,3.274,0,0,0,11.653,58.579Z" transform="translate(-9.607 -48.625)" fill="#2946d3"/>
      <path id="Path_6210" data-name="Path 6210" d="M43.13,48.59a8.83,8.83,0,0,1,2.668.445c.8.356,1.423.8,1.334,1.334-.089.8-1.334,1.245-2.4,1.69a122.188,122.188,0,0,1-28.55,5.692,15.761,15.761,0,0,1-4.091-.089c-1.334-.267-2.49-.889-2.49-1.779s1.067-1.6,2.135-2.135a33.906,33.906,0,0,1,7.56-2.223C27.032,49.568,35.037,48.145,43.13,48.59Z" transform="translate(-9.6 -48.508)" fill="#3f54e8"/>
    </g>
    <g id="Group_1285" data-name="Group 1285" transform="translate(9.223 2.568)">
      <path id="Path_6211" data-name="Path 6211" d="M30.788,49.445a.428.428,0,0,1-.356-.623,1.682,1.682,0,0,1,.712-.889c-1.245-.445-1.868-.445-1.957-1.6l-.445-3.024a.454.454,0,1,1,.889-.178c.356,3.38.356,3.38.445,3.469a20.078,20.078,0,0,0,2.757.978.466.466,0,0,1,.178.712h0c0,.178-.178.267-.267.356A2.759,2.759,0,0,1,30.788,49.445Zm-8.449.534a1.6,1.6,0,0,1,.889-.089h.356a.391.391,0,0,1,.445.089,42.293,42.293,0,0,0,2.4-6.582.454.454,0,1,1,.889.178A51.352,51.352,0,0,1,24.74,50.69c-.267.623-1.245.8-1.868.889A.848.848,0,0,1,22.339,49.978Zm11.028-21.79a.445.445,0,0,1,0-.889h5.781l2.757-5.425a.458.458,0,0,1,.8.445L39.86,28.01a.477.477,0,0,1-.356.267l-6.137-.089Z" transform="translate(-10.619 -4.68)"/>
      <path id="Path_6212" data-name="Path 6212" d="M30.208,35.06c-2.668-1.156-5.87,1.067-8.36,2.668-.089.089-.267.178-.356.267a2.173,2.173,0,0,0,1.334,2.49c-.089,0-.089,0-.089.089h0a.867.867,0,0,0,.089,1.6A.966.966,0,0,0,23,43.954a1.135,1.135,0,0,0,.178,1.6,2.808,2.808,0,0,0,1.69.623,11.935,11.935,0,0,0,6.582-1.156l.534-.267c.445-.267.978-.623,1.067-1.067a1.076,1.076,0,0,0-.623-1.156l.089-.089a.864.864,0,0,0-.267-1.512,1.17,1.17,0,0,0-.089-2.046h0a1.861,1.861,0,0,0,.356-.534C33.232,36.75,31.72,35.683,30.208,35.06Z" transform="translate(-10.573 -6.127)" fill="#21cbbe"/>
      <path id="Path_6213" data-name="Path 6213" d="M32.711,42.947h0c-4.269,2.223-6.226,2.312-9.961,1.245.089.089.267.178.356.267a1.135,1.135,0,0,0,.178,1.6,2.808,2.808,0,0,0,1.69.623,11.935,11.935,0,0,0,6.582-1.156c.623-.356,1.423-.712,1.6-1.423A.93.93,0,0,0,32.711,42.947ZM32.355,39.3c0,.089-.089.089,0,0-3.024,1.69-6.137,1.868-9.517,1.69h0a.867.867,0,0,0,.089,1.6l-.089.089c2.579.712,5.336-.356,8.716-1.156.267-.089.623-.178.889-.267A1.1,1.1,0,0,0,32.355,39.3Z" transform="translate(-10.675 -6.631)" fill="#15bcac"/>
      <path id="Path_6214" data-name="Path 6214" d="M33.792,7.132C29.167.462,16.449,1,11.913,9.445a13.761,13.761,0,0,0,.623,13.608c1.69,2.668,4.8,4.714,5.959,7.827.445,1.512.534,2.757,1.779,3.735,2.4,1.868,8.983.889,11.117-1.334,1.6-1.6.712-3.647.8-5.425.089-2.668,2.046-4.8,3.113-7.2A14.2,14.2,0,0,0,33.792,7.132Z" transform="translate(-9.354 -2.568)" fill="#ffd55f"/>
      <path id="Path_6215" data-name="Path 6215" d="M33.792,7.132C29.167.462,16.449,1,11.913,9.445a13.761,13.761,0,0,0,.623,13.608c5.514,4.18,13.519,5.514,17.432,11.384,3.38-1.69,2.135-4.269,2.223-6.493.089-2.668,2.046-4.8,3.113-7.2A14.347,14.347,0,0,0,33.792,7.132Z" transform="translate(-9.354 -2.568)" fill="#fcc11a"/>
      <path id="Path_6216" data-name="Path 6216" d="M12.226,23.375a12.373,12.373,0,0,1-2.579-11.3A12.178,12.178,0,0,1,17.83,3.9c.534-.178.8.712.267.889a11.479,11.479,0,0,0-7.56,7.56,11.308,11.308,0,0,0,2.312,10.406.44.44,0,0,1-.623.623Z" transform="translate(-9.223 -2.713)"/>
      <g id="Group_1274" data-name="Group 1274" transform="translate(10.085 0.617)">
        <path id="Path_6217" data-name="Path 6217" d="M20.685,4.274,20.6,3.918c-.089-.267,0-.445.267-.623.267-.089.445,0,.623.267l.089.356c.089.267,0,.445-.267.623A.543.543,0,0,1,20.685,4.274Z" transform="translate(-20.563 -3.263)"/>
      </g>
      <g id="Group_1275" data-name="Group 1275" transform="translate(16.457 4.364)">
        <path id="Path_6218" data-name="Path 6218" d="M30.9,19.949c.178.623.534,1.245,1.156,1.334a1.3,1.3,0,0,0,1.156-.623c.889-1.423,0-5.87-.356-7.382-.356-1.868-.889-4.625-2.49-5.514a2.017,2.017,0,0,0-2.223.089c-1.067.978.178,1.957.623,2.757C30.549,13.367,29.837,16.925,30.9,19.949Z" transform="translate(-27.727 -7.475)" fill="#ffd55f"/>
      </g>
      <g id="Group_1276" data-name="Group 1276" transform="translate(19.791 19.405)">
        <path id="Path_6219" data-name="Path 6219" d="M33.365,26.533c-1.156.8-2.668-1.156-1.423-1.957a1.21,1.21,0,0,1,1.423,1.957Z" transform="translate(-31.475 -24.387)" fill="#ffd55f"/>
      </g>
      <g id="Group_1277" data-name="Group 1277" transform="translate(10.186 30.664)">
        <path id="Path_6220" data-name="Path 6220" d="M20.786,38.339a.223.223,0,1,1,.267-.356,9.789,9.789,0,0,0,11.3-.889.223.223,0,1,1,.267.356A10.307,10.307,0,0,1,20.786,38.339Z" transform="translate(-20.676 -37.045)"/>
      </g>
      <g id="Group_1278" data-name="Group 1278" transform="translate(12.431 37.371)">
        <path id="Path_6221" data-name="Path 6221" d="M23.378,45.043c-.089,0-.178-.178-.178-.267s.178-.178.267-.178a10.133,10.133,0,0,0,5.158,0,.227.227,0,1,1,.089.445A13.27,13.27,0,0,1,23.378,45.043Z" transform="translate(-23.2 -44.587)"/>
      </g>
      <g id="Group_1279" data-name="Group 1279" transform="translate(10.785 32.33)">
        <path id="Path_6222" data-name="Path 6222" d="M22.906,46.017a1.7,1.7,0,0,1-.356-1.69,1,1,0,0,1-.267-1.69.913.913,0,0,1,0-1.512,1.912,1.912,0,0,1-.889-2.046c.089-.267.534-.178.445.089a1.632,1.632,0,0,0,1.067,1.779c.089,0,.178.089.178.267a.191.191,0,0,1-.178.178.543.543,0,0,0,0,1.067.191.191,0,0,1,.178.178c0,.089-.089.178-.178.267a.669.669,0,0,0-.445.623.574.574,0,0,0,.534.534c.178,0,.267.178.178.356a1.2,1.2,0,0,0,.089,1.423C23.351,45.928,23.084,46.2,22.906,46.017Z" transform="translate(-21.349 -38.919)"/>
      </g>
      <g id="Group_1280" data-name="Group 1280" transform="translate(21.681 32.629)">
        <path id="Path_6223" data-name="Path 6223" d="M33.6,39.3Z" transform="translate(-33.6 -39.256)" fill="#fa9990"/>
      </g>
      <g id="Group_1281" data-name="Group 1281" transform="translate(6.911 9.512)">
        <path id="Path_6224" data-name="Path 6224" d="M17,15.608c-.178-2.49,3.647-3.558,5.336-.356a.458.458,0,0,1-.8.445c-1.245-2.312-3.824-1.6-3.647-.089a.42.42,0,0,1-.445.445C17.177,15.964,17,15.786,17,15.608Z" transform="translate(-16.993 -13.263)"/>
      </g>
      <g id="Group_1282" data-name="Group 1282" transform="translate(16.349 8.15)">
        <path id="Path_6225" data-name="Path 6225" d="M31.87,14.639c-.445-1.868-1.868-2.49-2.757-1.957a1.071,1.071,0,0,0-.534,1.423.458.458,0,0,1-.8.445,1.983,1.983,0,0,1,.978-2.579c1.423-.712,3.38.178,4,2.579.089.267-.089.445-.356.534C32.225,14.994,31.959,14.905,31.87,14.639Z" transform="translate(-27.606 -11.732)"/>
      </g>
      <g id="Group_1283" data-name="Group 1283" transform="translate(16.567 15.322)">
        <path id="Path_6226" data-name="Path 6226" d="M27.983,21.578a.44.44,0,0,1,.623-.623.708.708,0,0,0,.889.178c.267-.178.534-.534.445-.8A.488.488,0,0,1,30.3,19.8c.8-.089.712,1.6-.445,2.135A1.538,1.538,0,0,1,27.983,21.578Z" transform="translate(-27.85 -19.796)"/>
      </g>
      <g id="Group_1284" data-name="Group 1284" transform="translate(1.19 23.553)">
        <path id="Path_6227" data-name="Path 6227" d="M17,37.988a.447.447,0,0,1,.089-.889,1.974,1.974,0,0,0,.8-.089.275.275,0,0,0,.089-.178,13.385,13.385,0,0,1-7.2-2.312.463.463,0,0,1-.089-.712L15.4,29.183a.44.44,0,1,1,.623.623l-4.358,4.269a12.085,12.085,0,0,0,6.048,1.868.98.98,0,0,1,.8.267,1.1,1.1,0,0,1-.712,1.868A1.256,1.256,0,0,1,17,37.988Z" transform="translate(-10.561 -29.05)"/>
      </g>
    </g>
    <g id="Group_1286" data-name="Group 1286" transform="translate(40.207 10.034)">
      <path id="Path_6228" data-name="Path 6228" d="M44.1,15.265a.59.59,0,0,1,.178-.623A52.057,52.057,0,0,1,52.456,11a.422.422,0,0,1,.267.8,64.444,64.444,0,0,0-8,3.558A.381.381,0,0,1,44.1,15.265Z" transform="translate(-44.061 -10.962)"/>
    </g>
    <g id="Group_1287" data-name="Group 1287" transform="translate(43.144 18.138)">
      <path id="Path_6229" data-name="Path 6229" d="M47.4,22.854c-.089-.267,0-.445.267-.623A27.785,27.785,0,0,1,54.155,20.1c.267-.089.445.089.534.356s-.089.445-.356.534a27.832,27.832,0,0,0-6.315,2.135A.543.543,0,0,1,47.4,22.854Z" transform="translate(-47.363 -20.074)"/>
    </g>
    <g id="Group_1288" data-name="Group 1288" transform="translate(42.887 25.276)">
      <path id="Path_6230" data-name="Path 6230" d="M47.1,30.235c-.089-.267.089-.445.356-.534a84.98,84.98,0,0,1,9.517-1.6.454.454,0,1,1,.178.889,83.434,83.434,0,0,0-9.428,1.6C47.364,30.679,47.1,30.5,47.1,30.235Z" transform="translate(-47.074 -28.1)"/>
    </g>
  </g>
</svg>
