<svg xmlns="http://www.w3.org/2000/svg" xmlns:xlink="http://www.w3.org/1999/xlink" width="64" height="75" viewBox="0 0 64 75">
  <defs>
    <clipPath id="clip-path">
      <rect id="Rectangle_20832" data-name="Rectangle 20832" width="64" height="75" transform="translate(166 666.643)" fill="#fff" stroke="#707070" stroke-width="1"/>
    </clipPath>
  </defs>
  <g id="Mask_Group_5" data-name="Mask Group 5" transform="translate(-166 -666.643)" clip-path="url(#clip-path)">
    <g id="Group_54568" data-name="Group 54568" transform="translate(152.286 660.143)">
      <path id="Polygon_6" data-name="Polygon 6" d="M51.422,0a3,3,0,0,1,2.59,1.485l15.96,27.286a3,3,0,0,1,0,3.029L54.012,59.086a3,3,0,0,1-2.59,1.485H19.435a3,3,0,0,1-2.59-1.485L.886,31.8a3,3,0,0,1,0-3.029L16.846,1.485A3,3,0,0,1,19.435,0Z" transform="translate(30 0.5) rotate(30)" fill="#4d88d4"/>
      <g id="Group_54637" data-name="Group 54637" transform="translate(28.714 26.5)">
        <g id="Group_53822" data-name="Group 53822" transform="translate(0 0)">
          <path id="Path_43960" data-name="Path 43960" d="M24.349,72.45l1.183,10.722a2.481,2.481,0,0,1-2.194,2.739L13.41,87a2.48,2.48,0,0,1-2.739-2.194L9.486,74.088A2.482,2.482,0,0,1,11.68,71.35l9.927-1.094A2.485,2.485,0,0,1,24.349,72.45Z" transform="translate(-9.471 -51.881)" fill="#35b2ff"/>
          <path id="Path_43961" data-name="Path 43961" d="M29.23,73.568l1.183,10.722a2.481,2.481,0,0,1-2.194,2.739l-9.927,1.094a2.489,2.489,0,0,1-1.791-.5L28.246,71.85A2.475,2.475,0,0,1,29.23,73.568Z" transform="translate(-14.352 -52.998)" fill="#015ed4"/>
          <path id="Path_43963" data-name="Path 43963" d="M27.185,77.929,28.295,88a.683.683,0,0,1-.6.749l-9.276,1.021a.679.679,0,0,1-.749-.6L16.561,79.1a.683.683,0,0,1,.6-.749l9.276-1.021a.667.667,0,0,1,.437.1A.69.69,0,0,1,27.185,77.929Z" transform="translate(-14.391 -56.8)" fill="#fff"/>
          <g id="Group_53813" data-name="Group 53813" transform="translate(9.715)">
            <path id="Path_43968" data-name="Path 43968" d="M50.622,7.16,49.207,17.855a2.485,2.485,0,0,1-2.787,2.136l-9.9-1.311a2.481,2.481,0,0,1-2.136-2.787L35.8,5.2a2.485,2.485,0,0,1,2.787-2.136l9.9,1.311A2.488,2.488,0,0,1,50.622,7.16Z" transform="translate(-34.359 -3.041)" fill="#ff7d83"/>
            <path id="Path_43969" data-name="Path 43969" d="M51.845,12.194,50.43,22.888a2.485,2.485,0,0,1-2.787,2.136l-9.9-1.311a2.482,2.482,0,0,1-1.62-.917L51.295,10.29A2.469,2.469,0,0,1,51.845,12.194Z" transform="translate(-35.582 -8.074)" fill="#ff5671"/>
            <path id="Path_43971" data-name="Path 43971" d="M53.4,12.143l-1.33,10.043a.68.68,0,0,1-.761.584l-9.252-1.226a.663.663,0,0,1-.431-.238.677.677,0,0,1-.153-.523l1.33-10.043a.68.68,0,0,1,.761-.584l9.252,1.226a.659.659,0,0,1,.4.2A.676.676,0,0,1,53.4,12.143Z" transform="translate(-39.298 -7.978)" fill="#fff"/>
          </g>
          <g id="Group_53814" data-name="Group 53814" transform="translate(17.857 17.868)">
            <path id="Path_43976" data-name="Path 43976" d="M90.941,68.463l-2.482,10.5a2.482,2.482,0,0,1-2.986,1.846l-9.719-2.3a2.483,2.483,0,0,1-1.846-2.986l2.482-10.5a2.485,2.485,0,0,1,2.986-1.846l9.719,2.3A2.481,2.481,0,0,1,90.941,68.463Z" transform="translate(-73.841 -63.111)" fill="#ffc378"/>
            <path id="Path_43977" data-name="Path 43977" d="M91.836,76.2,89.354,86.7a2.482,2.482,0,0,1-2.986,1.846l-9.719-2.3A2.485,2.485,0,0,1,75.13,85.17L91.485,74.25A2.46,2.46,0,0,1,91.836,76.2Z" transform="translate(-74.736 -70.846)" fill="#ffab41"/>
            <path id="Path_43979" data-name="Path 43979" d="M93.78,73.3l-2.332,9.86a.68.68,0,0,1-.816.5l-9.08-2.146a.673.673,0,0,1-.5-.813l2.332-9.86a.68.68,0,0,1,.816-.5l9.08,2.146a.682.682,0,0,1,.379.241A.673.673,0,0,1,93.78,73.3Z" transform="translate(-78.832 -68.117)" fill="#fff"/>
          </g>
          <g id="Layer_2" data-name="Layer 2" transform="translate(-4885.365 -2411.976) rotate(8)">
            <g id="Layer_1" data-name="Layer 1" transform="translate(5189.18 1711.901)">
              <g id="क़" transform="translate(0 0)">
                <path id="Path_44695" data-name="Path 44695" d="M95.739,121.831a2.183,2.183,0,0,0,.381-.25,1.7,1.7,0,0,0,.272-.279,1.136,1.136,0,0,0,.162-.288.786.786,0,0,0,.054-.276.8.8,0,0,0-.024-.187.545.545,0,0,0-.081-.183.483.483,0,0,0-.147-.139.417.417,0,0,0-.222-.055.559.559,0,0,0-.264.068.964.964,0,0,0-.239.18,1.563,1.563,0,0,0-.2.257,2.025,2.025,0,0,0-.158.3v2.275h-.905v-1.141l-.007,0q-.042.028-.109.068a1.282,1.282,0,0,1-.161.078,1.405,1.405,0,0,1-.215.066,1.189,1.189,0,0,1-.267.028,1.392,1.392,0,0,1-.589-.13,1.644,1.644,0,0,1-.5-.354,1.729,1.729,0,0,1-.347-.526,1.6,1.6,0,0,1-.13-.642,1.538,1.538,0,0,1,.1-.541,1.355,1.355,0,0,1,.274-.451,1.3,1.3,0,0,1,.435-.309,1.494,1.494,0,0,1,1.034-.042,1.8,1.8,0,0,1,.479.264l.007,0v-.753H91.51v-.781h6.679v.781H95.271v.819l.007,0a1.25,1.25,0,0,1,.25-.18,1.383,1.383,0,0,1,.253-.107,1.4,1.4,0,0,1,.236-.052,1.657,1.657,0,0,1,.2-.014,1.187,1.187,0,0,1,.545.122,1.3,1.3,0,0,1,.406.318,1.41,1.41,0,0,1,.255.447,1.519,1.519,0,0,1,.088.51,1.568,1.568,0,0,1-.094.532,2,2,0,0,1-.267.5,2.585,2.585,0,0,1-.42.449,3.4,3.4,0,0,1-.552.38Zm-1.354-1.367c-.046-.046-.1-.094-.149-.142a1.129,1.129,0,0,0-.174-.13.975.975,0,0,0-.2-.094.78.78,0,0,0-.244-.036.67.67,0,0,0-.281.055.607.607,0,0,0-.2.149.62.62,0,0,0-.125.219.827.827,0,0,0-.041.264.841.841,0,0,0,.052.3.7.7,0,0,0,.387.406.776.776,0,0,0,.31.059.664.664,0,0,0,.328-.073.582.582,0,0,0,.206-.189.771.771,0,0,0,.108-.258,1.315,1.315,0,0,0,.031-.281Z" transform="translate(-91.51 -118.08)" fill="#656d78"/>
              </g>
            </g>
          </g>
          <g id="Group_54638" data-name="Group 54638" transform="translate(-9.464 8.955) rotate(-3)">
            <path id="Path_44696" data-name="Path 44696" d="M17.58,15.78v.908h.727v1.7a3.923,3.923,0,0,1-.978.108,5.737,5.737,0,0,1-.687-.044c-.028-.032-.058-.064-.09-.094a1.436,1.436,0,0,0,.608-1.209c0-.89-.669-1.466-1.705-1.466a3.341,3.341,0,0,0-1.562.39l-.078.04.317.876.1-.052a2.547,2.547,0,0,1,1.261-.359c.159,0,.677.042.677.578,0,.321-.131.7-1.149.729l-.1,0,.064.894h.094a2.889,2.889,0,0,0,.554-.052,1.4,1.4,0,0,1,.653,1.09c0,.528-.412.637-.757.637-.713,0-1.352-.727-1.952-2.221l-.036-.09-.9.329.042.1c.841,1.972,1.711,2.813,2.914,2.813a1.47,1.47,0,0,0,1.675-1.476,1.526,1.526,0,0,0-.088-.522c.1.008.187.012.267.012a3.716,3.716,0,0,0,.859-.08V22.18h1.006V16.686h1.038v-.908H17.58Z" transform="translate(0 0)" fill="#656d78"/>
          </g>
          <path id="Path_44697" data-name="Path 44697" d="M108.59,145.78h7.78v.908h-.844v4.884h-1.018v-1.409a1.232,1.232,0,0,1-1.024.43.707.707,0,0,1-.125-.008,1.554,1.554,0,0,1-.716.747,2.456,2.456,0,0,1-1.161.262,2.116,2.116,0,0,1-1.534-.544,2.029,2.029,0,0,1-.564-1.531v-1.135h.219a3.215,3.215,0,0,0,.6-.055.616.616,0,0,0,.348-.211.842.842,0,0,0,.176-.419,5.606,5.606,0,0,0,.036-.732v-.282H108.59Zm1.855,3.835q0,1.072,1.025,1.072a.956.956,0,0,0,.978-.509,1.632,1.632,0,0,1-.454-1.182,1.662,1.662,0,0,1,.415-1.166,1.406,1.406,0,0,1,1.088-.454,1.212,1.212,0,0,1,1.01.422v-1.111h-2.685v.274a3.377,3.377,0,0,1-.274,1.628,1.358,1.358,0,0,1-1.1.525Zm2.5-.633a.752.752,0,0,0,.215.568.788.788,0,0,0,.571.207.716.716,0,0,0,.771-.775.776.776,0,0,0-.2-.567.752.752,0,0,0-.564-.207.8.8,0,0,0-.575.207.748.748,0,0,0-.215.567Z" transform="translate(-67.081 -134.205) rotate(7)" fill="#656d78"/>
        </g>
      </g>
    </g>
  </g>
</svg>
