<svg xmlns="http://www.w3.org/2000/svg" width="24.552" height="16.368" viewBox="0 0 24.552 16.368">
  <g id="Icon_ion-eye" data-name="Icon ion-eye" transform="translate(-1.124 -6.75)">
    <path id="Path_37787" data-name="Path 37787" d="M20.047,16.774A3.274,3.274,0,1,1,16.774,13.5,3.274,3.274,0,0,1,20.047,16.774Z" transform="translate(-3.373 -1.84)" fill="#00be55"/>
    <path id="Path_37788" data-name="Path 37788" d="M25.412,14.044A17.336,17.336,0,0,0,20.335,8.9,12.849,12.849,0,0,0,13.383,6.75,12.254,12.254,0,0,0,7.027,8.6a18.632,18.632,0,0,0-5.61,5.425,1.633,1.633,0,0,0-.033,1.818,17.09,17.09,0,0,0,5.027,5.148,12.67,12.67,0,0,0,6.972,2.129,12.9,12.9,0,0,0,6.967-2.134,17.082,17.082,0,0,0,5.068-5.162,1.647,1.647,0,0,0-.005-1.778ZM13.4,19.844a4.91,4.91,0,1,1,4.91-4.91,4.91,4.91,0,0,1-4.91,4.91Z" transform="translate(0 0)" fill="#00be55"/>
  </g>
</svg>
