<svg xmlns="http://www.w3.org/2000/svg" width="18.912" height="16.863" viewBox="0 0 18.912 16.863">
  <g id="Group_48060" data-name="Group 48060" transform="translate(0 -2.6)">
    <path id="Path_37789" data-name="Path 37789" d="M0,18.7v9.338A1.161,1.161,0,0,0,1.182,29.22H17.73a1.161,1.161,0,0,0,1.182-1.182V18.7Zm8.274,9.023H5.4A.372.372,0,0,1,5,27.329a.4.4,0,0,1,.394-.394H6.462V22.207l-.355.512a.385.385,0,0,1-.552.079.417.417,0,0,1-.079-.552l1.1-1.5a.393.393,0,0,1,.433-.158.378.378,0,0,1,.276.355V26.9h.985a.4.4,0,0,1,.394.394A.432.432,0,0,1,8.274,27.723Zm5.28-1.812h-.749v1.418a.394.394,0,0,1-.788,0V25.91H9.338a.414.414,0,0,1-.355-.2.362.362,0,0,1,.039-.394l3.073-4.57a.387.387,0,0,1,.709.236v4.137h.749a.4.4,0,0,1,.394.394A.424.424,0,0,1,13.554,25.91Z" transform="translate(0 -9.757)" fill="#00be55"/>
    <path id="Path_37790" data-name="Path 37790" d="M12.017,17.911V15.035l-1.931,2.876Zm6.9-9.929A1.161,1.161,0,0,0,17.73,6.8H16.351V8.061a.985.985,0,0,1-1.97,0V6.8h-3.94V8.061a.985.985,0,0,1-1.97,0V6.8H4.531V8.061a.985.985,0,0,1-1.97,0V6.8H1.182A1.161,1.161,0,0,0,0,7.982V10.74H18.912Z" transform="translate(0 -2.545)" fill="#00be55"/>
    <path id="Path_37791" data-name="Path 37791" d="M8.394,5.91a.372.372,0,0,0,.394-.394V2.994a.394.394,0,1,0-.788,0V5.516A.4.4,0,0,0,8.394,5.91Zm5.91,0a.372.372,0,0,0,.394-.394V2.994a.394.394,0,0,0-.788,0V5.516A.4.4,0,0,0,14.3,5.91Zm5.91,0a.372.372,0,0,0,.394-.394V2.994a.394.394,0,0,0-.788,0V5.516A.424.424,0,0,0,20.214,5.91Z" transform="translate(-4.848)" fill="#00be55"/>
  </g>
</svg>
