<svg xmlns="http://www.w3.org/2000/svg" width="32.553" height="40.691" viewBox="0 0 32.553 40.691">
  <path id="Path_157" data-name="Path 157" d="M30.67,22.66a4.883,4.883,0,0,1,4.883,4.883V29.17c0,6.418-6.053,13.021-16.277,13.021S3,35.588,3,29.17V27.542A4.883,4.883,0,0,1,7.883,22.66Zm0,3.255H7.883a1.628,1.628,0,0,0-1.628,1.628V29.17c0,4.68,4.662,9.766,13.021,9.766S32.3,33.85,32.3,29.17V27.542A1.628,1.628,0,0,0,30.67,25.915ZM19.277,1.5a8.952,8.952,0,1,1-8.952,8.952A8.952,8.952,0,0,1,19.277,1.5Zm0,3.255a5.7,5.7,0,1,0,5.7,5.7A5.7,5.7,0,0,0,19.277,4.755Z" transform="translate(-3 -1.5)" fill="#30c768"/>
</svg>
