<svg id="Group_139" data-name="Group 139" xmlns="http://www.w3.org/2000/svg" width="27.956" height="27.956" viewBox="0 0 27.956 27.956">
  <path id="Path_268" data-name="Path 268" d="M7.089,27.857a9.412,9.412,0,0,1-3.166-.586A5.3,5.3,0,0,1,1.962,26a5.257,5.257,0,0,1-1.277-1.96A9.412,9.412,0,0,1,.1,20.869c-.083-1.8-.1-2.337-.1-6.891s.018-5.092.1-6.89A9.465,9.465,0,0,1,.685,3.923,5.317,5.317,0,0,1,1.961,1.961,5.264,5.264,0,0,1,3.922.685,9.412,9.412,0,0,1,7.088.1c1.8-.082,2.338-.1,6.89-.1s5.092.018,6.89.1a9.465,9.465,0,0,1,3.166.586A5.277,5.277,0,0,1,26,1.96a5.281,5.281,0,0,1,1.276,1.961,9.412,9.412,0,0,1,.587,3.166c.082,1.8.1,2.337.1,6.89s-.017,5.092-.1,6.89a9.456,9.456,0,0,1-.587,3.166,5.646,5.646,0,0,1-3.237,3.236,9.413,9.413,0,0,1-3.166.587c-1.8.082-2.337.1-6.89.1s-5.092-.016-6.889-.1" fill="#fff"/>
  <path id="Path_269" data-name="Path 269" d="M442.774,449.907a3.462,3.462,0,1,1,3.462,3.462,3.462,3.462,0,0,1-3.462-3.462m-1.872,0a5.333,5.333,0,1,0,5.333-5.333,5.333,5.333,0,0,0-5.333,5.333m9.631-5.545a1.246,1.246,0,1,0,1.247-1.246h0a1.247,1.247,0,0,0-1.246,1.246m-8.494,14a5.738,5.738,0,0,1-1.929-.356,3.439,3.439,0,0,1-1.972-1.971,5.736,5.736,0,0,1-.356-1.929c-.05-1.095-.06-1.424-.06-4.2s.011-3.1.06-4.2a5.778,5.778,0,0,1,.356-1.929,3.437,3.437,0,0,1,1.972-1.971,5.736,5.736,0,0,1,1.929-.356c1.095-.05,1.424-.06,4.2-.06s3.1.011,4.2.061a5.78,5.78,0,0,1,1.929.356,3.437,3.437,0,0,1,1.971,1.972,5.736,5.736,0,0,1,.356,1.929c.05,1.1.06,1.424.06,4.2s-.01,3.1-.06,4.2a5.762,5.762,0,0,1-.356,1.929,3.439,3.439,0,0,1-1.971,1.971,5.735,5.735,0,0,1-1.929.356c-1.095.051-1.424.06-4.2.06s-3.1-.01-4.2-.06m-.086-18.777a7.613,7.613,0,0,0-2.522.482A5.31,5.31,0,0,0,436.4,443.1a7.618,7.618,0,0,0-.482,2.522c-.051,1.107-.063,1.461-.063,4.282s.012,3.174.063,4.282a7.617,7.617,0,0,0,.482,2.522,5.311,5.311,0,0,0,3.038,3.038,7.626,7.626,0,0,0,2.522.482c1.108.05,1.461.063,4.282.063s3.174-.012,4.282-.063a7.624,7.624,0,0,0,2.522-.482,5.311,5.311,0,0,0,3.038-3.038,7.6,7.6,0,0,0,.482-2.522c.051-1.108.062-1.461.062-4.282s-.012-3.174-.062-4.282a7.619,7.619,0,0,0-.482-2.522,5.312,5.312,0,0,0-3.037-3.038,7.6,7.6,0,0,0-2.521-.482c-1.108-.051-1.461-.063-4.281-.063s-3.175.012-4.283.063" transform="translate(-432.229 -435.87)" fill="#00be55"/>
</svg>
