<svg id="Group_139" data-name="Group 139" xmlns="http://www.w3.org/2000/svg" width="24.535" height="24.534" viewBox="0 0 24.535 24.534">
  <path id="Path_268" data-name="Path 268" d="M6.221,24.448a8.26,8.26,0,0,1-2.779-.514,4.649,4.649,0,0,1-1.721-1.119A4.614,4.614,0,0,1,.6,21.093a8.26,8.26,0,0,1-.514-2.779C.015,16.737,0,16.264,0,12.267S.016,7.8.087,6.22A8.307,8.307,0,0,1,.6,3.443,4.666,4.666,0,0,1,1.721,1.721,4.62,4.62,0,0,1,3.442.6,8.26,8.26,0,0,1,6.221.087C7.8.015,8.272,0,12.267,0s4.468.016,6.047.087A8.307,8.307,0,0,1,21.093.6a4.631,4.631,0,0,1,1.721,1.119,4.634,4.634,0,0,1,1.12,1.721,8.26,8.26,0,0,1,.515,2.779c.072,1.579.087,2.051.087,6.047s-.015,4.468-.087,6.047a8.3,8.3,0,0,1-.515,2.779,4.955,4.955,0,0,1-2.84,2.84,8.261,8.261,0,0,1-2.779.515c-1.577.072-2.051.087-6.047.087s-4.468-.014-6.046-.087" fill="#30c768"/>
  <path id="Path_269" data-name="Path 269" d="M441.927,448.636a3.038,3.038,0,1,1,3.038,3.038,3.038,3.038,0,0,1-3.038-3.038m-1.643,0a4.68,4.68,0,1,0,4.68-4.68,4.68,4.68,0,0,0-4.68,4.68m8.452-4.866a1.094,1.094,0,1,0,1.094-1.093h0a1.094,1.094,0,0,0-1.094,1.093m-7.454,12.285a5.036,5.036,0,0,1-1.693-.313,3.018,3.018,0,0,1-1.73-1.729,5.034,5.034,0,0,1-.313-1.693c-.044-.961-.053-1.249-.053-3.683s.01-2.722.053-3.684a5.07,5.07,0,0,1,.313-1.693,3.017,3.017,0,0,1,1.73-1.73,5.034,5.034,0,0,1,1.693-.313c.961-.044,1.249-.053,3.682-.053s2.722.009,3.684.053a5.072,5.072,0,0,1,1.693.313,3.017,3.017,0,0,1,1.73,1.73,5.034,5.034,0,0,1,.313,1.693c.044.962.053,1.249.053,3.684s-.009,2.722-.053,3.684a5.058,5.058,0,0,1-.313,1.693,3.018,3.018,0,0,1-1.73,1.729,5.033,5.033,0,0,1-1.693.313c-.961.044-1.249.053-3.684.053s-2.722-.009-3.682-.053m-.076-16.479a6.683,6.683,0,0,0-2.213.423,4.66,4.66,0,0,0-2.666,2.666,6.685,6.685,0,0,0-.423,2.213c-.045.972-.055,1.283-.055,3.758s.01,2.786.055,3.758a6.684,6.684,0,0,0,.423,2.213,4.66,4.66,0,0,0,2.666,2.666,6.692,6.692,0,0,0,2.213.423c.972.044,1.283.055,3.758.055s2.786-.01,3.758-.055a6.69,6.69,0,0,0,2.213-.423,4.661,4.661,0,0,0,2.666-2.666,6.668,6.668,0,0,0,.423-2.213c.044-.972.054-1.282.054-3.758s-.01-2.786-.054-3.758a6.686,6.686,0,0,0-.423-2.213A4.661,4.661,0,0,0,450.937,440a6.675,6.675,0,0,0-2.213-.423c-.972-.044-1.283-.055-3.757-.055s-2.786.01-3.759.055" transform="translate(-432.672 -436.317)" fill="#fff"/>
</svg>
