<svg xmlns="http://www.w3.org/2000/svg" width="65.79" height="78.797" viewBox="0 0 65.79 78.797">
  <g id="Group_52852" data-name="Group 52852" transform="translate(-11.48 -1)">
    <path id="Path_44148" data-name="Path 44148" d="M11.74,62.72V69.6h6.944l-.215-5.029Z" transform="translate(-0.1 -23.725)" fill="#f967b0"/>
    <path id="Path_44149" data-name="Path 44149" d="M19.618,55.768H15.8a4.161,4.161,0,1,0,0,8.317h3.817a.111.111,0,0,0,.111-.1V55.873A.111.111,0,0,0,19.618,55.768Z" transform="translate(0 -21.051)" fill="#e260a8"/>
    <path id="Path_44150" data-name="Path 44150" d="M81.348,21.315V73.026A6.772,6.772,0,0,1,74.576,79.8H28.942a6.772,6.772,0,0,1-6.772-6.772V7.772A6.772,6.772,0,0,1,28.942,1H61.064Z" transform="translate(-4.109)" fill="#e5e6e8"/>
    <rect id="Rectangle_20671" data-name="Rectangle 20671" width="41.393" height="24.581" transform="translate(18.061 45.071)" fill="#cdd1d4"/>
    <path id="Path_44151" data-name="Path 44151" d="M85.35,17.845a6.772,6.772,0,0,0,6.772,6.772h13.543V22.591L85.35,4.32Z" transform="translate(-28.395 -1.276)" fill="#cdd1d4" opacity="0.35"/>
    <path id="Path_44152" data-name="Path 44152" d="M59.535,93.861H15.71a4.02,4.02,0,0,1-4.02-4.02l.031-20.561H59.535Z" transform="translate(-0.081 -26.247)" fill="#f967b0"/>
    <path id="Path_44153" data-name="Path 44153" d="M85.35,14.543a6.772,6.772,0,0,0,6.772,6.772h13.543L85.35,1Z" transform="translate(-28.395)" fill="#cdd1d4"/>
    <path id="Path_44154" data-name="Path 44154" d="M26.243,80.989h2.019v6.359a6.4,6.4,0,0,1-.222,1.915,2.721,2.721,0,0,1-1.065,1.41,3.583,3.583,0,0,1-2.044.529,3.017,3.017,0,0,1-2.284-.831,3.423,3.423,0,0,1-.813-2.462l1.89-.2a2.616,2.616,0,0,0,.252,1.231,1.283,1.283,0,0,0,1.958.154,3.078,3.078,0,0,0,.308-1.613Zm4.149,10.04V80.989H33.63a11.34,11.34,0,0,1,2.407.154,2.6,2.6,0,0,1,1.447.979,3.121,3.121,0,0,1,.616,1.958,3.287,3.287,0,0,1-.339,1.551,2.7,2.7,0,0,1-.85.991,2.986,2.986,0,0,1-1.065.468,12,12,0,0,1-2.105.142H32.4v3.8ZM32.4,82.688v2.85h1.108a5.214,5.214,0,0,0,1.6-.16,1.305,1.305,0,0,0,.616-.492,1.33,1.33,0,0,0,.228-.782,1.274,1.274,0,0,0-.32-.9,1.41,1.41,0,0,0-.769-.425,10.245,10.245,0,0,0-1.459-.068Zm7.35,8.341V80.989h7.424v1.7H41.756v2.228H46.8V86.6H41.774v2.733h5.608v1.693Zm14.023-3.687V85.649h4.371v4a5.5,5.5,0,0,1-1.847,1.09,6.673,6.673,0,0,1-2.462.468,5.54,5.54,0,0,1-2.752-.659,4.211,4.211,0,0,1-1.754-1.89,6.113,6.113,0,0,1-.616-2.678,5.725,5.725,0,0,1,.659-2.789,4.4,4.4,0,0,1,1.921-1.847,5.14,5.14,0,0,1,2.407-.5,4.789,4.789,0,0,1,2.918.788,3.546,3.546,0,0,1,1.354,2.167l-2.013.376a2.13,2.13,0,0,0-.8-1.17,2.407,2.407,0,0,0-1.459-.425,2.721,2.721,0,0,0-2.068.825,3.54,3.54,0,0,0-.763,2.5,3.921,3.921,0,0,0,.794,2.678,2.647,2.647,0,0,0,2.081.893,3.5,3.5,0,0,0,1.28-.246,4.229,4.229,0,0,0,1.1-.616V87.342Z" transform="translate(-3.977 -30.685)" fill="#fff"/>
  </g>
</svg>
