<svg xmlns="http://www.w3.org/2000/svg" width="65.379" height="78.306" viewBox="0 0 65.379 78.306">
  <g id="Group_52853" data-name="Group 52853" transform="translate(-11.48 -1)">
    <path id="Path_44162" data-name="Path 44162" d="M11.74,62.72v6.833h6.9l-.214-5Z" transform="translate(-0.101 -23.962)" fill="#576d7e"/>
    <path id="Path_44163" data-name="Path 44163" d="M19.568,55.768H15.775a4.136,4.136,0,1,0,0,8.265h3.793a.11.11,0,0,0,.11-.1V55.872a.11.11,0,0,0-.11-.1Z" transform="translate(0 -21.262)" fill="#435460"/>
    <path id="Path_44164" data-name="Path 44164" d="M80.979,21.188V72.576a6.729,6.729,0,0,1-6.729,6.729H28.9a6.729,6.729,0,0,1-6.729-6.729V7.729A6.729,6.729,0,0,1,28.9,1H60.821Z" transform="translate(-4.15)" fill="#e5e6e8"/>
    <rect id="Rectangle_20673" data-name="Rectangle 20673" width="41.135" height="24.428" transform="translate(18.02 44.796)" fill="#cdd1d4"/>
    <path id="Path_44165" data-name="Path 44165" d="M85.35,17.76a6.729,6.729,0,0,0,6.729,6.729h13.459V22.477L85.35,4.32Z" transform="translate(-28.679 -1.289)" fill="#cdd1d4" opacity="0.35"/>
    <path id="Path_44166" data-name="Path 44166" d="M59.236,93.708H15.685a4,4,0,0,1-3.995-3.995l.031-20.433H59.236Z" transform="translate(-0.082 -26.509)" fill="#576d7e"/>
    <path id="Path_44167" data-name="Path 44167" d="M85.35,14.459a6.729,6.729,0,0,0,6.729,6.729h13.459L85.35,1Z" transform="translate(-28.679)" fill="#cdd1d4"/>
    <path id="Path_44168" data-name="Path 44168" d="M34.267,80.024h2.221v7.048a7.268,7.268,0,0,1-.245,2.123A3.059,3.059,0,0,1,35.08,90.76a3.934,3.934,0,0,1-2.264.612,3.359,3.359,0,0,1-2.533-.924,3.787,3.787,0,0,1-.9-2.71l2.123-.239a3.01,3.01,0,0,0,.275,1.352,1.412,1.412,0,0,0,2.178.184,3.469,3.469,0,0,0,.306-1.786Zm4.668,11.134V80.024h3.6a13.287,13.287,0,0,1,2.68.165,2.906,2.906,0,0,1,1.6,1.089,3.45,3.45,0,0,1,.648,2.172,3.591,3.591,0,0,1-.373,1.719,3.059,3.059,0,0,1-.942,1.1,3.31,3.31,0,0,1-1.168.526,13.08,13.08,0,0,1-2.331.159H41.18v4.2Zm2.245-9.25v3.157H42.4a5.622,5.622,0,0,0,1.78-.177,1.462,1.462,0,0,0,.7-.544,1.523,1.523,0,0,0,.251-.863,1.425,1.425,0,0,0-.355-1,1.566,1.566,0,0,0-.954-.5,11.161,11.161,0,0,0-1.615-.073Zm13.275,5.157V85.187h4.851v4.435a6.2,6.2,0,0,1-2.049,1.224,7.537,7.537,0,0,1-2.716.52,6.118,6.118,0,0,1-3.059-.734A4.668,4.668,0,0,1,49.542,88.5a6.778,6.778,0,0,1-.655-2.967,6.387,6.387,0,0,1,.734-3.089,4.894,4.894,0,0,1,2.16-2.056,5.8,5.8,0,0,1,2.667-.551,5.316,5.316,0,0,1,3.242.869,3.921,3.921,0,0,1,1.5,2.4l-2.233.416a2.386,2.386,0,0,0-.893-1.3,2.692,2.692,0,0,0-1.646-.459,3.059,3.059,0,0,0-2.343.93,3.94,3.94,0,0,0-.869,2.741,4.362,4.362,0,0,0,.881,3,2.943,2.943,0,0,0,2.306.991,3.787,3.787,0,0,0,1.419-.281,4.626,4.626,0,0,0,1.224-.673V87.065Z" transform="translate(-6.948 -30.603)" fill="#fff"/>
  </g>
</svg>
