<svg xmlns="http://www.w3.org/2000/svg" xmlns:xlink="http://www.w3.org/1999/xlink" width="1735.242" height="468.994" viewBox="0 0 1735.242 468.994">
  <defs>
    <linearGradient id="linear-gradient" x1="1.087" y1="0.5" x2="0" y2="0.5" gradientUnits="objectBoundingBox">
      <stop offset="0" stop-color="#fcee21"/>
      <stop offset="0.468" stop-color="#8ecce1"/>
      <stop offset="0.984" stop-color="#29abe2"/>
    </linearGradient>
    <linearGradient id="linear-gradient-2" x1="1.086" y1="0.5" x2="0" y2="0.5" xlink:href="#linear-gradient"/>
    <linearGradient id="linear-gradient-3" x1="1.086" y1="0.5" x2="0" y2="0.5" xlink:href="#linear-gradient"/>
    <linearGradient id="linear-gradient-4" x1="1.085" y1="0.5" x2="0" y2="0.5" xlink:href="#linear-gradient"/>
    <linearGradient id="linear-gradient-5" x1="1.085" y1="0.5" x2="0" y2="0.5" xlink:href="#linear-gradient"/>
    <linearGradient id="linear-gradient-6" x1="1.084" y1="0.5" x2="-0.001" y2="0.5" xlink:href="#linear-gradient"/>
    <linearGradient id="linear-gradient-7" x1="1.084" y1="0.5" x2="-0.004" y2="0.5" xlink:href="#linear-gradient"/>
    <linearGradient id="linear-gradient-8" x1="1.083" y1="0.5" x2="-0.006" y2="0.5" xlink:href="#linear-gradient"/>
    <linearGradient id="linear-gradient-9" x1="1.083" y1="0.5" x2="-0.008" y2="0.5" xlink:href="#linear-gradient"/>
    <linearGradient id="linear-gradient-10" x1="1.083" y1="0.5" x2="-0.01" y2="0.5" xlink:href="#linear-gradient"/>
    <linearGradient id="linear-gradient-11" x1="1.082" y1="0.5" x2="-0.013" y2="0.5" xlink:href="#linear-gradient"/>
    <linearGradient id="linear-gradient-12" x1="1.082" y1="0.5" x2="-0.015" y2="0.5" xlink:href="#linear-gradient"/>
    <linearGradient id="linear-gradient-13" x1="1.082" y1="0.5" x2="-0.017" y2="0.5" xlink:href="#linear-gradient"/>
    <linearGradient id="linear-gradient-14" x1="1.081" y1="0.5" x2="-0.019" y2="0.5" xlink:href="#linear-gradient"/>
    <linearGradient id="linear-gradient-15" x1="1.081" y1="0.5" x2="-0.021" y2="0.5" xlink:href="#linear-gradient"/>
    <linearGradient id="linear-gradient-16" x1="1.081" y1="0.5" x2="-0.023" y2="0.5" xlink:href="#linear-gradient"/>
    <linearGradient id="linear-gradient-17" x1="1.08" y1="0.5" x2="-0.026" y2="0.5" xlink:href="#linear-gradient"/>
    <linearGradient id="linear-gradient-18" x1="1.08" y1="0.5" x2="-0.028" y2="0.5" xlink:href="#linear-gradient"/>
    <linearGradient id="linear-gradient-19" x1="1.08" y1="0.5" x2="-0.03" y2="0.5" xlink:href="#linear-gradient"/>
    <linearGradient id="linear-gradient-20" x1="1.079" y1="0.5" x2="-0.032" y2="0.5" xlink:href="#linear-gradient"/>
    <linearGradient id="linear-gradient-21" x1="1.079" y1="0.5" x2="-0.034" y2="0.5" xlink:href="#linear-gradient"/>
    <linearGradient id="linear-gradient-22" x1="1.079" y1="0.5" x2="-0.037" y2="0.5" xlink:href="#linear-gradient"/>
    <linearGradient id="linear-gradient-23" x1="1.078" y1="0.5" x2="-0.039" y2="0.5" xlink:href="#linear-gradient"/>
    <linearGradient id="linear-gradient-24" x1="1.078" y1="0.5" x2="-0.041" y2="0.5" xlink:href="#linear-gradient"/>
    <linearGradient id="linear-gradient-25" x1="1.078" y1="0.5" x2="-0.043" y2="0.5" xlink:href="#linear-gradient"/>
    <linearGradient id="linear-gradient-26" x1="1.077" y1="0.5" x2="-0.045" y2="0.5" xlink:href="#linear-gradient"/>
    <linearGradient id="linear-gradient-27" x1="1.077" y1="0.5" x2="-0.048" y2="0.5" xlink:href="#linear-gradient"/>
    <linearGradient id="linear-gradient-28" x1="1.077" y1="0.5" x2="-0.05" y2="0.5" xlink:href="#linear-gradient"/>
    <linearGradient id="linear-gradient-29" x1="1.076" y1="0.5" x2="-0.052" y2="0.5" xlink:href="#linear-gradient"/>
    <linearGradient id="linear-gradient-30" x1="1.076" y1="0.5" x2="-0.054" y2="0.5" xlink:href="#linear-gradient"/>
    <linearGradient id="linear-gradient-31" x1="1.076" y1="0.5" x2="-0.056" y2="0.5" xlink:href="#linear-gradient"/>
    <linearGradient id="linear-gradient-32" x1="1.075" y1="0.5" x2="-0.059" y2="0.5" xlink:href="#linear-gradient"/>
    <linearGradient id="linear-gradient-33" x1="1.075" y1="0.5" x2="-0.061" y2="0.5" xlink:href="#linear-gradient"/>
    <linearGradient id="linear-gradient-34" x1="1.075" y1="0.5" x2="-0.063" y2="0.5" xlink:href="#linear-gradient"/>
    <linearGradient id="linear-gradient-35" x1="1.074" y1="0.5" x2="-0.065" y2="0.5" xlink:href="#linear-gradient"/>
    <linearGradient id="linear-gradient-36" x1="1.074" y1="0.5" x2="-0.067" y2="0.5" xlink:href="#linear-gradient"/>
    <linearGradient id="linear-gradient-37" x1="1.074" y1="0.5" x2="-0.07" y2="0.5" xlink:href="#linear-gradient"/>
    <linearGradient id="linear-gradient-38" x1="1.073" y1="0.5" x2="-0.072" y2="0.5" xlink:href="#linear-gradient"/>
    <linearGradient id="linear-gradient-39" x1="1.073" y1="0.5" x2="-0.074" y2="0.5" xlink:href="#linear-gradient"/>
    <linearGradient id="linear-gradient-40" x1="1.073" y1="0.5" x2="-0.076" y2="0.5" xlink:href="#linear-gradient"/>
    <linearGradient id="linear-gradient-41" x1="1.072" y1="0.5" x2="-0.078" y2="0.5" xlink:href="#linear-gradient"/>
    <linearGradient id="linear-gradient-42" x1="1.072" y1="0.5" x2="-0.081" y2="0.5" xlink:href="#linear-gradient"/>
    <linearGradient id="linear-gradient-43" x1="1.072" y1="0.5" x2="-0.083" y2="0.5" xlink:href="#linear-gradient"/>
    <linearGradient id="linear-gradient-44" x1="1.071" y1="0.5" x2="-0.085" y2="0.5" xlink:href="#linear-gradient"/>
    <linearGradient id="linear-gradient-45" x1="1.071" y1="0.5" x2="-0.087" y2="0.5" xlink:href="#linear-gradient"/>
    <linearGradient id="linear-gradient-46" x1="1.071" y1="0.5" x2="-0.089" y2="0.5" xlink:href="#linear-gradient"/>
    <linearGradient id="linear-gradient-47" x1="1.07" y1="0.5" x2="-0.092" y2="0.5" xlink:href="#linear-gradient"/>
    <linearGradient id="linear-gradient-48" x1="1.07" y1="0.5" x2="-0.094" y2="0.5" xlink:href="#linear-gradient"/>
    <linearGradient id="linear-gradient-49" x1="1.07" y1="0.5" x2="-0.096" y2="0.5" xlink:href="#linear-gradient"/>
    <linearGradient id="linear-gradient-50" x1="1.069" y1="0.5" x2="-0.098" y2="0.5" xlink:href="#linear-gradient"/>
    <linearGradient id="linear-gradient-51" x1="1.069" y1="0.5" x2="-0.1" y2="0.5" xlink:href="#linear-gradient"/>
    <linearGradient id="linear-gradient-52" x1="1.069" y1="0.5" x2="-0.103" y2="0.5" xlink:href="#linear-gradient"/>
  </defs>
  <g id="Group_51685" data-name="Group 51685" transform="translate(0)">
    <path id="Path_42403" data-name="Path 42403" d="M599.3,243.3c1.8,0,3.817,0,5.622-.069,208-1.041,442.243-57.189,642.821-154.216,188.918-91.336,345.632-9.786,443.839,74.748,9.509,8.12,18.184,16.588,26.929,24.985v-8.953c-7.5-7.149-14.783-14.367-22.765-21.238C1596.017,72.7,1436.943-10.167,1245.179,82.7,861.652,268.351,309.75,326.373,4.372,15.443L0,20.3C143.25,166.258,350.352,243.3,599.3,243.3Z" transform="translate(16.657 69.438)" opacity="0.3" fill="url(#linear-gradient)"/>
    <path id="Path_42404" data-name="Path 42404" d="M1239.835,98.521c196.483-95.153,355.9-13.881,455.152,71.07,9.647,8.4,18.531,17,27.415,25.61v-8.953c-7.7-7.357-15.13-14.714-23.389-21.793C1598.447,78.186,1436.735-4.336,1237.2,92.344,845.551,282.025,312.527,331.788,4.372,15.445L0,20.3C310.306,338.936,846.245,289.174,1239.835,98.521Z" transform="translate(12.77 62.08)" opacity="0.3" fill="url(#linear-gradient-2)"/>
    <path id="Path_42405" data-name="Path 42405" d="M1231.646,108.224c204.4-98.97,366.385-18.045,466.4,67.461,9.925,8.467,19.017,17.282,28.109,26.1v-9.022c-7.912-7.5-15.547-15.061-24.014-22.279-101.4-86.616-265.818-169-472.989-68.363C870.536,276.043,334.736,357.731,4.372,15.431L0,20.358C332.515,364.879,871.3,283.052,1231.646,108.224Z" transform="translate(9.023 54.528)" opacity="0.3" fill="url(#linear-gradient-3)"/>
    <path id="Path_42406" data-name="Path 42406" d="M1223.734,117.922c212.1-102.857,376.726-22.071,477.5,63.782,10.133,8.676,19.433,17.7,28.733,26.582v-9.022c-8.051-7.635-15.894-15.408-24.569-22.834C1603.235,89.4,1436.249,7.361,1221.1,111.745,849.645,292.056,335.083,361.252,4.372,15.412L0,20.2C333.07,368.609,850.478,299.135,1223.734,117.922Z" transform="translate(5.205 47.051)" opacity="0.3" fill="url(#linear-gradient-4)"/>
    <path id="Path_42407" data-name="Path 42407" d="M1215.822,127.543c219.8-106.743,387-26.235,488.744,60.034,10.411,8.884,19.919,18.045,29.358,27.206V205.83c-8.259-7.843-16.31-15.894-25.263-23.458C1605.6,94.854,1435.833,13.165,1213.184,121.366,737.974,352.134,286.084,312.643,4.442,15.386L0,20.175C283.724,319.584,738.252,359.7,1215.822,127.543Z" transform="translate(1.249 39.651)" opacity="0.3" fill="url(#linear-gradient-5)"/>
    <path id="Path_42408" data-name="Path 42408" d="M1205.133,137.312c227.507-110.769,397.478-30.4,500.057,56.217,10.619,9.023,20.266,18.462,29.913,27.762v-9.022c-8.467-8.051-16.657-16.1-25.818-23.944-103.967-88-276.159-169.276-506.65-57.328C726.106,362.667,288.513,320.539,1.943,15.369L0,17.521V22.8C288.582,327.618,727.633,369.607,1205.133,137.312Z" transform="translate(0.07 32.103)" opacity="0.3" fill="url(#linear-gradient-6)"/>
    <path id="Path_42409" data-name="Path 42409" d="M1193.265,144.93c235-114.308,407.749-34.563,511.3,52.608,10.827,9.161,20.613,18.739,30.468,28.247V216.9c-8.606-8.259-17.073-16.588-26.443-24.5-104.8-88.351-279.7-169.554-517.894-53.649C713.96,370.7,291.358,326.629,0,15.353v9.3C293.163,333.917,716.459,376.878,1193.265,144.93Z" transform="translate(0.139 26.636)" opacity="0.3" fill="url(#linear-gradient-7)"/>
    <path id="Path_42410" data-name="Path 42410" d="M1181.466,150.811c242.984-118.195,418.16-38.658,522.4,48.93,11.1,9.37,21.238,19.086,31.232,28.872v-9.092c-8.814-8.4-17.42-16.865-27.068-24.916-105.7-88.906-283.307-169.693-529.137-50.04C703.2,376.165,295.8,331.192,0,15.335v9.3C297.535,338.549,705.632,382.481,1181.466,150.811Z" transform="translate(0.07 22.976)" opacity="0.3" fill="url(#linear-gradient-8)"/>
    <path id="Path_42411" data-name="Path 42411" d="M507.83,297.075C704.521,322.13,927.17,274.727,1169.6,156.532c250.618-122.151,428.571-42.753,533.648,45.251,11.382,9.508,21.654,19.433,31.787,29.358v-8.884c-9.023-8.676-17.837-17.351-27.692-25.61-106.535-89.253-286.708-169.832-540.38-46.223C692.376,381.609,299.965,335.8,0,15.3v9.439C147.969,181.1,318.634,273.131,507.83,297.075Z" transform="translate(0.139 19.407)" opacity="0.3" fill="url(#linear-gradient-9)"/>
    <path id="Path_42412" data-name="Path 42412" d="M493.741,300.791c196.483,28.733,413.718-16.657,664.059-138.738,151.856-73.985,292.538-85.853,418.229-35.327C1639.6,152.4,1692.42,191.549,1735.1,233.33v-9.023c-42.406-40.74-94.459-78.7-156.784-103.9-127.218-51.22-269.7-39.283-423.088,35.535C674.955,389.836,307.46,344.862,0,15.263V24.7C149.5,183.359,311.139,274.209,493.741,300.791Z" transform="translate(0.07 16.108)" opacity="0.3" fill="url(#linear-gradient-10)"/>
    <path id="Path_42413" data-name="Path 42413" d="M1145.932,167.648c158.519-77.247,304.06-89.878,432.943-37.131,62.533,25.61,114.378,64.129,156.229,105.216V226.78c-41.642-39.977-92.585-77.385-153.938-102.51-130.41-53.441-277.755-40.948-437.8,37.131C664.475,394.946,310.792,349.625,0,15.237v9.578C311.9,357.051,666.7,401.469,1145.932,167.648Z" transform="translate(0.07 12.733)" opacity="0.3" fill="url(#linear-gradient-11)"/>
    <path id="Path_42414" data-name="Path 42414" d="M465.285,308.29c190.792,35.674,409.484-8.675,668.848-135.268,165.043-80.647,315.581-93.765,447.518-38.936,61.561,25.471,112.365,63.435,153.452,103.828v-8.953c-40.879-39.422-90.85-76.206-151.093-101.26-133.6-55.593-285.806-42.336-452.515,39.074C647.679,402.888,317.524,358.955,0,15.2v9.647C150.468,186.278,299.062,277.405,465.285,308.29Z" transform="translate(0.07 9.58)" opacity="0.3" fill="url(#linear-gradient-12)"/>
    <path id="Path_42415" data-name="Path 42415" d="M1122.265,177.849C1294.04,93.94,1449.436,80.2,1584.357,137.039c60.59,25.471,110.353,62.88,150.746,102.718V230.8c-40.116-38.866-89.115-75.1-148.386-100.011C1450.2,73.188,1293,86.93,1119.7,171.6,566.06,441.931,267.692,307.842,0,15.166v9.647C268.524,316.24,568.489,448.108,1122.265,177.849Z" transform="translate(0.07 6.904)" opacity="0.3" fill="url(#linear-gradient-13)"/>
    <path id="Path_42416" data-name="Path 42416" d="M436.9,314.808c187.044,43.03,401.225,1.249,673.636-131.867,178.507-87.241,338.831-101.538,476.6-42.684,59.479,25.471,108.34,62.325,147.969,101.538V232.7c-39.352-38.1-87.449-73.776-145.61-98.692-139.433-59.549-301.422-45.182-481.6,42.822C558.842,445.079,279.907,324.038,0,15.122V24.63C151.162,189.672,287.541,280.522,436.9,314.808Z" transform="translate(0.07 3.964)" opacity="0.3" fill="url(#linear-gradient-14)"/>
    <path id="Path_42417" data-name="Path 42417" d="M1098.6,187.972c185.24-90.642,350.491-105.563,491.1-44.7,58.508,25.471,106.466,61.839,145.4,100.5v-9.092c-38.658-37.617-85.783-72.8-143.042-97.582-142.278-61.769-309.126-46.778-496.031,44.766C553.151,447.127,284.7,331.639,0,15.087v9.855C284.9,339.828,555.233,453.651,1098.6,187.972Z" transform="translate(0.07 1.153)" opacity="0.3" fill="url(#linear-gradient-15)"/>
    <path id="Path_42418" data-name="Path 42418" d="M408.443,320.768c180.8,50.179,396.436,9.508,678.356-128.536,192.041-93.9,362.012-109.658,505.331-46.5,57.605,25.332,104.661,61.145,142.972,99.248v-9.231c-38.033-36.992-84.256-71.555-140.4-96.263-144.916-63.852-316.691-48.166-510.537,46.64C497.766,472.971,254.574,304.042,0,15.044v9.647C130.965,171.828,254.3,277.946,408.443,320.768Z" transform="translate(0.07 -1.025)" opacity="0.3" fill="url(#linear-gradient-16)"/>
    <path id="Path_42419" data-name="Path 42419" d="M394.285,323.99c177.674,53.857,394.077,13.6,680.785-126.662,198.843-97.3,373.6-113.614,519.7-48.583,56.564,25.194,102.787,60.52,140.4,98.068v-9.231c-37.339-36.368-82.73-70.514-137.975-95.083-147.553-65.934-324.187-49.485-524.9,48.583C787.043,330.722,572.168,370.907,395.951,317.4,251.659,273.672,137.559,172.412,0,15V25.067C136.449,180.324,250.2,280.266,394.285,323.99Z" transform="translate(0 -3.761)" opacity="0.3" fill="url(#linear-gradient-17)"/>
    <path id="Path_42420" data-name="Path 42420" d="M379.988,326.507c176.7,58.23,387.414,19.711,683.214-125,205.575-100.705,385.193-117.64,533.857-50.6,55.593,25.124,101.052,59.965,138.045,96.957v-9.3c-36.715-35.882-81.272-69.473-135.477-93.9-150.4-67.946-331.682-50.942-539.131,50.6C766.43,339.208,557.176,377.727,381.861,319.983,236.946,272.233,124.164,159.591,0,14.953V25.016C122.915,167.919,235.488,278.757,379.988,326.507Z" transform="translate(0.07 -5.792)" opacity="0.3" fill="url(#linear-gradient-18)"/>
    <path id="Path_42421" data-name="Path 42421" d="M1051.264,205.785c212.515-104.036,396.991-121.8,548.084-52.608,54.76,25.055,99.387,59.41,135.754,95.847v-9.3c-36.09-35.327-79.953-68.363-133.187-92.793-152.758-69.959-338.831-52.261-553.22,52.678C749.565,346.051,539.617,383.945,367.772,322.592,226.882,272.136,117.987,155.19,0,14.925V25.2C251.868,323.911,451.682,499.364,1051.264,205.785Z" transform="translate(0.07 -7.915)" opacity="0.3" fill="url(#linear-gradient-19)"/>
    <path id="Path_42422" data-name="Path 42422" d="M1039.466,209.972c219.525-107.507,408.651-125.829,562.173-54.69C1655.5,180.2,1699.291,214,1735.1,250.087v-9.37c-35.465-34.841-78.565-67.391-130.827-91.613-155.326-72.111-346.257-53.649-567.448,54.76C740.889,348.78,534.9,387.924,368.952,330.735,225.008,281.042,122.637,164.027,0,14.878V25.219C246.385,324.072,429.681,508.617,1039.466,209.972Z" transform="translate(0.07 -9.881)" opacity="0.3" fill="url(#linear-gradient-20)"/>
    <path id="Path_42423" data-name="Path 42423" d="M1027.736,213.67c226.327-110.908,420.1-130.132,576.193-56.772,52.955,24.777,96.055,58.16,131.243,93.765v-9.508c-34.841-34.286-77.247-66.42-128.675-90.5C1448.811,76.6,1253.161,95.683,1025.03,207.493c-293.58,143.736-496.17,183.99-656.841,130.271C221.954,288.9,123.262,168.071,0,14.828V25.238C240.832,324.438,407.68,517.52,1027.736,213.67Z" transform="translate(0 -11.427)" opacity="0.3" fill="url(#linear-gradient-21)"/>
    <path id="Path_42424" data-name="Path 42424" d="M5,31.571C237.084,328,390.259,523.714,1015.8,217.088c233.267-114.378,431.833-134.158,590.213-58.924,51.984,24.708,94.39,57.675,129.092,92.654V241.31c-34.286-33.8-75.928-65.378-126.385-89.392-160.115-76.067-360.554-56.287-595.557,58.993C392.133,515.247,240.069,321.194,9.925,27.268,6.8,23.243,3.192,18.87,0,14.775v10.48C1.6,27.407,3.4,29.558,5,31.571Z" transform="translate(0.07 -12.624)" opacity="0.3" fill="url(#linear-gradient-22)"/>
    <path id="Path_42425" data-name="Path 42425" d="M16.309,46.651c218.97,288.581,363.678,479.234,987.621,173.3,240.138-117.779,443.423-138.391,604.163-61.075,51.151,24.569,92.863,57.05,127.01,91.613v-9.508c-33.73-33.314-74.748-64.546-124.3-88.351-162.475-78.079-367.425-57.466-609.438,61.145C381.861,517.557,238.472,328.431,21.445,42.348,14.643,33.395,6.94,23.748,0,14.725V25.344C5.2,32.354,11.173,39.849,16.309,46.651Z" transform="translate(0.14 -13.337)" opacity="0.3" fill="url(#linear-gradient-23)"/>
    <path id="Path_42426" data-name="Path 42426" d="M25.125,59.786C232.018,342.329,368.605,529.1,992.132,223.232c247.217-121.179,455.083-142.486,618.044-63.3,50.318,24.43,91.405,56.564,125,90.711v-9.439c-33.175-32.9-73.5-63.713-122.29-87.449-164.7-80.231-374.5-58.855-623.388,63.227C370.618,520.628,235.211,335.666,30.121,55.552,20.335,42.157,10.2,28.346,0,14.673v10.9C8.467,37.091,17,48.612,25.125,59.786Z" transform="translate(0 -14.396)" opacity="0.3" fill="url(#linear-gradient-24)"/>
    <path id="Path_42427" data-name="Path 42427" d="M31.44,70.074c195.581,278.171,324.742,461.814,948.824,155.6,254.089-124.719,466.6-146.72,631.855-65.448,49.416,24.222,89.948,55.94,122.984,89.6V240.6c-32.689-32.551-72.319-62.949-120.277-86.616-166.847-82.035-381.237-60.035-637.2,65.517C358.264,523.421,230.213,341.513,36.437,65.979,24.639,49.184,12.285,31.833,0,14.621V25.795C10.549,40.647,21.307,55.569,31.44,70.074Z" transform="translate(0.07 -14.621)" opacity="0.3" fill="url(#linear-gradient-25)"/>
    <path id="Path_42428" data-name="Path 42428" d="M35.813,78.5C126.107,212.587,204.048,328.492,336.54,370.134c143.875,45.182,338.831,1.319,631.925-142.556,261.029-128.12,478.264-151.023,645.528-67.738a445.61,445.61,0,0,1,121.11,88.768v-9.231c-32.134-32.134-71.07-62.186-118.265-85.644C1447.77,69.685,1228.8,92.38,965.828,221.471c-620.959,304.822-741.791,125.066-924.949-147C27.623,54.832,13.811,34.774,0,14.578V26.1C12.007,43.589,24.222,61.287,35.813,78.5Z" transform="translate(0.07 -14.37)" opacity="0.3" fill="url(#linear-gradient-26)"/>
    <path id="Path_42429" data-name="Path 42429" d="M38.38,85.111c85.3,132.77,158.936,247.425,288.86,288.373,141.168,44.627,335.43,0,629.426-144.36,268.108-131.59,489.924-155.187,659.27-69.959a444.445,444.445,0,0,1,119.236,87.8v-9.092c-31.718-31.718-69.959-61.492-116.46-84.812C1447.631,67,1223.942,90.524,954.029,223.017,331.058,528.88,216.61,350.859,43.517,81.224,29.5,59.362,14.852,36.945,0,14.527V26.465C12.909,46.175,25.957,65.817,38.38,85.111Z" transform="translate(0 -13.764)" opacity="0.3" fill="url(#linear-gradient-27)"/>
    <path id="Path_42430" data-name="Path 42430" d="M39.352,89.849C119.791,221.717,189.334,335.608,317.038,376c138.808,44,332.446-1.11,627.76-146.165,274.91-134.991,501.375-159.421,672.873-72.249,47.195,23.944,85.784,54.621,117.432,87.033v-9.092c-31.232-31.3-68.918-60.8-114.656-84.048-173.094-88.074-401.433-63.713-678.286,72.249C316.275,531.05,208.212,354.07,44.766,86.1,30.4,62.573,15.2,38.49,0,14.477V26.692C13.256,47.791,26.721,69.1,39.352,89.849Z" transform="translate(0.07 -12.325)" opacity="0.3" fill="url(#linear-gradient-28)"/>
    <path id="Path_42431" data-name="Path 42431" d="M39.283,93.762c76,131.243,141.515,244.51,267,284.626C441.133,421.279,640.253,374.362,933,230.7c282.058-138.53,513.1-163.655,686.476-74.679,46.5,23.806,84.534,54.2,115.7,86.338v-9.161c-30.746-30.954-67.877-60.1-112.851-83.285-175.107-89.878-407.957-64.962-691.959,74.54C639.073,367.491,441.41,414.338,308.154,371.863,184.962,332.511,119.861,220.216,44.627,90.153,30.26,65.306,15.338,39.9,0,14.433V27C13.464,49.413,26.582,71.761,39.283,93.762Z" transform="translate(0 -10.824)" opacity="0.3" fill="url(#linear-gradient-29)"/>
    <path id="Path_42432" data-name="Path 42432" d="M37.964,95.654C109.52,226.55,171.359,339.609,294.9,379.377,427.738,422.2,626.65,374.8,921.132,230.159,1210.2,88.089,1445.688,62.2,1621.072,153.19c45.876,23.736,83.285,53.719,114.031,85.575V229.6c-30.4-30.607-66.767-59.479-111.185-82.591-177.258-91.821-414.481-66.072-705.562,76.9C625.4,367.786,427.876,414.981,296.7,372.784,175.592,333.709,114.309,221.761,43.516,92.114,29.427,66.435,14.991,40.478,0,14.382V27.291Q19.468,61.854,37.964,95.654Z" transform="translate(0.07 -8.136)" opacity="0.3" fill="url(#linear-gradient-30)"/>
    <path id="Path_42433" data-name="Path 42433" d="M35.813,95.815C169.9,356.219,266.79,544.3,909.263,228.515c296.148-145.471,536.286-172.191,713.474-79.4,45.182,23.736,82.036,53.441,112.365,84.95v-9.231c-29.913-30.4-65.8-58.924-109.45-81.758-179.063-93.834-420.936-67.252-719.027,79.19C611.8,367.185,414.273,415,284.973,372.876,165.668,333.94,108.062,222.061,41.365,92.553,28.455,67.5,14.506,41.194,0,14.335V27.73C12.215,50.564,24.222,73.328,35.813,95.815Z" transform="translate(0.07 -4.341)" opacity="0.3" fill="url(#linear-gradient-31)"/>
    <path id="Path_42434" data-name="Path 42434" d="M32.689,94.511C159,355.609,250.271,544.11,897.465,226.032,1200.691,77.022,1445.2,49.538,1624.4,144.274a434.547,434.547,0,0,1,110.7,84.187V219.23c-29.5-30.052-64.893-58.3-107.854-81.064-180.867-95.778-427.391-68.224-732.422,81.758C597.916,365.811,400.184,414.186,272.689,371.85,155.257,332.983,100.983,221.035,38.38,91.388,26.374,66.68,13.464,40.654,0,14.281v13.95C11.382,50.856,22.348,73.135,32.689,94.511Z" transform="translate(0.07 0.364)" opacity="0.3" fill="url(#linear-gradient-32)"/>
    <path id="Path_42435" data-name="Path 42435" d="M28.872,91.541c118.612,262,204.465,451.4,856.725,130.757,310.306-152.48,559.328-180.8,740.334-84.256,43.863,23.458,79.676,52.747,109.173,83.632V212.3a435.322,435.322,0,0,0-106.258-80.231C1446.1,34.491,1195.07,62.669,882.89,216.121c-299.062,147.067-497.28,195.719-622.9,153.521C144.222,330.638,93.418,218.481,34.563,88.557,23.736,64.543,12.146,39.558,0,14.225V28.8C10.133,50.177,19.641,71.206,28.872,91.541Z" transform="translate(0.07 6.318)" opacity="0.3" fill="url(#linear-gradient-33)"/>
    <path id="Path_42436" data-name="Path 42436" d="M24.361,86.83c53.857,127.7,100.428,237.986,208.906,281.433C360.416,419.136,557.94,372.636,873.8,217.379c317.246-156.02,570.849-185.17,753.59-86.686,43.239,23.389,78.5,52.331,107.646,82.868v-9.369c-28.733-29.289-63.019-56.981-104.8-79.537-184.615-99.525-440.022-70.514-759.142,86.477-309.959,152.411-511.786,200.23-635.6,150.745C129.578,319.472,83.424,210.3,30.191,84.054,20.613,61.5,10.549,38.04,0,14.165V29.919C8.4,49.283,16.518,68.369,24.361,86.83Z" transform="translate(0.139 13.458)" opacity="0.3" fill="url(#linear-gradient-34)"/>
    <path id="Path_42437" data-name="Path 42437" d="M19.364,79.838c50.11,127.7,93.418,238.055,199.12,282.2C343.9,414.3,542.324,367.448,861.93,210.317c324.325-159.56,582.439-189.4,766.916-89.045,42.753,23.25,77.455,51.983,106.258,82.313v-9.37a434.515,434.515,0,0,0-103.343-78.982c-186.35-101.469-446.338-71.486-772.537,88.906-313.5,154.354-516.436,202.451-638.449,151.578C117.5,312.618,74.679,203.585,25.194,77.27,17.143,56.8,8.814,35.558,0,14.112V31.324C6.663,47.773,13.187,64.152,19.364,79.838Z" transform="translate(0.069 22.602)" opacity="0.3" fill="url(#linear-gradient-35)"/>
    <path id="Path_42438" data-name="Path 42438" d="M13.811,69.859C60.173,197.84,100.358,308.4,203.77,353.235c123.539,53.51,322.868,6.524,646.222-152.48,331.474-163.1,593.891-193.845,780.172-91.474,42.2,23.042,76.483,51.5,104.939,81.55v-9.439a430.712,430.712,0,0,0-101.885-78.218C1445.2-.17,1180.772,30.576,847.494,194.508,530.178,350.6,326.338,398.972,206.2,346.85,105.355,303.125,65.656,193.884,19.641,67.291,13.395,50.079,6.8,32.034,0,14.058V32.45C4.581,45.012,9.439,57.713,13.811,69.859Z" transform="translate(0.07 34.455)" opacity="0.3" fill="url(#linear-gradient-36)"/>
    <path id="Path_42439" data-name="Path 42439" d="M7.7,56.479c42.961,128.467,80.023,239.3,181.145,284.9,121.943,54.9,322.243,7.7,649.345-153.313,338.484-166.431,605.412-198.148,793.289-94.042,41.642,23.042,75.512,51.289,103.551,81.064v-9.508a430.245,430.245,0,0,0-100.5-77.524c-189.82-105.355-458.553-73.638-798.98,93.9C514.563,339.856,309.682,388.438,191.348,335.136,92.725,290.648,56.079,181.129,13.674,54.189,9.3,41.141,4.581,27.469,0,14V33.854C2.5,41.349,5.276,49.192,7.7,56.479Z" transform="translate(0.069 49.292)" opacity="0.3" fill="url(#linear-gradient-37)"/>
    <path id="Path_42440" data-name="Path 42440" d="M1.249,45.74C40.81,174.692,74.956,286.085,174.065,332.378c120.208,56.425,321.411,8.745,652.329-154.215C1171.958,8.123,1443.259-24.5,1632.871,81.621c41.087,22.9,74.54,50.943,102.232,80.509v-9.578a428.645,428.645,0,0,0-99.248-76.9c-191.347-107.09-464.661-74.679-812.1,96.4C498.946,331.823,293.232,380.614,176.495,326.2,80.023,281.088,46.362,171.014,7.287,43.588,5,36.023,2.36,27.972,0,20.268V41.714C.416,43.033.833,44.352,1.249,45.74Z" transform="translate(0.07 61.35)" opacity="0.3" fill="url(#linear-gradient-38)"/>
    <path id="Path_42441" data-name="Path 42441" d="M159,336.635c118.542,57.605,320.855,9.786,655.522-154.979C1167.169,8.077,1442.981-25.307,1634.19,82.478A420.683,420.683,0,0,1,1735.1,162.431v-9.647a429.86,429.86,0,0,0-97.86-76.344C1444.23-32.386,1166.475.928,811.889,175.409,483.538,337.121,276.922,386.328,161.573,330.458,67.114,284.651,36.229,174.021.555,45.9.347,45.347.139,44.652,0,44.167V67.625C34.008,188.735,66.836,292.008,159,336.635Z" transform="translate(0.07 60.147)" opacity="0.3" fill="url(#linear-gradient-39)"/>
    <path id="Path_42442" data-name="Path 42442" d="M143.944,340.947c117.154,58.716,320.3,10.619,658.784-155.881C1162.38,7.878,1442.565-26.269,1635.369,83.389c40.046,22.764,72.6,50.318,99.734,79.329v-9.647a427.124,427.124,0,0,0-96.68-75.65c-194.47-110.769-476.667-76.691-838.4,101.4-332.029,163.446-539.756,213-653.37,156.02C60.312,291.462,30.052,191.66,0,74.02V99.491C28.733,208.525,61.006,299.375,143.944,340.947Z" transform="translate(0.07 58.888)" opacity="0.3" fill="url(#linear-gradient-40)"/>
    <path id="Path_42443" data-name="Path 42443" d="M128.953,345.4c115.419,59.9,319.675,11.59,661.838-156.922C1157.591,7.823,1442.148-27.3,1636.549,84.236c39.56,22.7,71.764,50.04,98.554,78.773v-9.647a420.485,420.485,0,0,0-95.431-75.1C1443.536-34.375,1156.967.743,788.223,182.234,452.515,347.624,243.955,397.595,131.66,339.226,55.107,299.527,25.055,213.6,0,110.124v26.3C24.5,230.54,56.148,307.647,128.953,345.4Z" transform="translate(0.07 57.625)" opacity="0.3" fill="url(#linear-gradient-41)"/>
    <path id="Path_42444" data-name="Path 42444" d="M113.962,349.764c114.1,61.006,319.259,12.493,665.169-157.894C1153.08,7.81,1442.01-28.141,1637.8,85.057a414.135,414.135,0,0,1,97.374,78.288v-9.717a419.334,419.334,0,0,0-94.251-74.54c-197.732-114.378-488.536-78.5-864.428,106.6C437.038,352.817,227.368,403,116.668,343.656,51.22,308.538,21.585,238.37,0,151.962v24.361C21.585,253.917,52.122,316.658,113.962,349.764Z" transform="translate(0 56.458)" opacity="0.3" fill="url(#linear-gradient-42)"/>
    <path id="Path_42445" data-name="Path 42445" d="M98.693,354.277c112.782,62.464,318.843,13.256,668.57-158.935C1148.153,7.674,1441.454-29.11,1638.909,85.961a412.959,412.959,0,0,1,96.194,77.8v-9.855a422.669,422.669,0,0,0-93.071-73.985C1442.773-36.259,1147.6.525,764.556,189.1c-343,169-553.567,219.525-662.948,159.074C47.681,318.326,19.294,263.7,0,195.55v21.168C19.572,277.378,47.958,326.307,98.693,354.277Z" transform="translate(0.07 55.136)" opacity="0.3" fill="url(#linear-gradient-43)"/>
    <path id="Path_42446" data-name="Path 42446" d="M83.563,358.759c111.394,63.5,318.565,14.02,671.971-160.045C1143.5,7.575,1441.038-30.111,1640.02,86.764a411.357,411.357,0,0,1,95.153,77.247v-9.855a421.406,421.406,0,0,0-92.03-73.429C1442.357-37.191,1142.878.426,752.757,192.536,406.084,363.27,194.262,414.073,86.547,352.651c-42.892-24.43-68.78-65.1-86.547-115.9V253.82C18.115,299.141,43.308,335.786,83.563,358.759Z" transform="translate(0 53.917)" opacity="0.3" fill="url(#linear-gradient-44)"/>
    <path id="Path_42447" data-name="Path 42447" d="M68.363,363.231c109.8,64.546,318.149,14.783,675.233-161.087C1138.644,7.536,1440.691-31.122,1641.061,87.35a413.731,413.731,0,0,1,94.112,76.9v-9.855a418.307,418.307,0,0,0-90.989-72.8C1442.01-38.2,1138.019.387,740.889,196.037,390.676,368.575,177.952,419.934,71.278,357.332,38.38,338.107,16.1,308.679,0,272.451v14.367C16.241,318.812,37.756,345.186,68.363,363.231Z" transform="translate(0 52.776)" opacity="0.3" fill="url(#linear-gradient-45)"/>
    <path id="Path_42448" data-name="Path 42448" d="M53.094,367.8c108.687,65.517,317.94,15.616,678.633-162.127C1133.925,7.454,1440.2-32.106,1641.963,88.31a408.971,408.971,0,0,1,93.14,76.344V154.73a417.141,417.141,0,0,0-89.948-72.388C1441.385-39.116,1133.3.306,729.09,199.5,375.2,373.838,161.364,425.544,56.217,361.97,32,347.395,14.089,326.643,0,302.144v13.6C13.742,336.707,30.954,354.474,53.094,367.8Z" transform="translate(0.07 51.469)" opacity="0.3" fill="url(#linear-gradient-46)"/>
    <path id="Path_42449" data-name="Path 42449" d="M37.825,372.493C145.193,439.12,355.557,388.733,719.79,209.116,1129.136,7.289,1439.719-33.035,1642.935,89.047a410.277,410.277,0,0,1,92.169,75.858v-9.925a413.961,413.961,0,0,0-88.976-71.833C1441.038-40.044,1128.511.21,717.222,202.869,359.791,379.086,145.055,431,41.018,366.524,24.43,356.252,11.382,342.579,0,327.241V337.86C10.827,351.116,22.764,363.123,37.825,372.493Z" transform="translate(0.07 50.177)" opacity="0.3" fill="url(#linear-gradient-47)"/>
    <path id="Path_42450" data-name="Path 42450" d="M22.556,377.049c106.188,67.669,317.524,16.8,685.435-164.557C1124.555,7.335,1439.3-33.961,1643.906,89.787a404.02,404.02,0,0,1,91.2,75.512V155.3a415.651,415.651,0,0,0-88-71.347c-206.477-125-523.307-83.771-941.745,122.5C344.591,384.406,128.536,436.737,25.749,371.358A142.1,142.1,0,0,1,0,350.051v8.537C7.079,365.181,14.089,371.705,22.556,377.049Z" transform="translate(0.07 48.952)" opacity="0.3" fill="url(#linear-gradient-48)"/>
    <path id="Path_42451" data-name="Path 42451" d="M7.149,381.737c105.078,68.571,317.524,17.42,689.044-165.806,423.5-208.7,742.694-250.9,948.616-125.343a403.281,403.281,0,0,1,90.225,74.956v-9.855a410.754,410.754,0,0,0-86.963-70.931C1440.205-41.974,1119,.085,693.486,209.962,329.114,389.58,112.088,442.327,10.549,376.116c-3.956-2.637-6.94-6.038-10.549-9.023v8.537C2.5,377.573,4.442,380,7.149,381.737Z" transform="translate(0.139 47.665)" opacity="0.3" fill="url(#linear-gradient-49)"/>
    <path id="Path_42452" data-name="Path 42452" d="M684.255,219.6C1114.908,7.292,1438.262-35.808,1645.641,91.41a407.538,407.538,0,0,1,89.392,74.679v-9.925A409.647,409.647,0,0,0,1648.9,85.58C1439.719-42.956,1114.353.144,681.687,213.422,318.842,392.206,102.163,446.064,0,382.976v7.287C105.355,451.547,322.729,397.759,684.255,219.6Z" transform="translate(0.139 46.287)" opacity="0.3" fill="url(#linear-gradient-50)"/>
    <path id="Path_42453" data-name="Path 42453" d="M672.456,223.077c437.732-215.846,765.389-259.918,974.087-130.9a405.809,405.809,0,0,1,88.56,74.193v-9.716a409.171,409.171,0,0,0-85.3-70.306C1439.3-43.92,1109.564.152,669.889,216.9,320.3,389.23,106.813,445.447,0,394.852v7.426C109.658,451.555,324.117,394.921,672.456,223.077Z" transform="translate(0.07 44.961)" opacity="0.3" fill="url(#linear-gradient-51)"/>
    <path id="Path_42454" data-name="Path 42454" d="M660.727,226.626C1105.4,7.24,1437.429-37.8,1647.376,92.884a401.653,401.653,0,0,1,87.8,73.915v-9.716a410.335,410.335,0,0,0-84.465-69.959C1438.817-44.882,1104.914.091,658.021,220.38,322.243,386.116,111.185,445.873,0,407.146v7.426C113.823,452.258,326.061,391.6,660.727,226.626Z" transform="translate(0 43.633)" opacity="0.3" fill="url(#linear-gradient-52)"/>
  </g>
</svg>
