<svg xmlns="http://www.w3.org/2000/svg" width="25.432" height="25.432" viewBox="0 0 25.432 25.432">
  <g id="Group_53234" data-name="Group 53234" transform="translate(-8 -8)">
    <path id="Path_44559" data-name="Path 44559" d="M128.85,61.513a.515.515,0,0,0-.513-.513h-8.824a.515.515,0,0,0-.513.513V66.13a.515.515,0,0,0,.513.513h8.824a.514.514,0,0,0,.513-.513Zm-8.824.513h7.8v3.591h-7.8Z" transform="translate(-105.305 -50.281)"/>
    <path id="Path_44560" data-name="Path 44560" d="M26.372,19.323c-.19,0-.364.01-.569.021V8.523A.511.511,0,0,0,25.3,8H10.57A2.581,2.581,0,0,0,8,10.565v16.92c0,.01.01.021.01.026v.051a2.555,2.555,0,0,0,2.56,2.55H20.4a7.052,7.052,0,1,0,5.972-10.789Zm-1.6.18a7.134,7.134,0,0,0-5.325,5.531H12.463V9.026H24.776ZM10.57,9.026h.867V25.033H10.57a2.623,2.623,0,0,0-1.544.493V10.565A1.551,1.551,0,0,1,10.57,9.026Zm0,20.06a1.513,1.513,0,1,1,0-3.027h8.758c-.005.1-.01.21-.01.323a6.913,6.913,0,0,0,.544,2.7Zm15.807,3.325A6.036,6.036,0,0,1,21.16,29.4a.488.488,0,0,0-.051-.087,6.027,6.027,0,1,1,5.269,3.094Z" transform="translate(0 0)"/>
    <path id="Path_44561" data-name="Path 44561" d="M354.026,309.827v-2.514a.513.513,0,1,0-1.026,0v2.729a.518.518,0,0,0,.159.364l1.375,1.37a.512.512,0,0,0,.364.149.535.535,0,0,0,.364-.149.511.511,0,0,0-.01-.723Z" transform="translate(-327.3 -283.47)"/>
  </g>
</svg>
