<svg xmlns="http://www.w3.org/2000/svg" width="18.005" height="18.006" viewBox="0 0 18.005 18.006">
  <g id="Group_69" data-name="Group 69" transform="translate(-4.002 -4)">
    <path id="Path_143" data-name="Path 143" d="M22.007,15.468a.963.963,0,0,0-.643-.905V9.1l.291-.13a.655.655,0,0,0,.352-.582.663.663,0,0,0-.37-.592L13.309,4.076a.647.647,0,0,0-.592-.009L4.372,7.8l-.018.009a.657.657,0,0,0,.018,1.173l2.2.985V15.9a.32.32,0,0,0,.081.213,5.185,5.185,0,0,0,1.554,1.064.321.321,0,0,0,.279-.579,5.2,5.2,0,0,1-1.271-.831V10.255L12.7,12.707a.67.67,0,0,0,.31.076.607.607,0,0,0,.283-.068l5.5-2.461v5.509a5.2,5.2,0,0,1-1.271.831.321.321,0,1,0,.279.579,5.185,5.185,0,0,0,1.554-1.064.32.32,0,0,0,.081-.213V9.967l1.286-.575v5.171a.958.958,0,0,0-.106,1.766L20.1,17.681a.322.322,0,1,0,.6.229l.343-.9.343.9a.322.322,0,1,0,.6-.229l-.516-1.353A.962.962,0,0,0,22.007,15.468Zm-8.978-3.339a.245.245,0,0,1-.042,0h-.008L4.645,8.392a.012.012,0,0,1,0-.01l8.331-3.727h.007a.3.3,0,0,0,.043,0L21.374,8.4Zm8.01,3.019h.006a.321.321,0,1,1,0,.642h0a.321.321,0,1,1,0-.642Z" transform="translate(0)" fill="#707070"/>
    <path id="Path_144" data-name="Path 144" d="M28.16,41.331a.322.322,0,0,0-.16.278v3.674a.321.321,0,0,0,.481.279L31.7,43.725a.321.321,0,0,0,0-.558L28.481,41.33A.322.322,0,0,0,28.16,41.331Zm.483.832,2.246,1.283-2.246,1.283Z" transform="translate(-16.282 -25.298)" fill="#707070"/>
    <path id="Path_145" data-name="Path 145" d="M23.859,36a3.858,3.858,0,1,0,3.858,3.858A3.858,3.858,0,0,0,23.859,36Zm0,7.073a3.215,3.215,0,1,1,3.215-3.215A3.215,3.215,0,0,1,23.859,43.075Z" transform="translate(-10.855 -21.712)" fill="#707070"/>
  </g>
</svg>
