<svg xmlns="http://www.w3.org/2000/svg" xmlns:xlink="http://www.w3.org/1999/xlink" width="24.18" height="24.18" viewBox="0 0 24.18 24.18">
  <defs>
    <linearGradient id="linear-gradient" x1="0.5" x2="0.5" y2="1" gradientUnits="objectBoundingBox">
      <stop offset="0" stop-color="#00438c"/>
      <stop offset="1" stop-color="#1265da"/>
    </linearGradient>
  </defs>
  <g id="Group_47542" data-name="Group 47542" transform="translate(0)">
    <rect id="Rectangle_51" data-name="Rectangle 51" width="24.18" height="24.18" rx="4" transform="translate(0)" fill="url(#linear-gradient)"/>
    <path id="Icon_akar-linkedin-v2-fill" data-name="Icon akar-linkedin-v2-fill" d="M9.39,8.994h3.195v1.591A3.665,3.665,0,0,1,16,8.848c3.4,0,4.205,1.822,4.205,5.164V20.2H16.762V14.774c0-1.9-.46-2.977-1.632-2.977-1.625,0-2.3,1.157-2.3,2.976V20.2H9.39ZM3.49,20.056H6.931V8.848H3.49ZM7.424,5.193a2.176,2.176,0,0,1-.648,1.55A2.211,2.211,0,0,1,3,5.193a2.18,2.18,0,0,1,.648-1.551,2.225,2.225,0,0,1,3.128,0A2.183,2.183,0,0,1,7.424,5.193Z" transform="translate(0.384 0.948)" fill="#fff"/>
  </g>
</svg>
