<svg xmlns="http://www.w3.org/2000/svg" width="29.31" height="29.311" viewBox="0 0 29.31 29.311">
  <path id="Path_277" data-name="Path 277" d="M41.554,16h-21.8A3.771,3.771,0,0,0,16,19.757v21.8a3.771,3.771,0,0,0,3.757,3.757h21.8a3.77,3.77,0,0,0,3.757-3.757v-21.8A3.77,3.77,0,0,0,41.554,16ZM26.075,30.155V39.2H22.106V27.785h3.969Zm-1.993-4.072a2,2,0,1,1,2-2A2,2,0,0,1,24.083,26.083ZM39.2,32.976V39.2h-3.42V33.658c0-1.328-.144-3.036-1.964-3.036-1.848,0-2.127,1.446-2.127,2.941V39.2H28.4V27.785h3.175v1.527H31.6a3.669,3.669,0,0,1,3.362-1.528c2.911,0,3.9,1.377,4.171,3.53a13.209,13.209,0,0,1,.089,1.661Z" transform="translate(-16 -16)" fill="#fff" fill-rule="evenodd"/>
</svg>
