<svg xmlns="http://www.w3.org/2000/svg" width="25.723" height="25.723" viewBox="0 0 25.723 25.723">
  <path id="Path_277" data-name="Path 277" d="M38.426,16H19.3A3.309,3.309,0,0,0,16,19.3V38.426a3.309,3.309,0,0,0,3.3,3.3H38.426a3.309,3.309,0,0,0,3.3-3.3V19.3A3.309,3.309,0,0,0,38.426,16ZM24.842,28.423v7.941H21.359V26.343h3.483Zm-1.749-3.574a1.755,1.755,0,1,1,1.756-1.755A1.756,1.756,0,0,1,23.094,24.849ZM36.364,30.9v5.466h-3V31.5c0-1.166-.126-2.665-1.724-2.665-1.622,0-1.867,1.269-1.867,2.581v4.952H26.879V26.343h2.787v1.34h.03a3.22,3.22,0,0,1,2.95-1.341c2.555,0,3.423,1.208,3.66,3.1a11.592,11.592,0,0,1,.078,1.458Z" transform="translate(-16 -16)" fill="#30c768" fill-rule="evenodd"/>
</svg>
