<svg xmlns="http://www.w3.org/2000/svg" width="65" height="65" viewBox="0 0 65 65">
  <g id="Group_1404" data-name="Group 1404" transform="translate(0.462 0.533)">
    <path id="Path_6319" data-name="Path 6319" d="M32.5,0A32.5,32.5,0,1,1,0,32.5,32.5,32.5,0,0,1,32.5,0Z" transform="translate(-0.462 -0.533)" fill="#30c768" opacity="0.7"/>
    <path id="Path_6321" data-name="Path 6321" d="M65.435,162.241a8,8,0,0,0-11.108,0l-3.368,3.285,1.089,1.072,3.368-3.294a6.416,6.416,0,0,1,8.913,0,6.063,6.063,0,0,1,0,8.7,6.416,6.416,0,0,1-8.913,0L45.4,162.241a8,8,0,0,0-11.109,0,7.535,7.535,0,0,0,0,10.831,8,8,0,0,0,11.109,0l3.358-3.285-1.088-1.063-3.368,3.285a6.416,6.416,0,0,1-8.913,0,6.063,6.063,0,0,1,0-8.7,6.416,6.416,0,0,1,8.913,0l10.011,9.768a8,8,0,0,0,11.108,0,7.527,7.527,0,0,0,.009-10.831Z" transform="translate(-17.462 -135.532)" fill="#fff"/>
  </g>
</svg>
