<svg xmlns="http://www.w3.org/2000/svg" width="19.2" height="24" viewBox="0 0 19.2 24">
  <path id="Path_254" data-name="Path 254" d="M13.735,2A9.6,9.6,0,0,0,4,11.466C4,18,12.837,25.54,13.213,25.858a.6.6,0,0,0,.773,0C14.363,25.54,23.2,18,23.2,11.466A9.6,9.6,0,0,0,13.735,2ZM13.6,24.6c-1.7-1.526-8.4-7.881-8.4-13.134a8.4,8.4,0,0,1,16.8,0C22,16.715,15.3,23.073,13.6,24.6ZM13.6,8a3.6,3.6,0,1,0,3.6,3.6A3.6,3.6,0,0,0,13.6,8Zm0,6A2.4,2.4,0,1,1,16,11.6,2.4,2.4,0,0,1,13.6,14Z" transform="translate(-4 -2)" fill="#fff"/>
</svg>
