<svg xmlns="http://www.w3.org/2000/svg" width="73" height="73" viewBox="0 0 73 73">
  <g id="Group_51588" data-name="Group 51588" transform="translate(-1353 -659)">
    <circle id="Ellipse_1713" data-name="Ellipse 1713" cx="36.5" cy="36.5" r="36.5" transform="translate(1353 659)" fill="#e5d9fc"/>
    <path id="Path_42238" data-name="Path 42238" d="M17.163,18.455a4.936,4.936,0,1,0-4.936-4.936A4.942,4.942,0,0,0,17.163,18.455Zm0-8.227a3.291,3.291,0,1,1-3.291,3.291A3.295,3.295,0,0,1,17.163,10.228ZM29.5,33.263H4.823a.823.823,0,1,0,0,1.645H29.5a.823.823,0,1,0,0-1.645ZM16.582,29.225a.822.822,0,0,0,1.163,0l7.563-7.56v0h0a11.519,11.519,0,1,0-16.291,0Zm.582-25.574A9.867,9.867,0,0,1,24.145,20.5L17.163,27.48,10.182,20.5A9.868,9.868,0,0,1,17.163,3.651Z" transform="translate(1372 677.001)" fill="#7a39e9"/>
  </g>
</svg>
