<svg xmlns="http://www.w3.org/2000/svg" width="17.849" height="17.84" viewBox="0 0 17.849 17.84">
  <g id="Group_53760" data-name="Group 53760" transform="translate(-11.265 -11.08)">
    <path id="Path_44797" data-name="Path 44797" d="M20.177,32.18a8.6,8.6,0,0,1-5.946-14.8.421.421,0,0,1,.6.593,7.752,7.752,0,1,0,10.723,0,.421.421,0,1,1,.6-.593,8.6,8.6,0,0,1-5.972,14.8Z" transform="translate(0 -3.46)" fill="#ba363b" stroke="#ba363b" stroke-width="0.4"/>
    <path id="Path_44798" data-name="Path 44798" d="M31.421,20.841A.421.421,0,0,1,31,20.421V11.7a.421.421,0,1,1,.842,0v8.72A.421.421,0,0,1,31.421,20.841Z" transform="translate(-11.244 0)" fill="#ba363b" stroke="#ba363b" stroke-width="0.4"/>
  </g>
</svg>
