<svg xmlns="http://www.w3.org/2000/svg" width="20.734" height="15.034" viewBox="0 0 20.734 15.034">
  <path id="Path_258" data-name="Path 258" d="M35.587,82.7h-16.4a2.171,2.171,0,0,0-2.169,2.169v10.7a2.171,2.171,0,0,0,2.169,2.169h16.4a2.171,2.171,0,0,0,2.169-2.169v-10.7A2.171,2.171,0,0,0,35.587,82.7Zm-3.856,7.514,5.158-4.048v9.054Zm-12.54-6.647h16.4a1.3,1.3,0,0,1,1.3,1.3v.195l-8.346,6.551a1.734,1.734,0,0,1-2.136,0L17.89,85.062v-.193A1.3,1.3,0,0,1,19.191,83.568Zm4.01,6.674-5.311,5V86.156Zm12.386,6.625h-16.4a1.3,1.3,0,0,1-1.108-.619l5.814-5.47L25.874,92.3a2.6,2.6,0,0,0,3.2,0l1.966-1.543L36.7,96.244a1.3,1.3,0,0,1-1.11.623Z" transform="translate(-17.022 -82.7)" fill="#fff"/>
</svg>
