<svg xmlns="http://www.w3.org/2000/svg" width="73" height="73" viewBox="0 0 73 73">
  <g id="Group_51588" data-name="Group 51588" transform="translate(-1353 -659)">
    <circle id="Ellipse_1713" data-name="Ellipse 1713" cx="36.5" cy="36.5" r="36.5" transform="translate(1353 659)" fill="#d8e3f8"/>
    <g id="Group_51597" data-name="Group 51597" transform="translate(1363 668)">
      <path id="Path_42239" data-name="Path 42239" d="M13.063,14A5.07,5.07,0,0,0,8,19.063V35.938A5.07,5.07,0,0,0,13.063,41h27a5.07,5.07,0,0,0,5.063-5.062V19.063A5.07,5.07,0,0,0,40.063,14Zm0,1.688h27a3.35,3.35,0,0,1,3.375,3.375V35.938a3.35,3.35,0,0,1-3.375,3.375h-27a3.35,3.35,0,0,1-3.375-3.375V19.063A3.35,3.35,0,0,1,13.063,15.688Z" fill="#195ffd"/>
      <path id="Path_42240" data-name="Path 42240" d="M14.868,20a.844.844,0,0,0-.621,1.44L24.372,31.565a4.435,4.435,0,0,0,6.256,0L40.753,21.44a.844.844,0,0,0-1.193-1.193L29.435,30.372a2.724,2.724,0,0,1-3.869,0L15.44,20.247A.844.844,0,0,0,14.868,20Z" transform="translate(-0.938 -0.937)" fill="#195ffd"/>
    </g>
  </g>
</svg>
