<svg xmlns="http://www.w3.org/2000/svg" xmlns:xlink="http://www.w3.org/1999/xlink" width="64" height="75" viewBox="0 0 64 75">
  <defs>
    <clipPath id="clip-path">
      <rect id="Rectangle_20830" data-name="Rectangle 20830" width="64" height="75" transform="translate(166 666.643)" fill="#fff" stroke="#707070" stroke-width="1"/>
    </clipPath>
  </defs>
  <g id="Mask_Group_3" data-name="Mask Group 3" transform="translate(-166 -666.643)" clip-path="url(#clip-path)">
    <g id="Group_54550" data-name="Group 54550" transform="translate(152.286 660.143)">
      <path id="Polygon_4" data-name="Polygon 4" d="M51.422,0a3,3,0,0,1,2.59,1.485l15.96,27.286a3,3,0,0,1,0,3.029L54.012,59.086a3,3,0,0,1-2.59,1.485H19.435a3,3,0,0,1-2.59-1.485L.886,31.8a3,3,0,0,1,0-3.029L16.846,1.485A3,3,0,0,1,19.435,0Z" transform="translate(30 0.5) rotate(30)" fill="#6666ef"/>
      <g id="Group_53831" data-name="Group 53831" transform="translate(6.681 13.86)">
        <g id="Group_53839" data-name="Group 53839" transform="translate(21.034 11.64)">
          <path id="Path_44007" data-name="Path 44007" d="M59.376,28.836H30.1a.242.242,0,0,1-.165-.421L44.576,14.99a.24.24,0,0,1,.329,0l14.64,13.424a.249.249,0,0,1,.063.266A.254.254,0,0,1,59.376,28.836Zm-28.655-.484H58.756L44.741,15.5Z" transform="translate(-27.056 -13.335)" fill="#656d78"/>
          <path id="Path_44010" data-name="Path 44010" d="M48.636,36.788V59.554a2.527,2.527,0,0,1-2.528,2.528H14.128A2.527,2.527,0,0,1,11.6,59.554V36.788a2.527,2.527,0,0,1,2.528-2.528h31.98A2.527,2.527,0,0,1,48.636,36.788Z" transform="translate(-11.6 -25.714)" fill="#158ed8"/>
          <path id="Path_44011" data-name="Path 44011" d="M48.636,36.788V59.554a2.527,2.527,0,0,1-2.528,2.528H14.128A2.526,2.526,0,0,1,11.6,59.554V36.788a2.529,2.529,0,0,1,2.528-2.528h31.98a2.483,2.483,0,0,1,1.342.39A2.52,2.52,0,0,1,48.636,36.788Z" transform="translate(-11.6 -25.714)" fill="#158ed8"/>
          <path id="Path_44012" data-name="Path 44012" d="M50.231,37.468V60.234A2.527,2.527,0,0,1,47.7,62.762H15.722a2.526,2.526,0,0,1-1.612-.58L49.045,35.33A2.52,2.52,0,0,1,50.231,37.468Z" transform="translate(-13.194 -26.394)" fill="#015ed4"/>
          <circle id="Ellipse_2031" data-name="Ellipse 2031" cx="1.598" cy="1.598" r="1.598" transform="translate(16.087 0.237)" fill="#656d78"/>
          <path id="Path_44014" data-name="Path 44014" d="M58.64,15.319a1.84,1.84,0,1,1,1.84-1.84A1.842,1.842,0,0,1,58.64,15.319Zm0-3.2A1.356,1.356,0,1,0,60,13.475,1.356,1.356,0,0,0,58.64,12.119Z" transform="translate(-40.955 -11.64)" fill="#656d78"/>
          <path id="Path_44015" data-name="Path 44015" d="M50.927,44.419V62.687a1.686,1.686,0,0,1-1.685,1.685H21.755a1.6,1.6,0,0,1-.5-.077,1.682,1.682,0,0,1-1.189-1.609V44.419a1.687,1.687,0,0,1,1.685-1.689H49.242a.489.489,0,0,1,.073,0A1.684,1.684,0,0,1,50.927,44.419Z" transform="translate(-16.98 -31.095)" fill="#fff"/>
          <path id="Path_44018" data-name="Path 44018" d="M32.64,70.2a.338.338,0,0,1-.1-.248V68.9H30.189a.444.444,0,0,1-.317-.128.419.419,0,0,1-.131-.314v-.069a.423.423,0,0,1,.091-.277l2.422-3.093a.4.4,0,0,1,.164-.135.507.507,0,0,1,.219-.051h.153a.431.431,0,0,1,.449.449v2.991h.587a.311.311,0,0,1,.314.314.287.287,0,0,1-.091.219.311.311,0,0,1-.223.088h-.587v1.051a.323.323,0,0,1-.106.248.353.353,0,0,1-.252.1A.293.293,0,0,1,32.64,70.2ZM30.491,68.28h2.05V65.635Zm5.855,1.091a.292.292,0,0,1-.088-.212V67.893H34.993A.287.287,0,0,1,34.7,67.6a.294.294,0,0,1,.084-.215.289.289,0,0,1,.208-.084h1.266V66.037a.283.283,0,0,1,.088-.215.3.3,0,0,1,.212-.084.294.294,0,0,1,.215.084.3.3,0,0,1,.084.215V67.3h1.258a.294.294,0,0,1,.215.084.3.3,0,0,1,.084.215.287.287,0,0,1-.3.292H36.857v1.266a.3.3,0,0,1-.084.212.289.289,0,0,1-.215.088A.292.292,0,0,1,36.346,69.371Zm5.472.828a.338.338,0,0,1-.1-.248V68.9H39.367a.444.444,0,0,1-.317-.128.419.419,0,0,1-.131-.314v-.069a.423.423,0,0,1,.091-.277l2.422-3.093a.4.4,0,0,1,.164-.135.507.507,0,0,1,.219-.051h.153a.431.431,0,0,1,.449.449v2.991H43a.311.311,0,0,1,.314.314.287.287,0,0,1-.091.219.311.311,0,0,1-.223.088H42.42v1.051a.323.323,0,0,1-.106.248.353.353,0,0,1-.252.1A.292.292,0,0,1,41.818,70.2ZM39.666,68.28h2.05V65.635Zm4.552-1.222a.292.292,0,0,1-.088-.212.283.283,0,0,1,.088-.215.3.3,0,0,1,.212-.084h3.765a.294.294,0,0,1,.215.084.313.313,0,0,1,0,.427.289.289,0,0,1-.215.088H44.43A.3.3,0,0,1,44.218,67.058Zm0,1.725a.292.292,0,0,1-.088-.212.283.283,0,0,1,.088-.215.3.3,0,0,1,.212-.084h3.765a.294.294,0,0,1,.215.084.313.313,0,0,1,0,.427.289.289,0,0,1-.215.088H44.43A.284.284,0,0,1,44.218,68.783ZM50.3,70.115a1.547,1.547,0,0,1-.668-.562,1.356,1.356,0,0,1-.208-.719,1.464,1.464,0,0,1,1.149-1.459,1.417,1.417,0,0,1-.646-.427,1.107,1.107,0,0,1-.252-.744,1.334,1.334,0,0,1,.182-.657,1.387,1.387,0,0,1,.587-.536,2.642,2.642,0,0,1,2.072,0,1.387,1.387,0,0,1,.587.536,1.334,1.334,0,0,1,.182.657,1.107,1.107,0,0,1-.252.744,1.425,1.425,0,0,1-.642.427,1.462,1.462,0,0,1,1.149,1.459,1.356,1.356,0,0,1-.208.719,1.547,1.547,0,0,1-.668.562,3.26,3.26,0,0,1-2.367,0Zm1.966-.551a1.077,1.077,0,0,0,.441-.383.819.819,0,0,0,.135-.423.88.88,0,0,0-.394-.766,1.832,1.832,0,0,0-1.926,0,.88.88,0,0,0-.394.766.809.809,0,0,0,.135.423,1.089,1.089,0,0,0,.438.383,2.03,2.03,0,0,0,1.565,0Zm.055-2.736a.773.773,0,0,0,.266-.58.752.752,0,0,0-.281-.6,1.56,1.56,0,0,0-1.642,0,.752.752,0,0,0-.281.6.784.784,0,0,0,.266.58,1.186,1.186,0,0,0,.835.255A1.169,1.169,0,0,0,52.316,66.828Z" transform="translate(-23.123 -45.114)" fill="#656d78"/>
          <g id="Group_53831-2" data-name="Group 53831" transform="translate(5.202 13.401)">
            <path id="Path_44019" data-name="Path 44019" d="M33.134,47.935H26.042a.182.182,0,0,1,0-.365h7.091a.182.182,0,0,1,0,.365Z" transform="translate(-25.86 -47.57)" fill="#656d78"/>
          </g>
          <g id="Group_53832" data-name="Group 53832" transform="translate(5.202 15.086)">
            <path id="Path_44020" data-name="Path 44020" d="M30.044,52.555h-4a.182.182,0,0,1,0-.365h4a.182.182,0,0,1,0,.365Z" transform="translate(-25.86 -52.19)" fill="#656d78"/>
          </g>
          <g id="Group_53833" data-name="Group 53833" transform="translate(21.949 29.236)">
            <path id="Path_44021" data-name="Path 44021" d="M81.225,91.823v2.353a.841.841,0,0,1-.843.843h-7.77a.841.841,0,0,1-.843-.843V91.823a.841.841,0,0,1,.843-.843h7.773A.842.842,0,0,1,81.225,91.823Z" transform="translate(-71.77 -90.98)" fill="#ffc378"/>
          </g>
          <g id="Group_53835" data-name="Group 53835" transform="translate(22.284 29.353)">
            <path id="Path_44023" data-name="Path 44023" d="M81.813,92.03v2.353a.843.843,0,0,1-.843.843H73.2a.838.838,0,0,1-.507-.168l8.7-3.757A.833.833,0,0,1,81.813,92.03Z" transform="translate(-72.69 -91.3)" fill="#ffab41"/>
          </g>
        </g>
      </g>
    </g>
  </g>
</svg>
