<svg xmlns="http://www.w3.org/2000/svg" width="26.359" height="33.591" viewBox="0 0 26.359 33.591">
  <g id="Group_53722" data-name="Group 53722" transform="translate(-2.646 -1.057)">
    <path id="Path_44780" data-name="Path 44780" d="M11.614,286.416a1.208,1.208,0,0,1,1.2,1.2,2.575,2.575,0,0,1-.462,1.567,2.205,2.205,0,0,1-1.639.811,5.452,5.452,0,0,0,.3-1.782l0-1.615A1.164,1.164,0,0,1,11.614,286.416Z" transform="translate(10.2 -273.375)" fill="#fff"/>
    <path id="Path_44781" data-name="Path 44781" d="M6.49,286.417a1.163,1.163,0,0,1,.6.186l0,1.608s0,0,0,.007a5.345,5.345,0,0,0,.3,1.782,2.182,2.182,0,0,1-1.635-.815,2.6,2.6,0,0,1-.464-1.569,1.208,1.208,0,0,1,1.2-1.2Z" transform="translate(3.344 -273.377)" fill="#fff"/>
    <path id="Path_44782" data-name="Path 44782" d="M14.14,10.318l-3,3,1.8,1.8,3-3Zm-5.992,0,2.994,3-1.8,1.8-2.994-3Z" transform="translate(4.684 11.71)" fill="#fff"/>
    <path id="Path_44784" data-name="Path 44784" d="M15.825,281.124a8.385,8.385,0,0,0-8.39,8.392,8.858,8.858,0,0,0,.906,3.8,1.778,1.778,0,0,0-.3.987,3.168,3.168,0,0,0,.584,1.929,2.706,2.706,0,0,0,1.669,1,6,6,0,0,0,1.938,2.475v2.142l-1.445,1.44H8.038a5.4,5.4,0,0,0-5.392,5.4v5.389a.6.6,0,1,0,1.2,0v-5.389a4.173,4.173,0,0,1,4.189-4.2H10.78l2.824,2.822a.6.6,0,0,0,.847,0l1.375-1.372,1.375,1.372a.6.6,0,0,0,.847,0l2.824-2.822h2.742a4.176,4.176,0,0,1,4.194,4.2v5.389a.6.6,0,1,0,1.2,0v-5.389a5.4,5.4,0,0,0-5.389-5.4H20.866l-1.445-1.44v-2.144a6,6,0,0,0,1.934-2.475,2.706,2.706,0,0,0,1.673-.992,3.177,3.177,0,0,0,.586-1.932,1.779,1.779,0,0,0-.3-.99,8.868,8.868,0,0,0,.9-3.8,8.388,8.388,0,0,0-8.39-8.39Zm0,1.2a7.165,7.165,0,0,1,7.192,7.192,7.585,7.585,0,0,1-.693,3.077,1.76,1.76,0,0,0-.5-.084l0-1.182a.6.6,0,0,0-.679-.6,2.971,2.971,0,0,1-2.91-2.989.6.6,0,1,0-1.2,0,2.974,2.974,0,0,1-2.994,2.994H10.443a.6.6,0,0,0-.6.6l0,1.187a1.747,1.747,0,0,0-.51.084,7.593,7.593,0,0,1-.693-3.08,7.162,7.162,0,0,1,7.192-7.19Zm1.812,7.563a4.2,4.2,0,0,0,2.989,1.988l0,3.043v0a4.8,4.8,0,1,1-9.59,0l.009-3h3.007l.079,0a4.189,4.189,0,0,0,3.51-2.036Zm-7.8,3.818,0,1.211a6.2,6.2,0,0,0,.072.9,1.34,1.34,0,0,1-.322-.3,2.033,2.033,0,0,1-.344-1.211A.585.585,0,0,1,9.833,293.705Zm11.988,0a.586.586,0,0,1,.6.6,2.038,2.038,0,0,1-.346,1.211,1.343,1.343,0,0,1-.326.3,6.142,6.142,0,0,0,.072-.9Zm-3.6,6.7v1.44l-2.4,2.394-2.4-2.394v-1.44a5.976,5.976,0,0,0,4.8,0Zm-5.389,2.532,2.144,2.151-.947.951-2.151-2.151Zm5.987,0,.951.951-2.151,2.151-.944-.951Z" transform="translate(0 -280.067)" fill="#fff"/>
  </g>
</svg>
