<?xml version="1.0" encoding="UTF-8"?><svg id="Layer_1" xmlns="http://www.w3.org/2000/svg" xmlns:xlink="http://www.w3.org/1999/xlink" viewBox="0 0 4902.01 1377"><defs><style>.cls-1{fill:#001343;}.cls-2{fill:#044783;}.cls-3{fill:url(#linear-gradient);}.cls-4{fill:#079848;}</style><linearGradient id="linear-gradient" x1="239.73" y1="472.29" x2="1340.88" y2="472.29" gradientUnits="userSpaceOnUse"><stop offset="0" stop-color="#00b350"/><stop offset=".02" stop-color="#00b350"/><stop offset="1" stop-color="#00d45e"/></linearGradient></defs><path class="cls-2" d="M1070.69,215.47c27.63-59.98,66.32-108.93,128-132.32,42.87-16.26,95.78,3.45,124.83,43.42,7.83,10.78,15.74,21.49,23.62,32.24,28.83,128.81,10.45,256.52-10.22,383.64-23.21,142.68-74.81,275.46-137.96,403.46-21.54,43.66-47.97,84.24-83.13,117.73-37.48,35.7-80.52,58.5-132.1,59.76-110.03,2.69-172.41-79.89-145.63-191.43,11.11-46.28,36-85.15,59.57-124.66,47.85-80.21,102.97-155.51,147.49-237.99,36.66-67.92,65.14-139.06,75.33-216.8,7.14-54.5.26-104.64-49.8-137.04Z"/><path class="cls-1" d="M1102.52,245.54s.04-.1.06-.15c3.22-7.64,18.97-43.5,59.63-76.11,17.27-13.85,33.25-28.03,55.11-32.72,70.49-15.13,135.39,50.38,135.39,50.38-.9-8.91-2.96-21.39-8.07-35.51-3.58-9.9-13.47-37.22-37.76-57.57-46.33-38.83-109.42-22.83-118.48-19.98-37.43,11.78-49.29,25.07-58.97,38.3-4.84,6.61-9.36,12.04-13.43,16.57-9.14,10.15-16.3,16.72-18.78,19.03-8.62,8.05-19.02,25.63-26.11,67.93,3.51,2.18,7.22,4.77,11.01,7.84,9.14,7.43,15.75,15.3,20.42,21.97Z"/><path class="cls-2" d="M245.99,280.96c4.99-2.43,12.52-6.04,21.77-10.28,8.33-3.82,16.55-7.44,19.11-8.51,13.02-5.45,43.81-14.09,66.52-2.66,15.4,7.76,27.59,22.51,34.71,44.16,20.99,63.81,16.91,129.69,7,195.28-31.76,7.81-48.53,33.39-63.01,60.29-32.18,59.8-50.92,125.49-74.09,189.24-11.97,32.95-23.68,66.19-38.44,97.8-19.24,41.22-49.57,70.41-96.04,71.26-45.83.84-74.56-29.05-94.6-67.93-46.36-89.94-32.61-178.51,10.36-264.6,55.49-111.17,123.62-213.23,206.71-304.07Z"/><path class="cls-1" d="M239.88,287.69c6.94-2.89,41.41-16.45,70.19.71,3.39,2.02,15.02,9.78,28.35,35.13,8.98,17.07,18.41,42.65,20.46,94.52,2.6,65.67,2.98,99.13,2.98,99.13,4.36-3.57,9.98-7.56,16.9-11.25,5.96-3.17,11.53-5.39,16.34-6.97,1.72-7.88,3.49-15.86,5.42-23.91,2.66-11.1,5.31-21.86,5.31-21.86,0,0,2.03-56.96-.48-91.99-2.68-37.42-5.65-91.26-40.07-111.16-35.53-20.54-91.25,2.53-119.53,31.2-2.55,2.58-4.53,4.86-5.86,6.46Z"/><path class="cls-2" d="M2034.58,307.16c-30.09,129.74-59.48,255.73-88.3,381.86-3.21,14.05-9.98,17.44-22.79,16.87-22.82-1.02-45.72-.29-72.25-.29,16-66.64,31.43-130.92,48.37-201.45-24.89,18.64-33.9,42.03-47.68,61.09-21.68,29.99-43.14,60.36-62.11,92.24-14.93,25.08-30.37,19.99-47.94,6.23-13.77-10.78-20.28-25.78-23.3-43.53-7.18-42.15-15.54-84.07-29.44-125.86-14.13,60.28-29.41,120.3-41.83,180.96-5.08,24.8-15.5,31.67-39.13,30.97-59.81-1.78-59.89-.51-45.87-60.85,21.61-92.97,43.22-185.95,64.98-278.89,12.1-51.66,59.84-77.86,106.51-59.04,11.96,4.82,10.49,16.14,12.26,25.59,11.48,61.39,22.57,122.86,35.11,191.48,23.22-33.38,43.44-62.22,63.43-91.24,23.58-34.23,47.86-68,70.06-103.19,10.79-17.1,22.6-24.94,42.62-23.42,24.8,1.88,49.83.45,77.31.45Z"/><path class="cls-3" d="M245.99,280.96c24.4-25.56,44.65-55.18,73.54-76.38,62.54-45.87,114.52-35.72,153.93,33.05,29.92,52.19,45.7,110.67,65,167.52,14.2,41.82,26.46,84.53,50.89,121.62,38.14,57.91,81.84,62.88,131.09,14.73,36.29-35.47,62.22-79.23,87.81-123.02,59.7-102.17,113.74-208.1,184.88-302.61,20.29-26.96,43.09-51.55,69.31-72.42,114.24-90.9,257.47-32.85,284.7,115.36-7.88-10.75-15.79-21.46-23.62-32.24-29.05-39.98-81.96-59.68-124.83-43.42-61.68,23.4-100.37,72.34-128,132.32-13.15,3.06-19.99,13.91-24.69,25.09-53.28,126.68-105.38,253.9-159.26,380.29-30.12,70.66-62.23,140.47-104.37,204.54-16.06,24.41-33.21,47.83-55.26,66.96-83.95,72.83-176.2,69.37-255.21-9.66-56.55-56.56-75.82-129.49-82.82-207.39-4.4-48.99.93-97.76,6.33-146.44,1.09-9.8,5.68-20.03-.3-29.9,9.91-65.59,13.99-131.47-7-195.28-7.12-21.65-19.31-36.4-34.71-44.16-27.47-13.83-64.31,1.74-66.52,2.65-3.11,1.29-14.21,6.19-26.38,11.88-6.2,2.9-11.24,5.33-14.5,6.91Z"/><path class="cls-4" d="M4320.45,576.97c24.23,43.21,46.5,82.92,71.86,128.15-34.91,0-65.71-.08-96.52.04-11.68.05-12.94-11-17.13-18.02-17.86-29.92-37.58-59.11-51.46-91.02-13.21-30.38-36.01-19.17-55.78-19.9-19.02-.71-15.41,17.89-18.46,30.03-3.03,12.07-4.51,24.66-8.54,36.33-6.92,20.04-1.87,52.39-18.04,58.78-23.98,9.49-53.58,3.7-80.79,4.01-15.47.18-10.6-11.92-8.86-19.49,24.09-104.68,47.63-209.53,73.57-313.72,10.8-43.37,41.5-66.16,84.34-66.91,60.08-1.05,120.2-1.32,180.27.02,63.12,1.41,95.49,47.81,80.87,113.19-5.92,26.46-11.73,52.96-18.18,79.29-14.22,58.07-37.06,76.82-93.83,77.91-6.16.12-12.32.67-23.33,1.3ZM4267.97,480.84c10.88,0,21.76,0,32.63,0,54,.01,56.43-2.87,63.84-58.53,2.37-17.79-1.4-25.34-19.46-25.04-40.24.65-80.49.31-120.74,0-10.52-.08-18.75,1.89-23.72,13.21-24.23,55.14-15.44,70.31,41.34,70.33,8.7,0,17.4,0,26.11.03Z"/><path class="cls-4" d="M4770.69,505.27c12.55-55.13,27.51-109.52,36.51-164.96,4.75-29.25,15.03-36.97,42.08-36.1,58.92,1.91,58.93.41,45.34,59.03-24.02,103.62-49.03,207.01-71.23,311.06-5.44,25.48-14.84,34.14-38.8,31.63-19.36-2.03-39.08-.41-65.25-.41,35.92-59.01,6.84-97.39-28.59-136.89-38.67-43.12-73.35-90.14-113.59-140.21-17.31,73.56-33.95,141.74-49.3,210.24-16.4,73.19-15.83,72.7-88.78,67.36-15.69-1.15-18.63-6.81-15.38-20.71,24.2-103.53,47.93-207.18,72.84-310.52,4.5-18.69,15.18-35.06,29.22-48.55,31.26-30.04,71.49-28.26,99.03,5.27,46.86,57.05,93.42,114.36,140.16,171.51.62.75,2,.82,5.73,2.24Z"/><path class="cls-4" d="M4080.39,308.5c-29.33,127.98-57.93,252.43-86.28,376.95-3.58,15.73-11.64,20.29-27.31,20.55-72.3,1.16-72.17,1.82-54.98-70.03,16.56-69.2,32.4-138.6,49.47-207.66,5.54-22.41,2.72-32.84-22.87-31.35-34.83,2.03-69.88,1.42-104.77.12-18.76-.7-28.94,5.23-30.36,25.66-.62,8.95-3.38,17.74-5.29,26.58q-12.45,57.62,42.49,57.63c5.46,0,10.92,0,16.38,0,63.12,0,62.5-.15,47.31,64.78-4.45,19.02-12.49,25.8-31.28,24.67-28.29-1.71-56.77.29-85.13-.74-17.44-.63-29.97,1.98-29.96,24.27,0,6.56-3.41,13.06-4.77,19.7-14.66,71.5-18.82,74.08-89.8,66.32-14.08-1.54-16.38-6.86-13.48-19.09,24.71-104.38,48.15-209.12,74.58-313.02,12.12-47.63,39.36-65.28,86.84-65.31,88.38-.04,176.76-.01,269.2-.01Z"/><path class="cls-4" d="M3627.84,616.55q-18.55,88.94-99.77,88.93c-47,0-93.99.16-140.99-.08-61.1-.3-97.8-46.08-84.4-107.77,15.62-71.88,32.57-143.48,50.5-214.77,13.8-54.85,39.92-74.3,94-74.33,76.5-.05,153.02.62,229.5-.59,20.15-.32,22.15,5.27,17.96,24.43-14.21,64.9-13.44,65.08-78.06,65.08-49.18,0-98.36-.24-147.54.12-21.15.15-44.28,35.63-36.59,55.28,4,10.22,12.88,6.06,19.62,6.14,37.15.43,74.33.73,111.47-.03,16.32-.33,19.12,3.16,15.23,21.25-14.56,67.74-13.54,67.98-79.26,67.95-24.04-.01-48.09.11-72.13-.06-11.58-.08-18.96.93-22.62,16.83-11.54,50.17-11.46,51.62,37.64,51.62,61.11,0,122.22,0,185.42,0Z"/><path class="cls-2" d="M2598.62,397.36c-.39-4.63-1.02-6.86-.7-8.93q12.73-80.05,89.68-80.04c87.27,0,174.54,0,261.5,0,.84,3.72,2.03,5.91,1.63,7.71-18.06,81.34-18.15,83.42-98.3,80.36-33.52-1.28-46.36,8.13-53.3,43.13-15.9,80.15-38.06,158.92-55.72,238.72-4.91,22.18-13.45,30.06-34.88,27.76-19.34-2.07-39.04-.44-61.39-.44,22.09-93.03,42.17-183.74,65.76-273.45,7.96-30.27,1.9-37.51-26.56-35.33-29.16,2.24-58.61.5-87.72.5Z"/><path class="cls-2" d="M2260.14,705.67c22.55-94.88,43.58-186.66,66.58-277.91,5.92-23.49,4.08-33.77-21.72-30.67-14.01,1.68-28.4,1.08-42.53.09-16.98-1.19-45.73,7.68-48.62-4.13-6.25-25.54,8.19-52.69,15.02-78.91,1.95-7.47,11.02-5.75,17.4-5.76,105.74-.06,211.48-.04,317.6-.04-15.15,89.05-15.22,91.16-96.72,88.07-34.52-1.31-48.28,8.8-55.42,44.64-15.3,76.77-37.07,152.11-53.63,228.64-5.92,27.39-16.69,39.52-43.88,36.32-16.11-1.89-32.59-.35-54.1-.35Z"/><path class="cls-4" d="M3263.58,616.48q-13.75,89-96.12,89c-49.19,0-98.38.13-147.57-.05-60.78-.23-97.74-46.29-84.51-107.95,15.91-74.12,33.49-147.86,51.22-221.53,10.54-43.81,42.59-67.24,86.42-67.69,19.13-.19,26.56,1,20.27,25.91-20.78,82.25-36.73,165.84-57.45,248.11-7.83,31.07,2.7,35,27.94,34.57,65.51-1.12,131.05-.38,199.8-.38Z"/><path class="cls-2" d="M2000.91,705.63c25.99-111.93,50.32-220.34,76.6-328.24,11.43-46.91,44.61-71.79,84.82-70.56,13.38.41,20.48,2.53,16.62,19.07-28.37,121.54-56.61,243.12-84.02,364.89-3.13,13.92-10.17,15.03-20.68,14.91-22.83-.25-45.67-.08-73.34-.08Z"/><path d="M2515.75,1256.82c1.27-.43,2.5-.34,3.69.25,1.18.59,1.99,1.53,2.42,2.8.42,1.27.38,2.58-.13,3.94-3.05,5.76-5.68,9.83-7.88,12.21-2.21,2.37-4.67,3.14-7.38,2.29-2.21-.68-3.73-2.16-4.58-4.45-.85-2.29-1.11-7.17-.76-14.62.34-7.46,1.23-16.87,2.67-28.23,1.44-11.36,3.77-27.81,7-49.34,3.05-21.53,5.42-38.24,7.12-50.11,1.69-11.87,3.35-26.07,4.96-42.6,1.61-16.53,2.25-29.54,1.91-39.04-.51-20.35-4.83-31.03-12.97-32.05-6.95-1.02-16.87,4.83-29.76,17.55-12.89,12.72-27.3,32.98-43.24,60.79-36.46,63.08-68.76,144.81-96.91,245.19-.17,0-.25.08-.25.25-.68,2.03-1.23,3.52-1.65,4.45-.42.93-.98,2.03-1.65,3.31-.68,1.27-1.44,2.2-2.29,2.8-.85.59-1.78.89-2.8.89-.51,0-1.11-.17-1.78-.51-2.21-.68-3.43-2.54-3.69-5.6-.25-3.05.13-7.63,1.14-13.73,1.36-8.48,3.56-20.69,6.61-36.63,5.25-27.47,13.05-64.95,23.4-112.42,17.97-82.57,32.72-148.03,44.26-196.35,2.04-8.81,3.14-16.19,3.31-22.13.17-5.93-.13-9.71-.89-11.32-.76-1.61-1.57-2.75-2.42-3.43-1.87-1.02-4.96-.76-9.28.76-4.32,1.53-9.71,4.83-16.15,9.92-11.87,9.16-24.42,21.83-37.64,38.02-13.23,16.2-25.05,33.03-35.48,50.49-10.43,17.47-18.27,34.76-23.53,51.89-5.26,17.13-6.19,30.78-2.8,40.95,4.41,13.06,16.45,19.76,36.12,20.09,1.36,0,2.5.51,3.43,1.53.93,1.02,1.4,2.21,1.4,3.56s-.47,2.5-1.4,3.43c-.93.93-2.08,1.4-3.43,1.4-24.42-.51-39.59-9.5-45.53-26.96-1.53-4.75-2.33-10.09-2.42-16.02-.08-5.93.55-11.99,1.91-18.19,1.36-6.19,3.05-12.33,5.09-18.44,2.03-6.1,4.49-12.21,7.38-18.31,2.88-6.1,5.55-11.57,8.01-16.41,2.46-4.83,5.13-9.54,8.01-14.12,10.68-18.31,22.85-35.69,36.5-52.14,13.65-16.44,26.41-29.33,38.28-38.66,16.28-12.55,28.49-16.19,36.63-10.94,8.99,5.77,10.43,21.54,4.32,47.31-7.29,31.03-18.19,79.15-32.68,144.34-14.5,65.2-25.65,117.46-33.45,156.8,11.19-35.44,23.1-68.63,35.74-99.58,12.63-30.94,24.97-57.69,37.01-80.25,12.04-22.55,23.82-41.88,35.35-57.99,11.53-16.11,22.25-27.93,32.17-35.48,9.92-7.54,18.69-10.89,26.33-10.05,13.73,1.87,20.94,15.77,21.62,41.71.17,9.67-.55,22.89-2.16,39.68-1.61,16.79-3.22,31.16-4.83,43.11-1.61,11.95-4.03,28.78-7.25,50.49-6.28,43.58-9.5,70.45-9.67,80.63.67-1.36,1.44-2.8,2.29-4.32.51-1.19,1.4-2,2.67-2.42Z"/><path d="M2649.92,1140.33c1.36-.25,2.58-.04,3.69.64,1.1.68,1.82,1.7,2.16,3.05.34,1.36.17,2.54-.51,3.56-2.04,3.22-4.24,6.66-6.61,10.3-2.38,3.65-5.89,8.61-10.56,14.88-4.67,6.28-9.12,11.74-13.35,16.41-4.24,4.67-8.82,8.78-13.74,12.34-4.92,3.56-9.16,5.34-12.72,5.34-1.36,0-2.54-.25-3.56-.76-8.14-3.05-10.43-16.02-6.87-38.92-5.59,7.63-10.68,13.4-15.26,17.3-6.61,5.6-12.38,6.28-17.29,2.03-4.58-3.73-6.65-10.34-6.23-19.84.42-9.49,3.18-18.65,8.27-27.47.68-1.18,1.69-1.95,3.05-2.29,1.36-.34,2.63-.17,3.82.51,1.18.68,1.95,1.65,2.29,2.92.34,1.27.17,2.5-.51,3.69-2.89,4.75-4.88,9.75-5.98,15.01-1.1,5.26-1.44,9.62-1.02,13.1.42,3.48,1.23,5.72,2.42,6.74.85.85,2.46.25,4.83-1.78,4.41-3.73,9.92-10.43,16.53-20.09,1.18-1.53,2.08-2.67,2.67-3.43.59-.76,1.31-1.69,2.16-2.8.85-1.1,1.53-1.82,2.04-2.16.51-.34,1.1-.72,1.78-1.14.68-.42,1.35-.59,2.03-.51.68.09,1.44.3,2.29.64,2.2.85,3.39,2.76,3.56,5.72.17,2.97-.25,6.83-1.27,11.57-1.87,9.33-2.59,16.45-2.16,21.37.42,4.92.8,7.93,1.14,9.03.34,1.1.76,1.65,1.27,1.65.51.34,1.4.21,2.67-.38,1.27-.6,2.8-1.57,4.58-2.92,1.78-1.36,3.77-3.09,5.98-5.21,2.2-2.12,4.71-4.71,7.5-7.76,2.8-3.05,5.63-6.4,8.52-10.05,2.88-3.64,6.02-7.88,9.41-12.72,3.39-4.83,6.7-9.96,9.92-15.39.68-1.18,1.69-1.91,3.05-2.16Z"/><path d="M2749.75,1138.04c1.27-.42,2.5-.34,3.69.25,1.18.6,2.04,1.53,2.54,2.8.51,1.27.42,2.5-.25,3.69-4.58,9.84-9.75,19.93-15.51,30.27-5.77,10.34-12.08,20.82-18.95,31.41-6.87,10.59-13.7,19.24-20.47,25.94-6.78,6.7-12.55,10.05-17.3,10.05-1.19,0-2.29-.25-3.31-.76-6.95-2.71-9.16-13.23-6.61-31.54,2.37-17.12,8.65-41.37,18.82-72.74-.17,0-.3.04-.38.13s-.21.13-.38.13c-3.73,2.54-6.83,4.5-9.28,5.85-2.46,1.36-5.77,2.89-9.92,4.58-4.16,1.7-8.1,2.46-11.83,2.29-3.73-.17-7.21-1.35-10.43-3.56-6.45-4.58-9.75-10.94-9.92-19.08-.17-8.14,2.88-17.04,9.16-26.71,3.9-6.1,8.6-11.45,14.12-16.02,5.51-4.58,10.21-5.6,14.12-3.05,2.37,1.36,3.77,3.56,4.2,6.61.42,3.05-1.06,8.95-4.45,17.68-3.39,8.74-9.07,20.14-17.04,34.21,5.25.68,13.9-2.96,25.94-10.94,2.2-1.53,3.86-2.58,4.96-3.18,1.1-.59,2.37-1.23,3.82-1.91,1.44-.68,2.67-.93,3.69-.76,1.02.17,2.04.6,3.05,1.27,2.54,2.04,2.96,5.6,1.27,10.68-16.96,52.57-23.65,84.44-20.09,95.63.34.67.59,1.18.76,1.53,1.35.17,3.43-.93,6.23-3.31,2.8-2.38,6.27-6.1,10.43-11.19,4.15-5.09,8.65-11.19,13.48-18.31,4.83-7.12,10.17-15.85,16.02-26.2,5.85-10.34,11.49-21.37,16.91-33.07.68-1.35,1.65-2.25,2.92-2.67ZM2650.93,1120.87c-1.53,5.94-1.19,10.68,1.02,14.24,12.38-21.53,18.99-36.12,19.84-43.75-2.04,1.19-4.37,3.14-7,5.85-2.63,2.71-5.34,6.23-8.14,10.56s-4.71,8.69-5.72,13.1Z"/><path d="M2956.4,1045.84c.85,1.02,1.18,2.21,1.02,3.56-.17,1.36-.85,2.46-2.04,3.31-2.03,1.36-3.99,1.27-5.85-.25-8.14-2.88-65.28-3.14-171.43-.76-11.02,46.29-22.22,96.48-33.57,150.57-13.56,65.28-21.79,110.13-24.67,134.55.34,0,.68.08,1.02.25,1.36.34,2.29,1.14,2.8,2.42.51,1.27.51,2.5,0,3.69-.85,2.71-1.57,4.71-2.16,5.98-.59,1.27-1.48,2.54-2.67,3.82-1.18,1.27-2.46,1.91-3.82,1.91-.51,0-1.1-.09-1.78-.25-2.2-.68-3.52-2.46-3.94-5.34-.42-2.88-.21-6.78.64-11.7.68-7.12,2.21-17.38,4.58-30.78,4.24-25.43,10.6-58.5,19.08-99.19,11.36-54.94,22.8-106.83,34.34-155.66-11.53.17-25.86.51-42.98,1.02-27.13.68-43.07,1.02-47.82,1.02-1.36,0-2.5-.46-3.43-1.4-.93-.93-1.4-2.07-1.4-3.43,0-.85.21-1.65.64-2.42.42-.76,1.02-1.36,1.78-1.78.76-.42,1.57-.64,2.42-.64,4.75,0,20.6-.42,47.56-1.27,16.79-.34,32.05-.68,45.78-1.02,5.42-22.38,10.26-41.37,14.5-56.97.34-1.35,1.1-2.37,2.29-3.05,1.18-.68,2.42-.85,3.69-.51,1.27.34,2.25,1.1,2.93,2.29.67,1.19.85,2.46.51,3.82-4.07,15.09-8.74,33.15-13.99,54.17,50.87-1.35,89.28-1.86,115.22-1.53,25.94.34,42.26.89,48.96,1.65,6.7.76,10.64,2.08,11.83,3.94Z"/><path d="M2873.23,1140.33c1.36-.25,2.58-.04,3.69.64,1.1.68,1.82,1.7,2.16,3.05.34,1.36.17,2.54-.51,3.56-2.04,3.22-4.24,6.66-6.61,10.3-2.38,3.65-5.89,8.61-10.56,14.88-4.67,6.28-9.12,11.74-13.35,16.41-4.24,4.67-8.82,8.78-13.74,12.34-4.92,3.56-9.16,5.34-12.72,5.34-1.36,0-2.54-.25-3.56-.76-8.14-3.05-10.43-16.02-6.87-38.92-5.59,7.63-10.68,13.4-15.26,17.3-6.61,5.6-12.38,6.28-17.29,2.03-4.58-3.73-6.65-10.34-6.23-19.84.42-9.49,3.18-18.65,8.27-27.47.68-1.18,1.69-1.95,3.05-2.29,1.36-.34,2.63-.17,3.82.51,1.18.68,1.95,1.65,2.29,2.92.34,1.27.17,2.5-.51,3.69-2.89,4.75-4.88,9.75-5.98,15.01-1.1,5.26-1.44,9.62-1.02,13.1.42,3.48,1.23,5.72,2.42,6.74.85.85,2.46.25,4.83-1.78,4.41-3.73,9.92-10.43,16.53-20.09,1.18-1.53,2.08-2.67,2.67-3.43.59-.76,1.31-1.69,2.16-2.8.85-1.1,1.53-1.82,2.04-2.16.51-.34,1.1-.72,1.78-1.14.68-.42,1.35-.59,2.03-.51.68.09,1.44.3,2.29.64,2.2.85,3.39,2.76,3.56,5.72.17,2.97-.25,6.83-1.27,11.57-1.87,9.33-2.59,16.45-2.16,21.37.42,4.92.8,7.93,1.14,9.03.34,1.1.76,1.65,1.27,1.65.51.34,1.4.21,2.67-.38,1.27-.6,2.8-1.57,4.58-2.92,1.78-1.36,3.77-3.09,5.98-5.21,2.2-2.12,4.71-4.71,7.5-7.76,2.8-3.05,5.63-6.4,8.52-10.05,2.88-3.64,6.02-7.88,9.41-12.72,3.39-4.83,6.7-9.96,9.92-15.39.68-1.18,1.69-1.91,3.05-2.16Z"/><path d="M2973.06,1138.04c1.27-.42,2.5-.34,3.69.25,1.18.6,2.04,1.53,2.54,2.8.51,1.27.42,2.5-.25,3.69-4.58,9.84-9.75,19.93-15.51,30.27-5.77,10.34-12.08,20.82-18.95,31.41-6.87,10.59-13.7,19.24-20.47,25.94-6.78,6.7-12.55,10.05-17.3,10.05-1.19,0-2.29-.25-3.31-.76-6.95-2.71-9.16-13.23-6.61-31.54,2.37-17.12,8.65-41.37,18.82-72.74-.17,0-.3.04-.38.13s-.21.13-.38.13c-3.73,2.54-6.83,4.5-9.28,5.85-2.46,1.36-5.77,2.89-9.92,4.58-4.16,1.7-8.1,2.46-11.83,2.29-3.73-.17-7.21-1.35-10.43-3.56-6.45-4.58-9.75-10.94-9.92-19.08-.17-8.14,2.88-17.04,9.16-26.71,3.9-6.1,8.6-11.45,14.12-16.02,5.51-4.58,10.21-5.6,14.12-3.05,2.37,1.36,3.77,3.56,4.2,6.61.42,3.05-1.06,8.95-4.45,17.68-3.39,8.74-9.07,20.14-17.04,34.21,5.25.68,13.9-2.96,25.94-10.94,2.2-1.53,3.86-2.58,4.96-3.18,1.1-.59,2.37-1.23,3.82-1.91,1.44-.68,2.67-.93,3.69-.76,1.02.17,2.04.6,3.05,1.27,2.54,2.04,2.96,5.6,1.27,10.68-16.96,52.57-23.65,84.44-20.09,95.63.34.67.59,1.18.76,1.53,1.35.17,3.43-.93,6.23-3.31,2.8-2.38,6.27-6.1,10.43-11.19,4.15-5.09,8.65-11.19,13.48-18.31,4.83-7.12,10.17-15.85,16.02-26.2,5.85-10.34,11.49-21.37,16.91-33.07.68-1.35,1.65-2.25,2.92-2.67ZM2874.24,1120.87c-1.53,5.94-1.19,10.68,1.02,14.24,12.38-21.53,18.99-36.12,19.84-43.75-2.04,1.19-4.37,3.14-7,5.85-2.63,2.71-5.34,6.23-8.14,10.56s-4.71,8.69-5.72,13.1Z"/><path d="M3048.97,1138.3c1.36-.25,2.58,0,3.69.76,1.1.76,1.74,1.82,1.91,3.18.17,1.36-.09,2.54-.76,3.56-19.16,26.79-36.63,45.78-52.4,56.97-6.28,4.41-12.46,6.61-18.57,6.61-4.75,0-8.9-1.27-12.46-3.82-2.03-1.53-3.86-3.56-5.47-6.1-1.61-2.54-3.01-6.1-4.2-10.68-1.18-4.58-1.4-10.59-.64-18.06.76-7.46,2.67-15.94,5.72-25.43v-.25c4.75-15.43,10.51-27.64,17.3-36.63,6.78-8.99,12.88-13.56,18.31-13.73,3.9-.17,6.44,1.53,7.63,5.09,1.86,4.92-.34,11.87-6.61,20.86-6.28,8.99-15.52,18.65-27.72,29-2.04,6.61-3.48,12.72-4.32,18.31-.85,5.59-1.14,10.05-.89,13.35.25,3.31.85,6.19,1.78,8.65.93,2.46,1.78,4.2,2.54,5.21.76,1.02,1.57,1.86,2.42,2.54,5.09,3.73,11.61,2.71,19.58-3.05,14.92-10.51,31.54-28.65,49.85-54.43.85-1.02,1.95-1.65,3.31-1.91ZM2999.63,1105.36c-5.94,3.73-11.79,11.79-17.55,24.16,9.83-9.83,15.68-17.89,17.55-24.16Z"/><path d="M3362.45,1118.33c1.27.51,2.16,1.36,2.67,2.54.51,1.19.51,2.42,0,3.69s-1.36,2.16-2.54,2.67c-19.33,7.97-37.56,16.28-54.68,24.93-12.72,54.77-28.49,100.47-47.31,137.09-13.73,26.96-28.49,48.07-44.26,63.33s-31.12,23.31-46.04,24.16c-.85.17-1.7.25-2.54.25-8.82,0-16.32-2.67-22.51-8.01-6.19-5.34-10.39-12.76-12.59-22.25-2.03-9.16-2.03-19.42,0-30.78,2.04-11.36,6.91-24.12,14.62-38.28,7.71-14.16,17.89-28.4,30.52-42.73,12.63-14.33,29.42-29.34,50.36-45.02,20.94-15.68,44.72-30.48,71.34-44.38,10.34-45.44,18.31-95.8,23.91-151.08.51-4.92.85-9.16,1.02-12.72-1.7,3.9-4.67,10.68-8.9,20.35-4.75,11.02-8.61,19.84-11.57,26.45-2.97,6.61-7.46,16.07-13.48,28.36-6.02,12.3-11.57,22.68-16.66,31.16-5.09,8.48-11.11,17.51-18.06,27.09-6.96,9.58-13.73,17.59-20.35,24.04-22.04,20.69-39.59,28.91-52.65,24.67-8.99-2.71-14.75-10.51-17.3-23.4-2.38-12.21-1.7-27.17,2.04-44.89,3.73-17.72,10.26-35.44,19.58-53.16,9.32-17.72,20.26-31.83,32.81-42.35,1.02-.85,2.2-1.23,3.56-1.14,1.36.09,2.46.64,3.31,1.65.85,1.02,1.23,2.21,1.14,3.56-.09,1.36-.64,2.46-1.65,3.31-11.36,9.67-21.45,22.81-30.27,39.42-8.82,16.62-15.05,33.24-18.69,49.85-3.65,16.62-4.37,30.61-2.16,41.97,1.86,8.99,5.42,14.33,10.68,16.02,9.32,2.89,23.57-4.66,42.73-22.64,5.42-5.09,10.85-11.06,16.28-17.93,5.42-6.87,10.64-14.54,15.64-23.02,5-8.48,9.49-16.28,13.48-23.4,3.98-7.12,8.27-15.6,12.84-25.43,4.58-9.83,8.05-17.38,10.43-22.64,2.37-5.25,5.51-12.38,9.41-21.36,7.12-16.45,11.91-26.75,14.37-30.9,2.46-4.15,5.3-5.81,8.52-4.96,2.71.68,4.32,3.14,4.83,7.38.51,4.24.08,12.8-1.27,25.69-5.26,52.39-12.72,100.55-22.38,144.47,15.26-7.63,31.28-14.84,48.07-21.62,1.18-.51,2.42-.51,3.69,0ZM3251.94,1284.67c17.46-34.08,32.3-76.22,44.51-126.41-50.53,27.3-89.53,57.31-117,90.04-14.58,17.29-25.18,34.46-31.79,51.5-6.61,17.04-8.39,32-5.34,44.89,1.69,7.46,4.92,13.18,9.67,17.17,4.75,3.98,10.6,5.72,17.55,5.21,13.06-.85,26.87-8.52,41.46-23.02,14.58-14.5,28.23-34.3,40.95-59.39Z"/><path d="M3448.29,1139.44c1.36-.17,2.58.17,3.69,1.02,1.1.85,1.74,1.95,1.91,3.31.17,1.36-.17,2.54-1.02,3.56-6.96,8.99-15.26,16.02-24.93,21.11s-18.74,6.7-27.21,4.83c-2.38,5.77-5.68,10.3-9.92,13.61-4.24,3.31-8.65,4.96-13.23,4.96h-.25c-4.58-.17-8.61-1.74-12.08-4.71-3.48-2.96-5.89-7.08-7.25-12.33-2.2-8.31-1.82-16.23,1.14-23.78,2.96-7.54,7.25-13.1,12.84-16.66,1.18-.85,2.54-1.02,4.07-.51,1.53-3.73,3.69-6.61,6.49-8.65s5.72-2.8,8.77-2.29c1.69.34,3.26,1.06,4.71,2.16,1.44,1.1,2.88,2.84,4.32,5.21,1.44,2.38,2.5,6.02,3.18,10.94.68,4.92.85,10.77.51,17.55-.17,1.7-.43,3.39-.76,5.09,6.44,1.36,13.61-.25,21.49-4.83s14.62-10.51,20.22-17.8c.85-1.02,1.95-1.61,3.31-1.78ZM3377.58,1181.92c2.37,0,4.87-1.1,7.5-3.31,2.63-2.2,4.79-5.17,6.49-8.9-11.02-6.1-16.79-14.41-17.3-24.93-3.39,3.22-5.72,7.55-6.99,12.97-1.27,5.43-1.23,10.17.13,14.24,1.86,6.61,5.25,9.92,10.17,9.92ZM3394.12,1158.26c.34-4.07.38-7.59.13-10.55-.25-2.96-.55-5.38-.89-7.25-.34-1.86-.76-3.39-1.27-4.58-.51-1.18-.98-2.04-1.4-2.54-.42-.51-.72-.76-.89-.76h-.25c-.68,0-1.53.55-2.54,1.65-1.02,1.1-1.78,2.59-2.29,4.45-1.02,3.56-.85,7.21.51,10.94,1.36,3.73,4.32,7.12,8.9,10.17v-1.53Z"/><path d="M3538.84,1140.33c1.36-.25,2.58-.04,3.69.64,1.1.68,1.82,1.7,2.16,3.05.34,1.36.17,2.54-.51,3.56-2.04,3.22-4.24,6.66-6.61,10.3-2.38,3.65-5.89,8.61-10.56,14.88-4.67,6.28-9.12,11.74-13.35,16.41-4.24,4.67-8.82,8.78-13.74,12.34-4.92,3.56-9.16,5.34-12.72,5.34-1.36,0-2.54-.25-3.56-.76-8.14-3.05-10.43-16.02-6.87-38.92-5.59,7.63-10.68,13.4-15.26,17.3-6.61,5.6-12.38,6.28-17.29,2.03-4.58-3.73-6.65-10.34-6.23-19.84.42-9.49,3.18-18.65,8.27-27.47.68-1.18,1.69-1.95,3.05-2.29,1.36-.34,2.63-.17,3.82.51,1.18.68,1.95,1.65,2.29,2.92.34,1.27.17,2.5-.51,3.69-2.89,4.75-4.88,9.75-5.98,15.01-1.1,5.26-1.44,9.62-1.02,13.1.42,3.48,1.23,5.72,2.42,6.74.85.85,2.46.25,4.83-1.78,4.41-3.73,9.92-10.43,16.53-20.09,1.18-1.53,2.08-2.67,2.67-3.43.59-.76,1.31-1.69,2.16-2.8.85-1.1,1.53-1.82,2.04-2.16.51-.34,1.1-.72,1.78-1.14.68-.42,1.35-.59,2.03-.51.68.09,1.44.3,2.29.64,2.2.85,3.39,2.76,3.56,5.72.17,2.97-.25,6.83-1.27,11.57-1.87,9.33-2.59,16.45-2.16,21.37.42,4.92.8,7.93,1.14,9.03.34,1.1.76,1.65,1.27,1.65.51.34,1.4.21,2.67-.38,1.27-.6,2.8-1.57,4.58-2.92,1.78-1.36,3.77-3.09,5.98-5.21,2.2-2.12,4.71-4.71,7.5-7.76,2.8-3.05,5.63-6.4,8.52-10.05,2.88-3.64,6.02-7.88,9.41-12.72,3.39-4.83,6.7-9.96,9.92-15.39.68-1.18,1.69-1.91,3.05-2.16Z"/><path d="M3638.66,1138.04c1.27-.42,2.5-.34,3.69.25,1.18.6,2.04,1.53,2.54,2.8.51,1.27.42,2.5-.25,3.69-4.58,9.84-9.75,19.93-15.51,30.27-5.77,10.34-12.08,20.82-18.95,31.41-6.87,10.59-13.7,19.24-20.47,25.94-6.78,6.7-12.55,10.05-17.3,10.05-1.19,0-2.29-.25-3.31-.76-6.95-2.71-9.16-13.23-6.61-31.54,2.37-17.12,8.65-41.37,18.82-72.74-.17,0-.3.04-.38.13s-.21.13-.38.13c-3.73,2.54-6.83,4.5-9.28,5.85-2.46,1.36-5.77,2.89-9.92,4.58-4.16,1.7-8.1,2.46-11.83,2.29-3.73-.17-7.21-1.35-10.43-3.56-6.45-4.58-9.75-10.94-9.92-19.08-.17-8.14,2.88-17.04,9.16-26.71,3.9-6.1,8.6-11.45,14.12-16.02,5.51-4.58,10.21-5.6,14.12-3.05,2.37,1.36,3.77,3.56,4.2,6.61.42,3.05-1.06,8.95-4.45,17.68-3.39,8.74-9.07,20.14-17.04,34.21,5.25.68,13.9-2.96,25.94-10.94,2.2-1.53,3.86-2.58,4.96-3.18,1.1-.59,2.37-1.23,3.82-1.91,1.44-.68,2.67-.93,3.69-.76,1.02.17,2.04.6,3.05,1.27,2.54,2.04,2.96,5.6,1.27,10.68-16.96,52.57-23.65,84.44-20.09,95.63.34.67.59,1.18.76,1.53,1.35.17,3.43-.93,6.23-3.31,2.8-2.38,6.27-6.1,10.43-11.19,4.15-5.09,8.65-11.19,13.48-18.31,4.83-7.12,10.17-15.85,16.02-26.2,5.85-10.34,11.49-21.37,16.91-33.07.68-1.35,1.65-2.25,2.92-2.67ZM3539.85,1120.87c-1.53,5.94-1.19,10.68,1.02,14.24,12.38-21.53,18.99-36.12,19.84-43.75-2.04,1.19-4.37,3.14-7,5.85-2.63,2.71-5.34,6.23-8.14,10.56s-4.71,8.69-5.72,13.1Z"/><path d="M4036.96,898.96c1.27.6,2.08,1.53,2.42,2.8.34,1.27.21,2.5-.38,3.69-.6,1.19-1.49,2.04-2.67,2.54-12.04,3.73-37.64,11.53-76.81,23.4-44.94,13.57-79.02,24-102.25,31.29-5.59,22.04-16.79,70.79-33.57,146.25-17.3,78.51-29.67,133.02-37.13,163.54-5.94,24.76-10.77,43.41-14.5,55.96-2.89,9.83-5.17,16.41-6.87,19.71-1.7,3.31-3.73,4.96-6.1,4.96h-1.02c-3.05-.51-4.83-3.05-5.34-7.63-.51-4.58-.09-15.09,1.27-31.54.17-1.36.76-2.46,1.78-3.31,1.02-.85,2.2-1.19,3.56-1.02.85,0,1.65.25,2.42.76.76.51,1.31,1.18,1.65,2.04.34.85.42,1.69.25,2.54-.34,3.73-.6,7.12-.76,10.17,7.97-27.81,25.09-100.64,51.38-218.48,15.77-71.22,26.45-118.02,32.05-140.4-15.43,4.75-29.25,9.16-41.46,13.23-45.78,15.26-73.59,26.11-83.43,32.56,1.69,1.19,2.37,2.8,2.04,4.83-.51,2.71-2.12,4.07-4.83,4.07-.34,0-.68-.08-1.02-.25-5.43-1.02-8.31-3.47-8.65-7.38,0-2.71,1.78-5.47,5.34-8.27,3.56-2.8,10.68-6.4,21.36-10.81,13.9-5.93,34.08-13.31,60.53-22.13,32.39-10.85,85.88-27.55,160.49-50.11,39-11.7,64.52-19.5,76.56-23.4,1.18-.34,2.42-.21,3.69.38Z"/><path d="M3950.99,1139.06c1.27-.42,2.5-.34,3.69.25,1.18.6,1.99,1.53,2.42,2.8.42,1.27.38,2.5-.13,3.69-18.15,37.48-34.34,56.21-48.58,56.21-.85,0-1.78-.09-2.8-.25-11.36-2.21-18.4-17.46-21.11-45.78-8.31,11.19-15.69,20.35-22.13,27.47-5.77,6.1-10.68,8.23-14.75,6.36-4.07-1.53-6.02-5.93-5.85-13.23,0-6.1,1.36-13.39,4.07-21.87,2.71-8.48,6.7-16.7,11.96-24.67,5.25-7.97,10.94-12.97,17.04-15.01,8.99-3.22,17.29-.25,24.93,8.9.85,1.02,1.23,2.21,1.14,3.56-.09,1.36-.64,2.46-1.65,3.31-1.02.85-2.21,1.23-3.56,1.14-1.36-.08-2.46-.64-3.31-1.65-5.94-7.12-11.95-8.48-18.06-4.07-6.96,4.92-12.76,13.78-17.42,26.58-4.67,12.8-6.49,21.92-5.47,27.34,1.02-.85,2.2-1.95,3.56-3.31,6.78-7.29,15.09-17.72,24.93-31.28,2.2-3.05,3.73-5.17,4.58-6.36,1.35-1.69,3.14-2.25,5.34-1.65,2.2.6,3.39,2.08,3.56,4.45.34,8.31,1.02,15.69,2.03,22.13,1.02,6.45,2.04,11.32,3.05,14.62,1.02,3.31,2.2,6.06,3.56,8.27,1.36,2.21,2.42,3.6,3.18,4.2.76.6,1.57.89,2.42.89,2.37.51,5.38-.64,9.03-3.43,3.64-2.8,8.31-8.22,13.99-16.28,5.68-8.05,11.49-18.27,17.42-30.65.68-1.36,1.65-2.25,2.92-2.67Z"/><path d="M4017.5,957.59c3.56,5.26,1.82,17.68-5.21,37.26-7.04,19.58-18.44,41.93-34.21,67.02l-.51.51c-10.68,42.73-20.9,87.28-30.65,133.66-9.75,46.38-15.98,79.4-18.69,99.07h.51c1.36.51,2.33,1.36,2.92,2.54.6,1.18.64,2.46.13,3.82-1.02,2.88-1.82,5.04-2.42,6.49-.59,1.44-1.48,2.84-2.67,4.2-1.18,1.35-2.46,2.03-3.82,2.03-.51,0-1.1-.09-1.78-.25-2.37-.85-3.64-3.18-3.82-7-.17-3.81,1.02-13.19,3.56-28.1,3.05-18.31,7.63-42.22,13.73-71.73,14.07-67.15,28.06-127,41.97-179.57,1.18-4.41,2.46-9.03,3.82-13.86,1.36-4.83,3.31-10.89,5.85-18.19,2.54-7.29,5.04-13.69,7.5-19.2,2.46-5.51,5.21-10.43,8.27-14.75,3.05-4.32,5.93-6.65,8.65-7,2.88-.51,5.17.51,6.87,3.05ZM3986.47,1028.29c13.56-25.6,21.19-45.7,22.89-60.28-7.46,11.19-15.09,31.29-22.89,60.28Z"/><path d="M4063.79,1138.3c1.36-.25,2.58,0,3.69.76,1.1.76,1.74,1.82,1.91,3.18.17,1.36-.09,2.54-.76,3.56-19.16,26.79-36.63,45.78-52.4,56.97-6.28,4.41-12.46,6.61-18.57,6.61-4.75,0-8.9-1.27-12.46-3.82-2.03-1.53-3.86-3.56-5.47-6.1-1.61-2.54-3.01-6.1-4.2-10.68-1.18-4.58-1.4-10.59-.64-18.06.76-7.46,2.67-15.94,5.72-25.43v-.25c4.75-15.43,10.51-27.64,17.3-36.63,6.78-8.99,12.88-13.56,18.31-13.73,3.9-.17,6.44,1.53,7.63,5.09,1.86,4.92-.34,11.87-6.61,20.86-6.28,8.99-15.52,18.65-27.72,29-2.04,6.61-3.48,12.72-4.32,18.31-.85,5.59-1.14,10.05-.89,13.35.25,3.31.85,6.19,1.78,8.65.93,2.46,1.78,4.2,2.54,5.21.76,1.02,1.57,1.86,2.42,2.54,5.09,3.73,11.61,2.71,19.58-3.05,14.92-10.51,31.54-28.65,49.85-54.43.85-1.02,1.95-1.65,3.31-1.91ZM4014.45,1105.36c-5.94,3.73-11.79,11.79-17.55,24.16,9.83-9.83,15.68-17.89,17.55-24.16Z"/><path d="M4154.08,1138.68c1.36-.34,2.63-.17,3.82.51,1.18.68,1.95,1.65,2.29,2.92.34,1.27.17,2.5-.51,3.69-5.77,10.17-10.77,18.23-15.01,24.16-4.24,5.94-8.56,10.6-12.97,13.99-4.41,3.39-8.73,4.83-12.97,4.32-8.48-1.02-15.18-10.17-20.09-27.47-3.56-11.7-6.61-17.55-9.16-17.55-.51-.17-1.23.04-2.16.64-.93.6-2.42,2.12-4.45,4.58-2.04,2.46-4.28,5.81-6.74,10.05-2.46,4.24-5.68,10.52-9.67,18.82-3.99,8.31-8.27,18.15-12.84,29.5-.85,2.04-2.37,3.05-4.58,3.05-.34,0-.68-.09-1.02-.25-2.88-.68-4.15-2.46-3.81-5.34,1.7-13.9,8.06-39.76,19.08-77.58,1.18-3.9,2.04-6.87,2.54-8.9.51-1.36,1.36-2.33,2.54-2.92,1.18-.59,2.42-.72,3.69-.38,1.27.34,2.25,1.1,2.92,2.29.68,1.19.76,2.46.25,3.82-.34,1.19-1.19,4.16-2.54,8.9-3.73,13.06-6.61,23.23-8.65,30.52,5.42-10.17,10.17-17.21,14.24-21.11,4.07-3.9,7.97-5.76,11.7-5.6,4.41.17,7.92,2.46,10.55,6.87,2.63,4.41,5.13,10.43,7.5,18.06,3.73,13.06,7.71,19.84,11.95,20.35,2.03.34,4.53-.8,7.5-3.43,2.96-2.63,6.14-6.44,9.54-11.45,3.39-5,5.98-8.94,7.76-11.83,1.78-2.88,3.85-6.53,6.23-10.94.67-1.18,1.69-1.95,3.05-2.29Z"/><path d="M4360.86,1045.84c.85,1.02,1.18,2.21,1.02,3.56-.17,1.36-.85,2.46-2.04,3.31-2.03,1.36-3.99,1.27-5.85-.25-8.14-2.88-65.28-3.14-171.43-.76-11.02,46.29-22.22,96.48-33.57,150.57-13.56,65.28-21.79,110.13-24.67,134.55.34,0,.68.08,1.02.25,1.36.34,2.29,1.14,2.8,2.42.51,1.27.51,2.5,0,3.69-.85,2.71-1.57,4.71-2.16,5.98-.59,1.27-1.48,2.54-2.67,3.82-1.18,1.27-2.46,1.91-3.82,1.91-.51,0-1.1-.09-1.78-.25-2.2-.68-3.52-2.46-3.94-5.34-.42-2.88-.21-6.78.64-11.7.68-7.12,2.21-17.38,4.58-30.78,4.24-25.43,10.6-58.5,19.08-99.19,11.36-54.94,22.8-106.83,34.34-155.66-11.53.17-25.86.51-42.98,1.02-27.13.68-43.07,1.02-47.82,1.02-1.36,0-2.5-.46-3.43-1.4-.93-.93-1.4-2.07-1.4-3.43,0-.85.21-1.65.64-2.42.42-.76,1.02-1.36,1.78-1.78.76-.42,1.57-.64,2.42-.64,4.75,0,20.6-.42,47.56-1.27,16.79-.34,32.05-.68,45.78-1.02,5.42-22.38,10.26-41.37,14.5-56.97.34-1.35,1.1-2.37,2.29-3.05,1.18-.68,2.42-.85,3.69-.51,1.27.34,2.25,1.1,2.93,2.29.67,1.19.85,2.46.51,3.82-4.07,15.09-8.74,33.15-13.99,54.17,50.87-1.35,89.28-1.86,115.22-1.53,25.94.34,42.26.89,48.96,1.65,6.7.76,10.64,2.08,11.83,3.94Z"/></svg>