<svg xmlns="http://www.w3.org/2000/svg" width="17.061" height="17.012" viewBox="0 0 17.061 17.012">
  <path id="Path_43765" data-name="Path 43765" d="M16.928,11.423a2.694,2.694,0,0,1-.574-.1,8.082,8.082,0,0,1-1.122-.334,1.712,1.712,0,0,0-2.123.856l-.188.385a10.428,10.428,0,0,1-2.277-1.712A10.428,10.428,0,0,1,8.932,8.238L9.292,8a1.712,1.712,0,0,0,.856-2.123,8.844,8.844,0,0,1-.334-1.122c-.043-.188-.077-.385-.1-.582A2.568,2.568,0,0,0,7.143,2.04H4.574A2.568,2.568,0,0,0,2.006,4.959,16.266,16.266,0,0,0,16.149,19.051h.325a2.562,2.562,0,0,0,2.568-2.577V13.906A2.568,2.568,0,0,0,16.928,11.423Zm.428,5.137a.856.856,0,0,1-.291.642.908.908,0,0,1-.7.214A14.554,14.554,0,0,1,3.77,4.762a.933.933,0,0,1,.214-.7.856.856,0,0,1,.642-.291H7.194a.856.856,0,0,1,.856.676q.051.351.128.693a9.52,9.52,0,0,0,.394,1.327l-1.2.556a.856.856,0,0,0-.42,1.139,12.405,12.405,0,0,0,5.993,5.993.907.907,0,0,0,1.139-.445l.531-1.2a11.721,11.721,0,0,0,1.353.394q.342.077.693.128a.856.856,0,0,1,.676.856Z" transform="translate(-1.982 -2.04)"/>
</svg>
