<svg xmlns="http://www.w3.org/2000/svg" width="28.628" height="17.878" viewBox="0 0 28.628 17.878">
  <path id="Path_44006" data-name="Path 44006" d="M28.229,13.8C13.372,8.631,14.41,8.923,14.118,9.031L.4,13.8a.6.6,0,0,0-.4.561c0,.567.334.537,2.982,1.461v3.418a1.789,1.789,0,0,0-1.193,1.682V23.31a.6.6,0,0,0,.6.6H4.771a.6.6,0,0,0,.6-.6V20.924a1.789,1.789,0,0,0-1.193-1.682V16.26l2.773.96-.984,7.807a.6.6,0,0,0,.418.644,26.9,26.9,0,0,0,15.853,0,.6.6,0,0,0,.417-.644L21.68,17.2l6.561-2.278a.6.6,0,0,0-.012-1.121ZM4.175,22.713H2.982V20.924a.6.6,0,1,1,1.193,0Zm17.237,1.956a25.748,25.748,0,0,1-14.2,0L8.1,17.6c6.585,2.3,6.072,2.129,6.215,2.129s-.364.161,6.215-2.129Zm-7.1-6.167L6.346,15.735l6.352-.6a1.789,1.789,0,1,0-.113-1.193l-8.947.865-1.253-.447,11.929-4.139,11.929,4.139Zm-.6-4.139a.6.6,0,1,1,.6.6A.6.6,0,0,1,13.718,14.363Z" transform="translate(0 -8.988)"/>
</svg>
