<svg xmlns="http://www.w3.org/2000/svg" width="27.592" height="15.564" viewBox="0 0 27.592 15.564">
  <g id="Group_54295" data-name="Group 54295" transform="translate(-7.332 -9.97)">
    <path id="Path_51573" data-name="Path 51573" d="M29.116,21.695V14.583a4.224,4.224,0,0,0-4.226-4.226H11.828A4.224,4.224,0,0,0,7.6,14.583v7.112a4.226,4.226,0,0,0,4.226,4.226H24.89a4.226,4.226,0,0,0,4.226-4.226Zm-2.305-7.112v7.112a1.923,1.923,0,0,1-1.921,1.921H11.828a1.923,1.923,0,0,1-1.921-1.921V14.583a1.92,1.92,0,0,1,1.921-1.921H24.89a1.92,1.92,0,0,1,1.921,1.921Z" transform="translate(-0.27 -0.387)" fill="#fff" fill-rule="evenodd"/>
    <path id="Path_51574" data-name="Path 51574" d="M28.485,20.333V14.424a2.69,2.69,0,0,0-3.3-2.619l-4.189.979a1.154,1.154,0,0,0-.891,1.123v6.941a1.152,1.152,0,0,0,.891,1.122l4.189.98a2.69,2.69,0,0,0,3.3-2.619ZM26.18,14.424v5.909a.386.386,0,0,1-.472.373l-3.3-.771V14.822l3.3-.771a.384.384,0,0,1,.472.373Z" transform="translate(6.439 0.353)" fill="#fff" fill-rule="evenodd"/>
  </g>
</svg>
