<svg xmlns="http://www.w3.org/2000/svg" width="46" height="46" viewBox="0 0 46 46">
  <g id="Group_1203" data-name="Group 1203" transform="translate(-1544)">
    <path id="Path_6028" data-name="Path 6028" d="M23,0A23,23,0,1,1,0,23,23,23,0,0,1,23,0Z" transform="translate(1544)" fill="#00be55" opacity="0.7"/>
    <path id="Path_138" data-name="Path 138" d="M25.294,14.214a.886.886,0,0,1-.254.614l-.005.011-5.323,5.323a.887.887,0,1,1-1.255-1.255l3.808-3.81H4.887a.887.887,0,1,1,0-1.774H22.265L18.457,9.516a.887.887,0,1,1,1.255-1.255l5.323,5.323.005.009a.892.892,0,0,1,.254.618Z" transform="translate(1552 8.382)" fill="#f7f7f7"/>
  </g>
</svg>
