<svg xmlns="http://www.w3.org/2000/svg" width="12.481" height="13.39" viewBox="0 0 12.481 13.39">
  <g id="Group_52098" data-name="Group 52098" transform="translate(-10.17 -8.58)">
    <path id="Path_43923" data-name="Path 43923" d="M21.364,11.76H11.456a1.286,1.286,0,0,0-1.286,1.286v9.908a1.286,1.286,0,0,0,1.286,1.286h9.908a1.286,1.286,0,0,0,1.286-1.286V13.046A1.286,1.286,0,0,0,21.364,11.76Zm.429,11.192a.429.429,0,0,1-.429.429H11.456a.429.429,0,0,1-.429-.429V13.046a.429.429,0,0,1,.429-.429h9.908a.429.429,0,0,1,.429.429Z" transform="translate(0 -2.271)" fill="#707070"/>
    <path id="Path_43924" data-name="Path 43924" d="M19.869,9.009v1.818a.429.429,0,1,1-.858,0V9.009a.429.429,0,1,1,.858,0Zm-6.06,0v1.818a.429.429,0,0,1-.858,0V9.009a.429.429,0,0,1,.858,0ZM22.651,12.7a.429.429,0,0,1-.429.429H10.6a.429.429,0,0,1,0-.858H22.222A.429.429,0,0,1,22.651,12.7Zm-8.67,2.859a.429.429,0,1,1-.429-.429A.429.429,0,0,1,13.981,15.561Zm2.859,0a.429.429,0,1,1-.429-.429A.429.429,0,0,1,16.839,15.561Zm2,0a.429.429,0,1,1,.429.429A.429.429,0,0,1,18.84,15.561Zm-4.86,2.859a.429.429,0,1,1-.429-.429A.429.429,0,0,1,13.981,18.419Zm2.859,0a.429.429,0,1,1-.429-.429A.429.429,0,0,1,16.839,18.419Zm2.859,0a.429.429,0,1,1-.429-.429A.429.429,0,0,1,19.7,18.419Z" fill="#707070"/>
  </g>
</svg>
