<svg xmlns="http://www.w3.org/2000/svg" width="13.973" height="14.121" viewBox="0 0 13.973 14.121">
  <g id="Group_52096" data-name="Group 52096" transform="translate(-14.21 -13.38)">
    <path id="Path_43921" data-name="Path 43921" d="M20.036,13.3a6.811,6.811,0,1,0,6.736,6.811A6.774,6.774,0,0,0,20.036,13.3Zm0,12.976a6.166,6.166,0,1,1,6.1-6.166A6.141,6.141,0,0,1,20.036,26.276Z" transform="translate(1.16 0.33)" fill="#707070" stroke="#707070" stroke-width="0.5"/>
    <path id="Path_43922" data-name="Path 43922" d="M62.348,37.335V32.974a.374.374,0,0,0-.748,0V37.49a.406.406,0,0,0,.109.265l3.006,3.006a.376.376,0,0,0,.53,0,.386.386,0,0,0,0-.53Z" transform="translate(-41.778 -16.294)" fill="#707070" stroke="#707070" stroke-width="0.5"/>
  </g>
</svg>
