<svg xmlns="http://www.w3.org/2000/svg" width="34.329" height="41.473" viewBox="0 0 34.329 41.473">
  <g id="Group_51795" data-name="Group 51795" transform="translate(-1588.671 -29)">
    <path id="Path_42478" data-name="Path 42478" d="M16.465,28.526a1.251,1.251,0,0,1,1.623-.032,1.226,1.226,0,0,1,.166,1.736,5.778,5.778,0,0,1-4.523,2.243h0l-.353-.015A5.776,5.776,0,0,1,9.221,30.23h0l-.107-.149a1.226,1.226,0,0,1,.272-1.587,1.25,1.25,0,0,1,1.75.164,3.339,3.339,0,0,0,.677.671,3.229,3.229,0,0,0,4.509-.671h.014ZM13.744,0c4.984,0,10.573,3.514,11.207,9.157h0V12.1a6.1,6.1,0,0,0,1.441,2.857,1.09,1.09,0,0,1,.115.157A6.591,6.591,0,0,1,27.6,18.443h0l-.043.3a6.722,6.722,0,0,1-1.527,4.472,7.933,7.933,0,0,1-5.071,2.5,66.019,66.019,0,0,1-14.4,0,7.845,7.845,0,0,1-4.984-2.5A6.624,6.624,0,0,1,0,18.772H0v-.2a6.82,6.82,0,0,1,1.181-3.414h0l.115-.143a6.224,6.224,0,0,0,1.44-2.857h0V9.215l.08-.164a1.242,1.242,0,0,1,2.3.422h0v2.943a.737.737,0,0,1,0,.157,8.545,8.545,0,0,1-1.988,3.972,4.1,4.1,0,0,0-.634,2.029h0v.314a4.178,4.178,0,0,0,.951,2.786,5.391,5.391,0,0,0,3.371,1.6,64.988,64.988,0,0,0,13.944,0A5.4,5.4,0,0,0,24.2,21.6a4.135,4.135,0,0,0,.907-2.7h0v-.329a4.259,4.259,0,0,0-.619-2.043,8.55,8.55,0,0,1-2.1-3.972.748.748,0,0,1,0-.157h0V9.443c-.418-4.314-4.753-6.986-8.528-6.986A9.351,9.351,0,0,0,9.279,3.643h0l-.171.085a1.248,1.248,0,0,1-1.09-.076A1.224,1.224,0,0,1,8.069,1.5,11.772,11.772,0,0,1,13.744,0Z" transform="translate(1588.671 38)" fill="#200e32"/>
    <g id="Group_51794" data-name="Group 51794" transform="translate(-1.528 -1.993)">
      <circle id="Ellipse_1719" data-name="Ellipse 1719" cx="11" cy="11" r="11" transform="translate(1602.528 30.993)" fill="#30c768"/>
      <text id="_2" data-name="2" transform="translate(1609.528 46.993)" fill="#fff" font-size="13" font-family="Poppins-Medium, Poppins" font-weight="500"><tspan x="0" y="0">2</tspan></text>
    </g>
  </g>
</svg>
