<svg xmlns="http://www.w3.org/2000/svg" width="25.187" height="17.742" viewBox="0 0 25.187 17.742">
  <g id="Group_51709" data-name="Group 51709" transform="translate(-5 -12.389)">
    <path id="Path_42474" data-name="Path 42474" d="M29.682,26.027h-1.4V14.034a1.647,1.647,0,0,0-1.645-1.645H8.546A1.647,1.647,0,0,0,6.9,14.034V26.027H5.5a.5.5,0,0,0-.5.5v.815a2.788,2.788,0,0,0,2.786,2.786H27.4a2.789,2.789,0,0,0,2.786-2.786V26.53a.5.5,0,0,0-.5-.5ZM7.908,14.034a.638.638,0,0,1,.638-.637H26.639a.638.638,0,0,1,.638.637V26.027H7.909V14.034Zm21.27,13.312A1.781,1.781,0,0,1,27.4,29.124H7.786a1.781,1.781,0,0,1-1.778-1.778v-.311H29.179Z"/>
    <path id="Path_42475" data-name="Path 42475" d="M29.757,21.655l-7.616-3.249a.5.5,0,0,0-.661.661l3.249,7.616a.5.5,0,0,0,.964-.14l.332-2.88,2.992,2.991a.5.5,0,1,0,.712-.712l-2.991-2.992,2.88-.333a.5.5,0,0,0,.14-.964Zm-4.171.416a.421.421,0,0,0-.081.024.457.457,0,0,0-.063.018.5.5,0,0,0-.255.255.421.421,0,0,0-.019.064.509.509,0,0,0-.024.081l-.235,2.028L22.9,19.825l4.716,2.012-2.027.235Z" transform="translate(-8.159 -2.966)"/>
  </g>
</svg>
