<svg xmlns="http://www.w3.org/2000/svg" width="24.964" height="34.394" viewBox="0 0 24.964 34.394">
  <g id="Group_53673" data-name="Group 53673" transform="translate(-7.833 -4.052)">
    <path id="Path_44644" data-name="Path 44644" d="M17,27.071a3.976,3.976,0,0,1-3.852,2.169c-1.232-.122-4.6-1.115-4.8-1.856s2.016-.015,2.739-2.924c.524-2.109,2.958-2.549,4.817-1.477A2.993,2.993,0,0,1,17,27.071Z" transform="translate(0 8.683)" fill="#a0cdea" stroke="#373449" stroke-linecap="round" stroke-linejoin="round" stroke-width="1"/>
    <path id="Path_44645" data-name="Path 44645" d="M13.282,24.656c1.689,2.627,4,3.341,6.428,3.711C23.8,21.265,32.657,6.7,29.115,4.658,25.876,2.788,17.563,17.51,13.282,24.656Z" transform="translate(2.397)" fill="#eecb92" stroke="#373449" stroke-linecap="round" stroke-linejoin="round" stroke-width="1"/>
    <path id="Path_44646" data-name="Path 44646" d="M13.615,18.077c-.594,2.574-2.087,5.651.246,7s4.3-1.422,6.183-3.287c-3.4-.352-5.308-1.755-6.428-3.711Z" transform="translate(2.064 6.579)" fill="#e6cc9b" stroke="#373449" stroke-linecap="round" stroke-linejoin="round" stroke-width="1"/>
  </g>
</svg>
