<svg xmlns="http://www.w3.org/2000/svg" width="50" height="50" viewBox="0 0 50 50">
  <g id="Group_51800" data-name="Group 51800" transform="translate(-458 -225.39)">
    <circle id="Ellipse_1720" data-name="Ellipse 1720" cx="25" cy="25" r="25" transform="translate(458 225.39)" fill="#fe8949"/>
    <g id="Group_55280" data-name="Group 55280" transform="translate(463.072 233.174)">
      <path id="Path_46316" data-name="Path 46316" d="M23.758,15.013a4.207,4.207,0,1,0,4.207-4.207A4.212,4.212,0,0,0,23.758,15.013Zm4.207-2.83a2.83,2.83,0,1,1-2.83,2.83A2.833,2.833,0,0,1,27.965,12.183Zm-2.9,9.143a7,7,0,0,0-7,7v3.045a2.486,2.486,0,0,0,2.484,2.484H35.38a2.487,2.487,0,0,0,2.484-2.484V28.322a7,7,0,0,0-7-7h-5.8Zm11.423,7v3.045a1.108,1.108,0,0,1-1.106,1.107H33.737V27.638a.688.688,0,1,0-1.377,0v4.836H23.571V27.638a.688.688,0,1,0-1.377,0v4.836H20.552a1.107,1.107,0,0,1-1.106-1.107V28.322A5.625,5.625,0,0,1,25.064,22.7h5.8a5.625,5.625,0,0,1,5.619,5.619Z" transform="translate(-8.14 -5.59)" fill="#423739" stroke="#423739" stroke-width="0.3"/>
    </g>
  </g>
</svg>
