<svg xmlns="http://www.w3.org/2000/svg" width="68.422" height="35.347" viewBox="0 0 68.422 35.347">
  <path id="Path_156" data-name="Path 156" d="M30.222,54.757l.3,5.872a1.425,1.425,0,0,1-1.34,1.5H29.1A1.425,1.425,0,0,1,27.671,60.7l-.314-5.872a5.7,5.7,0,0,0-5.7-5.388H16.81a5.7,5.7,0,0,0-5.7,5.388l-.257,5.943A1.425,1.425,0,0,1,9.427,62.2h-.1A1.425,1.425,0,0,1,8,60.629l.314-5.872a8.552,8.552,0,0,1,8.552-8.1h4.889a8.552,8.552,0,0,1,8.466,8.1ZM10.511,35.615a8.751,8.751,0,1,1,8.751,8.737,8.751,8.751,0,0,1-8.751-8.737Zm2.851,0a5.9,5.9,0,1,0,5.9-5.886,5.9,5.9,0,0,0-5.9,5.886Zm30.658,13.54H40.4a6.713,6.713,0,0,0-6.742,6.328l-.185,4.361a1.425,1.425,0,0,0,1.34,1.425H34.9a1.425,1.425,0,0,0,1.425-1.354l.185-4.347A3.877,3.877,0,0,1,40.37,51.92h3.62a3.877,3.877,0,0,1,3.919,3.649l.214,4.361a1.426,1.426,0,0,0,2.851-.071l-.214-4.376a6.713,6.713,0,0,0-6.742-6.357Zm-8.666-7.839a6.856,6.856,0,1,1,6.856,6.813,6.856,6.856,0,0,1-6.856-6.813Zm2.851,0a4,4,0,1,0,1.158-2.859A4,4,0,0,0,38.2,41.316ZM76.13,54.757a8.552,8.552,0,0,0-8.552-8.1h-4.86a8.552,8.552,0,0,0-8.552,8.1l-.314,5.872A1.426,1.426,0,1,0,56.7,60.7l.314-5.872a5.7,5.7,0,0,1,5.7-5.388h4.874a5.7,5.7,0,0,1,5.7,5.388l.271,5.943a1.426,1.426,0,1,0,2.851-.071ZM56.461,37.711c0-2.28-.1-6.086,2.352-8.552a8.552,8.552,0,0,1,6.4-2.28,8.637,8.637,0,0,1,6.414,2.28c2.451,2.494,2.38,6.3,2.337,8.552V42.9a1.425,1.425,0,0,1-1.425,1.425H57.887A1.425,1.425,0,0,1,56.461,42.9Zm2.851,0v3.82H71.1V37.654c0-1.938.1-4.889-1.525-6.528A5.943,5.943,0,0,0,65.2,29.7a5.929,5.929,0,0,0-4.361,1.425c-1.668,1.639-1.611,4.589-1.525,6.528Z" transform="translate(-7.995 -26.85)" fill="#30c768"/>
</svg>
