<svg xmlns="http://www.w3.org/2000/svg" width="25.322" height="24.562" viewBox="0 0 25.322 24.562">
  <path id="Path_44802" data-name="Path 44802" d="M24.1,21.415V15.074a1.711,1.711,0,0,0-1.555-1.7V10.634a4.884,4.884,0,0,0-9.768,0v2.741a1.711,1.711,0,0,0-1.555,1.7v6.341a1.716,1.716,0,0,0,1.714,1.714h9.449A1.716,1.716,0,0,0,24.1,21.415ZM13.79,10.634a3.871,3.871,0,0,1,7.742,0V13.36H13.79Zm9.3,10.781a.7.7,0,0,1-.7.7H12.937a.7.7,0,0,1-.7-.7V15.074a.7.7,0,0,1,.7-.7h9.449a.7.7,0,0,1,.7.7v6.341Zm-17.581,7.3H6.47l-.482.835a.507.507,0,0,0,.877.506l.482-.835.482.835a.507.507,0,1,0,.877-.506l-.482-.835h.964a.506.506,0,1,0,0-1.013H8.225l.482-.835a.507.507,0,1,0-.877-.506l-.482.835-.482-.835a.507.507,0,1,0-.877.506l.482.835H5.506a.506.506,0,0,0,0,1.013Zm11.064-.506a.506.506,0,0,0-.506-.506H15.1l.482-.835a.507.507,0,1,0-.877-.506l-.482.835-.482-.835a.507.507,0,1,0-.877.506l.482.835h-.964a.506.506,0,1,0,0,1.013h.964l-.482.835a.507.507,0,0,0,.877.506l.482-.835.482.835a.507.507,0,1,0,.877-.506l-.482-.835h.964A.506.506,0,0,0,16.571,28.212Zm6.876,0a.506.506,0,0,0-.506-.506h-.964l.482-.835a.507.507,0,1,0-.877-.506L21.1,27.2l-.482-.835a.507.507,0,1,0-.877.506l.482.835h-.964a.506.506,0,0,0,0,1.013h.964l-.482.835a.507.507,0,0,0,.877.506l.482-.835.482.835a.507.507,0,1,0,.877-.506l-.482-.835h.964A.506.506,0,0,0,23.447,28.212Zm4.046-1.848a.507.507,0,0,0-.877.506l.482.835h-.964a.506.506,0,0,0,0,1.013H27.1l-.482.835a.507.507,0,0,0,.877.506l.482-.835.482.835a.507.507,0,1,0,.877-.506l-.482-.835h.964a.506.506,0,0,0,0-1.013h-.964l.482-.835a.507.507,0,0,0-.877-.506l-.482.835Z" transform="translate(-5 -5.751)"/>
</svg>
