<svg xmlns="http://www.w3.org/2000/svg" width="62.307" height="80.664" viewBox="0 0 62.307 80.664">
  <g id="Group_52700" data-name="Group 52700" transform="translate(-15.241 -5)">
    <path id="Path_44117" data-name="Path 44117" d="M54.295,50.691a5.011,5.011,0,0,1,1.437,3.793h0A5.015,5.015,0,0,0,54.295,50.691Zm-4.874,7.681a4.612,4.612,0,0,1-.855-.048h0a4.529,4.529,0,0,0,.855.049c2.243.016,3.712-1.212,3.712-3.807h0C53.133,57.161,51.664,58.389,49.421,58.372Zm-7.468-5.679c0-1-.678-1.6-1.921-1.6h0c1.243,0,1.921.6,1.92,1.6,0,1.1-.807,1.759-2.112,1.759C41.145,54.451,41.952,53.788,41.953,52.693Zm19.971-.841h0v3.9h0ZM39.016,54.387a3.676,3.676,0,0,0,.765.061,3.664,3.664,0,0,1-.765-.063Zm-7.051,4.485a1.411,1.411,0,0,1,1.452-1.5,1.493,1.493,0,0,0-.032,2.985h0A1.407,1.407,0,0,1,31.965,58.872Z" transform="translate(-1.735 -4.74)" fill="none"/>
    <path id="Path_44118" data-name="Path 44118" d="M51.342,58.421c2.243.018,3.712-1.211,3.712-3.806A3.108,3.108,0,0,0,51.6,51.16a5.231,5.231,0,0,0-1.113.1v7.115a4.534,4.534,0,0,0,.855.049Z" transform="translate(-3.656 -4.788)" fill="#ed1c24"/>
    <path id="Path_44119" data-name="Path 44119" d="M64.114,22.8a4.369,4.369,0,0,1-4.369-4.368V5H19.609a4.368,4.368,0,0,0-4.368,4.368V81.3a4.368,4.368,0,0,0,4.368,4.368H73.179A4.368,4.368,0,0,0,77.547,81.3V22.8ZM31.667,55.618H31.65a1.46,1.46,0,1,1,.017,0Zm10-5.162A5.17,5.17,0,0,1,38.119,51.6a4.23,4.23,0,0,1-.84-.064v3.9H34.842V44.709a20.148,20.148,0,0,1,3.324-.226,5.167,5.167,0,0,1,3.341.887,3.112,3.112,0,0,1,1.146,2.5,3.414,3.414,0,0,1-.984,2.582ZM54,49.746a5.561,5.561,0,0,1-1.791,4.4,7.855,7.855,0,0,1-5.035,1.4,20.7,20.7,0,0,1-2.791-.163V44.725a19.8,19.8,0,0,1,3.307-.242,7,7,0,0,1,4.47,1.129,4.408,4.408,0,0,1,.4.339A5.01,5.01,0,0,1,54,49.743v0Zm8.42-3.165H58.238v2.484h3.9v2h-3.9V55.44H55.785V44.563h6.631v2.018Z" fill="#ed1c24"/>
    <path id="Path_44120" data-name="Path 44120" d="M42.767,47.952c0-1-.677-1.6-1.92-1.6a4.4,4.4,0,0,0-1.016.081v3.21a3.593,3.593,0,0,0,.765.063l.058,0C41.961,49.711,42.767,49.049,42.767,47.952ZM66.665,22.8H80.1L62.3,5V18.434A4.369,4.369,0,0,0,66.664,22.8Z" transform="translate(-2.551)" fill="#ed1c24"/>
    <path id="Path_44121" data-name="Path 44121" d="M69.265,22.8H82.7L64.9,5V18.434A4.369,4.369,0,0,0,69.264,22.8Z" transform="translate(-5.151)" fill="#fff" opacity="0.6"/>
    <path id="Path_44122" data-name="Path 44122" d="M33.417,57.2a1.493,1.493,0,0,0-.031,2.985H33.4a1.493,1.493,0,0,0,.015-2.985Zm9.826-7.262a5.167,5.167,0,0,0-3.341-.887,20.149,20.149,0,0,0-3.324.226V60.011h2.437v-3.9a4.164,4.164,0,0,0,.84.064A5.17,5.17,0,0,0,43.4,55.025a3.417,3.417,0,0,0,.984-2.582,3.11,3.11,0,0,0-1.146-2.5Zm-3.4,4.341-.058,0a3.745,3.745,0,0,1-.765-.061V51.006a4.4,4.4,0,0,1,1.016-.081h0c1.243,0,1.921.6,1.921,1.6C41.952,53.619,41.145,54.281,39.839,54.281Zm14.053-4.1a7,7,0,0,0-4.47-1.129,19.8,19.8,0,0,0-3.307.242V59.961a20.7,20.7,0,0,0,2.791.163,7.861,7.861,0,0,0,5.035-1.4,5.561,5.561,0,0,0,1.791-4.4h0a5.006,5.006,0,0,0-1.437-3.793,4.7,4.7,0,0,0-.4-.34Zm-4.212.759A3.107,3.107,0,0,1,53.133,54.4h0c0,2.6-1.469,3.823-3.712,3.807a4.529,4.529,0,0,1-.855-.049V51.039a5.168,5.168,0,0,1,1.113-.1Zm7.841-1.809V60.01h2.453V55.637h3.9v-2h-3.9V51.151h4.178V49.133H57.52Z" transform="translate(-1.735 -4.57)" fill="#fff"/>
  </g>
</svg>
