<svg xmlns="http://www.w3.org/2000/svg" width="86.407" height="101.281" viewBox="0 0 86.407 101.281">
  <g id="Group_39691" data-name="Group 39691" transform="translate(-8.407 -3.994)">
    <path id="Path_86" data-name="Path 86" d="M89.761,29.318H66.252V5.808A1.808,1.808,0,0,0,64.444,4H13.808A1.808,1.808,0,0,0,12,5.808V56.444a1.808,1.808,0,0,0,1.808,1.808H62.635V87.187H13.808A1.808,1.808,0,0,0,12,89v14.467a1.808,1.808,0,0,0,1.808,1.808H89.761a1.808,1.808,0,0,0,1.808-1.808V31.126A1.808,1.808,0,0,0,89.761,29.318Z" transform="translate(3.234 0.005)" fill="#eee"/>
    <rect id="Rectangle_19650" data-name="Rectangle 19650" width="61" height="36" rx="1" transform="translate(8.407 54.635)" fill="#ef5350"/>
    <path id="Path_87" data-name="Path 87" d="M68.41,29.847,43.092,4.529A1.808,1.808,0,0,0,40,5.813V31.131a1.808,1.808,0,0,0,1.808,1.808H67.126a1.808,1.808,0,0,0,1.284-3.092Z" transform="translate(25.869 0)" fill="#e0e0e0"/>
    <path id="Path_88" data-name="Path 88" d="M15,52.472V38h4.81a5.064,5.064,0,0,1,3.436,1.049,4.376,4.376,0,0,1,1.5,3.472,4.593,4.593,0,0,1-.705,2.387A3.96,3.96,0,0,1,22.234,46.5a4.828,4.828,0,0,1-2.08.416h-2.17v5.552ZM18.056,44.3h1.7a2.062,2.062,0,0,0,1.465-.506,1.808,1.808,0,0,0,.524-1.374q0-1.664-1.989-1.664h-1.7Zm9.512,8.174V38h5.425a5.751,5.751,0,0,1,3.761,1.23,7.234,7.234,0,0,1,2.658,6,8.1,8.1,0,0,1-.9,3.816,6.366,6.366,0,0,1-2.532,2.622,8.21,8.21,0,0,1-4.015.8Zm3.056-2.749h1.953a3.49,3.49,0,0,0,1.971-.524,4.575,4.575,0,0,0,1.808-4.087,4.34,4.34,0,0,0-1.718-3.834,3.382,3.382,0,0,0-1.953-.524H30.625ZM42.56,52.472V38h8.282v2.749H45.616V43.7h4.792V46.45H45.616v6.022Z" transform="translate(5.659 27.486)" fill="#fff"/>
  </g>
</svg>
