<svg id="Group_54677" data-name="Group 54677" xmlns="http://www.w3.org/2000/svg" width="48.723" height="48.723" viewBox="0 0 48.723 48.723">
  <path id="Path_45877" data-name="Path 45877" d="M39.587,48.723H9.135A9.135,9.135,0,0,1,0,39.587V9.135A9.135,9.135,0,0,1,9.135,0H39.587a9.135,9.135,0,0,1,9.135,9.135V39.587A9.135,9.135,0,0,1,39.587,48.723Z" fill="#e3f8fa"/>
  <path id="Path_45878" data-name="Path 45878" d="M39.587,48.723H9.135A9.135,9.135,0,0,1,0,39.587V9.135A9.135,9.135,0,0,1,9.135,0H39.587a9.135,9.135,0,0,1,9.135,9.135V39.587A9.135,9.135,0,0,1,39.587,48.723Z" fill="#f9bb1d"/>
  <path id="Path_45879" data-name="Path 45879" d="M21.931,15.333a6.6,6.6,0,1,0,6.6,6.6A6.605,6.605,0,0,0,21.931,15.333Zm2.24,8.837a1.016,1.016,0,0,1-1.436,0l-1.523-1.523a1.013,1.013,0,0,1-.3-.717V19.392a1.016,1.016,0,1,1,2.031,0V21.51l1.226,1.226A1.016,1.016,0,0,1,24.171,24.17Z" transform="translate(8.013 8.013)" fill="#4b3e2c"/>
  <path id="Path_45880" data-name="Path 45880" d="M31.337,9.869c-5.329-2.995-8.933-1.9-11.156-.163-2.223-1.736-5.827-2.832-11.156.163A2.022,2.022,0,0,0,8,11.635V26.972a2.024,2.024,0,0,0,2.517,1.969,16.319,16.319,0,0,1,7.075-.426,8.606,8.606,0,0,1-.437-2.112,13.148,13.148,0,0,0-1.918-.132,21.537,21.537,0,0,0-5.207.7L10.02,11.635c3.776-2.121,6.771-2.142,9.146-.111V20.2a8.631,8.631,0,0,1,2.03-1.756V11.524c2.375-2.03,5.37-2.01,9.135.111v6.821a8.36,8.36,0,0,1,2.03,1.746V11.635a2.034,2.034,0,0,0-1.025-1.766Z" transform="translate(4.181 4.179)" fill="#4b3e2c"/>
</svg>
