<svg xmlns="http://www.w3.org/2000/svg" width="21.464" height="22.879" viewBox="0 0 21.464 22.879">
  <g id="Group_51708" data-name="Group 51708" transform="translate(-11.1 -9.4)">
    <path id="Path_42472" data-name="Path 42472" d="M22.731,18.822h.25V19.4h1.248v-.582H24.4a1.386,1.386,0,0,0,1.331-1.414v-.915A1.335,1.335,0,0,0,24.4,15.078H22.731a.29.29,0,0,1-.083-.166V14c0-.083,0-.166.083-.166H24.4a.29.29,0,0,1,.083.166v.416h1.248V14A1.335,1.335,0,0,0,24.4,12.582h-.25V12H22.9v.582h-.166a1.336,1.336,0,0,0-.915.416A1.582,1.582,0,0,0,21.4,14.08V15a1.335,1.335,0,0,0,1.331,1.414H24.4a.29.29,0,0,1,.083.166v.915a.29.29,0,0,1-.083.166H22.731a.29.29,0,0,1-.083-.166v-.416H21.4v.416a1.368,1.368,0,0,0,1.331,1.331Z" transform="translate(-1.731 -0.437)"/>
    <path id="Path_42473" data-name="Path 42473" d="M21.832,21.131a5.93,5.93,0,0,0,5.907-5.907A5.859,5.859,0,0,0,21.832,9.4a5.93,5.93,0,0,0-5.907,5.907A5.859,5.859,0,0,0,21.832,21.131Zm0-10.483a4.651,4.651,0,0,1,4.659,4.659,4.581,4.581,0,0,1-4.659,4.576,4.651,4.651,0,0,1-4.659-4.659A4.581,4.581,0,0,1,21.832,10.648ZM27.739,21.3H25.826a.635.635,0,0,0-.416.166l-3.577,3.161-3.577-3.161a.635.635,0,0,0-.416-.166H15.925A4.829,4.829,0,0,0,11.1,26.122v4.409a1.757,1.757,0,0,0,1.747,1.747h17.97a1.757,1.757,0,0,0,1.747-1.747V26.122A4.829,4.829,0,0,0,27.739,21.3ZM21.25,31.031h-8.4a.537.537,0,0,1-.5-.5V26.122a3.6,3.6,0,0,1,3.577-3.577h1.664l3.577,3.161v5.325Zm10.067-.5a.537.537,0,0,1-.5.5H22.5V25.706l3.577-3.161h1.664a3.6,3.6,0,0,1,3.577,3.577v4.409Z"/>
  </g>
</svg>
