<svg id="Group_53584" data-name="Group 53584" xmlns="http://www.w3.org/2000/svg" width="45" height="45" viewBox="0 0 45 45">
  <circle id="Ellipse_2094" data-name="Ellipse 2094" cx="22.5" cy="22.5" r="22.5" fill="#c9c9ca" opacity="0.94"/>
  <g id="Group_52427" data-name="Group 52427" transform="translate(19.572 15.472)">
    <path id="Path_44007" data-name="Path 44007" d="M195.4,130.107V118.369a.641.641,0,0,1,.986-.54l9.175,5.869a.641.641,0,0,1,0,1.08l-9.175,5.869A.641.641,0,0,1,195.4,130.107Z" transform="translate(-195.151 -117.482)" fill="#fff"/>
    <path id="Path_44008" data-name="Path 44008" d="M180.8,115.524v-11.76a.376.376,0,0,1,0-.043c0,.053,0,.008,0-.007s.017-.059.025-.088c-.017.05,0,.008,0,0s.021-.04.035-.059.015-.021.021-.031c-.03.041-.01.013,0,0s.045-.045.069-.066c-.04.035-.01.007,0,0l.041-.025.035-.018c.048-.026-.036.01.012,0,.031-.008.061-.018.092-.025.056-.015-.033,0,0,0a.463.463,0,0,0,.048,0,.32.32,0,0,1,.04,0s.064.012.026,0l.026.007a.587.587,0,0,1,.058.018c.043.013.008,0,0,0l.056.03.018.012,0,0,.071.045.37.236,1.443.923,2.033,1.3q1.078.689,2.157,1.379l1.856,1.187q.552.354,1.106.707c.036.023.071.046.107.068l.025.015,0,0,.036.025c-.038-.03,0,0,.007.008s.033.035.05.051.02.036,0,0c.007.012.015.021.021.033s.018.035.028.053.012.041,0,0c.01.031.02.061.028.094a.311.311,0,0,1,.007.038c-.01-.063,0,0,0,.012s-.008.116,0,.05a.6.6,0,0,1-.021.094.234.234,0,0,1-.013.036c.017-.051,0-.01,0,0a.365.365,0,0,1-.025.043c0,.007-.043.059-.008.015a1,1,0,0,1-.071.074c-.007.007-.036.03,0,0l-.036.025,0,0-.021.013-.842.538-1.7,1.087-2.134,1.364-2.1,1.343q-.82.525-1.64,1.049c-.244.157-.487.315-.733.469-.026.017-.053.031-.081.046.041-.021.012,0,0,0l-.05.015c-.017,0-.033.007-.05.012.045-.013.025,0,.007,0a.956.956,0,0,1-.1,0c-.046,0,0,0,.008,0-.018,0-.038-.007-.056-.012s-.087-.03-.061-.018-.043-.023-.056-.031-.026-.02-.04-.026c-.031-.015.038.038,0,0-.023-.023-.046-.045-.068-.069.035.038-.007-.012-.018-.028s-.018-.035-.028-.051-.01-.04,0,0c-.008-.033-.02-.064-.028-.1,0-.013,0-.045,0,0a.227.227,0,0,0,0-.059.248.248,0,0,0-.5,0,.89.89,0,0,0,1.361.753c.061-.038.122-.078.182-.117l1.2-.77,1.937-1.239,2.2-1.405,2-1.28q.674-.431,1.349-.864l.282-.18a.961.961,0,0,0,.239-.208.9.9,0,0,0,.109-.95,1.064,1.064,0,0,0-.424-.426l-.4-.254-1.509-.966-2.082-1.333-2.188-1.4-1.828-1.169-1-.639a.962.962,0,0,0-.748-.159.9.9,0,0,0-.685.9v11.712a.251.251,0,0,0,.248.248A.258.258,0,0,0,180.8,115.524Z" transform="translate(-180.3 -102.899)" fill="#fff"/>
  </g>
</svg>
