<svg xmlns="http://www.w3.org/2000/svg" width="65" height="65" viewBox="0 0 65 65">
  <g id="Group_14" data-name="Group 14" transform="translate(0.462 0.532)">
    <path id="Path_6319" data-name="Path 6319" d="M32.5,0A32.5,32.5,0,1,1,0,32.5,32.5,32.5,0,0,1,32.5,0Z" transform="translate(-0.462 -0.533)" fill="#30c768" opacity="0.7"/>
    <path id="Path_1" data-name="Path 1" d="M-2911.143,547.359a1.5,1.5,0,0,1,.8,1.368,1.494,1.494,0,0,1-.8,1.367l-11.738,6.936a1.486,1.486,0,0,1-1.585.017,1.48,1.48,0,0,1-.816-1.384V541.791a1.453,1.453,0,0,1,.851-1.417,1.464,1.464,0,0,1,1.55.049Z" transform="translate(2950.15 -516.626)" fill="#fff"/>
  </g>
</svg>
