<svg xmlns="http://www.w3.org/2000/svg" width="65.854" height="78.874" viewBox="0 0 65.854 78.874">
  <g id="Group_52854" data-name="Group 52854" transform="translate(-11.48 -1)">
    <path id="Path_44155" data-name="Path 44155" d="M11.74,62.72V69.6h6.951l-.216-5.034Z" transform="translate(-0.1 -23.688)" fill="#e4574d"/>
    <path id="Path_44156" data-name="Path 44156" d="M19.626,55.768h-3.82a4.166,4.166,0,1,0,0,8.325h3.82a.111.111,0,0,0,.111-.1V55.873A.111.111,0,0,0,19.626,55.768Z" transform="translate(0 -21.019)" fill="#cf4c44"/>
    <path id="Path_44157" data-name="Path 44157" d="M81.406,21.335V73.1a6.778,6.778,0,0,1-6.778,6.778H28.948A6.778,6.778,0,0,1,22.17,73.1V7.778A6.778,6.778,0,0,1,28.948,1H61.1Z" transform="translate(-4.103)" fill="#e5e6e8"/>
    <rect id="Rectangle_20672" data-name="Rectangle 20672" width="41.434" height="24.605" transform="translate(18.067 45.114)" fill="#cdd1d4"/>
    <path id="Path_44158" data-name="Path 44158" d="M85.35,17.858a6.778,6.778,0,0,0,6.778,6.778h13.556V22.609L85.35,4.32Z" transform="translate(-28.351 -1.274)" fill="#cdd1d4" opacity="0.35"/>
    <path id="Path_44159" data-name="Path 44159" d="M59.581,93.885H15.714a4.024,4.024,0,0,1-4.024-4.024l.031-20.581H59.581Z" transform="translate(-0.081 -26.206)" fill="#e4574d"/>
    <path id="Path_44160" data-name="Path 44160" d="M85.35,14.557a6.778,6.778,0,0,0,6.778,6.778h13.556L85.35,1Z" transform="translate(-28.351)" fill="#cdd1d4"/>
    <path id="Path_44161" data-name="Path 44161" d="M27.91,91.236V80.083h3.611a13.244,13.244,0,0,1,2.681.166,2.927,2.927,0,0,1,1.6,1.091,3.451,3.451,0,0,1,.647,2.169,3.7,3.7,0,0,1-.37,1.732,3.081,3.081,0,0,1-.949,1.1,3.26,3.26,0,0,1-1.171.53,12.942,12.942,0,0,1-2.335.16H30.159v4.209Zm2.249-9.243v3.161h1.232a5.854,5.854,0,0,0,1.781-.173,1.423,1.423,0,0,0,.7-.548,1.59,1.59,0,0,0-.1-1.849,1.608,1.608,0,0,0-.906-.493,11.194,11.194,0,0,0-1.621-.074Zm8.165,9.243V80.083h2.194l4.566,7.444V80.083h2.089V91.236H44.911l-4.492-7.277v7.277Zm16.422-4.1V85.284H59.6V89.7a6.162,6.162,0,0,1-2.052,1.232,7.555,7.555,0,0,1-2.724.524,6.162,6.162,0,0,1-3.081-.733,4.708,4.708,0,0,1-1.923-2.132,6.778,6.778,0,0,1-.653-2.97,6.415,6.415,0,0,1,.727-3.081,4.93,4.93,0,0,1,2.138-2.077,5.786,5.786,0,0,1,2.674-.555,5.33,5.33,0,0,1,3.241.869,3.913,3.913,0,0,1,1.5,2.409l-2.237.419a2.379,2.379,0,0,0-.906-1.313,2.687,2.687,0,0,0-1.6-.481,3.081,3.081,0,0,0-2.348.937,3.919,3.919,0,0,0-.875,2.761,4.369,4.369,0,0,0,.881,2.976,2.945,2.945,0,0,0,2.317.992A3.888,3.888,0,0,0,56.1,89.2a4.788,4.788,0,0,0,1.232-.672V87.108Z" transform="translate(-6.306 -30.28)" fill="#fff"/>
  </g>
</svg>
