<svg id="Group_48027" data-name="Group 48027" xmlns="http://www.w3.org/2000/svg" width="79" height="82" viewBox="0 0 79 82">
  <rect id="Rectangle_17460" data-name="Rectangle 17460" width="79" height="82" rx="11" fill="#fff"/>
  <g id="Group_39929" data-name="Group 39929" transform="translate(12 11)">
    <g id="Group_39925" data-name="Group 39925">
      <rect id="Rectangle_17460-2" data-name="Rectangle 17460" width="54" height="60" rx="11" fill="#00be55"/>
    </g>
    <g id="Group_39926" data-name="Group 39926" transform="translate(19.104 23.711)">
      <g id="next_6_" data-name="next (6)" transform="translate(9 0)">
        <g id="Group_37247" data-name="Group 37247" transform="translate(0)">
          <path id="Path_28684" data-name="Path 28684" d="M117.886,6.634l5.817,5.8a.488.488,0,0,0,.688-.69L118.92,6.289,124.392.833a.488.488,0,0,0-.689-.69l-5.817,5.8a.487.487,0,0,0,0,.69Z" transform="translate(-117.742 0)" fill="#00be55" stroke="#fff" stroke-width="1"/>
        </g>
      </g>
      <g id="next_6_2" data-name="next (6)" transform="translate(0 0)">
        <g id="Group_37247-2" data-name="Group 37247" transform="translate(0)">
          <path id="Path_28684-2" data-name="Path 28684" d="M117.886,6.634l5.817,5.8a.488.488,0,0,0,.688-.69L118.92,6.289,124.392.833a.488.488,0,0,0-.689-.69l-5.817,5.8a.487.487,0,0,0,0,.69Z" transform="translate(-117.742 0)" fill="#00be55" stroke="#fff" stroke-width="1"/>
        </g>
      </g>
    </g>
  </g>
</svg>
