<svg xmlns="http://www.w3.org/2000/svg" width="20.018" height="14.596" viewBox="0 0 20.018 14.596">
  <path id="Path_52978" data-name="Path 52978" d="M28.018,21.8a1.043,1.043,0,0,1-1.043,1.043h-12.5l4.267,4.267a1.043,1.043,0,0,1-1.475,1.475l-6.046-6.046a1.046,1.046,0,0,1-.131-.161c-.016-.024-.027-.05-.04-.075a.614.614,0,0,1-.087-.207c-.009-.03-.021-.06-.027-.091a1.047,1.047,0,0,1,0-.408c.007-.032.018-.061.028-.092a.615.615,0,0,1,.087-.207c.014-.025.025-.051.04-.075a1.046,1.046,0,0,1,.131-.16l6.046-6.046a1.043,1.043,0,0,1,1.475,1.475l-4.267,4.267h12.5A1.043,1.043,0,0,1,28.018,21.8ZM9.043,14.5A1.043,1.043,0,0,0,8,15.543V28.054a1.043,1.043,0,1,0,2.085,0V15.543A1.043,1.043,0,0,0,9.043,14.5Z" transform="translate(-8 -14.5)" fill="#044783"/>
</svg>
