<svg xmlns="http://www.w3.org/2000/svg" width="56.349" height="55.263" viewBox="0 0 56.349 55.263">
  <g id="Group_1297" data-name="Group 1297" transform="translate(-5 -5.867)">
    <path id="Path_6231" data-name="Path 6231" d="M80.259,65.45l-2.635.021A9.526,9.526,0,0,0,76.9,63.9a9.687,9.687,0,0,0-1.016-1.4l1.3-2.289A12,12,0,0,0,71.7,57.09l-1.3,2.3a9.357,9.357,0,0,0-3.449.027l-1.337-2.276a11.627,11.627,0,0,0-5.435,3.193L61.517,62.6a9.357,9.357,0,0,0-1.7,3l-2.638.018a11.968,11.968,0,0,0,.049,6.3l2.632-.019a9.107,9.107,0,0,0,1.748,2.975l-1.3,2.29a11.958,11.958,0,0,0,5.48,3.115l1.3-2.295a9.425,9.425,0,0,0,3.447-.023l1.334,2.272A11.64,11.64,0,0,0,77.3,77.044l-1.334-2.272a9.483,9.483,0,0,0,1.7-3l2.639-.019A11.957,11.957,0,0,0,80.259,65.45Z" transform="translate(-19.36 -19.152)" fill="#b3ccff" fill-rule="evenodd"/>
    <path id="Path_6232" data-name="Path 6232" d="M76.723,73.213a2.5,2.5,0,1,1-3.238-1.431A2.505,2.505,0,0,1,76.723,73.213Z" transform="translate(-25.008 -24.582)" fill="#fff" fill-rule="evenodd"/>
    <path id="Path_6233" data-name="Path 6233" d="M40.212,25.621l-3.784-.795a12.862,12.862,0,0,0-1.515-4.758l2.628-2.837a17.253,17.253,0,0,0-6.823-6.127L28.087,13.95a13.834,13.834,0,0,0-4.953-1.041L21.974,9.27a17.432,17.432,0,0,0-8.86,2.822l1.159,3.64a13.755,13.755,0,0,0-3.437,3.712l-3.794-.8A17.269,17.269,0,0,0,5.018,27.59l3.784.794a12.962,12.962,0,0,0,1.515,4.758L7.69,35.978a17.26,17.26,0,0,0,6.826,6.13l2.633-2.844A13.926,13.926,0,0,0,22.1,40.307l1.158,3.637a17.491,17.491,0,0,0,8.86-2.821l-1.158-3.637A14.017,14.017,0,0,0,34.4,33.771l3.792.8A17.23,17.23,0,0,0,40.212,25.621Z" transform="translate(0 -1.272)" fill="#4080ff" fill-rule="evenodd"/>
    <path id="Path_6234" data-name="Path 6234" d="M31.334,39.485a7.513,7.513,0,1,1,4.328-9.7A7.515,7.515,0,0,1,31.334,39.485Z" transform="translate(-6.032 -7.137)" fill="#fff" fill-rule="evenodd"/>
    <path id="Path_6235" data-name="Path 6235" d="M60.308,14.791l-4.89-8.485a.876.876,0,0,0-1.2-.321L45.767,10.87a.877.877,0,1,0,.877,1.518l6.7-3.872C47.164,32.994,32.005,48.742,14.474,48.742H6.088a.877.877,0,0,0,0,1.753h8.387c18.325,0,34.12-16.2,40.531-41.393l3.784,6.565a.876.876,0,0,0,1.518-.876ZM26.8,26.7H22.486a.876.876,0,0,1-.877-.877V20.369a.877.877,0,0,1,1.753,0v4.582H26.8a.877.877,0,0,1,0,1.753Z" transform="translate(-0.079)" fill="#494949"/>
  </g>
</svg>
