<svg xmlns="http://www.w3.org/2000/svg" width="50" height="50" viewBox="0 0 50 50">
  <g id="Group_51803" data-name="Group 51803" transform="translate(-457 -225)">
    <circle id="Ellipse_1720" data-name="Ellipse 1720" cx="25" cy="25" r="25" transform="translate(457 225)" fill="#f9bb1d"/>
    <g id="Group_55276" data-name="Group 55276" transform="translate(466.44 234.36)">
      <path id="Path_42590" data-name="Path 42590" d="M12.367,22.154H6.182a1.816,1.816,0,0,1-1.811-1.811V11.55h20.72v1.223a.906.906,0,1,0,1.811,0V8.262A3.621,3.621,0,0,0,23.28,4.64H6.182A3.621,3.621,0,0,0,2.56,8.262v12.08a3.621,3.621,0,0,0,3.622,3.622h6.185a.906.906,0,1,0,0-1.811ZM6.182,6.451h17.1a1.816,1.816,0,0,1,1.811,1.811V9.738H4.371V8.262A1.816,1.816,0,0,1,6.182,6.451Z" fill="#423739"/>
      <path id="Path_42591" data-name="Path 42591" d="M22.589,15a6.339,6.339,0,1,0,6.339,6.339A6.346,6.346,0,0,0,22.589,15Zm0,10.867a4.528,4.528,0,1,1,4.528-4.528A4.53,4.53,0,0,1,22.589,25.867Z" transform="translate(-1.293 -0.978)" fill="#423739"/>
      <path id="Path_42592" data-name="Path 42592" d="M24.061,21.277v-2.1a.906.906,0,1,0-1.811,0v2.472a.935.935,0,0,0,.263.643l1.648,1.648a.889.889,0,0,0,.643.263.928.928,0,0,0,.643-.263.9.9,0,0,0,0-1.277L24.07,21.277Z" transform="translate(-1.859 -1.287)" fill="#423739"/>
    </g>
  </g>
</svg>
