<svg xmlns="http://www.w3.org/2000/svg" width="22.872" height="14.839" viewBox="0 0 22.872 14.839">
  <g id="Group_52104" data-name="Group 52104" transform="translate(-2.961 -13.359)">
    <path id="Path_43769" data-name="Path 43769" d="M3.723,18.326a.386.386,0,0,1-.128-.75L14.29,13.734a.386.386,0,0,1,.263.727L3.855,18.3A.387.387,0,0,1,3.723,18.326Z" transform="translate(-0.017)" fill="#222" stroke="#222" stroke-width="0.7"/>
    <path id="Path_43770" data-name="Path 43770" d="M14.4,22.167a.386.386,0,0,1-.131-.023L3.579,18.3a.386.386,0,1,1,.263-.727l10.694,3.842a.387.387,0,0,1-.135.75Zm10.694-3.842a.386.386,0,0,1-.131-.023L14.269,14.461a.386.386,0,0,1,.263-.727l10.69,3.842a.386.386,0,0,1-.131.75Z" transform="translate(0 0)" fill="#222" stroke="#222" stroke-width="0.7"/>
    <path id="Path_43771" data-name="Path 43771" d="M16.049,28.278a.387.387,0,0,1-.131-.75l10.694-3.842a.386.386,0,0,1,.259.727L16.18,28.255a.387.387,0,0,1-.131.023ZM6.386,30.786A.386.386,0,0,1,6,30.4V24.425a.386.386,0,1,1,.773,0V30.4A.386.386,0,0,1,6.386,30.786Z" transform="translate(-1.648 -6.11)" fill="#222" stroke="#222" stroke-width="0.7"/>
    <path id="Path_43772" data-name="Path 43772" d="M5.9,38.59H4.176A.386.386,0,0,1,3.79,38.2V36.271a1.248,1.248,0,1,1,2.5,0V38.2A.386.386,0,0,1,5.9,38.59Zm-1.337-.773h.951V36.271a.475.475,0,1,0-.951,0Zm10.13.68a10.8,10.8,0,0,1-7.127-2.454.386.386,0,0,1-.12-.282V31.606a.386.386,0,0,1,.773,0v3.981a10.435,10.435,0,0,0,6.474,2.137.386.386,0,0,1,0,.773Z" transform="translate(-0.292 -10.742)" fill="#222" stroke="#222" stroke-width="0.7"/>
    <path id="Path_43773" data-name="Path 43773" d="M31.386,38.5a.386.386,0,1,1,0-.773,10.435,10.435,0,0,0,6.474-2.137V31.606a.386.386,0,0,1,.773,0v4.166a.386.386,0,0,1-.12.282A10.806,10.806,0,0,1,31.386,38.5Z" transform="translate(-16.986 -10.742)" fill="#222" stroke="#222" stroke-width="0.7"/>
  </g>
</svg>
