<svg xmlns="http://www.w3.org/2000/svg" width="424.35" height="299.346" viewBox="0 0 424.35 299.346">
  <g id="Group_55152" data-name="Group 55152" transform="translate(-109.475 -82.907)">
    <path id="Path_52104" data-name="Path 52104" d="M408.395,405.5a.339.339,0,0,1-.153-.037q-.7-.353-1.366-.758a.341.341,0,1,1,.354-.583q.645.392,1.32.732a.342.342,0,0,1-.154.646Zm-3.834-2.534a.339.339,0,0,1-.219-.08,22.866,22.866,0,0,1-2.243-2.16.341.341,0,1,1,.505-.459,22.271,22.271,0,0,0,2.176,2.1.341.341,0,0,1-.219.6Zm-4.127-4.522a.341.341,0,0,1-.279-.144,29.381,29.381,0,0,1-1.655-2.627.341.341,0,0,1,.6-.333,28.8,28.8,0,0,0,1.617,2.566.342.342,0,0,1-.278.539Zm-3-5.343a.341.341,0,0,1-.312-.2q-.626-1.418-1.131-2.885a.342.342,0,0,1,.645-.223q.5,1.438,1.11,2.831a.342.342,0,0,1-.312.479Zm-2.01-5.8a.342.342,0,0,1-.33-.255q-.391-1.5-.677-3.019a.341.341,0,1,1,.671-.126q.281,1.5.667,2.972a.341.341,0,0,1-.33.428Zm-1.139-6.027a.342.342,0,0,1-.339-.3c-.122-1.013-.213-2.049-.271-3.078a.342.342,0,0,1,.682-.039c.057,1.015.148,2.036.268,3.035a.342.342,0,0,1-.34.382Zm-.349-6.125h0a.342.342,0,0,1-.34-.343c.005-1.026.042-2.066.109-3.09a.342.342,0,0,1,.6-.2.341.341,0,0,1,.084.248c-.067,1.01-.1,2.036-.108,3.048A.341.341,0,0,1,393.932,375.148Zm.4-6.125a.342.342,0,0,1-.339-.385c.13-1.021.294-2.048.487-3.053a.342.342,0,0,1,.671.129c-.19.991-.352,2-.48,3.011A.342.342,0,0,1,394.335,369.023ZM395.493,363a.342.342,0,0,1-.331-.428q.389-1.5.879-2.966a.341.341,0,1,1,.648.217q-.482,1.445-.865,2.921A.341.341,0,0,1,395.493,363Zm1.948-5.819a.341.341,0,0,1-.315-.473q.594-1.43,1.3-2.811a.341.341,0,0,1,.608.31q-.691,1.357-1.276,2.763A.341.341,0,0,1,397.441,357.176Zm33.24-2.36h-.015a9.781,9.781,0,0,1-1.156-.121,8.076,8.076,0,0,1-1.941-.588.342.342,0,0,1,.275-.625,7.39,7.39,0,0,0,1.776.539,9.09,9.09,0,0,0,1.075.113.342.342,0,0,1-.015.683Zm3.017-.438a.341.341,0,0,1-.116-.663,6.821,6.821,0,0,0,2.459-1.54.342.342,0,1,1,.476.49,7.5,7.5,0,0,1-2.7,1.693A.342.342,0,0,1,433.7,354.378Zm-8.57-1.889a.341.341,0,0,1-.221-.081,14.8,14.8,0,0,1-2.156-2.28.342.342,0,1,1,.542-.416,14.121,14.121,0,0,0,2.055,2.175.341.341,0,0,1-.221.6Zm-24.9-.776a.342.342,0,0,1-.29-.521q.816-1.319,1.747-2.561a.342.342,0,1,1,.546.41q-.912,1.216-1.712,2.51A.343.343,0,0,1,400.233,351.713ZM438,350.244a.341.341,0,0,1-.313-.477,8.19,8.19,0,0,0,.665-2.856.342.342,0,1,1,.682.035,8.868,8.868,0,0,1-.721,3.093A.341.341,0,0,1,438,350.244Zm-16.619-2.575a.341.341,0,0,1-.3-.185,19.082,19.082,0,0,1-1.2-2.884.342.342,0,0,1,.65-.211,18.43,18.43,0,0,0,1.155,2.781.342.342,0,0,1-.3.5Zm-17.464-.855a.341.341,0,0,1-.252-.572,30.376,30.376,0,0,1,2.206-2.182.342.342,0,1,1,.454.51,29.521,29.521,0,0,0-2.156,2.132A.342.342,0,0,1,403.92,346.814Zm34.388-2.574a.341.341,0,0,1-.325-.239,8.171,8.171,0,0,0-1.373-2.589.342.342,0,0,1,.537-.422,8.846,8.846,0,0,1,1.487,2.8.342.342,0,0,1-.325.445Zm-29.811-1.5a.342.342,0,0,1-.2-.619,28.05,28.05,0,0,1,2.623-1.662.341.341,0,0,1,.333.6,27.529,27.529,0,0,0-2.559,1.621A.337.337,0,0,1,408.5,342.743Zm11-.891a.342.342,0,0,1-.337-.29,19.945,19.945,0,0,1-.232-3.026v-.088a.342.342,0,0,1,.342-.338h0a.342.342,0,0,1,.338.346v.08a19.223,19.223,0,0,0,.224,2.922.341.341,0,0,1-.338.394Zm-5.655-2.093a.341.341,0,0,1-.132-.656,28.526,28.526,0,0,1,2.923-1.043.342.342,0,0,1,.194.655,27.866,27.866,0,0,0-2.853,1.018A.348.348,0,0,1,413.845,339.759Zm20.773-.27a.343.343,0,0,1-.187-.056,11.614,11.614,0,0,0-2.682-1.28.342.342,0,0,1,.216-.648,12.294,12.294,0,0,1,2.84,1.356.342.342,0,0,1-.187.628ZM419.714,338a.342.342,0,0,1-.067-.676q1.518-.308,3.059-.49a.341.341,0,1,1,.079.678c-.964.112-1.973.274-3,.481A.355.355,0,0,1,419.714,338Zm9.155-.506a.329.329,0,0,1-.046,0,21.251,21.251,0,0,0-2.789-.176h-.227a.342.342,0,0,1,0-.683h.23a21.994,21.994,0,0,1,2.879.182.341.341,0,0,1-.045.68Zm-9.344-1.757a.342.342,0,0,1-.337-.4,20.875,20.875,0,0,1,.727-3.032.342.342,0,0,1,.65.208,20.208,20.208,0,0,0-.7,2.933A.342.342,0,0,1,419.525,335.737Zm252.446-2.469a.342.342,0,0,1,0-.683q1.533-.009,3.066-.038h.007a.342.342,0,0,1,.007.683q-1.537.029-3.075.038Zm-3.07,0h0q-1.537-.01-3.075-.036a.341.341,0,0,1,.007-.683h.006q1.55.027,3.067.036a.341.341,0,0,1,0,.683Zm-6.142-.1h-.01q-1.522-.04-3.073-.1a.341.341,0,0,1,.025-.682q1.548.056,3.067.1a.342.342,0,1,1-.009.683Zm15.352-.014a.341.341,0,0,1-.012-.682c1.039-.036,2.069-.079,3.062-.13a.342.342,0,1,1,.035.682q-1.536.078-3.073.13Zm-21.492-.2H656.6q-1.524-.067-3.071-.147a.342.342,0,0,1,.036-.682q1.545.079,3.066.147a.342.342,0,0,1-.015.683Zm27.625-.111a.342.342,0,0,1-.024-.682c1.039-.073,2.066-.156,3.053-.248a.342.342,0,0,1,.063.681c-.992.092-2.025.176-3.068.249h-.025Zm-33.761-.2h-.021q-1.523-.089-3.068-.189a.342.342,0,0,1-.319-.363.348.348,0,0,1,.363-.319q1.542.1,3.064.189a.342.342,0,0,1-.02.683Zm39.876-.367a.342.342,0,0,1-.04-.681c1.036-.123,2.057-.26,3.034-.405a.342.342,0,0,1,.1.676c-.983.147-2.011.284-3.054.408l-.041,0Zm-46.006-.029a1.728,1.728,0,0,1-3.4-.592.336.336,0,0,1,.366-.314q1.54.117,3.062.225a.342.342,0,0,1-.024.682Zm-6.127-.465H638.2q-1.523-.124-3.063-.256a.341.341,0,1,1,.058-.68q1.538.132,3.06.255a.342.342,0,0,1-.027.682Zm58.2-.419a.342.342,0,0,1-.062-.677q1.5-.279,2.991-.624a.342.342,0,0,1,.155.665c-.964.224-1.979.436-3.02.63A.385.385,0,0,1,696.431,331.349Zm-64.326-.1h-.031q-1.522-.137-3.06-.282a.342.342,0,0,1-.308-.372.338.338,0,0,1,.372-.308q1.536.144,3.057.281a.342.342,0,0,1-.03.681Zm-6.117-.575-.034,0q-1.523-.149-3.058-.3a.341.341,0,0,1-.305-.374.345.345,0,0,1,.374-.305q1.534.156,3.056.3a.341.341,0,0,1-.033.681Zm-6.112-.618-.036,0q-1.522-.159-3.055-.324a.342.342,0,1,1,.073-.679q1.532.165,3.054.324a.341.341,0,0,1-.035.681Zm82.531-.1a.342.342,0,0,1-.095-.669q1.463-.423,2.9-.946a.341.341,0,0,1,.236.641q-1.453.531-2.94.961a.344.344,0,0,1-.1.014Zm-281.026-.041a.341.341,0,0,1-.307-.491,24.174,24.174,0,0,1,1.537-2.7.341.341,0,1,1,.571.375,23.465,23.465,0,0,0-1.494,2.628A.341.341,0,0,1,421.382,329.909Zm192.386-.514-.037,0q-1.522-.168-3.054-.341a.342.342,0,1,1,.076-.679q1.53.172,3.052.341a.342.342,0,0,1-.037.681Zm-6.1-.69-.04,0-3.052-.355a.342.342,0,0,1,.079-.678l3.051.356a.341.341,0,0,1-.039.68Zm-6.1-.718-.041,0q-1.523-.182-3.05-.368a.342.342,0,1,1,.083-.679q1.527.185,3.049.368a.342.342,0,0,1-.041.681Zm106.6-.172a.342.342,0,0,1-.146-.65,25.4,25.4,0,0,0,2.657-1.448.342.342,0,1,1,.364.577,26.189,26.189,0,0,1-2.729,1.488A.336.336,0,0,1,708.158,327.816Zm-112.694-.568-.042,0-3.048-.379a.341.341,0,1,1,.084-.677l3.048.378a.341.341,0,0,1-.042.681Zm-6.1-.761-.043,0-3.048-.387a.342.342,0,1,1,.087-.678l3.046.387a.342.342,0,0,1-.042.681Zm-6.094-.778-.044,0-3.058-.4a.342.342,0,1,1,.088-.677l3.057.4a.342.342,0,0,1-.043.68Zm-6.112-.793-.045,0-3.052-.4a.341.341,0,0,1,.088-.677l3.052.4a.341.341,0,0,1-.044.68Zm-152.434-.134a.342.342,0,0,1-.262-.56,30.784,30.784,0,0,1,2.109-2.276.341.341,0,0,1,.477.488,30.07,30.07,0,0,0-2.062,2.225A.339.339,0,0,1,424.727,324.781Zm288.583-.26a.341.341,0,0,1-.226-.6,14.192,14.192,0,0,0,2.027-2.195.341.341,0,1,1,.549.406,14.85,14.85,0,0,1-2.124,2.3A.342.342,0,0,1,713.31,324.521Zm-142.25-.408a.343.343,0,0,1-.045,0l-3.047-.4a.341.341,0,0,1,.09-.677l3.046.4a.341.341,0,0,1-.044.68Zm-6.091-.807-.045,0-3.041-.4a.341.341,0,1,1,.09-.677l3.041.4a.341.341,0,0,1-.045.68Zm-6.082-.81a.342.342,0,0,1-.045,0l-3.037-.4a.341.341,0,0,1,.09-.677l3.037.4a.341.341,0,0,1-.045.68Zm-6.071-.808-.045,0-3.045-.405a.341.341,0,1,1,.09-.677l3.045.405a.341.341,0,0,1-.045.68Zm-6.09-.809-.045,0-3.045-.4a.342.342,0,0,1-.294-.383.337.337,0,0,1,.383-.294l3.046.4a.341.341,0,0,1-.045.68ZM429.1,320.486a.342.342,0,0,1-.217-.606q1.2-.979,2.47-1.865a.342.342,0,0,1,.391.56q-1.249.87-2.428,1.833a.339.339,0,0,1-.216.078Zm111.533-.411a.33.33,0,0,1-.045,0l-3.045-.4a.342.342,0,1,1,.088-.677l3.046.4a.341.341,0,0,1-.044.68Zm176.247-.465a.342.342,0,0,1-.316-.47c.135-.333.257-.679.361-1.028q.278-.924.506-1.862a.342.342,0,0,1,.664.161q-.232.955-.515,1.9c-.111.369-.24.735-.383,1.088a.342.342,0,0,1-.317.213Zm-182.339-.328-.044,0-3.046-.392a.341.341,0,0,1-.3-.382.347.347,0,0,1,.382-.3l3.047.392a.342.342,0,0,1-.044.68Zm-6.094-.78-.043,0-3.047-.384a.341.341,0,0,1-.3-.381.338.338,0,0,1,.381-.3l3.048.384a.342.342,0,0,1-.042.681Zm-6.1-.763-.042,0q-1.531-.189-3.049-.373a.341.341,0,0,1-.3-.381.337.337,0,0,1,.38-.3l3.05.374a.341.341,0,0,1-.042.681Zm-6.1-.741-.041,0q-1.532-.183-3.05-.361a.341.341,0,0,1-.3-.379.335.335,0,0,1,.379-.3q1.519.178,3.051.361a.342.342,0,0,1-.04.68Zm-82.128-.031a.342.342,0,0,1-.175-.635,18.647,18.647,0,0,1,2.817-1.35.342.342,0,0,1,.246.637,17.951,17.951,0,0,0-2.713,1.3A.341.341,0,0,1,434.126,316.967Zm76.026-.682-.039,0q-1.534-.175-3.052-.344a.341.341,0,0,1-.3-.377.346.346,0,0,1,.377-.3q1.518.169,3.054.345a.341.341,0,0,1-.038.681Zm-6.106-.68-.038,0q-1.536-.167-3.053-.326a.341.341,0,1,1,.071-.679q1.518.159,3.056.326a.342.342,0,0,1-.037.681Zm-6.111-.64-.035,0q-1.539-.156-3.056-.3a.341.341,0,0,1,.065-.68q1.518.146,3.059.3a.341.341,0,0,1-.034.681Zm-58.124-.263a.341.341,0,0,1-.088-.671q1.5-.4,3.018-.685a.342.342,0,0,1,.128.671c-1.049.2-2.048.427-2.969.673A.348.348,0,0,1,439.812,314.7Zm52.008-.328h-.032q-1.541-.142-3.058-.273a.341.341,0,0,1-.311-.37.335.335,0,0,1,.37-.31q1.518.131,3.062.273a.341.341,0,0,1-.031.681Zm-6.121-.531h-.028q-1.545-.125-3.061-.239a.341.341,0,1,1,.051-.681q1.517.113,3.065.239a.341.341,0,1,1-.027.682Zm232.648-.184a.342.342,0,0,1-.339-.39,28.1,28.1,0,0,0,.27-3.02.336.336,0,0,1,.353-.329.341.341,0,0,1,.329.353,28.8,28.8,0,0,1-.276,3.094.34.34,0,0,1-.337.293Zm-272.512-.128a.341.341,0,0,1-.046-.68q1.528-.207,3.064-.353a.341.341,0,1,1,.065.68c-1.055.1-2.077.219-3.037.35A.354.354,0,0,1,445.835,313.531Zm33.736-.145h-.023q-1.549-.1-3.063-.2a.342.342,0,0,1-.321-.361.347.347,0,0,1,.361-.321q1.517.091,3.069.2a.342.342,0,0,1-.023.683Zm-6.134-.364h-.018q-1.533-.078-3.066-.141a.341.341,0,0,1-.327-.355.331.331,0,0,1,.355-.327q1.515.062,3.073.141a.341.341,0,0,1-.017.683Zm-21.491-.083a.341.341,0,1,1-.021-.682c.987-.063,2.022-.115,3.075-.155a.333.333,0,0,1,.354.328.341.341,0,0,1-.328.354c-1.047.039-2.076.091-3.058.154Zm15.351-.165h-.01q-1.534-.045-3.067-.07a.342.342,0,0,1,.006-.683h.006q1.512.024,3.076.07a.342.342,0,0,1-.01.683Zm-9.215-.073a.342.342,0,0,1-.006-.683c.93-.016,1.906-.024,2.9-.024h.176a.342.342,0,1,1,0,.683h-.176c-.991,0-1.963.008-2.889.024Zm260.461-5.155a.341.341,0,0,1-.34-.312,23.9,23.9,0,0,0-.443-2.975.342.342,0,1,1,.668-.143,24.562,24.562,0,0,1,.456,3.061.342.342,0,0,1-.311.369h-.03Zm-1.278-5.954a.342.342,0,0,1-.322-.228,24.245,24.245,0,0,0-1.179-2.772.341.341,0,1,1,.611-.305,25.015,25.015,0,0,1,1.213,2.85.342.342,0,0,1-.322.455Zm-2.722-5.461a.342.342,0,0,1-.286-.154,29.094,29.094,0,0,0-1.79-2.44.342.342,0,0,1,.53-.432,29.92,29.92,0,0,1,1.831,2.5.341.341,0,0,1-.285.529Zm-3.855-4.751a.341.341,0,0,1-.244-.1q-1.066-1.085-2.215-2.083a.342.342,0,1,1,.448-.515q1.168,1.015,2.254,2.12a.342.342,0,0,1-.244.581Zm-4.62-4.033a.339.339,0,0,1-.205-.069q-1.218-.918-2.489-1.763a.342.342,0,0,1,.378-.569q1.287.856,2.523,1.787a.341.341,0,0,1-.206.614Zm-5.107-3.408a.342.342,0,0,1-.174-.048q-1.315-.779-2.664-1.5a.342.342,0,0,1,.321-.6q1.363.726,2.691,1.513a.341.341,0,0,1-.175.635Zm-5.418-2.9a.347.347,0,0,1-.148-.034q-1.378-.666-2.78-1.282a.341.341,0,0,1,.275-.625q1.412.621,2.8,1.292a.342.342,0,0,1-.149.649Zm-5.623-2.481a.344.344,0,0,1-.128-.025q-1.421-.573-2.858-1.1a.341.341,0,1,1,.237-.64c.981.363,1.949.738,2.876,1.112a.341.341,0,0,1-.128.658Zm-5.764-2.139a.348.348,0,0,1-.111-.018q-1.451-.5-2.913-.957a.341.341,0,0,1,.206-.651c.99.313,1.975.636,2.928.962a.342.342,0,0,1-.11.664Zm-5.856-1.852a.34.34,0,0,1-.1-.014q-1.472-.431-2.953-.833a.342.342,0,1,1,.179-.659c1,.271,2,.552,2.967.836a.342.342,0,0,1-.1.669Zm-5.943-1.615a.34.34,0,0,1-.084-.01q-1.488-.375-2.982-.725a.342.342,0,1,1,.156-.665c1,.234,2.008.479,2.994.728a.341.341,0,0,1-.083.673Zm-5.987-1.4a.356.356,0,0,1-.073-.007q-1.5-.327-3-.631a.341.341,0,0,1,.135-.669q1.51.305,3.015.633a.342.342,0,0,1-.072.675Zm-6.028-1.221a.354.354,0,0,1-.063-.006q-1.509-.284-3.022-.548a.342.342,0,1,1,.118-.673q1.5.262,3.031.55a.341.341,0,0,1-.063.677Zm-6.059-1.059a.316.316,0,0,1-.055,0q-1.516-.245-3.035-.472a.342.342,0,1,1,.1-.676q1.5.225,3.043.474a.342.342,0,0,1-.054.679Zm-6.085-.911-.047,0q-1.522-.21-3.046-.4a.342.342,0,0,1-.3-.381.346.346,0,0,1,.382-.3q1.5.19,3.054.4a.341.341,0,0,1-.047.679Zm-6.1-.772-.039,0q-1.571-.182-3.056-.337a.341.341,0,1,1,.072-.679q1.486.156,3.063.338a.341.341,0,0,1-.039.681Zm-6.123-.643-.032,0q-1.531-.144-3.064-.272a.341.341,0,0,1-.312-.368.337.337,0,0,1,.368-.312q1.459.121,3.071.273a.342.342,0,0,1-.032.681Zm-9.2-.841s-.255-.148-.255-.287.255-.27.255-.27,1.941.122,3.081.2a.4.4,0,0,1,.313.353c0,.12-.313.2-.313.2Zm-3.039-.034h-.016q-.764-.036-1.529-.06a.341.341,0,0,1-.332-.351.351.351,0,0,1,.351-.332s.54.015,1.54.06a.341.341,0,1,1-.015.682Z" transform="translate(-204.675 -110.376)" fill="#4f86d1"/>
    <path id="Path_52108" data-name="Path 52108" d="M258.75,294.7a2.764,2.764,0,0,1-.923-3.664,5.966,5.966,0,0,1,3.229-2.568,23.523,23.523,0,0,1,6.421-1.44q-3.011-.976-5.95-2.154-1.942-.776-3.848-1.637a16.019,16.019,0,0,1-6.47,6.744,3.784,3.784,0,0,1-3.413.509,2.775,2.775,0,0,1-.921-3.664,5.931,5.931,0,0,1,3.21-2.565,23.908,23.908,0,0,1,6.636-1.463,81.931,81.931,0,0,1-11.232-6.3,16.02,16.02,0,0,1-7.374,5.521,3.783,3.783,0,0,1-3.45-.038,2.775,2.775,0,0,1-.328-3.764,5.928,5.928,0,0,1,3.576-2.024,23.3,23.3,0,0,1,6.543-.4,36.718,36.718,0,0,1-9.843-9.4c-.052-.079-.1-.16-.153-.239a16.021,16.021,0,0,1-8.16,4.486,3.783,3.783,0,0,1-3.409-.53,2.775,2.775,0,0,1,.212-3.772,5.929,5.929,0,0,1,3.828-1.493,24.79,24.79,0,0,1,7.106.646c-2.782-4.45-4.755-9.433-7.685-13.78a16.02,16.02,0,0,1-8.272,4.6,3.784,3.784,0,0,1-3.41-.53,2.775,2.775,0,0,1,.212-3.772,5.929,5.929,0,0,1,3.828-1.493,25.344,25.344,0,0,1,7.3.685,27.72,27.72,0,0,0-2.475-3.074,21.3,21.3,0,0,0-6.538-4.665,16.014,16.014,0,0,1-6.911,6.775,3.785,3.785,0,0,1-3.431.366,2.775,2.775,0,0,1-.767-3.7,5.928,5.928,0,0,1,3.314-2.428,25.637,25.637,0,0,1,7.33-1.225,27.85,27.85,0,0,0-12.8-2.256,16.029,16.029,0,0,1-6.832,5.559,3.784,3.784,0,0,1-3.447.147,2.775,2.775,0,0,1-.53-3.741,5.928,5.928,0,0,1,3.462-2.212,23.057,23.057,0,0,1,6.409-.753.563.563,0,0,1,.25-.08,29.031,29.031,0,0,1,10.787,1.2q1.156.351,2.283.785a16.025,16.025,0,0,1-4.439-7.335,3.784,3.784,0,0,1,.306-3.437,2.775,2.775,0,0,1,3.778-.035,5.928,5.928,0,0,1,1.74,3.723,26.03,26.03,0,0,1-.237,7.559,21.43,21.43,0,0,1,4.386,2.523,24.285,24.285,0,0,1,5.142,5.469,16.024,16.024,0,0,1-.695-8.81,3.784,3.784,0,0,1,1.841-2.918,2.775,2.775,0,0,1,3.377,1.693,5.928,5.928,0,0,1-.151,4.106,26.7,26.7,0,0,1-3.782,6.792c2.281,3.445,4.035,7.3,6,10.887.618,1.129,1.262,2.232,1.963,3.294a16.013,16.013,0,0,1-1-9.519,3.785,3.785,0,0,1,1.837-2.921,2.775,2.775,0,0,1,3.379,1.689,5.927,5.927,0,0,1-.145,4.106,27.286,27.286,0,0,1-3.877,6.948,25.372,25.372,0,0,0,2.532,3.2,43.2,43.2,0,0,0,5.669,4.973q.8.6,1.628,1.173a16.025,16.025,0,0,1-1.976-8.479,3.784,3.784,0,0,1,1.37-3.167,2.775,2.775,0,0,1,3.6,1.153,5.928,5.928,0,0,1,.483,4.08,25.823,25.823,0,0,1-2.565,7.036,79.4,79.4,0,0,0,11,6.128,16.021,16.021,0,0,1-4.068-8.111,3.785,3.785,0,0,1,.633-3.392,2.775,2.775,0,0,1,3.764.326,5.928,5.928,0,0,1,1.376,3.871,26.458,26.458,0,0,1-.989,7.634q.759.345,1.524.678a91.026,91.026,0,0,0,8.572,3.233,16.022,16.022,0,0,1-3.905-7.937,3.786,3.786,0,0,1,.633-3.392,2.775,2.775,0,0,1,3.764.326,5.928,5.928,0,0,1,1.376,3.871,25.793,25.793,0,0,1-.939,7.421,71.1,71.1,0,0,0,10.174,2.338c.717.108.5,1.213-.216,1.105a71.388,71.388,0,0,1-10.271-2.371,16.1,16.1,0,0,1-6.523,6.773,3.828,3.828,0,0,1-3.433.512Z" transform="translate(-82.966 -89.229)" fill="#aecff5"/>
    <path id="Path_52109" data-name="Path 52109" d="M234.55,396.755c2.947-1.6,6.844-1,10.434-.277s7.443,1.477,10.546.15c5.485-2.357,9.7-10.806,7.908-16.422a6.611,6.611,0,0,0-.667-1.5,4.192,4.192,0,0,0,.438.065,7.37,7.37,0,0,0,.963.062l-44.216-29.44a23.5,23.5,0,0,0,1.5,6.439,11.539,11.539,0,0,0,6,6.341c1.864.746,4.309,1.13,5.031,2.911a16.83,16.83,0,0,1-11.039-1.723,21.181,21.181,0,0,0,2.919,6.722c1.5,2.032,3.994,3.663,6.4,3.485,1.681-.125,3.439-1.046,4.964-.088a2.574,2.574,0,0,1,.694,3.629,4.064,4.064,0,0,1-3.772,1.122,16.7,16.7,0,0,1-4.182-1.427,12.523,12.523,0,0,0-4.221-1.241c3.588,2.361,3.438,8.171,7.333,9.944a6.268,6.268,0,0,0,4.9-.134c1.495-.588,2.816-1.49,4.35-2.01a4.465,4.465,0,0,1,2.9-.158,2.455,2.455,0,0,1,1.813,2.182c-.09,1.283-1.647,1.731-2.9,2.1A11.511,11.511,0,0,0,234.55,396.755Zm6.367-18.65c-.056-.575.567-1.107,1.377-1.176s1.511.342,1.561.926-.567,1.107-1.377,1.176S240.966,378.689,240.917,378.105Z" transform="translate(-99.615 -161.24)" fill="#4f86d1"/>
    <path id="Path_52110" data-name="Path 52110" d="M219.955,341.783l44.216,29.44c5.826.019,12.043-6.261,12.372-12.276.187-3.381-1.861-6.739-3.759-9.855-1.918-3.129-3.832-6.581-3.335-9.9a11.5,11.5,0,0,0-5.921,10.8c.073,1.293.2,2.9-.967,3.428a2.466,2.466,0,0,1-2.693-.945,4.587,4.587,0,0,1-.847-2.783c-.027-1.616.357-3.169.408-4.775a6.292,6.292,0,0,0-1.576-4.64c-2.995-3.04-8.4-.912-11.847-3.462a12.579,12.579,0,0,0,2.61,3.533,16.416,16.416,0,0,1,2.776,3.432,4.115,4.115,0,0,1,.254,3.93,2.582,2.582,0,0,1-3.648.6c-1.427-1.106-1.167-3.067-1.628-4.689-.671-2.327-3.048-4.107-5.473-4.817a21.033,21.033,0,0,0-7.314-.417,16.883,16.883,0,0,1,5.42,9.759c-1.939-.061-3.128-2.224-4.47-3.712a11.537,11.537,0,0,0-8.025-3.449A23.79,23.79,0,0,0,219.955,341.783Zm47.751,11.986c-.6-1.491-.237-3.042.824-3.467s2.393.419,3,1.911.227,3.035-.824,3.467S268.3,355.255,267.706,353.77Zm-27.3-9.23c-.353-.871-.145-1.779.475-2.03s1.407.244,1.76,1.115a1.527,1.527,0,0,1-.492,2.034C241.531,345.9,240.745,345.4,240.4,344.539Z" transform="translate(-99.614 -153.635)" fill="#6195db"/>
    <path id="Path_52111" data-name="Path 52111" d="M438.781,113.92l5.3-.506,1.769,18.554-5.3.506Z" transform="translate(-232.019 -18.459)" fill="#28558f"/>
    <path id="Path_52112" data-name="Path 52112" d="M438.83,95.391a8.679,8.679,0,1,1-10.144-6.91A8.679,8.679,0,0,1,438.83,95.391Z" transform="translate(-221.637 -3.28)" fill="#326ab3"/>
    <path id="Path_52113" data-name="Path 52113" d="M492.558,176.627l-6.107-4.3,28.191-40.036,6.107,4.3Z" transform="translate(-260.863 -29.88)" fill="#28558f"/>
    <circle id="Ellipse_2227" data-name="Ellipse 2227" cx="56.852" cy="56.852" r="56.852" transform="matrix(0.707, -0.707, 0.707, 0.707, 135.896, 163.31)" fill="#326ab3"/>
    <circle id="Ellipse_2228" data-name="Ellipse 2228" cx="49.798" cy="49.798" r="49.798" transform="matrix(0.707, -0.707, 0.707, 0.707, 145.873, 163.31)" fill="#fff"/>
    <path id="Path_52114" data-name="Path 52114" d="M376.489,258.362a3.589,3.589,0,1,0-5,.868,3.589,3.589,0,0,0,5-.868Zm-17.052-27.737a2.094,2.094,0,1,0-2.917.507,2.093,2.093,0,0,0,2.917-.507Zm47.627,29.512a2.094,2.094,0,1,0,.507,2.917A2.094,2.094,0,0,0,407.065,260.138Zm29.512-47.628a2.094,2.094,0,1,0,2.917-.506A2.094,2.094,0,0,0,436.577,212.51ZM388.95,183a2.094,2.094,0,1,0-.506-2.917A2.094,2.094,0,0,0,388.95,183ZM434.8,243.086a3.59,3.59,0,1,0,.868,5A3.59,3.59,0,0,0,434.8,243.086Zm-15.276-58.313a3.589,3.589,0,1,0,5-.868,3.589,3.589,0,0,0-5,.868Zm-58.313,15.276a3.589,3.589,0,1,0-.868-5,3.589,3.589,0,0,0,.868,5Z" transform="translate(-181.708 -58.259)" fill="#c8cbe3"/>
    <path id="Path_52115" data-name="Path 52115" d="M476.389,217.231a16.494,16.494,0,0,1,.766-2.7,16.43,16.43,0,0,1-2.28,1.625c-1.046.617-1.659.817-1.813,1.366a1.31,1.31,0,0,0,.208,1.012l-19.252,27.315,1.419,1,19.251-27.315a1.3,1.3,0,0,0,1.022-.142c.465-.329.448-.975.678-2.169Z" transform="translate(-241.239 -79.644)" fill="#f3ca81"/>
    <path id="Path_52116" data-name="Path 52116" d="M433.792,284.312l.118-2.072-21.84-1.248a1.538,1.538,0,0,0-.76-.944c-.6-.262-1.226.164-2.534.687a18.546,18.546,0,0,1-3.1.931,18.536,18.536,0,0,1,2.975,1.278c1.24.669,1.808,1.163,2.439.971a1.538,1.538,0,0,0,.863-.851l21.84,1.248Z" transform="translate(-211.988 -119.236)" fill="#d94559"/>
    <path id="Path_52117" data-name="Path 52117" d="M455.945,280.254a2.905,2.905,0,1,0,4.048-.7,2.905,2.905,0,0,0-4.048.7Z" transform="translate(-242.084 -118.662)" fill="#326ab3"/>
    <path id="Path_52118" data-name="Path 52118" d="M456.074,280.981a2.9,2.9,0,0,1,5.149.817,2.9,2.9,0,1,0-5.673.984,2.888,2.888,0,0,1,.524-1.8Z" transform="translate(-242.086 -118.663)" fill="#999"/>
    <path id="Path_52119" data-name="Path 52119" d="M535.654,117.921l16.287,11.468a4.98,4.98,0,0,0,5.734-8.143l-16.287-11.468a4.98,4.98,0,1,0-5.734,8.143Z" transform="translate(-289.359 -15.713)" fill="#c8cbe3"/>
    <path id="Path_52120" data-name="Path 52120" d="M535.654,117.921l16.287,11.468a4.98,4.98,0,0,0,5.734-8.143l-16.287-11.468a4.98,4.98,0,1,0-5.734,8.143Z" transform="translate(-289.359 -15.713)" fill="#326ab3"/>
    <path id="Path_52121" data-name="Path 52121" d="M546.262,123.239a.944.944,0,0,1-.228-1.316l1.812-2.574a.945.945,0,0,1,1.545,1.087l-1.812,2.574A.945.945,0,0,1,546.262,123.239Zm2.059,1.45a.945.945,0,0,1-.229-1.316L549.9,120.8a.945.945,0,0,1,1.544,1.087l-1.812,2.574a.944.944,0,0,1-1.316.229Zm2.059,1.45a.945.945,0,0,1-.229-1.316l1.812-2.574a.945.945,0,0,1,1.544,1.088l-1.812,2.574A.944.944,0,0,1,550.38,126.139Zm2.059,1.45a.945.945,0,0,1-.229-1.316l1.812-2.574a.944.944,0,0,1,1.544,1.087l-1.812,2.574A.944.944,0,0,1,552.439,127.589Zm2.059,1.45a.945.945,0,0,1-.229-1.316l1.812-2.574a.945.945,0,0,1,1.545,1.087l-1.812,2.574A.945.945,0,0,1,554.5,129.039Zm2.059,1.45a.945.945,0,0,1-.229-1.316l1.813-2.574a.945.945,0,0,1,1.544,1.088l-1.813,2.574A.944.944,0,0,1,556.558,130.489Zm2.059,1.45a.945.945,0,0,1-.229-1.316l1.812-2.574a.945.945,0,0,1,1.545,1.087l-1.812,2.574a.944.944,0,0,1-1.316.229Z" transform="translate(-296.81 -21.818)" fill="#28558f"/>
    <path id="Path_52122" data-name="Path 52122" d="M476.389,217.231a16.494,16.494,0,0,1,.766-2.7,16.43,16.43,0,0,1-2.28,1.625c-1.046.617-1.659.817-1.813,1.366a1.31,1.31,0,0,0,.208,1.012l-19.252,27.315,1.419,1,19.251-27.315a1.3,1.3,0,0,0,1.022-.142c.465-.329.448-.975.678-2.169Z" transform="translate(-241.239 -79.644)" fill="#f3ca81"/>
    <path id="Path_52123" data-name="Path 52123" d="M433.792,284.312l.118-2.072-21.84-1.248a1.538,1.538,0,0,0-.76-.944c-.6-.262-1.226.164-2.534.687a18.546,18.546,0,0,1-3.1.931,18.536,18.536,0,0,1,2.975,1.278c1.24.669,1.808,1.163,2.439.971a1.538,1.538,0,0,0,.863-.851l21.84,1.248Z" transform="translate(-211.988 -119.236)" fill="#d94559"/>
    <path id="Path_52124" data-name="Path 52124" d="M455.945,280.254a2.905,2.905,0,1,0,4.048-.7,2.905,2.905,0,0,0-4.048.7Z" transform="translate(-242.084 -118.662)" fill="#326ab3"/>
    <path id="Path_52125" data-name="Path 52125" d="M456.074,280.981a2.9,2.9,0,0,1,5.149.817,2.9,2.9,0,1,0-5.673.984,2.888,2.888,0,0,1,.524-1.8Z" transform="translate(-242.086 -118.663)" fill="#999"/>
    <path id="Path_52127" data-name="Path 52127" d="M599.34,504v3.261a6.04,6.04,0,0,1-.032.643H299.436a6.056,6.056,0,0,1-.032-.643V504a6.682,6.682,0,0,1,6.681-6.681h9.121a7.745,7.745,0,0,1-7.744-7.744V315.318a7.745,7.745,0,0,1,7.744-7.744H581.147a7.745,7.745,0,0,1,7.744,7.744V489.573a7.745,7.745,0,0,1-7.744,7.744h11.506A6.683,6.683,0,0,1,599.34,504Z" transform="translate(-147.686 -135.939)" fill="#fff"/>
    <path id="Path_52129" data-name="Path 52129" d="M472.9,477.13H452.379c-.444,0-.8-.233-.8-.521s.36-.521.8-.521H472.9c.444,0,.8.233.8.521S473.348,477.13,472.9,477.13Zm36.252,0h-31.8c-.444,0-.8-.233-.8-.521s.36-.521.8-.521h31.8c.444,0,.8.233.8.521S509.6,477.13,509.155,477.13Zm11.9,0h-6.673c-.387,0-.7-.2-.7-.453s.313-.453.7-.453h6.673c.387,0,.7.2.7.453S521.443,477.13,521.056,477.13Zm-.1,5.379H452.379c-.444,0-.8-.233-.8-.521s.36-.521.8-.521h68.572c.444,0,.8.233.8.521S521.4,482.51,520.952,482.51ZM472.9,492.69H452.379c-.444,0-.8-.233-.8-.52s.36-.521.8-.521H472.9c.444,0,.8.233.8.521S473.348,492.69,472.9,492.69Zm36.252,0h-31.8c-.444,0-.8-.233-.8-.52s.36-.521.8-.521h31.8c.444,0,.8.233.8.521S509.6,492.69,509.155,492.69ZM486.5,487.311H452.379c-.444,0-.8-.233-.8-.521s.36-.521.8-.521H486.5c.444,0,.8.233.8.521S486.946,487.311,486.5,487.311Zm34.45,0H494.679c-.444,0-.8-.233-.8-.521s.36-.521.8-.521h26.273c.444,0,.8.233.8.521S521.4,487.311,520.952,487.311Zm.1,5.379h-6.673c-.387,0-.7-.2-.7-.453s.313-.453.7-.453h6.673c.387,0,.7.2.7.453S521.443,492.69,521.056,492.69Zm-13.062,11.653H487.469c-.444,0-.8-.233-.8-.521s.36-.521.8-.521h20.524c.444,0,.8.233.8.521S508.438,504.343,507.994,504.343Zm36.252,0h-31.8c-.444,0-.8-.233-.8-.521s.36-.521.8-.521h31.8c.444,0,.8.233.8.521S544.69,504.343,544.246,504.343Zm11.9,0h-6.673c-.387,0-.7-.2-.7-.453s.314-.453.7-.453h6.673c.387,0,.7.2.7.453S556.533,504.343,556.146,504.343Zm-.1,5.379H487.47c-.444,0-.8-.233-.8-.52s.36-.521.8-.521h68.572c.444,0,.8.233.8.521s-.361.52-.8.52ZM507.994,519.9H487.469c-.444,0-.8-.233-.8-.52s.36-.521.8-.521h20.524c.444,0,.8.233.8.521S508.438,519.9,507.994,519.9Zm36.252,0h-31.8c-.444,0-.8-.233-.8-.52s.36-.521.8-.521h31.8c.444,0,.8.233.8.521S544.69,519.9,544.246,519.9Zm-22.654-5.379H487.469c-.444,0-.8-.233-.8-.521s.36-.52.8-.52h34.122c.444,0,.8.233.8.52S522.036,514.524,521.592,514.524Zm34.45,0H529.768c-.444,0-.8-.233-.8-.521s.36-.52.8-.52h26.273c.444,0,.8.233.8.52S556.486,514.524,556.042,514.524Zm.1,5.379h-6.673c-.387,0-.7-.2-.7-.453s.314-.453.7-.453h6.673c.387,0,.7.2.7.453S556.533,519.9,556.146,519.9Zm-48.152,6.361H487.469c-.444,0-.8-.233-.8-.521s.36-.521.8-.521h20.524c.444,0,.8.233.8.521S508.438,526.264,507.994,526.264Zm36.252,0h-31.8c-.444,0-.8-.233-.8-.521s.36-.521.8-.521h31.8c.444,0,.8.233.8.521S544.69,526.264,544.246,526.264Zm11.9,0h-6.673c-.387,0-.7-.2-.7-.453s.314-.453.7-.453h6.673c.387,0,.7.2.7.453S556.533,526.264,556.146,526.264Zm-.1,5.379H487.47c-.444,0-.8-.233-.8-.52s.36-.521.8-.521h68.572c.444,0,.8.233.8.521s-.361.52-.8.52Zm-48.048,10.18H487.469c-.444,0-.8-.233-.8-.521s.36-.52.8-.52h20.524c.444,0,.8.233.8.52S508.438,541.824,507.994,541.824Zm36.252,0h-31.8c-.444,0-.8-.233-.8-.521s.36-.52.8-.52h31.8c.444,0,.8.233.8.52S544.69,541.824,544.246,541.824Zm-22.654-5.379H487.469c-.444,0-.8-.233-.8-.521s.36-.52.8-.52h34.122c.444,0,.8.233.8.52S522.036,536.445,521.592,536.445Zm34.45,0H529.768c-.444,0-.8-.233-.8-.521s.36-.52.8-.52h26.273c.444,0,.8.233.8.52S556.486,536.445,556.042,536.445Zm.1,5.379h-6.673c-.387,0-.7-.2-.7-.453s.314-.453.7-.453h6.673c.387,0,.7.2.7.453S556.533,541.824,556.146,541.824Zm-8.811-100.456H526.811c-.444,0-.8-.261-.8-.582s.36-.582.8-.582h20.524c.444,0,.8.261.8.582S547.779,441.368,547.335,441.368Zm36.252,0h-31.8c-.444,0-.8-.261-.8-.582s.36-.582.8-.582h31.8c.444,0,.8.261.8.582S584.031,441.368,583.587,441.368Zm11.9,0h-6.673c-.387,0-.7-.227-.7-.507s.314-.507.7-.507h6.673c.387,0,.7.227.7.507S595.874,441.368,595.487,441.368Zm-.1,6.015H526.811c-.444,0-.8-.261-.8-.582s.36-.582.8-.582h68.572c.444,0,.8.261.8.582S595.827,447.383,595.383,447.383Zm-48.048,11.383H526.811c-.444,0-.8-.261-.8-.582s.36-.582.8-.582h20.524c.444,0,.8.261.8.582S547.779,458.767,547.335,458.767Zm36.252,0h-31.8c-.444,0-.8-.261-.8-.582s.36-.582.8-.582h31.8c.444,0,.8.261.8.582S584.031,458.767,583.587,458.767Zm-22.654-6.015H526.811c-.444,0-.8-.261-.8-.582s.36-.582.8-.582h34.122c.444,0,.8.261.8.582S561.378,452.752,560.933,452.752Zm34.45,0H569.11c-.444,0-.8-.261-.8-.582s.36-.582.8-.582h26.273c.444,0,.8.261.8.582S595.827,452.752,595.383,452.752Zm.1,6.015h-6.673c-.387,0-.7-.227-.7-.507s.314-.507.7-.507h6.673c.387,0,.7.227.7.507S595.874,458.767,595.487,458.767ZM477.97,516.153h-25.4c-.55,0-1-.28-1-.627s.446-.626,1-.626h25.4c.55,0,1,.28,1,.626S478.52,516.153,477.97,516.153Zm0,5.162h-25.4c-.55,0-1-.28-1-.627s.446-.626,1-.626h25.4c.55,0,1,.28,1,.626S478.52,521.314,477.97,521.314Zm0,5.162h-25.4c-.55,0-1-.28-1-.627s.446-.626,1-.626h25.4c.55,0,1,.28,1,.626S478.52,526.476,477.97,526.476Zm0,5.161h-25.4c-.55,0-1-.28-1-.627s.446-.626,1-.626h25.4c.55,0,1,.28,1,.626S478.52,531.638,477.97,531.638Zm0,5.162h-25.4c-.55,0-1-.28-1-.627s.446-.626,1-.626h25.4c.55,0,1,.28,1,.626S478.52,536.8,477.97,536.8Zm0,5.162h-25.4c-.55,0-1-.28-1-.627s.446-.626,1-.626h25.4c.55,0,1,.28,1,.626S478.52,541.961,477.97,541.961ZM593.7,466.053H530.123c-1.376,0-2.491-.28-2.491-.627s1.115-.626,2.491-.626H593.7c1.376,0,2.491.28,2.491.626S595.072,466.053,593.7,466.053Zm0,5.162H530.123c-1.376,0-2.491-.28-2.491-.627s1.115-.626,2.491-.626H593.7c1.376,0,2.491.28,2.491.626S595.072,471.215,593.7,471.215Zm0,5.162H530.123c-1.376,0-2.491-.28-2.491-.627s1.115-.626,2.491-.626H593.7c1.376,0,2.491.28,2.491.626S595.072,476.376,593.7,476.376Zm0,5.161H530.123c-1.376,0-2.491-.28-2.491-.627s1.115-.626,2.491-.626H593.7c1.376,0,2.491.28,2.491.626S595.072,481.538,593.7,481.538Zm0,5.162H530.123c-1.376,0-2.491-.28-2.491-.627s1.115-.626,2.491-.626H593.7c1.376,0,2.491.28,2.491.626S595.072,486.7,593.7,486.7Zm0,5.162H530.123c-1.376,0-2.491-.28-2.491-.627s1.115-.626,2.491-.626H593.7c1.376,0,2.491.28,2.491.626S595.072,491.861,593.7,491.861Zm0,5.408H530.123c-1.376,0-2.491-.28-2.491-.627s1.115-.626,2.491-.626H593.7c1.376,0,2.491.28,2.491.626S595.072,497.269,593.7,497.269Z" transform="translate(-239.76 -216.19)" fill="#c8cbe3"/>
    <path id="Path_52130" data-name="Path 52130" d="M451.576,600.2h27.39v7.738h-27.39Z" transform="translate(-239.761 -312.997)" fill="#c3ddfa"/>
    <path id="Path_52131" data-name="Path 52131" d="M591.642,508.494H559.7c-.691,0-1.252-.28-1.252-.627s.56-.626,1.252-.626h31.946c.692,0,1.252.28,1.252.626S592.334,508.494,591.642,508.494Zm0,5.162H559.7c-.691,0-1.252-.28-1.252-.627s.56-.626,1.252-.626h31.946c.692,0,1.252.28,1.252.626S592.334,513.656,591.642,513.656Zm0,5.162H559.7c-.691,0-1.252-.28-1.252-.627s.56-.626,1.252-.626h31.946c.692,0,1.252.28,1.252.626S592.334,518.817,591.642,518.817Zm0,5.162H559.7c-.691,0-1.252-.28-1.252-.627s.56-.626,1.252-.626h31.946c.692,0,1.252.28,1.252.626S592.334,523.979,591.642,523.979Zm0,5.161H559.7c-.691,0-1.252-.28-1.252-.627s.56-.626,1.252-.626h31.946c.692,0,1.252.28,1.252.626S592.334,529.14,591.642,529.14Zm0,5.162H559.7c-.691,0-1.252-.28-1.252-.627s.56-.626,1.252-.626h31.946c.692,0,1.252.28,1.252.626S592.334,534.3,591.642,534.3ZM516.5,448.035H484.549c-.691,0-1.252-.28-1.252-.627s.56-.626,1.252-.626H516.5c.691,0,1.252.28,1.252.626S517.187,448.035,516.5,448.035Zm0,5.162H484.549c-.691,0-1.252-.28-1.252-.627s.56-.626,1.252-.626H516.5c.691,0,1.252.28,1.252.626S517.187,453.2,516.5,453.2Zm0,5.161H484.549c-.691,0-1.252-.28-1.252-.627s.56-.626,1.252-.626H516.5c.691,0,1.252.28,1.252.626S517.187,458.358,516.5,458.358Zm0,5.162H484.549c-.691,0-1.252-.28-1.252-.627s.56-.626,1.252-.626H516.5c.691,0,1.252.28,1.252.626S517.187,463.52,516.5,463.52Zm0,5.162H484.549c-.691,0-1.252-.28-1.252-.627s.56-.626,1.252-.626H516.5c.691,0,1.252.28,1.252.626S517.187,468.682,516.5,468.682Zm0,5.162H484.549c-.691,0-1.252-.28-1.252-.627s.56-.626,1.252-.626H516.5c.691,0,1.252.28,1.252.626S517.187,473.843,516.5,473.843Zm-36.27-25.808H448.279c-.691,0-1.252-.28-1.252-.627s.56-.626,1.252-.626h31.946c.692,0,1.252.28,1.252.626S480.917,448.035,480.225,448.035Zm0,5.162H448.279c-.691,0-1.252-.28-1.252-.627s.56-.626,1.252-.626h31.946c.692,0,1.252.28,1.252.626S480.917,453.2,480.225,453.2Zm0,5.161H448.279c-.691,0-1.252-.28-1.252-.627s.56-.626,1.252-.626h31.946c.692,0,1.252.28,1.252.626S480.917,458.358,480.225,458.358Zm0,5.162H448.279c-.691,0-1.252-.28-1.252-.627s.56-.626,1.252-.626h31.946c.692,0,1.252.28,1.252.626S480.917,463.52,480.225,463.52Zm0,5.162H448.279c-.691,0-1.252-.28-1.252-.627s.56-.626,1.252-.626h31.946c.692,0,1.252.28,1.252.626S480.917,468.682,480.225,468.682Zm0,5.162H448.279c-.691,0-1.252-.28-1.252-.627s.56-.626,1.252-.626h31.946c.692,0,1.252.28,1.252.626S480.917,473.843,480.225,473.843Z" transform="translate(-237.008 -220.17)" fill="#c8cbe3"/>
    <path id="Path_52132" data-name="Path 52132" d="M591.588,409.523h-126a1.406,1.406,0,0,1-1.406-1.406v-2.88a1.406,1.406,0,0,1,1.406-1.406h126a1.406,1.406,0,0,1,1.406,1.406v2.88A1.406,1.406,0,0,1,591.588,409.523Zm-130.994,0H449.562a.85.85,0,0,1-.85-.85v-3.992a.85.85,0,0,1,.85-.85h11.032a.85.85,0,0,1,.85.85v3.992A.85.85,0,0,1,460.594,409.523Zm147.67,0h-9.929A1.339,1.339,0,0,1,597,408.184v-2.768a1.339,1.339,0,0,1,1.339-1.339h9.929a1.339,1.339,0,0,1,1.339,1.339v2.768A1.339,1.339,0,0,1,608.264,409.523Z" transform="translate(-238.028 -194.181)" fill="#c0d7f7"/>
    <circle id="Ellipse_2229" data-name="Ellipse 2229" cx="1.652" cy="1.652" r="1.652" transform="translate(292.296 332.356)" fill="#ffbc47"/>
    <circle id="Ellipse_2230" data-name="Ellipse 2230" cx="1.652" cy="1.652" r="1.652" transform="translate(299.273 332.356)" fill="#d94559"/>
    <circle id="Ellipse_2231" data-name="Ellipse 2231" cx="1.652" cy="1.652" r="1.652" transform="translate(306.249 332.356)" fill="#52a1fa"/>
    <path id="Path_52133" data-name="Path 52133" d="M883.258,405.938H869.8a.317.317,0,0,1-.317-.317v-.192a.317.317,0,0,1,.317-.317h13.457a.317.317,0,0,1,.317.317v.192A.317.317,0,0,1,883.258,405.938Zm0,2.05H869.8a.317.317,0,0,1-.317-.317v-.191a.317.317,0,0,1,.317-.317h13.457a.317.317,0,0,1,.317.317v.191A.317.317,0,0,1,883.258,407.988Zm0,2.05H869.8a.317.317,0,0,1-.317-.317v-.191a.317.317,0,0,1,.317-.317h13.457a.317.317,0,0,1,.317.317v.191A.317.317,0,0,1,883.258,410.038Z" transform="translate(-492.624 -194.956)" fill="#c0d7f7"/>
    <path id="Path_52134" data-name="Path 52134" d="M839.808,440.587h26.255v20.369H839.808Z" transform="translate(-474.799 -216.335)" fill="#c3ddfa"/>
    <path id="Path_52135" data-name="Path 52135" d="M864.873,503.281H841.052c-.515,0-.934-.28-.934-.627s.418-.627.934-.627h23.821c.516,0,.934.28.934.627S865.389,503.281,864.873,503.281Zm0,5.162H841.052c-.515,0-.934-.28-.934-.627s.418-.626.934-.626h23.821c.516,0,.934.28.934.626S865.389,508.443,864.873,508.443Z" transform="translate(-474.856 -253.597)" fill="#c8cbe3"/>
    <path id="Path_52136" data-name="Path 52136" d="M839.808,528.99h26.255v20.368H839.808Z" transform="translate(-474.799 -269.737)" fill="#c3ddfa"/>
    <path id="Path_52137" data-name="Path 52137" d="M864.873,591.684H841.052c-.515,0-.934-.28-.934-.627s.418-.627.934-.627h23.821c.516,0,.934.28.934.627S865.389,591.684,864.873,591.684Zm0,5.162H841.052c-.515,0-.934-.28-.934-.627s.418-.626.934-.626h23.821c.516,0,.934.28.934.626S865.389,596.846,864.873,596.846Z" transform="translate(-474.856 -307.087)" fill="#c8cbe3"/>
    <path id="Path_52138" data-name="Path 52138" d="M839.808,617.393h26.255v20.369H839.808Z" transform="translate(-474.668 -323.401)" fill="#c3ddfa"/>
    <path id="Path_52139" data-name="Path 52139" d="M864.873,680.087H841.052c-.515,0-.934-.28-.934-.627s.418-.626.934-.626h23.821c.516,0,.934.28.934.626S865.389,680.087,864.873,680.087Zm0,5.162H841.052c-.515,0-.934-.28-.934-.627s.418-.626.934-.626h23.821c.516,0,.934.28.934.626S865.389,685.249,864.873,685.249Z" transform="translate(-474.856 -360.577)" fill="#c8cbe3"/>
    <path id="Path_52140" data-name="Path 52140" d="M593.492,307.573H327.553a7.745,7.745,0,0,0-7.744,7.744V489.572a7.745,7.745,0,0,0,7.744,7.744H593.494a7.745,7.745,0,0,0,7.744-7.744V315.317a7.745,7.745,0,0,0-7.743-7.744ZM591.2,483.785a5.056,5.056,0,0,1-5.053,5.053H334.412a5.058,5.058,0,0,1-5.062-5.053V321.1a5.06,5.06,0,0,1,5.062-5.053h251.74A5.058,5.058,0,0,1,591.2,321.1V483.785Z" transform="translate(-160.033 -135.939)" fill="#7e82a8"/>
    <path id="Path_52141" data-name="Path 52141" d="M599.34,794.7v3.261a6.042,6.042,0,0,1-.032.643,6.684,6.684,0,0,1-6.654,6.038H306.085a6.683,6.683,0,0,1-6.649-6.038,6.055,6.055,0,0,1-.032-.643V794.7a6.682,6.682,0,0,1,6.681-6.681H592.654a6.683,6.683,0,0,1,6.686,6.681Z" transform="translate(-147.686 -426.642)" fill="#9598b8"/>
    <path id="Path_52142" data-name="Path 52142" d="M942.178,249.422l3.318,4.631-5.669.071-.884,1.169-9.026-3.125,2.545-.577-2.477.546,7.132-2.917,7.186-2.926.016-.009Z" transform="translate(-529.191 -98.855)" fill="#457fc4"/>
    <path id="Path_52143" data-name="Path 52143" d="M958.564,260.79l-7.046.091,2.282-3.462Z" transform="translate(-542.261 -105.592)" fill="#457fc4"/>
    <path id="Path_52144" data-name="Path 52144" d="M938.946,264.3l-9.024-3.129,11.37.025Z" transform="translate(-529.194 -107.865)" fill="#4f86d1"/>
    <path id="Path_52145" data-name="Path 52145" d="M944.317,246.252l-.014.022-2.131,3.125-.018.023-12.237,2.725.068-.031,7.132-2.917Z" transform="translate(-529.191 -98.835)" fill="#4f86d1"/>
    <path id="Path_52146" data-name="Path 52146" d="M929.922,256.934l11.393.057,4.182,1.831-3.336-4.656Z" transform="translate(-529.194 -103.624)" fill="#457fc4"/>
    <g id="Group_55153" data-name="Group 55153" transform="translate(-252.277 -6.216)">
      <path id="Path_52126" data-name="Path 52126" d="M1157.792,787.591l1.357-1.357a.789.789,0,0,0-1.116-1.115l-1.357,1.357-1.357-1.357a.789.789,0,0,0-1.115,1.116l1.357,1.357-1.354,1.354a.789.789,0,0,0,1.115,1.115l1.355-1.355,1.355,1.355a.789.789,0,1,0,1.116-1.115Z" transform="translate(-385.444 -419.543)" fill="#ffb86b"/>
      <path id="Path_52148" data-name="Path 52148" d="M1007.942,715.91H952.436a4.665,4.665,0,0,1,0-9.329h55.506a4.665,4.665,0,0,1,0,9.329Z" transform="translate(-264.401 -373.574)" fill="#3f90eb"/>
      <path id="Path_52149" data-name="Path 52149" d="M951.774,709.184h55.506a4.66,4.66,0,0,1,4.654,4.464,4.658,4.658,0,0,0-3.993-7.067H952.436a4.665,4.665,0,0,0-4.665,4.665c0,.068.008.134.01.2A4.658,4.658,0,0,1,951.774,709.184Z" transform="translate(-264.401 -373.574)" fill="#52a1fa"/>
      <path id="Path_52150" data-name="Path 52150" d="M1049.19,765.633l-5.842-5.842h-18.725V718.175h1.99V757.8h17.559l6.426,6.425Z" transform="translate(-309.513 -380.38)" fill="#c8cbe3"/>
      <path id="Path_52151" data-name="Path 52151" d="M967.952,765.633l-1.407-1.407,6.426-6.425h17.559V718.175h1.99v41.616H973.794Zm44.536-2.447a2.439,2.439,0,1,1,2.44,2.44A2.439,2.439,0,0,1,1012.487,763.186Z" transform="translate(-275.421 -380.38)" fill="#c8cbe3"/>
      <path id="Path_52152" data-name="Path 52152" d="M965.676,824.629a2.439,2.439,0,1,1,2.439,2.439,2.439,2.439,0,0,1-2.439-2.439Z" transform="translate(-274.912 -441.44)" fill="#c8cbe3"/>
      <path id="Path_52153" data-name="Path 52153" d="M961.882,724.459c1.821-8.933,2.815-16.238,2.562-22.673-.18-4.719-.661-9.052-1.054-13.408l28.269-15.669,8.982-4.98H983.429s-24.554,7.708-28.718,14.428c-2.8,4.522-2.221,14.712-.907,23.954,1.388,9.692,3.593,18.349,3.593,18.349h4.485Z" transform="translate(-267.3 -350.768)" fill="#e8a7b8"/>
      <path id="Path_52154" data-name="Path 52154" d="M949.577,804.482l1.449,4.588-.907,7.132-1.459.069-1.33-6.243-2.355,4.146a3.989,3.989,0,0,1-2.891,2.193c-3.442.432-10.167.544-10.445-1.642-.286-2.247,6.233-2.343,8.137-4.814,1.844-2.392,4.06-5.522,4.06-5.522Z" transform="translate(-254.925 -430.99)" fill="#1c265e"/>
      <path id="Path_52155" data-name="Path 52155" d="M953.8,706.11l5.855.933,4.785-5.257,21.132-23.2,6.083-5.874,5.152-4.98H983.429s-24.554,7.708-28.718,14.428C951.91,686.678,952.49,696.868,953.8,706.11Z" transform="translate(-267.3 -350.768)" fill="#30334d"/>
      <path id="Path_52156" data-name="Path 52156" d="M954.46,724.385c5.144-4.269,8.562-9.681,11.233-15.839a83.58,83.58,0,0,0,4.206-12.728s26.195-2.142,33.087-11.85c4.7-6.617.931-16.578.931-16.578-4.475.134-10.346-.814-14.053.348-13.971,4.372-28.971,10.135-32.458,19.495a129.1,129.1,0,0,0-4.9,18.412c-1.176,5.6-2.235,12.1-3.787,18.647Z" transform="translate(-264.958 -350.43)" fill="#f7c1ce"/>
      <path id="Path_52157" data-name="Path 52157" d="M957.888,705.218l8.737,1.921,4.45.98a83.574,83.574,0,0,0,4.205-12.728s15.425-1.265,25.713-6.229a19.091,19.091,0,0,0,7.373-5.621c4.295-6.056,1.511-14.918,1-16.372q-.038-.1-.073-.205h-.033c-4.475.127-10.844-1.225-14.543-.063-13.972,4.372-29.119,10.356-32.605,19.716-2.066,5.526-2.809,11.826-4.23,18.6Z" transform="translate(-270.339 -350.002)" fill="#30334d"/>
      <path id="Path_52158" data-name="Path 52158" d="M1049.586,614.146a19.089,19.089,0,0,0,7.374-5.621c4.3-6.056,1.511-14.918,1-16.372-.025-.068-.049-.137-.073-.205h-.033l-4.377,1.763C1056.6,601.363,1054.819,608.084,1049.586,614.146Zm-7.351-74.193a4.6,4.6,0,0,1,5.36-.772c1.23.74,1.955,2.1,3.2,2.829,1.88,1.1,4.337.435,6.439,1.05a5.242,5.242,0,0,1,3.7,4.442c.123,1.45-.385,3,.256,4.315a5.144,5.144,0,0,0,2.861,2.186c2.8,1.146,5.963,1.857,8.05,4a3.081,3.081,0,0,1,1.055,2.342c-.092.884-.789,1.624-.9,2.506a2.89,2.89,0,0,0,1.346,2.518,19.93,19.93,0,0,0,2.69,1.413c2.524,1.314,5.1,6.082.81,9.234-1.829,1.343-6.239-2.293-7.321,1.067a9.977,9.977,0,0,1-3.681,3.237c-7.615,1.618-15.007-9.571-16.716-14.292-4.759-5.406-5.546-9.971-4.035-15.257-1.433-1.28-4.162-3.712-4.555-5.562a5.732,5.732,0,0,1,1.437-5.257Z" transform="translate(-318.929 -274.987)" fill="#30334d"/>
      <path id="Path_52159" data-name="Path 52159" d="M1018.374,604.516c-2.94,3.44-7.559,7.541-10.569,10.925-1.484-1.246-3.212-1.862-4.455-3.45,5.057-7.425,10.276-17.234,17.6-21.865C1019.748,594.971,1019.78,599.741,1018.374,604.516Z" transform="translate(-297.026 -305.213)" fill="#ffcd75"/>
      <path id="Path_52160" data-name="Path 52160" d="M1024.08,619.588c6.924-.893,12.608,1.889,19.663,1.359a23.9,23.9,0,0,0,2.613-.34,3.152,3.152,0,0,0,2.613-3.383l-2.327-21.977-2.05-6.759-.473-1.55-3.67-1.905-4.036.135c-6.018,2.529-10.169,9.376-6.518,16.941,3.543,7.351-5.815,17.478-5.815,17.478Z" transform="translate(-309.195 -302.223)" fill="#ffc052"/>
      <path id="Path_52161" data-name="Path 52161" d="M1053.52,579.341c0,2.211,2.121,2.211,4.248,0l-.5-2.673-.309-1.663-3.2,1.549-.236,2.728Z" transform="translate(-326.476 -296.338)" fill="#f7c1ce"/>
      <path id="Path_52162" data-name="Path 52162" d="M1065.435,605.715c1.609,4.238,3.242,14.348,2.082,20.143a23.949,23.949,0,0,0,2.613-.34,3.153,3.153,0,0,0,2.613-3.384l-2.327-21.977-2.049-6.759a12.573,12.573,0,0,0-2.841,3.082A12.115,12.115,0,0,0,1065.435,605.715Z" transform="translate(-332.97 -307.135)" fill="#ffb83d"/>
      <path id="Path_52163" data-name="Path 52163" d="M1018.862,614.715c1.837,2.705,2.961,2.219,5.423,2.362,3.208-.178,6.647.3,9.89.054,3.911-.3,9.665.927,12.848-1.589s-.851-14.934-1.791-17.727c-1.249-3.708-2.647-5.326-4.488-8.26.826,2.843,1.651,5.558,2.476,8.351-.518,4.325-.954,8.673-1.415,13-3.163.413-5.539.686-8.878,1.235-2.947.485-6.97,1.15-10.039,1.962C1020.182,612.675,1017.026,612.009,1018.862,614.715Z" transform="translate(-305.811 -304.878)" fill="#f7c1ce"/>
      <path id="Path_52164" data-name="Path 52164" d="M1053.95,612.1q.489,2.573,1.145,5.109c4.138.188,9.154,1.337,13.012-1.807s1.261-15.881-.3-19.364c-1.673-3.74-3.068-4.932-6.156-6.513-5.91,5.752.3,13.741,1.056,21.368C1059.781,611.248,1056.862,611.637,1053.95,612.1Z" transform="translate(-326.73 -304.857)" fill="#ffcd75"/>
      <path id="Path_52165" data-name="Path 52165" d="M1053.71,578.413a9.693,9.693,0,0,0,1.27.182c1.345-.018,2.65-.211,2.4-1.927l-.309-1.663-3.2,1.549Z" transform="translate(-326.588 -296.338)" fill="#e8a7b6"/>
      <path id="Path_52166" data-name="Path 52166" d="M1046.533,551.217s1.652,3.389,7.2,4.645c0,0,1.73-1.828,2.478-.685s-1.062,3.16-1.062,3.16c-.207,3.319-2.674,5.952-5.23,5.33C1044.1,562.253,1046.533,551.217,1046.533,551.217Z" transform="translate(-322.08 -282.373)" fill="#f7c1ce"/>
      <path id="Path_52167" data-name="Path 52167" d="M937.11,805.6l1.449,4.588-.907,7.132-1.459.068-1.33-6.243-2.355,4.145a3.989,3.989,0,0,1-2.891,2.193c-3.441.432-10.167.544-10.445-1.642-.287-2.247,6.233-2.343,8.137-4.814,1.844-2.392,4.06-5.522,4.06-5.522Z" transform="translate(-247.607 -431.647)" fill="#30334d"/>
      <path id="Path_52168" data-name="Path 52168" d="M950.442,735.365a1.937,1.937,0,0,1-1.626-.628L907.81,664.359h3.553l40.706,69.863c.332.569-.485,1.143-1.626,1.143Z" transform="translate(-240.943 -348.789)" fill="#c8cbe3"/>
      <path id="Path_52169" data-name="Path 52169" d="M920.535,735.365a1.94,1.94,0,0,0,1.627-.628l41.006-70.378h-3.553l-40.706,69.863c-.332.569.485,1.144,1.626,1.144Z" transform="translate(-247.414 -348.789)" fill="#c8cbe3"/>
      <path id="Path_52170" data-name="Path 52170" d="M944.441,664.965H863.362a3.387,3.387,0,1,1,0-6.711h81.077a3.387,3.387,0,1,1,0,6.711Z" transform="translate(-212.59 -345.206)" fill="#52a1fa"/>
      <path id="Path_52171" data-name="Path 52171" d="M945.918,658.729a2.75,2.75,0,0,1,.316,1.268c0,1.853-1.9,3.356-4.239,3.356h-80.3a5.224,5.224,0,0,1-1.418-.2,4.356,4.356,0,0,0,3.923,2.087h80.3c2.341,0,4.239-1.5,4.239-3.355a3.509,3.509,0,0,0-2.821-3.159Z" transform="translate(-213.039 -345.485)" fill="#3f90eb"/>
      <path id="Path_52172" data-name="Path 52172" d="M894.743,623.4H929.6v2.94H894.743Zm54.287,65.214h-75a1.458,1.458,0,1,1,0-2.913h75a1.458,1.458,0,1,1,0,2.913Zm-2.862-82.976H912.781a1.831,1.831,0,0,1-1.8-1.516l-3.586-20.483a1.831,1.831,0,0,1,1.8-2.148h33.388a1.832,1.832,0,0,1,1.8,1.516l3.586,20.484a1.832,1.832,0,0,1-1.8,2.148Z" transform="translate(-220.219 -300.145)" fill="#c8cbe3"/>
      <path id="Path_52173" data-name="Path 52173" d="M997.1,604.253H963.713a1.832,1.832,0,0,1-1.8-1.516l-3.586-20.484a1.825,1.825,0,0,1,0-.648,1.833,1.833,0,0,0-1.391,2.1l3.586,20.484a1.831,1.831,0,0,0,1.8,1.516h33.388a1.831,1.831,0,0,0,1.8-1.5,1.853,1.853,0,0,1-.412.046Z" transform="translate(-269.763 -300.211)" fill="#c8cbe3"/>
      <path id="Path_52174" data-name="Path 52174" d="M1001.14,633.405h6.039v8.514h-6.039Z" transform="translate(-295.728 -330.62)" fill="#c8cbe3"/>
      <path id="Path_52175" data-name="Path 52175" d="M1002.939,655.121h-21.93a2.538,2.538,0,0,1,2.538-2.538H1000.4A2.538,2.538,0,0,1,1002.939,655.121Z" transform="translate(-283.912 -341.877)" fill="#c8cbe3"/>
      <path id="Path_52176" data-name="Path 52176" d="M999.835,607.564a2.224,2.224,0,1,1,2.224,2.225A2.224,2.224,0,0,1,999.835,607.564Z" transform="translate(-294.963 -314.144)" fill="#fff"/>
      <circle id="Ellipse_2232" data-name="Ellipse 2232" cx="2.046" cy="2.046" r="2.046" transform="translate(775.465 246.277)" fill="#fff"/>
      <path id="Path_52179" data-name="Path 52179" d="M1186.62,498.622a2.045,2.045,0,1,1,2.046,2.045A2.046,2.046,0,0,1,1186.62,498.622Z" transform="translate(-404.608 -250.299)" fill="#fff"/>
    </g>
    <path id="Path_52180" data-name="Path 52180" d="M642.05,343.151a.794.794,0,0,1-.486,1.163l-2.676.7a.793.793,0,0,1-.966-.975l.729-2.669a.793.793,0,0,1,1.328-.349l1.947,1.966a.8.8,0,0,1,.124.162Zm-3.509,1.182a.166.166,0,0,0,.189.079l2.676-.7a.166.166,0,0,0,.119-.118.163.163,0,0,0-.043-.162l-1.946-1.966a.168.168,0,0,0-.281.074l-.729,2.669a.161.161,0,0,0,.016.127ZM263.6,329.408a.794.794,0,0,1-.486,1.163l-2.676.7a.793.793,0,0,1-.966-.975l.729-2.669a.793.793,0,0,1,1.328-.349l1.947,1.966a.849.849,0,0,1,.124.162Zm-3.51,1.182a.166.166,0,0,0,.189.079l2.676-.7a.168.168,0,0,0,.077-.28l-1.947-1.966a.164.164,0,0,0-.162-.044.166.166,0,0,0-.119.118l-.729,2.669a.161.161,0,0,0,.016.127ZM406.905,208.11a.794.794,0,0,1-.486,1.163l-2.676.7a.793.793,0,0,1-.966-.975l.729-2.669a.793.793,0,0,1,1.328-.349l1.947,1.966a.833.833,0,0,1,.124.162Zm-3.51,1.182a.166.166,0,0,0,.189.079l2.676-.7a.166.166,0,0,0,.119-.118.164.164,0,0,0-.043-.162l-1.947-1.966a.168.168,0,0,0-.281.074l-.729,2.669A.162.162,0,0,0,403.4,209.292Z" transform="translate(-123.506 -74.327)" fill="#d94559"/>
    <path id="Path_52181" data-name="Path 52181" d="M584.931,269.868,586,268.857a.6.6,0,0,0-.831-.877l-1.067,1.011-1.011-1.067a.6.6,0,0,0-.877.831l1.011,1.067-1.065,1.009a.6.6,0,0,0,.831.877l1.065-1.009,1.009,1.065a.6.6,0,1,0,.877-.831ZM195.422,345.884l1.067-1.011a.6.6,0,0,0-.831-.877l-1.067,1.011-1.011-1.067a.6.6,0,0,0-.877.831l1.011,1.067-1.065,1.009a.6.6,0,0,0,.831.877l1.065-1.009,1.009,1.065a.6.6,0,1,0,.877-.831ZM525.044,197.72l1.067-1.011a.6.6,0,0,0-.831-.877l-1.067,1.011-1.011-1.067a.6.6,0,0,0-.877.831l1.01,1.067-1.065,1.009a.6.6,0,0,0,.831.877l1.065-1.009,1.009,1.065a.6.6,0,1,0,.877-.831Z" transform="translate(-82.987 -68.188)" fill="#ffb86b"/>
    <path id="Path_52182" data-name="Path 52182" d="M587.808,371.019a2.238,2.238,0,1,1,2.3-2.177,2.241,2.241,0,0,1-2.3,2.177Zm.1-3.774a1.538,1.538,0,1,0,1.5,1.579,1.54,1.54,0,0,0-1.5-1.579ZM266.38,178a2.238,2.238,0,1,1,2.3-2.176A2.24,2.24,0,0,1,266.38,178Zm.1-3.774a1.538,1.538,0,1,0,1.5,1.579A1.539,1.539,0,0,0,266.482,174.226ZM478.137,216.76a2.238,2.238,0,1,1,2.3-2.176A2.24,2.24,0,0,1,478.137,216.76Zm.1-3.774a1.538,1.538,0,1,0,1.5,1.579A1.539,1.539,0,0,0,478.238,212.985ZM241.167,404.12a2.238,2.238,0,1,1,2.3-2.177,2.241,2.241,0,0,1-2.3,2.177Zm.1-3.774a1.538,1.538,0,1,0,1.5,1.578,1.539,1.539,0,0,0-1.5-1.578Z" transform="translate(-111.131 -54.83)" fill="#326ab3"/>
    <path id="Path_52183" data-name="Path 52183" d="M534.188,724.726v15.963h-46.4a7.982,7.982,0,1,1,0-15.963h46.4Z" transform="translate(-256.841 -388.344)" fill="#fff"/>
    <path id="Path_52184" data-name="Path 52184" d="M388.272,719.895c-8.815,0-15.032,8.969-4.8,15.963H432.99v3.154H280.919c-2.373,0-4.3-1.52-4.3-3.4V720.137c0-1.875,1.924-3.4,4.3-3.4H432.99v3.154Z" transform="translate(-156.282 -383.514)" fill="#d94559"/>
    <path id="Path_52185" data-name="Path 52185" d="M498.688,719.913c.174-.012.35-.019.526-.019h46.4v-3.154H502.228a8.035,8.035,0,0,0-3.54,3.172Z" transform="translate(-268.267 -383.514)" fill="#2a5fa3"/>
    <path id="Path_52186" data-name="Path 52186" d="M374.18,735.135H300.23c-8.964,0-16.231-6.231-16.231-13.917V716.74h-3.418a3.712,3.712,0,0,0-3.961,3.4v15.478a3.711,3.711,0,0,0,3.96,3.4H433.629v-3.154h-58.54Q374.621,735.509,374.18,735.135Z" transform="translate(-156.282 -383.513)" fill="#c43e51"/>
    <path id="Path_52187" data-name="Path 52187" d="M474.973,727.879a7.989,7.989,0,0,0,7.984,7.979h46.4v3.153h-46.4a11.135,11.135,0,1,1,0-22.27h46.4v3.153h-46.4A7.994,7.994,0,0,0,474.973,727.879Z" transform="translate(-252.009 -383.514)" fill="#c43e51"/>
    <path id="Path_52188" data-name="Path 52188" d="M384.271,716.741h2.987v22.27h-2.987Zm-7.47,0h2.987v22.27H376.8Zm16.933,12.331a6.472,6.472,0,1,1,6.472,6.471A6.471,6.471,0,0,1,393.734,729.072Z" transform="translate(-194.517 -383.514)" fill="#fff"/>
    <path id="Path_52189" data-name="Path 52189" d="M522.26,731.043H497.855a.6.6,0,0,1,0-1.2H522.26a.6.6,0,1,1,0,1.2ZM539.8,742.424H512.1a.6.6,0,0,1,0-1.2H539.8a.6.6,0,1,1,0,1.2Zm-17.537-5.568h-15.2a.6.6,0,0,1,0-1.2h15.2a.6.6,0,1,1,0,1.2Zm-18.183,0h-6.5a.6.6,0,1,1,0-1.2h6.5a.6.6,0,0,1,0,1.2Zm33.086,0h-6.5a.6.6,0,0,1,0-1.2h6.5a.6.6,0,0,1,0,1.2Zm-4.438-5.214h-2.059a.6.6,0,0,1,0-1.2h2.059a.6.6,0,0,1,0,1.2Zm-23.786,10.782H506.88a.6.6,0,1,1,0-1.2h2.059a.6.6,0,1,1,0,1.2Zm34.117-5.568H541a.6.6,0,0,1,0-1.2h2.059a.6.6,0,0,1,0,1.2Z" transform="translate(-267.234 -391.442)" fill="#e6e8f0"/>
    <path id="Path_52190" data-name="Path 52190" d="M565.481,739.188v6.931l3.526-2.45,3.525,2.45v-6.931Z" transform="translate(-308.681 -397.096)" fill="#c24e4e"/>
    <path id="Path_52191" data-name="Path 52191" d="M469.583,781.719v15.963h-46.4a7.981,7.981,0,1,1,0-15.963Z" transform="translate(-217.75 -422.83)" fill="#fff"/>
    <path id="Path_52192" data-name="Path 52192" d="M300.243,776.888c-6.966,0-11.879,8.968-3.8,15.963h50.2V796H214.5a2.48,2.48,0,0,1-2.481-2.481V776.215a2.481,2.481,0,0,1,2.481-2.481H346.644v3.154Z" transform="translate(-94.81 -417.998)" fill="#ffb83d"/>
    <path id="Path_52193" data-name="Path 52193" d="M429.931,778.122a7.97,7.97,0,0,1,6.1-2.842H478.5v2.543H432.1A7.972,7.972,0,0,0,429.931,778.122Z" transform="translate(-226.664 -418.934)" fill="#ffb32e"/>
    <path id="Path_52194" data-name="Path 52194" d="M214.5,773.734h1.454v8.406a11.322,11.322,0,0,0,11.321,11.321H346.643V796H214.5a2.481,2.481,0,0,1-2.481-2.481V776.215A2.48,2.48,0,0,1,214.5,773.734Z" transform="translate(-94.81 -417.998)" fill="#f0aa30"/>
    <path id="Path_52195" data-name="Path 52195" d="M410.366,784.872a7.989,7.989,0,0,0,7.985,7.978h46.4V796h-46.4a11.135,11.135,0,1,1,0-22.27h46.4v3.154h-46.4A7.994,7.994,0,0,0,410.366,784.872Z" transform="translate(-212.918 -417.998)" fill="#ffcd75"/>
    <path id="Path_52196" data-name="Path 52196" d="M319.665,773.734h2.988V796h-2.988Zm-7.47,0h2.988V796H312.2Zm29.918,11.135a6.11,6.11,0,1,0-6.11,6.109A6.11,6.11,0,0,0,342.113,784.869Z" transform="translate(-155.426 -417.998)" fill="#fff"/>
    <path id="Path_52197" data-name="Path 52197" d="M441.961,787.617h27.33a.6.6,0,0,0,0-1.2h-27.33a.6.6,0,1,0,0,1.2ZM422.421,799h30.995a.6.6,0,1,0,0-1.2H422.421a.6.6,0,1,0,0,1.2Zm19.54-5.568H459.03a.6.6,0,0,0,0-1.2H441.961a.6.6,0,1,0,0,1.2Zm20.26,0H469.6a.6.6,0,0,0,0-1.2h-7.376a.6.6,0,1,0,0,1.2Zm-36.865,0h7.376a.6.6,0,0,0,0-1.2h-7.376a.6.6,0,0,0,0,1.2Zm4.288-5.813h2.431a.6.6,0,1,0,0-1.2h-2.431a.6.6,0,0,0,0,1.2ZM456.8,799h2.431a.6.6,0,1,0,0-1.2H456.8a.6.6,0,1,0,0,1.2Zm-38.014-5.568h2.431a.6.6,0,0,0,0-1.2h-2.431a.6.6,0,0,0,0,1.2Z" transform="translate(-219.561 -425.673)" fill="#e6e8f0"/>
    <path id="Path_52198" data-name="Path 52198" d="M458.173,793.094v6.978l3.123-2.466,3.124,2.466v-6.978Z" transform="translate(-243.753 -429.712)" fill="#c24e4e"/>
    <g id="Group_55154" data-name="Group 55154" transform="translate(184.635 -14.237)">
      <path id="Path_52202" data-name="Path 52202" d="M323.945,613.874S306.2,616.5,306.5,616.323s32.479,16.327,32.479,16.327l31.7-14.205-15.719-4.57H323.945Z" transform="translate(-345.282 -292.735)" fill="#30334d"/>
      <path id="Path_52203" data-name="Path 52203" d="M326.038,639.888l-.266,0h-.164c-4.515.052-7.463-.061-7.463-.061s-.217.049-.611.13c-3.861.8-24.673,4.766-22.9-3.076,1.555-6.886,14.041-6.03,19.049-5.4a.212.212,0,0,1,.05.007c1.249.159,2.02.3,2.02.3s2.484-1.068,6.406-2.589c.161-.064.327-.131.493-.194,12.917-5.013,40.083-14.515,47.115-8.8v0c.078.059.153.125.225.191,0,0,.011,0,.013.01.075.07.145.143.216.217a1.591,1.591,0,0,1,.177.2.629.629,0,0,1,.066.076q.119.149.225.308c.074.113.143.229.208.348a3.637,3.637,0,0,1,.165.35,4.371,4.371,0,0,1,.265.823c.063.294.116.582.151.866a8.478,8.478,0,0,1,.068,1.484C370.978,637.751,340.757,639.694,326.038,639.888Z" transform="translate(-340.559 -294.537)" fill="#ffd8d9"/>
      <path id="Path_52204" data-name="Path 52204" d="M324.065,641.182l-.5-1.473-.217-.642a.012.012,0,0,1,0-.008l-3.4-10.036-.487-1.44c12.93-5.019,40.938-13.526,48.09-7.572l0,0a2.265,2.265,0,0,1,.227.2s.011,0,.013.01c.075.07.145.143.216.217a1.58,1.58,0,0,1,.177.2.573.573,0,0,1,.066.076q.119.149.225.307t.208.348a3.648,3.648,0,0,1,.165.35,4.374,4.374,0,0,1,.265.823c.063.294.116.582.151.865a8.468,8.468,0,0,1,.068,1.484C368.816,637.726,338.792,640.989,324.065,641.182Zm-10.528-9.535s-23.544-4.6-24.57,5.352c-1.1,10.692,26.963,2.687,26.963,2.687s-10.824,2.368-10.31-3.7C306.118,630.11,313.537,631.647,313.537,631.647Z" transform="translate(-338.354 -294.355)" fill="#222438"/>
      <path id="Path_52205" data-name="Path 52205" d="M362.977,551.1c-4.62,6.489-.488,24.249-.488,24.249H331.471c.857-1.215,3.272-16.523-2.168-24.962-8.779-13.613.679-24.2.679-24.2l12.9-2.345.823-4.107.565-2.829.133-.657h5.8l.211,1.234.454,2.689.672,3.966,11.859,2.574S373.558,536.236,362.977,551.1Z" transform="translate(-352.81 -254.211)" fill="#ffd8d9"/>
      <path id="Path_52206" data-name="Path 52206" d="M362.974,556.052c-4.622,6.488-.483,24.245-.483,24.245H331.47c.729-1.034,2.587-12.3-.237-20.819a18.209,18.209,0,0,0-1.934-4.147c-8.777-13.611.679-24.194.679-24.194l12.907-2.349c.5,2.886,7.533,2.716,8.658.3l11.856,2.578S373.558,541.178,362.974,556.052Z" transform="translate(-352.808 -259.159)" fill="#d94559"/>
      <path id="Path_52207" data-name="Path 52207" d="M335.163,600.219c.73-1.034,2.587-12.3-.237-20.819,6.117-1.777,5.084,15.2,15.273,20.819Z" transform="translate(-356.5 -279.081)" fill="#c4626e"/>
      <path id="Path_52208" data-name="Path 52208" d="M396.728,571.429c-.322,2.01-1.738,4.189-3.833,6.343-5.359,5.5-16.275,5.258-23.763,7.259l-.782-3.99s13.367-3.77,16.242-8.459a4.523,4.523,0,0,0,.6-1.382c.975-4.672-4.436-10.515-4.436-10.515l-.576-27.128S398.356,561.21,396.728,571.429Z" transform="translate(-369.691 -261.041)" fill="#ffd8d9"/>
      <path id="Path_52209" data-name="Path 52209" d="M402.738,571.318a13.6,13.6,0,0,1-3.368,6.337.607.607,0,0,1-.776.1l-2.3-1.492-6.024-3.9a4.339,4.339,0,0,0,.547-1.418c.975-4.672-7.693-11.9-7.693-11.9l2.083-25.76c2.792-.125,7.378,6.245,11.186,14.057l.011.029c4.121,8.45,7.32,18.573,6.33,23.954Z" transform="translate(-375.523 -260.929)" fill="#d94559"/>
      <path id="Path_52210" data-name="Path 52210" d="M334.754,580.772l.136,2.653a.251.251,0,0,0-.029-.483c-6.673-1.379-17.641.529-22.981-4.006a15.714,15.714,0,0,1-5.511-8.9c-1.628-10.219,16.1-37.335,16.1-37.335l-.655,27.093s-5.41,5.843-4.436,10.516a7.572,7.572,0,0,0,1.79,2.977C323.168,577.987,334.754,580.772,334.754,580.772Z" transform="translate(-345.191 -260.705)" fill="#ffd8d9"/>
      <path id="Path_52211" data-name="Path 52211" d="M316.866,570.224c.17.831,1.3,1.559,2.261,2.678l-5.595,4.653-2.249,1.869a19.237,19.237,0,0,1-5.946-8.971c-1.119-3.985.473-10.8,3.158-17.557a.568.568,0,0,1,.019-.055c4.051-10.2,10.569-20.279,13.975-20.361l1.965,27.492S315.89,565.552,316.866,570.224Z" transform="translate(-344.681 -260.617)" fill="#d94559"/>
      <path id="Path_52212" data-name="Path 52212" d="M374.676,635.589c1.868,7.973-19.358,4.108-23.3,3.325-.4-.079-.624-.126-.624-.126s-3.076.143-7.768.125h-.274a160.559,160.559,0,0,1-25.915-2.018c-11.076-1.973-20.581-5.8-20.565-13.136a.164.164,0,0,0,0-.039,8.551,8.551,0,0,1,.056-.912.038.038,0,0,0,0-.016c.038-.319.091-.64.159-.97a4.4,4.4,0,0,1,.263-.841,3.574,3.574,0,0,1,.165-.358q.1-.183.209-.356s0,0,0,0c.068-.107.145-.211.223-.311a.676.676,0,0,1,.067-.078,1.652,1.652,0,0,1,.178-.205c.071-.075.142-.15.219-.223,0-.008.008-.014.013-.011a7.458,7.458,0,0,1,3.529-1.666c10.126-2.253,33.108,5.627,44.758,10.038.169.063.338.13.5.193,4.006,1.517,6.545,2.584,6.545,2.584s.783-.151,2.055-.323c.015,0,.031,0,.05-.007C360.324,629.564,373.031,628.589,374.676,635.589Z" transform="translate(-341.231 -294.114)" fill="#ffd8d9"/>
      <path id="Path_52213" data-name="Path 52213" d="M347.063,626.334l-.484,1.47-3.592,10.914-.5,1.5a138.594,138.594,0,0,1-23.3-2.1l0,0c-12.068-2.235-23-6.584-22.953-14.551a.165.165,0,0,0,0-.039c0-.3.024-.606.056-.912a.038.038,0,0,0,0-.016c.038-.319.091-.641.159-.97a4.407,4.407,0,0,1,.263-.841,3.585,3.585,0,0,1,.165-.358q.1-.182.209-.356s0,0,0,0c.068-.107.145-.211.223-.311a.654.654,0,0,1,.067-.078,1.651,1.651,0,0,1,.178-.206c.071-.075.142-.15.219-.222,0-.009.008-.014.013-.011a7.92,7.92,0,0,1,3.7-1.819C311.9,614.878,335.436,621.934,347.063,626.334Zm6.068,4.089s23.941-4.882,25.069,5.246c1.212,10.881-27.439,2.963-27.439,2.963s10.466,1.982,9.892-4.2C360.1,628.457,353.131,630.424,353.131,630.424Z" transform="translate(-341.231 -293.922)" fill="#30334d"/>
      <path id="Path_52214" data-name="Path 52214" d="M368.1,572.718v25.46a2.483,2.483,0,0,1-2.482,2.482H326.6a2.482,2.482,0,0,1-2.482-2.482v-25.46a2.483,2.483,0,0,1,2.482-2.482h39.011A2.482,2.482,0,0,1,368.1,572.718Z" transform="translate(-352.237 -275.514)" fill="#fff"/>
      <path id="Path_52215" data-name="Path 52215" d="M354.025,592.833a3.885,3.885,0,1,1,3.885,3.885A3.885,3.885,0,0,1,354.025,592.833Z" transform="translate(-364.038 -282.899)" fill="#d7e0fa"/>
      <path id="Path_52216" data-name="Path 52216" d="M368.1,572.718v25.46a2.483,2.483,0,0,1-2.482,2.482H326.6a2.482,2.482,0,0,1-2.482-2.482c39.454,1.811,43.974-3.975,41.493-27.942A2.482,2.482,0,0,1,368.1,572.718Z" transform="translate(-352.237 -275.514)" fill="#d7e0fa"/>
      <path id="Path_52217" data-name="Path 52217" d="M411.323,580.5a13.6,13.6,0,0,1-3.368,6.337.607.607,0,0,1-.776.1l-2.3-1.492c1.208-2.094,2.989-3.755,3.825-7,2.239-8.677-3.408-21.148-3.715-21.9C409.114,565,412.312,575.12,411.323,580.5Z" transform="translate(-384.106 -270.115)" fill="#b53344"/>
      <path id="Path_52218" data-name="Path 52218" d="M346.736,494.216a9.917,9.917,0,0,1-.877-11.6s1.139,2.063,2.49,1.493c0,0,.071-4.838,9.89-5.834,0,0-.712,1.921-.356,2.419,3.238-1.423,6.379,2.11,9.535.782,0,0,.872,5.606-2.757,8.879a4.994,4.994,0,0,1-.73,3.857C362.65,496.138,346.736,494.216,346.736,494.216Z" transform="translate(-360.233 -239.227)" fill="#222438"/>
      <path id="Path_52219" data-name="Path 52219" d="M349.164,498.186s-2.121-2.074-2.32-.061c-.237,2.382,2.6,4.154,2.6,4.154s.691,7.366,6.905,7.366c6.164,0,7.2-7.394,7.2-7.394s3.242-.884,2.554-3.684c-.326-1.329-2.017.029-2.017.029v-3.5s-1.728.878-5.063-.552c-2.415-1.037-3.276-2.475-5.34-2.394C351.326,492.245,349.072,494.826,349.164,498.186Z" transform="translate(-361.199 -244.7)" fill="#ffd8d9"/>
    </g>
    <circle id="Ellipse_2233" data-name="Ellipse 2233" cx="1.717" cy="1.717" r="1.717" transform="translate(200.265 218.361)" fill="#fff"/>
    <path id="Path_52222" data-name="Path 52222" d="M436.241,427.607a1.717,1.717,0,1,1,1.717,1.717,1.717,1.717,0,0,1-1.717-1.717Z" transform="translate(-230.482 -207.529)" fill="#fff"/>
    <path id="Path_52223" data-name="Path 52223" d="M24.988,153.506a.837.837,0,1,1,1.184-1.184l3.47,3.47,9.541-9.541a.826.826,0,0,1,1.184,0,.856.856,0,0,1,0,1.184L30.225,157.56a.826.826,0,0,1-1.184,0Z" transform="translate(345.26 82.251)" fill="#326ab3"/>
    <path id="Path_52224" data-name="Path 52224" d="M24.988,153.506a.837.837,0,1,1,1.184-1.184l3.47,3.47,9.541-9.541a.826.826,0,0,1,1.184,0,.856.856,0,0,1,0,1.184L30.225,157.56a.826.826,0,0,1-1.184,0Z" transform="translate(345.26 117.251)" fill="#326ab3"/>
  </g>
</svg>
