<svg xmlns="http://www.w3.org/2000/svg" width="39.743" height="31.038" viewBox="0 0 39.743 31.038">
  <g id="noun-quote-7075037" transform="translate(-10.003 -18.772)">
    <path id="Path_37785" data-name="Path 37785" d="M10.135,45.051a5.362,5.362,0,0,0,5.29,4.754h6A5.426,5.426,0,0,0,26.85,44.38v-6a5.426,5.426,0,0,0-5.426-5.426h-.074a1.688,1.688,0,0,1-1.688-1.614v-.01a7.133,7.133,0,0,1,4.331-5.98,3.368,3.368,0,0,0,1.892-2.006,3.433,3.433,0,0,0-3.939-4.49c-6.7,1.471-12.161,8.162-11.938,15.081l.13,11.123Z" transform="translate(0 0)" fill="#044783"/>
    <path id="Path_37786" data-name="Path 37786" d="M67.507,32.954h-.074a1.688,1.688,0,0,1-1.688-1.614v-.01a7.133,7.133,0,0,1,4.331-5.981,3.368,3.368,0,0,0,1.892-2.006,3.433,3.433,0,0,0-3.939-4.49c-6.7,1.471-12.161,8.162-11.938,15.081l.13,11.123a5.362,5.362,0,0,0,5.29,4.754h6a5.426,5.426,0,0,0,5.426-5.426v-6a5.426,5.426,0,0,0-5.426-5.426Z" transform="translate(-23.19 0)" fill="#044783"/>
  </g>
</svg>
