<svg id="Group_118" data-name="Group 118" xmlns="http://www.w3.org/2000/svg" width="46.053" height="48.814" viewBox="0 0 46.053 48.814">
  <path id="Path_152" data-name="Path 152" d="M83.538,41.076,61.573,24.856a1.061,1.061,0,0,0-1.257,0L38.341,41.076a1.031,1.031,0,0,0,.623,1.869h3.062V64.91h-2.82a1.068,1.068,0,0,0-1.077,1.045v6.484a1.044,1.044,0,0,0,1.077,1.024H82.682a1.051,1.051,0,0,0,1.077-1.024V65.955a1.062,1.062,0,0,0-1.077-1.045H79.842V42.956H82.9a1.041,1.041,0,0,0,.634-1.88ZM60.939,27,79.694,40.844H42.185ZM66.008,64.92V42.956H70.76V64.92ZM55.871,42.956V64.92H51.119V42.956Zm2.112,0H63.9V64.92H57.983Zm-13.834,0h4.858V64.92H44.149ZM81.637,71.362h-41.4v-4.33h41.4ZM77.73,64.92H72.872V42.956H77.73Z" transform="translate(-37.909 -24.65)" fill="#30c768"/>
</svg>
