<svg xmlns="http://www.w3.org/2000/svg" width="18.873" height="20.004" viewBox="0 0 18.873 20.004">
  <g id="Group_53738" data-name="Group 53738" transform="translate(-37.909 -24.65)">
    <path id="Path_44794" data-name="Path 44794" d="M56.608,31.381l-9-6.647a.435.435,0,0,0-.515,0l-9.006,6.647a.422.422,0,0,0,.255.766H39.6v9H38.441a.438.438,0,0,0-.441.428v2.657a.428.428,0,0,0,.441.42H56.257a.431.431,0,0,0,.441-.42V41.577a.435.435,0,0,0-.441-.428H55.093v-9h1.255a.427.427,0,0,0,.26-.77Zm-9.261-5.769,7.686,5.673H39.661Zm2.077,15.54v-9h1.947v9Zm-4.154-9v9H43.322v-9Zm.866,0h2.423v9H46.135Zm-5.669,0h1.991v9H40.466ZM55.829,43.793H38.865V42.018H55.829Zm-1.6-2.64H52.237v-9h1.991Z" transform="translate(0 0)"/>
  </g>
</svg>
