<svg xmlns="http://www.w3.org/2000/svg" xmlns:xlink="http://www.w3.org/1999/xlink" width="64" height="75" viewBox="0 0 64 75">
  <defs>
    <clipPath id="clip-path">
      <rect id="Rectangle_20829" data-name="Rectangle 20829" width="64" height="75" transform="translate(166 666.643)" fill="#fff" stroke="#707070" stroke-width="1"/>
    </clipPath>
  </defs>
  <g id="Mask_Group_2" data-name="Mask Group 2" transform="translate(-166 -666.643)" clip-path="url(#clip-path)">
    <g id="Group_54541" data-name="Group 54541" transform="translate(152.286 660.143)">
      <path id="Polygon_3" data-name="Polygon 3" d="M51.422,0a3,3,0,0,1,2.59,1.485l15.96,27.286a3,3,0,0,1,0,3.029L54.012,59.086a3,3,0,0,1-2.59,1.485H19.435a3,3,0,0,1-2.59-1.485L.886,31.8a3,3,0,0,1,0-3.029L16.846,1.485A3,3,0,0,1,19.435,0Z" transform="translate(30 0.5) rotate(30)" fill="#fbd153"/>
      <g id="Group_53825" data-name="Group 53825" transform="translate(26.714 21.16)">
        <g id="Group_53830" data-name="Group 53830" transform="translate(2 6.34)">
          <path id="Path_43986" data-name="Path 43986" d="M56.313,24.164a.135.135,0,0,1-.137-.137V12.194a2.059,2.059,0,1,0-4.118,0v1.8a2.042,2.042,0,1,1-4.085,0V9.229a2.616,2.616,0,0,0-5.232,0v2.149a.137.137,0,1,1-.273,0V9.229a2.889,2.889,0,0,1,5.778,0v4.765a1.769,1.769,0,1,0,3.539,0v-1.8a2.332,2.332,0,1,1,4.664,0V24.025A.138.138,0,0,1,56.313,24.164Z" transform="translate(-31.42 -6.34)" fill="#656d78"/>
          <path id="Path_43987" data-name="Path 43987" d="M11.731,19.75H8.941a.577.577,0,0,0-.579.576v1.663a.579.579,0,0,0,.579.579H9V28A9.923,9.923,0,0,0,5.247,44.818a6.855,6.855,0,0,0,4.62,1.742h1.865Z" transform="translate(-2 -16.088)" fill="#158ed8"/>
          <path id="Path_43989" data-name="Path 43989" d="M24.817,48.679a6.929,6.929,0,0,1-4.781,1.884H15.926a6.85,6.85,0,0,1-4.62-1.742A9.92,9.92,0,0,1,15.058,32V25.26h5.854V32a9.921,9.921,0,0,1,3.9,16.68Z" transform="translate(-6.405 -20.094)" fill="#fff"/>
          <path id="Path_43990" data-name="Path 43990" d="M28.641,72.628a4.976,4.976,0,0,1-3.451,1.354H21.083a4.908,4.908,0,0,1-3.32-1.24,8,8,0,0,1-.36-11.479,1.054,1.054,0,0,1,1.69.257c1.387,2.627,5.122-1.707,8.189-1.371a1.036,1.036,0,0,1,.5.188,7.972,7.972,0,0,1,.86,12.29Z" transform="translate(-11.559 -45.444)" fill="#ff5671"/>
          <path id="Path_43991" data-name="Path 43991" d="M36.485,72.62a4.976,4.976,0,0,1-3.451,1.354H28.927a4.963,4.963,0,0,1-2.987-.964l8.806-12.89a3.413,3.413,0,0,1,.377.019,1.036,1.036,0,0,1,.5.188,7.978,7.978,0,0,1,.863,12.292Z" transform="translate(-19.403 -45.436)" fill="#ff444a"/>
          <path id="Path_43994" data-name="Path 43994" d="M38.491,20.326v1.663a.579.579,0,0,1-.576.579H31.949a.579.579,0,0,1-.579-.579V20.326a.577.577,0,0,1,.579-.576h5.966A.576.576,0,0,1,38.491,20.326Z" transform="translate(-23.351 -16.088)" fill="#fff"/>
          <path id="Path_43995" data-name="Path 43995" d="M38.811,20.341V22a.579.579,0,0,1-.576.579H32.269a.566.566,0,0,1-.459-.229l6.507-2.583A.577.577,0,0,1,38.811,20.341Z" transform="translate(-23.671 -16.103)" fill="#fadfcb"/>
          <path id="Path_43996" data-name="Path 43996" d="M37.551,22.341H31.585a.716.716,0,0,1-.715-.715V19.963a.715.715,0,0,1,.715-.713h5.966a.713.713,0,0,1,.713.713v1.663A.716.716,0,0,1,37.551,22.341Zm-5.966-2.818a.44.44,0,0,0-.442.44v1.663a.444.444,0,0,0,.442.442h5.966a.442.442,0,0,0,.44-.442V19.963a.439.439,0,0,0-.44-.44Z" transform="translate(-22.987 -15.725)" fill="#656d78"/>
          <path id="Path_43997" data-name="Path 43997" d="M60.1,51.11H56.821a.561.561,0,0,0-.56.562v1.676a.561.561,0,0,0,.56.56H57.1V59.55l-6.873,8.481a2.835,2.835,0,0,0,2.2,4.62H60.1Z" transform="translate(-36.599 -38.886)" fill="#158ed8"/>
          <path id="Path_43999" data-name="Path 43999" d="M75.649,73.65l-6.875-8.478V58.84H63.627v6.332L56.752,73.65a2.835,2.835,0,0,0,2.2,4.62H73.446A2.835,2.835,0,0,0,75.649,73.65Z" transform="translate(-41.339 -44.505)" fill="#fff"/>
          <path id="Path_44000" data-name="Path 44000" d="M78.535,97.137,72.828,90.1a.392.392,0,0,0-.134-.106c-1.515-.7-3.173,1.19-4.664.24a.367.367,0,0,0-.486.068L62,97.135a1.313,1.313,0,0,0,1.018,2.141H77.514a1.313,1.313,0,0,0,1.021-2.138Z" transform="translate(-45.404 -67.034)" fill="#ffc378"/>
          <path id="Path_44001" data-name="Path 44001" d="M79.7,99.224a1.294,1.294,0,0,1-1.185.751h-14.5a1.234,1.234,0,0,1-.937-.4L73.824,90.79l5.707,7.042A1.293,1.293,0,0,1,79.7,99.224Z" transform="translate(-46.402 -67.731)" fill="#ffab41"/>
          <path id="Path_44004" data-name="Path 44004" d="M87.373,51.665v1.676a.563.563,0,0,1-.562.562H81.092a.563.563,0,0,1-.562-.562V51.665a.564.564,0,0,1,.562-.565H86.81A.566.566,0,0,1,87.373,51.665Z" transform="translate(-59.088 -38.878)" fill="#fff"/>
          <path id="Path_44005" data-name="Path 44005" d="M87.54,51.941v1.677a.563.563,0,0,1-.562.56H81.26a.563.563,0,0,1-.5-.3L87.3,51.48A.551.551,0,0,1,87.54,51.941Z" transform="translate(-59.255 -39.155)" fill="#fadfcb"/>
          <path id="Path_44006" data-name="Path 44006" d="M86.447,53.677H80.729a.7.7,0,0,1-.7-.7V51.3a.7.7,0,0,1,.7-.7h5.718a.7.7,0,0,1,.7.7v1.676A.7.7,0,0,1,86.447,53.677Zm-5.718-2.8a.427.427,0,0,0-.426.429v1.676a.426.426,0,0,0,.426.426h5.718a.427.427,0,0,0,.426-.426V51.3a.429.429,0,0,0-.426-.429Z" transform="translate(-58.724 -38.515)" fill="#656d78"/>
        </g>
      </g>
    </g>
  </g>
</svg>
