<svg xmlns="http://www.w3.org/2000/svg" width="41.692" height="27.3" viewBox="0 0 41.692 27.3">
  <g id="Group_53710" data-name="Group 53710" transform="translate(-0.215 -11.35)">
    <path id="Path_44729" data-name="Path 44729" d="M5.956,33.071l-1.685.259A3.14,3.14,0,0,1,.9,30.024V27.691a3.109,3.109,0,0,1,3.371-3.306l1.1.194a10.988,10.988,0,0,0-.519,3.76A8.148,8.148,0,0,0,5.956,33.071Z" transform="translate(0 -4.311)" fill="#fecb4d" stroke="#707070" stroke-width="1"/>
    <path id="Path_44730" data-name="Path 44730" d="M3.917,33.411A3.2,3.2,0,0,1,1,30.04V27.706A3.271,3.271,0,0,1,3.463,24.4" transform="translate(-0.035 -4.327)" fill="none" stroke="#2a3c65" stroke-linecap="round" stroke-linejoin="round" stroke-miterlimit="10" stroke-width="1.5"/>
    <path id="Path_44731" data-name="Path 44731" d="M55.3,33.071l1.685.259a3.14,3.14,0,0,0,3.371-3.306V27.691a3.109,3.109,0,0,0-3.371-3.306l-1.1.194a9.558,9.558,0,0,1,.583,3.76A8.675,8.675,0,0,1,55.3,33.071Z" transform="translate(-19.135 -4.311)" fill="#fecb4d" stroke="#707070" stroke-width="1"/>
    <path id="Path_44732" data-name="Path 44732" d="M58.954,24.4a3.271,3.271,0,0,1,2.463,3.306V30.04A3.091,3.091,0,0,1,58.5,33.346" transform="translate(-20.261 -4.327)" fill="none" stroke="#2a3c65" stroke-linecap="round" stroke-linejoin="round" stroke-miterlimit="10" stroke-width="1.5"/>
    <path id="Path_44733" data-name="Path 44733" d="M22.039,27.96c0,2.982-.778,5.445-3.76,5.445H11.732C7.972,33.406,7,30.553,7,27.053S7.972,20.7,11.732,20.7c.389,0,1.361.065,2.658.13a1.08,1.08,0,0,1,1.037,1.1v.778c1.426-.065,2.463-.13,2.852-.13C21.262,22.58,22.039,24.978,22.039,27.96Z" transform="translate(-2.146 -3.025)" fill="#ff7daf" stroke="#707070" stroke-width="1"/>
    <path id="Path_44734" data-name="Path 44734" d="M22.039,27.96c0,2.982-.778,5.445-3.76,5.445H11.732C7.972,33.406,7,30.553,7,27.053S7.972,20.7,11.732,20.7c.389,0,1.361.065,2.658.13a1.08,1.08,0,0,1,1.037,1.1v.778c1.426-.065,2.463-.13,2.852-.13C21.262,22.58,22.039,24.978,22.039,27.96Z" transform="translate(-2.146 -3.025)" fill="none" stroke="#2a3c65" stroke-linecap="round" stroke-linejoin="round" stroke-miterlimit="10" stroke-width="1.5"/>
    <line id="Line_2187" data-name="Line 2187" x1="2.399" y2="0.13" transform="translate(10.883 19.685)" fill="none" stroke="#2a3c65" stroke-linecap="round" stroke-linejoin="round" stroke-miterlimit="10" stroke-width="1.5"/>
    <path id="Path_44735" data-name="Path 44735" d="M33.8,27.96c0,2.982.778,5.445,3.76,5.445h6.547c3.76,0,4.732-2.852,4.732-6.353S47.867,20.7,44.107,20.7c-.389,0-1.361.065-2.658.13a1.08,1.08,0,0,0-1.037,1.1v.778c-1.426-.065-2.463-.13-2.852-.13C34.578,22.58,33.8,24.978,33.8,27.96Z" transform="translate(-11.573 -3.025)" fill="#27d1ff" stroke="#707070" stroke-width="1"/>
    <path id="Path_44736" data-name="Path 44736" d="M33.8,27.96c0,2.982.778,5.445,3.76,5.445h6.547c3.76,0,4.732-2.852,4.732-6.353S47.867,20.7,44.107,20.7c-.389,0-1.361.065-2.658.13a1.08,1.08,0,0,0-1.037,1.1v.778c-1.426-.065-2.463-.13-2.852-.13C34.578,22.58,33.8,24.978,33.8,27.96Z" transform="translate(-11.573 -3.025)" fill="none" stroke="#2a3c65" stroke-linecap="round" stroke-linejoin="round" stroke-miterlimit="10" stroke-width="1.5"/>
    <line id="Line_2188" data-name="Line 2188" x2="2.399" y2="0.13" transform="translate(28.84 19.685)" fill="none" stroke="#2a3c65" stroke-linecap="round" stroke-linejoin="round" stroke-miterlimit="10" stroke-width="1.5"/>
    <line id="Line_2189" data-name="Line 2189" y2="2.852" transform="translate(21.061 35.048)" fill="none" stroke="#2a3c65" stroke-linecap="round" stroke-linejoin="round" stroke-miterlimit="10" stroke-width="1.5"/>
    <line id="Line_2190" data-name="Line 2190" x2="1.361" y2="2.723" transform="translate(23.718 33.557)" fill="none" stroke="#2a3c65" stroke-linecap="round" stroke-linejoin="round" stroke-miterlimit="10" stroke-width="1.5"/>
    <line id="Line_2191" data-name="Line 2191" x1="1.361" y2="2.723" transform="translate(17.041 33.557)" fill="none" stroke="#2a3c65" stroke-linecap="round" stroke-linejoin="round" stroke-miterlimit="10" stroke-width="1.5"/>
    <line id="Line_2192" data-name="Line 2192" y1="2.852" transform="translate(21.061 12.1)" fill="none" stroke="#2a3c65" stroke-linecap="round" stroke-linejoin="round" stroke-miterlimit="10" stroke-width="1.5"/>
    <line id="Line_2193" data-name="Line 2193" x1="1.361" y1="2.723" transform="translate(17.041 13.721)" fill="none" stroke="#2a3c65" stroke-linecap="round" stroke-linejoin="round" stroke-miterlimit="10" stroke-width="1.5"/>
    <line id="Line_2194" data-name="Line 2194" y1="2.723" x2="1.361" transform="translate(23.718 13.721)" fill="none" stroke="#2a3c65" stroke-linecap="round" stroke-linejoin="round" stroke-miterlimit="10" stroke-width="1.5"/>
    <circle id="Ellipse_2154" data-name="Ellipse 2154" cx="2.269" cy="2.269" r="2.269" transform="translate(26.571 22.796)" fill="#fff" stroke="#707070" stroke-width="1"/>
    <circle id="Ellipse_2155" data-name="Ellipse 2155" cx="2.269" cy="2.269" r="2.269" transform="translate(26.571 22.796)" fill="none" stroke="#2a3c65" stroke-linecap="round" stroke-linejoin="round" stroke-miterlimit="10" stroke-width="1.5"/>
    <circle id="Ellipse_2156" data-name="Ellipse 2156" cx="2.269" cy="2.269" r="2.269" transform="translate(11.013 22.796)" fill="#fff" stroke="#707070" stroke-width="1"/>
    <circle id="Ellipse_2157" data-name="Ellipse 2157" cx="2.269" cy="2.269" r="2.269" transform="translate(11.013 22.796)" fill="none" stroke="#2a3c65" stroke-linecap="round" stroke-linejoin="round" stroke-miterlimit="10" stroke-width="1.5"/>
  </g>
</svg>
