<svg xmlns="http://www.w3.org/2000/svg" width="40.321" height="25.8" viewBox="0 0 40.321 25.8">
  <g id="Group_53710" data-name="Group 53710" transform="translate(-0.9 -12.1)">
    <path id="Path_44729" data-name="Path 44729" d="M5.956,33.071l-1.685.259A3.14,3.14,0,0,1,.9,30.024V27.691a3.109,3.109,0,0,1,3.371-3.306l1.1.194a10.988,10.988,0,0,0-.519,3.76A8.148,8.148,0,0,0,5.956,33.071Z" transform="translate(0 -4.311)" fill="#fff"/>
    <path id="Path_44730" data-name="Path 44730" d="M3.917,33.411A3.2,3.2,0,0,1,1,30.04V27.706A3.271,3.271,0,0,1,3.463,24.4" transform="translate(-0.035 -4.327)" fill="none"/>
    <path id="Path_44731" data-name="Path 44731" d="M55.3,33.071l1.685.259a3.14,3.14,0,0,0,3.371-3.306V27.691a3.109,3.109,0,0,0-3.371-3.306l-1.1.194a9.558,9.558,0,0,1,.583,3.76A8.675,8.675,0,0,1,55.3,33.071Z" transform="translate(-19.135 -4.311)" fill="#fff"/>
    <path id="Path_44732" data-name="Path 44732" d="M58.954,24.4a3.271,3.271,0,0,1,2.463,3.306V30.04A3.091,3.091,0,0,1,58.5,33.346" transform="translate(-20.261 -4.327)" fill="none"/>
    <path id="Subtraction_11" data-name="Subtraction 11" d="M-1241.76,17468.809h-6.545a4.122,4.122,0,0,1-3.778-1.865,8.519,8.519,0,0,1-.957-4.488,8.525,8.525,0,0,1,.957-4.492,4.072,4.072,0,0,1,3.778-1.865c.24,0,.7.025,1.343.061l.074,0c.431.025.836.049,1.24.068a1.083,1.083,0,0,1,1.035,1.1v.781c.624-.029,1.074-.053,1.458-.074.708-.037,1.164-.059,1.4-.059a3.18,3.18,0,0,1,3,1.572,7.615,7.615,0,0,1,.763,3.813,7.753,7.753,0,0,1-.763,3.838A3.2,3.2,0,0,1-1241.76,17468.809Zm-2.854-7.59a2.271,2.271,0,0,0-2.267,2.271,2.268,2.268,0,0,0,2.267,2.266,2.27,2.27,0,0,0,2.271-2.266A2.273,2.273,0,0,0-1244.614,17461.219Z" transform="translate(1257.894 -17438.426)" fill="#fff"/>
    <path id="Path_44734" data-name="Path 44734" d="M22.039,27.96c0,2.982-.778,5.445-3.76,5.445H11.732C7.972,33.406,7,30.553,7,27.053S7.972,20.7,11.732,20.7c.389,0,1.361.065,2.658.13a1.08,1.08,0,0,1,1.037,1.1v.778c1.426-.065,2.463-.13,2.852-.13C21.262,22.58,22.039,24.978,22.039,27.96Z" transform="translate(-2.146 -3.025)" fill="none"/>
    <line id="Line_2187" data-name="Line 2187" x1="2.399" y2="0.13" transform="translate(10.883 19.685)" fill="none"/>
    <path id="Subtraction_12" data-name="Subtraction 12" d="M-1242.733,17468.809h-6.545a3.2,3.2,0,0,1-3-1.607,7.753,7.753,0,0,1-.763-3.838,7.615,7.615,0,0,1,.763-3.812,3.18,3.18,0,0,1,3-1.572c.231,0,.688.021,1.4.059.524.029.984.053,1.449.074v-.781a1.085,1.085,0,0,1,1.039-1.1c.405-.02.811-.043,1.24-.068l.073,0c.639-.035,1.1-.061,1.343-.061a4.072,4.072,0,0,1,3.778,1.865,8.525,8.525,0,0,1,.957,4.492,8.519,8.519,0,0,1-.957,4.488A4.122,4.122,0,0,1-1242.733,17468.809Zm-3.7-7.59a2.271,2.271,0,0,0-2.267,2.271,2.268,2.268,0,0,0,2.267,2.266,2.27,2.27,0,0,0,2.271-2.266A2.273,2.273,0,0,0-1246.429,17461.219Z" transform="translate(1275.267 -17438.426)" fill="#fff"/>
    <path id="Path_44736" data-name="Path 44736" d="M33.8,27.96c0,2.982.778,5.445,3.76,5.445h6.547c3.76,0,4.732-2.852,4.732-6.353S47.867,20.7,44.107,20.7c-.389,0-1.361.065-2.658.13a1.08,1.08,0,0,0-1.037,1.1v.778c-1.426-.065-2.463-.13-2.852-.13C34.578,22.58,33.8,24.978,33.8,27.96Z" transform="translate(-11.573 -3.025)" fill="none"/>
    <line id="Line_2188" data-name="Line 2188" x2="2.399" y2="0.13" transform="translate(28.84 19.685)" fill="none"/>
    <line id="Line_2189" data-name="Line 2189" y2="2.852" transform="translate(21.061 35.048)" fill="none"/>
    <line id="Line_2190" data-name="Line 2190" x2="1.361" y2="2.723" transform="translate(23.718 33.557)" fill="none"/>
    <line id="Line_2191" data-name="Line 2191" x1="1.361" y2="2.723" transform="translate(17.041 33.557)" fill="none"/>
    <line id="Line_2192" data-name="Line 2192" y1="2.852" transform="translate(21.061 12.1)" fill="none"/>
    <line id="Line_2193" data-name="Line 2193" x1="1.361" y1="2.723" transform="translate(17.041 13.721)" fill="none"/>
    <line id="Line_2194" data-name="Line 2194" y1="2.723" x2="1.361" transform="translate(23.718 13.721)" fill="none"/>
    <circle id="Ellipse_2155" data-name="Ellipse 2155" cx="2.269" cy="2.269" r="2.269" transform="translate(26.571 22.796)" fill="none"/>
    <circle id="Ellipse_2157" data-name="Ellipse 2157" cx="2.269" cy="2.269" r="2.269" transform="translate(11.013 22.796)" fill="none"/>
  </g>
</svg>
