<svg xmlns="http://www.w3.org/2000/svg" width="26.626" height="29.547" viewBox="0 0 26.626 29.547">
  <g id="Group_53775" data-name="Group 53775" transform="translate(-7.6 -1.5)">
    <path id="Path_44813" data-name="Path 44813" d="M34.193,41.694c-.024-.5-.047-1.064-.095-1.7a36.65,36.65,0,0,0-.4-3.829c-.024-.095-.024-.165-.047-.26a2.767,2.767,0,0,0-1.418-1.749c-1.56-.78-4.231-1.773-6.122-2.458l.189,1.418a57.018,57.018,0,0,1,5.366,2.175,1.4,1.4,0,0,1,.756.922v.047c0,.024.024.047.024.095.142.9.284,2.127.378,3.688.024.52.071,1.087.095,1.678v.095H8.947v-.095c.024-.591.047-1.158.095-1.678.095-1.56.236-2.789.378-3.688,0-.047.024-.071.024-.095V36.21a1.474,1.474,0,0,1,.756-.922,57.018,57.018,0,0,1,5.366-2.175l.189-1.418a62.258,62.258,0,0,0-6.122,2.458A2.7,2.7,0,0,0,8.215,35.9c-.024.095-.047.165-.071.26-.189,1.111-.307,2.529-.4,3.829-.047.615-.071,1.206-.095,1.7-.024.851-.047,1.418-.047,1.418H34.216C34.24,43.113,34.216,42.545,34.193,41.694ZM26.558,21.366h0V20.018c0-1.3-.024-2.718-.024-2.718l-1.347.236-1.395.236-2.577.449a.416.416,0,0,0-.142.024h-.142a.836.836,0,0,1-.142-.024l-2.577-.449-1.395-.236L15.471,17.3v3.664s0,.189-.024.425h0a4.722,4.722,0,0,0,.047.8l.756,3.829a4.777,4.777,0,0,0,4.728,3.971,4.887,4.887,0,0,0,4.8-3.948l.733-3.853C26.534,21.909,26.558,21.649,26.558,21.366Zm-1.04.662-.733,3.806a3.875,3.875,0,0,1-7.611,0l-.733-3.806a4.185,4.185,0,0,1-.024-.544h0a5.744,5.744,0,0,1,4.562,2.08h0a5.744,5.744,0,0,1,4.562-2.08h.024A3.881,3.881,0,0,1,25.518,22.028Z" transform="translate(0 -12.065)" fill="#fff"/>
    <path id="Path_44814" data-name="Path 44814" d="M24.507,3.817l2.789.5,1.087.189,1.844.331,1.867.331,1.489.26h.142l1.489-.26,1.867-.331L38.926,4.5l1.087-.189,2.553-.449V7.693L42,10.979l.047.024a2.583,2.583,0,0,0,.4.118,2.293,2.293,0,0,0,.4.024,2.331,2.331,0,0,0,.567-.071L43.63,11l.047-.024-.615-3.286V3.462a.213.213,0,0,0-.024-.118h0a.366.366,0,0,0-.284-.236L33.7,1.5h-.118L24.507,3.084a.366.366,0,0,0-.284.236h0a.213.213,0,0,0-.024.118A.434.434,0,0,0,24.507,3.817ZM37.674,19.63h-1.3a3.062,3.062,0,0,1-1.087,1.111c-.095.047-.189.118-.284.165a3.352,3.352,0,0,1-1.395.307,3.243,3.243,0,0,1-1.371-.307,1.763,1.763,0,0,1-.284-.165,2.882,2.882,0,0,1-1.087-1.111h-1.3L29.4,20.907l-.9,6.831,5.106-2.127,5.129,2.127-.9-6.831Z" transform="translate(-12.676)" fill="#fff"/>
  </g>
</svg>
