<svg xmlns="http://www.w3.org/2000/svg" xmlns:xlink="http://www.w3.org/1999/xlink" width="64" height="75" viewBox="0 0 64 75">
  <defs>
    <clipPath id="clip-path">
      <rect id="Rectangle_20842" data-name="Rectangle 20842" width="64" height="75" transform="translate(166 666.643)" fill="#fff" stroke="#707070" stroke-width="1"/>
    </clipPath>
  </defs>
  <g id="Mask_Group_10" data-name="Mask Group 10" transform="translate(-166 -666.643)" clip-path="url(#clip-path)">
    <g id="Group_54628" data-name="Group 54628" transform="translate(152.286 660.143)">
      <path id="Polygon_11" data-name="Polygon 11" d="M51.422,0a3,3,0,0,1,2.59,1.485l15.96,27.286a3,3,0,0,1,0,3.029L54.012,59.086a3,3,0,0,1-2.59,1.485H19.435a3,3,0,0,1-2.59-1.485L.886,31.8a3,3,0,0,1,0-3.029L16.846,1.485A3,3,0,0,1,19.435,0Z" transform="translate(30 0.5) rotate(30)" fill="#e483c9"/>
      <g id="Group_54636" data-name="Group 54636" transform="translate(28.634 27.999)">
        <circle id="Ellipse_2126" data-name="Ellipse 2126" cx="9.854" cy="9.854" r="9.854" transform="translate(6.852 7.07)" fill="#fadfcb"/>
        <g id="Group_54635" data-name="Group 54635" transform="translate(1.08 1.501)">
          <g id="Group_54632" data-name="Group 54632" transform="translate(0 0)">
            <circle id="Ellipse_2127" data-name="Ellipse 2127" cx="12.922" cy="12.922" r="12.922" transform="translate(5.086 4.883)" fill="#fff"/>
            <path id="Path_44661" data-name="Path 44661" d="M25.107,50.953c.1,1.047,1.265,1.817,1.205,2.87a2.272,2.272,0,0,1-1.019,1.535,7.586,7.586,0,0,1-1.994,1.11A12.945,12.945,0,0,1,24.868,43.93a6.005,6.005,0,0,1,.756.921,3.924,3.924,0,0,1,.548,3.484C25.82,49.224,25.019,50,25.107,50.953Z" transform="translate(-17.264 -33.784)" fill="#158ed8"/>
            <path id="Path_44662" data-name="Path 44662" d="M60.026,43.44A12.92,12.92,0,0,1,37.9,52.508L55.007,33.22A12.892,12.892,0,0,1,60.026,43.44Z" transform="translate(-29.095 -25.635)" fill="#2abddc"/>
            <path id="Path_44663" data-name="Path 44663" d="M34.892,47.5A13.042,13.042,0,1,1,47.934,34.462,13.056,13.056,0,0,1,34.892,47.5Zm0-25.842a12.8,12.8,0,1,0,12.8,12.8A12.818,12.818,0,0,0,34.892,21.662Z" transform="translate(-16.883 -16.657)"/>
            <path id="Path_44664" data-name="Path 44664" d="M22.919,56.2a.119.119,0,0,1-.11-.074A13.068,13.068,0,0,1,24.39,43.467a.118.118,0,0,1,.088-.048.121.121,0,0,1,.093.036,6.045,6.045,0,0,1,.77.94,4,4,0,0,1,.557,3.592,6.529,6.529,0,0,1-.473.906,2.824,2.824,0,0,0-.581,1.66h0a2.983,2.983,0,0,0,.588,1.3,2.7,2.7,0,0,1,.617,1.59,2.312,2.312,0,0,1-1.064,1.621,7.615,7.615,0,0,1-2.028,1.126A.065.065,0,0,1,22.919,56.2ZM24.5,43.725a12.829,12.829,0,0,0-1.514,12.2,7.375,7.375,0,0,0,1.853-1.05,2.106,2.106,0,0,0,.971-1.447,2.491,2.491,0,0,0-.579-1.447,3.19,3.19,0,0,1-.627-1.406,3.045,3.045,0,0,1,.615-1.8,6.057,6.057,0,0,0,.457-.87,3.77,3.77,0,0,0-.536-3.374A5.579,5.579,0,0,0,24.5,43.725Z" transform="translate(-16.883 -33.395)"/>
            <path id="Path_44665" data-name="Path 44665" d="M58.973,72.58c-.627.134-1.2-.734-1.8-.5-.371.148-.478.638-.806.873a1.119,1.119,0,0,1-.82.136,2.726,2.726,0,0,1-.715-.206,3.422,3.422,0,0,1-1.306-1,2.41,2.41,0,0,1-.6-1.856,2.127,2.127,0,0,1,1.15-1.459,4.013,4.013,0,0,1,1.863-.385,4.58,4.58,0,0,1,2.453.693,3.239,3.239,0,0,1,.875.818C59.721,70.33,60.066,72.346,58.973,72.58Z" transform="translate(-40.51 -52.235)" fill="#158ed8"/>
            <path id="Path_44666" data-name="Path 44666" d="M65.119,74.794c-.627.134-1.2-.734-1.8-.5-.371.148-.478.638-.806.873a1.119,1.119,0,0,1-.82.136,2.726,2.726,0,0,1-.715-.206l3.556-4.008a3.239,3.239,0,0,1,.875.818C65.868,72.544,66.212,74.56,65.119,74.794Z" transform="translate(-46.656 -54.449)" fill="#015ed4"/>
            <path id="Path_44667" data-name="Path 44667" d="M55.422,72.855a2.213,2.213,0,0,1-.273-.019,3.39,3.39,0,0,1-2.1-1.253,2.537,2.537,0,0,1-.627-1.949,2.234,2.234,0,0,1,1.21-1.545,4.089,4.089,0,0,1,1.92-.4h0a4.267,4.267,0,0,1,3.42,1.564,3.141,3.141,0,0,1,.34,2.437.955.955,0,0,1-.7.636,1.366,1.366,0,0,1-.961-.282c-.289-.167-.562-.325-.818-.225a.965.965,0,0,0-.4.418,1.6,1.6,0,0,1-.375.44A1.065,1.065,0,0,1,55.422,72.855Zm.132-4.928h0a3.845,3.845,0,0,0-1.81.373,1.992,1.992,0,0,0-1.086,1.373,2.288,2.288,0,0,0,.576,1.76A3.153,3.153,0,0,0,55.181,72.6a.993.993,0,0,0,.732-.115,1.407,1.407,0,0,0,.316-.375,1.169,1.169,0,0,1,.517-.509,1.182,1.182,0,0,1,1.026.239,1.184,1.184,0,0,0,.792.253.717.717,0,0,0,.528-.488,2.907,2.907,0,0,0-.311-2.21,4.023,4.023,0,0,0-3.226-1.463S55.554,67.927,55.554,67.927Z" transform="translate(-40.125 -51.862)"/>
            <path id="Path_44668" data-name="Path 44668" d="M78.288,34.529a6.986,6.986,0,0,1-1.184.282,12.145,12.145,0,0,1-3.769-.012,2.635,2.635,0,0,1-2.08-1.165,4.172,4.172,0,0,1,.06-2.367,1.258,1.258,0,0,0-.2-1.028,1.479,1.479,0,0,0-1.215-.277,27.252,27.252,0,0,1-4.4-.079,4.278,4.278,0,0,1-2.7-.971,2.364,2.364,0,0,1-.347-2.783c.258-.438.679-.839.665-1.351a1.712,1.712,0,0,0-.275-.765c-.294-.531-.648-1.069-.942-1.621A12.924,12.924,0,0,1,78.288,34.529Z" transform="translate(-47.364 -17.037)" fill="#158ed8"/>
            <path id="Path_44669" data-name="Path 44669" d="M63.818,51.413A12.923,12.923,0,0,1,45.96,54.675,4.008,4.008,0,0,1,47.376,51.7a3.793,3.793,0,0,1,3.123-.756,23.43,23.43,0,0,1,2.4.806,2.966,2.966,0,0,0,2.446-.129c.691-.426,1.129-1.258,1.786-1.753a3.329,3.329,0,0,1,2.059-.586A7.858,7.858,0,0,1,63.818,51.413Zm2.334-7.731a6.986,6.986,0,0,1-1.184.282,12.145,12.145,0,0,1-3.769-.012,2.635,2.635,0,0,1-2.08-1.165,4.172,4.172,0,0,1,.06-2.367,1.258,1.258,0,0,0-.2-1.028,1.479,1.479,0,0,0-1.215-.277c-.45.026-.9.045-1.349.05l4.95-5.215A12.9,12.9,0,0,1,66.152,43.682Z" transform="translate(-35.228 -26.191)" fill="#015ed4"/>
            <path id="Path_44670" data-name="Path 44670" d="M62.734,34.7a12.2,12.2,0,0,1-1.935-.153,2.644,2.644,0,0,1-2.169-1.231,3.015,3.015,0,0,1-.043-1.906c.033-.177.067-.354.091-.528a1.114,1.114,0,0,0-.167-.933,1.357,1.357,0,0,0-1.119-.239,27.167,27.167,0,0,1-4.414-.079A4.355,4.355,0,0,1,50.2,28.623a2.48,2.48,0,0,1-.366-2.929c.072-.122.155-.242.237-.356a1.625,1.625,0,0,0,.411-.93,1.643,1.643,0,0,0-.261-.71c-.132-.237-.275-.476-.418-.715-.177-.294-.361-.6-.524-.906a.119.119,0,0,1,0-.1.117.117,0,0,1,.079-.067A13.04,13.04,0,0,1,65.889,34.154a.118.118,0,0,1-.081.115,6.921,6.921,0,0,1-1.205.287A12.233,12.233,0,0,1,62.734,34.7Zm-5.012-5.242a1.263,1.263,0,0,1,.966.33,1.331,1.331,0,0,1,.227,1.126c-.024.177-.06.359-.093.54a2.838,2.838,0,0,0,.024,1.758,2.434,2.434,0,0,0,1.992,1.1,11.988,11.988,0,0,0,3.733.01,7.017,7.017,0,0,0,1.081-.249A12.8,12.8,0,0,0,49.571,22.1c.141.258.3.514.447.763s.292.483.423.722a1.787,1.787,0,0,1,.289.82,1.812,1.812,0,0,1-.454,1.074c-.079.112-.16.227-.227.34a2.23,2.23,0,0,0,.33,2.638A4.166,4.166,0,0,0,53,29.393a26.972,26.972,0,0,0,4.376.077C57.481,29.465,57.6,29.457,57.722,29.457ZM52.856,47.511a12.951,12.951,0,0,1-7.344-2.262.118.118,0,0,1-.053-.1,4.129,4.129,0,0,1,1.461-3.063,3.912,3.912,0,0,1,3.221-.782,8.921,8.921,0,0,1,1.495.478c.3.115.612.237.921.33a2.8,2.8,0,0,0,2.348-.117,4.273,4.273,0,0,0,.947-.906,5.524,5.524,0,0,1,.832-.839,3.44,3.44,0,0,1,2.111-.61h.022a7.977,7.977,0,0,1,4.7,2.159.118.118,0,0,1,.017.158A13.067,13.067,0,0,1,52.856,47.511ZM45.7,45.087A12.8,12.8,0,0,0,63.277,41.9a7.666,7.666,0,0,0-4.464-2.028,3.206,3.206,0,0,0-1.987.562,5.372,5.372,0,0,0-.794.8,4.467,4.467,0,0,1-1,.954,3.026,3.026,0,0,1-2.544.141c-.318-.1-.631-.218-.937-.337a8.865,8.865,0,0,0-1.454-.466,3.666,3.666,0,0,0-3.025.732A3.921,3.921,0,0,0,45.7,45.087Z" transform="translate(-34.848 -16.664)"/>
            <path id="Path_44671" data-name="Path 44671" d="M19.187,7.522l-.835.8L19.4,12.259c1.145,4.311-12.633,7.968-13.778,3.656L4.574,11.977,3.45,11.7a1.361,1.361,0,0,1-.612-2.305L8.5,3.987a2.658,2.658,0,0,1,2.477-.658l7.595,1.887A1.36,1.36,0,0,1,19.187,7.522Z" transform="translate(-2.097 -2.833)" fill="#ff444a"/>
            <path id="Path_44672" data-name="Path 44672" d="M15.1,49.425a.185.185,0,0,1-.036,0,2.559,2.559,0,0,1-1.911-1.729l-.682-2.568a.119.119,0,0,1,.23-.062l.682,2.568a2.336,2.336,0,0,0,1.75,1.561.121.121,0,0,1,.079.151A.113.113,0,0,1,15.1,49.425Z" transform="translate(-9.741 -34.578)"/>
            <path id="Path_44673" data-name="Path 44673" d="M28.586,17.97l1.377,5.189c1.145,4.311-12.633,7.968-13.776,3.656L14.81,21.626Z" transform="translate(-11.527 -14.032)" fill="#ff7d83"/>
            <path id="Path_44674" data-name="Path 44674" d="M28.586,17.97,29.126,20,24.3,24.608a2.658,2.658,0,0,1-2.477.658L15.35,23.659l-.54-2.033Z" transform="translate(-11.527 -14.032)" fill="#ff5671"/>
            <path id="Path_44675" data-name="Path 44675" d="M19.8,28.487c-2.042,0-3.735-.569-4.12-2.018l-1.377-5.187a.119.119,0,0,1,.084-.146l13.781-3.659a.119.119,0,0,1,.146.084l.737,2.779a.119.119,0,0,1-.23.062l-.708-2.661L14.571,21.335l1.346,5.072c.543,2.047,4.235,2.214,7.6,1.32s6.49-2.87,5.945-4.916L29.038,21.2a.119.119,0,1,1,.23-.062l.426,1.607c.61,2.3-2.743,4.314-6.114,5.208A15.064,15.064,0,0,1,19.8,28.487Z" transform="translate(-11.141 -13.654)"/>
            <path id="Path_44676" data-name="Path 44676" d="M23.947,6.277l-5.66,5.4a2.66,2.66,0,0,1-2.477.658l-7.6-1.884a1.36,1.36,0,0,1-.612-2.3l5.663-5.4A2.66,2.66,0,0,1,15.74,2.09l7.595,1.887A1.356,1.356,0,0,1,23.947,6.277Z" transform="translate(-5.721 -1.889)" fill="#ff7d83"/>
            <path id="Path_44677" data-name="Path 44677" d="M23.951,8.434l-5.663,5.4a2.658,2.658,0,0,1-2.477.658l-7.6-1.887a1.358,1.358,0,0,1-.61-2.3l3.211-3.066a4.382,4.382,0,0,0,4.123.9A4.264,4.264,0,0,0,18.176,4.85l5.165,1.282A1.361,1.361,0,0,1,23.951,8.434Z" transform="translate(-5.723 -4.049)" fill="#ff5671"/>
            <path id="Path_44678" data-name="Path 44678" d="M16.071,12.149a2.732,2.732,0,0,1-.677-.084L7.8,10.181a1.479,1.479,0,0,1-.665-2.506l5.663-5.4a2.767,2.767,0,0,1,2.59-.686l1.145.285a.119.119,0,0,1,.086.146.125.125,0,0,1-.146.084l-1.145-.285a2.53,2.53,0,0,0-2.367.629L7.3,7.847a1.24,1.24,0,0,0,.557,2.1l7.6,1.887a2.53,2.53,0,0,0,2.367-.629l5.66-5.4a1.24,1.24,0,0,0-.557-2.1L17.59,2.376a.12.12,0,1,1,.06-.232l5.335,1.325a1.479,1.479,0,0,1,.665,2.506l-5.66,5.4A2.776,2.776,0,0,1,16.071,12.149Z" transform="translate(-5.337 -1.501)"/>
            <path id="Path_44679" data-name="Path 44679" d="M48.922,26.974a.12.12,0,0,1-.115-.088l-.72-2.714-5.655-1.7a.119.119,0,0,1,.069-.227l5.717,1.719a.119.119,0,0,1,.081.084l.739,2.779a.119.119,0,0,1-.084.146A.169.169,0,0,1,48.922,26.974Z" transform="translate(-32.48 -17.28)"/>
            <path id="Path_44680" data-name="Path 44680" d="M38.234,21.572c.12.454-.387.983-1.136,1.181s-1.454-.007-1.573-.462.39-.983,1.138-1.181S38.112,21.12,38.234,21.572Z" transform="translate(-27.275 -16.364)" fill="#ff444a"/>
            <path id="Path_44681" data-name="Path 44681" d="M40.074,20.391c.12.454-.387.983-1.136,1.181s-1.454-.007-1.573-.462.39-.983,1.138-1.181S39.954,19.937,40.074,20.391Z" transform="translate(-28.675 -15.465)" fill="#fff"/>
            <path id="Path_44682" data-name="Path 44682" d="M38.091,21.459a1.752,1.752,0,0,1-.485-.065.812.812,0,0,1-.612-.538.821.821,0,0,1,.265-.772,2.044,2.044,0,0,1,.937-.519c.808-.215,1.547.017,1.683.526h0c.136.509-.392,1.076-1.2,1.291A2.439,2.439,0,0,1,38.091,21.459Zm.679-1.793a2.1,2.1,0,0,0-.531.072,1.828,1.828,0,0,0-.854.471.558.558,0,0,0,.27,1.014,1.856,1.856,0,0,0,.976-.014c.7-.187,1.181-.667,1.074-1.071C39.624,19.84,39.241,19.665,38.77,19.665Z" transform="translate(-28.39 -15.184)"/>
            <g id="Group_54629" data-name="Group 54629" transform="translate(15.786 8.967)">
              <path id="Path_44683" data-name="Path 44683" d="M68.62,39.812A.586.586,0,1,1,67.9,39.4.586.586,0,0,1,68.62,39.812Z" transform="translate(-67.378 -39.287)" fill="#fff"/>
              <path id="Path_44684" data-name="Path 44684" d="M67.769,40.355a.676.676,0,1,1,.658-.849h0a.677.677,0,0,1-.481.827A.746.746,0,0,1,67.769,40.355Zm0-1.174a.479.479,0,0,0-.129.017.491.491,0,0,0-.3.23.5.5,0,0,0-.05.378.491.491,0,0,0,.23.3.5.5,0,0,0,.5-.861A.5.5,0,0,0,67.774,39.181Z" transform="translate(-67.096 -39.002)"/>
            </g>
            <g id="Group_54631" data-name="Group 54631" transform="translate(0 24.625)">
              <path id="Path_44685" data-name="Path 44685" d="M9.2,104.98H2.88a1.309,1.309,0,0,0-1.31,1.31l0,3.362a1.309,1.309,0,0,0,1.31,1.31H9.2Z" transform="translate(-1.453 -104.86)" fill="#ff9206"/>
              <path id="Path_44686" data-name="Path 44686" d="M2.51,110.7a1.431,1.431,0,0,1-1.43-1.43v-1.521a.118.118,0,0,1,.12-.12h0a.118.118,0,0,1,.12.12v1.521a1.194,1.194,0,0,0,1.191,1.191.12.12,0,1,1,0,.239ZM1.2,106.737a.118.118,0,0,1-.12-.12v-.708a1.429,1.429,0,0,1,1.43-1.43.12.12,0,1,1,0,.239,1.192,1.192,0,0,0-1.191,1.191v.708a.12.12,0,0,1-.12.12Z" transform="translate(-1.08 -104.48)"/>
              <path id="Path_44687" data-name="Path 44687" d="M25.472,110.128a.7.7,0,0,1-.686.827H12.863a1.313,1.313,0,0,1-1.313-1.31V106.28a1.309,1.309,0,0,1,1.31-1.31H24.743a.727.727,0,0,1,.729.574.7.7,0,0,1-.686.825h-.469v3.183h.428A.729.729,0,0,1,25.472,110.128Z" transform="translate(-9.046 -104.853)" fill="#ffc378"/>
              <path id="Path_44688" data-name="Path 44688" d="M24.75,109.562h-.428v-3.183h.469a.7.7,0,0,0,.686-.825.725.725,0,0,0-.729-.574H23.574v5.983h1.217a.7.7,0,0,0,.686-.827A.721.721,0,0,0,24.75,109.562ZM13.908,104.98H12.87a1.309,1.309,0,0,0-1.31,1.31v3.365a1.313,1.313,0,0,0,1.313,1.31h1.038V104.98Z" transform="translate(-9.054 -104.86)" fill="#ffab41"/>
              <path id="Path_44689" data-name="Path 44689" d="M24.405,110.7H12.482a1.431,1.431,0,0,1-1.43-1.43l0-3.362a1.429,1.429,0,0,1,1.43-1.43H24.362a.85.85,0,0,1,.847.674.827.827,0,0,1-.179.674.814.814,0,0,1-.627.292h-.352v2.944h.308a.85.85,0,0,1,.847.674.827.827,0,0,1-.179.674A.81.81,0,0,1,24.405,110.7ZM12.48,104.719a1.192,1.192,0,0,0-1.191,1.191l0,3.362a1.194,1.194,0,0,0,1.191,1.191H24.405a.582.582,0,0,0,.569-.686.612.612,0,0,0-.612-.476h-.428a.118.118,0,0,1-.12-.12V106a.118.118,0,0,1,.12-.12h.471a.582.582,0,0,0,.569-.686.612.612,0,0,0-.612-.476H12.48Z" transform="translate(-8.666 -104.48)"/>
              <path id="Path_44690" data-name="Path 44690" d="M28.935,110.83v3.183H18.38a.759.759,0,0,1-.76-.758V111.59a.759.759,0,0,1,.76-.76Z" transform="translate(-13.665 -109.312)" fill="#fff"/>
              <path id="Path_44691" data-name="Path 44691" d="M29.034,111.382v-.552H18.479a.762.762,0,0,0-.729.552Zm0,2.08a.758.758,0,0,1-.729.55H18.479a.762.762,0,0,1-.729-.543v-.01H29.034Z" transform="translate(-13.764 -109.312)" fill="#fadfcb"/>
              <path id="Path_44692" data-name="Path 44692" d="M28.553,113.744H18a.881.881,0,0,1-.88-.88V111.2a.881.881,0,0,1,.88-.88H28.553a.118.118,0,0,1,.12.12v3.185A.118.118,0,0,1,28.553,113.744ZM18,110.562a.641.641,0,0,0-.641.641v1.664a.641.641,0,0,0,.641.641H28.433v-2.946Z" transform="translate(-13.284 -108.924)"/>
              <path id="Path_44693" data-name="Path 44693" d="M31.257,114.609H29.67a.12.12,0,0,1,0-.239h1.588a.12.12,0,0,1,0,.239Zm6.753,0H32.427a.12.12,0,0,1,0-.239H38.01a.12.12,0,0,1,0,.239Z" transform="translate(-22.742 -112.005)"/>
              <g id="Group_54630" data-name="Group 54630" transform="translate(5.799 3.618)">
                <path id="Path_44694" data-name="Path 44694" d="M30,119.849h-.777a.12.12,0,1,1,0-.239H30a.118.118,0,0,1,.12.12A.12.12,0,0,1,30,119.849Zm4.8,0H31.212a.12.12,0,1,1,0-.239H34.8a.12.12,0,1,1,0,.239Zm-7.511,0H25.45a.12.12,0,1,1,0-.239h1.839a.12.12,0,1,1,0,.239Z" transform="translate(-25.33 -119.61)"/>
              </g>
            </g>
          </g>
        </g>
      </g>
    </g>
  </g>
</svg>
