<svg xmlns="http://www.w3.org/2000/svg" width="31" height="31" viewBox="0 0 31 31">
  <g id="Group_53484" data-name="Group 53484" transform="translate(-665.749 -499)">
    <circle id="Ellipse_2123" data-name="Ellipse 2123" cx="15.5" cy="15.5" r="15.5" transform="translate(665.749 499)" fill="#cde4f4"/>
    <path id="Path_44569" data-name="Path 44569" d="M17.53,17.48a.738.738,0,0,1,.738-.738h7.425L23.862,14.91a.738.738,0,1,1,1.044-1.044L28,16.958a.738.738,0,0,1-.522,1.26H18.268a.738.738,0,0,1-.738-.738Zm9.945,5.151H18.268a.738.738,0,0,0-.522,1.26l3.091,3.091a.738.738,0,1,0,1.044-1.044l-1.831-1.831h7.425a.738.738,0,1,0,0-1.477Z" transform="translate(658.219 494.35)" fill="#044783"/>
  </g>
</svg>
