<svg xmlns="http://www.w3.org/2000/svg" width="197.578" height="28.182" viewBox="0 0 197.578 28.182">
  <g id="Group_47986" data-name="Group 47986" transform="translate(-667.5 -7048.855)">
    <path id="Path_141" data-name="Path 141" d="M15.092.652l3.423,6.879a1.175,1.175,0,0,0,.883.646L27.06,9.284a1.18,1.18,0,0,1,.78.453,1.137,1.137,0,0,1-.125,1.524l-5.549,5.377a1.123,1.123,0,0,0-.334,1.028l1.337,7.577a1.162,1.162,0,0,1-.963,1.318,1.273,1.273,0,0,1-.762-.119L14.611,22.87a1.151,1.151,0,0,0-1.1,0l-6.873,3.6A1.2,1.2,0,0,1,5.05,25.98a1.171,1.171,0,0,1-.12-.738l1.337-7.577a1.162,1.162,0,0,0-.334-1.028L.343,11.261a1.161,1.161,0,0,1,0-1.647,1.345,1.345,0,0,1,.669-.329L8.674,8.177a1.2,1.2,0,0,0,.883-.646L12.979.652a1.158,1.158,0,0,1,.676-.591,1.179,1.179,0,0,1,.9.064A1.208,1.208,0,0,1,15.092.652Z" transform="translate(668.25 7049.611)" fill="#daea44" stroke="#daea44" stroke-linecap="round" stroke-linejoin="round" stroke-width="1.5"/>
    <path id="Path_37217" data-name="Path 37217" d="M15.092.652l3.423,6.879a1.175,1.175,0,0,0,.883.646L27.06,9.284a1.18,1.18,0,0,1,.78.453,1.137,1.137,0,0,1-.125,1.524l-5.549,5.377a1.123,1.123,0,0,0-.334,1.028l1.337,7.577a1.162,1.162,0,0,1-.963,1.318,1.273,1.273,0,0,1-.762-.119L14.611,22.87a1.151,1.151,0,0,0-1.1,0l-6.873,3.6A1.2,1.2,0,0,1,5.05,25.98a1.171,1.171,0,0,1-.12-.738l1.337-7.577a1.162,1.162,0,0,0-.334-1.028L.343,11.261a1.161,1.161,0,0,1,0-1.647,1.345,1.345,0,0,1,.669-.329L8.674,8.177a1.2,1.2,0,0,0,.883-.646L12.979.652a1.158,1.158,0,0,1,.676-.591,1.179,1.179,0,0,1,.9.064A1.208,1.208,0,0,1,15.092.652Z" transform="translate(794.25 7049.611)" fill="#daea44" stroke="#daea44" stroke-linecap="round" stroke-linejoin="round" stroke-width="1.5"/>
    <path id="Path_37213" data-name="Path 37213" d="M15.092.652l3.423,6.879a1.175,1.175,0,0,0,.883.646L27.06,9.284a1.18,1.18,0,0,1,.78.453,1.137,1.137,0,0,1-.125,1.524l-5.549,5.377a1.123,1.123,0,0,0-.334,1.028l1.337,7.577a1.162,1.162,0,0,1-.963,1.318,1.273,1.273,0,0,1-.762-.119L14.611,22.87a1.151,1.151,0,0,0-1.1,0l-6.873,3.6A1.2,1.2,0,0,1,5.05,25.98a1.171,1.171,0,0,1-.12-.738l1.337-7.577a1.162,1.162,0,0,0-.334-1.028L.343,11.261a1.161,1.161,0,0,1,0-1.647,1.345,1.345,0,0,1,.669-.329L8.674,8.177a1.2,1.2,0,0,0,.883-.646L12.979.652a1.158,1.158,0,0,1,.676-.591,1.179,1.179,0,0,1,.9.064A1.208,1.208,0,0,1,15.092.652Z" transform="translate(710.25 7049.611)" fill="#daea44" stroke="#daea44" stroke-linecap="round" stroke-linejoin="round" stroke-width="1.5"/>
    <path id="Path_37215" data-name="Path 37215" d="M15.092.652l3.423,6.879a1.175,1.175,0,0,0,.883.646L27.06,9.284a1.18,1.18,0,0,1,.78.453,1.137,1.137,0,0,1-.125,1.524l-5.549,5.377a1.123,1.123,0,0,0-.334,1.028l1.337,7.577a1.162,1.162,0,0,1-.963,1.318,1.273,1.273,0,0,1-.762-.119L14.611,22.87a1.151,1.151,0,0,0-1.1,0l-6.873,3.6A1.2,1.2,0,0,1,5.05,25.98a1.171,1.171,0,0,1-.12-.738l1.337-7.577a1.162,1.162,0,0,0-.334-1.028L.343,11.261a1.161,1.161,0,0,1,0-1.647,1.345,1.345,0,0,1,.669-.329L8.674,8.177a1.2,1.2,0,0,0,.883-.646L12.979.652a1.158,1.158,0,0,1,.676-.591,1.179,1.179,0,0,1,.9.064A1.208,1.208,0,0,1,15.092.652Z" transform="translate(836.25 7049.611)" fill="#daea44" stroke="#daea44" stroke-linecap="round" stroke-linejoin="round" stroke-width="1.5"/>
    <path id="Path_37214" data-name="Path 37214" d="M15.092.652l3.423,6.879a1.175,1.175,0,0,0,.883.646L27.06,9.284a1.18,1.18,0,0,1,.78.453,1.137,1.137,0,0,1-.125,1.524l-5.549,5.377a1.123,1.123,0,0,0-.334,1.028l1.337,7.577a1.162,1.162,0,0,1-.963,1.318,1.273,1.273,0,0,1-.762-.119L14.611,22.87a1.151,1.151,0,0,0-1.1,0l-6.873,3.6A1.2,1.2,0,0,1,5.05,25.98a1.171,1.171,0,0,1-.12-.738l1.337-7.577a1.162,1.162,0,0,0-.334-1.028L.343,11.261a1.161,1.161,0,0,1,0-1.647,1.345,1.345,0,0,1,.669-.329L8.674,8.177a1.2,1.2,0,0,0,.883-.646L12.979.652a1.158,1.158,0,0,1,.676-.591,1.179,1.179,0,0,1,.9.064A1.208,1.208,0,0,1,15.092.652Z" transform="translate(752.25 7049.611)" fill="#daea44" stroke="#daea44" stroke-linecap="round" stroke-linejoin="round" stroke-width="1.5"/>
  </g>
</svg>
