<svg xmlns="http://www.w3.org/2000/svg" width="65" height="65" viewBox="0 0 65 65">
  <g id="Group_1403" data-name="Group 1403" transform="translate(0.462 0.533)">
    <path id="Path_6319" data-name="Path 6319" d="M32.5,0A32.5,32.5,0,1,1,0,32.5,32.5,32.5,0,0,1,32.5,0Z" transform="translate(-0.462 -0.533)" fill="#30c768" opacity="0.7"/>
    <path id="Path_6320" data-name="Path 6320" d="M-45.473,67.5c-.99.705-7.344-3.766-8.561-3.776s-7.642,4.358-8.621,3.637,1.322-8.129.956-9.286-6.519-5.9-6.133-7.052,8.161-1.258,9.152-1.963,3.614-8.005,4.831-8,3.722,7.351,4.7,8.072,8.752.953,9.119,2.11-5.861,5.8-6.247,6.952S-44.483,66.793-45.473,67.5Z" transform="translate(85.972 -22.351)" fill="#fff"/>
  </g>
</svg>
