<svg xmlns="http://www.w3.org/2000/svg" width="28" height="28" viewBox="0 0 28 28">
  <g id="Group_55414" data-name="Group 55414" transform="translate(-850 -334)">
    <circle id="Ellipse_2161" data-name="Ellipse 2161" cx="14" cy="14" r="14" transform="translate(850 334)" fill="#2165bb"/>
    <path id="Path_46311" data-name="Path 46311" d="M103.21,8.2A7.982,7.982,0,0,0,111.2.21a.21.21,0,0,1,.42,0A7.982,7.982,0,0,0,119.6,8.2a.21.21,0,0,1,0,.42,7.982,7.982,0,0,0-7.986,7.986.21.21,0,0,1-.42,0,7.982,7.982,0,0,0-7.986-7.986.21.21,0,1,1,0-.42Z" transform="translate(753 340)" fill="#5c8cc7"/>
  </g>
</svg>
