<svg xmlns="http://www.w3.org/2000/svg" width="26.826" height="22.908" viewBox="0 0 26.826 22.908">
  <g id="Group_51706" data-name="Group 51706" transform="translate(-49.116 -156)">
    <path id="Path_42462" data-name="Path 42462" d="M18.578,13.412a2.749,2.749,0,0,1,2.749,2.749v.916c0,3.613-3.408,7.331-9.163,7.331S3,20.69,3,17.078v-.916a2.749,2.749,0,0,1,2.749-2.749Zm0,1.833H5.749a.916.916,0,0,0-.916.916v.916c0,2.635,2.625,5.5,7.331,5.5s7.331-2.863,7.331-5.5v-.916A.916.916,0,0,0,18.578,15.245ZM12.163,1.5a5.04,5.04,0,1,1-5.04,5.04A5.04,5.04,0,0,1,12.163,1.5Zm0,1.833A3.207,3.207,0,1,0,15.37,6.54,3.207,3.207,0,0,0,12.163,3.333Z" transform="translate(46.116 154.5)"/>
    <path id="Subtraction_1" data-name="Subtraction 1" d="M9.164,0A9.919,9.919,0,0,0,2.423,2.31,6.778,6.778,0,0,0,0,7.33v.917a2.752,2.752,0,0,0,2.75,2.747H9.644A2.775,2.775,0,0,1,7.157,9.162H2.75a.917.917,0,0,1-.918-.915V7.33a4.972,4.972,0,0,1,1.9-3.736A8.2,8.2,0,0,1,9.164,1.833c.277,0,.553.01.817.03A9.194,9.194,0,0,1,12.663.516,11.587,11.587,0,0,0,9.164,0Zm0,12.827a5.04,5.04,0,1,0,3.5,8.667,5.035,5.035,0,0,1-1.081-1.521,3.207,3.207,0,1,1,0-4.213,5.022,5.022,0,0,1,1.08-1.521A5.012,5.012,0,0,0,9.164,12.827Z" transform="translate(75.942 178.906) rotate(180)"/>
  </g>
</svg>
