<svg xmlns="http://www.w3.org/2000/svg" xmlns:xlink="http://www.w3.org/1999/xlink" width="444.056" height="264.437" viewBox="0 0 444.056 264.437">
  <defs>
    <radialGradient id="radial-gradient" cx="0.502" cy="0.5" r="0.845" gradientTransform="translate(-11.177 0.204) scale(0.592 0.592)" gradientUnits="objectBoundingBox">
      <stop offset="0" stop-color="#ef9364"/>
      <stop offset="0.98" stop-color="#ffb787"/>
    </radialGradient>
    <radialGradient id="radial-gradient-2" cx="-26.321" cy="0.5" r="0.5" gradientTransform="translate(0.204) scale(0.592 1)" xlink:href="#radial-gradient"/>
  </defs>
  <g id="Group_52535" data-name="Group 52535" transform="translate(-1428.438 -282.562)">
    <g id="Group_52354" data-name="Group 52354" transform="translate(9153.634 -8998.493)">
      <path id="Path_43904" data-name="Path 43904" d="M281.182,454.259c-.907-.433-1.792-.867-2.676-1.3a.717.717,0,0,0-.946.279.654.654,0,0,0,.293.9c.907.433,1.814.893,2.722,1.3a.735.735,0,0,0,.3.065.693.693,0,0,0,.626-.377A.654.654,0,0,0,281.182,454.259Zm-36.919-32.653a.717.717,0,0,0-.957-.234.651.651,0,0,0-.245.914c1.034,1.66,2.141,3.31,3.3,4.9a.724.724,0,0,0,.971.169.649.649,0,0,0,.177-.927C246.35,424.865,245.257,423.24,244.264,421.606Zm6.205-78.495a28.226,28.226,0,0,1,5.216-2.626.675.675,0,0,0,.45-.524.653.653,0,0,0-.263-.63.726.726,0,0,0-.7-.085A30.239,30.239,0,0,0,249.707,342a.652.652,0,0,0-.28.749.7.7,0,0,0,.67.473A.74.74,0,0,0,250.469,343.112Zm2.159,17.141a.688.688,0,0,0,.644.433.781.781,0,0,0,.263-.048.658.658,0,0,0,.386-.867,21.813,21.813,0,0,1-1.492-5.438.7.7,0,0,0-.789-.568.673.673,0,0,0-.594.754,23.339,23.339,0,0,0,1.583,5.732Zm-1.07-10.928a.682.682,0,0,0,.694-.607,23.855,23.855,0,0,1,.83-4.467c.1-.351.209-.7.322-1.049a.664.664,0,0,0-.466-.8.708.708,0,0,0-.863.4c-.122.364-.236.728-.34,1.1a25.671,25.671,0,0,0-.875,4.705.681.681,0,0,0,.635.724Zm-16.575,51.193a.706.706,0,0,0-.855-.483.669.669,0,0,0-.506.817c.5,1.863,1.089,3.744,1.737,5.589a.7.7,0,0,0,.662.433.745.745,0,0,0,.649-.375.64.64,0,0,0,.032-.527C236.053,404.2,235.477,402.351,234.983,400.518Zm-1.27-5.6c-.349-1.885-.617-3.8-.8-5.676a.666.666,0,0,0-.394-.58.726.726,0,0,0-.721.065.653.653,0,0,0-.273.641c.186,1.915.454,3.861.816,5.78a.686.686,0,0,0,.685.55.587.587,0,0,0,.122,0,.7.7,0,0,0,.454-.277.644.644,0,0,0,.113-.5Zm17.355,36.123a.722.722,0,0,0-.956-.08.647.647,0,0,0-.137.907c1.261,1.517,2.59,3.033,3.951,4.441a.7.7,0,0,0,.517.217.7.7,0,0,0,.643-.394.64.64,0,0,0-.125-.719C253.612,434.016,252.3,432.538,251.068,431.043Zm-5.148-85.276a.717.717,0,0,0-.984,0,36.381,36.381,0,0,0-3.983,4.489.648.648,0,0,0,.159.932.721.721,0,0,0,.975-.152,34.747,34.747,0,0,1,3.833-4.333A.65.65,0,0,0,245.919,345.768Zm-7.1,65.6a.692.692,0,0,0-.559-.439.713.713,0,0,0-.666.27.642.642,0,0,0-.058.689c.78,1.776,1.642,3.553,2.563,5.29a.715.715,0,0,0,.939.29.673.673,0,0,0,.348-.385.636.636,0,0,0-.04-.508C240.44,414.873,239.592,413.122,238.82,411.372ZM231.9,384.187a.683.683,0,0,0,.694-.672q0-.364,0-.728c0-1.664.063-3.345.2-5a.682.682,0,0,0-.644-.715.71.71,0,0,0-.51.157.648.648,0,0,0-.238.458c-.132,1.681-.2,3.4-.2,5.1v.741a.684.684,0,0,0,.7.659Zm28.826-14.641a.694.694,0,0,0,.585-.3.649.649,0,0,0-.2-.923,16.7,16.7,0,0,1-2.722-2.063,19.4,19.4,0,0,1-1.569-1.677.713.713,0,0,0-.657-.274.694.694,0,0,0-.564.423.644.644,0,0,0,.123.675,20.965,20.965,0,0,0,1.687,1.8,18.384,18.384,0,0,0,2.926,2.236A.7.7,0,0,0,260.729,369.547Zm25.134-18.289a.687.687,0,0,0,.411-.329.636.636,0,0,0,.042-.511,19.258,19.258,0,0,0-2.808-5.325.721.721,0,0,0-.95-.123.648.648,0,0,0-.184.9,18,18,0,0,1,2.608,4.957.692.692,0,0,0,.662.459.635.635,0,0,0,.218-.026Zm.812,4.376h0a.709.709,0,0,0-.488.2.647.647,0,0,0-.192.475v.433a15.788,15.788,0,0,1-.8,5.061.666.666,0,0,0,.454.841.707.707,0,0,0,.213.03.692.692,0,0,0,.662-.464,17.156,17.156,0,0,0,.871-5.468v-.433a.652.652,0,0,0-.206-.487.716.716,0,0,0-.511-.194Zm2.118-41.028c-2,.433-3.983.984-5.9,1.6a.663.663,0,0,0-.5.745.687.687,0,0,0,.717.555.662.662,0,0,0,.222-.035c1.86-.6,3.8-1.122,5.756-1.56a.667.667,0,0,0,.522-.8.7.7,0,0,0-.839-.5Zm-6.4,51.973a12.764,12.764,0,0,1-1.669,1.534,13.815,13.815,0,0,1-2.921,1.733.66.66,0,0,0-.392.749.692.692,0,0,0,.682.525.759.759,0,0,0,.29-.061,15.336,15.336,0,0,0,3.216-1.889,14.249,14.249,0,0,0,1.846-1.694.648.648,0,0,0,.189-.684.69.69,0,0,0-.561-.462.713.713,0,0,0-.68.279Zm-9.1,83.529c-1.678-1-3.352-2.08-4.99-3.211a.721.721,0,0,0-.978.145.649.649,0,0,0,.152.934c1.651,1.148,3.352,2.244,5.058,3.263a.732.732,0,0,0,.372.1.7.7,0,0,0,.672-.485.654.654,0,0,0-.3-.75Zm-14.157-10.577a.72.72,0,0,0-.691-.189.682.682,0,0,0-.5.493.65.65,0,0,0,.219.653c1.465,1.343,2.989,2.656,4.536,3.9a.729.729,0,0,0,1.117-.277.644.644,0,0,0-.21-.741C262.077,442.144,260.593,440.853,259.137,439.531Zm13.15-67.077a.677.677,0,0,0,.618-.7.686.686,0,0,0-.7-.628,19.312,19.312,0,0,1-5.779-.568.707.707,0,0,0-.86.479.67.67,0,0,0,.5.821,20.842,20.842,0,0,0,5.1.633C271.543,372.489,271.933,372.489,272.287,372.454Zm-36.642-10.98a.71.71,0,0,0,.9-.39,46.726,46.726,0,0,1,2.427-5.2.642.642,0,0,0-.011-.684.708.708,0,0,0-.635-.315.7.7,0,0,0-.592.384,47.837,47.837,0,0,0-2.495,5.351A.659.659,0,0,0,235.645,361.474ZM584.4,259.955a49.731,49.731,0,0,1,4.79,3.4.723.723,0,0,0,.987-.076.648.648,0,0,0-.079-.942,51.223,51.223,0,0,0-4.922-3.5.72.72,0,0,0-.968.193.65.65,0,0,0,.2.925ZM572.87,281.5a.79.79,0,0,0,.281-.052,20.173,20.173,0,0,1,4.137-1.235c.494-.091.993-.165,1.488-.221a.7.7,0,0,0,.467-.251.641.641,0,0,0,.141-.494.7.7,0,0,0-.776-.581c-.526.061-1.057.139-1.583.238a21.85,21.85,0,0,0-4.432,1.3.664.664,0,0,0-.471.768.7.7,0,0,0,.748.531Zm24.367-9.779a.694.694,0,0,0,.572.286.745.745,0,0,0,.4-.117.653.653,0,0,0,.172-.932,44.111,44.111,0,0,0-3.851-4.571.723.723,0,0,0-.989-.039.648.648,0,0,0-.041.945A42.555,42.555,0,0,1,597.238,271.719Zm-23.456-17c1.887.728,3.724,1.525,5.443,2.37a.707.707,0,0,0,.318.074.694.694,0,0,0,.621-.364.653.653,0,0,0-.3-.9c-1.764-.867-3.629-1.677-5.566-2.422a.71.71,0,0,0-.909.37.658.658,0,0,0,.388.869Zm7.375,61.913a20.783,20.783,0,0,0,6.155-.906.662.662,0,0,0,.449-.841.706.706,0,0,0-.88-.429,19.32,19.32,0,0,1-5.724.841h0a.706.706,0,0,0-.491.2.644.644,0,0,0-.2.471.692.692,0,0,0,.69.667Zm29.711-9.3a.686.686,0,0,0,.685.542.623.623,0,0,0,.127,0,.675.675,0,0,0,.563-.776,44.376,44.376,0,0,0-1.5-5.689.686.686,0,0,0-.516-.474.719.719,0,0,0-.682.209.644.644,0,0,0-.131.672,42.773,42.773,0,0,1,1.452,5.516Zm-15.463-24.307a.65.65,0,0,0,.218.919,30.251,30.251,0,0,1,4.668,3.466.721.721,0,0,0,.481.182.7.7,0,0,0,.624-.431.647.647,0,0,0-.17-.717,30.98,30.98,0,0,0-4.881-3.622A.714.714,0,0,0,595.405,283.028Zm8.315,6.993a26.1,26.1,0,0,1-.177,3.035.654.654,0,0,0,.274.624.726.726,0,0,0,.7.074.669.669,0,0,0,.41-.552l.041-.39a33.875,33.875,0,0,1,2.227,3.739.715.715,0,0,0,.934.3.654.654,0,0,0,.322-.893,36.029,36.029,0,0,0-3.175-5.057.711.711,0,0,0-.19-.173v-.7a26.062,26.062,0,0,0-.145-2.738.667.667,0,0,0-.4-.576.726.726,0,0,0-.719.067.653.653,0,0,0-.272.639,24.9,24.9,0,0,1,.163,2.6Zm-1.293-8.146a.7.7,0,0,0,.671.477.751.751,0,0,0,.2-.026.666.666,0,0,0,.454-.832,33.855,33.855,0,0,0-2.268-5.477.7.7,0,0,0-.583-.414.71.71,0,0,0-.653.3.642.642,0,0,0-.016.694,32.866,32.866,0,0,1,2.2,5.273ZM300.878,312.959q-3.082.175-6.074.576a.677.677,0,0,0-.619.709.687.687,0,0,0,.715.621h.1c1.937-.26,3.942-.455,5.965-.568a.677.677,0,0,0,.618-.7.686.686,0,0,0-.7-.626Zm-39.64,25.993a.518.518,0,0,0,.118,0,28.135,28.135,0,0,1,5.874-.355.7.7,0,0,0,.735-.633.645.645,0,0,0-.179-.481.708.708,0,0,0-.483-.217,29.073,29.073,0,0,0-6.187.373.674.674,0,0,0-.584.717.687.687,0,0,0,.707.609Zm-6.45-.672a.748.748,0,0,0,.331.082.713.713,0,0,0,.617-.351A34.267,34.267,0,0,1,259,333.28a.647.647,0,0,0-.122-.936.713.713,0,0,0-.516-.139.7.7,0,0,0-.464.256,35.582,35.582,0,0,0-3.388,4.931.656.656,0,0,0,.281.888ZM232.7,372.675h.113a.694.694,0,0,0,.689-.559c.1-.615.218-1.226.345-1.837.259-1.274.558-2.535.907-3.757a.669.669,0,0,0-.5-.819.706.706,0,0,0-.857.481c-.345,1.248-.653,2.539-.907,3.839-.127.624-.245,1.248-.354,1.876a.644.644,0,0,0,.115.5A.7.7,0,0,0,232.7,372.675Zm29.8-43.429a.716.716,0,0,0,.485-.186,48.45,48.45,0,0,1,4.536-3.692.656.656,0,0,0,.295-.62.672.672,0,0,0-.428-.544.725.725,0,0,0-.705.1,49.312,49.312,0,0,0-4.672,3.8.642.642,0,0,0-.166.73.7.7,0,0,0,.651.414Zm304.788-45.9a22.228,22.228,0,0,0-4.246,4.355.648.648,0,0,0,.17.929.719.719,0,0,0,.973-.163,20.912,20.912,0,0,1,3.987-4.09.653.653,0,0,0,.086-.949.728.728,0,0,0-.993-.082Zm1.973,30.109a24.581,24.581,0,0,0,5.715,2.344.715.715,0,0,0,.19.022.687.687,0,0,0,.662-.574.666.666,0,0,0-.472-.726,23.1,23.1,0,0,1-5.384-2.205.717.717,0,0,0-.957.234.651.651,0,0,0,.245.914Zm-297.122,8.835a.757.757,0,0,0,.358-.091,55.7,55.7,0,0,1,5.3-2.639.654.654,0,0,0,.327-.876.712.712,0,0,0-.907-.337,59.064,59.064,0,0,0-5.443,2.7.654.654,0,0,0-.314.748.694.694,0,0,0,.668.492ZM562.347,251.25c2,.468,3.951.988,5.788,1.543a.7.7,0,0,0,.209.03.686.686,0,0,0,.7-.562.663.663,0,0,0-.494-.738c-1.864-.563-3.837-1.092-5.87-1.568a.7.7,0,0,0-.848.49.668.668,0,0,0,.513.81Zm-289.8,87.477a.666.666,0,0,0,.454.841A20.4,20.4,0,0,1,278.243,342a.708.708,0,0,0,.39.117.723.723,0,0,0,.581-.29.649.649,0,0,0-.181-.927,21.82,21.82,0,0,0-5.611-2.6.71.71,0,0,0-.875.429Zm64.348-20.906c-1.937-.6-3.9-1.161-5.838-1.655a.712.712,0,0,0-.857.472.665.665,0,0,0,.494.815c1.914.49,3.856,1.04,5.77,1.634a.632.632,0,0,0,.218.035.689.689,0,0,0,.681-.564.665.665,0,0,0-.468-.736Zm224.691-24.381a.644.644,0,0,0-.126-.681.719.719,0,0,0-.69-.209.684.684,0,0,0-.514.487,16.376,16.376,0,0,0-.853,5.169v.763a.685.685,0,0,0,.7.637h.032a.713.713,0,0,0,.485-.217.65.65,0,0,0,.182-.481v-.7A15.121,15.121,0,0,1,561.585,293.439Zm3.316,16.521a.7.7,0,0,0,.637-.406.649.649,0,0,0-.129-.721,16.73,16.73,0,0,1-3.243-4.584.712.712,0,0,0-.923-.336.656.656,0,0,0-.352.882,18.05,18.05,0,0,0,3.5,4.952A.733.733,0,0,0,564.9,309.961Zm-5.788,72.58c-1.842.68-3.751,1.3-5.67,1.911a.665.665,0,0,0-.468.736.689.689,0,0,0,.681.564.7.7,0,0,0,.213-.03c1.946-.6,3.878-1.248,5.747-1.937a.677.677,0,0,0,.465-.52.652.652,0,0,0-.258-.638A.725.725,0,0,0,559.112,382.541Zm10.923-4.77c-1.742.893-3.556,1.733-5.38,2.548a.659.659,0,0,0-.38.751.693.693,0,0,0,.684.519.736.736,0,0,0,.286-.061c1.855-.81,3.692-1.677,5.443-2.6a.654.654,0,0,0,.286-.906.717.717,0,0,0-.948-.273ZM556.6,250.037a.687.687,0,0,0,.69-.6.672.672,0,0,0-.558-.717c-1.891-.351-3.905-.68-5.992-.979a.721.721,0,0,0-.741.186.644.644,0,0,0-.116.724.7.7,0,0,0,.649.39c2.068.3,4.082.624,5.938.971ZM535.884,388.395c-1.96.295-3.964.55-5.969.763a.677.677,0,0,0-.618.7.685.685,0,0,0,.7.63h.077c2.023-.212,4.055-.472,6.033-.771a.7.7,0,0,0,.642-.4.644.644,0,0,0-.121-.721.72.72,0,0,0-.739-.184Zm8.759-140.178a.687.687,0,0,0,.7-.613.674.674,0,0,0-.584-.713,36.354,36.354,0,0,1-5.765-1.3.706.706,0,0,0-.858.423.659.659,0,0,0,.4.838,38.2,38.2,0,0,0,6.01,1.356ZM580.2,371.683c-1.61,1.131-3.279,2.21-4.99,3.219a.65.65,0,0,0-.222.919.721.721,0,0,0,.594.312.7.7,0,0,0,.367-.1c1.715-1.027,3.416-2.127,5.053-3.271a.649.649,0,0,0,.152-.934.721.721,0,0,0-.977-.145Zm-32.532,14.372c-1.919.481-3.887.919-5.86,1.3a.668.668,0,0,0-.484.7.684.684,0,0,0,.624.6.836.836,0,0,0,.145,0c1.991-.394,3.987-.841,5.929-1.326a.669.669,0,0,0,.5-.819.707.707,0,0,0-.857-.481Zm50.572-30.534a.723.723,0,0,0-.518-.129.706.706,0,0,0-.462.259c-1.2,1.512-2.472,3.007-3.8,4.446a.647.647,0,0,0,.064.94.74.74,0,0,0,.454.165.727.727,0,0,0,.526-.225c1.361-1.46,2.64-2.981,3.86-4.519A.652.652,0,0,0,598.24,355.521Zm6.441-9.779a.728.728,0,0,0-.534-.052.692.692,0,0,0-.414.325c-.935,1.664-1.955,3.328-3.039,4.94a.65.65,0,0,0,.209.919.72.72,0,0,0,.527.093.7.7,0,0,0,.44-.293c1.1-1.642,2.145-3.332,3.1-5.03A.652.652,0,0,0,604.681,345.742Zm4.69-10.65a.728.728,0,0,0-.551.03.676.676,0,0,0-.356.4c-.621,1.789-1.361,3.588-2.141,5.347a.652.652,0,0,0,.363.867.7.7,0,0,0,.277.056.7.7,0,0,0,.64-.4c.817-1.794,1.551-3.627,2.186-5.451a.659.659,0,0,0-.417-.849ZM589.34,364.256c-1.42,1.33-2.912,2.634-4.432,3.869a.651.651,0,0,0-.077.94.721.721,0,0,0,.984.074c1.542-1.252,3.057-2.578,4.5-3.934a.649.649,0,0,0,.214-.656.683.683,0,0,0-.5-.489A.719.719,0,0,0,589.34,364.256Zm23.787-48.931c0-.81-.059-1.625-.118-2.426a.69.69,0,0,0-.744-.593.68.68,0,0,0-.648.688c.054.78.1,1.573.113,2.366v1.387c0,.65,0,1.3-.032,1.954a.65.65,0,0,0,.185.48.713.713,0,0,0,.486.214h0a.685.685,0,0,0,.7-.646c0-.659.036-1.335.036-2A12.381,12.381,0,0,0,613.127,315.325Zm-1.134,8.5a.688.688,0,0,0-.767.572c-.263,1.867-.63,3.757-1.089,5.633a.671.671,0,0,0,.522.8,1.051,1.051,0,0,0,.159,0,.7.7,0,0,0,.68-.516c.454-1.9.839-3.835,1.111-5.745a.647.647,0,0,0-.145-.5A.708.708,0,0,0,611.993,323.822Zm-14.411-14.593a.647.647,0,0,0-.052-.942.722.722,0,0,0-.987.05,23.47,23.47,0,0,1-4.418,3.687.652.652,0,0,0-.28.749.7.7,0,0,0,.67.473.741.741,0,0,0,.39-.113,24.976,24.976,0,0,0,4.677-3.9Zm-6.768-29.03a28.575,28.575,0,0,0-6.006-1.452.716.716,0,0,0-.669.242.643.643,0,0,0-.1.677.7.7,0,0,0,.578.4,27.178,27.178,0,0,1,5.7,1.382.805.805,0,0,0,.245.039.692.692,0,0,0,.711-.549.665.665,0,0,0-.466-.751Zm10.36,24.19a28.384,28.384,0,0,0,2.463-5.42.644.644,0,0,0-.131-.672.718.718,0,0,0-.682-.209.685.685,0,0,0-.516.474,27.437,27.437,0,0,1-2.35,5.174.652.652,0,0,0,.282.879.718.718,0,0,0,.933-.225Zm-68.167-60.383a.726.726,0,0,0,.991-.08.651.651,0,0,0-.084-.947,10.863,10.863,0,0,1-3.3-4.376.711.711,0,0,0-.892-.355.659.659,0,0,0-.41.836,12.165,12.165,0,0,0,3.692,4.922Zm-9.09,145.659c-1.982.126-4.01.217-6.019.264a.668.668,0,1,0,0,1.335h0c2.028-.048,4.082-.139,6.074-.269a.677.677,0,0,0,.619-.706.687.687,0,0,0-.709-.624ZM409.91,358.71c-1.592-.992-3.243-2.032-5.04-3.185a.72.72,0,0,0-.971.182.65.65,0,0,0,.19.927c1.814,1.153,3.461,2.2,5.058,3.193a.726.726,0,0,0,.708.049.653.653,0,0,0,.054-1.167Zm-20.017-12.981q-2.495-1.638-4.99-3.267a.726.726,0,0,0-.72-.082.668.668,0,0,0-.408.573.66.66,0,0,0,.344.61q2.5,1.625,4.99,3.267a.731.731,0,0,0,.395.117.7.7,0,0,0,.671-.468.652.652,0,0,0-.271-.75Zm30.269,19.086c-1.674-.949-3.411-1.958-5.157-3a.718.718,0,0,0-.937.227.649.649,0,0,0,.2.9c1.755,1.049,3.5,2.062,5.185,3.033a.709.709,0,0,0,.354.1.694.694,0,0,0,.672-.49.654.654,0,0,0-.313-.75Zm-40.271-25.59c-1.787-1.135-3.447-2.166-5.071-3.172a.726.726,0,0,0-.722-.066.654.654,0,0,0-.036,1.183c1.619,1,3.275,2.032,5.053,3.163a.713.713,0,0,0,1.055-.36A.652.652,0,0,0,379.89,339.225Zm-20.73-12.089c-1.814-.936-3.629-1.841-5.393-2.678a.717.717,0,0,0-.943.29.656.656,0,0,0,.3.9c1.751.832,3.552,1.733,5.348,2.66a.759.759,0,0,0,.331.078.694.694,0,0,0,.676-.5.656.656,0,0,0-.341-.75Zm-34.029-12.318c-2-.4-4.019-.745-6-1.023a.72.72,0,0,0-.742.188.644.644,0,0,0-.114.725.7.7,0,0,0,.652.387c1.955.277,3.946.615,5.9,1.01a.768.768,0,0,0,.141,0,.684.684,0,0,0,.627-.593.667.667,0,0,0-.482-.706Zm23.134,7.158c-1.851-.78-3.742-1.525-5.629-2.214a.725.725,0,0,0-.72.079.652.652,0,0,0-.259.646.678.678,0,0,0,.48.518c1.864.685,3.738,1.421,5.561,2.192a.741.741,0,0,0,.281.056.692.692,0,0,0,.688-.528.66.66,0,0,0-.4-.75Zm21.4,10.984c-1.774-1.04-3.529-2.045-5.207-2.977a.717.717,0,0,0-.937.25.65.65,0,0,0,.234.9c1.669.927,3.416,1.924,5.18,2.959a.709.709,0,0,0,1.035-.385A.654.654,0,0,0,369.662,332.96Zm61.055,37.432c-1.234-.6-2.472-1.226-3.688-1.854-.549-.286-1.093-.568-1.633-.867a.716.716,0,0,0-.95.258.652.652,0,0,0,.27.908c.549.29,1.1.581,1.647.867,1.225.637,2.477,1.265,3.715,1.872a.707.707,0,0,0,.318.074.693.693,0,0,0,.682-.509.658.658,0,0,0-.36-.752Zm-30.867-18.1q-2.495-1.629-4.99-3.276a.726.726,0,0,0-.706-.064.668.668,0,0,0-.4.559.658.658,0,0,0,.318.606q2.49,1.638,4.99,3.276a.719.719,0,0,0,.971-.173A.649.649,0,0,0,399.849,352.289Zm88,35.738c-1.969-.29-3.969-.611-5.947-.962a.715.715,0,0,0-.523.1.657.657,0,0,0-.289.429.643.643,0,0,0,.11.5.7.7,0,0,0,.448.279c1.991.351,4.005.676,5.992.966h.1a.686.686,0,0,0,.689-.617.674.674,0,0,0-.585-.709Zm11.984,1.361-.907-.078c-1.7-.147-3.406-.321-5.094-.511a.69.69,0,0,0-.728.586.672.672,0,0,0,.561.735c1.7.2,3.429.368,5.135.52l.907.078h.059a.666.666,0,0,0,.059-1.33Zm12.057.581c-1.987-.026-4.01-.087-6.024-.186a.7.7,0,0,0-.73.633.649.649,0,0,0,.179.482.712.712,0,0,0,.484.22c2.028.1,4.082.16,6.074.186h0a.668.668,0,1,0,0-1.335ZM313.075,313.128c-2.046-.16-4.082-.26-6.092-.29h0a.668.668,0,1,0,0,1.334c1.964.03,3.983.126,6,.286h.059a.687.687,0,0,0,.694-.611.653.653,0,0,0-.172-.491.716.716,0,0,0-.486-.228ZM476,385.921c-1.96-.433-3.933-.867-5.87-1.326a.7.7,0,0,0-.85.487.669.669,0,0,0,.51.812c1.946.468,3.937.919,5.9,1.334h.154a.684.684,0,0,0,.627-.593.668.668,0,0,0-.482-.707Zm-34.378-10.607c-1.855-.763-3.67-1.56-5.484-2.392a.713.713,0,0,0-.93.321.655.655,0,0,0,.336.888c1.814.819,3.683,1.625,5.534,2.392a.7.7,0,0,0,.277.056.7.7,0,0,0,.754-.529.665.665,0,0,0-.473-.771Zm11.213,4.238c-1.878-.646-3.779-1.33-5.643-2.032a.726.726,0,0,0-.717.075.653.653,0,0,0-.265.641.677.677,0,0,0,.469.523c1.878.711,3.792,1.4,5.684,2.045a.644.644,0,0,0,.236.039.688.688,0,0,0,.734-.548.663.663,0,0,0-.5-.752Zm11.476,3.54c-1.919-.529-3.86-1.092-5.77-1.681a.7.7,0,0,0-.849.44.66.66,0,0,0,.423.83c1.923.594,3.878,1.161,5.811,1.694a.712.712,0,0,0,.873-.466.672.672,0,0,0-.488-.834Zm65.269-149.4a.7.7,0,0,0,.667-.472,5.822,5.822,0,0,1,1.32-2.249.646.646,0,0,0-.081-.907.723.723,0,0,0-.953.015,7.088,7.088,0,0,0-1.619,2.756.662.662,0,0,0,.454.832A.824.824,0,0,0,529.579,233.689Z" transform="translate(-7922.725 9085.808)" fill="#adaad5"/>
      <path id="Path_43901" data-name="Path 43901" d="M480.176,364.2c-3.7-1.105-6.585-5.023-7.4-10.046l-.453-2.717-.453,2.717c-.815,5.023-3.7,8.941-7.4,10.046l-2.02.607,2.02.6c3.7,1.105,6.585,5.027,7.4,10.046l.453,2.74.453-2.74c.815-5.018,3.7-8.941,7.4-10.046l2.011-.621ZM170.7,372.556c-3.7-1.105-6.585-5.027-7.4-10.046l-.453-2.74-.453,2.74c-.815,5.018-3.7,8.941-7.4,10.046l-1.993.616,2.015.607c3.7,1.105,6.585,5.027,7.4,10.046l.453,2.74.453-2.74c.815-5.018,3.7-8.941,7.4-10.046l2.02-.607Z" transform="translate(-7878.195 8998.868)" fill="#ffb300"/>
      <path id="Path_43902" data-name="Path 43902" d="M274.468,678.624c1.979-.589,3.528-2.69,3.963-5.376l.24-1.467.236,1.467c.453,2.686,1.984,4.787,3.963,5.376l1.082.326-1.082.322c-1.979.593-3.528,2.69-3.963,5.381l-.236,1.468-.24-1.468c-.453-2.69-1.984-4.787-3.963-5.381l-1.078-.322Zm351.316,30c1.984-.589,3.528-2.69,3.963-5.376l.24-1.467.236,1.467c.453,2.686,1.984,4.787,3.963,5.376l1.082.326-1.082.322c-1.979.593-3.524,2.69-3.963,5.381l-.236,1.468-.24-1.468c-.453-2.69-1.979-4.787-3.963-5.381l-1.078-.322Z" transform="translate(-7922.175 8811.76)" fill="#02c0dd"/>
      <path id="Path_43903" data-name="Path 43903" d="M693.124,163.664c1.581-.453,2.813-2.147,3.17-4.289l.19-1.169.19,1.169a5.106,5.106,0,0,0,3.17,4.289l.86.258-.86.258c-1.581.453-2.813,2.147-3.17,4.289l-.19,1.169-.19-1.169a5.106,5.106,0,0,0-3.17-4.289l-.861-.258ZM361.331,123.9c1.581-.453,2.813-2.147,3.17-4.289l.19-1.173.19,1.173a5.106,5.106,0,0,0,3.17,4.289l.865.258-.865.258c-1.576.453-2.808,2.147-3.17,4.289l-.19,1.169-.19-1.169a5.106,5.106,0,0,0-3.17-4.289l-.861-.258Z" transform="translate(-7981.845 9170.104)" fill="#ff516c"/>
      <g id="Group_52359" data-name="Group 52359" transform="translate(52.407 25)">
        <path id="Path_43905" data-name="Path 43905" d="M251.955,469.366c-.353.267-.711.525-1.078.765h0q-.652.453-1.318.842c-.254.145-.507.29-.761.426-.512.281-1.028.539-1.553.779a24.975,24.975,0,0,1-33.131-33.036c.254-.562.53-1.119.829-1.662.082-.149.163-.3.254-.453.163-.285.331-.566.507-.847a24.455,24.455,0,0,1,2.065-2.822.455.455,0,0,1,.059-.072h0c.353-.412.716-.811,1.1-1.2.3-.317.616-.62.938-.906s.557-.5.842-.747.7-.571,1.06-.847c.534-.408,1.092-.793,1.653-1.15.263-.172.539-.335.806-.494l.267-.154c.113-.063.231-.131.349-.19.412-.231.833-.453,1.259-.657a23.108,23.108,0,0,1,2.265-.937,24.281,24.281,0,0,1,3.823-1.051A25.006,25.006,0,0,1,259.55,460c-.05.1-.1.217-.154.331l-.149.3c-.118.24-.24.453-.367.7a23.677,23.677,0,0,1-1.513,2.455c-.059.082-.113.163-.177.24a21.5,21.5,0,0,1-1.508,1.911c-.453.53-.956,1.042-1.467,1.535-.312.3-.634.593-.965.879C252.815,468.687,252.394,469.031,251.955,469.366Z" transform="translate(-7948.408 8963.45)" fill="#ffb300"/>
        <path id="Path_43906" data-name="Path 43906" d="M219.856,435.537q.412-.381.842-.747c.344-.285.7-.571,1.06-.847.534-.408,1.092-.793,1.653-1.15.14-.091.285-.177.43-.263-.127.213-.258.426-.38.639s-.172.3-.254.453c-.3.544-.575,1.1-.833,1.667a25,25,0,0,0,25.649,35.142,24.656,24.656,0,0,0,7.487-2.088c.525-.24,1.042-.5,1.554-.779.254-.136.507-.281.756-.426.109-.063.217-.14.322-.208q-.38.625-.8,1.223c-.059.082-.113.163-.177.24a21.479,21.479,0,0,1-1.508,1.911c-.453.53-.956,1.042-1.467,1.535-.313.3-.634.593-.965.879-.408.358-.829.7-1.268,1.037-.353.267-.711.525-1.078.765h0q-.652.453-1.318.842c-.254.145-.507.29-.761.426-.512.281-1.028.539-1.553.779a24.975,24.975,0,0,1-33.131-33.036c.254-.562.53-1.119.829-1.662.082-.149.163-.3.254-.453.163-.285.331-.566.507-.847a24.455,24.455,0,0,1,2.065-2.822.451.451,0,0,1,.059-.072h0c.353-.412.716-.811,1.1-1.2A12.934,12.934,0,0,1,219.856,435.537Z" transform="translate(-7948.408 8959.062)" fill="#ed9e00"/>
        <path id="Path_43907" data-name="Path 43907" d="M255.865,467.386c-.082.7-.195,1.4-.34,2.1,1.481,1.182,2.2,2.192,1.952,2.926s-1.359,1.1-3.17,1.173c-4.724.19-14.127-1.717-24.593-5.195s-19.072-7.541-22.764-10.521c-1.431-1.155-2.12-2.147-1.88-2.867s1.445-1.128,3.374-1.178c.041-.1.086-.186.131-.276s.118-.24.177-.353c.213-.426.453-.842.675-1.255-4.529-.226-7.509.412-8.044,2.011s1.4,3.818,5.036,6.3c4.946,3.37,13.076,7.179,22.569,10.331s18.334,4.982,24.317,5.227c4.371.186,7.247-.453,7.745-2.025S259.588,469.9,255.865,467.386Z" transform="translate(-7942.617 8948.469)" fill="#d8164e"/>
        <path id="Path_43908" data-name="Path 43908" d="M245.613,454.423c.036.263.072.521.1.779a24.391,24.391,0,0,1,.14,2.881v.3c6.16,3.737,9.615,7.324,8.8,9.76s-5.476,3.2-12.365,2.6A123.633,123.633,0,0,1,196.014,455.4c-5.911-3.655-9.194-7.133-8.406-9.511s5.748-3.252,12.958-2.545a23.152,23.152,0,0,1,2.559-3.03c-10.933-1.25-18.873.168-20.25,4.312-1.359,4.076,3.922,9.81,13.089,15.259a117.265,117.265,0,0,0,43.675,14.471c10.576,1.11,18.207-.335,19.557-4.393C260.568,465.828,255.083,459.953,245.613,454.423Z" transform="translate(-7932.423 8955.046)" fill="#d8164e"/>
        <ellipse id="Ellipse_2059" data-name="Ellipse 2059" cx="9.348" cy="15.064" rx="9.348" ry="15.064" transform="matrix(0.709, -0.705, 0.705, 0.709, -7720.721, 9399.219)" fill="#ffd212"/>
      </g>
      <g id="Group_52356" data-name="Group 52356" transform="translate(27.67 89.814)">
        <path id="Path_43929" data-name="Path 43929" d="M954.619,468.216h0l-.075.031c-.221.124-.462.241-.7.349-2.286,1.17-9.841,4.521-12.615,9.474h0l-9.66-5.408c2.615-4.672,1.99-12,1.689-14.952-.068-.442-.122-.869-.155-1.307a.227.227,0,0,0,0-.038h0a14.914,14.914,0,0,1,5.472-12.545c7.422-6.443,19.427-2.448,22.613,5.921A14.7,14.7,0,0,1,954.619,468.216Z" transform="translate(-8305.922 8939.269)" fill="#ffb300"/>
        <path id="Path_43930" data-name="Path 43930" d="M961.223,480.292c-.055-.146-.115-.29-.177-.442a14.782,14.782,0,0,1-7.407,15.837h0l-.075.033c-.221.124-.46.239-.7.347a61.431,61.431,0,0,0-5.828,4.145,13.19,13.19,0,0,1-14.459,1.041l-.086-.049a12.136,12.136,0,0,1-.884,2.008l9.655,5.412h0c2.775-4.952,10.329-8.3,12.616-9.474.236-.108.466-.221.7-.349l.075-.031h0A14.718,14.718,0,0,0,961.223,480.292Z" transform="translate(-8305.954 8908.721)" fill="#ff9500"/>
        <path id="Path_43931" data-name="Path 43931" d="M943.664,538.917l-5.264-3.064.1-.15c.051-.071,4.17-5.994,5.733-10.612a3.533,3.533,0,0,1-1.959-3.239,2.671,2.671,0,0,1,1.03-2.386.942.942,0,0,1,.99.049c.663.429.964,1.548.849,3.064a10.516,10.516,0,0,1-.5,2.339c.108.046.221.088.323.124a3.486,3.486,0,0,0,.831.166,3.1,3.1,0,0,1,.466-2.335,1.92,1.92,0,0,1,1.559-1.09.911.911,0,0,1,.776.539,2.269,2.269,0,0,1-.453,2.2,2.49,2.49,0,0,1-1.873,1.026,2.112,2.112,0,0,0,1.315.995,1.768,1.768,0,0,0,.679.06,4.362,4.362,0,0,1,.986-3.171,1.572,1.572,0,0,1,2.116-.542,1.178,1.178,0,0,1,.387,1.629,4.882,4.882,0,0,1-3.082,2.357,1.339,1.339,0,0,0,.248.442,2.812,2.812,0,0,0,.809.6c1.548-1.327,3.182-2.142,4.119-1.9a1.072,1.072,0,0,1,.8,1.055,1.484,1.484,0,0,1-.955,1.625,5.411,5.411,0,0,1-3.911-.387,14.386,14.386,0,0,0-2.3,2.587,32.316,32.316,0,0,0-3.759,7.813Zm-4.778-3.166,4.583,2.653a33.491,33.491,0,0,1,3.747-7.705,14.732,14.732,0,0,1,2.262-2.556,2.971,2.971,0,0,1-.8-.617,1.679,1.679,0,0,1-.325-.608,2.085,2.085,0,0,1-.851-.066,2.419,2.419,0,0,1-1.585-1.307,3.7,3.7,0,0,1-1.052-.188,3.1,3.1,0,0,1-.321-.122C943.1,529.523,939.561,534.769,938.886,535.751Zm15.072-9.332a.755.755,0,0,0-.179-.071c-.752-.2-2.211.484-3.706,1.727a5.017,5.017,0,0,0,3.5.314,1.156,1.156,0,0,0,.752-1.282A.8.8,0,0,0,953.958,526.419Zm-9.9-6.646a.605.605,0,0,0-.6,0c-.391.206-.822.864-.849,2.1a3.175,3.175,0,0,0,1.709,2.894h.018a10.171,10.171,0,0,0,.469-2.211c.155-2.032-.5-2.624-.7-2.759Zm3.991,2.417a.564.564,0,0,0-.241-.069c-.4-.024-.867.325-1.254.933a2.687,2.687,0,0,0-.409,2.16,2.189,2.189,0,0,0,1.729-.884,1.943,1.943,0,0,0,.427-1.857.635.635,0,0,0-.243-.283Zm3.1.955a1.307,1.307,0,0,0-1.634.5,4.047,4.047,0,0,0-.911,2.9,4.536,4.536,0,0,0,2.85-2.171c.245-.542.159-.946-.256-1.2Z" transform="translate(-8311.242 8877.956)" fill="#fff"/>
        <path id="Path_43932" data-name="Path 43932" d="M925.172,601.837a3.954,3.954,0,1,1,1.769,4.851A3.67,3.67,0,0,1,925.172,601.837Z" transform="translate(-8300.646 8814.948)" fill="#544799"/>
        <path id="Path_43933" data-name="Path 43933" d="M937.623,591.7l-6.162-3.449a2.008,2.008,0,0,1-.769-2.728h0l9.66,5.412h0a2,2,0,0,1-2.728.765Z" transform="translate(-8305.04 8826.414)" fill="#544799"/>
        <path id="Path_43934" data-name="Path 43934" d="M935.175,603.38l-6.8-3.805a.482.482,0,0,1-.186-.663h0a.484.484,0,0,1,.663-.186l6.794,3.807a.48.48,0,0,1,.186.663h0a.48.48,0,0,1-.661.184Z" transform="translate(-8303.242 8816.177)" fill="#302977"/>
        <rect id="Rectangle_20599" data-name="Rectangle 20599" width="0.962" height="7.816" transform="translate(-7375.356 9416.574) rotate(-60.75)" fill="#544799"/>
        <rect id="Rectangle_20600" data-name="Rectangle 20600" width="1.296" height="7.816" transform="translate(-7374.434 9414.928) rotate(-60.75)" fill="#544799"/>
        <path id="Path_43935" data-name="Path 43935" d="M930.9,610.933l-6.785-3.805a.482.482,0,0,1-.186-.663h0a.482.482,0,0,1,.663-.183l6.8,3.8a.482.482,0,0,1,.186.663h0a.482.482,0,0,1-.674.184Z" transform="translate(-8299.924 8810.293)" fill="#302977"/>
        <path id="Path_43936" data-name="Path 43936" d="M965.813,386.258l-1.665-6.235a.573.573,0,0,0-1.105.3l1.665,6.235A.573.573,0,0,0,965.813,386.258Zm9.564-.792q.624-5.264,1.245-10.526a.579.579,0,0,0-.577-.57.59.59,0,0,0-.57.577q-.619,5.264-1.243,10.526a.581.581,0,0,0,.577.57A.588.588,0,0,0,975.378,385.467Zm12.291-.679-4.09,4.276c-.509.535.3,1.349.807.816l4.086-4.276C988.984,385.071,988.179,384.255,987.668,384.788Z" transform="translate(-8330.42 8990.88)" fill="#ffb300"/>
        <ellipse id="Ellipse_2061" data-name="Ellipse 2061" cx="8.092" cy="5.293" rx="8.092" ry="5.293" transform="translate(-7368.387 9383.718) rotate(-6.93)" fill="#ffd212"/>
      </g>
      <path id="Path_43974" data-name="Path 43974" d="M488.217,295.747a19.272,19.272,0,0,1-5.172.738c-3.261,0-6.567-.811-6.477-1.576.186-1.576,7.12-.163,7.46-.693.675-1.069-6.563-.879-6.794-1.762-.34-1.277.453-4.026,1.436-4.774,1.671-1.3,4.892.313,6.427,1.078a14.525,14.525,0,0,1,4.221,3.17c2.265-.562,4.208.317,4.706,1.676a2.337,2.337,0,0,1-.38,2.237C492.678,296.97,490.35,297.16,488.217,295.747Z" transform="translate(-8055.212 9038.573)" fill="#ffb300"/>
      <path id="Path_43976" data-name="Path 43976" d="M955.868,192.584a22.936,22.936,0,0,0-10.168-.856,22.488,22.488,0,0,0,8.08,15.775,18.37,18.37,0,0,0,5.435-8.827A4.982,4.982,0,0,0,955.868,192.584Z" transform="translate(-8311.867 9090.925)" fill="#ff516c"/>
      <path id="Path_43977" data-name="Path 43977" d="M857.307,243.6s-6.047.077-9.6,4.217c0,0-1.123.756,1.223.281,0,0-3.1,3.623-2.718,5.127,0,0,1.735,1.418,6.105.634,0,0-2.717,2.65.906,1.015,0,0,5.666-1.943,7.31-4.864Z" transform="translate(-8257.421 9062.422)" fill="#ff8500"/>
      <path id="Path_43978" data-name="Path 43978" d="M861.018,245.06s-4.615.059-7.328,3.22c0,0-.856.58.933.213,0,0-2.369,2.767-2.065,3.913,0,0,1.327,1.087,4.66.485,0,0-2.065,2.025.679.775,0,0,4.325-1.481,5.58-3.709Z" transform="translate(-8260.896 9061.623)" fill="#ffb300"/>
      <path id="Path_43979" data-name="Path 43979" d="M865.207,246.75a7.1,7.1,0,0,0-4.81,2.115s-.562.38.611.14c0,0-1.553,1.812-1.359,2.568,0,0,.87.711,3.057.317,0,0-1.359,1.332.453.512,0,0,2.84-.978,3.664-2.441Z" transform="translate(-8264.782 9060.698)" fill="#ffd212"/>
      <path id="Path_43980" data-name="Path 43980" d="M861.786,214.213c4.108-13.977-12.106-2.206-12.106-2.206.371-.6.743-1.169,1.128-1.717,8.669-12.414,20.789-12.337,26.138-11.572a19.864,19.864,0,0,1,2.718.557Zm4.117,22.8q-1.567.054-3.27-.05s18.955-6.477,5.163-11.164l22.51-6.024a20.911,20.911,0,0,1-1.391,3.075A26.294,26.294,0,0,1,865.9,237.018Z" transform="translate(-8259.337 9087.131)" fill="#ff516c"/>
      <path id="Path_43981" data-name="Path 43981" d="M865.9,237.359q-1.567.054-3.27-.05s18.955-6.477,5.163-11.164l22.51-6.024a20.91,20.91,0,0,1-1.391,3.075c-6.595,2.718-12.818,6.015-15.136,9.43C872.385,234.682,868.92,236.29,865.9,237.359Zm-4.117-22.8c4.108-13.977-12.106-2.206-12.106-2.206.371-.6.743-1.169,1.128-1.717,2.717-2.02,6.517-4.411,9.3-4.362,4.221.072,10.693-3.266,16.839-7.21a19.862,19.862,0,0,1,2.718.557Z" transform="translate(-8259.337 9086.789)" fill="#f43459"/>
      <path id="Path_43982" data-name="Path 43982" d="M907.324,191.984s-10.1-.906-27.125,12.229c0,0-4.774,3.555-4.642,7.528l5.2,10.136s2.36,2.953,8.882.779c0,0,17.813-4.728,25.762-14.915Z" transform="translate(-8273.492 9090.667)" fill="#fff"/>
      <path id="Path_43983" data-name="Path 43983" d="M912.563,212.389h0c-.086.5,7.183-7.351,5.295-11.939a18.115,18.115,0,0,1-4.95,7.3h0s-12.645,11.228-26.07,14.04a29.778,29.778,0,0,1-6.155.63,9.466,9.466,0,0,1-8.963-5.091h0l-1.359,2.659,3.46,6.7,5.122.616a7.034,7.034,0,0,0,3.406.793h0a14.035,14.035,0,0,0,1.64-.131h0a16.083,16.083,0,0,0,2.8-.679S904.619,222.575,912.563,212.389Z" transform="translate(-8270.65 9086.028)" fill="#dcdcea"/>
      <path id="Path_43984" data-name="Path 43984" d="M945.7,191.73l8.076,15.766h0a18.37,18.37,0,0,0,5.435-8.827,4.982,4.982,0,0,0-3.356-6.083A22.972,22.972,0,0,0,945.7,191.73Z" transform="translate(-8311.867 9090.922)" fill="#ff516c"/>
      <circle id="Ellipse_2079" data-name="Ellipse 2079" cx="5.181" cy="5.181" r="5.181" transform="translate(-7377.518 9289.704)" fill="#ffb300"/>
      <circle id="Ellipse_2080" data-name="Ellipse 2080" cx="3.718" cy="3.718" r="3.718" transform="translate(-7376.055 9291.167)" fill="#02c0dd"/>
      <path id="Path_43985" data-name="Path 43985" d="M929.264,219.2a3.723,3.723,0,0,1-4.407-5.888,3.718,3.718,0,0,0,5.077,4.887,3.624,3.624,0,0,0,.983-.738,3.723,3.723,0,0,1-1.653,1.739Z" transform="translate(-8299.889 9078.993)" fill="#00aabc"/>
      <circle id="Ellipse_2081" data-name="Ellipse 2081" cx="3.85" cy="3.85" r="3.85" transform="translate(-7385.408 9295.822)" fill="#ffb300"/>
      <circle id="Ellipse_2082" data-name="Ellipse 2082" cx="2.763" cy="2.763" r="2.763" transform="translate(-7384.321 9296.909)" fill="#02c0dd"/>
      <path id="Path_43986" data-name="Path 43986" d="M909.658,230.142a2.767,2.767,0,0,1-3.551-4.022,2.763,2.763,0,0,0,4.91,2.4A2.759,2.759,0,0,1,909.658,230.142Z" transform="translate(-8289.943 9071.984)" fill="#00aabc"/>
      <path id="Path_43987" data-name="Path 43987" d="M870.34,237.887l3.469,6.69,5.141.62-6.169-12.057Z" transform="translate(-8270.64 9068.145)" fill="#ff516c"/>
      <path id="Path_43988" data-name="Path 43988" d="M886.9,240.812l-8.239-15.879a15.846,15.846,0,0,1,.992-1.273l8.886,17.021A13.071,13.071,0,0,1,886.9,240.812Z" transform="translate(-8275.191 9073.331)" fill="#ffb300"/>
      <path id="Path_43989" data-name="Path 43989" d="M357.277,315.721s17.51,28.3,17.664,29.354.172,1.264-.453,1.359-22.193-2.382-40.577,5.888c-6.7-1.087-10.779.308-14.086,1.033-6.73,1.477-16.785,5.6-19.679,9.285-.281.353-1.359,1.812-2.36,1.6-.6-.127-1.01-.833-1.3-1.753-1.223-3.8-6.25-30.413-6.862-33.584A66.648,66.648,0,0,1,303.7,321.84c7.817-3.057,17.46-3.066,23.647.716C327.312,322.524,345.41,310.449,357.277,315.721Z" transform="translate(-7952.938 9023.695)" fill="#f43459"/>
      <path id="Path_43990" data-name="Path 43990" d="M356.687,311.553s17.51,28.3,17.664,29.354.172,1.264-.453,1.359-22.193-2.387-40.577,5.888c-6.7-1.087-10.779.3-14.086,1.028-6.726,1.481-16.785,5.6-19.679,9.285-.281.358-1.359,1.812-2.36,1.6-.6-.131-1.01-.833-1.3-1.757-1.223-3.8-6.25-30.409-6.862-33.584,3.17-2.3,8.044-4.7,14.081-7.061,7.817-3.057,17.46-3.062,23.647.716C326.735,318.356,344.834,306.285,356.687,311.553Z" transform="translate(-7952.615 9025.974)" fill="#ff516c"/>
      <path id="Path_43991" data-name="Path 43991" d="M334.868,344.446s-30.146-1.218-34.915,11.2l-6.223-30.386s22.863-18.3,35.577-8.22c0,0,13.588-15.327,27.424-6.463l17.161,27.275a5.825,5.825,0,0,0-1.785-1.3,7.012,7.012,0,0,0-4.792-.163,14.393,14.393,0,0,0-3.7,1.553C361.957,338.382,343.311,337.39,334.868,344.446Z" transform="translate(-7955.186 9027.289)" fill="#f5e2b8"/>
      <path id="Path_43992" data-name="Path 43992" d="M352.919,301.46l19.475,33.022s-28.941.765-35.418,6.486c0,0-19.761-1.812-32.488,9.688l-6.939-32.112s21.645-16.2,33.865-4.982C331.4,313.562,334.63,304.128,352.919,301.46Z" transform="translate(-7957.276 9030.769)" fill="#fff6de"/>
      <path id="Path_43993" data-name="Path 43993" d="M359.2,312.22a2.563,2.563,0,0,0-2.02-.213,21.421,21.421,0,0,0-2.564.525,21.975,21.975,0,0,0-4.774,1.875,22.336,22.336,0,0,0-4.2,2.9,8.35,8.35,0,0,0-2.613,3.5.254.254,0,0,0,.453.195c1.241-2.6,4.126-4.42,6.617-5.657a23.351,23.351,0,0,1,4.1-1.594,22.291,22.291,0,0,1,2.179-.494,4.876,4.876,0,0,1,2.265-.118C359.232,313.33,359.726,312.6,359.2,312.22Zm2.962,5.227a17.027,17.027,0,0,0-5.041.72,27.24,27.24,0,0,0-4.9,1.721,26.217,26.217,0,0,0-4.5,2.641,15.086,15.086,0,0,0-3.682,3.388c-.14.208.149.376.317.249,1.359-1.051,2.536-2.3,3.954-3.288a26.324,26.324,0,0,1,4.244-2.41,25.837,25.837,0,0,1,4.751-1.6c1.64-.385,3.3-.4,4.946-.657C362.7,318.135,362.579,317.474,362.167,317.447Zm2.749,6.2a14.3,14.3,0,0,0-4.769.159,26.682,26.682,0,0,0-4.62,1.214,30.079,30.079,0,0,0-8.37,4.9.208.208,0,0,0,.258.326,32.292,32.292,0,0,1,8.334-4.4,21.948,21.948,0,0,1,4.529-1.114c.765-.1,1.54-.177,2.314-.208s1.553.05,2.328.023C365.451,324.53,365.4,323.724,364.916,323.652Zm1.422,5.811a32.414,32.414,0,0,0-9.258,2.174,29.584,29.584,0,0,0-4.153,2.029,16.51,16.51,0,0,0-3.786,2.717c-.086.1.041.258.159.2.621-.308,1.164-.738,1.753-1.1.693-.421,1.395-.82,2.115-1.2a35.924,35.924,0,0,1,4.239-1.9,32.719,32.719,0,0,1,9.058-1.961C367.1,330.4,366.972,329.413,366.338,329.463Zm3.22,6.776a32.9,32.9,0,0,0-10.163.621,34.511,34.511,0,0,0-4.692,1.3,11.4,11.4,0,0,0-4.031,2.228c-.24.222.063.625.317.408a11.033,11.033,0,0,1,3.981-2,40.426,40.426,0,0,1,4.792-1.182,37.773,37.773,0,0,1,4.624-.557c1.694-.1,3.365,0,5.059.041C369.984,337.108,370.125,336.306,369.559,336.238ZM336.31,322.053a10.634,10.634,0,0,0-5.462-1.554,45.429,45.429,0,0,0-7.152,0c-4.325.385-8.791,1.766-12.066,4.742-.611.557.159,1.581.806,1.028a21.142,21.142,0,0,1,11.142-4.656,42.654,42.654,0,0,1,6.758-.294c1.934.054,4.008.027,5.7,1.11C336.278,322.578,336.554,322.225,336.31,322.053Zm.829,5.295c-.978-.168-1.943-.421-2.93-.539a28.533,28.533,0,0,0-19.706,5.068c-.652.453.113,1.449.77.983a29.662,29.662,0,0,1,10.417-4.683,30.968,30.968,0,0,1,5.557-.729,22.861,22.861,0,0,1,5.834.317C337.352,327.8,337.415,327.37,337.139,327.347Zm2.323,6.114a23.814,23.814,0,0,0-6.4-.8,43.332,43.332,0,0,0-7.061.476c-4,.634-8.207,2.265-10.734,5.612a.6.6,0,0,0,.956.725,17.149,17.149,0,0,1,10.308-5.349,54.3,54.3,0,0,1,6.531-.566,20.158,20.158,0,0,1,6.282.331C339.589,333.956,339.707,333.53,339.462,333.462Zm-1.241,5.743a19.871,19.871,0,0,0-6.3-.136,26.8,26.8,0,0,0-6.137,1.735,50.276,50.276,0,0,0-5.72,2.8c-1.2.675-3.252,1.644-2.935,3.352a.512.512,0,0,0,1.01,0A2.3,2.3,0,0,1,319.3,345.4c.743-.5,1.554-.906,2.333-1.359a45.891,45.891,0,0,1,5.168-2.487,24.153,24.153,0,0,1,11.364-1.961.2.2,0,0,0,.054-.389Z" transform="translate(-7964.857 9025.053)" fill="#f0e1ce"/>
    </g>
    <g id="Group_52355" data-name="Group 52355" transform="translate(8788.658 -9021.335)">
      <rect id="Rectangle_20601" data-name="Rectangle 20601" width="43.403" height="32.249" rx="4.55" transform="translate(-7321.843 9341.595) rotate(-60.29)" fill="#02c0dd"/>
      <rect id="Rectangle_20602" data-name="Rectangle 20602" width="12.592" height="23.165" rx="4.71" transform="translate(-7303.319 9321.432) rotate(-60.29)" fill="#fffdf5"/>
      <rect id="Rectangle_20603" data-name="Rectangle 20603" width="43.403" height="0.8" transform="translate(-7319.775 9342.772) rotate(-60.29)" fill="#fffdf5"/>
      <path id="Path_43994" data-name="Path 43994" d="M1110.792,256.769l-.582,1.024c-.186-.154-.382-.307-.589-.464a22.266,22.266,0,0,0-1.942-1.313l.311-.546c.775.418,1.517.767,2.206,1.071Z" transform="translate(-8411.655 9050.798)" fill="#544799"/>
      <circle id="Ellipse_2083" data-name="Ellipse 2083" cx="0.735" cy="0.735" r="0.735" transform="translate(-7302.037 9307.31)" fill="#544799"/>
      <path id="Path_43995" data-name="Path 43995" d="M1104.666,267.509l-.585,1.021q-.279-.225-.589-.46a21.009,21.009,0,0,0-1.942-1.314l.311-.546c.775.418,1.517.767,2.206,1.071C1104.27,267.352,1104.47,267.434,1104.666,267.509Z" transform="translate(-8407.713 9043.892)" fill="#544799"/>
      <circle id="Ellipse_2084" data-name="Ellipse 2084" cx="0.735" cy="0.735" r="0.735" transform="translate(-7304.225 9311.14)" fill="#544799"/>
      <path id="Path_43996" data-name="Path 43996" d="M1098.536,278.249l-.582,1.021-.593-.464a22.552,22.552,0,0,0-1.942-1.314l.311-.543c.778.418,1.521.767,2.209,1.071Z" transform="translate(-8403.771 9036.984)" fill="#544799"/>
      <circle id="Ellipse_2085" data-name="Ellipse 2085" cx="0.735" cy="0.735" r="0.735" transform="translate(-7306.413 9314.973)" fill="#544799"/>
      <path id="Path_43997" data-name="Path 43997" d="M1092.392,288.979l-.582,1.024q-.279-.232-.589-.46a21.755,21.755,0,0,0-1.942-1.317l.31-.546a24.355,24.355,0,0,0,2.206,1.071C1092.007,288.826,1092.207,288.9,1092.392,288.979Z" transform="translate(-8399.823 9030.084)" fill="#544799"/>
      <circle id="Ellipse_2086" data-name="Ellipse 2086" cx="0.735" cy="0.735" r="0.735" transform="translate(-7308.601 9318.807)" fill="#544799"/>
      <path id="Path_43998" data-name="Path 43998" d="M1086.282,299.719l-.582,1.021q-.279-.225-.589-.46a21.791,21.791,0,0,0-1.942-1.314l.31-.546a24.285,24.285,0,0,0,2.206,1.071h0C1085.89,299.566,1086.09,299.644,1086.282,299.719Z" transform="translate(-8395.894 9023.178)" fill="#544799"/>
      <circle id="Ellipse_2087" data-name="Ellipse 2087" cx="0.735" cy="0.735" r="0.735" transform="translate(-7310.789 9322.637)" fill="#544799"/>
      <path id="Path_43999" data-name="Path 43999" d="M1080.152,310.459l-.582,1.021q-.279-.225-.589-.46a22.527,22.527,0,0,0-1.942-1.313l.311-.546c.778.418,1.517.767,2.206,1.071h0Z" transform="translate(-8391.951 9016.271)" fill="#544799"/>
      <circle id="Ellipse_2088" data-name="Ellipse 2088" cx="0.735" cy="0.735" r="0.735" transform="translate(-7312.973 9326.47)" fill="#544799"/>
      <path id="Path_44003" data-name="Path 44003" d="M1125.2,283.967a1.071,1.071,0,0,0,.432-.425,1.2,1.2,0,0,0-.082-1.3,2.209,2.209,0,0,0-.714-.568l-1.581-.9-2.384,4.176,1.6.917a3.237,3.237,0,0,0,.714.318,1.517,1.517,0,0,0,.578.057,1.216,1.216,0,0,0,.528-.214,1.36,1.36,0,0,0,.436-.475,1.16,1.16,0,0,0,.157-.75,1.217,1.217,0,0,0-.357-.714A1.243,1.243,0,0,0,1125.2,283.967Zm-1.021,1.26a.853.853,0,0,1-.286.307.682.682,0,0,1-.357.111,1.128,1.128,0,0,1-.386-.068,3.234,3.234,0,0,1-.389-.2l-1.046-.6.821-1.428.971.553a2.363,2.363,0,0,1,.575.421.749.749,0,0,1,.2.435.807.807,0,0,1-.118.464Zm.114-1.6a2.62,2.62,0,0,1-.557-.257l-.91-.518.714-1.264.839.478a2.806,2.806,0,0,1,.607.425.578.578,0,0,1,.161.382.774.774,0,0,1-.107.421.713.713,0,0,1-.318.3.693.693,0,0,1-.446.029Zm5.679,1.253a2.309,2.309,0,0,0-.892-.874,2.2,2.2,0,0,0-1.785-.239,2.6,2.6,0,0,0-1.492,1.31,2.654,2.654,0,0,0-.357,1.178,2.118,2.118,0,0,0,.264,1.185,2.305,2.305,0,0,0,.9.889,2.388,2.388,0,0,0,1.171.325,2.035,2.035,0,0,0,1.164-.339,3.084,3.084,0,0,0,1.3-2.252,2.115,2.115,0,0,0-.271-1.181Zm-.357,1.121a2.45,2.45,0,0,1-.335.989,2.042,2.042,0,0,1-1.117,1.014,1.649,1.649,0,0,1-2.063-1.171,1.939,1.939,0,0,1,.275-1.428,2.056,2.056,0,0,1,1.2-1.1,1.7,1.7,0,0,1,1.877.814,1.574,1.574,0,0,1,.164.885Zm4.8,3.93a2.882,2.882,0,0,0,.4-1.264,2.076,2.076,0,0,0-.271-1.178,2.346,2.346,0,0,0-.892-.878,2.224,2.224,0,0,0-1.785-.239,2.617,2.617,0,0,0-1.492,1.314,2.731,2.731,0,0,0-.357,1.178,2.142,2.142,0,0,0,.264,1.181,2.312,2.312,0,0,0,.9.892,2.4,2.4,0,0,0,1.171.325,2.031,2.031,0,0,0,1.164-.357A2.8,2.8,0,0,0,1134.412,289.932Zm-1.688.682a1.642,1.642,0,0,1-2.059-1.171,1.914,1.914,0,0,1,.271-1.428,2.064,2.064,0,0,1,1.192-1.1,1.688,1.688,0,0,1,1.881.814,1.545,1.545,0,0,1,.168.882,2.411,2.411,0,0,1-.335.989,2.017,2.017,0,0,1-1.117,1.017Z" transform="translate(-8420.138 9034.521)" fill="#544799"/>
      <path id="Path_44004" data-name="Path 44004" d="M1162.916,303.5l-.719-.41-3.106.841,1.126-1.97-.529-.3-2.268,3.967.529.3.787-1.373,1.014-.261.275,2.821.7.4-.4-3.363Z" transform="translate(-8442.389 9021.564)" fill="#544799"/>
      <g id="Group_52357" data-name="Group 52357" transform="translate(-8.837 -11.496)">
        <path id="Path_44000" data-name="Path 44000" d="M1073.934,321.154l-.568.991c-.18-.145-.371-.294-.572-.45a21.869,21.869,0,0,0-1.884-1.275l.3-.53a23.629,23.629,0,0,0,2.141,1.039Z" transform="translate(-8379.673 9020.686)" fill="#544799"/>
        <circle id="Ellipse_2089" data-name="Ellipse 2089" cx="0.714" cy="0.714" r="0.714" transform="translate(-7306.882 9341.587)" fill="#544799"/>
        <path id="Path_44001" data-name="Path 44001" d="M1067.8,331.891l-.565.994c-.184-.149-.374-.3-.575-.45a21.132,21.132,0,0,0-1.885-1.275l.3-.53c.752.405,1.472.745,2.137,1.039Z" transform="translate(-8375.666 9013.666)" fill="#544799"/>
        <circle id="Ellipse_2090" data-name="Ellipse 2090" cx="0.714" cy="0.714" r="0.714" transform="translate(-7309.005 9345.307)" fill="#544799"/>
        <path id="Path_44002" data-name="Path 44002" d="M1061.681,342.621l-.565.991c-.18-.146-.371-.294-.572-.443a20.4,20.4,0,0,0-1.884-1.278l.3-.53c.752.405,1.472.745,2.141,1.039Z" transform="translate(-8371.666 9006.652)" fill="#544799"/>
        <circle id="Ellipse_2091" data-name="Ellipse 2091" cx="0.714" cy="0.714" r="0.714" transform="translate(-7311.128 9349.024)" fill="#544799"/>
      </g>
    </g>
    <g id="Group_52358" data-name="Group 52358" transform="translate(1538.447 408.975)">
      <path id="Path_43914" data-name="Path 43914" d="M629.34,491.8q0,5.739-.5,11.356H376.67c-.325-3.711-.5-7.474-.5-11.273v-1.449a126.047,126.047,0,0,1,28.4-78.492h0A126.646,126.646,0,0,1,618.155,439.8c.083.183.167.369.246.552.195.437.4.873.576,1.31.143.325.282.651.421.98s.3.711.445,1.068c.29.7.576,1.405.853,2.116.179.456.357.917.532,1.377a1.834,1.834,0,0,0,.075.206c.167.449.333.893.5,1.346.032.091.064.183.1.278.171.464.333.941.5,1.409s.337.976.5,1.469c.206.611.4,1.223.6,1.838.163.52.325,1.048.484,1.588.179.591.357,1.191.52,1.778.147.508.29,1.016.425,1.524.087.314.171.631.254.949a.8.8,0,0,1,.024.091c.056.214.111.425.163.639a.168.168,0,0,1,0,.064c.091.361.187.726.274,1.088l.071.294c.115.468.226.937.333,1.409.127.54.254,1.08.369,1.627a126.621,126.621,0,0,1,2.9,25.7C629.34,490.93,629.34,491.367,629.34,491.8Z" transform="translate(-376.17 -365.299)" fill="#048077"/>
      <path id="Path_43915" data-name="Path 43915" d="M977.2,571.008q0,5.74-.5,11.356H957.906a120.613,120.613,0,0,0,5.4-30.369c.1-2,.147-4.021.147-6.053v-1.274A120.6,120.6,0,0,0,952.98,496.64a126.313,126.313,0,0,1,15.571,28.4c.175.456.353.917.532,1.377a1.822,1.822,0,0,0,.075.206c.167.448.333.893.5,1.346.032.091.063.183.1.278.167.468.333.941.5,1.409s.337.98.5,1.469c.206.611.4,1.223.6,1.838.163.52.326,1.048.484,1.588.179.591.357,1.191.52,1.778.147.508.29,1.016.425,1.524.087.318.171.631.254.949a.792.792,0,0,1,.024.091c.055.214.111.425.163.639a.171.171,0,0,1,0,.064c.091.361.187.726.274,1.088l.071.294c.115.468.226.937.333,1.409.127.54.254,1.08.369,1.627a126.623,126.623,0,0,1,2.9,25.7C977.2,570.138,977.2,570.575,977.2,571.008Z" transform="translate(-724.031 -444.508)" fill="#006b61"/>
      <path id="Path_43916" data-name="Path 43916" d="M473.324,507.089c-3.949,6.641-15.02.306-19.572,6.009h.1a2.754,2.754,0,0,1-.286,5.434h-.087c-10.8,2.306-18.929,13.615-23.978,23.022-.4,1.361-1.552,3.4-3.207,2.568-2.108-10.411-11.4-6.208-17.862-2-3.969,2.6-3.013,10.376,2.433,9.169,4.823-3.93,7.855.794,5.74,5.557,7.331-2.024-.1,11.483,11.027,9.578,5.319,1.072,5.954-6.656,10.6-3.739,4.255,5.934,13.027.556,19.2,3.969,4.763.794,5.478,2.727,5.613,5.775H428.373c-.052-2.044-2.3-2.818-4.148-2.755-11.785,2.056-5.3-10.586-17.3-10.955-4.2-7.26-5.668-2.806-11.062-5.823-1.687-1.727-.687-4.644-1.385-6.95-1.135-3.334-7.724-7.284-3.64-10.777-3.215-1.985-3.751,3.279-4.172,5.386-3.136,3.013-5.438,3.283-6.958,1.655A125.92,125.92,0,0,1,406.7,481.229h0a17.005,17.005,0,0,1,3.969.445l7.272.488c11.511,8.478,26.1-7.966,36.878.5-.147,1.028-1.85.6-2.651,1.254-.933.762-.079,2.231-.044,3.433-1.381,6.148-12.59,1.064-15.48,10.995,1.739-.445,2.878,1.774,3.235,3.541,4.763,14.654,11.269-19.279,21.362-4.93C469.788,493.232,467.494,504.524,473.324,507.089Z" transform="translate(-378.305 -434.571)" fill="#2ec2ae"/>
      <path id="Path_43917" data-name="Path 43917" d="M484.9,503.253c9.4.1,1.985,6.327,15.035,3.91C501.139,501.8,485.2,499.287,484.9,503.253Zm17.052,5.938a3.036,3.036,0,0,0,3.926-1.278l-.337.107A2.372,2.372,0,0,0,501.949,509.191ZM492.2,432.755l2.465.5A5.356,5.356,0,0,0,492.2,432.755Zm0,0-3.152-.635a9.2,9.2,0,0,0,2.211.623C491.581,432.735,491.9,432.735,492.2,432.755Zm-8.435,3.922c4-.576,2.905-.766,5.557,1.941,4.366-1.405,3.414-2.31,8.879-1.711,3.751-2.409-3.072-3.366-6.954-4.164C486.937,432.811,480.7,434.287,483.762,436.677Zm34.556-21.612c3.624-5.8,11.027-3.175,15.722-6.839,3.072-3.175-6.307-1.659-12.166-1.421a4.6,4.6,0,0,0-3.31-.274l2.135.3a9.754,9.754,0,0,1-2.382-.2c-1.278.548-2.1,1.874-1.885,3.882C514.722,413.056,513.983,416.771,518.318,415.064Zm26.725-6.521c.171.052.337.1.508.139a4.276,4.276,0,0,0,.5.024Z" transform="translate(-440.564 -389.986)" fill="#2ec2ae"/>
      <path id="Path_43919" data-name="Path 43919" d="M582.024,412.46l.973.159A5.657,5.657,0,0,0,582.024,412.46Zm-29.682,13.71c4.334,3.9-5.37,2.064-6.1,4.973-.067.627.675,1.036,1.306,1.068,3.572-.961,2.235,3.64,4.688,4.156.607-2.834,3.572-2.108,5.251-3.116-.7-4.426,1.778-1.461,3.691-3.132.671-1.711-2.215-1.985-2.632-3.291.341-3.878-3.818-3.969-6.633-4.406C549.528,422.947,550.386,425.693,552.343,426.17Zm-9.459-6.545c6.228,5.22,5.374-3.279,1.107-1.361C543.555,418.434,541.967,419.081,542.884,419.624Zm63.024,35.8c-3.223-.222-6.236,1.75-9.526,1.488-.687,5.64,6.557.635,9.352,1.238A1.369,1.369,0,0,0,605.907,455.427ZM726.8,493.218a17.361,17.361,0,0,1-10.979,8.01c-6.009,1.433-13.892.222-23.657-4.914a1.353,1.353,0,0,0-1.893,1.671c3.417,9.129,12.019.258,13.273,8.371a1.481,1.481,0,0,1-.024.528c-1.3,5.6-6.51,10-12.074,11.07-5.3,1.238-10.471-7.4-14.9-13.892a1.354,1.354,0,0,0-2.382,1.246c3.517,9.375,10.38,19.541,20.176,16.46a1.357,1.357,0,0,1,1.723,1.54,16.605,16.605,0,0,1-4.2,8.335H635.939a8.236,8.236,0,0,1-1.127-1.219,1.343,1.343,0,0,0-.651-.484c-6.644-2.175-15.313,3.691-21.378-1.155a1.328,1.328,0,0,1-.31-.341c-1.1-1.818-.115-4.632-1.52-6.156a1.168,1.168,0,0,0-.468-.3c-2.806-1.08-4.112-3-2.937-6.216,1.409-5.267.58-11.781,4.366-16.04a1.975,1.975,0,0,1,.242-.214c2.58-1.794,3.41-4.366,4.021-7.272a1.024,1.024,0,0,1,.107-.322c.683-1.322,3.029-3.068,4.184-2.473a1.381,1.381,0,0,0,.794.183c5.053-.718,20.5-7.22,20.374-.23a1.385,1.385,0,0,0,1.4,1.393c3.148.067,5.954,6.121,9.129,3.668a1.488,1.488,0,0,0,.457-.591c.73-1.834,1.778-3.66,4.084-3.342a1.286,1.286,0,0,1,.425.147c14,7.327,19.93-3.739,11.678-7.061a1.338,1.338,0,0,0-1.385.234c-1.484,1.373-4.342,2.076-4.95-.028a1.286,1.286,0,0,1,.107-.945c2.425-4.434,8.534-3.616,12.793-2.778a1.413,1.413,0,0,0,.77-.067c2.441-.976.929-2.905-1.135-3.509a1.012,1.012,0,0,1-.4-.191,2.381,2.381,0,0,1-.873-1.877,1.346,1.346,0,0,0-2.282-.889,2.31,2.31,0,0,1-1.357.794c-1.687.135-2.7-2.266-4.366-2.258-3.537.4-1.227,6.057-3.433,7.752a1.3,1.3,0,0,1-.822.242c-8.395-.19-3.846,2.517-2.8,4.8a1.318,1.318,0,0,1-.992,1.874c-1.127.123-1.929-1.373-1.957-2.779a1.353,1.353,0,0,0-.849-1.191c-1.484-.655-.611-5.855-6.807-7.911a1.357,1.357,0,0,0-1.52,2.088c1.191,1.588,3.648,2.747,4.283,4.565a2.564,2.564,0,0,1-.671,2.568,1.342,1.342,0,0,1-1.929-.135c-1.588-1.953-2.072-5.235-5.291-4.624a1.357,1.357,0,0,1-1.516-.75,7.145,7.145,0,0,0-2.588-3.06,1.377,1.377,0,0,0-1.639.091c-5.509,4.668-11.086,14.964-18.862,9.09-2.382-1.068-1.06-2.56,0-4a1.389,1.389,0,0,0,.262-.869c-.119-2.207-.294-4.489,2.858-4.108a2.094,2.094,0,0,1,.214.052c1.933.536,5.577,1.731,6-1.024a1.087,1.087,0,0,0,0-.4c-.258-1.29-2.052-1.985-2.822-2.969a1.314,1.314,0,0,1,.1-1.683c8.062-8.665,24.764-6.22,33.088-14.349a1.346,1.346,0,0,0-.746-2.306c-1.953-.222-3.731-1.552-3.791-3.271a1.346,1.346,0,0,0-2.477-.671,3.438,3.438,0,0,0-.075,3.624,1.33,1.33,0,0,1-.357,1.766c-3.572,2.572-3.648,7.613-8.538,1.449a1.341,1.341,0,0,0-1.032-.512c-12.987-.115.4-11.058,5.894-13.142,2.636-.949,22.942-1.7,22.14,1.941-.27.659-1.052.849-1.79,1.068a1.352,1.352,0,0,0-.2,2.524c1.985.794,5.378-1.191,6.716-3.3a1.361,1.361,0,0,1,1.651-.548,4.073,4.073,0,0,0,4.366-1.052,1.4,1.4,0,0,1,.7-.429c11.034-.083,14.44-1.957,15.369-4.41a1.544,1.544,0,0,1,.556-.04c1.167.147,2.3.345,3.406.583a126.332,126.332,0,0,1,18.7,29.587c.083.183.167.369.246.552.194.437.4.873.576,1.31.143.325.282.651.421.98s.3.71.445,1.068c.29.7.576,1.405.853,2.116.179.456.357.917.532,1.377a1.817,1.817,0,0,0,.075.206c.167.449.333.893.5,1.346.032.091.064.183.1.278.171.464.333.941.5,1.409s.337.976.5,1.469c.206.611.4,1.223.6,1.838.163.52.325,1.048.484,1.588.179.591.357,1.191.52,1.778.147.508.29,1.016.425,1.524.087.314.171.631.254.949a.8.8,0,0,1,.024.091c.056.21.111.425.163.639a.168.168,0,0,1,0,.064c.091.361.187.726.274,1.088l.071.294c.115.468.226.937.333,1.409C726.556,492.131,726.683,492.67,726.8,493.218Z" transform="translate(-476.542 -393.741)" fill="#2ec2ae"/>
      <path id="Path_43922" data-name="Path 43922" d="M967.591,522.6l-.322-.794-.417-.976c-.083-.194-.171-.4-.254-.576s-.214-.492-.326-.738c-.079-.183-.163-.369-.246-.552-.282-.623-.572-1.242-.861-1.862l-.262-.544c-.2-.429-.4-.853-.615-1.274l-.453-.913c-.147-.286-.29-.576-.437-.865l-.623-1.191-.274-.52c-.262-.492-.524-.98-.794-1.469-.036-.06-.067-.119-.1-.183A126.869,126.869,0,0,0,953,496.61a119.83,119.83,0,0,1,7.7,23.418,121.3,121.3,0,0,1,2.779,24.609v1.274c0,2.032-.044,4.049-.147,6.053a17.361,17.361,0,0,0,10.967-8.01c-.115-.548-.242-1.088-.369-1.627-.107-.472-.218-.941-.333-1.409l-.071-.294c-.087-.361-.183-.726-.274-1.088a.169.169,0,0,0,0-.064c-.052-.214-.107-.425-.163-.639a.8.8,0,0,0-.024-.091c-.083-.318-.167-.631-.254-.945-.135-.512-.278-1.02-.425-1.528-.163-.6-.341-1.191-.52-1.778-.159-.528-.322-1.056-.484-1.588-.194-.615-.4-1.226-.6-1.838-.163-.488-.33-.976-.5-1.469s-.329-.941-.5-1.409c-.036-.1-.067-.186-.1-.278-.163-.453-.329-.9-.5-1.346a1.82,1.82,0,0,1-.075-.206c-.179-.46-.357-.921-.532-1.377-.278-.711-.564-1.413-.849-2.116A1.885,1.885,0,0,1,967.591,522.6Z" transform="translate(-724.042 -444.49)" fill="#19a193"/>
    </g>
    <g id="Group_52352" data-name="Group 52352" transform="translate(1549.225 454.397)">
      <path id="Path_43923" data-name="Path 43923" d="M431.8,554.846l-.909-10.693-.306-4.06-.321-4.192a1.25,1.25,0,0,1,2.08-1.024l3.33,2.985,3.477,3.108,7.784,6.772h0l.361.318-.167.071.818,1.627-14.615,6.41-.794-1.635Z" transform="translate(-430.261 -534.56)" fill="#ffe3b3"/>
      <path id="Path_43924" data-name="Path 43924" d="M439.152,540.97l-3.477-3.108-3.33-2.985a1.25,1.25,0,0,0-2.08,1.024l.322,4.192.306,4.061a16.41,16.41,0,0,0,5.065-1.3A15.345,15.345,0,0,0,439.152,540.97Z" transform="translate(-430.261 -534.56)" fill="#16102c"/>
      <path id="Path_43925" data-name="Path 43925" d="M434.175,583.516l3.429,6.819a.27.27,0,0,0,.071.079l32.806,65.274L474.344,654l-35.783-71.18a2.728,2.728,0,0,0-2.779-.794C434.707,582.516,433.989,583.159,434.175,583.516Z" transform="translate(-432.604 -563.099)" fill="#ed9e00"/>
      <path id="Path_43926" data-name="Path 43926" d="M445.177,577.64l35.783,71.192,3.89-1.707L449.039,575.9v.036a2.747,2.747,0,0,0-2.779-.794A2.39,2.39,0,0,0,445.177,577.64Zm3.862-1.743,35.81,71.228,3.882-1.707-35.8-71.252a.152.152,0,0,0,.024.064,2.75,2.75,0,0,0-2.778-.794A2.426,2.426,0,0,0,449.039,575.9Z" transform="translate(-439.22 -557.921)" fill="#ffb300"/>
      <path id="Path_43927" data-name="Path 43927" d="M464.753,571.135l35.8,71.252,3.854-1.691-32.794-65.27a.3.3,0,0,0,0-.1l-3.429-6.823c-.187-.369-1.211-.286-2.282.183A2.4,2.4,0,0,0,464.753,571.135Z" transform="translate(-451.039 -554.889)" fill="#ffd212"/>
      <path id="Path_43928" data-name="Path 43928" d="M525.434,716.379a1.647,1.647,0,0,1-.46,2.092l.667,1.326a1.882,1.882,0,0,1,2.016,1,1.647,1.647,0,0,1-.464,2.092v.032l-.31.135h0L512,729.581h0l-.31.135-.02-.032a1.87,1.87,0,0,1-2.016-1,1.643,1.643,0,0,1,.464-2.088l-.667-1.326a1.885,1.885,0,0,1-2.02-1,1.647,1.647,0,0,1,.464-2.092l-.667-1.326a1.881,1.881,0,0,1-2.016-1,1.643,1.643,0,0,1,.46-2.092v-.032L502.5,711.4,518,704.61l3.175,6.315v.032a1.87,1.87,0,0,1,2.016,1,1.639,1.639,0,0,1-.46,2.088l.667,1.33A1.873,1.873,0,0,1,525.434,716.379Z" transform="translate(-473.827 -637.113)" fill="#544799"/>
    </g>
    <g id="Group_52353" data-name="Group 52353" transform="translate(1587.494 302.66)">
      <path id="Path_43918" data-name="Path 43918" d="M640.255,422.826a3.759,3.759,0,0,0-3.465-3.537c.556-1.31,2.453-1.1,3.763-1.643,2.409-1.012,2.8-4.731,5.263-5.593.953-.183,2.917-.683,2.147-1.985-11.939-4.569-20.668,2.477-30.035-.032-4.656-.1-13.19,3.271-14.968,6.585,4.1-1.552,8.732,1.377,5.839,5.775-5.089,8.391,3.044,18.171,9.288,7.542,2.608-3.525,7.1-3.1,10.784-4.184A10.811,10.811,0,0,1,640.255,422.826Z" transform="translate(-561.988 -304.045)" fill="#2ec2ae"/>
      <path id="Path_43920" data-name="Path 43920" d="M746.244,536.739a1.814,1.814,0,0,1-1.294-.1.937.937,0,0,1-.46-1.119,4.8,4.8,0,0,0-1.814.639c-.48.29-1.044.683-1.548.433a.984.984,0,0,1-.29-1.361,3.727,3.727,0,0,1,1.1-1.076,2.12,2.12,0,0,0,.893-1.222c.067-.437-.1-.937.147-1.3.3-.437.957-.361,1.473-.234l3.021.746c.7.175,2.155.695,1.627,1.683a6.585,6.585,0,0,1-1.477,2.219A3.382,3.382,0,0,1,746.244,536.739Z" transform="translate(-645.051 -378.112)" fill="#2ec2ae"/>
      <path id="Path_43937" data-name="Path 43937" d="M575.734,227.037c-18.366,9.625-17.163,24.657-25.915,41.443-5.974,8.641-20.1,11.685-20.529,23.2,6.6-8.022,14.154-12.459,24.478-15.512-9.042,5.557-11.114,8.022-17.068,13.555-11.789,10.923-14.686,30.9-4.727,46.44-1.159-6.121,2.052-10.852,2.778-12.3,1.8,13,12.614,20.858,24.72,22.132,22.033,3.449,44.586,3.818,65.941-2.723,5.688-1.631,7.565,2.588,19.62-5.7,6.478-4.489,6.061-18.5,6.061-18.5,3.636,2.477,2.382,12.515,1.234,17.187,15.921-17.735,16.377-33.488-4.156-51.453s-6.351-32.881-19.267-49.409c-6.327-8.1-19.608-8.335-23.343-5.343C602.844,223.869,584.506,222.437,575.734,227.037Z" transform="translate(-515.536 -192.984)" fill="#692512"/>
      <path id="Path_43938" data-name="Path 43938" d="M691.981,483.718l-7.268-2.711-23.252-.147-8.879,2.306s-4.426,28.876,17.465,31.206S691.981,483.718,691.981,483.718Z" transform="translate(-591.694 -347.691)" fill="#ffb787"/>
      <path id="Path_43939" data-name="Path 43939" d="M593.231,484.4s-18.1-1.147-31.29,24.816c-4.795,9.443-2.957,16.175-2.957,16.175l17.917,17.23s13.5,1.1,17.385-15.083S593.231,484.4,593.231,484.4Zm43.161,1.528s18.1-2.719,31.313,23.228c4.807,9.439,2.977,16.171,2.977,16.171l-17.9,17.258s-13.5,1.111-17.405-15.043S636.392,485.927,636.392,485.927Z" transform="translate(-535.259 -349.82)" fill="#ff516c"/>
      <path id="Path_43940" data-name="Path 43940" d="M651.267,578.893c-17.822-1.985-27.241-10.272-25.864-12.3a12.7,12.7,0,0,0,1.266-2.167c10.507-28.817-19.378-41.359,4.581-80.1a6.427,6.427,0,0,1,3.6.568c-2.187,22.256,18.834,7.486,18.834,7.486s21.4,12.511,19.144-6.982c-.147-.46,2.675-.183,3.4.429.528,3.473,3.7,8.077,5.41,12.154,14.686,35.112,2.068,37.867,1.77,50.433a26.307,26.307,0,0,0,4.45,15.786,28.889,28.889,0,0,0,2.469,3.286C692.249,569.72,679.178,581.993,651.267,578.893Z" transform="translate(-573.278 -349.748)" fill="#ff516c"/>
      <path id="Path_43941" data-name="Path 43941" d="M679.457,480.891s14.019.3,13.186,4.481c-.568,2.87-11.757,13.622-16.925,12.745a14.591,14.591,0,0,1-8.335-5.049s-5.99,6.18-11.249,5.116-13.1-12.7-11.908-14.861,12.864-2.5,12.864-2.5,2.723,7.168,10.673,7.351A11.962,11.962,0,0,0,679.457,480.891Z" transform="translate(-586.802 -347.668)" fill="#fff"/>
      <ellipse id="Ellipse_2062" data-name="Ellipse 2062" cx="5.978" cy="3.235" rx="5.978" ry="3.235" transform="translate(128.903 194.342) rotate(-35.94)" fill="#ffb787"/>
      <ellipse id="Ellipse_2063" data-name="Ellipse 2063" cx="3.235" cy="5.978" rx="3.235" ry="5.978" transform="translate(16.057 192.499) rotate(-54.06)" fill="#ffb787"/>
      <path id="Path_43942" data-name="Path 43942" d="M700.349,543.873A18.441,18.441,0,0,1,712.027,532.9c9.129-2.953,24.054-10.832,24.054-10.832a51.789,51.789,0,0,0,20.215,4.323s-52.43,21.7-55.966,22.406S700.349,543.873,700.349,543.873Z" transform="translate(-619.765 -372.544)" fill="#fff"/>
      <path id="Path_43943" data-name="Path 43943" d="M734.732,530.051c3.1-1.425,6.259-2.874,9.463-4.43-.361-.123-.706-.238-1.032-.361-2.957,1.433-5.886,2.779-8.752,4.092-11.836,5.446-22.061,10.145-29.11,17.8l.56.524C712.81,540.129,722.967,535.477,734.732,530.051Zm15.758-2.735c-2.024.877-4.2,1.826-6.486,2.806-20.612,8.883-36.442,15.849-37.263,17.937a.619.619,0,0,0,0,.508l.706-.306a.312.312,0,0,1,0,.068c.679-1.909,22.43-11.281,36.85-17.5l7.542-3.251C751.379,527.495,750.93,527.407,750.49,527.316Z" transform="translate(-623.707 -374.469)" fill="#e1dfed"/>
      <path id="Path_43944" data-name="Path 43944" d="M609.8,543.873A18.429,18.429,0,0,0,598.129,532.9c-9.129-2.953-24.054-10.832-24.054-10.832a51.748,51.748,0,0,1-20.215,4.338s52.426,21.7,55.942,22.406S609.8,543.873,609.8,543.873Z" transform="translate(-532.377 -372.544)" fill="#fff"/>
      <path id="Path_43945" data-name="Path 43945" d="M592.133,530.051c-3.1-1.425-6.26-2.874-9.463-4.43.361-.123.707-.238,1.032-.361,2.957,1.433,5.886,2.779,8.732,4.092,11.836,5.446,22.061,10.145,29.114,17.8l-.564.524C614.055,540.129,603.9,535.477,592.133,530.051Zm-15.758-2.735c2.024.877,4.207,1.826,6.486,2.806,20.612,8.883,36.442,15.849,37.267,17.937a.651.651,0,0,1,0,.508l-.711-.306a.328.328,0,0,0,0,.068c-.679-1.909-22.43-11.281-36.846-17.5l-7.542-3.251Q575.715,527.453,576.376,527.316Z" transform="translate(-545.144 -374.469)" fill="#c3bedb"/>
      <ellipse id="Ellipse_2064" data-name="Ellipse 2064" cx="7.149" cy="6.005" rx="7.149" ry="6.005" transform="translate(71.864 170.32)" fill="#544799"/>
      <path id="Path_43946" data-name="Path 43946" d="M601.735,551.6,551.584,532.99l-1.524,1.219,4.958,68.66,46.718,16.353Z" transform="translate(-530.086 -379.131)" fill="#544799"/>
      <path id="Path_43947" data-name="Path 43947" d="M717.36,551.6l50.151-18.612,1.524,1.219-4.958,68.66L717.36,619.222Z" transform="translate(-630.98 -379.131)" fill="#544799"/>
      <path id="Path_43948" data-name="Path 43948" d="M737.2,585.453a.4.4,0,0,0,.131-.024l35.481-12.5a.4.4,0,1,0-.254-.726l-35.485,12.5a.4.4,0,0,0,.127.75Zm35.358-7-35.485,12.5a.386.386,0,0,0,.127.75.5.5,0,0,0,.131-.02l35.481-12.507a.4.4,0,1,0-.254-.726Zm0,6.252L737.075,597.21a.385.385,0,0,0,.258.726l35.481-12.507a.4.4,0,1,0-.254-.726Z" transform="translate(-642.716 -402.736)" fill="#fff"/>
      <path id="Path_43949" data-name="Path 43949" d="M680.25,579.88V647.5a15.8,15.8,0,0,0,14.73,0V579.88a17.242,17.242,0,0,1-14.73,0Z" transform="translate(-608.6 -407.408)" fill="#302977"/>
      <ellipse id="Ellipse_2065" data-name="Ellipse 2065" cx="7.28" cy="3.624" rx="7.28" ry="3.624" transform="translate(15.755 195.831) rotate(-7.64)" fill="#ffb787"/>
      <ellipse id="Ellipse_2066" data-name="Ellipse 2066" cx="7.28" cy="3.624" rx="7.28" ry="3.624" transform="translate(16.386 200.566) rotate(-7.64)" fill="#ffb787"/>
      <ellipse id="Ellipse_2067" data-name="Ellipse 2067" cx="7.28" cy="3.624" rx="7.28" ry="3.624" transform="translate(17.022 205.301) rotate(-7.64)" fill="#ffb787"/>
      <ellipse id="Ellipse_2068" data-name="Ellipse 2068" cx="7.28" cy="3.624" rx="7.28" ry="3.624" transform="matrix(0.99, -0.141, 0.141, 0.99, 16.499, 210.478)" fill="#ffb787"/>
      <path id="Path_43950" data-name="Path 43950" d="M557.608,658.781A54.144,54.144,0,0,0,546.45,660.2c-.425.1-.326.857.1.758a54.228,54.228,0,0,1,11.161-1.421C558.148,659.527,558.04,658.769,557.608,658.781Zm-.615-4.581a54.212,54.212,0,0,0-11.157,1.417c-.421.1-.326.857.1.758a54.22,54.22,0,0,1,11.161-1.421C557.532,654.931,557.429,654.189,556.993,654.2Zm-.611-4.58a54.227,54.227,0,0,0-11.161,1.421c-.421.1-.322.853.1.754a54.459,54.459,0,0,1,11.158-1.421C556.917,650.366,556.814,649.612,556.381,649.62Z" transform="translate(-527.004 -449.466)" fill="#f07e54"/>
      <ellipse id="Ellipse_2069" data-name="Ellipse 2069" cx="3.624" cy="7.28" rx="3.624" ry="7.28" transform="translate(127.313 201.107) rotate(-82.36)" fill="#ffb787"/>
      <ellipse id="Ellipse_2070" data-name="Ellipse 2070" cx="3.624" cy="7.28" rx="3.624" ry="7.28" transform="translate(126.678 205.842) rotate(-82.36)" fill="#ffb787"/>
      <ellipse id="Ellipse_2071" data-name="Ellipse 2071" cx="3.624" cy="7.28" rx="3.624" ry="7.28" transform="translate(126.044 210.579) rotate(-82.36)" fill="#ffb787"/>
      <ellipse id="Ellipse_2072" data-name="Ellipse 2072" cx="3.624" cy="7.28" rx="3.624" ry="7.28" transform="translate(125.409 215.314) rotate(-82.36)" fill="#ffb787"/>
      <path id="Path_43951" data-name="Path 43951" d="M821.223,658.781a54.212,54.212,0,0,1,11.161,1.417c.421.1.322.857-.1.758a54.222,54.222,0,0,0-11.157-1.421C820.687,659.527,820.79,658.769,821.223,658.781Zm.615-4.581A54.152,54.152,0,0,1,833,655.617c.425.1.326.857-.1.758a54.219,54.219,0,0,0-11.161-1.421C821.3,654.931,821.405,654.189,821.838,654.2Zm.611-4.58a54.222,54.222,0,0,1,11.157,1.421c.421.1.326.853-.1.754a54.5,54.5,0,0,0-11.161-1.421C821.913,650.366,822.017,649.612,822.449,649.62Z" transform="translate(-693.388 -449.466)" fill="#f07e54"/>
      <path id="Path_43952" data-name="Path 43952" d="M698.762,453.3a28.8,28.8,0,0,1-23.252-.147c6.533-7.327,1.7-18.239,1.7-18.239l9.86,1.191,9.859-1.191S692.042,445.968,698.762,453.3Z" transform="translate(-605.742 -319.98)" fill="#ffb787"/>
      <path id="Path_43953" data-name="Path 43953" d="M690.488,446.98c4.132-.218,6.351-1.953,7.712-4.68a24.076,24.076,0,0,1,1.425-6.656,2.223,2.223,0,0,0-.345-.564l-9.264,1.1-6.259-.738-3.366.163A24.3,24.3,0,0,1,681.8,441.8C683.855,444.574,686.8,447.178,690.488,446.98Z" transform="translate(-608.684 -320.083)" fill="#f07e54"/>
      <path id="Path_43954" data-name="Path 43954" d="M682.156,295.395c1.258-16.576-13.3-37.025-27.705-41.2l-19.683,14.138c-12.063,2.814-18.393,13.912-21.466,29.73,0,0-4.434,19.386,15.964,29.13a42.669,42.669,0,0,0,39.228-1.508C688.066,314.391,682.156,295.395,682.156,295.395Z" transform="translate(-567.98 -210.992)" fill="#ffb787"/>
      <path id="Path_43955" data-name="Path 43955" d="M611.636,260.8c-6.573,6.406-9.2,30.373-5.525,35.374,0,0,5.6-9.756,7.7-10.681,2.906-1.282,4.315-4.406,5.073-6.8l2.167-6.823-.036,10.57,10.7-.23,1.671-7.1s.881,6.514,1.7,6.688,11.011-.024,11.011-.024.079-11.451-.266-15.357c0,0,3.386,12.436,3.6,15.083,0,.143,7.966,1.238,8.01.286s1.036-7.49,1.036-7.49l4.6,8.157c12.3,0,16.933,12.94,16.933,12.94s.159-33.429-18.417-41.991C650,248.055,624.29,248.463,611.636,260.8Z" transform="translate(-562.881 -208.549)" fill="#692512"/>
      <path id="Path_43956" data-name="Path 43956" d="M625.38,349.887a12.285,12.285,0,0,1,2.2-2.235.584.584,0,0,0,.068.314.845.845,0,0,1,.54-.794,1.1,1.1,0,0,0-.071.31,5.342,5.342,0,0,1,2.1-1.532c1.409-.6,1.79-.726,1.79-.726l-.163.4a6.525,6.525,0,0,1,1.719-.794c1.024-.258,6.887-.4,9.558.841a.647.647,0,0,1,.4.675l-.111.861a.925.925,0,0,1-1.242.647C638.423,346.6,630.473,347.172,625.38,349.887Zm61.146,0a12.37,12.37,0,0,0-2.2-2.235.6.6,0,0,1-.071.314.838.838,0,0,0-.54-.794,1.107,1.107,0,0,1,.071.31,5.343,5.343,0,0,0-2.1-1.532c-1.405-.6-1.79-.726-1.79-.726l.163.4a6.537,6.537,0,0,0-1.715-.794c-1.028-.258-6.887-.4-9.562.841a.651.651,0,0,0-.4.675l.115.861a.921.921,0,0,0,1.238.647C673.483,346.6,681.434,347.172,686.526,349.887Z" transform="translate(-575.509 -265.547)" fill="#54180a"/>
      <path id="Path_43957" data-name="Path 43957" d="M598.894,352.794s-4.247-7.8-9.129-3.969-3.318,14.619,9.991,12.36Z" transform="translate(-552.501 -267.426)" fill="#ffb787"/>
      <path id="Path_43958" data-name="Path 43958" d="M600.64,355.16s5.557,1.5,3.914,7.2c0,0-.984-3.417-1.985-3.239a3.08,3.08,0,0,0-1.707,1.342,4.075,4.075,0,0,1,.528-1.9,2.469,2.469,0,0,0-.2-3.017A1.684,1.684,0,0,0,600.64,355.16Z" transform="translate(-560.589 -271.885)" fill="#f07e54"/>
      <path id="Path_43959" data-name="Path 43959" d="M785.875,345.515s3.636-8.1,8.812-4.676,4.434,14.325-9.006,13.1Z" transform="translate(-672.182 -262.74)" fill="#ffb787"/>
      <path id="Path_43960" data-name="Path 43960" d="M735.96,347.42s-5.41,1.921-3.354,7.486c0,0,.722-3.489,1.755-3.39a2.982,2.982,0,0,1,1.8,1.211,4.064,4.064,0,0,0-.671-1.854,2.469,2.469,0,0,1-.028-3.025A1.647,1.647,0,0,1,735.96,347.42Zm-36.485,19.128a5.351,5.351,0,0,1-3.763.155,5.2,5.2,0,0,1-2.973-2.485s-.627,2.334,2.7,3.485a3.8,3.8,0,0,0,4.037-1.155Z" transform="translate(-616.104 -267.217)" fill="#f07e54"/>
      <path id="Path_43961" data-name="Path 43961" d="M680.056,409.65s-.77,8.978,6.66,10c9.923,1.369,10.792-8.911,10.792-8.911S687.291,414.7,680.056,409.65Z" transform="translate(-608.469 -304.746)" fill="#801d1d"/>
      <path id="Path_43962" data-name="Path 43962" d="M690.686,425.01c-3.572-1.739-5.37-.73-6.236.437a6.879,6.879,0,0,0,4.93,2.905c3.5.484,5.87-.484,7.474-1.937C695.349,423.208,690.686,425.01,690.686,425.01Z" transform="translate(-611.133 -313.447)" fill="#ff7878"/>
      <path id="Path_43963" data-name="Path 43963" d="M698.536,412.983c-2.909.774-8.693,1.782-13.686-.583a4.2,4.2,0,0,0,.643,2.1c2.028,1.7,9.09,1.754,11.336,1A3.119,3.119,0,0,0,698.536,412.983Z" transform="translate(-611.375 -306.406)" fill="#fff"/>
      <ellipse id="Ellipse_2073" data-name="Ellipse 2073" cx="4.541" cy="5.184" rx="4.541" ry="5.184" transform="translate(57.42 87.185)" fill="#16102c"/>
      <path id="Path_43964" data-name="Path 43964" d="M643.97,365.29l-1.881,4.366c-.885-2.7-5.089-.48-4.342-1.739A19.117,19.117,0,0,1,643.97,365.29Z" transform="translate(-582.914 -277.995)" fill="#16102c"/>
      <ellipse id="Ellipse_2074" data-name="Ellipse 2074" cx="0.695" cy="1.103" rx="0.695" ry="1.103" transform="translate(62.398 89.943)" fill="#fcfdff"/>
      <ellipse id="Ellipse_2075" data-name="Ellipse 2075" cx="4.541" cy="5.184" rx="4.541" ry="5.184" transform="translate(93.353 87.185)" fill="#16102c"/>
      <path id="Path_43965" data-name="Path 43965" d="M748.64,365.29l1.881,4.366c.885-2.7,5.093-.48,4.366-1.739A19.487,19.487,0,0,0,748.64,365.29Z" transform="translate(-649.845 -277.995)" fill="#16102c"/>
      <ellipse id="Ellipse_2076" data-name="Ellipse 2076" cx="0.695" cy="1.103" rx="0.695" ry="1.103" transform="translate(96.068 89.943)" fill="#fcfdff"/>
      <ellipse id="Ellipse_2077" data-name="Ellipse 2077" cx="7.407" cy="4.382" rx="7.407" ry="4.382" transform="translate(91.698 100.522)" fill="url(#radial-gradient)"/>
      <ellipse id="Ellipse_2078" data-name="Ellipse 2078" cx="7.407" cy="4.382" rx="7.407" ry="4.382" transform="translate(53.65 100.522)" fill="url(#radial-gradient-2)"/>
      <path id="Path_43971" data-name="Path 43971" d="M588.6,219.972c.58,1.846,4.592,2.433,10.673,1.9a127.845,127.845,0,0,0,25.4-5.533c18.7-5.867,32.9-13.738,31.69-17.6a1.754,1.754,0,0,0-.2-.4l.111-.111L645.068,171.4,582.41,191.016q3.056,14.214,6.1,28.432h0a1.635,1.635,0,0,0,.087.524Z" transform="translate(-549.595 -161.064)" fill="#292870"/>
      <path id="Path_43972" data-name="Path 43972" d="M588.628,244.571c.579,1.846,4.592,2.433,10.673,1.9a93.88,93.88,0,0,1-3.822-11.562C594.042,228.42,610.7,212.19,610.7,212.19l-26.951,3.025-1.286.4q3.056,14.214,6.1,28.432h0A1.635,1.635,0,0,0,588.628,244.571Z" transform="translate(-549.625 -185.663)" fill="#1b1b59"/>
      <path id="Path_43973" data-name="Path 43973" d="M630.02,145.36l-53.176,27.971-60.154,7.522,53.184-28.864Z" transform="translate(-509.961 -145.36)" fill="#544799"/>
      <path id="Path_43975" data-name="Path 43975" d="M563.583,182.1c-.262-.841-1.48-1.215-2.715-.826s-2.024,1.385-1.758,2.227a1.132,1.132,0,0,0,.155.31,32.611,32.611,0,0,1-12.983,8.05c-5.7,1.858-11.856,1.774-17.433,4.041a16.167,16.167,0,0,0-6.383,4.418,14.94,14.94,0,0,0-3.052,6.918c-.972,5.16-.27,10.923-2.886,15.663a12.666,12.666,0,0,1-16.028,5.616c-.734-.3-1.1.885-.361,1.191a14.031,14.031,0,0,0,15.587-3.572,15.3,15.3,0,0,0,3.485-7.117,68.013,68.013,0,0,0,.937-8.022A20.936,20.936,0,0,1,522,203.23a12.872,12.872,0,0,1,5.525-5.355c5.426-2.894,11.765-2.778,17.584-4.366a33.782,33.782,0,0,0,15.258-9.062,3.017,3.017,0,0,0,1.449-.107C563.059,183.943,563.849,182.947,563.583,182.1Z" transform="translate(-499.737 -166.927)" fill="#ffb300"/>
    </g>
  </g>
</svg>
