<svg xmlns="http://www.w3.org/2000/svg" width="50" height="50" viewBox="0 0 50 50">
  <g id="Group_51800" data-name="Group 51800" transform="translate(-457.5 -225.39)">
    <circle id="Ellipse_1720" data-name="Ellipse 1720" cx="25" cy="25" r="25" transform="translate(457.5 225.39)" fill="#70adfd"/>
    <g id="Class_1_" transform="translate(468.4 235.856)">
      <path id="Path_46309" data-name="Path 46309" d="M26.878,19.22h-.507V4.327a1.8,1.8,0,0,0-1.794-1.794H4.2A1.8,1.8,0,0,0,2.41,4.327V19.22H1.9a.8.8,0,0,0,0,1.606H13.588V24.95h-.616a.8.8,0,1,0,0,1.606H15.81a.8.8,0,1,0,0-1.606h-.617V20.825H26.878a.8.8,0,0,0,0-1.606ZM4.015,4.327A.188.188,0,0,1,4.2,4.139H24.577a.187.187,0,0,1,.188.187V19.22H4.015Z" transform="translate(0 0)" fill="#423739" stroke="#423739" stroke-width="0.4"/>
      <path id="Path_46310" data-name="Path 46310" d="M18.159,14.526a4.228,4.228,0,1,0-5.436,0,4.129,4.129,0,0,0-1.776,1.507.8.8,0,0,0,1.367.841,3.675,3.675,0,0,1,3.125-1.332,3.675,3.675,0,0,1,3.125,1.332.8.8,0,0,0,.685.383.792.792,0,0,0,.419-.12.8.8,0,0,0,.263-1.1A4.107,4.107,0,0,0,18.159,14.526Zm-5.34-3.212a2.622,2.622,0,1,1,2.622,2.621A2.625,2.625,0,0,1,12.819,11.314Z" transform="translate(-1.051 -0.492)" fill="#423739" stroke="#423739" stroke-width="0.4"/>
    </g>
  </g>
</svg>
