<svg xmlns="http://www.w3.org/2000/svg" width="19.851" height="19.926" viewBox="0 0 19.851 19.926">
  <g id="Group_75" data-name="Group 75" transform="translate(0 0.075)">
    <circle id="Ellipse_24" data-name="Ellipse 24" cx="4.5" cy="4.5" r="4.5" transform="translate(4.425 0.425)" fill="none" stroke="#30C768" stroke-linecap="round" stroke-linejoin="round" stroke-width="1"/>
    <path id="Path_146" data-name="Path 146" d="M14.32,18.778H21.7a4.244,4.244,0,0,1-.41-1.639A4.234,4.234,0,0,1,21.7,15.5H14.32a.82.82,0,0,0-.82.82v1.639A.82.82,0,0,0,14.32,18.778Zm6.967-1.639H15.549M14.32,22.057H21.7a4.244,4.244,0,0,1-.41-1.639,4.234,4.234,0,0,1,.41-1.639H14.32a.82.82,0,0,0-.82.82v1.639A.82.82,0,0,0,14.32,22.057Zm6.967-1.639H15.549" transform="translate(-2.345 -2.706)" fill="none" stroke="#30C768" stroke-linecap="round" stroke-linejoin="round" stroke-width="1"/>
    <path id="Path_147" data-name="Path 147" d="M15.583,15.139A15.1,15.1,0,0,0,9.106,13.5a15.361,15.361,0,0,0-6.811,1.8A3.288,3.288,0,0,0,.5,18.228v.6a1.229,1.229,0,0,0,1.229,1.229h9.426" transform="translate(0 -2.345)" fill="none" stroke="#30C768" stroke-linecap="round" stroke-linejoin="round" stroke-width="1"/>
  </g>
</svg>
