<svg xmlns="http://www.w3.org/2000/svg" width="381.104" height="250.844" viewBox="0 0 381.104 250.844">
  <g id="_224768696_c6d520be-bcd5-4bb1-ac0e-caf95c328f29" data-name="224768696_c6d520be-bcd5-4bb1-ac0e-caf95c328f29" transform="translate(0 0)">
    <path id="Path_45893" data-name="Path 45893" d="M1548.8,306.592l.038-.132a17.128,17.128,0,0,1,2.721-3.288l10.487-11.753,3.288-3.817a12.23,12.23,0,0,1,1.493-1.757,2.784,2.784,0,0,1,.7-.246,29.706,29.706,0,0,0,2.532,2.135,11.583,11.583,0,0,1-1.927,2.381l-3.514,3.855L1551.048,308.9Z" transform="translate(-1323.487 -269.058)" fill="#c63140"/>
    <path id="Path_45897" data-name="Path 45897" d="M1568.2,327.109c2.608-2.532,18.4-20.633,19.141-20.709l5.82,5.423L1580.368,325.9c-1.89,2.1-3.836,4.743-5.99,6.557a7.028,7.028,0,0,1-1.077-.51A21.772,21.772,0,0,0,1568.2,327.109Z" transform="translate(-1339.221 -285.928)" fill="#c63140"/>
    <path id="Path_45898" data-name="Path 45898" d="M1532.038,255.987l1.474-1.587c1.908,1.927,4.138,4.4,6.519,5.725v.151a2.786,2.786,0,0,0-.7.246,15.21,15.21,0,0,0-1.493,1.757l-3.288,3.817-10.487,11.753a17.119,17.119,0,0,0-2.721,3.288l-.038.132h-.189a12.813,12.813,0,0,0-1.927-1.852l-4.289-3.722c.189-1.039,2.8-3.477,3.609-4.4Z" transform="translate(-1295.993 -243.753)" fill="#ec605f"/>
    <path id="Path_45909" data-name="Path 45909" d="M1955.646,1071.4l.718.038c.624,1.568-4.006,14.908-4.8,17.308a19.762,19.762,0,0,0-1.247,3.741l-.51,1.077-7.482,16.854-.472.812a123.858,123.858,0,0,1-9.977,16.855,13.79,13.79,0,0,1-1.984,2.721l-.661.888a92.064,92.064,0,0,1-13.548,15.513l-1,.926-9.485,7.766-12.943.057a48.512,48.512,0,0,0-6.632-.019l-16.061-.057a32.3,32.3,0,0,1-5.574.019l-.34-3.722-.567-5.291-1.417-13.548-.453-5.385-.3-3.477-.3-2.891-.246-1.908a15.121,15.121,0,0,0-.567-3.042l.094-.17-.585-4.1,1.852.057,6.953.076,1.776.019,1,.019h9.806l2.778.076,8.805-.057,2.23-.038a22.6,22.6,0,0,1,1.3-3.911l2.589-7.728a22.393,22.393,0,0,0,1.247-4.629l.227-3.571,5.026-3.439,1-.661,14.172-7.331.51-.283,14.53-5.026.945-.34,1.209-.245Z" transform="translate(-1575.318 -905.38)" fill="#2e9d4f"/>
    <path id="Path_45910" data-name="Path 45910" d="M2250.469,1075.33l18.4-3.93-23.373,20.558,3.76-16.382Z" transform="translate(-1888.545 -905.66)" fill="#b5ce59"/>
    <path id="Path_45911" data-name="Path 45911" d="M2244.754,1071.6c.624,1.568-4.006,14.908-4.8,17.308a19.766,19.766,0,0,0-1.248,3.741l-23.808,5.782c1.946-2.078,4.1-3.741,6.2-5.631l15.966-14.134,4.875-4.138a10.7,10.7,0,0,0,2.74-2.8Z" transform="translate(-1863.727 -905.802)" fill="#b5ce59"/>
    <path id="Path_45912" data-name="Path 45912" d="M2049.144,1169.239l5.026-3.439-1.568,19.613-.643,9.618a13.641,13.641,0,0,1-.3,3.212,9.642,9.642,0,0,1-1.247,1.568l-3.023,3.874-3.987,5.952v-.51c.132-3.722.756-7.5,1.058-11.224.094-1.19-.095-3.8.453-4.7.189-.321,1.36-.076,1.852-.529v-3.609l-2.967.038a22.658,22.658,0,0,1,1.3-3.911l2.589-7.728a22.414,22.414,0,0,0,1.247-4.629Z" transform="translate(-1724.632 -981.943)" fill="#b5ce59"/>
    <path id="Path_45913" data-name="Path 45913" d="M2169.693,1100.326l14.531-5.026-2.967,12.584c-.264,1.1-.472,3.326-1,4.233a9.78,9.78,0,0,1-1.455,1.3l-4.063,3.685-8.238,7.747,2.475-17.478c.3-2.135,1.02-4.554,1-6.67Z" transform="translate(-1824.472 -924.994)" fill="#b5ce59"/>
    <path id="Path_45914" data-name="Path 45914" d="M2095.824,1130.731,2110,1123.4l-2.721,17.743-.68,5.631a7.637,7.637,0,0,1-.189,1.814,9.814,9.814,0,0,1-1.171,1.172l-2.967,2.985a107.062,107.062,0,0,0-8.767,9.731l1.266-17.931.7-8.654C2095.56,1134.189,2095.862,1132.451,2095.824,1130.731Z" transform="translate(-1765.266 -947.554)" fill="#b5ce59"/>
    <path id="Path_45915" data-name="Path 45915" d="M2148.09,1188.7l-7.483,16.854c-1.927-.057-4.5.832-6.405,1.228l-30.4,7.709a196.747,196.747,0,0,1,14.266-14.908c1.436-1.417,3.25-3.609,4.95-4.554a25.539,25.539,0,0,1,4.913-1.682A193.471,193.471,0,0,1,2148.09,1188.7Z" transform="translate(-1773.619 -1000.516)" fill="#b5ce59"/>
    <path id="Path_45916" data-name="Path 45916" d="M2070.578,1390.5a92.032,92.032,0,0,1-13.548,15.513l-1,.926-9.485,7.766-12.943.057.586-7.652.132-1.153.774-11.28Z" transform="translate(-1716.684 -1164.185)" fill="#b5ce59"/>
    <path id="Path_45917" data-name="Path 45917" d="M2036.651,1471.763l15.947-.019a42.516,42.516,0,0,1,6.765.076l-1,.926-21.862.151Z" transform="translate(-1719.035 -1229.992)" fill="#2e9d4f"/>
    <path id="Path_45918" data-name="Path 45918" d="M2055.928,1477.5l-9.485,7.766-12.943.057.586-7.653Z" transform="translate(-1716.602 -1234.747)" fill="#b5ce59"/>
    <path id="Path_45919" data-name="Path 45919" d="M2079.268,1301.856c-2.91-.019-5.99.529-8.881.794l-26.888,3.1,3.893-5.876c1.587-2.267,3.364-4.4,5.121-6.538a3.6,3.6,0,0,1,3.476-2.343l4.252-1.152,31.007-7.539a123.964,123.964,0,0,1-9.977,16.854A17.315,17.315,0,0,1,2079.268,1301.856Z" transform="translate(-1724.712 -1076.43)" fill="#b5ce59"/>
    <path id="Path_45920" data-name="Path 45920" d="M1860.871,1288.176l6.953.076,1.776.019,1,.019h9.807l2.777.076,8.805-.057,2.23-.038,2.966-.038v3.609c-.491.453-1.663.208-1.851.529-.548.907-.359,3.514-.454,4.7-.3,3.722-.926,7.5-1.058,11.224v.51l-.378,2.8-.775,11.28-.132,1.152-.586,7.653a48.547,48.547,0,0,0-6.632-.019l-16.061-.057a32.245,32.245,0,0,1-5.574.019l-.34-3.722-.567-5.291-1.417-13.548-.454-5.385-.3-3.477-.3-2.891-.246-1.909a15.153,15.153,0,0,0-.567-3.042l.095-.17-.586-4.1Z" transform="translate(-1575.074 -1081.134)" fill="#46c7e0"/>
    <path id="Path_45921" data-name="Path 45921" d="M1900.058,1320.171a4.477,4.477,0,0,1,1.323.189c.246.246.661.548.775.888.7,2.324.359,5.9.453,8.37l.6,12.943c.057,1.077.453,3.4-.038,4.308a2.494,2.494,0,0,1-1.795.661,1.018,1.018,0,0,1-.4-.094,1.732,1.732,0,0,1-.793-.85c-.51-1.549-.4-3.741-.548-5.4-.189-2.059-1.984-18.706-1.587-19.424A3.023,3.023,0,0,1,1900.058,1320.171Z" transform="translate(-1606.704 -1107.14)" fill="#8beff6"/>
    <path id="Path_45922" data-name="Path 45922" d="M1860.871,1288.338l6.953.076,1.776.019,1,.019h9.806l2.778.076,8.805-.057,2.23-.038,2.966-.038V1292c-.491.453-1.663.208-1.852.529-.548.907-.359,3.514-.453,4.7-.3,3.722-.926,7.5-1.058,11.224v.51l-.378,2.8-.775,11.28-.132,1.153-.586,7.653a48.53,48.53,0,0,0-6.632-.019l-16.061-.057a22.379,22.379,0,0,1,4.591-1.153c3.515-.7,6.972-1.417,9.674-3.93,4.951-4.592,5.593-12.7,6.292-19.009l1.077-15.229a4.38,4.38,0,0,0-1.8-.132l-5.045.019-24.469.057-.586-4.1Z" transform="translate(-1575.075 -1081.297)" fill="#2ba8c6"/>
    <path id="Path_45924" data-name="Path 45924" d="M1132.024,1490a13.724,13.724,0,0,1,4.762.68l9.259,2.419a25.783,25.783,0,0,1,4.7,1.663l.567.472c-1.833.548-4.648.189-6.576.189l-13.793-.019-21.068.019c-3.25,0-7.1.4-10.279-.189a8.02,8.02,0,0,0,2.173-1.247c2.022-.756,4.554-.775,6.689-1.077l18.328-2.286Z" transform="translate(-959.164 -1244.846)" fill="#fefefe"/>
    <path id="Path_45925" data-name="Path 45925" d="M1473.962,1497.3l5.669.057a27.254,27.254,0,0,0,5.12.208l9.089.038,35.806-.038,10.846-.038a45.859,45.859,0,0,1,5.347.038l.34,3.722-78.679-.113.132-.208c.34-.51,1.625-.813,2.192-1.115C1471.09,1499.171,1472.564,1497.6,1473.962,1497.3Z" transform="translate(-1257.549 -1250.806)" fill="#353f9c"/>
    <path id="Path_45926" data-name="Path 45926" d="M1531.252,1286.828l.265-.321,23.676-.057,9.485-.038c1.417,0,3.212-.208,4.554.283l.586,4.1-.094.17a16.592,16.592,0,0,1,.567,3.042l.246,1.908.3,2.891.3,3.477.454,5.385,1.417,13.548.567,5.291a38.772,38.772,0,0,0-5.347-.038l-10.846.038-35.806.038-9.089-.038a27.191,27.191,0,0,1-5.121-.208l-5.669-.057c.3-1.19,1.757-2.381,2.267-3.685l.057-.17.227-.661c.737-2.532-.34-4.025-1.474-6.1l10.166-5.612L1517,1307.5l6.783-5.234,3.439-3.7a19.533,19.533,0,0,1,1.625-2.437l2.381-.038a4.12,4.12,0,0,0-1.474-.85c-.283-.094-.246-.151-.4-.4l.453-1,.718-2.7.132-.208A18.982,18.982,0,0,0,1531.252,1286.828Z" transform="translate(-1285.287 -1079.73)" fill="#7c94ef"/>
    <path id="Path_45927" data-name="Path 45927" d="M1716.445,1417.394l.718-.095a2.6,2.6,0,0,1,1,.548,4.121,4.121,0,0,1,.964,3.344,3.811,3.811,0,0,1-1.493,2.891l-1.153.094a3.022,3.022,0,0,1-1.512-1.474,6.043,6.043,0,0,1-.038-3.7A2.747,2.747,0,0,1,1716.445,1417.394Z" transform="translate(-1458.009 -1185.922)" fill="#3258bf"/>
    <path id="Path_45928" data-name="Path 45928" d="M1512.961,1411.5a6.266,6.266,0,0,1,2.57,2.23c.907,1.814,1.871,5.8,1.228,7.8l-.453,1.19c-2.135,3.174-4.894,4.289-8.522,4.989l-.416.076-5.669-.057c.3-1.19,1.757-2.381,2.267-3.685l.057-.17.227-.661c.737-2.532-.34-4.025-1.474-6.1Z" transform="translate(-1285.287 -1181.218)" fill="#fae7c6"/>
    <path id="Path_45929" data-name="Path 45929" d="M1540.637,1470.9h56.7l.567,5.291a38.773,38.773,0,0,0-5.347-.038l-10.846.038-35.806.038-9.089-.038a27.222,27.222,0,0,1-5.121-.208l.416-.076C1535.743,1475.189,1538.5,1474.074,1540.637,1470.9Z" transform="translate(-1309.618 -1229.394)" fill="#3258bf"/>
    <path id="Path_45930" data-name="Path 45930" d="M1597.109,1286.828l.265-.321,23.676-.057,9.485-.038c1.417,0,3.212-.208,4.554.283l.586,4.1-.094.17a16.613,16.613,0,0,1,.567,3.042l.246,1.908.3,2.891.3,3.477.453,5.385-54.55-.189,6.783-5.234,3.439-3.7a19.522,19.522,0,0,1,1.625-2.437l2.381-.038a4.116,4.116,0,0,0-1.474-.85c-.283-.095-.246-.151-.4-.4l.453-1,.718-2.7.132-.208A21.2,21.2,0,0,0,1597.109,1286.828Z" transform="translate(-1351.144 -1079.73)" fill="#3258bf"/>
    <path id="Path_45931" data-name="Path 45931" d="M1665.409,1336.9l.3,2.891.3,3.477-47.313-.019,3.439-3.7a19.55,19.55,0,0,1,1.625-2.437l2.381-.038a37.312,37.312,0,0,0,5.442.038l11.791.019,14.889.019a56.692,56.692,0,0,0,6.462,0A1.975,1.975,0,0,0,1665.409,1336.9Z" transform="translate(-1380.179 -1120.713)" fill="#353f9c"/>
    <path id="Path_45932" data-name="Path 45932" d="M1680.17,1336.9l.3,2.891c-.945-.642-38.641-.189-43.572-.265a19.491,19.491,0,0,1,1.625-2.437l2.381-.038a37.312,37.312,0,0,0,5.442.038l11.791.019,14.89.019a56.66,56.66,0,0,0,6.462,0A1.612,1.612,0,0,0,1680.17,1336.9Z" transform="translate(-1394.94 -1120.713)" fill="#1872c9"/>
    <path id="Path_45933" data-name="Path 45933" d="M1650.07,1286.828l.265-.321,23.676-.057,9.485-.038c1.417,0,3.212-.208,4.554.283l.586,4.1-.094.17a16.6,16.6,0,0,1,.567,3.042l.246,1.908a2.2,2.2,0,0,1-.7.245,49.121,49.121,0,0,1-6.462,0l-14.889-.019-11.791-.019a40.215,40.215,0,0,1-5.442-.038,4.122,4.122,0,0,0-1.474-.85c-.283-.094-.246-.151-.4-.4l.453-1,.718-2.7.132-.208A20.206,20.206,0,0,0,1650.07,1286.828Z" transform="translate(-1404.105 -1079.73)" fill="#69bfb5"/>
    <path id="Path_45934" data-name="Path 45934" d="M1650.07,1328.149a4.12,4.12,0,0,0-1.474-.85c-.283-.094-.246-.151-.4-.4l.453-1a11.589,11.589,0,0,0,3.8.226h7.709l28.928-.038.246,1.909a2.2,2.2,0,0,1-.7.246,49.182,49.182,0,0,1-6.462,0l-14.889-.019-11.791-.019A43.264,43.264,0,0,1,1650.07,1328.149Z" transform="translate(-1404.105 -1111.792)" fill="#1a89b7"/>
    <path id="Path_45935" data-name="Path 45935" d="M1655.748,1286.828l.265-.321,23.675-.057,9.485-.038c1.417,0,3.212-.208,4.554.283l.586,4.1-.094.17-39.018-.076A20.825,20.825,0,0,0,1655.748,1286.828Z" transform="translate(-1409.783 -1079.73)" fill="#f8eadc"/>
    <path id="Path_45936" data-name="Path 45936" d="M382.765,1378.136l22.674.17,57.592-.019a21.74,21.74,0,0,1,2.891,1.984l8.862,5.5-.6.246c-1.663,2.74-2.815,6.273-2.041,9.523a11.06,11.06,0,0,0,.586,1.738l.076.189c.737,1.625,2.324,2.551,3.4,3.854l1.474.227c.529.775.321,2.154.321,3.118-6.953.586-14.247.17-21.238.189l-40.87-.019H389c-4.27,0-9.051.434-13.246-.151-3.628-1.663-5.423-3.8-7.048-7.388l-.208-.869a19.641,19.641,0,0,1-.7-4.913c.3-4.251,1.379-7.426,4.459-10.468C375.547,1377.739,378.495,1378.136,382.765,1378.136Z" transform="translate(-365.639 -1154.146)" fill="#de4550"/>
    <path id="Path_45937" data-name="Path 45937" d="M545.827,1414.647l-.416.3a9.844,9.844,0,0,1-6.821-1.039c-2.173-1.209-3.892-4.025-4.592-6.349a10.372,10.372,0,0,1,.869-7.936,9.66,9.66,0,0,1,5.857-4.762c1.247-.3,5.65-.472,6.689.208-3.307.624-5.631,1.455-7.974,4.006a8.94,8.94,0,0,0-1.738,7.048,11.082,11.082,0,0,0,8.125,8.521Z" transform="translate(-500.093 -1167.51)" fill="#c63140"/>
    <path id="Path_45938" data-name="Path 45938" d="M382.846,1378.135l22.674.17c-1.1.945-2.343,1.625-3.42,2.589a13.538,13.538,0,0,0-4.251,8.427,15.11,15.11,0,0,0,.85,6.67c-5.007.359-10.128.132-15.154.114-3.552-.019-7.558.321-11.054-.3a5.476,5.476,0,0,1-2.626-1.247,6.316,6.316,0,0,1-1.7-3.231l-.265.17c.3-4.251,1.379-7.426,4.459-10.468C375.628,1377.739,378.576,1378.135,382.846,1378.135Z" transform="translate(-365.72 -1154.145)" fill="#ec605f"/>
    <path id="Path_45939" data-name="Path 45939" d="M617.378,1389.4l8.862,5.5-.6.245c-1.663,2.74-2.815,6.273-2.041,9.523a11.064,11.064,0,0,0,.586,1.738l.076.189c.737,1.625,2.324,2.551,3.4,3.854-1.965.435-4.818.076-6.859.076l-17.629-.019-26.151.019c-4.667.019-9.561.321-14.19-.113a11.084,11.084,0,0,1-8.125-8.522c-.529-2.683.284-4.837,1.738-7.048,2.343-2.551,4.686-3.382,7.974-4.006a.648.648,0,0,0,.435.076h35.372l11,.019a28.283,28.283,0,0,0,4.384-.019C616.207,1390.817,616.944,1389.834,617.378,1389.4Z" transform="translate(-517.095 -1163.294)" fill="#fae7c6"/>
    <path id="Path_45940" data-name="Path 45940" d="M742.7,1430.875l33.331-.076.265.548a9.461,9.461,0,0,1-2.929.132h-6.538l-24-.094Z" transform="translate(-669.701 -1196.871)" fill="#faddb4"/>
    <path id="Path_45941" data-name="Path 45941" d="M625.618,1389.4l8.862,5.5-.6.245a42.37,42.37,0,0,0-5.593-.151h-9.75l-35.164.075c-6.141,0-12.584.416-18.668-.227,2.343-2.551,4.686-3.382,7.974-4.006a.648.648,0,0,0,.435.076H608.48l11,.019a28.281,28.281,0,0,0,4.384-.019C624.446,1390.817,625.183,1389.834,625.618,1389.4Z" transform="translate(-525.334 -1163.294)" fill="#faddb4"/>
    <path id="Path_45942" data-name="Path 45942" d="M923.928,927.377c1.341-.019,3.949-.416,4.95.529a2.2,2.2,0,0,1,.718,1.719l-1.1,22.92-.6,8.786,2.759-2.57a14.481,14.481,0,0,1,10.3,6.046,9.685,9.685,0,0,1,2.078,4.535l-.321,1.1c-1.871.813-3.779,3.08-5.366,4.421l9.372.227-3.911.17a2.606,2.606,0,0,0,.529,1.776c.831,1.171.7,2.4.775,3.76a19.15,19.15,0,0,1,6.557.34,21.246,21.246,0,0,1,4.781,2.362,30.545,30.545,0,0,1,3.174,3.269,17.528,17.528,0,0,1,1.644,3.118,24.243,24.243,0,0,1,.794,3l.151,2.759a19.487,19.487,0,0,1-.567,4.063l-.132.208-.718,2.7-.453,1c.151.246.113.3.4.4a3.6,3.6,0,0,1,1.474.85l-2.381.038a21.029,21.029,0,0,0-1.625,2.438l-3.439,3.7-6.783,5.234-4.062,2.513-10.166,5.612c1.115,2.078,2.192,3.571,1.474,6.1l-.227.661-.057.17c-.491,1.3-1.965,2.475-2.268,3.684-1.379.3-2.872,1.852-4.157,2.57-.567.321-1.852.6-2.192,1.115l-.132.208-10.241.094a63.331,63.331,0,0,1-7.577-.113l-.567-.472a25.293,25.293,0,0,0-4.7-1.663l-9.259-2.419a14.674,14.674,0,0,0-4.762-.68l-5.272.6-18.328,2.286c-2.135.3-4.667.321-6.689,1.077a8.013,8.013,0,0,1-2.173,1.247,51.352,51.352,0,0,1-7.237.17l-12.187-.132-.491-.624-.094.624c-2.607.435-5.385-.227-8.012.094,0-.964.208-2.324-.321-3.118l-1.474-.226c-1.077-1.3-2.664-2.23-3.4-3.855l-.076-.189a9.9,9.9,0,0,1-.586-1.739c-.775-3.231.378-6.783,2.041-9.523l.6-.246-8.862-5.5a23.656,23.656,0,0,0-2.891-1.984,42.6,42.6,0,0,0-6.235-4.4,26.027,26.027,0,0,1-3.042-3.08,12.185,12.185,0,0,1-2.343-2.853c-2.381-3.609-2.57-7.237-1.738-11.337l.51-1.379c.529-1.341,1.511-2.4,1.719-3.874,1.1.019,3.231.34,4.119-.208a4.285,4.285,0,0,0-.227-2.249l-.624.019-.907-.964a14.591,14.591,0,0,1,10.959-3.382c5.4.416,10.487,2.645,15.248,5.121l1.7,1.266,1.965.982c4.837.6,10.392.057,15.267-.189,24.583-1.266,49.845-5.4,72.614-15.078.453-.642.3-2.607.34-3.439l.529-12.187Z" transform="translate(-715.224 -788.49)" fill="#1872c9"/>
    <path id="Path_45943" data-name="Path 45943" d="M1485.489,1178.9l9.372.227-3.911.17a2.6,2.6,0,0,0,.529,1.776c.831,1.172.7,2.4.775,3.76-3.439,1.02-6.67,2.494-9.977,3.817a20.607,20.607,0,0,1-4.384,1.568c-1.058-.264-2.305.057-3.193-.548v-1.757c1.946-.964,3.685-2.816,5.272-4.271Z" transform="translate(-1263.388 -992.79)" fill="#d9e8f8"/>
    <path id="Path_45944" data-name="Path 45944" d="M1405.57,1311.5l-.718,2.7-.453,1c.151.246.113.3.4.4a3.6,3.6,0,0,1,1.474.85l-2.381.038a21,21,0,0,0-1.625,2.438l-3.439,3.7-6.783,5.234-4.062,2.513-10.166,5.612a10.182,10.182,0,0,0-2-1.19,23.168,23.168,0,0,0-5.442-1.342,31.164,31.164,0,0,0-7.369-.6,28.386,28.386,0,0,0-7.634,2.06l-7.766.019,32.688-10.411C1388.716,1321.552,1399.24,1318.075,1405.57,1311.5Z" transform="translate(-1160.304 -1100.113)" fill="#0e1b62"/>
    <path id="Path_45945" data-name="Path 45945" d="M1230.956,1417.809a78.814,78.814,0,0,0,6.727-14.209,7.7,7.7,0,0,1,2.249,1.153c2.305,1.342,4.686,3.156,7.2,4.062a18.924,18.924,0,0,0,5.234.831l7.766-.019a29.107,29.107,0,0,1,7.634-2.06,31.159,31.159,0,0,1,7.369.6,23.407,23.407,0,0,1,5.442,1.341,9.342,9.342,0,0,1,2,1.191c1.115,2.078,2.192,3.571,1.474,6.1l-.227.661-.057.17c-.491,1.3-1.965,2.475-2.267,3.685-1.379.3-2.872,1.852-4.157,2.57-.567.321-1.852.6-2.192,1.115l-.132.208-10.241.095a63.332,63.332,0,0,1-7.577-.113l-.567-.472a25.27,25.27,0,0,0-4.7-1.663l-9.259-2.419a14.675,14.675,0,0,0-4.761-.68l-5.272.6a7.161,7.161,0,0,0-2.437-1.341C1230.408,1418.754,1230.71,1418.262,1230.956,1417.809Z" transform="translate(-1065.087 -1174.81)" fill="#fab76f"/>
    <path id="Path_45946" data-name="Path 45946" d="M1231.118,1478.8l4.988,1.209a8.5,8.5,0,0,1,2.268.68l-.265.265-5.272.6a7.17,7.17,0,0,0-2.437-1.342A11.074,11.074,0,0,1,1231.118,1478.8Z" transform="translate(-1065.249 -1235.801)" fill="#c63140"/>
    <path id="Path_45947" data-name="Path 45947" d="M1373.6,1426.451a29.1,29.1,0,0,1,7.634-2.059,31.158,31.158,0,0,1,7.369.6,23.4,23.4,0,0,1,5.442,1.341,9.332,9.332,0,0,1,2,1.191c1.115,2.078,2.192,3.571,1.474,6.1l-.227.661-.057.17c-.491,1.3-1.965,2.475-2.267,3.685-1.379.3-2.872,1.852-4.157,2.57-.567.321-1.852.6-2.192,1.115l-.132.208-10.241.094a63.281,63.281,0,0,1-7.577-.113l-.567-.472a4.549,4.549,0,0,1,2.116-.359c3.269-.227,7.237.057,9.844-2.267a6.6,6.6,0,0,0,2.078-4.743c.075-1.984-.283-5.1-1.776-6.575C1380.7,1425.979,1375.863,1426.47,1373.6,1426.451Z" transform="translate(-1178.553 -1191.634)" fill="#1872c9"/>
    <path id="Path_45948" data-name="Path 45948" d="M822.6,1338.142a2.722,2.722,0,0,1,2.419-.019l37.469,14.4,18.4,6.84,6.387,2.4a19.468,19.468,0,0,1,3.647,1.568c2.532.926,5.4,2.438,8.03,2.91l.68-.321a7.171,7.171,0,0,1,2.437,1.342l-18.328,2.286c-2.135.3-4.667.321-6.689,1.077a8.021,8.021,0,0,1-2.173,1.247,51.39,51.39,0,0,1-7.237.17l-12.187-.132-.491-.624-.094.624c-2.608.435-5.385-.227-8.012.094,0-.964.208-2.324-.321-3.118l-1.474-.227c-1.077-1.3-2.664-2.229-3.4-3.854l-.076-.189a9.915,9.915,0,0,1-.586-1.738c-.775-3.231.378-6.783,2.041-9.523l.6-.246-8.862-5.5a23.682,23.682,0,0,0-2.891-1.984,42.624,42.624,0,0,0-6.235-4.4A27.7,27.7,0,0,1,822.6,1338.142Z" transform="translate(-734.504 -1121.483)" fill="#0e1b62"/>
    <path id="Path_45949" data-name="Path 45949" d="M921.568,1418.5a42.374,42.374,0,0,0,9.089,3.477c3.118-.284,7.728-.473,10.657.718l-.51.4a3.472,3.472,0,0,0-2.211,1.644,8.978,8.978,0,0,0-1.379,3.174l-.057.246c-.51,2.286.038,4.856.491,7.1a20.7,20.7,0,0,0-4.837.453l.094.964-.094.624c-2.607.434-5.385-.227-8.012.094,0-.964.208-2.324-.321-3.118L923,1434.05c-1.077-1.3-2.664-2.229-3.4-3.854l-.076-.189a9.917,9.917,0,0,1-.586-1.738c-.775-3.231.378-6.783,2.041-9.523Z" transform="translate(-812.441 -1186.895)" fill="#1872c9"/>
    <path id="Path_45950" data-name="Path 45950" d="M921.649,1418.5a42.373,42.373,0,0,0,9.089,3.477c-1.946,1-3.439,2.135-4.157,4.27a7.392,7.392,0,0,0,.359,5.5,7.907,7.907,0,0,0,4.667,3.76,4.944,4.944,0,0,0,1.3.189l.095.964-.095.624c-2.607.434-5.385-.227-8.012.094,0-.964.208-2.324-.321-3.118l-1.474-.227c-1.077-1.3-2.664-2.23-3.4-3.855l-.076-.189a9.909,9.909,0,0,1-.586-1.738c-.775-3.231.378-6.783,2.041-9.523Z" transform="translate(-812.523 -1186.895)" fill="#fefefe"/>
    <path id="Path_45951" data-name="Path 45951" d="M1001.984,1440.8l27.568,6.028c2.532.926,5.4,2.438,8.03,2.91l.68-.321a7.168,7.168,0,0,1,2.438,1.342l-18.328,2.286c-2.135.3-4.667.321-6.689,1.077a8.018,8.018,0,0,1-2.173,1.247,51.353,51.353,0,0,1-7.237.17l-12.187-.132-.491-.624-.094-.964a21.771,21.771,0,0,1,4.837-.453c-.472-2.249-1.02-4.8-.491-7.1l.057-.246a8.835,8.835,0,0,1,1.379-3.174,3.471,3.471,0,0,1,2.211-1.644Z" transform="translate(-873.112 -1204.981)" fill="#f19a48"/>
    <path id="Path_45952" data-name="Path 45952" d="M993.5,1455.522a21.757,21.757,0,0,1,4.837-.453c-.472-2.249-1.02-4.8-.491-7.1l.057-.245a8.832,8.832,0,0,1,1.379-3.174,3.472,3.472,0,0,1,2.211-1.644,10.032,10.032,0,0,0-.869,7.86,5.342,5.342,0,0,0,2.74,3.288c3.514,1.719,8.465,1.965,12.32,1.757a8.021,8.021,0,0,1-2.173,1.247,51.354,51.354,0,0,1-7.237.17l-12.187-.132-.491-.624Z" transform="translate(-873.112 -1206.684)" fill="#3258bf"/>
    <path id="Path_45953" data-name="Path 45953" d="M1065.352,927.377c1.341-.019,3.949-.416,4.95.529a2.2,2.2,0,0,1,.718,1.719l-1.1,22.92-.6,8.786,2.759-2.57a14.481,14.481,0,0,1,10.3,6.046,9.687,9.687,0,0,1,2.078,4.535l-.321,1.1c-1.871.813-3.779,3.08-5.366,4.421l-5.536,4.743c-1.606,1.455-3.326,3.326-5.272,4.27v1.757c.907.586,2.154.283,3.193.548a24.838,24.838,0,0,1-4.308,2l-7.388,3.269-25.339,12.338c-4.327,2.116-9.013,3.968-13.113,6.424a10.592,10.592,0,0,1,2.721,1.833l-.094.453-.435.189-38.83-20.8L976.79,987.8a14.882,14.882,0,0,1-3.288-1.927,4.254,4.254,0,0,1-.3-.586l1.965.983c4.837.6,10.392.057,15.267-.189,24.583-1.266,49.846-5.4,72.614-15.078.454-.642.3-2.608.34-3.439l.529-12.187Z" transform="translate(-856.647 -788.49)" fill="#0e1b62"/>
    <path id="Path_45954" data-name="Path 45954" d="M1478.719,1093.8a14.481,14.481,0,0,1,10.3,6.047,9.689,9.689,0,0,1,2.078,4.535l-.321,1.1c-1.871.813-3.779,3.08-5.366,4.422l-5.536,4.743c-1.606,1.455-3.326,3.326-5.272,4.27l1.361-22.523Z" transform="translate(-1263.307 -923.794)" fill="#fab76f"/>
    <path id="Path_45955" data-name="Path 45955" d="M1035.9,1260.875l73.162-.076-13.038,6.387-18.46,9.391c-2.173,1.115-4.554,2.777-6.859,3.477Z" transform="translate(-907.5 -1058.992)" fill="#2d3684"/>
    <path id="Path_45957" data-name="Path 45957" d="M2071.087,798.9a2.9,2.9,0,0,1,.982.17,2.292,2.292,0,0,1,1.323,1.36,2.366,2.366,0,0,1-.132,1.927,2.562,2.562,0,0,1-1.644,1.247l-.661-.019a2.941,2.941,0,0,1-1.927-1.455,3.453,3.453,0,0,1,.057-1.757A2.817,2.817,0,0,1,2071.087,798.9Z" transform="translate(-1745.347 -684.906)" fill="#fefefe"/>
    <path id="Path_45958" data-name="Path 45958" d="M1520.506,686.194c.416-.076.888-.057,1.3-.094a2.9,2.9,0,0,1,1.1.642,2.468,2.468,0,0,1-1.115,4.157,3.83,3.83,0,0,1-1.039-.019,2.942,2.942,0,0,1-1.682-1.285,2.133,2.133,0,0,1-.246-1.757A2.783,2.783,0,0,1,1520.506,686.194Z" transform="translate(-1299.104 -593.506)" fill="#fefefe"/>
    <path id="Path_45959" data-name="Path 45959" d="M1400.963,198.1a2.31,2.31,0,0,1,1.077.038,2.4,2.4,0,0,1,1.474,1.3,3.4,3.4,0,0,1,.038,2.286,2.655,2.655,0,0,1-1.871,1.379l-1.266-.094a2.806,2.806,0,0,1-1.4-1.323,2.536,2.536,0,0,1-.057-1.965A3.3,3.3,0,0,1,1400.963,198.1Z" transform="translate(-1201.82 -198.053)" fill="#fefefe"/>
    <path id="Path_45960" data-name="Path 45960" d="M1502.919,421.5l1.8,1.682,4.27,4.138-7.785,1.738Z" transform="translate(-1284.881 -379.279)" fill="#0e1b62"/>
    <path id="Path_45961" data-name="Path 45961" d="M873.76,750.669a3.026,3.026,0,0,1,3.741,1.587,3.333,3.333,0,0,1,.057,2.381,3.471,3.471,0,0,1-2.078,1.814,4.173,4.173,0,0,1-1.285.076,3.407,3.407,0,0,1-2.06-1.436,2.853,2.853,0,0,1-.3-2.381A3.28,3.28,0,0,1,873.76,750.669Z" transform="translate(-774.326 -645.704)" fill="#fefefe"/>
    <path id="Path_45962" data-name="Path 45962" d="M1021.348,337.2l2.381,1.115-.038,13.963a4.216,4.216,0,0,0-1.36.246,8.354,8.354,0,0,1-.869-.964C1021.1,350.956,1021.348,338.938,1021.348,337.2Z" transform="translate(-895.631 -310.908)" fill="#c63140"/>
    <path id="Path_45963" data-name="Path 45963" d="M444.81,550.5a6.714,6.714,0,0,1,1.228.227,3.787,3.787,0,0,1,2.192,2.154,3.7,3.7,0,0,1-.151,2.589,3.769,3.769,0,0,1-2.626,1.965,3.726,3.726,0,0,1-1.814-.246,3.836,3.836,0,0,1-1.871-2.23,3.11,3.11,0,0,1,.151-2.4A4.321,4.321,0,0,1,444.81,550.5Z" transform="translate(-425.492 -483.63)" fill="#fefefe"/>
    <path id="Path_45964" data-name="Path 45964" d="M1675.821,707.791l-1.285-1.663a3.388,3.388,0,0,1,.019-1.379,5.149,5.149,0,0,1,2.608-3.42c2.966-1.757,5.253-1.19,8.37-.416.132.227.642,1.172.831,1.228l2.418,2.891c-2.74-1.077-6.273-3.1-9.259-1.776a4.71,4.71,0,0,0-2.683,2.759,6.194,6.194,0,0,0-.264,1.757Z" transform="translate(-1425.416 -604.903)" fill="#fbcf3e"/>
    <path id="Path_45965" data-name="Path 45965" d="M1722.5,453.3a17.109,17.109,0,0,0,3.8,2.437c2.853,1.209,6.821,1.341,8.559,4.27a14.236,14.236,0,0,1,1.209,3.874l-.189,1.644C1731.532,461.614,1725.07,458.855,1722.5,453.3Z" transform="translate(-1464.366 -404.868)" fill="#88ba5b"/>
    <path id="Path_45966" data-name="Path 45966" d="M1790.55,476.075c.416-2.1,1.209-6.273,2.985-7.577a.608.608,0,0,1,.548-.17,2.283,2.283,0,0,1,1.361.888c.321,1.134-.491,2.041-.945,3.1a19.3,19.3,0,0,0-.888,2.74,40.843,40.843,0,0,0-1.077,10.827c-.132.416-.114.491-.473.718a13.766,13.766,0,0,0-2.362-1.814l.3-4.195.113-.472.246-2.4Z" transform="translate(-1518.869 -417.025)" fill="#c63140"/>
    <path id="Path_45967" data-name="Path 45967" d="M1509.953,367.3l4.289,3.722a11.954,11.954,0,0,1,1.927,1.852l-5.31,6.349-1.795-1.682-.265-.416.51-7.369A4.069,4.069,0,0,1,1509.953,367.3Z" transform="translate(-1291.045 -335.321)" fill="#fefefe"/>
    <path id="Path_45968" data-name="Path 45968" d="M1685.5,719.286a6.181,6.181,0,0,1,.265-1.757,4.761,4.761,0,0,1,2.683-2.759c2.986-1.3,6.519.7,9.259,1.776l4.233,2.759-12.509.038H1686.5Z" transform="translate(-1434.357 -616.391)" fill="#fefefe"/>
    <path id="Path_45970" data-name="Path 45970" d="M2054.144,497.238l.416-.038c1.115.907,1.4,2.475,2.494,3.477,1,.926,2.872,1.285,3.552,2.419-.68,1.228-2.645,1.587-3.609,2.57-.888.907-1.455,2.23-2.286,3.231l-.435.094c-.926-1-1.474-2.23-2.381-3.193a20.286,20.286,0,0,0-3.42-2.267l-.076-.548c.964-1.115,2.626-1.361,3.552-2.381C2052.84,499.656,2053.293,498.277,2054.144,497.238Z" transform="translate(-1728.687 -440.438)" fill="#fefefe"/>
    <path id="Path_45971" data-name="Path 45971" d="M1524.406,547.223c.416-.113.643-.113.888.3a14.139,14.139,0,0,0,2.494,3.609,16.862,16.862,0,0,0,3.515,1.984c-1.209.983-3.061,1.719-4.081,2.815a24.022,24.022,0,0,0-2.211,3.363l-.51.189a29.876,29.876,0,0,0-2.551-3.7c-1.02-.983-2.664-1.342-3.25-2.683.737-1.02,2.135-1.342,3.061-2.23A32.071,32.071,0,0,0,1524.406,547.223Z" transform="translate(-1299.075 -480.917)" fill="#fefefe"/>
    <path id="Path_45972" data-name="Path 45972" d="M2136.2,665.657l.491-.057c1.02.775,1.531,2.4,2.513,3.344,1.077,1.02,3,1.379,3.76,2.608-.454,1.115-2.589,1.568-3.533,2.437a20.7,20.7,0,0,0-2.532,3.439l-.321.113c-1-.265-1.757-2.7-2.588-3.534a16.984,16.984,0,0,0-2.854-1.644c-.529-.34-.718-.416-.831-1.02.775-1.209,2.607-1.417,3.666-2.4A17.09,17.09,0,0,0,2136.2,665.657Z" transform="translate(-1795.112 -576.885)" fill="#fefefe"/>
    <path id="Path_45974" data-name="Path 45974" d="M1525.109,396.7h.189l2.249,2.286,1.417,1.342a21.4,21.4,0,0,1,5.1,4.837l-10,2.022-4.27-4.138Z" transform="translate(-1299.967 -359.165)" fill="#faddb4"/>
    <path id="Path_45975" data-name="Path 45975" d="M1381.989,563.5a18.939,18.939,0,0,0,2.626,4.138c1.19,1.36,2.608,2.532,3.741,3.93a16.733,16.733,0,0,1,3.156,15.834l-.983,2.57-1.568-.208.416-.246a21.73,21.73,0,0,0-2.135-9.977c-1.209-2.589-2.8-5.007-3.817-7.69A21.385,21.385,0,0,1,1381.989,563.5Z" transform="translate(-1188.194 -494.139)" fill="#2d3684"/>
    <path id="Path_45976" data-name="Path 45976" d="M1008.2,417.246a3.624,3.624,0,0,1,1.361-.246l1.058.378c.661.831.643,2.286.831,3.344.6,3.552,1.228,7.2,1.512,10.789a3.767,3.767,0,0,1-1.719.132c-.888-1.115,0-2.8-.7-3.949a16.971,16.971,0,0,1,.076,3.911l-.529.189c-.491-.227-.491-.189-.7-.7a4.3,4.3,0,0,0-.7.737c-.529-.453-.416-.7-.491-1.379l-.34,1.266a18.292,18.292,0,0,1-2.286.057,1.646,1.646,0,0,1-.265-1.323l-.038.17a5.613,5.613,0,0,1-.51,1.077l-.68.094c-.076-.132-.227-.246-.246-.4a11.745,11.745,0,0,1,.378-2.494c.51-3.307,1-6.67,1.757-9.939a3.613,3.613,0,0,1,.529-1.379A3.2,3.2,0,0,0,1008.2,417.246Z" transform="translate(-881.482 -375.454)" fill="#de4550"/>
    <path id="Path_45977" data-name="Path 45977" d="M892.076,579.3a17.3,17.3,0,0,0,2.1,5.914c1.871,3.042,4.289,3.93,7.615,4.724a13.665,13.665,0,0,0-4.856,1.908c-3.269,2.23-4.195,5.555-4.894,9.24a14.313,14.313,0,0,0-2.154-6.217c-1.927-2.778-4.516-4.043-7.785-4.648a18.9,18.9,0,0,0,5.045-1.8C890.357,586.442,891.321,582.758,892.076,579.3Z" transform="translate(-782.761 -506.947)" fill="#fefefe"/>
    <path id="Path_45978" data-name="Path 45978" d="M1718.4,451l.075-1,.586.624c2.57,5.536,9.051,8.314,13.378,12.225l-.246,2.4-.113.472c-1.682.283-2.683,1.3-4.629,1.209-2.192-.113-4.535-1.7-5.952-3.307C1718.074,459.693,1718.055,455.914,1718.4,451Z" transform="translate(-1460.923 -402.19)" fill="#88ba5b"/>
    <path id="Path_45979" data-name="Path 45979" d="M1719,451l.075-1,.586.624c2.57,5.536,9.051,8.314,13.378,12.225l-.246,2.4c-3.08-2.778-7.029-4.988-9.75-8.03A34.376,34.376,0,0,1,1719,451Z" transform="translate(-1461.528 -402.191)" fill="#449e7a"/>
    <path id="Path_45982" data-name="Path 45982" d="M1592.233,760.554a7.82,7.82,0,0,1-.567-2.551l-.019-9.618a53.381,53.381,0,0,1,.038-6.273,1.936,1.936,0,0,1,.586-1.19c.794-.812,3.288-.491,4.384-.491h2.834l-.019,20.161-2.815.019Z" transform="translate(-1358.172 -637.451)" fill="#69bfb5"/>
    <path id="Path_45983" data-name="Path 45983" d="M1618.5,740.7h2.834l-.019,20.161-2.816.019Z" transform="translate(-1380.017 -637.72)" fill="#449e7a"/>
    <path id="Path_45985" data-name="Path 45985" d="M1869.829,740.8l5.272-.019c1.871,0,3.684-.3,5.139,1.115a4.07,4.07,0,0,1,1.058,1.984,22.165,22.165,0,0,1,.076,4.195v9.429a4.273,4.273,0,0,1-1.4,2.948,5.554,5.554,0,0,1-1.134.737,17.085,17.085,0,0,0-4.516-.17l-9.126-.076a10.431,10.431,0,0,0,2.532-1.7,7.289,7.289,0,0,0,1.946-3.515,23.973,23.973,0,0,0,.17-4.951Z" transform="translate(-1580.103 -637.765)" fill="#449e7a"/>
    <path id="Path_45986" data-name="Path 45986" d="M1642.588,740.5h.737l1,.057h2.929l-.038,20.123H1633.5l.019-20.161Z" transform="translate(-1392.183 -637.558)" fill="#69bfb5"/>
    <path id="Path_45987" data-name="Path 45987" d="M1690.8,740.8h2.929l-.038,20.123h-2.853Z" transform="translate(-1438.656 -637.801)" fill="#449e7a"/>
    <path id="Path_45989" data-name="Path 45989" d="M357.162,1017l7.936,10.468c-.3-.057-.189,0-.453-.151a21.306,21.306,0,0,0-8.012-2.834c-.038-.076-.132-.208-.17-.3a6.306,6.306,0,0,1-.076-1.8C356.388,1020.7,356.293,1018.493,357.162,1017Z" transform="translate(-356.361 -861.612)" fill="#fefefe"/>
    <path id="Path_46001" data-name="Path 46001" d="M2087.653,831.99a7.717,7.717,0,0,0,1.7-3.1c.491-3.685,1.228-10.09,4.4-12.452a3.714,3.714,0,0,1,2.8-.718,3.243,3.243,0,0,1,2.324,1.474,4.064,4.064,0,0,1,.491,3.212,8.788,8.788,0,0,1-2.021,3.552c-2.721,3.193-6.462,5.215-8.994,8.522l-4.913,6.935.17-.019a16.754,16.754,0,0,0,3.514-1.077c3.156-1.115,7.086-2.929,10.43-3.08a4,4,0,0,1,2.494.6,3.26,3.26,0,0,1,1.417,2.248,3.327,3.327,0,0,1-.85,2.608c-1.228,1.4-3.741,1.606-5.48,1.625-3.949.057-8.011-1.209-11.923-1.833-1.19.416-2.135,2.173-2.91,3.193l-6.1,8.03.151-.019a15.893,15.893,0,0,0,3.533-1.19c2.759-1.039,7.842-2.7,10.449-.661a2.946,2.946,0,0,1,1.133,2.154,2.592,2.592,0,0,1-.831,2.079,4.969,4.969,0,0,1-3.779,1.228c-3.874-.038-7.709-1.455-11.356-2.589l-8.314,11.469.322.019a9.564,9.564,0,0,0,2.91-1.02c2.8-1.115,8.749-3.533,11.337-1.134a2.655,2.655,0,0,1,.925,2.211,3.165,3.165,0,0,1-1.171,2.381,5.773,5.773,0,0,1-4.384.983,39.084,39.084,0,0,1-10.694-2.23l-6.311,8.9-.926-.094-.094-.151c.907-1,6.179-8.5,6.236-9.41a2.485,2.485,0,0,1,.888-1.342l.189.246,8.087-11.091c-1.323-1.757-2.457-3.741-3.609-5.612-1.115-1.833-2.551-4.006-2.985-6.122a4.81,4.81,0,0,1,.4-3.552,3.009,3.009,0,0,1,2.192-1.455,3.2,3.2,0,0,1,2.456.85c3.59,3.212,2,10.411,2.324,14.625l.019.227,8.654-11.791c-1.927-3.439-4.686-6.594-5.744-10.449a4.025,4.025,0,0,1,.264-3.174,2.8,2.8,0,0,1,1.89-1.36,2.888,2.888,0,0,1,2.456.642c2.834,2.229,2.268,9.353,2.532,12.622Z" transform="translate(-1735.743 -698.368)" fill="#46c7e0"/>
    <path id="Path_46003" data-name="Path 46003" d="M1720.36,547.25a16.441,16.441,0,0,1,7.879-3.25,27.238,27.238,0,0,1-.831,21.087,19,19,0,0,1-10.166,9.788c-2.456.926-6.33,1.549-8.9.718l-.737-.113c-.189-.076-.68-1.02-.831-1.228a45.388,45.388,0,0,1-4.195-8.616c-1.7-4.78-2.967-12.112-.661-16.836a8.22,8.22,0,0,1,5.291-4.119c3.817-1.247,6.916-.3,10.335,1.436a13.772,13.772,0,0,1,2.362,1.814C1720.247,547.722,1720.228,547.666,1720.36,547.25Z" transform="translate(-1446.657 -478.333)" fill="#fec237"/>
    <path id="Path_46011" data-name="Path 46011" d="M1016.334,258.813l-1.115-.926-.019-.586a10.487,10.487,0,0,1,3.363-1.625l5.99-2.532,28.21-12.244c3.647.756,7.5,2.778,11.016,4.081l19.027,7.2,9.3,3.514a2.162,2.162,0,0,1,.945.756,2,2,0,0,1,.094,1.644c-1.493,1.247-3.8,1.927-5.593,2.7l-10.695,4.516c-7.52,2.4-14.776,8.087-22.825,8.314-8.012-1.153-15.173-6.424-22.958-8.5l-12.244-4.951-2.381-1.115Z" transform="translate(-890.712 -232.804)" fill="#353f9c"/>
    <path id="Path_46012" data-name="Path 46012" d="M1193.763,335.853l6.349-.094a5.283,5.283,0,0,1,2.929.435,2.035,2.035,0,0,1-.076,1.379l-.6.246-8.881-.019a1.478,1.478,0,0,1-.68-.926C1193.046,336.212,1193.159,336.212,1193.763,335.853Z" transform="translate(-1034.754 -309.731)" fill="#0e1b62"/>
    <path id="Path_46013" data-name="Path 46013" d="M1097.976,323.2a2,2,0,0,1,.094,1.644c-1.493,1.247-3.8,1.927-5.593,2.7l-10.676,4.516c-7.52,2.4-14.776,8.087-22.825,8.314-8.012-1.153-15.173-6.424-22.958-8.5l-12.244-4.951-2.381-1.115-.094-.283.189-.888c1.549-.454,30.875,12.282,35.5,13.6a9.365,9.365,0,0,0,4.951.057c4.913-1.247,9.863-3.968,14.568-5.914l12.093-5.045A96.57,96.57,0,0,0,1097.976,323.2Z" transform="translate(-895.659 -299.553)" fill="#0e1b62"/>
    <path id="Path_46014" data-name="Path 46014" d="M1733.114,508.174c1-2.948,2.948-5.857,5.839-7.237a11.462,11.462,0,0,1,8.654-.586,12.817,12.817,0,0,1,7.124,7.029c2.7,6.16,1.927,13.661-.51,19.745a35.065,35.065,0,0,1-16.325,18.177l2.815.038.019,9.977a23.981,23.981,0,0,1-.17,4.951,7.289,7.289,0,0,1-1.946,3.515,11.009,11.009,0,0,1-2.532,1.7l-1.644.094-1.323-.019-3.7-.019L1706,565.426l.038-20.123,12.509-.038-4.232-2.759-2.419-2.891.737.113c2.57.831,6.443.189,8.9-.718a18.943,18.943,0,0,0,10.166-9.788,27.072,27.072,0,0,0,.831-21.087Z" transform="translate(-1450.984 -442.44)" fill="#fec237"/>
    <path id="Path_46015" data-name="Path 46015" d="M1856.494,752.029l.132-11.054,3.231-.076,2.816.038.019,9.977a23.988,23.988,0,0,1-.17,4.95,7.291,7.291,0,0,1-1.947,3.515,11,11,0,0,1-2.532,1.7l-1.644.094Z" transform="translate(-1572.966 -637.881)" fill="#69bfb5"/>
    <path id="Path_46016" data-name="Path 46016" d="M1863.753,520.192c1.247-2.57,2.607-4.648,5.423-5.612a7.63,7.63,0,0,1,5.725.472c2.4,1.19,4.459,4.176,5.272,6.67,2.041,6.349.718,13.094-2.305,18.914a34.83,34.83,0,0,1-9.826,11.488,14.473,14.473,0,0,1-4.27,2.626l-.472.094c4.043-3.911,6.576-10.336,7.86-15.74,1.039-4.327,1.493-10.619-1.02-14.53A9.936,9.936,0,0,0,1863.753,520.192Z" transform="translate(-1578.562 -454.2)" fill="#d9e8f8"/>
    <path id="Path_46017" data-name="Path 46017" d="M1757.871,544l.548.057a13.883,13.883,0,0,1,3.061.283,9.956,9.956,0,0,1,6.386,4.384c2.494,3.93,2.06,10.2,1.02,14.53-1.285,5.4-3.817,11.828-7.86,15.74a3.4,3.4,0,0,0-1.266,1.512,1.728,1.728,0,0,1-1.379.869,19.119,19.119,0,0,0-3.76-.113l-10.77-.113-4.232-2.759L1737.2,575.5l.737.113c2.57.831,6.443.189,8.9-.718A18.941,18.941,0,0,0,1757,565.106,27.126,27.126,0,0,0,1757.871,544Z" transform="translate(-1476.289 -478.325)" fill="#fdb532"/>
    <path id="Path_46018" data-name="Path 46018" d="M1718.546,740.6l10.77.113a19.116,19.116,0,0,1,3.76.113l.038,20.067-3.7-.019L1706,760.761l.038-20.123Z" transform="translate(-1450.984 -637.638)" fill="#69bfb5"/>
    <path id="Path_46019" data-name="Path 46019" d="M1829.4,741.043a19.136,19.136,0,0,1,3.76.113l.038,20.067-3.7-.019Z" transform="translate(-1551.068 -637.968)" fill="#449e7a"/>
    <path id="Path_46028" data-name="Path 46028" d="M1574.532,846.935l4.4.038,2.815-.019h13.718l23.411.113,3.7.019,1.322.019,1.644-.094,9.126.076a18,18,0,0,1,4.516.17c2.173.529,9.466-.51,10.751,1.153a11.345,11.345,0,0,1,6.254,6.217,13.019,13.019,0,0,1-.019,9.655,16.472,16.472,0,0,1-6.16,6.613l-30.875-.057a49.362,49.362,0,0,1-5.291.038h-10.146l-31.952-.076a4.886,4.886,0,0,1-.548-2.192l-.132.831a6.722,6.722,0,0,1-.832-1.644,2.212,2.212,0,0,0,.51-.661,11.454,11.454,0,0,0,.869-3.269c.813-4.837-.17-8.9-1.833-13.434a24.13,24.13,0,0,1,.038-3.307C1570.337,846.708,1573.719,846.935,1574.532,846.935Z" transform="translate(-1340.471 -723.735)" fill="#fefefe"/>
    <path id="Path_46029" data-name="Path 46029" d="M1720.818,900.515c3.193-.453,6.9-.094,10.128-.094h6.028a16.461,16.461,0,0,1,3.609.17,1.666,1.666,0,0,1,.68,1.3l-.6.7c-1.285.34-18.9.4-19.878.095-.4-.113-.491-.454-.68-.794A2.186,2.186,0,0,1,1720.818,900.515Z" transform="translate(-1462.42 -767.062)" fill="#d6a1c8"/>
    <path id="Path_46030" data-name="Path 46030" d="M1625.718,865.142a8.017,8.017,0,0,1,5.1.34l.964.6a9.558,9.558,0,0,1,3.439,6.783,12.3,12.3,0,0,1-1.1,5.5c-1.909,3.458-4.157,5.8-8.087,6.916l-.718.132a49.326,49.326,0,0,1-5.291.038h-10.147l-31.952-.076a4.888,4.888,0,0,1-.548-2.192,2.134,2.134,0,0,1,.151-.907,8.584,8.584,0,0,1,2.513-.132h5.5l27.133.019h7.993a16.159,16.159,0,0,0,4.875-.3,8.749,8.749,0,0,0,4.913-4.346,9.036,9.036,0,0,0,.51-6.8C1630.083,867.939,1628.231,866.408,1625.718,865.142Z" transform="translate(-1346.668 -738.327)" fill="#2d3684"/>
    <path id="Path_46031" data-name="Path 46031" d="M1574.775,846.9l4.4.038,2.815-.019h13.718l23.411.113,3.7.019,1.323.019,1.644-.094,9.126.076a18,18,0,0,1,4.516.17c2.173.529,9.467-.51,10.751,1.153l.17.189a2.769,2.769,0,0,0,1.19.945,7.3,7.3,0,0,1,2.494,2.173l.038.17-.151-.151a2.123,2.123,0,0,0-1.739-.775l-.3.038a9.013,9.013,0,0,1-1.89.019l-1.171-.038a4.216,4.216,0,0,0-.85.038c-.794.057-1.587-.038-2.362.038-.6.057-1.19-.113-1.814-.057l-1.625.038a51.52,51.52,0,0,1-5.4-.095c-1.663-.019-10.865.472-11.772-.283l-.151-.132.056.359a8.016,8.016,0,0,0-5.1-.34,41.855,41.855,0,0,0-5.763-.132h-9.656l-34.295-.038a24.15,24.15,0,0,1,.038-3.307C1570.581,846.67,1573.963,846.9,1574.775,846.9Z" transform="translate(-1340.714 -723.739)" fill="#353f9c"/>
    <path id="Path_46032" data-name="Path 46032" d="M1862,855a11.345,11.345,0,0,1,6.254,6.216,13.019,13.019,0,0,1-.019,9.655,16.47,16.47,0,0,1-6.16,6.613l-30.875-.057.718-.132c3.93-1.115,6.179-3.458,8.087-6.916a12.559,12.559,0,0,0,1.1-5.5,9.592,9.592,0,0,0-3.439-6.783l-.963-.6-.057-.359.151.132c.907.756,10.109.264,11.772.283a51.739,51.739,0,0,0,5.4.095l1.625-.038c.624-.057,1.209.113,1.814.057.794-.076,1.587.019,2.362-.038a6.394,6.394,0,0,1,.85-.038l1.171.038a9.02,9.02,0,0,0,1.89-.019l.3-.038a2.118,2.118,0,0,1,1.738.775l.151.151-.038-.17a7.127,7.127,0,0,0-2.494-2.173,2.886,2.886,0,0,1-1.19-.945Z" transform="translate(-1552.527 -730.323)" fill="#7c94ef"/>
    <path id="Path_46033" data-name="Path 46033" d="M1862,855a11.345,11.345,0,0,1,6.254,6.216,13.019,13.019,0,0,1-.019,9.655,16.47,16.47,0,0,1-6.16,6.613l-30.875-.057.718-.132c3.93-1.115,6.179-3.458,8.087-6.916l19.273-.019c2.438,0,5.536-.4,7.879.113a7.439,7.439,0,0,0,1.039-4.176c0-2.381-.642-5.517-2.4-7.275a4.764,4.764,0,0,0-.907-.85,6.317,6.317,0,0,0-1.7-.076l-3.911-.019-21.616.038-.963-.6-.057-.359.151.132c.907.756,10.109.265,11.772.283a51.755,51.755,0,0,0,5.4.094l1.625-.038c.624-.057,1.209.113,1.814.057.794-.076,1.587.019,2.362-.038a6.415,6.415,0,0,1,.85-.038l1.171.038a9.028,9.028,0,0,0,1.89-.019l.3-.038a2.117,2.117,0,0,1,1.739.775l.151.151-.038-.17a7.123,7.123,0,0,0-2.494-2.173,2.887,2.887,0,0,1-1.191-.945Z" transform="translate(-1552.527 -730.323)" fill="#3258bf"/>
    <path id="Path_46034" data-name="Path 46034" d="M1580.5,973.255l31.952.076H1622.6a49.431,49.431,0,0,0,5.291-.038l30.875.057,10.392-.038a24.242,24.242,0,0,1,4.384.038,2.871,2.871,0,0,1,1.3.775,2.707,2.707,0,0,1,.775,1.89,4.451,4.451,0,0,1-.907,2.23l-.265.283a29.32,29.32,0,0,1,3.25,12.565c-.378.4-.831.756-.888,1.341-.076.907-5.328,8.409-6.235,9.41l.094.151c-3.08.51-6.991.038-10.147-.019-.888-.019-2.532-.227-3.288.189l-.51-1.833a12.559,12.559,0,0,1-4.119.113l-.246-.094a2.978,2.978,0,0,0-.6,1.795l-60.37.132a20.9,20.9,0,0,0-2.664,0l-5.517.019c2.324-1.89,5.272-4.044,6.9-6.557l.151-.227a6.908,6.908,0,0,0-.34-2.135l-.926-2.929-1.4-3.193-3.817-7.9-1.833-3.212Z" transform="translate(-1349.197 -826.089)" fill="#fae7c6"/>
    <path id="Path_46035" data-name="Path 46035" d="M1974.137,1078.038l7.369-.038-.057,3.288-8.314.17-.642-2.267-.548.019-.245-.264.075-.51C1972.418,1077.943,1973.419,1078.529,1974.137,1078.038Z" transform="translate(-1666.479 -911.058)" fill="#fefefe"/>
    <path id="Path_46036" data-name="Path 46036" d="M2054.677,1056.023c-.831-1.417-.472-13.51-.416-16.023a39.321,39.321,0,0,0,6.651,6.613C2060.836,1047.539,2055.584,1055.022,2054.677,1056.023Z" transform="translate(-1733.339 -880.233)" fill="#d9e8f8"/>
    <path id="Path_46037" data-name="Path 46037" d="M2057.936,1001.4a29.322,29.322,0,0,1,3.25,12.565c-.378.4-.831.756-.888,1.342a37.994,37.994,0,0,1-6.651-6.613c-.529-1.946-.189-4.516-.132-6.538A8.714,8.714,0,0,0,2057.936,1001.4Z" transform="translate(-1732.705 -848.963)" fill="#69bfb5"/>
    <path id="Path_46038" data-name="Path 46038" d="M1630.1,1078.034c.907-.68,9.145-.359,10.733-.359l37.45.151,18.8-.113c-.718.472-1.719-.094-2.362.4l-.075.51.245.265a15.266,15.266,0,0,1-.812,2.192l-63.488-.3-.151-.586A6.934,6.934,0,0,0,1630.1,1078.034Z" transform="translate(-1389.425 -910.733)" fill="#f8eadc"/>
    <path id="Path_46039" data-name="Path 46039" d="M1617.8,1047.176l76.639-.076-.019,3.307-75.221-.038Z" transform="translate(-1379.449 -886.021)" fill="#f8eadc"/>
    <path id="Path_46040" data-name="Path 46040" d="M1666.1,1084.319l.548-.019.642,2.267.831,3.874a12.554,12.554,0,0,1-4.119.113l-.245-.094a2.978,2.978,0,0,0-.6,1.795l-60.37.132a20.882,20.882,0,0,0-2.664,0l-5.517.019c2.324-1.889,5.272-4.044,6.9-6.557l.151-.227.151.586,63.488.3A15.264,15.264,0,0,0,1666.1,1084.319Z" transform="translate(-1360.633 -916.15)" fill="#fae7c6"/>
    <path id="Path_46041" data-name="Path 46041" d="M1964,1084.319l.548-.019.642,2.267.832,3.874a12.553,12.553,0,0,1-4.119.113l1.285-4.044A15.307,15.307,0,0,0,1964,1084.319Z" transform="translate(-1658.531 -916.155)" fill="#2d3684"/>
    <path id="Path_46042" data-name="Path 46042" d="M1580.5,973.255l31.952.076H1622.6a49.431,49.431,0,0,0,5.291-.038l30.875.057,10.392-.038a24.242,24.242,0,0,1,4.384.038,2.871,2.871,0,0,1,1.3.775,2.707,2.707,0,0,1,.775,1.89,4.451,4.451,0,0,1-.907,2.23l-.265.283c-1.4.812-2.872.737-4.44.775l-86.238.057-1.833-3.212Z" transform="translate(-1349.197 -826.151)" fill="#ec605f"/>
    <path id="Path_46043" data-name="Path 46043" d="M1580.5,973.255l31.952.076H1622.6a49.431,49.431,0,0,0,5.291-.038l30.875.057,10.392-.038a24.242,24.242,0,0,1,4.384.038,2.871,2.871,0,0,1,1.3.775,2.707,2.707,0,0,1,.775,1.89,4.451,4.451,0,0,1-.907,2.23l-1.039-1.8c-1.682-.794-24.507-.3-27.681-.3l-64.073-.019Z" transform="translate(-1349.197 -826.154)" fill="#de4550"/>
    <path id="Path_46044" data-name="Path 46044" d="M1612.38,1118.614a3.106,3.106,0,0,1,.6-1.8l.246.095a12.556,12.556,0,0,0,4.119-.114l.51,1.833c.737-.416,2.4-.189,3.288-.189,3.174.057,7.067.529,10.147.019l.926.094c1.379.019,3.515-.265,4.554.756a2.71,2.71,0,0,1,.793,1.776,2.463,2.463,0,0,1-1.02,1.625l-.246.132a2.243,2.243,0,0,1-1.322.68l-.567,5.971-.227,3.571a20.984,20.984,0,0,1-1.247,4.629l-2.589,7.728a20.227,20.227,0,0,0-1.3,3.911l-2.23.038-8.8.057-2.778-.076h-9.807l-1-.019-1.776-.019-6.954-.076-1.852-.057a15.259,15.259,0,0,0-4.554-.284l-9.485.038-23.676.057-.265.321-.151-2.759a23.438,23.438,0,0,0-.793-3,18.244,18.244,0,0,0-1.644-3.118,32.426,32.426,0,0,0-3.174-3.269,21.245,21.245,0,0,0-4.781-2.362,20.117,20.117,0,0,0-6.557-.34c-.076-1.36.038-2.608-.775-3.76a2.578,2.578,0,0,1-.529-1.776l3.911-.17-9.372-.227c1.587-1.341,3.5-3.609,5.366-4.421l.321-1.1c.189-.416.378-.491.755-.737,1.55-.869,3.042-2.627,4.61-3.307a7.255,7.255,0,0,1,1.568,0l5.385-.019a3.825,3.825,0,0,0,2.022-.227Z" transform="translate(-1309.862 -942.402)" fill="#ec605f"/>
    <path id="Path_46045" data-name="Path 46045" d="M1938.3,1149.089l.17-.416a4.964,4.964,0,0,1,2.532-.151l-.151.68-.227.17-2.211.075Z" transform="translate(-1639.391 -968.137)" fill="#ec5334"/>
    <path id="Path_46046" data-name="Path 46046" d="M1915.1,1134.125l1.077-4.025c.718,1.153,1.436,3.193,2.267,4.119l.113.359,2.211-.075c-.246,1.927-.019,4.025-.378,5.9l-.17,1.266a28.155,28.155,0,0,0-6.065.453l-.359-3.25A10.927,10.927,0,0,1,1915.1,1134.125Z" transform="translate(-1619.52 -953.248)" fill="#fefefe"/>
    <path id="Path_46047" data-name="Path 46047" d="M1938.9,1153.476l2.211-.076c-.245,1.927-.019,4.025-.378,5.9C1940.865,1157.122,1939.845,1155.365,1938.9,1153.476Z" transform="translate(-1639.877 -972.146)" fill="#fbcf3e"/>
    <path id="Path_46048" data-name="Path 46048" d="M1842.419,1140.606l.208-1.606h.34l1.455,2.286,12.754.076a11.488,11.488,0,0,0-1.323,4.724l-7.653.132c.227.321.265.265.227.661-.057.661.869,1.946,1.209,2.532l-2.059.567a24.866,24.866,0,0,1-5.14.794,33.608,33.608,0,0,0,.038-4.365l-.075-4.478Z" transform="translate(-1561.611 -960.46)" fill="#1a89b7"/>
    <path id="Path_46049" data-name="Path 46049" d="M1842.419,1140.606l.208-1.606h.34l1.455,2.286c.7.85,1.417,1.7,2.041,2.626a9.581,9.581,0,0,0,1.738,2.324c.227.321.265.265.227.661-.057.661.869,1.946,1.209,2.532l-2.059.567a24.85,24.85,0,0,1-5.14.794,33.609,33.609,0,0,0,.038-4.365l-.075-4.478Z" transform="translate(-1561.611 -960.46)" fill="#fefefe"/>
    <path id="Path_46050" data-name="Path 46050" d="M1848.525,1176.632l7.652-.132.359,3.25.926,18.026-1-.019-1.776-.019-6.953-.076-.983-3.061-.756-2.872a27.977,27.977,0,0,1-.831-2.8l-.964-3.42-.869-2.457-.529-1.833a24.878,24.878,0,0,0,5.14-.793l2.059-.567c-.359-.6-1.266-1.89-1.209-2.532C1848.789,1176.9,1848.752,1176.953,1848.525,1176.632Z" transform="translate(-1561.935 -990.812)" fill="#d9e8f8"/>
    <path id="Path_46051" data-name="Path 46051" d="M1872.041,1194.1l6.481,17.913-1.776-.019-.831-.3L1870,1194.667Z" transform="translate(-1583.996 -1005.084)" fill="#c63140"/>
    <path id="Path_46052" data-name="Path 46052" d="M1842.7,1197.994a24.873,24.873,0,0,0,5.14-.794l5.914,17.025.831.3-6.954-.076-.983-3.061-.755-2.872a28.014,28.014,0,0,1-.832-2.8l-.964-3.42-.869-2.457Z" transform="translate(-1561.854 -1007.598)" fill="#de4550"/>
    <path id="Path_46053" data-name="Path 46053" d="M1923.417,1118.614a3.107,3.107,0,0,1,.6-1.8l.245.095a12.557,12.557,0,0,0,4.119-.114l.51,1.833.737,3.93.17,1.266-.132.189-1.663.283-1.776,25.036h-9.806l-.926-18.026a28.179,28.179,0,0,1,6.065-.453l.17-1.266c.359-1.87.132-3.968.378-5.9l.227-.17.151-.68A17.312,17.312,0,0,0,1923.417,1118.614Z" transform="translate(-1620.899 -942.402)" fill="#fd9157"/>
    <path id="Path_46054" data-name="Path 46054" d="M1952.858,1118.614a3.109,3.109,0,0,1,.6-1.8l.246.095a12.557,12.557,0,0,0,4.119-.114l.51,1.833.737,3.93.17,1.266-.132.189c-1.379,0-3.382.246-4.686-.151l-.3-.094a.916.916,0,0,1-.34.132,2.5,2.5,0,0,1-1.984-.378l.151-.68A18.194,18.194,0,0,0,1952.858,1118.614Z" transform="translate(-1650.34 -942.486)" fill="#fefefe"/>
    <path id="Path_46055" data-name="Path 46055" d="M1915.5,1191.753a28.163,28.163,0,0,1,6.065-.453l-1.19,18.46h-3.949Z" transform="translate(-1620.899 -1002.813)" fill="#fec237"/>
    <path id="Path_46056" data-name="Path 46056" d="M1538.162,1145.9c4.516.68,9.561.283,14.134.283l24.148-.019c4.629-.019,9.353-.227,13.982.057v1.342l.075,4.478c-.132.113-.227.264-.4.321a9.744,9.744,0,0,1-1.965,0h-6.689l-40.379-.019-9.372-.227c1.587-1.342,3.5-3.609,5.366-4.421l.321-1.1C1537.6,1146.2,1537.8,1146.146,1538.162,1145.9Z" transform="translate(-1309.618 -966.067)" fill="#2ba8c6"/>
    <path id="Path_46057" data-name="Path 46057" d="M1561.277,1145.9c4.516.68,9.561.283,14.134.283l24.148-.019c4.629-.019,9.353-.227,13.982.057v1.342l-37.469.057-10.43.057a47.662,47.662,0,0,1-5.442.057l.321-1.1C1560.71,1146.2,1560.918,1146.146,1561.277,1145.9Z" transform="translate(-1332.733 -966.081)" fill="#de4550"/>
    <path id="Path_46058" data-name="Path 46058" d="M1564.692,1178.8l40.379.019h6.689a9.749,9.749,0,0,0,1.965,0c.151-.057.265-.227.4-.321a33.638,33.638,0,0,1-.038,4.365l.529,1.833.869,2.456-33.6-.132c-1.606,0-7.2-.4-8.446.208a21.256,21.256,0,0,0-4.78-2.362,20.118,20.118,0,0,0-6.557-.34c-.076-1.361.038-2.608-.775-3.76a2.578,2.578,0,0,1-.529-1.776Z" transform="translate(-1333.22 -992.475)" fill="#fae7c6"/>
    <path id="Path_46059" data-name="Path 46059" d="M1648.253,1210.8l.869,2.456-33.6-.132c-1.606,0-7.2-.4-8.446.208a21.248,21.248,0,0,0-4.781-2.362,23.306,23.306,0,0,1,5.007-.208h8.106Z" transform="translate(-1366.878 -1018.612)" fill="#faddb4"/>
    <path id="Path_46060" data-name="Path 46060" d="M1627.6,1223.159c1.247-.6,6.84-.208,8.446-.208l33.6.132.964,3.42a28.036,28.036,0,0,0,.831,2.8l.756,2.872.983,3.061-1.852-.057a15.257,15.257,0,0,0-4.554-.283l-9.485.038-23.676.057-.265.321-.151-2.759a23.456,23.456,0,0,0-.794-3,18.218,18.218,0,0,0-1.644-3.118A28.661,28.661,0,0,0,1627.6,1223.159Z" transform="translate(-1387.398 -1028.376)" fill="#f8eadc"/>
    <path id="Path_46061" data-name="Path 46061" d="M1684.15,1241.975a27.973,27.973,0,0,0,.832,2.8h-35.617a9.376,9.376,0,0,0-3.42.246,18.185,18.185,0,0,0-1.644-3.118Z" transform="translate(-1400.942 -1043.864)" fill="#faddb4"/>
    <path id="Path_46062" data-name="Path 46062" d="M1653.1,1257.124a9.771,9.771,0,0,1,3.42-.246h35.617l.756,2.872.983,3.061-1.852-.057a15.266,15.266,0,0,0-4.554-.283l-9.485.038-23.676.057-.265.321-.151-2.759A26.965,26.965,0,0,0,1653.1,1257.124Z" transform="translate(-1408.079 -1055.789)" fill="#f8eadc"/>
    <path id="Path_46063" data-name="Path 46063" d="M1696.2,1272.3l.983,3.061-1.852-.057a15.257,15.257,0,0,0-4.554-.283l-9.485.038-23.676.057-.265.321-.151-2.759h32.2c.888,0,5.876.246,6.405-.019C1695.973,1272.584,1696.067,1272.413,1696.2,1272.3Z" transform="translate(-1411.405 -1068.32)" fill="#faddb4"/>
    <path id="Path_46064" data-name="Path 46064" d="M1975.126,1125.424c.737-.416,2.4-.189,3.288-.189,3.175.057,7.067.529,10.147.019l.926.095c1.379.019,3.514-.265,4.554.756a2.709,2.709,0,0,1,.793,1.776,2.462,2.462,0,0,1-1.02,1.625l-.246.132a2.245,2.245,0,0,1-1.323.68l-.567,5.971-.227,3.571a20.988,20.988,0,0,1-1.247,4.629l-2.589,7.728a20.234,20.234,0,0,0-1.3,3.911l-2.23.038-8.805.057-2.777-.076,1.776-25.036,1.663-.284.132-.189-.17-1.266Z" transform="translate(-1667.128 -949.192)" fill="#ec605f"/>
    <path id="Path_46065" data-name="Path 46065" d="M1991.732,1151.265a3,3,0,0,1,.435-.416c.283-.17,7.974-.019,8.843-.038a32.773,32.773,0,0,1,5.1.189l1.587.057-.567,5.971-.227,3.571-1.152-.34-.642-1.039c-1.02.076-1.511-1.228-2.23-1.039-.246.057-.6.7-.869.812a4.428,4.428,0,0,1-1,0c-1.927-.51-4.894-.113-6.916-.076a6.393,6.393,0,0,1-2.4-.151l-.094-.756.094-2.4Z" transform="translate(-1682.619 -970.001)" fill="#1a89b7"/>
    <path id="Path_46066" data-name="Path 46066" d="M1991.776,1176.032c1.738-.114,3.911.34,5.574-.132,1.4.453,3.514.17,5.007.17a8.6,8.6,0,0,0-1.153,2.91l-.095.416c-1.927-.51-4.894-.113-6.916-.076a6.4,6.4,0,0,1-2.4-.151l-.094-.756Z" transform="translate(-1682.7 -990.385)" fill="#fab76f"/>
    <path id="Path_46067" data-name="Path 46067" d="M2046.5,1152.1l1.587.057-.567,5.971-.227,3.571-1.152-.34-.643-1.039c-1.02.076-1.511-1.228-2.23-1.039-.245.057-.6.7-.869.813a4.435,4.435,0,0,1-1,0l.094-.416a8.456,8.456,0,0,1,1.152-2.91,10.53,10.53,0,0,1,.68-1.814l-.018.756.321-.076c.586-.68,1.039-1,1.134-1.89a1.218,1.218,0,0,1-.416-.812l.4-.265.019.265c.094.4.227.416.567.586Z" transform="translate(-1723.009 -971.081)" fill="#fefefe"/>
    <path id="Path_46068" data-name="Path 46068" d="M1987.1,1208.233l.85-18.933.094.756a6.806,6.806,0,0,0,2.4.151c2.022-.038,5.007-.434,6.916.076a4.435,4.435,0,0,0,1,0c.265-.113.623-.737.869-.812.718-.189,1.209,1.115,2.23,1.039l.642,1.039,1.153.34a21,21,0,0,1-1.247,4.629l-2.589,7.728a20.218,20.218,0,0,0-1.3,3.911l-2.229.038Z" transform="translate(-1678.97 -1001.191)" fill="#fdb532"/>
    <path id="Path_46069" data-name="Path 46069" d="M2039.917,1201.1l1.152.34a20.985,20.985,0,0,1-1.247,4.629l-2.589,7.728a20.239,20.239,0,0,0-1.3,3.911l-2.23.038,3.647-9.523a46.969,46.969,0,0,0,2.135-6.519C2039.539,1201.364,2039.652,1201.345,2039.917,1201.1Z" transform="translate(-1716.765 -1010.76)" fill="#fab76f"/>
    <path id="Path_46070" data-name="Path 46070" d="M1043.233,369.2c7.785,2.079,14.946,7.35,22.958,8.5,8.049-.246,15.286-5.933,22.825-8.314a37.772,37.772,0,0,1,.926,8.484c3.949,4.119,4.7,10.657,5.253,16.061.4,4.006.737,8.03,1.474,11.979a22.242,22.242,0,0,0,1.417,8.371c1.039,2.683,2.607,5.1,3.817,7.69a21.68,21.68,0,0,1,2.135,9.977l-.416.246-2.7-.34-5.215-.491-.189-.189-16.646-1.606a7.812,7.812,0,0,1-.416-2.759l-.737-7.161c-3.949,2.456-8.257,4.1-12.943,2.948a23.2,23.2,0,0,1-5.668-2.456,25.178,25.178,0,0,0-.453,2.872c-.265,1.795-.3,4.686-1.058,6.292l-7.161.831-4.761.642-4.875.718-3.477.491-4.762.642-1.908.265c-1.625-8.522,1.152-16.136,7.6-21.862.529-.472,2.834-1.984,3.042-2.475a12.345,12.345,0,0,0-.246-2.1l-1.02-8.276c-.68-7.955-.473-15.589,2.305-23.128A27.8,27.8,0,0,1,1043.233,369.2Z" transform="translate(-902.873 -336.862)" fill="#0e1b62"/>
    <path id="Path_46071" data-name="Path 46071" d="M1110.382,607.8l.378.435c-2.456,3.552-4.591,7.539-3.8,12.036.17.926.7,2.645,1.493,3.193l.283.17-4.762.642-.454-.756a8.4,8.4,0,0,1-1.115-6.878,12.408,12.408,0,0,1,4.573-6.972C1108.039,608.934,1109.267,608.442,1110.382,607.8Z" transform="translate(-961.197 -530.046)" fill="#2d3684"/>
    <path id="Path_46072" data-name="Path 46072" d="M1348.081,609.344c.907-1.039.756-4.044.642-5.442-.435-5.669-4.913-10-7.123-15,5.593,3.666,10.374,7.879,11.809,14.776a20.445,20.445,0,0,1,.094,6.349l-5.215-.491Z" transform="translate(-1155.438 -514.726)" fill="#2d3684"/>
    <path id="Path_46073" data-name="Path 46073" d="M1042.7,601.472a33.085,33.085,0,0,1,1.606-8.975c2.173-6.179,6.727-10.77,11.469-15.1a21.826,21.826,0,0,1-1.87,5.952c-.831,1.663-1.984,3.155-2.929,4.742a25.644,25.644,0,0,0-3.364,8.389,25.214,25.214,0,0,0-.151,4.308Z" transform="translate(-913.015 -505.404)" fill="#2d3684"/>
    <path id="Path_46074" data-name="Path 46074" d="M1130.925,610.1a27.911,27.911,0,0,0,6.67,5.4,25.2,25.2,0,0,0-.453,2.872c-.265,1.8-.3,4.686-1.058,6.292l-7.161.831-.284-.17c-.812-.529-1.342-2.267-1.493-3.193C1126.334,617.639,1128.469,613.652,1130.925,610.1Z" transform="translate(-981.363 -531.911)" fill="#0e1b62"/>
    <path id="Path_46075" data-name="Path 46075" d="M1220.7,378.514c8.049-.246,15.286-5.933,22.825-8.314a37.786,37.786,0,0,1,.926,8.484l-.661-.17a42.786,42.786,0,0,1-22.693,6.632C1221.3,383.786,1221.248,379.723,1220.7,378.514Z" transform="translate(-1057.382 -337.673)" fill="#2d3684"/>
    <path id="Path_46076" data-name="Path 46076" d="M1095.307,369.2c7.785,2.079,14.946,7.35,22.958,8.5.529,1.209.586,5.272.4,6.632a47.9,47.9,0,0,1-9.58-.812c-3.987-.794-9.636-2.362-12.527-5.347a20.047,20.047,0,0,1-2.154-3.137A27.824,27.824,0,0,1,1095.307,369.2Z" transform="translate(-954.946 -336.862)" fill="#353f9c"/>
    <path id="Path_46077" data-name="Path 46077" d="M1103.221,466.955a29.342,29.342,0,0,1,.85-5.1c.642-2.173,1.965-4.025,2.929-6.046.4-.85.964-2.721,1.644-3.307,7.728,7.123,19.2,9.674,29.439,9.24l4.289-.246c.113,1.209.076,3.666.548,4.7.416-1.36.831-3.987,1.776-4.894a3.462,3.462,0,0,1,2.626,1.4,5.274,5.274,0,0,1,1.172,4.157,9.752,9.752,0,0,1-3.4,6.122,4.913,4.913,0,0,1-2.816.869,26.456,26.456,0,0,0-1.379,3.609,23.516,23.516,0,0,1-8.333,9.731c-3.949,2.456-8.257,4.1-12.943,2.948a23.2,23.2,0,0,1-5.668-2.456,27.83,27.83,0,0,1-6.67-5.4l-.378-.435a20.073,20.073,0,0,1-3.59-8.163l-1.984-.472a5.2,5.2,0,0,1-2.721-2.967,8.771,8.771,0,0,1-.246-6.632,2.677,2.677,0,0,1,1.549-1.587.819.819,0,0,1,.85.113c.983.529,1.172,2.589,1.493,3.628A8.307,8.307,0,0,0,1103.221,466.955Z" transform="translate(-957.721 -404.195)" fill="#fab76f"/>
    <path id="Path_46078" data-name="Path 46078" d="M1219.67,620.5a7.293,7.293,0,0,0,3.552.095l.4-.095a7.754,7.754,0,0,1-.321,1.3,2.822,2.822,0,0,1-1.984.472,2.254,2.254,0,0,1-1.814-.964Z" transform="translate(-1056.409 -540.356)" fill="#ec605f"/>
    <path id="Path_46079" data-name="Path 46079" d="M1220.025,556a1.645,1.645,0,0,1,1,.813,2.445,2.445,0,0,1,.208,1.927,2.382,2.382,0,0,1-1.36,1.53l-.7-.019c-.453-.265-.586-.284-.775-.794l1.1-.831C1220.12,558.06,1220.006,556.794,1220.025,556Z" transform="translate(-1055.517 -488.09)" fill="#fd9157"/>
    <path id="Path_46080" data-name="Path 46080" d="M1113.833,522.7a7.064,7.064,0,0,0,.945,1.19c-.51,1.171.284,2.929-.416,3.987a3.948,3.948,0,0,1-1.021-.4,2.829,2.829,0,0,1-1.266-1.927C1111.982,524.438,1113.115,523.437,1113.833,522.7Z" transform="translate(-969.278 -461.107)" fill="#f19a48"/>
    <path id="Path_46081" data-name="Path 46081" d="M1275.78,531.348a5.512,5.512,0,0,1,1.115-.057,2.8,2.8,0,0,1,.964.718,2.213,2.213,0,0,1-.812,3.269,1.593,1.593,0,0,1-.321.076,1.842,1.842,0,0,1-1.644-.68,2.489,2.489,0,0,1-.435-1.7A2.4,2.4,0,0,1,1275.78,531.348Z" transform="translate(-1101.125 -468.067)" fill="#0e1b62"/>
    <path id="Path_46082" data-name="Path 46082" d="M1165.928,530.135a1.252,1.252,0,0,1,.473-.057,1.857,1.857,0,0,1,1.379.983,2.268,2.268,0,0,1,.321,1.738,2.11,2.11,0,0,1-1.153,1.549l-.4.057a2.1,2.1,0,0,1-1.719-.756,3.277,3.277,0,0,1-.265-2.116A2.729,2.729,0,0,1,1165.928,530.135Z" transform="translate(-1011.812 -467.082)" fill="#0e1b62"/>
    <path id="Path_46083" data-name="Path 46083" d="M1155.741,502.731c1.474-.132,3.741-.265,5.083.378a1.549,1.549,0,0,1,1.039,1.19l-.378.586a3.831,3.831,0,0,1-2.324-.3,8.016,8.016,0,0,0-4.61.453l-.208.076c-.491-.4-.548-.359-.642-1.02A3.616,3.616,0,0,1,1155.741,502.731Z" transform="translate(-1003.042 -444.84)" fill="#0e1b62"/>
    <path id="Path_46084" data-name="Path 46084" d="M1260.749,503.859a10.756,10.756,0,0,1,5.366.454,1.857,1.857,0,0,1,1.172,1.115l-.265.586a3.364,3.364,0,0,1-2.286-.3c-1.908-.3-3.137.113-4.95.4-.68.113-.7.076-1.247-.321l-.038-.812.6-.624Z" transform="translate(-1088.04 -445.741)" fill="#0e1b62"/>
    <path id="Path_46085" data-name="Path 46085" d="M1336.875,517.971a1.712,1.712,0,0,1,.624-.038,1.623,1.623,0,0,1,.888.416,2.259,2.259,0,0,1,.586,1.833,5.569,5.569,0,0,1-2.607,3.344l-1.644.34-.321-.359a15.933,15.933,0,0,0,.964-4.5A2.3,2.3,0,0,1,1336.875,517.971Z" transform="translate(-1149.598 -457.231)" fill="#f19a48"/>
    <path id="Path_46086" data-name="Path 46086" d="M1200.773,597.709a8.315,8.315,0,0,1-4.5-4.951,1.218,1.218,0,0,1-.076-.359l12.773.132a9.668,9.668,0,0,1-4.251,5.177l-.4.094A7.3,7.3,0,0,1,1200.773,597.709Z" transform="translate(-1037.511 -517.582)" fill="#fefefe"/>
    <path id="Path_46087" data-name="Path 46087" d="M464.739,1127.819l11.828-.019v2.891l-.491.359c-1.341.831-2.324,4.157-2.626,5.688l-.038.283-.113.7.076,1.7-.057.831c.416,1.55.888,3.647,2.192,4.686l.907.964.624-.019a4.245,4.245,0,0,1,.227,2.249c-.888.548-3.023.227-4.119.208-.208,1.474-1.19,2.532-1.719,3.873l-.51,1.379c-.831,4.119-.642,7.728,1.738,11.337a11.817,11.817,0,0,0,2.343,2.853,27.527,27.527,0,0,0,3.042,3.08,41.625,41.625,0,0,1,6.235,4.4l-57.63.019-22.674-.17-1.039-1.285.094-1.89c-.567-.3,6.084-.491,5.914-1.077v-19.67a12.381,12.381,0,0,1,1.568,1.02c3.93.132-6.783-18.139-3.061-19.311l3.212,3.855a4.747,4.747,0,0,0-.151-1.927l-1.568-2.154c.7-.529.813-.586,1.058-1.417l-.586-.359a7.016,7.016,0,0,1,.038-2.872l3.911-.038,17.1.038,1.039.057a16.982,16.982,0,0,1,2.778-.057l5.669-.057h7.5l.7-.094Z" transform="translate(-386.846 -951.123)" fill="#f8eadc"/>
    <path id="Path_46088" data-name="Path 46088" d="M498.394,1313.052c2.645-.472,6.028-.113,8.748-.113l23.487.094,7.558.057a10.029,10.029,0,0,1,3.288.189l-.057.453a17.933,17.933,0,0,1-3.5.113l-6.387.019c-4.289,0-31.706.378-33.237-.265Z" transform="translate(-471.48 -1101.174)" fill="#fae7c6"/>
    <path id="Path_46089" data-name="Path 46089" d="M516.551,1355.586a41.61,41.61,0,0,1,6.235,4.4l-57.573.019-22.674-.17-1.039-1.285.094-1.89.265-.265c1.209-1.209,3.779-.756,5.442-.756Z" transform="translate(-425.413 -1135.847)" fill="#1a89b7"/>
    <path id="Path_46090" data-name="Path 46090" d="M435.8,1239.677a7.576,7.576,0,0,0-2.409-.293h-.378c-1.342.019-5.121.491-6.141-.359a2.316,2.316,0,0,1-.869-2,2.586,2.586,0,0,1,.567-1.021c1.228-1.19,5.423-.567,7.1-.491l2.91.019,62.543-.038c-.208,1.474-1.19,2.532-1.719,3.873l-.51,1.379a21.421,21.421,0,0,0-4.119-.019l-10.147.3-30.875.227-11.9-.151c-1.285-.019-3.609-.4-4.743.151-.208.359.526-1.433.394-1.036Z" transform="translate(-412.842 -1038.491)" fill="#1a89b7"/>
    <path id="Path_46091" data-name="Path 46091" d="M470.675,1258.821,469.9,1257h63.072l-.51,1.379a21.432,21.432,0,0,0-4.119-.019l-10.147.3-30.875.227-11.9-.151c-1.285-.019-3.609-.4-4.743.151C470.675,1258.89,470.807,1258.424,470.675,1258.821Z" transform="translate(-448.447 -1055.911)" fill="#fae7c6"/>
    <path id="Path_46094" data-name="Path 46094" d="M414.934,1154.7l3.212,3.854.189,5.5a5.346,5.346,0,0,1-1.1.227,14.159,14.159,0,0,0-4.214.453,73.52,73.52,0,0,0-9.826-7.955A36.019,36.019,0,0,0,414.934,1154.7Z" transform="translate(-394.35 -973.187)" fill="#fefefe"/>
    <path id="Path_46095" data-name="Path 46095" d="M529.1,1127.819l11.828-.019v2.891l-.491.359c-1.342.831-2.324,4.157-2.626,5.688l-.038.283-.113.7.076,1.7-.057.831c.416,1.55.888,3.647,2.192,4.686l.907.964.624-.019a4.245,4.245,0,0,1,.227,2.249c-.888.548-3.023.227-4.119.208l-62.562.019.038-2.343a12.664,12.664,0,0,0-.019-3.382l-.85-.17a5.371,5.371,0,0,0,1.1-.227l-.189-5.5a4.747,4.747,0,0,0-.151-1.927l-1.568-2.154c.7-.529.813-.586,1.058-1.417l-.586-.359a7.015,7.015,0,0,1,.038-2.872l3.911-.038,17.1.038,1.039.057a16.982,16.982,0,0,1,2.778-.057l5.669-.057h7.5l.7-.095Z" transform="translate(-451.204 -951.357)" fill="#f8eadc"/>
    <path id="Path_46096" data-name="Path 46096" d="M474.358,1145.919l.567-.019a17.5,17.5,0,0,1-.057,3.59l-1.568-2.154A2.124,2.124,0,0,0,474.358,1145.919Z" transform="translate(-451.204 -966.076)" fill="#fefefe"/>
    <path id="Path_46097" data-name="Path 46097" d="M560.372,1175.689l-.038.019c-2.551.265-46.9-.094-47.162-.208a2.223,2.223,0,0,1-.472-.359l.227-.416a34.031,34.031,0,0,1,5.007-.019l9.9.057,16.193.057c3.155.019,6.405-.113,9.542.17h16.155l-.113.7Z" transform="translate(-483.16 -989.35)" fill="#faddb4"/>
    <path id="Path_46098" data-name="Path 46098" d="M573.667,1188.386l-15.759-.019-30.761-.246c-1.247,0-8.56.189-9.107-.075a1.815,1.815,0,0,1-.34-.321l.265-.4c2.059-.189,4.195-.095,6.254-.095h11.243l34.673.132a21.076,21.076,0,0,1,3.137-.17,2.7,2.7,0,0,1,.453.359Z" transform="translate(-487.215 -999.505)" fill="#faddb4"/>
    <path id="Path_46099" data-name="Path 46099" d="M547.793,1223.419l.623-.019a4.244,4.244,0,0,1,.227,2.249c-.888.548-3.023.227-4.119.208l-62.524.038.038-2.343Z" transform="translate(-458.26 -1028.876)" fill="#de4550"/>
    <path id="Path_46100" data-name="Path 46100" d="M530.5,1127.819l11.828-.019v2.891l-.491.359-65.509.17-.567.019-.586-.359a7.018,7.018,0,0,1,.038-2.872l3.911-.038,17.1.038,1.039.057a16.982,16.982,0,0,1,2.778-.057l5.668-.057h7.5l.7-.095Z" transform="translate(-452.605 -951.41)" fill="#de4550"/>
    <path id="Path_46101" data-name="Path 46101" d="M914.351,636l.737,7.161a8.2,8.2,0,0,0,.416,2.759l16.647,1.606.189.189,5.215.491,2.7.34,1.568.208c1.53.567,4.27,1.436,5.328,2.664a22.353,22.353,0,0,1,2.608,4.7l4.724,9.542L964.8,686.847l4.516,9.863a7.074,7.074,0,0,0,.831,1.644l.132-.831a4.827,4.827,0,0,0,.548,2.192l1.4,2.872,1.833,3.212,3.817,7.9,1.4,3.193.926,2.929a6.905,6.905,0,0,1,.34,2.135l-.151.227c-1.644,2.513-4.592,4.667-6.9,6.557l5.517-.019a20.884,20.884,0,0,1,2.664,0,3.824,3.824,0,0,1-2.022.227l-5.385.019a7.253,7.253,0,0,0-1.568,0c-1.568.661-3.061,2.419-4.61,3.307-.378.246-.567.321-.756.737a9.86,9.86,0,0,0-2.078-4.535,14.481,14.481,0,0,0-10.3-6.047L952.2,725l.6-8.786,1.1-22.92a2.143,2.143,0,0,0-.718-1.719c-1-.964-3.609-.548-4.95-.529l-1.455,28.021-.529,12.187c-.038.831.113,2.8-.34,3.439-22.75,9.674-48.013,13.812-72.614,15.078-4.875.246-10.43.794-15.267.189l-1.965-.982-1.7-1.266c-1.871-2.305-4.856-4.138-7.161-6.047l-6.651-5.669c-1.719-1.323-3.307-2.834-4.913-4.27-2.721-2.475-5.366-4.686-6.5-8.352a10.518,10.518,0,0,1,.208-6.292,55.934,55.934,0,0,1,2.853-6.33l6.5-12.943,24.167-47.975,4.422-.624,1.908-.264,4.762-.642,3.477-.491,4.875-.718,4.762-.642,7.161-.831c.737-1.606.794-4.5,1.058-6.292a25.208,25.208,0,0,1,.453-2.872,24.3,24.3,0,0,0,5.669,2.456C906.075,640.1,910.4,638.456,914.351,636Z" transform="translate(-739.488 -552.639)" fill="#e4677a"/>
    <path id="Path_46102" data-name="Path 46102" d="M884,1043.65a68.456,68.456,0,0,0-8.144-2.475,76.924,76.924,0,0,0-13.661-1.115c7.577-2.853,13.963-3.137,21.484.189Z" transform="translate(-766.621 -878.508)" fill="#a93b61"/>
    <path id="Path_46103" data-name="Path 46103" d="M1482.5,1042.386l.227.51c4.214-2.267,8.465-6.009,13.623-4.5a17.767,17.767,0,0,1,3.307,1.455c-5.593.983-11.583,4.044-15,8.729l-2.759,2.57Z" transform="translate(-1269.228 -878.66)" fill="#a93b61"/>
    <path id="Path_46104" data-name="Path 46104" d="M1421.8,780.981l5.139-34.181c.7,2.778.076,6.613,0,9.5l-.718,24.7Z" transform="translate(-1220.484 -642.633)" fill="#a93b61"/>
    <path id="Path_46105" data-name="Path 46105" d="M1005.678,776.969l-.869-29.042c-.019-1-.4-5.347.076-6.028l3.42,22.221,1.247,8.673c.151,1.1.132,3.212.812,4.044v.132Z" transform="translate(-882.154 -638.661)" fill="#a93b61"/>
    <path id="Path_46106" data-name="Path 46106" d="M1243.375,688.6l16.646,1.606.189.189-2.7,9.372c-.812,2.853-1.493,6.33-3.061,8.862-.793,1.285-2.664,2.343-3.873,3.25l-9.542,7.1-7.823,6.122c-.378-2.173-.057-4.875-.057-7.1v-12.4a22.286,22.286,0,0,1,2.551-4.308l4.346-7.1A49.006,49.006,0,0,0,1243.375,688.6Z" transform="translate(-1067.379 -595.476)" fill="#fefefe"/>
    <path id="Path_46107" data-name="Path 46107" d="M1123.159,636l.737,7.161a8.2,8.2,0,0,0,.416,2.759,48.038,48.038,0,0,1-3.345,5.593l-4.346,7.1a22.262,22.262,0,0,0-2.551,4.308l-.359-.17-.019,19.991-12.49-9.769-5.366-4.195a10.283,10.283,0,0,1-2.815-2.683,40.517,40.517,0,0,1-2.513-6.462l-4.308-11.772,4.875-.718,4.762-.643,7.161-.831c.737-1.606.794-4.5,1.058-6.292a25.233,25.233,0,0,1,.453-2.872,24.293,24.293,0,0,0,5.669,2.456C1114.883,640.1,1119.21,638.456,1123.159,636Z" transform="translate(-948.296 -552.842)" fill="#fefefe"/>
    <path id="Path_46108" data-name="Path 46108" d="M1195.423,636l.737,7.161a8.193,8.193,0,0,0,.416,2.759,48.054,48.054,0,0,1-3.344,5.593l-4.346,7.1a22.28,22.28,0,0,0-2.551,4.308l-.359-.17c-.737-.378-9.656-15.286-10.676-17.1.737-1.606.794-4.5,1.058-6.292a25.2,25.2,0,0,1,.453-2.872,24.289,24.289,0,0,0,5.669,2.456C1187.147,640.1,1191.474,638.456,1195.423,636Z" transform="translate(-1020.56 -552.878)" fill="#f19a48"/>
    <path id="Path_46109" data-name="Path 46109" d="M1199.965,636l.737,7.161a8.2,8.2,0,0,0,.416,2.759,38.04,38.04,0,0,1-20.218-6.557,25.261,25.261,0,0,1,.453-2.872,24.293,24.293,0,0,0,5.669,2.456C1191.689,640.1,1196.016,638.456,1199.965,636Z" transform="translate(-1025.102 -552.904)" fill="#bf6831"/>
    <path id="Path_46110" data-name="Path 46110" d="M912.563,927l4.7-.019,73.105.057,4.421.019h2.967l-1.455,28.021-.529,12.187c-.038.831.113,2.8-.34,3.439-22.75,9.674-48.013,13.812-72.614,15.078-4.875.246-10.43.794-15.267.189l-1.965-.982-1.7-1.266c-1.871-2.305-4.856-4.138-7.161-6.046l-6.651-5.669a6.507,6.507,0,0,0-.189-1.587,8.415,8.415,0,0,1,.68-4.422,15.506,15.506,0,0,1,8.219-7.388c3.174-1.19,5.177-.6,8.125.737l-.51-5.65-.34-3.4L904.419,938a62.589,62.589,0,0,1-1.02-7.69,2.862,2.862,0,0,1,.964-2.286C906.044,926.378,910.314,927,912.563,927Z" transform="translate(-789.038 -788.449)" fill="#2d3684"/>
    <path id="Path_46111" data-name="Path 46111" d="M1201.989,1058.6a7.754,7.754,0,0,1,2.986.624,6.267,6.267,0,0,1,3.042,3.552,6.611,6.611,0,0,1-.284,4.989c-1.1,2.022-2.721,2.759-4.837,3.363a8.1,8.1,0,0,1-3.477-.6,6.235,6.235,0,0,1-3.269-3.93,6.35,6.35,0,0,1,.6-4.762C1197.983,1059.771,1199.76,1059.072,1201.989,1058.6Z" transform="translate(-1037.292 -895.313)" fill="#3258bf"/>
    <path id="Path_46112" data-name="Path 46112" d="M890.078,1105.333a6.5,6.5,0,0,0-.189-1.587,8.414,8.414,0,0,1,.68-4.422,15.505,15.505,0,0,1,8.219-7.388c3.174-1.19,5.177-.6,8.125.737l.624,26.623-1.965-.983-1.7-1.266c-1.871-2.305-4.856-4.138-7.161-6.046Z" transform="translate(-789.038 -921.754)" fill="#fab76f"/>
  </g>
</svg>
