<svg xmlns="http://www.w3.org/2000/svg" width="56.868" height="53.269" viewBox="0 0 56.868 53.269">
  <g id="Group_54747" data-name="Group 54747" transform="translate(12288.5 -2725.5)">
    <rect id="Rectangle_20590" data-name="Rectangle 20590" width="56.868" height="53.269" rx="10" transform="translate(-12288.5 2725.5)" fill="#ffffff"/>
    <g id="Group_53831" data-name="Group 53831" transform="translate(-12274.822 2737.737)">
      <g id="Group_53839" data-name="Group 53839" transform="translate(0 0)">
        <path id="Path_44007" data-name="Path 44007" d="M52.873,25.771H30.048a.189.189,0,0,1-.128-.328L41.334,14.976a.187.187,0,0,1,.257,0L53.005,25.443a.194.194,0,0,1,.049.208A.2.2,0,0,1,52.873,25.771Zm-22.342-.377H52.39L41.462,15.372Z" transform="translate(-27.674 -13.685)" fill="#656d78"/>
        <path id="Path_44010" data-name="Path 44010" d="M40.477,36.231V53.982a1.97,1.97,0,0,1-1.971,1.971H13.571A1.97,1.97,0,0,1,11.6,53.982V36.231a1.97,1.97,0,0,1,1.971-1.971H38.506A1.97,1.97,0,0,1,40.477,36.231Z" transform="translate(-11.6 -27.597)" fill="#158ed8"/>
        <path id="Path_44011" data-name="Path 44011" d="M40.477,36.231V53.982a1.97,1.97,0,0,1-1.971,1.971H13.571A1.97,1.97,0,0,1,11.6,53.982V36.231a1.972,1.972,0,0,1,1.971-1.971H38.506a1.936,1.936,0,0,1,1.047.3A1.964,1.964,0,0,1,40.477,36.231Z" transform="translate(-11.6 -27.597)" fill="#158ed8"/>
        <path id="Path_44012" data-name="Path 44012" d="M42.273,37V54.747A1.97,1.97,0,0,1,40.3,56.718H15.367a1.97,1.97,0,0,1-1.257-.452L41.349,35.33A1.964,1.964,0,0,1,42.273,37Z" transform="translate(-13.396 -28.363)" fill="#015ed4"/>
        <circle id="Ellipse_2031" data-name="Ellipse 2031" cx="1.246" cy="1.246" r="1.246" transform="translate(12.543 0.185)" fill="#656d78"/>
        <path id="Path_44014" data-name="Path 44014" d="M58.234,14.509a1.434,1.434,0,1,1,1.434-1.434A1.436,1.436,0,0,1,58.234,14.509Zm0-2.5a1.057,1.057,0,1,0,1.057,1.057A1.058,1.058,0,0,0,58.234,12.014Z" transform="translate(-44.445 -11.64)" fill="#656d78"/>
        <path id="Path_44015" data-name="Path 44015" d="M44.129,44.047V58.291A1.315,1.315,0,0,1,42.815,59.6H21.384a1.25,1.25,0,0,1-.387-.06,1.312,1.312,0,0,1-.927-1.254V44.047a1.315,1.315,0,0,1,1.314-1.317H42.815a.38.38,0,0,1,.057,0A1.313,1.313,0,0,1,44.129,44.047Z" transform="translate(-17.661 -33.658)" fill="#fff"/>
        <path id="Path_44018" data-name="Path 44018" d="M32,69.009a.264.264,0,0,1-.077-.193V68H30.09a.346.346,0,0,1-.247-.1.326.326,0,0,1-.1-.245V67.6a.33.33,0,0,1,.071-.216L31.7,64.971a.312.312,0,0,1,.128-.105.4.4,0,0,1,.171-.04h.119a.336.336,0,0,1,.35.35v2.332h.458a.243.243,0,0,1,.245.245.223.223,0,0,1-.071.171.243.243,0,0,1-.173.068h-.458v.819a.252.252,0,0,1-.082.193.275.275,0,0,1-.2.077A.229.229,0,0,1,32,69.009Zm-1.675-1.5h1.6V65.451Zm4.565.85a.228.228,0,0,1-.068-.165v-.987h-.987a.223.223,0,0,1-.228-.228.229.229,0,0,1,.065-.168.225.225,0,0,1,.162-.065h.987v-.987a.221.221,0,0,1,.068-.168.237.237,0,0,1,.165-.065.229.229,0,0,1,.168.065.234.234,0,0,1,.065.168v.987h.981a.229.229,0,0,1,.168.065.234.234,0,0,1,.065.168.224.224,0,0,1-.233.228h-.981V68.2a.232.232,0,0,1-.065.165.225.225,0,0,1-.168.068A.228.228,0,0,1,34.891,68.364Zm4.266.646a.264.264,0,0,1-.077-.193V68H37.246A.346.346,0,0,1,37,67.9a.326.326,0,0,1-.1-.245V67.6a.33.33,0,0,1,.071-.216l1.889-2.412a.312.312,0,0,1,.128-.105.4.4,0,0,1,.171-.04h.119a.336.336,0,0,1,.35.35v2.332h.458a.243.243,0,0,1,.245.245.223.223,0,0,1-.071.171.243.243,0,0,1-.173.068h-.455v.819a.252.252,0,0,1-.082.193.275.275,0,0,1-.2.077A.228.228,0,0,1,39.157,69.009Zm-1.678-1.5h1.6V65.451Zm3.55-.953a.228.228,0,0,1-.068-.165.221.221,0,0,1,.068-.168.237.237,0,0,1,.165-.065h2.935a.229.229,0,0,1,.168.065.244.244,0,0,1,0,.333.225.225,0,0,1-.168.068H41.194A.233.233,0,0,1,41.029,66.561Zm0,1.345a.228.228,0,0,1-.068-.165.221.221,0,0,1,.068-.168.237.237,0,0,1,.165-.065h2.935a.229.229,0,0,1,.168.065.244.244,0,0,1,0,.333.225.225,0,0,1-.168.068H41.194A.221.221,0,0,1,41.029,67.906Zm4.738,1.038a1.206,1.206,0,0,1-.52-.438,1.057,1.057,0,0,1-.162-.56,1.142,1.142,0,0,1,.9-1.138,1.1,1.1,0,0,1-.5-.333.863.863,0,0,1-.2-.58,1.04,1.04,0,0,1,.142-.512,1.082,1.082,0,0,1,.458-.418,2.06,2.06,0,0,1,1.615,0,1.082,1.082,0,0,1,.458.418,1.04,1.04,0,0,1,.142.512.863.863,0,0,1-.2.58,1.111,1.111,0,0,1-.5.333,1.14,1.14,0,0,1,.9,1.138,1.057,1.057,0,0,1-.162.56,1.206,1.206,0,0,1-.52.438,2.542,2.542,0,0,1-1.846,0Zm1.533-.429a.84.84,0,0,0,.344-.3.639.639,0,0,0,.105-.33.686.686,0,0,0-.307-.6,1.428,1.428,0,0,0-1.5,0,.686.686,0,0,0-.307.6.631.631,0,0,0,.105.33.849.849,0,0,0,.341.3,1.583,1.583,0,0,0,1.22,0Zm.043-2.133a.6.6,0,0,0,.208-.452.586.586,0,0,0-.219-.466,1.216,1.216,0,0,0-1.28,0,.586.586,0,0,0-.219.466.611.611,0,0,0,.208.452.924.924,0,0,0,.651.2A.911.911,0,0,0,47.343,66.381Z" transform="translate(-24.581 -49.451)" fill="#656d78"/>
        <g id="Group_53831-2" data-name="Group 53831" transform="translate(4.056 10.449)">
          <path id="Path_44019" data-name="Path 44019" d="M31.531,47.854H26a.142.142,0,1,1,0-.284h5.529a.142.142,0,0,1,0,.284Z" transform="translate(-25.86 -47.57)" fill="#656d78"/>
        </g>
        <g id="Group_53832" data-name="Group 53832" transform="translate(4.056 11.763)">
          <path id="Path_44020" data-name="Path 44020" d="M29.122,52.474H26a.142.142,0,1,1,0-.284h3.12a.142.142,0,1,1,0,.284Z" transform="translate(-25.86 -52.19)" fill="#656d78"/>
        </g>
        <g id="Group_53833" data-name="Group 53833" transform="translate(17.114 22.795)">
          <path id="Path_44021" data-name="Path 44021" d="M79.142,91.637v1.834a.655.655,0,0,1-.657.657H72.427a.655.655,0,0,1-.657-.657V91.637a.655.655,0,0,1,.657-.657h6.061A.657.657,0,0,1,79.142,91.637Z" transform="translate(-71.77 -90.98)" fill="#ffc378"/>
        </g>
        <g id="Group_53835" data-name="Group 53835" transform="translate(17.375 22.886)">
          <path id="Path_44023" data-name="Path 44023" d="M79.8,91.869V93.7a.657.657,0,0,1-.657.657H73.085a.653.653,0,0,1-.4-.131l6.781-2.93A.65.65,0,0,1,79.8,91.869Z" transform="translate(-72.69 -91.3)" fill="#ffab41"/>
        </g>
      </g>
    </g>
  </g>
</svg>
