<svg xmlns="http://www.w3.org/2000/svg" width="58" height="58" viewBox="0 0 58 58">
  <g id="Group_53197" data-name="Group 53197" transform="translate(-467 -462)">
    <circle id="Ellipse_2109" data-name="Ellipse 2109" cx="29" cy="29" r="29" transform="translate(467 462)" fill="#30c768"/>
    <g id="Group_53196" data-name="Group 53196" transform="translate(481.76 478.28)">
      <circle id="Ellipse_2110" data-name="Ellipse 2110" cx="1.697" cy="1.697" r="1.697" transform="translate(1.24 1.72)" fill="#fff"/>
      <circle id="Ellipse_2111" data-name="Ellipse 2111" cx="1.697" cy="1.697" r="1.697" transform="translate(1.24 11.085)" fill="#fff"/>
      <circle id="Ellipse_2112" data-name="Ellipse 2112" cx="1.697" cy="1.697" r="1.697" transform="translate(1.24 19.689)" fill="#fff"/>
      <path id="Path_44441" data-name="Path 44441" d="M3.1,3.073h18.73a.936.936,0,0,0,0-1.873H3.1a.936.936,0,0,0,0,1.873Zm0,9.365h18.73a.936.936,0,0,0,0-1.873H3.1a.936.936,0,0,0,0,1.873Zm0,9.365h18.73a.936.936,0,0,0,0-1.873H3.1a.936.936,0,1,0,0,1.873Z" transform="translate(5.459 1.28)" fill="#fff" fill-rule="evenodd"/>
    </g>
  </g>
</svg>
