<svg xmlns="http://www.w3.org/2000/svg" width="56.413" height="52.843" viewBox="0 0 56.413 52.843">
  <g id="Group_54744" data-name="Group 54744" transform="translate(-1325 -653.5)">
    <rect id="Rectangle_20588" data-name="Rectangle 20588" width="56.413" height="52.843" rx="10" transform="translate(1325 653.5)" fill="#ffffff"/>
    <g id="Group_53825" data-name="Group 53825" transform="translate(1337.854 664.925)">
      <circle id="Ellipse_2027" data-name="Ellipse 2027" cx="9.97" cy="9.97" r="9.97" transform="translate(5.514 4.464)" fill="#fadfcb"/>
      <g id="Group_53830" data-name="Group 53830" transform="translate(0 0)">
        <path id="Path_43986" data-name="Path 43986" d="M54.736,22.133a.12.12,0,0,1-.121-.121V11.527a1.824,1.824,0,0,0-3.648,0v1.594a1.81,1.81,0,1,1-3.619,0V8.9a2.318,2.318,0,1,0-4.635,0v1.9a.121.121,0,1,1-.242,0V8.9a2.56,2.56,0,0,1,5.119,0v4.222a1.568,1.568,0,1,0,3.135,0V11.527a2.066,2.066,0,1,1,4.132,0V22.01A.122.122,0,0,1,54.736,22.133Z" transform="translate(-32.679 -6.34)" fill="#656d78"/>
        <path id="Path_43987" data-name="Path 43987" d="M10.622,19.75H8.15a.511.511,0,0,0-.513.51v1.473a.513.513,0,0,0,.513.513H8.2v4.81A8.792,8.792,0,0,0,4.877,41.962,6.074,6.074,0,0,0,8.97,43.505h1.652Z" transform="translate(-2 -16.506)" fill="#158ed8"/>
        <path id="Path_43989" data-name="Path 43989" d="M22.907,46.01a6.14,6.14,0,0,1-4.236,1.669H15.03a6.069,6.069,0,0,1-4.093-1.544,8.79,8.79,0,0,1,3.324-14.9V25.26h5.187v5.971a8.791,8.791,0,0,1,3.46,14.779Z" transform="translate(-6.594 -20.683)" fill="#fff"/>
        <path id="Path_43990" data-name="Path 43990" d="M27.1,71.2a4.409,4.409,0,0,1-3.058,1.2H20.407a4.349,4.349,0,0,1-2.942-1.1,7.088,7.088,0,0,1-.319-10.171.934.934,0,0,1,1.5.227c1.229,2.327,4.539-1.512,7.255-1.214a.918.918,0,0,1,.443.167A7.064,7.064,0,0,1,27.1,71.2Z" transform="translate(-11.969 -47.118)" fill="#ff5671"/>
        <path id="Path_43991" data-name="Path 43991" d="M35.283,71.2a4.409,4.409,0,0,1-3.058,1.2H28.587a4.4,4.4,0,0,1-2.647-.854l7.8-11.421a3.025,3.025,0,0,1,.334.017.918.918,0,0,1,.443.167A7.068,7.068,0,0,1,35.283,71.2Z" transform="translate(-20.148 -47.109)" fill="#ff444a"/>
        <path id="Path_43994" data-name="Path 43994" d="M37.68,20.26v1.473a.513.513,0,0,1-.51.513H31.883a.513.513,0,0,1-.513-.513V20.26a.511.511,0,0,1,.513-.51h5.286A.511.511,0,0,1,37.68,20.26Z" transform="translate(-24.265 -16.506)" fill="#fff"/>
        <path id="Path_43995" data-name="Path 43995" d="M38.013,20.276v1.473a.513.513,0,0,1-.51.513H32.216a.5.5,0,0,1-.406-.2l5.765-2.289A.511.511,0,0,1,38.013,20.276Z" transform="translate(-24.598 -16.521)" fill="#fadfcb"/>
        <path id="Path_43996" data-name="Path 43996" d="M36.79,21.989H31.5a.634.634,0,0,1-.634-.634V19.881a.634.634,0,0,1,.634-.631H36.79a.632.632,0,0,1,.631.631v1.473A.634.634,0,0,1,36.79,21.989Zm-5.286-2.5a.39.39,0,0,0-.392.39v1.473a.393.393,0,0,0,.392.392H36.79a.391.391,0,0,0,.39-.392V19.881a.389.389,0,0,0-.39-.39Z" transform="translate(-23.885 -16.127)" fill="#656d78"/>
        <path id="Path_43997" data-name="Path 43997" d="M58.9,51.11H56a.5.5,0,0,0-.5.5v1.485a.5.5,0,0,0,.5.5h.252v5L50.16,66.1A2.512,2.512,0,0,0,52.112,70.2H58.9Z" transform="translate(-38.08 -40.279)" fill="#158ed8"/>
        <path id="Path_43999" data-name="Path 43999" d="M73.423,71.962,67.331,64.45V58.84h-4.56v5.61l-6.092,7.512a2.512,2.512,0,0,0,1.95,4.093H71.471A2.512,2.512,0,0,0,73.423,71.962Z" transform="translate(-43.022 -46.139)" fill="#fff"/>
        <path id="Path_44000" data-name="Path 44000" d="M76.617,96.3l-5.056-6.239a.347.347,0,0,0-.119-.094c-1.343-.617-2.811,1.055-4.132.213a.325.325,0,0,0-.431.06L61.968,96.3a1.163,1.163,0,0,0,.9,1.9H75.712a1.163,1.163,0,0,0,.9-1.894Z" transform="translate(-47.261 -69.632)" fill="#ffc378"/>
        <path id="Path_44001" data-name="Path 44001" d="M77.8,98.263a1.147,1.147,0,0,1-1.05.665H63.91a1.094,1.094,0,0,1-.83-.351L72.6,90.79l5.056,6.239A1.146,1.146,0,0,1,77.8,98.263Z" transform="translate(-48.303 -70.359)" fill="#ffab41"/>
        <path id="Path_44004" data-name="Path 44004" d="M86.593,51.6v1.485a.5.5,0,0,1-.5.5H81.028a.5.5,0,0,1-.5-.5V51.6a.5.5,0,0,1,.5-.5h5.066A.5.5,0,0,1,86.593,51.6Z" transform="translate(-61.531 -40.271)" fill="#fff"/>
        <path id="Path_44005" data-name="Path 44005" d="M86.767,51.889v1.485a.5.5,0,0,1-.5.5H81.2a.5.5,0,0,1-.443-.269l5.792-2.122A.488.488,0,0,1,86.767,51.889Z" transform="translate(-61.706 -40.559)" fill="#fadfcb"/>
        <path id="Path_44006" data-name="Path 44006" d="M85.715,53.327H80.649a.621.621,0,0,1-.619-.619V51.222a.621.621,0,0,1,.619-.622h5.066a.621.621,0,0,1,.619.622v1.485A.621.621,0,0,1,85.715,53.327Zm-5.066-2.485a.378.378,0,0,0-.377.38v1.485a.378.378,0,0,0,.377.377h5.066a.378.378,0,0,0,.377-.377V51.222a.38.38,0,0,0-.377-.38Z" transform="translate(-61.152 -39.892)" fill="#656d78"/>
      </g>
    </g>
  </g>
</svg>
