<svg xmlns="http://www.w3.org/2000/svg" width="54.284" height="50.849" viewBox="0 0 54.284 50.849">
  <g id="Group_54745" data-name="Group 54745" transform="translate(-1325 -776)">
    <rect id="Rectangle_20589" data-name="Rectangle 20589" width="54.284" height="50.848" rx="10" transform="translate(1325 776)" fill="#ffffff"/>
    <g id="Group_53823" data-name="Group 53823" transform="translate(1338.056 786.994)">
      <g id="Group_53822" data-name="Group 53822" transform="translate(0 0)">
        <path id="Path_43960" data-name="Path 43960" d="M21.671,72.053l.97,8.792a2.034,2.034,0,0,1-1.8,2.246l-8.14.9a2.034,2.034,0,0,1-2.246-1.8L9.483,73.4a2.036,2.036,0,0,1,1.8-2.246l8.14-.9A2.038,2.038,0,0,1,21.671,72.053Z" transform="translate(-9.471 -55.185)" fill="#158ed8"/>
        <path id="Path_43961" data-name="Path 43961" d="M26.939,73.259l.97,8.792a2.034,2.034,0,0,1-1.8,2.246l-8.141.9a2.041,2.041,0,0,1-1.469-.411L26.132,71.85A2.03,2.03,0,0,1,26.939,73.259Z" transform="translate(-14.738 -56.391)" fill="#015ed4"/>
        <path id="Path_43963" data-name="Path 43963" d="M25.272,77.82l.91,8.258a.56.56,0,0,1-.491.614l-7.607.837a.557.557,0,0,1-.614-.491l-.91-8.258a.56.56,0,0,1,.491-.614l7.607-.837a.547.547,0,0,1,.358.083A.565.565,0,0,1,25.272,77.82Z" transform="translate(-14.781 -60.494)" fill="#fff"/>
        <g id="Group_53813" data-name="Group 53813" transform="translate(7.966)">
          <path id="Path_43968" data-name="Path 43968" d="M47.7,6.419l-1.16,8.77a2.038,2.038,0,0,1-2.286,1.752l-8.12-1.075a2.035,2.035,0,0,1-1.752-2.286l1.16-8.77a2.038,2.038,0,0,1,2.286-1.752l8.12,1.075A2.04,2.04,0,0,1,47.7,6.419Z" transform="translate(-34.359 -3.041)" fill="#ff7d83"/>
          <path id="Path_43969" data-name="Path 43969" d="M49.015,11.851l-1.16,8.77a2.038,2.038,0,0,1-2.286,1.752L37.448,21.3a2.035,2.035,0,0,1-1.328-.752L48.564,10.29A2.025,2.025,0,0,1,49.015,11.851Z" transform="translate(-35.679 -8.473)" fill="#ff5671"/>
          <path id="Path_43971" data-name="Path 43971" d="M51.256,11.785l-1.09,8.236a.558.558,0,0,1-.624.479l-7.587-1.005a.544.544,0,0,1-.353-.2.555.555,0,0,1-.125-.429l1.09-8.236a.558.558,0,0,1,.624-.479l7.587,1.005a.541.541,0,0,1,.328.168A.555.555,0,0,1,51.256,11.785Z" transform="translate(-39.689 -8.369)" fill="#fff"/>
        </g>
        <g id="Group_53814" data-name="Group 53814" transform="translate(14.643 14.652)">
          <path id="Path_43976" data-name="Path 43976" d="M87.864,67.5l-2.035,8.609a2.036,2.036,0,0,1-2.449,1.514l-7.97-1.885A2.036,2.036,0,0,1,73.9,73.289l2.035-8.609a2.037,2.037,0,0,1,2.449-1.514l7.97,1.885A2.034,2.034,0,0,1,87.864,67.5Z" transform="translate(-73.841 -63.111)" fill="#ffc378"/>
          <path id="Path_43977" data-name="Path 43977" d="M88.829,75.847l-2.035,8.609a2.036,2.036,0,0,1-2.449,1.514l-7.97-1.885a2.038,2.038,0,0,1-1.246-.88L88.541,74.25A2.017,2.017,0,0,1,88.829,75.847Z" transform="translate(-74.807 -71.458)" fill="#ffab41"/>
          <path id="Path_43979" data-name="Path 43979" d="M91.485,72.762l-1.912,8.085a.557.557,0,0,1-.669.414L81.457,79.5a.552.552,0,0,1-.414-.667l1.912-8.085a.557.557,0,0,1,.669-.414L91.072,72.1a.559.559,0,0,1,.311.2A.552.552,0,0,1,91.485,72.762Z" transform="translate(-79.227 -68.514)" fill="#fff"/>
        </g>
        <g id="Group_53815" data-name="Group 53815" transform="translate(12.184 4.159)">
          <path id="Path_43982" data-name="Path 43982" d="M54.68,20.056a.681.681,0,0,0-.165-.271.516.516,0,0,0-.3-.138l-.073-.008a.493.493,0,0,0-.326.07.644.644,0,0,0-.218.231l-2.341,4.221a.466.466,0,0,0-.063.175.423.423,0,0,0,.617.419.448.448,0,0,0,.183-.173l.571-1.043,2.378.253.341,1.143a.432.432,0,0,0,.14.2.442.442,0,0,0,.228.1.41.41,0,0,0,.316-.09.42.42,0,0,0,.148-.283.48.48,0,0,0-.025-.185Zm.01,2.917-1.717-.183,1.078-1.977Z" transform="translate(-51.188 -19.637)" fill="#656d78"/>
        </g>
        <g id="Group_53816" data-name="Group 53816" transform="translate(4.185 19.258)">
          <path id="Path_43983" data-name="Path 43983" d="M29.755,89.391a1.33,1.33,0,0,0,.321-.411,1.272,1.272,0,0,0,.105-.787,1.291,1.291,0,0,0-.612-.962,1.948,1.948,0,0,0-1.321-.19l-1.722.256a.4.4,0,0,0-.278.17.415.415,0,0,0-.075.316l.659,4.431a.419.419,0,0,0,.479.356l1.767-.263a2.321,2.321,0,0,0,1.421-.619,1.4,1.4,0,0,0,.318-1.19,1.2,1.2,0,0,0-.429-.787A1.664,1.664,0,0,0,29.755,89.391Zm.236,1.2a.648.648,0,0,1-.178.589,1.7,1.7,0,0,1-.922.343l-1.278.19-.223-1.5,1.286-.19C29.487,89.9,29.916,90.086,29.991,90.587Zm-2.714-1.15-.211-1.409,1.248-.185a1.236,1.236,0,0,1,.747.08.563.563,0,0,1,.316.441.671.671,0,0,1-.15.579,1.386,1.386,0,0,1-.827.326Z" transform="translate(-26.168 -87.007)" fill="#656d78"/>
        </g>
        <g id="Group_53817" data-name="Group 53817" transform="translate(19.341 19.279)">
          <path id="Path_43984" data-name="Path 43984" d="M96.37,86.224a.359.359,0,0,0-.178-.008,3.327,3.327,0,0,1-.662.08,2.585,2.585,0,0,1-.689-.1,2.014,2.014,0,0,1-.932-.516,1.591,1.591,0,0,1-.434-.825A2.38,2.38,0,0,1,94,82.946a1.606,1.606,0,0,1,.794-.486,2.042,2.042,0,0,1,1.065.033,2.516,2.516,0,0,1,.644.266,3.315,3.315,0,0,1,.531.409.4.4,0,0,0,.155.083.37.37,0,0,0,.3-.035.357.357,0,0,0,.17-.221.383.383,0,0,0-.105-.4,3.96,3.96,0,0,0-.684-.549,3.233,3.233,0,0,0-.857-.361,2.828,2.828,0,0,0-1.406-.043,2.4,2.4,0,0,0-1.178.669,3.2,3.2,0,0,0-.769,2.795,2.393,2.393,0,0,0,.669,1.175,2.806,2.806,0,0,0,1.231.682,3.288,3.288,0,0,0,.922.128,3.964,3.964,0,0,0,.867-.12.385.385,0,0,0,.3-.291.355.355,0,0,0-.035-.281A.388.388,0,0,0,96.37,86.224Z" transform="translate(-92.587 -81.574)" fill="#656d78"/>
        </g>
      </g>
    </g>
  </g>
</svg>
