<svg xmlns="http://www.w3.org/2000/svg" width="46" height="46" viewBox="0 0 46 46">
  <g id="Group_47656" data-name="Group 47656" transform="translate(-1487 -0.211)">
    <path id="Path_139" data-name="Path 139" d="M23,0A23,23,0,0,1,35.15,42.532,22.689,22.689,0,0,1,23,46,23,23,0,0,1,23,0Z" transform="translate(1487 0.211)" fill="#e1e1e1" opacity="0.7"/>
    <path id="Path_137" data-name="Path 137" d="M4,14.237a.89.89,0,0,0,.255.616l.005.011L9.6,20.207a.89.89,0,1,0,1.259-1.259L7.04,15.124H24.481a.89.89,0,0,0,0-1.781H7.04l3.822-3.822A.89.89,0,1,0,9.6,8.262L4.26,13.6l-.005.009a.9.9,0,0,0-.255.62Z" transform="translate(1496 9.21)" fill="#081319"/>
  </g>
</svg>
