<svg id="Group_53728" data-name="Group 53728" xmlns="http://www.w3.org/2000/svg" width="46" height="46" viewBox="0 0 46 46">
  <path id="Path_139" data-name="Path 139" d="M23,0A23,23,0,0,0,10.85,42.532,22.689,22.689,0,0,0,23,46,23,23,0,0,0,23,0Z" fill="#e1e1e1" opacity="0.7"/>
  <path id="Path_137" data-name="Path 137" d="M25.372,14.237a.89.89,0,0,1-.255.616l-.005.011-5.343,5.343a.89.89,0,1,1-1.259-1.259l3.822-3.824H4.89a.89.89,0,0,1,0-1.781H22.332L18.51,9.521a.89.89,0,1,1,1.259-1.259L25.112,13.6l.005.009a.9.9,0,0,1,.255.62Z" transform="translate(7.628 8.999)" fill="#081319"/>
</svg>
