<svg xmlns="http://www.w3.org/2000/svg" width="470.289" height="268.17" viewBox="0 0 470.289 268.17">
  <g id="Group_52211" data-name="Group 52211" transform="translate(-41.73 -77.32)">
    <path id="Path_43774" data-name="Path 43774" d="M808.354,408.144C805.317,310.016,673.2,285.417,634.6,375.517c-12.233,29.355-7.011,65,13.177,89.6C701.327,531.3,808.721,493.469,808.354,408.144Zm-9.861-13.622a74.564,74.564,0,0,1,1.039,7.889H775.043A134.733,134.733,0,0,0,772,379.671h22.267A78.7,78.7,0,0,1,798.493,394.523Zm-31.4,15.047a130.727,130.727,0,0,1-1.737,21.312H748.417c.617-7.327.944-15.039.889-22.741h17.761C767.074,408.622,767.089,409.092,767.089,409.569Zm-97.764,0c0-.477.018-.951.022-1.429h17.761c-.055,7.7.272,15.414.889,22.741H671.061A130.674,130.674,0,0,1,669.324,409.569Zm72.938-.2c0,7.433-.349,14.654-.992,21.518H721.706V408.144h20.548C742.254,408.552,742.262,408.959,742.262,409.367Zm-48.111,0c0-.411.007-.815.011-1.223h20.545v22.741H695.143C694.5,424.021,694.151,416.8,694.151,409.367ZM721.71,332.7c3.607,1.781,6.978,6.251,9.905,12.733H721.71Zm-7,0v12.733H704.8C707.728,338.949,711.1,334.479,714.706,332.7Zm0,18.484v22.741H696.92a133.956,133.956,0,0,1,5.6-22.741h12.189Zm0,28.488v22.741H694.261a221.945,221.945,0,0,1,1.8-22.741Zm0,56.962v22.741H700a166.488,166.488,0,0,1-4.242-22.741Zm0,28.488v20.915c-4.965-2.453-9.486-10.022-13.019-20.915Zm7,20.915V465.121h13.019C731.2,476.014,726.675,483.583,721.71,486.036Zm0-26.663V436.632h18.951a167.612,167.612,0,0,1-4.242,22.741Zm0-56.962V379.671h18.646a221.794,221.794,0,0,1,1.8,22.741Zm0-28.492V351.179H733.9a134.323,134.323,0,0,1,5.6,22.741Zm20.133-22.737h10.114a91.662,91.662,0,0,1,10.107,22.741H746.79A163.366,163.366,0,0,0,741.843,351.182Zm-1.9-5.748a73.208,73.208,0,0,0-5.513-12.1,48.676,48.676,0,0,1,13.478,12.1Zm-37.96-12.1a73.222,73.222,0,0,0-5.513,12.1h-7.966A48.677,48.677,0,0,1,701.985,333.334Zm-7.415,17.849a163.969,163.969,0,0,0-4.947,22.741H674.348a91.716,91.716,0,0,1,10.107-22.741H694.57Zm-5.729,28.488c-.885,7.268-1.436,14.9-1.642,22.741H669.526a125.468,125.468,0,0,1,3.28-22.741Zm-.275,56.962a190.921,190.921,0,0,0,3.834,22.741H679.747a104.431,104.431,0,0,1-7.595-22.741Zm5.307,28.488c1.932,7.173,5.189,15.594,8.484,20.9-7.532-4.286-14.238-11.528-19.608-20.9Zm40.189,20.893c3.294-5.3,6.552-13.724,8.484-20.9h11.124C748.3,474.486,741.593,481.732,734.061,486.014Zm9.956-26.641a190.958,190.958,0,0,0,3.834-22.741h16.413a104.507,104.507,0,0,1-7.595,22.741Zm5.2-56.962c-.206-7.837-.757-15.473-1.642-22.741h16.035a125.469,125.469,0,0,1,3.28,22.741Zm38.716-35.47c1.374,2.273,2.652,4.583,3.819,6.978H770.544a105.236,105.236,0,0,0-9.1-22.741h13.9A81.839,81.839,0,0,1,787.93,366.941Zm-19.145-21.507h-10.8a70.327,70.327,0,0,0-9.523-11.73A80.535,80.535,0,0,1,768.785,345.435Zm-97.309-2.868a81.47,81.47,0,0,1,16.475-8.866,70.356,70.356,0,0,0-9.523,11.734h-10.8C668.88,344.425,670.173,343.474,671.476,342.566Zm-23.949,25.969a81.655,81.655,0,0,1,13.556-17.357h13.886a105.223,105.223,0,0,0-9.1,22.741h-21.22C645.548,372.09,646.5,370.283,647.528,368.535ZM636.936,401.5a80.875,80.875,0,0,1,5.211-21.83h22.271a134.689,134.689,0,0,0-3.045,22.741H636.866C636.881,402.1,636.906,401.809,636.936,401.5Zm1.755,25.973a79.983,79.983,0,0,1-2.093-19.329h24.6a136.91,136.91,0,0,0,1.6,22.741H639.565C639.238,429.75,638.959,428.619,638.691,427.473Zm11.139,25.969a80.164,80.164,0,0,1-8.443-16.809h22.436a115.835,115.835,0,0,0,6.963,22.741H654.112C652.585,457.456,651.167,455.484,649.83,453.442Zm17.265,19.006a81.11,81.11,0,0,1-7.981-7.327H673.46a78.742,78.742,0,0,0,13.082,18.9A81.285,81.285,0,0,1,667.095,472.448Zm102.223,0a81.367,81.367,0,0,1-19.45,11.572,78.616,78.616,0,0,0,13.086-18.9h14.342A79.817,79.817,0,0,1,769.318,472.448Zm22.014-27.229a80.828,80.828,0,0,1-9.031,14.154H765.627a115.85,115.85,0,0,0,6.963-22.741h22.436A82.237,82.237,0,0,1,791.331,445.219Zm-17.713-14.334a137.267,137.267,0,0,0,1.594-22.741H799.8a79.031,79.031,0,0,1-2.949,22.741Z" transform="translate(-370.994 -153.321)" fill="#ebefff"/>
    <path id="Path_43775" data-name="Path 43775" d="M358.659,470.989c2.791-7.382-9.1-7.3-13.229-4.881a61.4,61.4,0,0,1,4.055-9.508c3.28,1.737,6.258,4.4,9.89,5.307,8.609.562,4.8-12.435-9.387-6.24a62.608,62.608,0,0,1,5.828-8.763c3.371,1.623,6.475,4.194,10.169,4.969,8.579.162,4.37-12.3-9.266-6.082a60.493,60.493,0,0,1,6.9-7.059c3.482,1.539,6.725,4.047,10.507,4.723,8.414-.143,4.19-12-8.877-6.093a59.294,59.294,0,0,1,6.243-4.418c3.739-.3,7.723.349,11.315-.848,5.237-2.373,1.642-8.363-3.217-6.728a15.018,15.018,0,0,0-8.3,6.985,59.155,59.155,0,0,0-6.658,4.727c6.754-12.994-5.109-17.8-5.582-9.361.5,3.75,2.832,7.04,4.2,10.529a61.621,61.621,0,0,0-6.967,7.117c3.647-14.477-9.3-16.35-7.639-7.973,1.414,3.507,4.492,6.111,6.684,9.148a63.039,63.039,0,0,0-5.861,8.818,15.175,15.175,0,0,0-2.306-10.313c-2.828-4.271-9.35-1.752-6.68,3.335,2.145,3.2,5.755,5.164,8.572,7.742-.022.04-.044.084-.066.129l-.066.007c.015.011.033.018.048.029a62.79,62.79,0,0,0-3.963,9.178c-4.231-14.551-16.523-9.571-10.794-3.067,2.945,2.358,6.938,2.982,10.3,4.591-.279.727-3.46,12.564-1.689,10.911a59.675,59.675,0,0,1,2.229-10.584C348.949,469.09,354.671,475.348,358.659,470.989ZM177.266,472.4c-2.791-7.382,9.1-7.3,13.229-4.881a61.4,61.4,0,0,0-4.055-9.508c-3.28,1.737-6.258,4.4-9.89,5.307-8.609.562-4.8-12.435,9.387-6.24a62.591,62.591,0,0,0-5.828-8.763c-3.371,1.623-6.475,4.194-10.169,4.969-8.579.162-4.37-12.3,9.266-6.082a60.481,60.481,0,0,0-6.9-7.059c-3.482,1.539-6.725,4.047-10.507,4.723-8.414-.143-4.19-12,8.877-6.093a59.306,59.306,0,0,0-6.243-4.418c-3.739-.3-7.723.349-11.315-.848-5.237-2.372-1.642-8.362,3.217-6.728a15.019,15.019,0,0,1,8.3,6.985,59.176,59.176,0,0,1,6.658,4.727c-6.754-12.994,5.109-17.8,5.582-9.361-.5,3.75-2.832,7.04-4.2,10.529a61.609,61.609,0,0,1,6.967,7.117c-3.647-14.477,9.3-16.35,7.639-7.973-1.414,3.507-4.492,6.111-6.684,9.148a63.049,63.049,0,0,1,5.861,8.818,15.174,15.174,0,0,1,2.306-10.313c2.828-4.271,9.35-1.752,6.68,3.335-2.145,3.2-5.755,5.164-8.572,7.742.022.04.044.085.066.129l.066.007c-.015.011-.033.018-.048.029a62.789,62.789,0,0,1,3.963,9.178c4.231-14.551,16.523-9.571,10.794-3.067-2.945,2.358-6.938,2.982-10.3,4.591.279.727,3.46,12.564,1.689,10.911a59.68,59.68,0,0,0-2.229-10.584C186.977,470.5,181.251,476.755,177.266,472.4Z" transform="translate(-68.85 -219.045)" fill="#018773"/>
    <g id="Group_52128" data-name="Group 52128" transform="translate(414.846 260.51)">
      <path id="Path_43776" data-name="Path 43776" d="M1087.629,613.434c-1.245,4.694-2.472,7.555-3.827,9.589a17.64,17.64,0,0,1-3.919,4.109,3.616,3.616,0,0,1-4.789-.055c-1.987-1.484-3.122.11-4.025.5-3.684,1.579-10.261-4.246-12.112-13.5-1.913-9.571,1.987-12.153,6.089-12.457a19.356,19.356,0,0,1,7.492,1.271C1088.352,596.291,1088.907,608.623,1087.629,613.434Z" transform="translate(-1058.171 -591.855)" fill="#d62b63"/>
      <path id="Path_43777" data-name="Path 43777" d="M1097.148,606.136a.306.306,0,0,0-.213.081,3.033,3.033,0,0,1-.878.426,3.255,3.255,0,0,1-.977.14,3.768,3.768,0,0,1-.5-.044c-.136-.022-.261-.073-.4-.1a2.6,2.6,0,0,0-.507,0c-.191,0-.386,0-.577-.015a8.032,8.032,0,0,1-1.146-.151c-.048-.011-.1-.018-.143-.029a.951.951,0,0,0,.125.716,2.752,2.752,0,0,0,.485.566,3.053,3.053,0,0,0,1.307.885,2.031,2.031,0,0,0,1.348-.191,5.883,5.883,0,0,0,1.142-.782,3.113,3.113,0,0,0,1.006-1.127C1097.295,606.378,1097.295,606.161,1097.148,606.136Z" transform="translate(-1079.262 -595.112)" fill="#d6cac9"/>
      <g id="Group_52127" data-name="Group 52127" transform="translate(0 0.703)">
        <path id="Path_43778" data-name="Path 43778" d="M1057.68,580.087s6.082-4.26,11.873-.5c1.542,1,2.982,2.431,3.346,6.552,0,0-5.355,1.572-7.859-.694C1063.354,583.921,1060.2,580.128,1057.68,580.087Z" transform="translate(-1057.68 -578.037)" fill="#00b283"/>
        <path id="Path_43779" data-name="Path 43779" d="M1067.463,583.805a.132.132,0,0,0-.077-.132,4.925,4.925,0,0,1-1.289-.764,3.852,3.852,0,0,1-.885-1.212c-.055-.114-.246-.029-.2.088a3.516,3.516,0,0,0,.878,1.341c.011.007.018.018.029.026a17.346,17.346,0,0,0-8.227-.786,16.645,16.645,0,0,1,10.147,2.2,4.962,4.962,0,0,0-2.486.5c-.1.044-.022.213.077.169a4.97,4.97,0,0,1,3.364-.1l.029.007a21.415,21.415,0,0,1,4.088,3.272A14.524,14.524,0,0,0,1067.463,583.805Z" transform="translate(-1057.686 -580.319)" fill="#d3d9b6"/>
      </g>
      <path id="Path_43780" data-name="Path 43780" d="M1096.727,588.025s-.62-10.324.918-11.884c0,0,3.169-.422,2.464,2.9a18.617,18.617,0,0,0-1.755,8.88A1.928,1.928,0,0,1,1096.727,588.025Z" transform="translate(-1082.308 -576.123)" fill="#6a130e"/>
      <path id="Path_43781" data-name="Path 43781" d="M1083.812,624.1a17.637,17.637,0,0,1-3.919,4.109,3.616,3.616,0,0,1-4.789-.055c-1.987-1.484-3.122.11-4.025.5-3.683,1.579-10.261-4.246-12.112-13.5-1.914-9.571,1.987-12.153,6.089-12.457-2.486,4.866-.015,13.794,3.544,16.92C1075.773,625.9,1081.542,624.895,1083.812,624.1Z" transform="translate(-1058.177 -592.933)" fill="#d6c0be"/>
      <path id="Path_43782" data-name="Path 43782" d="M1113.271,606.333a5.863,5.863,0,0,1,2.174,1.924,10.462,10.462,0,0,1,1.678,6.622,25.245,25.245,0,0,1-1.55,6.765,6.539,6.539,0,0,1-.507-3.214,4.794,4.794,0,0,0-.8-3.122,6.184,6.184,0,0,0-2.63-1.454,4.9,4.9,0,0,1-2.607-1.932,3.907,3.907,0,0,1-.184-3.052,10.036,10.036,0,0,1,1.194-2.362.867.867,0,0,1,.624-.488,3.756,3.756,0,0,1,1.249-.084A4.265,4.265,0,0,1,1113.271,606.333Z" transform="translate(-1089.917 -594.975)" fill="#b3b3b3"/>
    </g>
    <g id="Group_52129" data-name="Group 52129" transform="translate(409.437 199.46)">
      <path id="Path_43783" data-name="Path 43783" d="M1079.711,452.479l2.383-2.817a10.914,10.914,0,0,1,15.381-1.282h0a10.913,10.913,0,0,1,1.282,15.381l-2.384,2.817a10.913,10.913,0,0,1-15.381,1.282h0A10.913,10.913,0,0,1,1079.711,452.479Z" transform="translate(-1064.576 -432.612)" fill="#ffb70f"/>
      <rect id="Rectangle_20572" data-name="Rectangle 20572" width="6.119" height="29.719" transform="translate(64.983 131.867) rotate(180)" fill="#502b94"/>
      <path id="Path_43784" data-name="Path 43784" d="M1203.23,586.119q2.936.964,5.876,1.924l28.591-59.176-6.056-1.627Q1217.439,556.679,1203.23,586.119Z" transform="translate(-1144.366 -484.143)" fill="#502b94"/>
      <path id="Path_43785" data-name="Path 43785" d="M1199.751,467.493q1.46-2.721,2.927-5.446-26.619-19.27-53.241-38.537-1.333,2.837-2.666,5.678Q1173.263,448.337,1199.751,467.493Z" transform="translate(-1108.641 -418.509)" fill="#502b94"/>
      <rect id="Rectangle_20573" data-name="Rectangle 20573" width="13.611" height="12.494" transform="matrix(-0.646, 0.763, -0.763, -0.646, 47.571, 8.071)" fill="#ff578d"/>
      <path id="Path_43786" data-name="Path 43786" d="M1071.945,430.334a66.728,66.728,0,0,0-29,.65l44.875,36.873s2.52-10.728-3.041-27.023Q1078.367,435.584,1071.945,430.334Z" transform="translate(-1042.95 -422.013)" fill="#ff578d"/>
      <circle id="Ellipse_2024" data-name="Ellipse 2024" cx="7.029" cy="7.029" r="7.029" transform="translate(82.233 38.447)" fill="#ff578d"/>
      <circle id="Ellipse_2025" data-name="Ellipse 2025" cx="7.029" cy="7.029" r="7.029" transform="translate(55.342 96.871)" fill="#ff578d"/>
      <path id="Path_43787" data-name="Path 43787" d="M1188.96,777.536l-29.054-9.446h-6.118l-28.7,9.446Z" transform="translate(-1094.923 -636.539)" fill="#ff578d"/>
      <rect id="Rectangle_20574" data-name="Rectangle 20574" width="63.87" height="2.398" transform="translate(30.167 140.997)" fill="#2f1166"/>
    </g>
    <g id="Group_52200" data-name="Group 52200" transform="translate(94.868 110.555)">
      <g id="Group_52136" data-name="Group 52136">
        <path id="Path_43788" data-name="Path 43788" d="M613.594,569.433a19.367,19.367,0,0,1-7.455-2.9c-21.782-13.291-40.016-36.443-52.7-53.48-2.009-2.7-3.875-5.241-5.593-7.562-7.76-10.481,3.647-55.691,18.782-48.309,24.65,12.028,55.643,57.156,62.092,80.308C630.873,545.2,628.361,571.361,613.594,569.433Z" transform="translate(-413.526 -350.397)" fill="#ff578d"/>
        <path id="Path_43789" data-name="Path 43789" d="M599.492,613.754c-.786,0-25.693-27.952-32.1-37.427l24.794-19.957s-3.063,21.771-3.063,28.889S599.492,613.754,599.492,613.754Z" transform="translate(-427.475 -413.669)" fill="#e0c1d6"/>
        <path id="Path_43790" data-name="Path 43790" d="M409.054,472.925c-2.148,10.39-5.751,21.206-9.332,31.981v0c-.033.1-.066.187-.1.279-4.484,13.5-8.91,26.935-10.36,39.378v0a66.7,66.7,0,0,0-.477,9.747,48.849,48.849,0,0,0,.566,6.276H310.467q.749-2.231,1.381-4.389.92-3.1,1.62-6.071a86.471,86.471,0,0,0,2.417-25.547,72.034,72.034,0,0,0-6.229-25.117c-.973-2.185-2.024-4.282-3.122-6.3q-.959-1.752-1.961-3.43c-10.952-18.392-25.069-30.1-19.737-43.9a17.931,17.931,0,0,1,4.657-6.475s0,0,.007-.007c7.834-7.316,22.59-12.531,34.082-15.715,2.038-.562,3.974-1.061,5.751-1.5,3.478-.852,6.343-1.462,8.164-1.825.051-.011.106-.026.158-.033,1.282-.253,2.005-.382,2.005-.382l12.035.2s.1.022.29.059h0s0,0,0,0c1.146.246,5.538,1.208,11.433,2.74,1.047.272,2.145.562,3.28.87,8.836,2.395,19.968,5.828,28.767,9.9a50.793,50.793,0,0,1,10.136,5.928c2.5,2.005,4.154,4.095,4.561,6.24q.176.926.312,1.862C411.658,455.612,410.879,464.114,409.054,472.925Z" transform="translate(-247.956 -327.319)" fill="#fb0"/>
        <g id="Group_52134" data-name="Group 52134" transform="translate(48.486)">
          <path id="Path_43791" data-name="Path 43791" d="M421.438,236.471c-3.875-18.987-20.952-21.345-29.406-15.528-9.119-4.712-24.706,2.439-27.592,24.169-2.644,19.9,9.167,36.215,31.3,34.831h0C417.292,278.261,424.424,251.11,421.438,236.471Z" transform="translate(-347.315 -199.658)" fill="#2e1552"/>
          <g id="Group_52130" data-name="Group 52130" transform="translate(19.636 48.849)">
            <path id="Path_43792" data-name="Path 43792" d="M384.215,305.607s-4.822-8.109-10.412-3.213c-5.619,4.921,2.3,22.12,10.03,13.471Z" transform="translate(-371.907 -300.822)" fill="#ffba93"/>
            <path id="Path_43793" data-name="Path 43793" d="M388.618,313.912c-1-3.265-4.763-6-7.029-5.637-1.722.272-2.527,3.8-.892,8.3-.231-2.347-.536-5.726,1.058-6.361,1.454-.58,4.653,2.534,6.03,4.848Z" transform="translate(-376.905 -305.518)" fill="#ebc2b0"/>
          </g>
          <path id="Path_43794" data-name="Path 43794" d="M438.675,256.888c-2.347-6.119-10.739-13.42-19.189-13.658-8.73-.246-17.522,6.783-19.77,13.658-2.27,6.941-7.419,22.164.826,30.677,4.969,5.131,10.717,4.628,10.426,13.361-.1,2.96-1.458,5.439-2.4,7.338,1.164,11.745,16.424,7.591,14.518.11a20.351,20.351,0,0,1-2.248-6.493c-.466-3.1.727-5.4,3.691-6.405,4.752-1.62,8.252-1.667,14.3-7.621C447.57,279.261,441.323,263.792,438.675,256.888Z" transform="translate(-367.538 -215.528)" fill="#ffba93"/>
          <g id="Group_52131" data-name="Group 52131" transform="translate(38.962 50.655)">
            <circle id="Ellipse_2026" data-name="Ellipse 2026" cx="3.559" cy="3.559" r="3.559" transform="translate(2.428)" fill="#2e1552"/>
            <path id="Path_43795" data-name="Path 43795" d="M430.4,305.75c-2.7.139-3.092,2.494-5.869,2.376A3.759,3.759,0,0,0,430.4,305.75Z" transform="translate(-424.53 -305.746)" fill="#2e1552"/>
            <circle id="Ellipse_2027" data-name="Ellipse 2027" cx="0.837" cy="0.837" r="0.837" transform="translate(3.926 2.068)" fill="#fff"/>
          </g>
          <path id="Path_43796" data-name="Path 43796" d="M431.429,292.019c-2.391-1.036-8.473-.4-9.589,3.816a8.7,8.7,0,0,1,8.4-1.271C431.635,295.141,431.954,292.247,431.429,292.019Z" transform="translate(-383.866 -246.128)" fill="#2e1552"/>
          <g id="Group_52132" data-name="Group 52132" transform="translate(62.94 50.655)">
            <circle id="Ellipse_2028" data-name="Ellipse 2028" cx="3.559" cy="3.559" r="3.559" fill="#2e1552"/>
            <path id="Path_43797" data-name="Path 43797" d="M499.83,305.75c2.7.139,3.092,2.494,5.869,2.376A3.759,3.759,0,0,1,499.83,305.75Z" transform="translate(-496.154 -305.746)" fill="#2e1552"/>
            <circle id="Ellipse_2029" data-name="Ellipse 2029" cx="0.837" cy="0.837" r="0.837" transform="translate(3.944 2.068)" fill="#fff"/>
          </g>
          <path id="Path_43798" data-name="Path 43798" d="M487.427,292.019c2.391-1.036,8.473-.4,9.589,3.816a8.7,8.7,0,0,0-8.4-1.271C487.221,295.141,486.9,292.247,487.427,292.019Z" transform="translate(-425.213 -246.128)" fill="#2e1552"/>
          <ellipse id="Ellipse_2030" data-name="Ellipse 2030" cx="5.145" cy="2.758" rx="5.145" ry="2.758" transform="translate(63.954 59.278)" fill="#ffd6e0"/>
          <ellipse id="Ellipse_2031" data-name="Ellipse 2031" cx="6.185" cy="3.316" rx="6.185" ry="3.316" transform="translate(34.1 58.72)" fill="#ffd6e0"/>
          <path id="Path_43799" data-name="Path 43799" d="M470.5,318.967c-.845-2.442-3.515-4.121-3.243-6.949.07-.709-1.039-.7-1.105,0-.235,2.42,1.462,4.249,2.7,6.126.514.782,1.142,1.961.393,2.8-.734.819-2,.746-3,.716-.712-.022-.712,1.083,0,1.105a5.128,5.128,0,0,0,3.482-.775A2.635,2.635,0,0,0,470.5,318.967Z" transform="translate(-411.621 -258.724)" fill="#ebc2b0"/>
          <path id="Path_43800" data-name="Path 43800" d="M437.68,382.57a8.1,8.1,0,0,0,5.461,3.518c1.565.2,3.463.118,5.994-1.976a11.749,11.749,0,0,1-5.715.356C441.165,384.171,438.785,383.47,437.68,382.57Z" transform="translate(-393.888 -303.699)" fill="#ebc9ba"/>
          <g id="Group_52133" data-name="Group 52133" transform="translate(48.639 66.605)">
            <path id="Path_43801" data-name="Path 43801" d="M464.1,349.17a6.483,6.483,0,0,1-1.664,3.816,6.017,6.017,0,0,1-9.839.066,6.523,6.523,0,0,1-1.715-3.878A22.669,22.669,0,0,0,464.1,349.17Z" transform="translate(-450.88 -349.17)" fill="#912c00"/>
            <path id="Path_43802" data-name="Path 43802" d="M465.389,358.057a6.017,6.017,0,0,1-9.839.066,12.249,12.249,0,0,1,4.991-.933A12.462,12.462,0,0,1,465.389,358.057Z" transform="translate(-453.835 -354.245)" fill="#ff5b36"/>
          </g>
          <path id="Path_43803" data-name="Path 43803" d="M358.13,180.865a16.071,16.071,0,0,0-5.905-9.479c-6.611-5.1-16.009-4.576-22.44.551-.176.14-.349.286-.525.437-18.837,12.946-12.693,38.136,15.436,31.456,3.875-2.229,7.378-5.773,10.158-11.9,2.846-9.145-3.618-19.905-12.086-22.583a15.639,15.639,0,0,1,13.809,10.742,15.476,15.476,0,0,1-1.142,12.266c-.169.3.3.533.47.242A16.742,16.742,0,0,0,358.13,180.865Z" transform="translate(-318.441 -167.813)" fill="#2e1552"/>
          <path id="Path_43804" data-name="Path 43804" d="M416.094,225.025c14.437-3.75,34.908,7.723,23.339,28.007.176-14.661-18.811-15.186-22.531-22.833-.643,11.363-24.39,15.194-19.766,29.109C383.669,248.3,401.2,225.844,416.094,225.025Z" transform="translate(-365.189 -203.567)" fill="#2e1552"/>
        </g>
        <g id="Group_52135" data-name="Group 52135" transform="translate(60.065 98.031)">
          <circle id="Ellipse_2032" data-name="Ellipse 2032" cx="5.178" cy="5.178" r="5.178" transform="translate(55.045)" fill="#ffd154"/>
          <circle id="Ellipse_2033" data-name="Ellipse 2033" cx="5.178" cy="5.178" r="5.178" transform="translate(53.403 41.052)" fill="#ffd154"/>
          <circle id="Ellipse_2034" data-name="Ellipse 2034" cx="5.178" cy="5.178" r="5.178" transform="translate(39.811 87.488)" fill="#ffd154"/>
          <circle id="Ellipse_2035" data-name="Ellipse 2035" cx="5.178" cy="5.178" r="5.178" transform="translate(24.632 20.486)" fill="#ffd154"/>
          <circle id="Ellipse_2036" data-name="Ellipse 2036" cx="5.178" cy="5.178" r="5.178" transform="translate(17.342 86.03)" fill="#ffd154"/>
          <circle id="Ellipse_2037" data-name="Ellipse 2037" cx="5.178" cy="5.178" r="5.178" transform="translate(27.034 110.255)" fill="#ffd154"/>
          <circle id="Ellipse_2038" data-name="Ellipse 2038" cx="5.178" cy="5.178" r="5.178" transform="translate(0 37.207)" fill="#ffd154"/>
          <circle id="Ellipse_2039" data-name="Ellipse 2039" cx="5.178" cy="5.178" r="5.178" transform="translate(15.186 61.002)" fill="#ffd154"/>
          <circle id="Ellipse_2040" data-name="Ellipse 2040" cx="5.178" cy="5.178" r="5.178" transform="translate(62.485 83.886)" fill="#ffd154"/>
          <circle id="Ellipse_2041" data-name="Ellipse 2041" cx="5.178" cy="5.178" r="5.178" transform="translate(52.129 67.689)" fill="#ffd154"/>
          <circle id="Ellipse_2042" data-name="Ellipse 2042" cx="5.178" cy="5.178" r="5.178" transform="translate(45.738 21.051)" fill="#ffd154"/>
          <circle id="Ellipse_2043" data-name="Ellipse 2043" cx="5.178" cy="5.178" r="5.178" transform="translate(58.581 110.255)" fill="#ffd154"/>
          <circle id="Ellipse_2044" data-name="Ellipse 2044" cx="5.178" cy="5.178" r="5.178" transform="translate(74.465 30.695)" fill="#ffd154"/>
          <circle id="Ellipse_2045" data-name="Ellipse 2045" cx="5.178" cy="5.178" r="5.178" transform="translate(93.038 14.202)" fill="#ffd154"/>
          <circle id="Ellipse_2046" data-name="Ellipse 2046" cx="5.178" cy="5.178" r="5.178" transform="translate(75.964 9.024)" fill="#ffd154"/>
          <circle id="Ellipse_2047" data-name="Ellipse 2047" cx="5.178" cy="5.178" r="5.178" transform="translate(73.411 59.246)" fill="#ffd154"/>
          <circle id="Ellipse_2048" data-name="Ellipse 2048" cx="5.178" cy="5.178" r="5.178" transform="translate(2.879 2.233)" fill="#ffd154"/>
        </g>
        <path id="Path_43805" data-name="Path 43805" d="M547.7,488.724c-2.06,7.734-4.356,16.189-6.2,25.337-.033.151-.062.3-.088.448a165.452,165.452,0,0,0-3.46,32.62,91.6,91.6,0,0,0,1.634,17H502.155c.3-2.821.628-5.74.966-8.752.32-2.839.654-5.766,1-8.763.2-1.825.411-3.68.613-5.564.077-.69.151-1.381.228-2.079,1.972-18.429,3.7-39.231,2.909-60.954q-.11-3.085-.294-6.192a231.752,231.752,0,0,0-4.205-32.928q-.854-4.2-1.9-8.4c-.011-.066-.033-.132-.048-.2-.323-1.289-.657-2.578-1.014-3.864-.081-.316-.165-.624-.253-.94,0,0,1.131.129,3.085.448,7.073,1.142,24.9,4.719,38.749,13.295A25.874,25.874,0,0,1,547,443.217C556.829,453.32,553.054,468.6,547.7,488.724Z" transform="translate(-384.93 -330.862)" fill="#ff578d"/>
        <path id="Path_43806" data-name="Path 43806" d="M496.976,736.216c6.871,3.28,15.652,12.039,12.02,16.938-1.535,2.071-16.578-5.447-23.442-3.225-2.167.7-10.842,5.527-15.113-.029l-1.531-15.05S490.406,733.076,496.976,736.216Z" transform="translate(-365.163 -526.285)" fill="#ffba93"/>
        <path id="Path_43807" data-name="Path 43807" d="M334.923,564.155H294.352c.481-1.664.922-3.338,1.322-5.009.525-2.226.97-4.448,1.307-6.64,1.006-6.5-.426-16.688-2.861-28.169-.518-2.439-1.083-4.94-1.682-7.477-.962-4.11-2.013-8.307-3.085-12.505-6-23.376-12.814-46.59-10.408-52.691a19.479,19.479,0,0,1,3.864-5.942c6.9-7.573,20.662-14.04,37.5-18.686,1.9-.525,3.842-1.032,5.817-1.506a1.557,1.557,0,0,0-.092.173c-.823,1.576-1.3,4.4-1.491,8.219-.6,11.87,1.469,33.391,3.948,57.263q.358,3.476.731,7.022c.639,6.1,1.285,12.31,1.91,18.5.2,2,.4,4,.595,5.99.338,3.471.665,6.926.977,10.346q.347,3.812.657,7.547.342,4.065.632,8.014c.187,2.516.356,4.995.507,7.422q.121,1.989.22,3.926Q334.833,562.091,334.923,564.155Z" transform="translate(-244.651 -330.881)" fill="#ff578d"/>
        <path id="Path_43808" data-name="Path 43808" d="M372.961,663.468a.494.494,0,0,1-.143.316,2.627,2.627,0,0,1-.231.257,54.8,54.8,0,0,1-7.433,4.991H313.138c.481-1.664.922-3.339,1.322-5.01.525-2.226.97-4.447,1.307-6.64,1.006-6.5-.426-16.688-2.861-28.169-.518-2.439-1.083-4.936-1.682-7.474v0c-.962-4.11-2.013-8.307-3.085-12.505l11.914-11.055,7.426-6.893,0,0a148.858,148.858,0,0,1-2.347,16.63c-1.094,5.59-2.865,16.975-2.865,16.975s46.928,16.6,46.969,17.874c.61,17.625-49.389-.573-49.081,14.283.007.419,3.548.951,8.792,1.531,6.622.735,15.961,1.55,24.331,2.336,10.206.955,18.98,1.855,19.637,2.494C372.943,663.424,372.961,663.443,372.961,663.468Z" transform="translate(-263.437 -435.758)" fill="#e0c1d6"/>
        <path id="Path_43809" data-name="Path 43809" d="M420.781,419.677s15.344.048,14.727,3.584c-.422,2.424-11.216,11.671-15.579,11.04a12.307,12.307,0,0,1-7.117-4.084s-4.918,5.314-9.358,4.521S391.477,424.822,392.429,423s13.989-3.651,13.989-3.651-.518,5.042,6.174,5.042C420.127,424.389,420.781,419.677,420.781,419.677Z" transform="translate(-316.718 -326.971)" fill="#fff"/>
        <path id="Path_43810" data-name="Path 43810" d="M227.041,687.183c31.856,3.691,77.433,17.32,77.433,17.32s1.836,12.4-.419,20.13c-23.012,1.62-64.013,1.377-88.8-3.669C183.05,714.408,207.286,684.895,227.041,687.183Z" transform="translate(-194.74 -496.36)" fill="#ff578d"/>
        <path id="Path_43811" data-name="Path 43811" d="M227.96,469.856c-19.747,14.778-36.759,54.395-41.052,81.869-4.187,26.777,19.586,38.265,30.846,20.5,11.587-18.275,25.693-45.808,35.914-64.895C259.823,495.836,241.45,459.764,227.96,469.856Z" transform="translate(-186.419 -357.814)" fill="#ff578d"/>
      </g>
      <g id="Group_52199" data-name="Group 52199" transform="translate(87.764 131.562)">
        <path id="Path_43812" data-name="Path 43812" d="M425.39,627.752H618.4L650.916,526.04H517.759l-30.192,93.915H425.39Z" transform="translate(-425.39 -526.04)" fill="#561d8a"/>
        <path id="Path_43813" data-name="Path 43813" d="M636.93,627.752H752.246L784.77,526.04H760.053C756.836,593.586,698.747,615.3,636.93,627.752Z" transform="translate(-559.24 -526.04)" fill="#451275"/>
        <g id="Group_52198" data-name="Group 52198" transform="translate(183.369 53.568)">
          <g id="Group_52159" data-name="Group 52159">
            <g id="Group_52138" data-name="Group 52138" transform="translate(51.952 2.038)">
              <g id="Group_52137" data-name="Group 52137">
                <path id="Path_43814" data-name="Path 43814" d="M1101.353,677.454v10.335h-30.042a5.169,5.169,0,1,1,0-10.338h30.042Z" transform="translate(-1066.14 -677.45)" fill="#fff8ed"/>
              </g>
            </g>
            <g id="Group_52140" data-name="Group 52140">
              <g id="Group_52139" data-name="Group 52139">
                <path id="Path_43815" data-name="Path 43815" d="M977.382,676.432a5.158,5.158,0,0,0-.749,2.677c0,.051,0,.1,0,.158,0,.037,0,.073,0,.11s0,.073.007.11.008.1.015.151.007.084.015.129.011.088.018.132c.015.092.029.187.052.283a7.422,7.422,0,0,0,2.6,4.095h32.5v2.042H926.876a2.2,2.2,0,0,1-2.2-2.2V674.1a2.2,2.2,0,0,1,2.2-2.2h84.965v2.042H981.8a5.15,5.15,0,0,0-2.677.749c-.07.044-.14.088-.209.136a5.2,5.2,0,0,0-1.4,1.4C977.47,676.292,977.426,676.362,977.382,676.432Z" transform="translate(-924.68 -671.9)" fill="#00b283"/>
              </g>
            </g>
            <g id="Group_52142" data-name="Group 52142" transform="translate(43.579 0)">
              <g id="Group_52141" data-name="Group 52141">
                <rect id="Rectangle_20575" data-name="Rectangle 20575" width="1.935" height="14.419" fill="#35cca4"/>
              </g>
            </g>
            <g id="Group_52144" data-name="Group 52144" transform="translate(37.479 0)">
              <g id="Group_52143" data-name="Group 52143">
                <rect id="Rectangle_20576" data-name="Rectangle 20576" width="1.935" height="14.419" fill="#35cca4"/>
              </g>
            </g>
            <g id="Group_52147" data-name="Group 52147" transform="translate(49.914)">
              <g id="Group_52146" data-name="Group 52146">
                <g id="Group_52145" data-name="Group 52145">
                  <path id="Path_43816" data-name="Path 43816" d="M1063.378,676.432a5.156,5.156,0,0,0-.749,2.677c0,.051,0,.106,0,.158s0,.073,0,.11,0,.073.007.11.007.1.015.151.007.088.015.129.011.088.019.132c.015.1.033.187.051.283a5.179,5.179,0,0,0,5.057,4.095h30.042v2.042H1067.8a7.217,7.217,0,0,1-7.209-7.209V679.1a7.217,7.217,0,0,1,7.117-7.2h30.134v2.042H1067.8a5.151,5.151,0,0,0-2.677.749c-.07.044-.14.088-.209.136a5.2,5.2,0,0,0-1.4,1.4C1063.466,676.292,1063.422,676.362,1063.378,676.432Z" transform="translate(-1060.59 -671.9)" fill="#35cca4"/>
                </g>
              </g>
            </g>
            <g id="Group_52156" data-name="Group 52156" transform="translate(56.345 3.349)">
              <g id="Group_52148" data-name="Group 52148" transform="translate(0.176)">
                <path id="Path_43817" data-name="Path 43817" d="M1094.772,681.8h-15.8a.39.39,0,0,1-.389-.389h0a.389.389,0,0,1,.389-.389h15.8a.39.39,0,0,1,.389.389h0A.394.394,0,0,1,1094.772,681.8Z" transform="translate(-1078.58 -681.02)" fill="#f5dac2"/>
              </g>
              <g id="Group_52149" data-name="Group 52149" transform="translate(9.402 7.367)">
                <path id="Path_43818" data-name="Path 43818" d="M1122.019,701.859h-17.93a.389.389,0,0,1-.389-.389h0a.39.39,0,0,1,.389-.389h17.93a.39.39,0,0,1,.389.389h0A.387.387,0,0,1,1122.019,701.859Z" transform="translate(-1103.7 -701.08)" fill="#f5dac2"/>
              </g>
              <g id="Group_52150" data-name="Group 52150" transform="translate(6.141 3.764)">
                <path id="Path_43819" data-name="Path 43819" d="M1105.048,692.049h-9.839a.389.389,0,0,1-.389-.389h0a.389.389,0,0,1,.389-.389h9.839a.389.389,0,0,1,.389.389h0A.394.394,0,0,1,1105.048,692.049Z" transform="translate(-1094.82 -691.27)" fill="#f5dac2"/>
              </g>
              <g id="Group_52151" data-name="Group 52151" transform="translate(0 3.764)">
                <path id="Path_43820" data-name="Path 43820" d="M1082.694,692.049h-4.205a.389.389,0,0,1-.389-.389h0a.389.389,0,0,1,.389-.389h4.205a.389.389,0,0,1,.389.389h0A.392.392,0,0,1,1082.694,692.049Z" transform="translate(-1078.1 -691.27)" fill="#f5dac2"/>
              </g>
              <g id="Group_52152" data-name="Group 52152" transform="translate(21.422 3.764)">
                <path id="Path_43821" data-name="Path 43821" d="M1141.025,692.049h-4.205a.39.39,0,0,1-.39-.389h0a.39.39,0,0,1,.39-.389h4.205a.39.39,0,0,1,.389.389h0A.394.394,0,0,1,1141.025,692.049Z" transform="translate(-1136.43 -691.27)" fill="#f5dac2"/>
              </g>
              <g id="Group_52153" data-name="Group 52153" transform="translate(21.419 0.386)">
                <path id="Path_43822" data-name="Path 43822" d="M1138.142,682.849h-1.333a.39.39,0,0,1-.389-.389h0a.39.39,0,0,1,.389-.389h1.333a.39.39,0,0,1,.39.389h0A.387.387,0,0,1,1138.142,682.849Z" transform="translate(-1136.42 -682.07)" fill="#f5dac2"/>
              </g>
              <g id="Group_52154" data-name="Group 52154" transform="translate(6.019 7.367)">
                <path id="Path_43823" data-name="Path 43823" d="M1096.212,701.859h-1.333a.389.389,0,0,1-.389-.389h0a.389.389,0,0,1,.389-.389h1.333a.39.39,0,0,1,.389.389h0A.389.389,0,0,1,1096.212,701.859Z" transform="translate(-1094.49 -701.08)" fill="#f5dac2"/>
              </g>
              <g id="Group_52155" data-name="Group 52155" transform="translate(28.11 3.764)">
                <path id="Path_43824" data-name="Path 43824" d="M1156.363,692.049h-1.333a.39.39,0,0,1-.39-.389h0a.39.39,0,0,1,.39-.389h1.333a.389.389,0,0,1,.389.389h0A.394.394,0,0,1,1156.363,692.049Z" transform="translate(-1154.64 -691.27)" fill="#f5dac2"/>
              </g>
            </g>
            <g id="Group_52158" data-name="Group 52158" transform="translate(73.859 5.74)">
              <g id="Group_52157" data-name="Group 52157">
                <path id="Path_43825" data-name="Path 43825" d="M1125.79,687.53v4.488l2.284-1.587,2.281,1.587V687.53Z" transform="translate(-1125.79 -687.53)" fill="#ff578d"/>
              </g>
            </g>
          </g>
          <g id="Group_52181" data-name="Group 52181" transform="translate(0.951 33.108)">
            <g id="Group_52161" data-name="Group 52161" transform="translate(0.004 2.042)">
              <g id="Group_52160" data-name="Group 52160">
                <path id="Path_43826" data-name="Path 43826" d="M927.28,767.614v10.335h30.042a5.169,5.169,0,1,0,0-10.338H927.28Z" transform="translate(-927.28 -767.61)" fill="#fff8ed"/>
              </g>
            </g>
            <g id="Group_52162" data-name="Group 52162">
              <path id="Path_43827" data-name="Path 43827" d="M1014.439,763.659v11.205a1.607,1.607,0,0,1-1.6,1.609h-85.56V774.43h32.5a7.175,7.175,0,0,0,2.67-4.51h0a5.19,5.19,0,0,0-1.476-4.312h0a4.9,4.9,0,0,0-.665-.562c-.837-1.954-31.162-.562-33.031-.955V762.05h85.556A1.616,1.616,0,0,1,1014.439,763.659Z" transform="translate(-927.27 -762.05)" fill="#ffb70f"/>
            </g>
            <g id="Group_52164" data-name="Group 52164" transform="translate(41.661 0.001)">
              <g id="Group_52163" data-name="Group 52163" transform="translate(0 0)">
                <rect id="Rectangle_20577" data-name="Rectangle 20577" width="1.935" height="14.419" transform="translate(1.935 14.419) rotate(180)" fill="#ffd894"/>
              </g>
            </g>
            <g id="Group_52166" data-name="Group 52166" transform="translate(46.501 0.001)">
              <g id="Group_52165" data-name="Group 52165" transform="translate(0 0)">
                <rect id="Rectangle_20578" data-name="Rectangle 20578" width="1.935" height="14.419" transform="translate(1.935 14.419) rotate(180)" fill="#ffd894"/>
              </g>
            </g>
            <g id="Group_52168" data-name="Group 52168" transform="translate(0.004 0.397)">
              <g id="Group_52167" data-name="Group 52167">
                <path id="Path_43828" data-name="Path 43828" d="M958.725,764.97a5.162,5.162,0,0,0-3.952-1.84H927.28v1.645h30.042A5.372,5.372,0,0,1,958.725,764.97Z" transform="translate(-927.28 -763.13)" fill="#ffb32e"/>
              </g>
            </g>
            <g id="Group_52171" data-name="Group 52171" transform="translate(0.004 0.011)">
              <g id="Group_52170" data-name="Group 52170">
                <g id="Group_52169" data-name="Group 52169">
                  <path id="Path_43829" data-name="Path 43829" d="M964.535,769.282a7.22,7.22,0,0,1-7.213,7.209H927.28v-2.042h30.042a5.183,5.183,0,0,0,5.068-4.124c.015-.081.029-.165.044-.25.007-.044.015-.088.018-.132a.062.062,0,0,1,0-.026c.007-.051.011-.107.015-.158s.007-.106.011-.158c.008-.1.011-.209.011-.312a5.086,5.086,0,0,0-.408-2.009c-.048-.117-.1-.231-.158-.341q-.055-.11-.121-.22c-.04-.073-.084-.143-.128-.213a3.534,3.534,0,0,0-.213-.309c-.048-.066-.1-.132-.154-.195s-.107-.128-.162-.187-.114-.121-.173-.18h0l-.044-.044-.044-.044c-.029-.029-.059-.055-.092-.084a4.867,4.867,0,0,0-.456-.371c-.007-.007-.018-.015-.026-.022h0c-.055-.037-.11-.077-.165-.114q-.231-.149-.474-.275l-.11-.055h0a1.07,1.07,0,0,0-.114-.051h0c-.154-.066-.308-.129-.466-.184-.041-.015-.081-.026-.121-.04s-.062-.018-.1-.026l-.151-.044h0a1.245,1.245,0,0,0-.125-.029c-.04-.011-.084-.018-.121-.029h-.011c-.073-.015-.15-.029-.224-.04a.013.013,0,0,1-.011,0l-.084-.011a.369.369,0,0,1-.059-.007c-.084-.011-.173-.018-.261-.026a.586.586,0,0,0-.081,0c-.077,0-.158-.007-.239-.007H927.28V762.08h30.042a7.523,7.523,0,0,1,.959.062A7.21,7.21,0,0,1,964.535,769.282Z" transform="translate(-927.28 -762.08)" fill="#ffd894"/>
                </g>
              </g>
            </g>
            <g id="Group_52180" data-name="Group 52180" transform="translate(0.779 3.243)">
              <g id="Group_52172" data-name="Group 52172" transform="translate(0.198)">
                <path id="Path_43830" data-name="Path 43830" d="M948.014,771.659H930.319a.389.389,0,0,1-.389-.389h0a.389.389,0,0,1,.389-.389h17.694a.39.39,0,0,1,.389.389h0A.392.392,0,0,1,948.014,771.659Z" transform="translate(-929.93 -770.88)" fill="#f5dac2"/>
              </g>
              <g id="Group_52173" data-name="Group 52173" transform="translate(10.478 7.371)">
                <path id="Path_43831" data-name="Path 43831" d="M978.376,791.729H958.309a.39.39,0,0,1-.389-.389h0a.389.389,0,0,1,.389-.389h20.067a.389.389,0,0,1,.389.389h0A.394.394,0,0,1,978.376,791.729Z" transform="translate(-957.92 -790.95)" fill="#f5dac2"/>
              </g>
              <g id="Group_52174" data-name="Group 52174" transform="translate(6.842 3.764)">
                <path id="Path_43832" data-name="Path 43832" d="M959.46,781.909H948.409a.389.389,0,0,1-.389-.389h0a.39.39,0,0,1,.389-.389H959.46a.39.39,0,0,1,.389.389h0A.392.392,0,0,1,959.46,781.909Z" transform="translate(-948.02 -781.13)" fill="#f5dac2"/>
              </g>
              <g id="Group_52175" data-name="Group 52175" transform="translate(0 3.764)">
                <path id="Path_43833" data-name="Path 43833" d="M934.554,781.909h-4.774a.389.389,0,0,1-.389-.389h0a.389.389,0,0,1,.389-.389h4.774a.389.389,0,0,1,.389.389h0A.389.389,0,0,1,934.554,781.909Z" transform="translate(-929.39 -781.13)" fill="#f5dac2"/>
              </g>
              <g id="Group_52176" data-name="Group 52176" transform="translate(23.868 3.764)">
                <path id="Path_43834" data-name="Path 43834" d="M999.544,781.909h-4.774a.389.389,0,0,1-.389-.389h0a.389.389,0,0,1,.389-.389h4.774a.389.389,0,0,1,.389.389h0A.389.389,0,0,1,999.544,781.909Z" transform="translate(-994.38 -781.13)" fill="#f5dac2"/>
              </g>
              <g id="Group_52177" data-name="Group 52177" transform="translate(24.29)">
                <path id="Path_43835" data-name="Path 43835" d="M997.495,771.659H995.92a.39.39,0,0,1-.389-.389h0a.389.389,0,0,1,.389-.389h1.575a.389.389,0,0,1,.389.389h0A.387.387,0,0,1,997.495,771.659Z" transform="translate(-995.53 -770.88)" fill="#f5dac2"/>
              </g>
              <g id="Group_52178" data-name="Group 52178" transform="translate(6.706 7.371)">
                <path id="Path_43836" data-name="Path 43836" d="M949.615,791.729h-1.575a.39.39,0,0,1-.389-.389h0a.389.389,0,0,1,.389-.389h1.575a.39.39,0,0,1,.389.389h0A.392.392,0,0,1,949.615,791.729Z" transform="translate(-947.65 -790.95)" fill="#f5dac2"/>
              </g>
              <g id="Group_52179" data-name="Group 52179" transform="translate(31.32 3.764)">
                <path id="Path_43837" data-name="Path 43837" d="M1016.635,781.909h-1.575a.389.389,0,0,1-.389-.389h0a.39.39,0,0,1,.389-.389h1.575a.39.39,0,0,1,.389.389h0A.392.392,0,0,1,1016.635,781.909Z" transform="translate(-1014.67 -781.13)" fill="#f5dac2"/>
              </g>
            </g>
          </g>
          <g id="Group_52197" data-name="Group 52197" transform="translate(2.67 13.838)">
            <g id="Group_52184" data-name="Group 52184" transform="translate(1.546 1.017)">
              <g id="Group_52183" data-name="Group 52183">
                <g id="Group_52182" data-name="Group 52182">
                  <path id="Path_43838" data-name="Path 43838" d="M936.16,730.107c.444-.158,74.576.3,74.9-.158a9.7,9.7,0,0,0,4.3-3.985h.011v-9.471h-.007a9.681,9.681,0,0,0-4.638-4.143H936.292C938.051,718.1,937.368,724.308,936.16,730.107Z" transform="translate(-936.16 -712.35)" fill="#fff8ed"/>
                </g>
              </g>
            </g>
            <g id="Group_52186" data-name="Group 52186">
              <g id="Group_52185" data-name="Group 52185">
                <path id="Path_43839" data-name="Path 43839" d="M932.358,726.4a1.446,1.446,0,0,0,1.014,2.45h72.284a9.635,9.635,0,1,0,0-19.27H933.371a1.437,1.437,0,0,0,0,2.872h72.034a7.291,7.291,0,0,1,2.754.544,6.718,6.718,0,0,1,3.573,9.126,7.027,7.027,0,0,1-5.74,3.827C1004.245,726.452,933.856,725.144,932.358,726.4Z" transform="translate(-931.95 -709.58)" fill="#ff578d"/>
              </g>
            </g>
            <g id="Group_52187" data-name="Group 52187" transform="translate(36.865 5.74)">
              <path id="Path_43840" data-name="Path 43840" d="M1032.719,725.989h37.111a.39.39,0,0,0,.389-.389h0a.389.389,0,0,0-.389-.389h-37.111a.39.39,0,0,0-.389.389h0A.387.387,0,0,0,1032.719,725.989Z" transform="translate(-1032.33 -725.21)" fill="#f5dac2"/>
            </g>
            <g id="Group_52188" data-name="Group 52188" transform="translate(10.915 13.111)">
              <path id="Path_43841" data-name="Path 43841" d="M962.059,746.059h41.978a.389.389,0,0,0,.389-.389h0a.389.389,0,0,0-.389-.389H962.059a.39.39,0,0,0-.389.389h0A.39.39,0,0,0,962.059,746.059Z" transform="translate(-961.67 -745.28)" fill="#f5dac2"/>
            </g>
            <g id="Group_52189" data-name="Group 52189" transform="translate(36.865 9.505)">
              <path id="Path_43842" data-name="Path 43842" d="M1032.719,736.239H1056.2a.39.39,0,0,0,.389-.389h0a.389.389,0,0,0-.389-.389h-23.483a.39.39,0,0,0-.389.389h0A.387.387,0,0,0,1032.719,736.239Z" transform="translate(-1032.33 -735.46)" fill="#f5dac2"/>
            </g>
            <g id="Group_52190" data-name="Group 52190" transform="translate(63.771 9.505)">
              <path id="Path_43843" data-name="Path 43843" d="M1105.979,736.239h10.61a.39.39,0,0,0,.389-.389h0a.389.389,0,0,0-.389-.389h-10.61a.39.39,0,0,0-.389.389h0A.387.387,0,0,0,1105.979,736.239Z" transform="translate(-1105.59 -735.46)" fill="#f5dac2"/>
            </g>
            <g id="Group_52191" data-name="Group 52191" transform="translate(14.812 9.505)">
              <path id="Path_43844" data-name="Path 43844" d="M972.669,736.239h10.61a.39.39,0,0,0,.389-.389h0a.389.389,0,0,0-.389-.389h-10.61a.39.39,0,0,0-.389.389h0A.39.39,0,0,0,972.669,736.239Z" transform="translate(-972.28 -735.46)" fill="#f5dac2"/>
            </g>
            <g id="Group_52192" data-name="Group 52192" transform="translate(21.378 6.13)">
              <path id="Path_43845" data-name="Path 43845" d="M990.549,727.049h4.044a.389.389,0,0,0,.389-.389h0a.389.389,0,0,0-.389-.389h-4.044a.39.39,0,0,0-.389.389h0A.392.392,0,0,0,990.549,727.049Z" transform="translate(-990.16 -726.27)" fill="#f5dac2"/>
            </g>
            <g id="Group_52193" data-name="Group 52193" transform="translate(56.576 13.111)">
              <path id="Path_43846" data-name="Path 43846" d="M1086.39,746.059h4.043a.389.389,0,0,0,.389-.389h0a.389.389,0,0,0-.389-.389h-4.043a.39.39,0,0,0-.389.389h0A.39.39,0,0,0,1086.39,746.059Z" transform="translate(-1086 -745.28)" fill="#f5dac2"/>
            </g>
            <g id="Group_52194" data-name="Group 52194" transform="translate(6.093 9.505)">
              <path id="Path_43847" data-name="Path 43847" d="M948.929,736.239h4.044a.389.389,0,0,0,.389-.389h0a.389.389,0,0,0-.389-.389h-4.044a.389.389,0,0,0-.389.389h0A.39.39,0,0,0,948.929,736.239Z" transform="translate(-948.54 -735.46)" fill="#f5dac2"/>
            </g>
            <g id="Group_52196" data-name="Group 52196" transform="translate(59.11 5.744)">
              <g id="Group_52195" data-name="Group 52195">
                <path id="Path_43848" data-name="Path 43848" d="M1092.9,731.092l2.42-1.377,2.424,1.377V725.22H1092.9Z" transform="translate(-1092.9 -725.22)" fill="#ff578d"/>
              </g>
            </g>
          </g>
        </g>
      </g>
    </g>
    <g id="Group_52205" data-name="Group 52205" transform="translate(54.117 270.171)">
      <path id="Path_43849" data-name="Path 43849" d="M75.473,756.865a31.838,31.838,0,0,0,.176,3.878c.04.393.1.782.176,1.168l.382.3.165.128a1.329,1.329,0,0,0,1.5.015l.264-.191,2.057-1.513a2.477,2.477,0,0,1,.977-.433,2.908,2.908,0,0,1,2.35.47l1.785,1.374.911.7a1.3,1.3,0,0,0,1.5.015l.97-.72,1.917-1.4a2.907,2.907,0,0,1,3.316.037l1.917,1.473.9.7a1.04,1.04,0,0,0,.331.169,1.327,1.327,0,0,0,1.124-.169l.97-.72,1.91-1.41a2.92,2.92,0,0,1,3.324.037l.823.632a2.426,2.426,0,0,1,.3.213l1.021.808.536.419.165.129a1.329,1.329,0,0,0,1.5.015l.264-.2,2.057-1.513a2.532,2.532,0,0,1,.977-.433,3.043,3.043,0,0,1,2.134.323c0-.022.007-.044.007-.066a31.212,31.212,0,0,0,.246-4.536l-.9-.694a1.189,1.189,0,0,0-.742-.25,1.211,1.211,0,0,0-.757.231l-1.054.771-1.267.933a2.924,2.924,0,0,1-3.335-.044l-.8-.632-.143-.107-.911-.7-.977-.757a1.268,1.268,0,0,0-.749-.242,1.285,1.285,0,0,0-.757.224l-.984.727-1.722,1.274v.051l-.121.088a2.728,2.728,0,0,1-1.667.5,2.758,2.758,0,0,1-.914-.154c-.029-.007-.051-.022-.084-.029l-.18-.07a2.911,2.911,0,0,1-.533-.3l-.925-.716v-.022l-.859-.665-.984-.757a1.252,1.252,0,0,0-.749-.242,1.286,1.286,0,0,0-.757.224l-.977.72-1.9,1.41a2.933,2.933,0,0,1-3.316-.037l-1.785-1.374-.918-.709a1.321,1.321,0,0,0-1.5-.018l-1.047.771-1.274.933a2.925,2.925,0,0,1-3.327-.037Z" transform="translate(-75.465 -698.947)" fill="#ffb219"/>
      <path id="Path_43850" data-name="Path 43850" d="M75.829,741.521a14.549,14.549,0,0,0,.4,1.5,11.949,11.949,0,0,0,.793,1.928,12.69,12.69,0,0,0,1.065,1.755,13.643,13.643,0,0,0,9.622,5.667,69.013,69.013,0,0,0,14.106.11A13.794,13.794,0,0,0,113.2,744.3a13.184,13.184,0,0,0,.558-1.55c.07-.246.14-.5.195-.749.088-.4.158-.8.217-1.208a3.043,3.043,0,0,0-2.134-.323,2.554,2.554,0,0,0-.977.433L109,742.417l-.264.2a1.329,1.329,0,0,1-1.5-.015l-.165-.128-.536-.419-1.021-.808a2.326,2.326,0,0,0-.3-.213l-.823-.632a2.919,2.919,0,0,0-3.324-.037l-1.91,1.41-.97.72a1.327,1.327,0,0,1-1.124.169,1.082,1.082,0,0,1-.331-.169l-.9-.7-1.917-1.473a2.908,2.908,0,0,0-3.316-.037l-1.917,1.4-.97.72a1.3,1.3,0,0,1-1.5-.015l-.911-.7-1.785-1.374a2.907,2.907,0,0,0-2.35-.47,2.471,2.471,0,0,0-.977.433L78.135,741.8l-.264.191a1.329,1.329,0,0,1-1.5-.015l-.165-.129Zm-.349-5.042.037.022a2.925,2.925,0,0,0,3.327.037l1.274-.933,1.047-.771a1.32,1.32,0,0,1,1.5.018l.918.709,1.785,1.374a2.933,2.933,0,0,0,3.316.037l1.9-1.41.977-.72a1.286,1.286,0,0,1,.757-.224,1.253,1.253,0,0,1,.749.242l.984.757.859.665v.022l.926.716a2.908,2.908,0,0,0,.533.3l.18.07c.029.007.051.022.084.029a2.876,2.876,0,0,0,.914.154,2.751,2.751,0,0,0,1.667-.5l.121-.088v-.051l1.722-1.274.984-.727a1.286,1.286,0,0,1,.757-.224,1.268,1.268,0,0,1,.749.242l.977.757.911.7.143.106.8.632a2.925,2.925,0,0,0,3.335.044l1.267-.933,1.054-.771a1.212,1.212,0,0,1,.757-.231,1.188,1.188,0,0,1,.742.25l.9.694c-.011-.481-.026-.962-.066-1.447a28.74,28.74,0,0,0-.4-3.309c-.106-.617-.228-1.23-.378-1.84a30.733,30.733,0,0,0-2.35-6.5l-32.238-.353a30.888,30.888,0,0,0-3.445,12.369C75.5,735.567,75.491,736.026,75.48,736.478Z" transform="translate(-75.472 -678.561)" fill="#ffb219"/>
      <path id="Path_43851" data-name="Path 43851" d="M75.829,760.3a14.543,14.543,0,0,0,.4,1.5,2.973,2.973,0,0,0,2.549-.356l1.274-.94,1.047-.771a1.32,1.32,0,0,1,1.5.018l.918.709,1.785,1.374a2.933,2.933,0,0,0,3.316.037l1.9-1.4.977-.727a1.286,1.286,0,0,1,.757-.224,1.251,1.251,0,0,1,.749.242l.984.757.859.665v.022l.926.716a2.244,2.244,0,0,0,.533.3,1.8,1.8,0,0,0,.18.07.332.332,0,0,0,.084.029,2.876,2.876,0,0,0,.914.154,2.75,2.75,0,0,0,1.667-.5l.121-.088v-.044l1.722-1.282.984-.727a1.286,1.286,0,0,1,.757-.224,1.268,1.268,0,0,1,.749.242l.977.764.911.694.143.114.8.624a2.925,2.925,0,0,0,3.335.044l1.267-.933,1.054-.771a1.258,1.258,0,0,1,.757-.231,1.235,1.235,0,0,1,.742.25l.492.382c.088-.4.158-.8.217-1.208a3.042,3.042,0,0,0-2.134-.323,2.555,2.555,0,0,0-.977.433L109,761.2l-.264.2a1.329,1.329,0,0,1-1.5-.015l-.165-.129-.536-.419-1.021-.808a2.337,2.337,0,0,0-.3-.213l-.823-.632a2.919,2.919,0,0,0-3.324-.037l-1.91,1.41-.97.72a1.326,1.326,0,0,1-1.124.169,1.081,1.081,0,0,1-.331-.169l-.9-.7-1.917-1.473a2.908,2.908,0,0,0-3.316-.037l-1.917,1.4-.97.72a1.3,1.3,0,0,1-1.5-.015l-.911-.7L83.523,759.1a2.907,2.907,0,0,0-2.35-.47,2.473,2.473,0,0,0-.977.433l-2.057,1.513-.264.191a1.329,1.329,0,0,1-1.5-.015l-.165-.129Zm-.349-5.042.037.022a2.925,2.925,0,0,0,3.327.037l1.274-.933,1.047-.771a1.32,1.32,0,0,1,1.5.018l.918.709,1.785,1.374a2.933,2.933,0,0,0,3.316.037l1.9-1.41.977-.72a1.286,1.286,0,0,1,.757-.224,1.252,1.252,0,0,1,.749.242l.984.757.859.665v.022l.926.716a2.9,2.9,0,0,0,.533.3l.18.07c.029.007.051.022.084.029a2.88,2.88,0,0,0,.914.154,2.752,2.752,0,0,0,1.667-.5l.121-.088v-.051l1.722-1.274.984-.727a1.286,1.286,0,0,1,.757-.224,1.269,1.269,0,0,1,.749.242l.977.757.911.7.143.106.8.632a2.924,2.924,0,0,0,3.335.044l1.267-.933,1.054-.771a1.212,1.212,0,0,1,.757-.231,1.189,1.189,0,0,1,.742.25l.9.694c-.011-.481-.026-.962-.066-1.447a2.938,2.938,0,0,0-2.251-.4,2.558,2.558,0,0,0-.977.433l-2.057,1.513-.264.191a1.3,1.3,0,0,1-1.5-.015l-.165-.121-.536-.419-1.021-.808a2.325,2.325,0,0,0-.3-.213l-.823-.632a2.919,2.919,0,0,0-3.324-.037l-1.91,1.41-.97.713a1.3,1.3,0,0,1-1.124.176,1.275,1.275,0,0,1-.331-.169l-.9-.7-1.917-1.48a2.907,2.907,0,0,0-3.316-.037l-1.917,1.41-.97.72a1.329,1.329,0,0,1-1.5-.015l-.911-.7L83.6,752.965a2.964,2.964,0,0,0-2.35-.47,2.764,2.764,0,0,0-.977.433l-2.057,1.513-.264.2a1.328,1.328,0,0,1-1.5-.015l-.173-.154-.536-.419-.2-.162C75.5,754.345,75.491,754.8,75.48,755.256Z" transform="translate(-75.472 -697.339)" fill="#fc6"/>
      <g id="Group_52201" data-name="Group 52201" transform="translate(0 44.186)">
        <path id="Path_43852" data-name="Path 43852" d="M75.525,735.109A30.889,30.889,0,0,1,78.97,722.74l4.532.048a30.848,30.848,0,0,0-1.432,7.532c-.037.452-.048.911-.059,1.363a31.843,31.843,0,0,0,.176,3.878c.04.393.1.782.176,1.168a14.542,14.542,0,0,0,.4,1.5,11.956,11.956,0,0,0,.793,1.928,12.694,12.694,0,0,0,1.065,1.755,13.644,13.644,0,0,0,9.622,5.667,69.009,69.009,0,0,0,14.106.11,13.9,13.9,0,0,0,3.276-.716,13.842,13.842,0,0,1-9.824,5.5,69,69,0,0,1-14.106-.11A13.611,13.611,0,0,1,78.07,746.7a13.139,13.139,0,0,1-1.065-1.755,12.659,12.659,0,0,1-.793-1.928,13.673,13.673,0,0,1-.4-1.5c-.07-.386-.136-.775-.176-1.168a31.814,31.814,0,0,1-.176-3.878C75.477,736.02,75.488,735.561,75.525,735.109Z" transform="translate(-75.458 -722.74)" fill="#f2e1bf"/>
      </g>
      <g id="Group_52202" data-name="Group 52202" transform="translate(3.454 39.928)">
        <ellipse id="Ellipse_2049" data-name="Ellipse 2049" cx="4.727" cy="16.115" rx="4.727" ry="16.115" transform="matrix(0.011, -1, 1, 0.011, 0, 9.453)" fill="#ffc552"/>
        <ellipse id="Ellipse_2050" data-name="Ellipse 2050" cx="2.799" cy="11.973" rx="2.799" ry="11.973" transform="matrix(0.011, -1, 1, 0.011, 4.163, 7.57)" fill="#4f2510"/>
        <ellipse id="Ellipse_2051" data-name="Ellipse 2051" cx="2.226" cy="9.519" rx="2.226" ry="9.519" transform="matrix(0.011, -1, 1, 0.011, 6.623, 7.024)" fill="#6e3416"/>
      </g>
      <ellipse id="Ellipse_2052" data-name="Ellipse 2052" cx="4.418" cy="6.941" rx="4.418" ry="6.941" transform="matrix(0.852, -0.523, 0.523, 0.852, 24.085, 52.212)" fill="#999"/>
      <g id="Group_52204" data-name="Group 52204" transform="translate(0.427 0)">
        <g id="Group_52203" data-name="Group 52203" transform="translate(0 0.799)">
          <path id="Path_43853" data-name="Path 43853" d="M77.436,609.495a4.832,4.832,0,0,0,2.215,1.425,10.636,10.636,0,0,0,1.12,8.241,29.7,29.7,0,0,0,5.729,6.8c-.088.077-.173.154-.257.235a8.469,8.469,0,0,0-1.458,1.8c-1.774,2.967-1.818,6.717-.9,10.048a35.493,35.493,0,0,0,1.8,4.844,10.2,10.2,0,0,0,8.807,5.994l2.508.125a10.125,10.125,0,0,0,8.535-3.867l.037-.048a23.272,23.272,0,0,0,2.461-3.985,22.56,22.56,0,0,0,1.917-5.854,9.413,9.413,0,0,0-.808-6.269l.125.048a5.435,5.435,0,0,0,1.957-1.3,17.34,17.34,0,0,0,2.027-2.358,4.212,4.212,0,0,0,3.838-1.888,3.413,3.413,0,0,0-.455-4.132,2.878,2.878,0,0,0-4.014.132,17.377,17.377,0,0,0-1.487-1.2,6.926,6.926,0,0,0-1.528-.863,5.052,5.052,0,0,0-.8-.224,6.105,6.105,0,0,0-6.989,8.23,5.829,5.829,0,0,0,.54,1.069c-.044.018-.084.041-.125.059a6.477,6.477,0,0,1-1.491.466,3.4,3.4,0,0,1-1.249.007,8.961,8.961,0,0,1-2.776-1.2,15.98,15.98,0,0,0-3.114-1.616c-1.142-.371-2.233-.742-2.417-.8l-.026-.011c.007-.268.018-.536.037-.8.084-1.33.275-2.652.444-3.977.07-.532.132-1.069.184-1.6a14.276,14.276,0,0,0-.555-6.342,6.726,6.726,0,0,0-4.425-4.3,5.53,5.53,0,0,0-4.018.65,4.456,4.456,0,0,0-.389-.727,3.759,3.759,0,0,0-1.972-1.55,3.183,3.183,0,0,0-2.057.07c-.1.037-.191.077-.283.121a2.649,2.649,0,0,0-1.267,1.241A3.2,3.2,0,0,0,77.436,609.495Z" transform="translate(-76.621 -604.604)" fill="#00b283"/>
          <path id="Path_43854" data-name="Path 43854" d="M113.33,646.911a.177.177,0,0,1,.015.04c.029.077.062.158.1.235.048.11.1.224.162.331.033.07.07.136.106.2.048.088.1.176.158.261,2.953-1.44,6.508,2.119,6.875,2.5.018.022.029.033.029.033-.4-2.831-1.124-2.747-3.966-6.118-2.7-3.2,3.511-5.711,3.511-5.711a6.107,6.107,0,0,0-6.989,8.234ZM95.4,659.522a35.5,35.5,0,0,0,1.8,4.844,10.2,10.2,0,0,0,8.807,5.994l2.508.125a10.125,10.125,0,0,0,8.535-3.867l.037-.048c-19.979.158-19.079-19.134-19.079-19.134-.088.077-.173.154-.257.235a8.464,8.464,0,0,0-1.458,1.8C94.519,652.442,94.475,656.191,95.4,659.522Z" transform="translate(-88.125 -626.085)" fill="#cbe3df"/>
          <path id="Path_43855" data-name="Path 43855" d="M103.077,662.75c-.088.077-.173.154-.257.235A1.426,1.426,0,0,0,103.077,662.75Z" transform="translate(-93.198 -641.395)" fill="#00b283"/>
          <path id="Path_43856" data-name="Path 43856" d="M80.77,619.728a29.7,29.7,0,0,0,5.729,6.8c.889-1.032,3-1.946,4.694-2.553l-.026-.011c.007-.268.018-.536.037-.8-1.44-.176-4.249.11-5.8-1.117a16.061,16.061,0,0,1-5.755-10.555A10.638,10.638,0,0,0,80.77,619.728Zm-3.335-9.666a4.832,4.832,0,0,0,2.215,1.425,16.952,16.952,0,0,1,3.177-3.893c-5.432,4.279-5.733-1.587-4.694-2.093a2.648,2.648,0,0,0-1.267,1.241A3.2,3.2,0,0,0,77.436,610.061Zm23.314,17.526a4.7,4.7,0,0,0,1.491-.466A6.3,6.3,0,0,1,100.749,627.587Z" transform="translate(-76.621 -605.171)" fill="#cbe3df"/>
        </g>
        <path id="Path_43857" data-name="Path 43857" d="M110.4,631.468a.263.263,0,0,1,.187-.092.3.3,0,0,1,.2-.077c-.077,0,.007-.007.029-.011s.04-.011.062-.015c.048-.011.1-.018.151-.026.106-.015.213-.033.32-.04s.187-.007.279-.011h.147a1.065,1.065,0,0,0,.151-.018.075.075,0,0,1,.033.147,1.1,1.1,0,0,0-.147.04c-.044.018-.088.04-.132.062-.081.04-.162.085-.246.129s-.165.081-.25.125c-.044.026-.088.048-.132.073l-.022.011c.07.077.136.154.2.235a2.252,2.252,0,0,1,.195.294,1.152,1.152,0,0,1,.084.147c.011.026.015.051.026.073s.037.051.051.077c.044.066-.066.143-.114.081a.33.33,0,0,0-.055-.066c-.018-.015-.04-.026-.059-.04h-.007a.07.07,0,0,1-.026-.007.029.029,0,0,1-.015-.015.028.028,0,0,1-.007-.018v-.007c-.026-.022-.051-.048-.081-.07-.084-.073-.173-.14-.257-.217l-.118-.106-.007-.007,0,0a.241.241,0,0,1-.033-.029.661.661,0,0,0-.059-.048c-.044-.033-.088-.066-.129-.1a.114.114,0,0,1-.033-.026s0,0,0,0a.556.556,0,0,1-.073-.026A.258.258,0,0,1,110.4,631.468Zm-6.7,1.2a.263.263,0,0,1,.187-.092.3.3,0,0,1,.2-.077c-.077,0,.007-.007.029-.011s.04-.011.062-.015c.048-.011.1-.018.151-.026.106-.015.213-.033.319-.04s.187-.007.279-.011h.147a1.056,1.056,0,0,0,.151-.018.075.075,0,0,1,.033.147,1.1,1.1,0,0,0-.147.04c-.044.018-.088.04-.132.062-.081.041-.162.084-.246.129s-.165.081-.25.125c-.044.026-.088.048-.132.073l-.022.011c.07.077.136.154.2.235a2.252,2.252,0,0,1,.195.294,1.156,1.156,0,0,1,.084.147c.011.026.015.051.026.073s.037.051.051.077c.044.066-.066.143-.114.081a.329.329,0,0,0-.055-.066c-.018-.015-.04-.026-.059-.04h-.007a.068.068,0,0,1-.026-.007.029.029,0,0,1-.015-.015.028.028,0,0,1-.007-.018v-.007c-.026-.022-.051-.048-.081-.07-.084-.073-.173-.14-.257-.217l-.118-.106-.007-.007,0,0c-.011-.011-.022-.018-.033-.029a.651.651,0,0,0-.059-.048c-.044-.033-.088-.066-.129-.1a.116.116,0,0,1-.033-.026s0,0,0,0a.566.566,0,0,1-.073-.026A.258.258,0,0,1,103.7,632.673ZM99,636.8a.263.263,0,0,1,.187-.092.3.3,0,0,1,.2-.077c-.077,0,.007-.007.029-.011s.04-.011.062-.015c.048-.011.1-.018.151-.026.106-.015.213-.033.32-.04s.187-.007.279-.011h.147a1.056,1.056,0,0,0,.151-.018.075.075,0,0,1,.033.147,1.079,1.079,0,0,0-.147.04c-.044.018-.088.04-.132.062-.081.04-.162.084-.246.129s-.165.081-.25.125c-.044.026-.088.048-.132.073l-.022.011c.07.077.136.154.2.235a2.267,2.267,0,0,1,.195.294,1.181,1.181,0,0,1,.084.147c.011.026.015.051.026.073s.037.051.051.077c.044.066-.066.143-.114.081a.326.326,0,0,0-.055-.066c-.018-.015-.04-.026-.059-.04h-.007a.067.067,0,0,1-.026-.007.028.028,0,0,1-.015-.015.028.028,0,0,1-.007-.018v-.007c-.026-.022-.051-.048-.081-.07-.084-.074-.173-.14-.257-.217l-.118-.107-.007-.007,0,0c-.011-.011-.022-.018-.033-.029a.667.667,0,0,0-.059-.048c-.044-.033-.088-.066-.129-.1a.114.114,0,0,1-.033-.026s0,0,0,0a.593.593,0,0,1-.073-.026A.258.258,0,0,1,99,636.8Zm8.686,4.385a.263.263,0,0,1,.187-.092.3.3,0,0,1,.2-.077c-.077,0,.007-.007.029-.011s.04-.011.062-.015c.048-.011.1-.018.151-.026.107-.015.213-.033.319-.04s.187-.007.279-.011h.147a1.047,1.047,0,0,0,.151-.018.075.075,0,0,1,.033.147,1.1,1.1,0,0,0-.147.04c-.044.018-.088.04-.132.062-.081.041-.162.084-.246.129s-.165.081-.25.125c-.044.026-.088.048-.132.073l-.022.011c.07.077.136.154.2.235a2.26,2.26,0,0,1,.195.294,1.157,1.157,0,0,1,.084.147c.011.026.015.051.026.073s.037.051.051.077c.044.066-.066.143-.114.081a.329.329,0,0,0-.055-.066c-.018-.015-.04-.026-.059-.04h-.007a.068.068,0,0,1-.026-.007.05.05,0,0,1-.022-.033v-.007c-.026-.022-.051-.048-.081-.07-.084-.074-.173-.14-.257-.217l-.118-.106-.007-.007,0,0c-.011-.011-.022-.018-.033-.029a.633.633,0,0,0-.059-.048c-.044-.033-.088-.066-.129-.1a.115.115,0,0,1-.033-.026s0,0,0,0a.584.584,0,0,1-.073-.026A.261.261,0,0,1,107.687,641.186Zm-16.71.408a.263.263,0,0,1,.187-.092.3.3,0,0,1,.2-.077c-.077,0,.007-.007.029-.011s.04-.011.062-.015c.048-.011.1-.018.151-.026.106-.015.213-.033.32-.04s.187-.007.279-.011h.147a1.056,1.056,0,0,0,.151-.018.075.075,0,0,1,.033.147,1.108,1.108,0,0,0-.147.04c-.044.018-.088.04-.132.062-.081.04-.162.084-.246.129s-.165.081-.25.125c-.044.026-.088.048-.132.073l-.022.011c.07.077.136.154.2.235a2.28,2.28,0,0,1,.195.294,1.17,1.17,0,0,1,.084.147c.011.026.015.051.026.073s.037.051.051.077c.044.066-.066.143-.114.081a.329.329,0,0,0-.055-.066c-.018-.015-.04-.026-.059-.04h-.007a.068.068,0,0,1-.026-.007.029.029,0,0,1-.015-.015.028.028,0,0,1-.007-.018v-.007c-.026-.022-.051-.048-.081-.07-.084-.073-.173-.14-.257-.217l-.118-.107-.007-.007,0,0c-.011-.011-.022-.018-.033-.029a.636.636,0,0,0-.059-.048c-.044-.033-.088-.066-.129-.1a.11.11,0,0,1-.033-.026s0,0,0,0a.564.564,0,0,1-.073-.026A.258.258,0,0,1,90.977,641.593ZM94.136,626a.263.263,0,0,1,.187-.092.3.3,0,0,1,.2-.077c-.077,0,.007-.007.029-.011s.04-.011.062-.015c.048-.011.1-.018.151-.026.107-.015.213-.033.32-.04s.187-.007.279-.011h.147a1.066,1.066,0,0,0,.151-.018.075.075,0,0,1,.033.147,1.116,1.116,0,0,0-.147.04c-.044.018-.088.04-.132.062-.081.04-.162.084-.246.129s-.165.081-.25.125c-.044.026-.088.048-.132.073l-.022.011c.07.077.136.154.2.235a2.257,2.257,0,0,1,.195.294,1.17,1.17,0,0,1,.084.147c.011.026.015.051.026.073s.037.051.051.077c.044.066-.066.143-.114.081a.333.333,0,0,0-.055-.066c-.018-.015-.04-.026-.059-.04H95.09a.067.067,0,0,1-.026-.007.029.029,0,0,1-.015-.015.028.028,0,0,1-.007-.018v-.007c-.026-.022-.051-.048-.081-.07-.084-.073-.173-.14-.257-.217l-.118-.107-.007-.007,0,0a.241.241,0,0,1-.033-.029.662.662,0,0,0-.059-.048c-.044-.033-.088-.066-.129-.1a.115.115,0,0,1-.033-.026s0,0,0,0a.567.567,0,0,1-.073-.026A.258.258,0,0,1,94.136,626Zm-2.472,8.766a.263.263,0,0,1,.187-.092.3.3,0,0,1,.2-.077c-.077,0,.007-.008.029-.011s.04-.011.062-.015c.048-.011.1-.018.151-.026.107-.015.213-.033.32-.04s.187-.007.279-.011h.147a1.074,1.074,0,0,0,.151-.018.075.075,0,0,1,.033.147,1.106,1.106,0,0,0-.147.04c-.044.018-.088.04-.132.062-.081.04-.162.084-.246.128s-.165.081-.25.125c-.044.026-.088.048-.132.073l-.022.011c.07.077.136.154.2.235a2.272,2.272,0,0,1,.195.294,1.178,1.178,0,0,1,.084.147c.011.026.015.051.026.073s.037.051.051.077c.044.066-.066.143-.114.081a.327.327,0,0,0-.055-.066c-.018-.015-.04-.026-.059-.04h-.007a.066.066,0,0,1-.026-.007.029.029,0,0,1-.015-.015.028.028,0,0,1-.007-.018v-.007c-.026-.022-.051-.048-.081-.07-.084-.073-.173-.14-.257-.217l-.118-.106-.007-.007,0,0c-.011-.011-.022-.018-.033-.029a.683.683,0,0,0-.059-.048c-.044-.033-.088-.066-.129-.1a.113.113,0,0,1-.033-.026s0,0,0,0a.568.568,0,0,1-.073-.026A.257.257,0,0,1,91.664,634.77Zm25.231-12.52a.264.264,0,0,1,.187-.092.3.3,0,0,1,.2-.077c-.077,0,.007-.007.029-.011s.04-.011.062-.015c.048-.011.1-.018.151-.026.106-.015.213-.033.32-.04s.187-.007.279-.011h.147a1.056,1.056,0,0,0,.151-.018.075.075,0,0,1,.033.147,1.087,1.087,0,0,0-.147.04c-.044.018-.088.04-.132.063-.081.04-.162.085-.246.129s-.165.081-.25.125c-.044.026-.088.048-.132.073l-.022.011c.07.077.136.154.2.235a2.265,2.265,0,0,1,.195.294,1.162,1.162,0,0,1,.084.147c.011.026.015.051.026.073s.037.051.051.077c.044.066-.066.143-.114.081a.328.328,0,0,0-.055-.066c-.018-.015-.04-.026-.059-.04h-.007a.066.066,0,0,1-.026-.007.028.028,0,0,1-.015-.015.028.028,0,0,1-.007-.018V623.3c-.026-.022-.051-.048-.081-.07-.084-.073-.173-.14-.257-.217l-.118-.107-.007-.007,0,0a.229.229,0,0,1-.033-.029.708.708,0,0,0-.059-.048c-.044-.033-.088-.066-.129-.1a.114.114,0,0,1-.033-.026s0,0,0,0a.574.574,0,0,1-.073-.026A.258.258,0,0,1,116.895,622.25Zm-24.889-7.727a.263.263,0,0,1,.143-.151.3.3,0,0,1,.165-.14c-.073.026,0-.011.022-.022a.478.478,0,0,0,.055-.037c.044-.026.088-.052.132-.073.1-.052.187-.1.286-.147s.173-.07.261-.1c.044-.018.092-.033.14-.051a1.5,1.5,0,0,0,.136-.066.074.074,0,0,1,.081.125.859.859,0,0,0-.224.195c-.062.066-.125.136-.187.2s-.129.132-.191.2c-.033.037-.066.077-.1.114l-.018.018c.092.048.18.1.272.154a3.114,3.114,0,0,1,.283.209c.044.037.092.07.132.11.018.018.033.044.051.062a.581.581,0,0,0,.077.055c.066.048-.015.154-.081.114a.3.3,0,0,0-.073-.044c-.022-.007-.048-.011-.07-.018,0,0,0,0-.007,0a.031.031,0,0,1-.026,0c-.007,0-.011,0-.018-.007a.029.029,0,0,1-.015-.015s0,0,0-.007c-.033-.015-.066-.026-.1-.04-.1-.04-.209-.073-.312-.117-.048-.022-.1-.041-.147-.059a.013.013,0,0,1-.007,0h0c-.015,0-.026-.011-.04-.015s-.048-.018-.073-.026c-.051-.018-.1-.033-.158-.051l-.04-.011h0a.277.277,0,0,1-.077,0A.27.27,0,0,1,92.005,614.523Zm-3.236-3.691a.263.263,0,0,1,.143-.151.3.3,0,0,1,.165-.14c-.073.026,0-.011.022-.022a.48.48,0,0,0,.055-.037c.044-.026.088-.051.132-.074.1-.051.187-.1.286-.147s.173-.07.261-.1c.044-.018.092-.033.14-.052s.092-.044.136-.066a.074.074,0,0,1,.081.125.857.857,0,0,0-.224.195c-.062.066-.125.136-.187.2s-.129.132-.191.2c-.033.037-.066.077-.1.114l-.018.018c.092.048.18.1.272.154a3.105,3.105,0,0,1,.283.209c.044.037.092.07.132.11.018.018.033.044.051.062a.586.586,0,0,0,.077.055c.066.048-.015.154-.081.114a.3.3,0,0,0-.073-.044c-.022-.007-.048-.011-.07-.018,0,0,0,0-.007,0a.031.031,0,0,1-.026,0c-.007,0-.011,0-.018-.007a.029.029,0,0,1-.015-.015s0,0,0-.007c-.033-.015-.066-.026-.1-.04-.1-.041-.209-.074-.312-.118-.048-.022-.1-.04-.147-.059a.013.013,0,0,1-.007,0h0c-.015,0-.026-.011-.04-.015s-.048-.018-.073-.026c-.051-.018-.1-.033-.158-.051l-.04-.011h0a.263.263,0,0,1-.077,0A.267.267,0,0,1,88.77,610.832Zm-2.255,7.463a.271.271,0,0,1,.04-.206.3.3,0,0,1,.066-.209c-.048.059,0-.011.007-.029s.018-.04.026-.059c.022-.044.048-.088.07-.132a3.02,3.02,0,0,1,.165-.275c.051-.077.106-.154.165-.228.029-.04.062-.077.088-.117a1.5,1.5,0,0,0,.077-.129.075.075,0,0,1,.136.063.915.915,0,0,0-.055.14c-.015.048-.022.1-.033.143-.018.092-.033.18-.048.272s-.037.18-.051.272c-.007.051-.015.1-.026.147,0,.007,0,.018,0,.026.1-.007.206-.011.312-.015a2.2,2.2,0,0,1,.349.026c.055.007.114.011.169.022.026.007.051.018.077.026a.791.791,0,0,0,.1.007c.081,0,.073.14-.007.14a.363.363,0,0,0-.088,0c-.022,0-.044.018-.07.022a0,0,0,0,1,0,0,.075.075,0,0,1-.022.015.048.048,0,0,1-.037,0,0,0,0,0,1,0,0c-.033.007-.07.011-.1.018-.11.022-.217.051-.327.07-.051.007-.1.018-.154.029h-.011a.186.186,0,0,1-.04.007c-.026.008-.051.011-.077.018-.055.011-.107.026-.158.04a.218.218,0,0,1-.04.011h0c-.022.015-.04.029-.066.044A.268.268,0,0,1,86.515,618.294ZM80.65,604.056a.254.254,0,0,1-.073-.195.3.3,0,0,1-.059-.209c-.007.077-.007-.007-.011-.029a.407.407,0,0,1-.007-.062c-.007-.051-.007-.1-.011-.151,0-.107-.015-.217-.011-.323s.007-.187.015-.279c0-.048.011-.1.015-.147s0-.1,0-.151a.074.074,0,0,1,.147-.018,1.037,1.037,0,0,0,.029.147c.015.048.033.092.051.14.033.084.07.169.1.253s.066.173.1.257c.018.048.04.092.059.14l.011.022c.084-.062.169-.121.253-.18a2.525,2.525,0,0,1,.308-.169,1.472,1.472,0,0,1,.154-.073c.026-.007.051-.011.077-.018a.558.558,0,0,0,.081-.044c.07-.04.136.077.07.121a.817.817,0,0,0-.073.048.553.553,0,0,0-.044.055v.007a.04.04,0,0,1-.011.026s-.007.011-.015.011a.028.028,0,0,1-.018.007h-.007c-.026.026-.051.048-.077.073-.081.077-.158.158-.239.235-.04.037-.077.073-.114.106l-.007.007,0,0-.029.03-.055.055-.11.121a.267.267,0,0,1-.029.033s0,0,0,0a.244.244,0,0,1-.033.07A.262.262,0,0,1,80.65,604.056Zm5.608,1.487a.26.26,0,0,1,.007-.209.284.284,0,0,1,.029-.217c-.037.066,0-.011,0-.033s.011-.04.018-.062c.015-.048.029-.1.048-.143.037-.1.07-.2.118-.3s.081-.169.125-.25c.022-.044.048-.084.07-.129s.037-.092.055-.14a.074.074,0,0,1,.143.04c-.011.048-.026.1-.033.147s0,.1-.007.147c0,.092,0,.184,0,.275s-.007.184-.007.279v.176c.1-.026.2-.048.3-.066a2.2,2.2,0,0,1,.349-.033,1.333,1.333,0,0,1,.173,0,.549.549,0,0,0,.077.011.772.772,0,0,0,.092-.011c.081-.007.1.125.015.14a.344.344,0,0,0-.084.018c-.022.007-.04.026-.062.033,0,0,0,0,0,.007a.044.044,0,0,1-.018.018.033.033,0,0,1-.018,0h-.018s0,0-.007,0c-.033.011-.066.026-.1.037-.1.04-.206.084-.312.121-.051.018-.1.037-.147.055a.013.013,0,0,0-.007,0h0c-.015,0-.026.011-.04.015l-.073.029-.151.066a.138.138,0,0,1-.04.018h0a.392.392,0,0,1-.059.051A.259.259,0,0,1,86.258,605.543Zm22.583,12.667a.262.262,0,0,1,.187-.092.3.3,0,0,1,.2-.077c-.077,0,.007-.007.029-.011s.04-.011.062-.015c.048-.011.1-.018.151-.026.106-.015.213-.033.32-.04s.187-.007.279-.011h.147a1.039,1.039,0,0,0,.151-.018.075.075,0,0,1,.033.147,1.1,1.1,0,0,0-.147.041c-.044.018-.088.04-.132.062-.081.04-.162.084-.246.129s-.165.081-.25.125c-.044.026-.088.048-.132.073l-.022.011c.07.077.136.154.2.235a2.262,2.262,0,0,1,.195.294,1.166,1.166,0,0,1,.084.147c.011.026.015.051.026.073s.037.051.051.077c.044.066-.066.143-.114.081a.329.329,0,0,0-.055-.066c-.018-.015-.04-.026-.059-.04H109.8a.069.069,0,0,1-.026-.007.029.029,0,0,1-.015-.015.028.028,0,0,1-.007-.018v-.007c-.026-.022-.051-.048-.081-.07-.084-.073-.173-.14-.257-.217l-.118-.106-.007-.007,0,0a.252.252,0,0,1-.033-.029.65.65,0,0,0-.059-.048c-.044-.033-.088-.066-.129-.1a.112.112,0,0,1-.033-.026s0,0,0,0a.6.6,0,0,1-.073-.026A.262.262,0,0,1,108.841,618.21Zm-1.109,5.535a.263.263,0,0,1,.187-.092.3.3,0,0,1,.2-.077c-.077,0,.007-.007.029-.011s.04-.011.062-.015c.048-.011.1-.018.151-.026.107-.015.213-.033.32-.04s.187-.007.279-.011h.147a1.047,1.047,0,0,0,.151-.018.075.075,0,0,1,.033.147,1.1,1.1,0,0,0-.147.04c-.044.018-.088.04-.132.062-.081.04-.162.084-.246.129s-.165.081-.25.125c-.044.026-.088.048-.132.073l-.022.011c.07.077.136.154.2.235a2.267,2.267,0,0,1,.195.294,1.181,1.181,0,0,1,.084.147c.011.026.015.051.026.073s.037.051.051.077c.044.066-.066.143-.114.081a.329.329,0,0,0-.055-.066c-.018-.015-.04-.026-.059-.04h-.007a.069.069,0,0,1-.026-.007.029.029,0,0,1-.015-.015.028.028,0,0,1-.007-.018v-.007c-.026-.022-.051-.048-.081-.07-.084-.073-.173-.139-.257-.217l-.118-.107-.007-.007,0,0c-.011-.011-.022-.018-.033-.029a.666.666,0,0,0-.059-.048c-.044-.033-.088-.066-.129-.1a.115.115,0,0,1-.033-.026s0,0,0,0a.583.583,0,0,1-.073-.026A.259.259,0,0,1,107.731,623.745Zm6.357-3.764a.259.259,0,0,1,.088-.187.285.285,0,0,1,.114-.187c-.062.044,0-.011.015-.029l.04-.051c.033-.04.066-.077.1-.114.073-.077.147-.158.224-.231s.14-.121.213-.184c.037-.029.077-.059.114-.092s.07-.07.107-.107a.074.074,0,0,1,.114.1c-.029.04-.062.081-.088.121s-.044.088-.066.132c-.04.085-.077.169-.114.253s-.081.165-.118.253c-.018.048-.037.092-.059.14l-.011.022c.1.018.206.037.3.059a2.711,2.711,0,0,1,.334.106,1.18,1.18,0,0,1,.158.063.682.682,0,0,1,.066.044.815.815,0,0,0,.088.029c.077.022.037.151-.04.136a.341.341,0,0,0-.084-.018c-.022,0-.048.007-.073.007l0,0a.052.052,0,0,1-.026.008.027.027,0,0,1-.018,0c-.007,0-.011,0-.018-.007s0,0,0-.007c-.037,0-.07,0-.107-.007-.11,0-.224,0-.334-.011-.051,0-.106-.007-.158-.007h-.132c-.055,0-.11,0-.165,0a.18.18,0,0,1-.044,0h0a.582.582,0,0,1-.073.026A.258.258,0,0,1,114.089,619.98Zm-7.165-3.665a.246.246,0,0,0,.007-.209.281.281,0,0,0-.015-.217c.033.07,0-.011,0-.033s-.007-.044-.011-.062c-.011-.051-.022-.1-.037-.147-.029-.1-.055-.209-.092-.309s-.07-.173-.107-.261c-.018-.044-.04-.088-.059-.136s-.029-.1-.044-.143a.075.075,0,0,0-.147.029c.007.048.018.1.022.15s0,.1,0,.147c0,.092-.011.184-.018.275s-.007.184-.015.279c0,.051-.011.1-.011.151v.026q-.149-.05-.3-.088a2.821,2.821,0,0,0-.345-.059,1.323,1.323,0,0,0-.169-.018c-.026,0-.051.007-.081.007a.4.4,0,0,1-.092-.018c-.077-.015-.1.118-.026.136a.729.729,0,0,1,.084.022.631.631,0,0,1,.062.04s0,0,0,.007a.044.044,0,0,0,.018.018.028.028,0,0,0,.018.007c.007,0,.011,0,.018,0s0,0,.007,0c.033.015.066.029.1.044.1.048.2.1.3.147l.143.066s0,0,.007,0l0,0,.04.018.07.033.143.077a.189.189,0,0,0,.037.022h0a.248.248,0,0,0,.051.055A.26.26,0,0,0,106.923,616.315Zm-4.326,5.413a.252.252,0,0,0-.114-.176.281.281,0,0,0-.136-.169c.066.037,0-.011-.018-.026a.563.563,0,0,0-.048-.044c-.037-.033-.077-.066-.114-.1-.084-.066-.165-.14-.253-.2s-.154-.1-.235-.154c-.04-.026-.084-.048-.125-.077s-.081-.062-.121-.092c-.073-.059-.173.04-.1.106a.959.959,0,0,1,.1.11c.029.04.055.081.081.121.051.077.1.154.143.235s.1.154.147.235c.026.044.051.088.077.129a.079.079,0,0,0,.015.022c-.1.029-.2.062-.294.1a2.494,2.494,0,0,0-.316.151,1.207,1.207,0,0,0-.151.084c-.022.015-.04.037-.062.052s-.059.026-.084.04c-.073.033-.018.154.059.128a.362.362,0,0,1,.081-.029c.022,0,.048,0,.073,0l0,0a.068.068,0,0,0,.026.007.033.033,0,0,0,.018,0,.05.05,0,0,0,.015-.011.013.013,0,0,0,0-.007.992.992,0,0,1,.1-.018c.11-.018.22-.033.331-.055.051-.011.1-.018.154-.029h.011c.015,0,.029,0,.044-.007l.077-.011c.055-.007.11-.015.162-.018a.176.176,0,0,0,.044,0h0a.563.563,0,0,0,.077.015A.268.268,0,0,0,102.6,621.728ZM80.69,613.3a.252.252,0,0,0-.114-.176.281.281,0,0,0-.136-.169c.066.037,0-.011-.018-.026a.563.563,0,0,0-.048-.044c-.037-.033-.077-.066-.114-.1-.084-.066-.165-.14-.253-.2s-.154-.1-.235-.154c-.04-.026-.084-.048-.125-.077s-.081-.062-.121-.092c-.073-.059-.173.04-.1.107a.967.967,0,0,1,.1.11c.029.04.055.081.081.121.051.077.1.154.143.235s.1.154.147.235c.026.044.051.088.077.129a.078.078,0,0,0,.015.022c-.1.029-.2.062-.294.1a2.467,2.467,0,0,0-.316.151,1.205,1.205,0,0,0-.151.084c-.022.015-.04.037-.062.052s-.059.026-.084.04c-.073.033-.018.154.059.129a.36.36,0,0,1,.081-.029c.022,0,.048,0,.073,0l0,0a.067.067,0,0,0,.026.007.033.033,0,0,0,.018,0,.052.052,0,0,0,.015-.011.013.013,0,0,0,0-.007,1.026,1.026,0,0,1,.1-.018c.11-.018.22-.033.331-.055.051-.011.1-.018.154-.029h.011c.015,0,.029,0,.044-.007l.077-.011c.055-.007.11-.015.162-.018a.179.179,0,0,0,.044,0h0a.563.563,0,0,0,.077.015A.271.271,0,0,0,80.69,613.3Zm-1.311-6.28a.252.252,0,0,0-.114-.176.281.281,0,0,0-.136-.169c.066.037,0-.011-.018-.026a.553.553,0,0,0-.048-.044c-.037-.033-.077-.066-.114-.1-.084-.066-.165-.14-.253-.2s-.154-.1-.235-.154c-.04-.026-.084-.048-.125-.077s-.081-.062-.121-.092c-.073-.059-.173.04-.1.107a.965.965,0,0,1,.1.11c.029.04.055.081.081.121.051.077.1.154.143.235s.1.154.147.235c.026.044.051.088.077.128a.077.077,0,0,0,.015.022c-.1.029-.2.062-.294.1a2.461,2.461,0,0,0-.316.151,1.207,1.207,0,0,0-.151.084c-.022.015-.04.037-.062.051s-.059.026-.084.04c-.073.033-.018.154.059.129a.36.36,0,0,1,.081-.029c.022,0,.048,0,.073,0l0,0a.067.067,0,0,0,.026.007.034.034,0,0,0,.018,0,.053.053,0,0,0,.015-.011.013.013,0,0,0,0-.007,1.044,1.044,0,0,1,.1-.018c.11-.018.22-.033.331-.055.051-.011.1-.018.154-.029h.011c.015,0,.029,0,.044-.007l.077-.011c.055-.007.11-.015.162-.018a.179.179,0,0,0,.044,0h0a.582.582,0,0,0,.077.015A.271.271,0,0,0,79.379,607.02Zm5.226,13.688a.271.271,0,0,0-.206-.04.274.274,0,0,0-.217-.018c.073-.022-.011,0-.033,0a.394.394,0,0,0-.066,0c-.051,0-.1.007-.151.015-.106.015-.213.022-.32.044s-.184.041-.272.066c-.048.011-.1.026-.143.037s-.1.015-.151.022a.074.074,0,0,0,.007.147,1,1,0,0,1,.151,0c.048.007.1.018.143.026.092.018.18.037.268.059s.184.033.272.055c.048.011.1.026.147.033.007,0,.018,0,.026,0-.048.092-.092.187-.132.283a2.1,2.1,0,0,0-.11.334c-.015.055-.033.11-.044.165a.6.6,0,0,1-.007.081c-.007.029-.022.059-.029.088-.026.077.1.121.132.048a.322.322,0,0,1,.037-.081c.015-.018.033-.037.048-.055h.007a.078.078,0,0,0,.022-.015.081.081,0,0,0,.011-.018.033.033,0,0,0,0-.018s0,0,0-.008c.018-.029.037-.059.059-.088.062-.092.129-.18.191-.275l.088-.132s0,0,0-.007l0,0c.007-.011.015-.022.026-.037s.029-.044.044-.062l.1-.132c.007-.011.022-.022.026-.033s0,0,0,0c.022-.015.044-.029.062-.044A.263.263,0,0,0,84.605,620.707Zm.353,8.469a.251.251,0,0,0-.114-.176.281.281,0,0,0-.136-.169c.066.037,0-.011-.018-.026a.572.572,0,0,0-.048-.044c-.037-.033-.077-.066-.114-.1-.084-.066-.165-.14-.253-.2s-.154-.1-.235-.154c-.04-.026-.084-.048-.125-.077s-.081-.062-.121-.092c-.073-.059-.173.04-.1.107a.963.963,0,0,1,.1.11c.029.04.055.081.081.121.051.077.1.154.143.235s.1.154.147.235c.026.044.051.088.077.129a.077.077,0,0,0,.015.022c-.1.029-.2.063-.294.1a2.486,2.486,0,0,0-.316.151,1.217,1.217,0,0,0-.151.084c-.022.015-.04.037-.062.051s-.059.026-.084.04c-.073.033-.018.154.059.129a.363.363,0,0,1,.081-.029c.022,0,.048,0,.073,0l0,0a.066.066,0,0,0,.026.007.033.033,0,0,0,.018,0,.052.052,0,0,0,.015-.011.013.013,0,0,0,0-.007,1.008,1.008,0,0,1,.1-.018c.11-.018.22-.033.331-.055.051-.011.1-.018.154-.029h.011c.015,0,.029,0,.044-.007l.077-.011c.055-.007.11-.015.162-.018a.176.176,0,0,0,.044,0h0a.554.554,0,0,0,.077.015A.272.272,0,0,0,84.958,629.176Zm.356,9.1a.252.252,0,0,0-.114-.176.282.282,0,0,0-.136-.169c.066.037,0-.011-.018-.026a.561.561,0,0,0-.048-.044c-.037-.033-.077-.066-.114-.1-.084-.066-.165-.14-.253-.2s-.154-.1-.235-.154c-.04-.026-.084-.048-.125-.077s-.081-.062-.121-.092c-.073-.059-.173.04-.1.107a.964.964,0,0,1,.1.11c.029.04.055.081.081.121.051.077.1.154.143.235s.1.154.147.235c.026.044.051.088.077.129a.077.077,0,0,0,.015.022c-.1.029-.2.063-.294.1a2.5,2.5,0,0,0-.316.151,1.208,1.208,0,0,0-.151.084c-.022.015-.04.037-.062.051s-.059.026-.084.04c-.073.033-.018.154.059.128a.356.356,0,0,1,.081-.029c.022,0,.048,0,.073,0l0,0a.069.069,0,0,0,.026.007.033.033,0,0,0,.018,0,.048.048,0,0,0,.015-.011.013.013,0,0,0,0-.007.991.991,0,0,1,.1-.018c.11-.018.22-.033.331-.055.051-.011.1-.018.154-.029h.011c.015,0,.029,0,.044-.007l.077-.011c.055-.007.11-.015.162-.018a.179.179,0,0,0,.044,0h0a.553.553,0,0,0,.077.015A.271.271,0,0,0,85.314,638.277Z" transform="translate(-77.326 -602.428)" fill="#0a8565"/>
      </g>
    </g>
    <g id="Group_52206" data-name="Group 52206" transform="translate(41.73 342.617)">
      <path id="Path_43858" data-name="Path 43858" d="M510.807,802.114H42.942a1.212,1.212,0,0,1,0-2.424H510.807a1.212,1.212,0,0,1,0,2.424Z" transform="translate(-41.73 -799.69)" fill="#371775"/>
    </g>
    <g id="Group_52207" data-name="Group 52207" transform="translate(72.532 83.297)">
      <path id="Path_43859" data-name="Path 43859" d="M139.773,264.5a.608.608,0,0,1-.452-.2c-1.08-1.208-2.119-2.49-3.089-3.8a.607.607,0,0,1,.977-.72c.948,1.285,1.961,2.538,3.019,3.717a.6.6,0,0,1-.048.856A.621.621,0,0,1,139.773,264.5Zm-5.748-7.793a.6.6,0,0,1-.518-.294c-.837-1.388-1.627-2.835-2.343-4.3a.607.607,0,1,1,1.091-.533c.7,1.436,1.469,2.85,2.292,4.209a.609.609,0,0,1-.206.834A.58.58,0,0,1,134.025,256.711Zm-4.242-8.7a.6.6,0,0,1-.566-.389c-.58-1.52-1.1-3.085-1.542-4.65a.607.607,0,1,1,1.168-.331c.433,1.528.94,3.059,1.509,4.55a.605.605,0,0,1-.349.782A.813.813,0,0,1,129.783,248.011Zm-2.641-9.317a.605.605,0,0,1-.595-.492c-.3-1.6-.54-3.236-.694-4.852a.605.605,0,0,1,1.2-.118c.154,1.579.382,3.173.679,4.741a.608.608,0,0,1-.481.709A.63.63,0,0,1,127.143,238.693Zm-.937-9.637a.6.6,0,0,1-.606-.6v-.264c0-1.293.048-2.6.143-3.875.018-.253.04-.507.062-.76a.606.606,0,0,1,1.208.106c-.022.246-.044.492-.062.742-.092,1.249-.14,2.519-.14,3.783v.261a.607.607,0,0,1-.606.61Zm.863-9.644a.56.56,0,0,1-.11-.011.6.6,0,0,1-.485-.705c.3-1.6.676-3.21,1.12-4.774a.606.606,0,1,1,1.164.334c-.437,1.528-.8,3.1-1.094,4.664A.6.6,0,0,1,127.069,219.412Zm2.655-9.31a.667.667,0,0,1-.22-.04.6.6,0,0,1-.342-.786c.595-1.524,1.271-3.03,2.009-4.477a.606.606,0,0,1,1.08.551c-.72,1.41-1.377,2.879-1.957,4.367A.61.61,0,0,1,129.724,210.1Zm43.674-2.4a18.863,18.863,0,0,1-2.993-.242.606.606,0,1,1,.191-1.2,17.2,17.2,0,0,0,4.668.121.606.606,0,1,1,.14,1.2A17.428,17.428,0,0,1,173.4,207.7Zm6.563-1.462a.61.61,0,0,1-.547-.342.6.6,0,0,1,.283-.808,14.775,14.775,0,0,0,3.812-2.641.605.605,0,0,1,.837.874,15.993,15.993,0,0,1-4.124,2.857A.6.6,0,0,1,179.962,206.242Zm-14.117-.084a.626.626,0,0,1-.228-.044,27.352,27.352,0,0,1-4.4-2.27.607.607,0,1,1,.65-1.025,26.443,26.443,0,0,0,4.205,2.171.606.606,0,0,1-.228,1.168Zm-31.724-4.679a.584.584,0,0,1-.327-.1.606.606,0,0,1-.184-.837,47.3,47.3,0,0,1,2.868-3.985.606.606,0,0,1,.944.76,45.432,45.432,0,0,0-2.791,3.882A.616.616,0,0,1,134.12,201.479Zm23.541-.441a.6.6,0,0,1-.4-.147q-.33-.286-.65-.584a39.829,39.829,0,0,1-2.839-2.89.606.606,0,1,1,.907-.8,38.073,38.073,0,0,0,2.751,2.8q.308.286.628.562a.605.605,0,0,1,.059.856A.618.618,0,0,1,157.662,201.038Zm29.124-1.429a.627.627,0,0,1-.264-.059.6.6,0,0,1-.283-.808,10.181,10.181,0,0,0,1.05-4.414.6.6,0,0,1,.606-.6h0a.6.6,0,0,1,.6.61,11.4,11.4,0,0,1-1.172,4.936A.6.6,0,0,1,186.785,199.61Zm-46.6-5.67a.6.6,0,0,1-.43-1.032,43.776,43.776,0,0,1,3.665-3.272.606.606,0,0,1,.757.948,43.193,43.193,0,0,0-3.562,3.184A.621.621,0,0,1,140.184,193.939Zm11.054-.129a.61.61,0,0,1-.5-.261,44.128,44.128,0,0,1-2.567-4.187.607.607,0,1,1,1.069-.577,42.946,42.946,0,0,0,2.5,4.073.61.61,0,0,1-.151.845A.657.657,0,0,1,151.238,193.811Zm35.595-3.566a.608.608,0,0,1-.551-.349,12.965,12.965,0,0,0-2.681-3.746.605.605,0,1,1,.848-.863,14.183,14.183,0,0,1,2.931,4.095.6.6,0,0,1-.294.8A.558.558,0,0,1,186.833,190.245ZM147.746,187.9a.608.608,0,0,1-.327-1.12,45.055,45.055,0,0,1,4.29-2.395.607.607,0,0,1,.533,1.091,43.392,43.392,0,0,0-4.172,2.328A.581.581,0,0,1,147.746,187.9Zm-1.113-2.6a.61.61,0,0,1-.562-.375c-.613-1.5-1.164-3.056-1.631-4.627a.605.605,0,1,1,1.161-.345c.455,1.535.992,3.052,1.59,4.514a.6.6,0,0,1-.331.79A.612.612,0,0,1,146.633,185.3Zm9.813-1.634a.607.607,0,0,1-.206-1.179,41.876,41.876,0,0,1,4.723-1.37.6.6,0,1,1,.268,1.179,41.469,41.469,0,0,0-4.587,1.329A.479.479,0,0,1,156.446,183.663Zm23.648-.14a.652.652,0,0,1-.272-.062,19.059,19.059,0,0,0-4.425-1.539.607.607,0,1,1,.261-1.186,20.35,20.35,0,0,1,4.708,1.638.607.607,0,0,1-.272,1.15Zm-14.217-1.991a.606.606,0,0,1-.062-1.208c.757-.077,1.524-.132,2.281-.165.889-.037,1.767-.044,2.641-.015a.6.6,0,0,1-.04,1.208c-.845-.029-1.693-.022-2.549.015-.731.029-1.473.084-2.211.158A.286.286,0,0,1,165.877,181.533Zm-22-5.513a.608.608,0,0,1-.595-.492c-.308-1.6-.544-3.232-.7-4.855a.607.607,0,1,1,1.208-.114c.151,1.587.378,3.18.679,4.741a.607.607,0,0,1-.595.72Zm-.925-9.641a.6.6,0,0,1-.606-.6v-.29c0-1.513.062-3.063.184-4.6a.606.606,0,1,1,1.208.092c-.117,1.509-.18,3.026-.18,4.506v.286a.607.607,0,0,1-.606.61Zm.749-9.655a.837.837,0,0,1-.1-.007.607.607,0,0,1-.5-.694c.25-1.587.566-3.2.94-4.8a.605.605,0,1,1,1.179.275c-.367,1.572-.676,3.158-.922,4.712A.607.607,0,0,1,143.7,156.725Zm2.2-9.435a.586.586,0,0,1-.176-.026.6.6,0,0,1-.4-.757c.47-1.535,1-3.092,1.579-4.624a.607.607,0,0,1,1.135.43c-.569,1.509-1.091,3.041-1.554,4.55A.616.616,0,0,1,145.895,147.29Zm3.412-9.068a.643.643,0,0,1-.246-.051.6.6,0,0,1-.3-.8c.661-1.48,1.377-2.96,2.126-4.4a.6.6,0,0,1,1.072.558c-.738,1.418-1.443,2.876-2.093,4.33A.6.6,0,0,1,149.307,138.222Zm4.477-8.594a.643.643,0,0,1-.312-.084.605.605,0,0,1-.209-.83c.834-1.392,1.719-2.776,2.633-4.113a.605.605,0,1,1,1,.683c-.9,1.315-1.77,2.681-2.593,4.051A.606.606,0,0,1,153.783,129.629Zm5.468-8a.592.592,0,0,1-.371-.129.6.6,0,0,1-.107-.848c1-1.285,2.049-2.549,3.118-3.761a.606.606,0,1,1,.907.8c-1.054,1.19-2.086,2.439-3.07,3.7A.607.607,0,0,1,159.252,121.63Zm6.416-7.261a.6.6,0,0,1-.43-.18.6.6,0,0,1,0-.856c1.157-1.15,2.358-2.27,3.577-3.331a.607.607,0,1,1,.8.914c-1.2,1.043-2.383,2.145-3.518,3.276A.6.6,0,0,1,165.668,114.369Zm113.005-3.507c-1.392,0-2.835-.051-4.3-.158a.605.605,0,0,1-.562-.646.617.617,0,0,1,.646-.562c1.634.118,3.239.165,4.8.151a.606.606,0,1,1,.015,1.212C279.074,110.858,278.872,110.862,278.673,110.862Zm5.428-.283a.606.606,0,0,1-.066-1.208,43.546,43.546,0,0,0,4.716-.768.606.606,0,1,1,.264,1.183,45.087,45.087,0,0,1-4.848.79C284.146,110.575,284.124,110.579,284.1,110.579Zm-14.5-.393a.653.653,0,0,1-.084-.007c-1.557-.22-3.177-.5-4.815-.83a.605.605,0,0,1,.239-1.186c1.612.323,3.21.6,4.745.815a.607.607,0,0,1-.085,1.208Zm-9.508-1.9a.67.67,0,0,1-.147-.018c-1.513-.382-3.1-.815-4.7-1.285a.607.607,0,0,1,.342-1.164c1.587.466,3.155.9,4.653,1.274a.606.606,0,0,1-.147,1.194Zm-87.11-.279a.61.61,0,0,1-.485-.242.6.6,0,0,1,.118-.848c1.3-.984,2.648-1.928,4-2.81a.605.605,0,0,1,.661,1.014c-1.329.867-2.652,1.792-3.93,2.762A.582.582,0,0,1,172.98,108.012Zm77.8-2.446a.711.711,0,0,1-.191-.029c-1.473-.485-2.975-1-4.6-1.579a.606.606,0,0,1,.408-1.142c1.616.573,3.114,1.087,4.576,1.568a.607.607,0,0,1-.191,1.183Zm-69.68-2.832a.607.607,0,0,1-.294-1.138c1.421-.782,2.894-1.52,4.374-2.193a.607.607,0,0,1,.5,1.105c-1.454.661-2.9,1.385-4.29,2.152A.611.611,0,0,1,181.1,102.734Zm60.535-.4a.619.619,0,0,1-.213-.037q-2.176-.815-4.223-1.594l-.32-.121a.607.607,0,1,1,.43-1.135l.32.121c1.359.514,2.765,1.05,4.216,1.59a.606.606,0,0,1,.356.779A.6.6,0,0,1,241.639,102.33Zm-9.079-3.419a.6.6,0,0,1-.209-.037c-1.825-.672-3.276-1.179-4.558-1.594a.606.606,0,0,1,.375-1.153c1.3.419,2.758.933,4.6,1.609a.606.606,0,0,1-.209,1.175Zm-42.642-.191a.606.606,0,0,1-.209-1.175c1.524-.562,3.089-1.072,4.649-1.517a.606.606,0,1,1,.334,1.164c-1.531.437-3.067.937-4.565,1.487A.6.6,0,0,1,189.918,98.72Zm9.314-2.655a.607.607,0,0,1-.118-1.2c1.6-.327,3.221-.595,4.829-.793a.605.605,0,0,1,.151,1.2c-1.576.2-3.169.459-4.738.779A.484.484,0,0,1,199.232,96.065Zm24.07-.026a.531.531,0,0,1-.129-.015c-1.55-.331-3.14-.595-4.727-.793a.607.607,0,0,1,.147-1.2c1.623.2,3.25.47,4.833.808a.607.607,0,0,1,.466.72A.6.6,0,0,1,223.3,96.039Zm-14.455-1.172a.606.606,0,0,1-.029-1.212c1.62-.073,3.261-.081,4.9-.018a.606.606,0,1,1-.044,1.212c-1.6-.059-3.21-.051-4.8.018Z" transform="translate(-125.6 -93.595)" fill="#9b98e6"/>
    </g>
    <g id="Group_52208" data-name="Group 52208" transform="translate(239.873 79.909)">
      <path id="Path_43860" data-name="Path 43860" d="M583.52,116.807l15.3-2.685-6.445-6.842Z" transform="translate(-582.686 -98.866)" fill="#44248f"/>
      <path id="Path_43861" data-name="Path 43861" d="M612.541,115.021,630.72,104.29l-24.61,4.716Z" transform="translate(-596.98 -96.974)" fill="#6f4ebd"/>
      <path id="Path_43862" data-name="Path 43862" d="M615,91.656,581.25,84.37l6.063,6.229Z" transform="translate(-581.25 -84.37)" fill="#6f4ebd"/>
      <path id="Path_43863" data-name="Path 43863" d="M616.426,102.215l-24.647,4.8-8.26,5.828,5.2-11.829Z" transform="translate(-582.686 -94.899)" fill="#5939a3"/>
    </g>
    <path id="Path_43864" data-name="Path 43864" d="M310.137,307.392c3.643-1.091,6.489-4.954,7.29-9.9l.437-2.7.437,2.7c.8,4.947,3.647,8.807,7.29,9.9l1.987.595-1.987.595c-3.643,1.091-6.489,4.954-7.29,9.9l-.437,2.7-.437-2.7c-.8-4.947-3.647-8.807-7.29-9.9l-1.987-.595Zm329.549-39.135c3.643-1.091,6.49-4.954,7.29-9.9l.437-2.7.437,2.7c.8,4.947,3.647,8.807,7.29,9.9l1.987.6-1.987.595c-3.643,1.091-6.489,4.954-7.29,9.9l-.437,2.7-.437-2.7c-.8-4.947-3.647-8.807-7.29-9.9l-1.987-.595Z" transform="translate(-168.575 -112.843)" fill="#fb0"/>
    <path id="Path_43865" data-name="Path 43865" d="M105.9,287.473c-2.45-.735-4.363-3.331-4.9-6.658L100.7,279l-.294,1.814c-.54,3.327-2.453,5.924-4.9,6.658l-1.337.4,1.337.4c2.45.734,4.363,3.331,4.9,6.658l.294,1.814.294-1.814c.54-3.327,2.453-5.924,4.9-6.658l1.337-.4ZM503.16,383.36c-2.45-.735-4.363-3.331-4.9-6.658l-.294-1.814-.294,1.814c-.54,3.327-2.453,5.924-4.9,6.658l-1.337.4,1.337.4c2.45.735,4.363,3.331,4.9,6.658l.294,1.814.294-1.814c.54-3.327,2.453-5.924,4.9-6.658l1.337-.4Z" transform="translate(-33.181 -127.611)" fill="#ff578d"/>
    <path id="Path_43866" data-name="Path 43866" d="M260.274,123.741c-2.406-.72-4.282-3.269-4.811-6.534l-.29-1.781-.29,1.781c-.529,3.265-2.409,5.814-4.811,6.534l-1.311.393,1.311.393c2.406.72,4.282,3.269,4.811,6.534l.29,1.781.29-1.781c.529-3.265,2.409-5.814,4.811-6.534l1.311-.393ZM564.915,85.635c-2.406-.72-4.282-3.269-4.811-6.534l-.29-1.781-.29,1.781c-.529,3.265-2.409,5.814-4.811,6.534l-1.311.393,1.311.393c2.406.72,4.282,3.269,4.811,6.534l.29,1.781.29-1.781c.529-3.265,2.409-5.814,4.811-6.534l1.311-.393Z" transform="translate(-130.996 0)" fill="#764cc2"/>
  </g>
</svg>
