<svg xmlns="http://www.w3.org/2000/svg" width="18.327" height="22.908" viewBox="0 0 18.327 22.908">
  <path id="Path_42461" data-name="Path 42461" d="M18.578,13.412a2.749,2.749,0,0,1,2.749,2.749v.916c0,3.613-3.408,7.331-9.163,7.331S3,20.69,3,17.078v-.916a2.749,2.749,0,0,1,2.749-2.749Zm0,1.833H5.749a.916.916,0,0,0-.916.916v.916c0,2.635,2.625,5.5,7.331,5.5s7.331-2.863,7.331-5.5v-.916A.916.916,0,0,0,18.578,15.245ZM12.163,1.5a5.04,5.04,0,1,1-5.04,5.04A5.04,5.04,0,0,1,12.163,1.5Zm0,1.833A3.207,3.207,0,1,0,15.37,6.54,3.207,3.207,0,0,0,12.163,3.333Z" transform="translate(-3 -1.5)"/>
</svg>
