<svg xmlns="http://www.w3.org/2000/svg" width="16.146" height="16.146" viewBox="0 0 16.146 16.146">
  <g id="Group_76" data-name="Group 76" transform="translate(-13.05 -13.05)">
    <path id="Path_148" data-name="Path 148" d="M21.123,13.3a7.823,7.823,0,1,0,7.823,7.823A7.823,7.823,0,0,0,21.123,13.3Zm0,14.905a7.082,7.082,0,1,1,7.082-7.082A7.092,7.092,0,0,1,21.123,28.205Z" transform="translate(0 0)" fill="#707070" stroke="#707070" stroke-width="0.5"/>
    <path id="Path_149" data-name="Path 149" d="M62.341,37.291V32.97a.37.37,0,1,0-.741,0v4.475a.4.4,0,0,0,.108.262l2.978,2.978a.373.373,0,0,0,.525,0,.382.382,0,0,0,0-.525Z" transform="translate(-40.847 -16.322)" fill="#707070" stroke="#707070" stroke-width="0.5"/>
  </g>
</svg>
