<svg xmlns="http://www.w3.org/2000/svg" width="18.154" height="16.758" viewBox="0 0 18.154 16.758">
  <g id="Group_52262" data-name="Group 52262" transform="translate(-3 -4)">
    <path id="Path_43882" data-name="Path 43882" d="M10.646,19.361H6.491A2.1,2.1,0,0,1,4.4,17.267V8.888A2.1,2.1,0,0,1,6.491,6.793h.7v.7a.7.7,0,0,0,1.4,0v-.7h5.586v.7a.7.7,0,0,0,1.4,0v-.7h.7a2.1,2.1,0,0,1,2.095,2.095v.6a.7.7,0,1,0,1.4,0v-.6A3.492,3.492,0,0,0,16.267,5.4h-.7V4.7a.7.7,0,0,0-1.4,0v.7H8.586V4.7a.7.7,0,0,0-1.4,0v.7h-.7A3.492,3.492,0,0,0,3,8.888v8.379a3.493,3.493,0,0,0,3.491,3.491h4.155a.7.7,0,0,0,0-1.4Z" fill="#b6b6b6"/>
    <path id="Path_43883" data-name="Path 43883" d="M19.888,14a4.888,4.888,0,1,0,4.888,4.888A4.893,4.893,0,0,0,19.888,14Zm0,8.379a3.491,3.491,0,1,1,3.491-3.491A3.492,3.492,0,0,1,19.888,22.379Z" transform="translate(-3.621 -3.018)" fill="#b6b6b6"/>
    <path id="Path_43884" data-name="Path 43884" d="M22.4,19.808V18.7a.7.7,0,1,0-1.4,0v1.4a.721.721,0,0,0,.2.5l1.4,1.4a.686.686,0,0,0,.5.2.715.715,0,0,0,.5-.2.7.7,0,0,0,0-.985Z" transform="translate(-5.432 -4.225)" fill="#b6b6b6"/>
  </g>
</svg>
