<svg xmlns="http://www.w3.org/2000/svg" width="15.312" height="15.345" viewBox="0 0 15.312 15.345">
  <g id="Group_1323" data-name="Group 1323" transform="translate(0.7 0.906)">
    <circle id="Ellipse_1151" data-name="Ellipse 1151" cx="0.328" cy="0.328" r="0.328" transform="translate(6.525 6.525)" fill="none" stroke="#d10000" stroke-linecap="round" stroke-linejoin="round" stroke-width="1.4"/>
    <path id="Path_6262" data-name="Path 6262" d="M12,5.5V9.763l2.3,2.3" transform="translate(-5.147 -2.91)" fill="none" stroke="#d10000" stroke-linecap="round" stroke-linejoin="round" stroke-width="1.4"/>
    <circle id="Ellipse_1152" data-name="Ellipse 1152" cx="6.23" cy="6.23" r="6.23" transform="translate(0.623 0.623)" fill="none" stroke="#d10000" stroke-linecap="round" stroke-linejoin="round" stroke-width="1.4"/>
    <path id="Path_6263" data-name="Path 6263" d="M14.371,6.632a2.93,2.93,0,0,0,0-4.2,2.93,2.93,0,0,0-4.2,0m-3.541,0a2.93,2.93,0,0,0-4.2,0,2.93,2.93,0,0,0,0,4.2" transform="translate(-1.55 -1.55)" fill="none" stroke="#d10000" stroke-linecap="round" stroke-linejoin="round" stroke-width="1.4"/>
    <g id="Group_1322" data-name="Group 1322" transform="translate(1.279 11.181)">
      <path id="Path_6264" data-name="Path 6264" d="M4.615,18.6,3.5,21.158l2.23-1.639m6.689,0,2.23,1.639L13.534,18.6" transform="translate(-3.5 -18.6)" fill="none" stroke="#d10000" stroke-linecap="round" stroke-linejoin="round" stroke-width="1.4"/>
    </g>
  </g>
</svg>
