<svg xmlns="http://www.w3.org/2000/svg" width="27.659" height="27.659" viewBox="0 0 27.659 27.659">
  <path id="Path_42477" data-name="Path 42477" d="M27.321,25.732l-4.754-4.648h0l-.111-.169a1.12,1.12,0,0,0-1.572,0h0a11.219,11.219,0,0,1-14.547.471A10.62,10.62,0,0,1,3.977,7.344a11.168,11.168,0,0,1,13.936-4.1,10.706,10.706,0,0,1,5.966,12.98,1.077,1.077,0,0,0,.251,1.067,1.136,1.136,0,0,0,1.071.321,1.11,1.11,0,0,0,.82-.746h0A12.909,12.909,0,0,0,19.107,1.3,13.489,13.489,0,0,0,2.336,5.65,12.8,12.8,0,0,0,4.217,22.514a13.538,13.538,0,0,0,17.336.713l4.209,4.115a1.132,1.132,0,0,0,1.572,0,1.084,1.084,0,0,0,0-1.549h0Z"/>
</svg>
