<svg xmlns="http://www.w3.org/2000/svg" width="50.726" height="61.993" viewBox="0 0 50.726 61.993">
  <g id="OBJECTS" transform="translate(-159.328 -64.94)">
    <g id="Group_51905" data-name="Group 51905" transform="translate(159.328 64.94)">
      <g id="Group_51893" data-name="Group 51893">
        <g id="Group_51861" data-name="Group 51861" transform="translate(4.487 26.314)">
          <path id="Path_42791" data-name="Path 42791" d="M254.138,186.25l.648-4.27-.3,1.955Z" transform="translate(-236.553 -181.047)" fill="none"/>
          <path id="Path_42792" data-name="Path 42792" d="M223.263,181.98l.648,4.27-.351-2.315Z" transform="translate(-212.866 -181.047)" fill="none"/>
          <path id="Path_42793" data-name="Path 42793" d="M230.869,204.086V200.1a49.369,49.369,0,0,1,.558-7.4l.351-2.315a12.234,12.234,0,0,1-3.621,4.069,12.234,12.234,0,0,1-3.621-4.069l.351,2.315a49.372,49.372,0,0,1,.558,7.4v3.547a6.387,6.387,0,0,1,1.295-.383A8.176,8.176,0,0,1,230.869,204.086Z" transform="translate(-213.843 -187.49)" fill="#e97271"/>
          <path id="Path_42794" data-name="Path 42794" d="M224.7,303.975h0l-.418,4.311h7.359l-.676-6.963A31.336,31.336,0,0,1,224.7,303.975Z" transform="translate(-213.651 -272.607)" fill="#da533a"/>
          <path id="Path_42795" data-name="Path 42795" d="M252.35,293.924h0Z" transform="translate(-235.182 -266.931)" fill="#fff" stroke="#231f20" stroke-width="1"/>
          <path id="Path_42796" data-name="Path 42796" d="M226.844,304.855Z" transform="translate(-215.613 -275.317)" fill="#fff" stroke="#231f20" stroke-width="1"/>
          <path id="Path_42797" data-name="Path 42797" d="M232.055,256.265v-.483h-5.424v4.949q0,2.639-.255,5.269l-.117,1.205h0l-.178,1.83h0a31.358,31.358,0,0,0,6.265-2.652L232.31,266q-.065-.669-.113-1.339h0q-.142-1.961-.142-3.93Z" transform="translate(-215.029 -237.668)" fill="#e97271"/>
          <path id="Path_42798" data-name="Path 42798" d="M226.806,183.141a12.36,12.36,0,0,0,4.006-4.82l.025-.167-.369-.181-3.662,3.146-3.662-3.146-.369.181.025.167A12.356,12.356,0,0,0,226.806,183.141Z" transform="translate(-212.492 -177.974)" fill="#efdec5"/>
          <path id="Path_42799" data-name="Path 42799" d="M226.888,186.076a12.233,12.233,0,0,0,3.621-4.069l.3-1.955.089-.585a12.36,12.36,0,0,1-4.006,4.82,12.36,12.36,0,0,1-4.006-4.82l.089.585.3,1.955A12.236,12.236,0,0,0,226.888,186.076Z" transform="translate(-212.574 -179.119)" fill="#da533a"/>
          <path id="Path_42800" data-name="Path 42800" d="M233.867,246.363a8.177,8.177,0,0,0-4.129-.827,6.384,6.384,0,0,0-1.295.383v1.961h5.424v-1.518Z" transform="translate(-216.84 -229.768)" fill="#da533a"/>
          <path id="Path_42801" data-name="Path 42801" d="M182.556,202.437l1.1-3.315-1.746-5.672-.395.217a2.188,2.188,0,0,0-1.1,1.519l-1.813,9.8,3.978,1.571-.057-.182A6.441,6.441,0,0,1,182.556,202.437Z" transform="translate(-178.603 -189.847)" fill="#695964"/>
          <path id="Path_42802" data-name="Path 42802" d="M193.336,305.9l-.544,5.1h7.332l.418-4.311.178-1.83A30.575,30.575,0,0,1,193.336,305.9Z" transform="translate(-189.489 -275.316)" fill="#473942"/>
          <path id="Path_42803" data-name="Path 42803" d="M200.837,206.9q.255-2.627.255-5.269v-4.466l-3.381-6.374a2.648,2.648,0,0,1,.186-2.783l1.519-2.122-1.328-1.155a1.857,1.857,0,0,1-.4-2.318l2.08-3.665-6.98,3.422,1.746,5.672-.562,7.641-.51-.2.2.628a13.092,13.092,0,0,1,.522,5.294l-.848,7.945a30.6,30.6,0,0,0,7.383-1.042Z" transform="translate(-189.49 -178.57)" fill="#695964"/>
          <path id="Path_42804" data-name="Path 42804" d="M195.608,217.813l-1.1,3.315a6.44,6.44,0,0,0-.032,3.942l.057.182.51.2Z" transform="translate(-190.559 -208.538)" fill="#473942"/>
          <path id="Path_42805" data-name="Path 42805" d="M213.279,184.734l1.328,1.155-1.519,2.122a2.648,2.648,0,0,0-.186,2.783l3.381,6.374v-5.991a49.379,49.379,0,0,0-.558-7.4l-.648-4.27-.089-.585-.025-.167-2.08,3.665A1.857,1.857,0,0,0,213.279,184.734Z" transform="translate(-204.68 -178.57)" fill="#7c6977"/>
          <path id="Path_42806" data-name="Path 42806" d="M222.8,178.918l-.025-.167Z" transform="translate(-212.491 -178.57)" fill="#fff" stroke="#231f20" stroke-width="1"/>
          <path id="Path_42807" data-name="Path 42807" d="M222.882,179.467l.089.585Z" transform="translate(-212.574 -179.119)" fill="#fff" stroke="#231f20" stroke-width="1"/>
          <path id="Path_42808" data-name="Path 42808" d="M259.115,271.791c-.037-.345-.056-.69-.065-1.036a30.461,30.461,0,0,1-6.7,5.394h0q.049.67.113,1.339l.037.383.676,6.963h7.332Z" transform="translate(-235.182 -249.156)" fill="#473942"/>
          <path id="Path_42809" data-name="Path 42809" d="M254.744,184.734l-1.328,1.155,1.519,2.122a2.648,2.648,0,0,1,.186,2.783l-3.381,6.374v4.466q0,1.967.142,3.93a30.463,30.463,0,0,0,6.7-5.394,13.09,13.09,0,0,1,.587-4.258l.253-.81a6.441,6.441,0,0,0-.032-3.942l-1.1-3.315,1.746-5.672-6.98-3.422,2.08,3.665A1.858,1.858,0,0,1,254.744,184.734Z" transform="translate(-234.714 -178.57)" fill="#695964"/>
          <path id="Path_42810" data-name="Path 42810" d="M252.947,179.5l-.648,4.27a49.372,49.372,0,0,0-.558,7.4v5.991l3.381-6.374a2.648,2.648,0,0,0-.186-2.783l-1.519-2.122,1.328-1.155a1.857,1.857,0,0,0,.4-2.318l-2.08-3.665-.025.167Z" transform="translate(-234.714 -178.569)" fill="#7c6977"/>
          <path id="Path_42811" data-name="Path 42811" d="M257.3,178.918l.025-.167Z" transform="translate(-238.98 -178.57)" fill="#fff" stroke="#231f20" stroke-width="1"/>
          <path id="Path_42812" data-name="Path 42812" d="M257.009,179.467h0l-.089.585Z" transform="translate(-238.688 -179.119)" fill="#fff" stroke="#231f20" stroke-width="1"/>
        </g>
        <g id="Group_51862" data-name="Group 51862" transform="translate(7.791 8.304)">
          <path id="Path_42813" data-name="Path 42813" d="M206.061,115.427c6.612,0,9.615-5.275,10.319-9.826a19.257,19.257,0,0,0-2.242-4.016l-8.077-.974-8.077.974a19.255,19.255,0,0,0-2.242,4.016C196.446,110.152,199.449,115.427,206.061,115.427Z" transform="translate(-195.056 -100.611)" fill="#5a301f"/>
          <path id="Path_42814" data-name="Path 42814" d="M214.636,123.8a10.83,10.83,0,0,0-.518-1.752c-.7,4.55-3.707,9.826-10.319,9.826s-9.615-5.275-10.319-9.826a10.813,10.813,0,0,0-.518,1.752,7.1,7.1,0,0,0,1.353,6.084,5.835,5.835,0,0,1-.238-2.558,12.01,12.01,0,0,0,9.722,7.742,12.011,12.011,0,0,0,9.722-7.742,5.839,5.839,0,0,1-.238,2.558A7.1,7.1,0,0,0,214.636,123.8Z" transform="translate(-192.794 -117.057)" fill="#4c281b"/>
        </g>
        <g id="Group_51864" data-name="Group 51864" transform="translate(14.414 21.148)">
          <path id="Path_42815" data-name="Path 42815" d="M223.012,168.666l-1.462,2.179A8.132,8.132,0,0,0,221.81,176s.815-2.771,1.532-3.39l2.284,1.369Z" transform="translate(-221.244 -165.667)" fill="#fcf1dc"/>
          <path id="Path_42816" data-name="Path 42816" d="M242.681,168.666l1.462,2.179a8.132,8.132,0,0,1-.261,5.155s-.815-2.771-1.532-3.39l-2.284,1.369Z" transform="translate(-235.685 -165.667)" fill="#fcf1dc"/>
          <g id="Group_51863" data-name="Group 51863" transform="translate(0.957)">
            <path id="Path_42817" data-name="Path 42817" d="M228.929,169.606c.071.8.081,1.525.081,1.948l2.512,3.146,2.512-3.146c0-.423.01-1.149.081-1.948a5.485,5.485,0,0,1-5.186,0Z" transform="translate(-228.097 -166.388)" fill="#facab6"/>
            <path id="Path_42818" data-name="Path 42818" d="M228.78,156.01l-3.425-.228a7.743,7.743,0,0,1,.832,3.218,5.485,5.485,0,0,0,5.186,0,7.742,7.742,0,0,1,.832-3.218Z" transform="translate(-225.355 -155.782)" fill="#f9ac94"/>
          </g>
        </g>
        <g id="Group_51878" data-name="Group 51878" transform="translate(9.536)">
          <g id="Group_51866" data-name="Group 51866" transform="translate(0 13.296)">
            <g id="Group_51865" data-name="Group 51865">
              <path id="Path_42819" data-name="Path 42819" d="M205.752,128.335a.632.632,0,0,0-1.02.293,1.822,1.822,0,0,0,.329,1.471,1.366,1.366,0,0,0,.684.5.882.882,0,0,0,.746-.1c-.043-.44-.055-.927-.108-1.388A2.624,2.624,0,0,0,205.752,128.335Z" transform="translate(-203.668 -126.756)" fill="#ea8c73"/>
              <path id="Path_42820" data-name="Path 42820" d="M203.113,125.794a.882.882,0,0,1-.746.1,1.366,1.366,0,0,1-.684-.5,1.822,1.822,0,0,1-.329-1.471.632.632,0,0,1,1.02-.293,2.616,2.616,0,0,1,.631.774,2.955,2.955,0,0,0-.343-1.2,3.153,3.153,0,0,0-.718-.9.951.951,0,0,0-1.612.571,3.151,3.151,0,0,0-.012.943,6.169,6.169,0,0,0,.3,1.639,2.083,2.083,0,0,0,1.071,1.222,1.272,1.272,0,0,0,1.5-.356A4.69,4.69,0,0,1,203.113,125.794Z" transform="translate(-200.291 -122.053)" fill="#f9ac94"/>
            </g>
          </g>
          <g id="Group_51868" data-name="Group 51868" transform="translate(15.619 13.296)">
            <g id="Group_51867" data-name="Group 51867">
              <path id="Path_42822" data-name="Path 42822" d="M268.458,128.335a.632.632,0,0,1,1.02.293,1.822,1.822,0,0,1-.329,1.471,1.367,1.367,0,0,1-.684.5.882.882,0,0,1-.746-.1c.043-.44.055-.927.108-1.388A2.617,2.617,0,0,1,268.458,128.335Z" transform="translate(-267.641 -126.756)" fill="#ea8c73"/>
              <path id="Path_42823" data-name="Path 42823" d="M267.461,125.794a.882.882,0,0,0,.746.1,1.366,1.366,0,0,0,.684-.5,1.822,1.822,0,0,0,.329-1.471.632.632,0,0,0-1.02-.293,2.613,2.613,0,0,0-.631.774,2.955,2.955,0,0,1,.343-1.2,3.154,3.154,0,0,1,.718-.9.951.951,0,0,1,1.612.571,3.154,3.154,0,0,1,.012.943,6.171,6.171,0,0,1-.3,1.639,2.083,2.083,0,0,1-1.071,1.222,1.272,1.272,0,0,1-1.5-.356A4.691,4.691,0,0,0,267.461,125.794Z" transform="translate(-267.383 -122.053)" fill="#f9ac94"/>
            </g>
          </g>
          <ellipse id="Ellipse_1721" data-name="Ellipse 1721" cx="7.3" cy="9.999" rx="7.3" ry="9.999" transform="translate(1.96 3.121)" fill="#facab6"/>
          <g id="Group_51877" data-name="Group 51877" transform="translate(0.091)">
            <g id="Group_51875" data-name="Group 51875" transform="translate(0 1.642)">
              <path id="Path_42836" data-name="Path 42836" d="M204.469,78.177a11.4,11.4,0,0,0,2.651-5.211,3.247,3.247,0,0,0-1.607-.959c-1.949-.266-5.7,3.875-4.649,8.838A11.371,11.371,0,0,0,204.469,78.177Z" transform="translate(-200.681 -71.995)" fill="#5a301f"/>
              <path id="Path_42837" data-name="Path 42837" d="M207.722,76.165a11.259,11.259,0,0,1-6.256,7.88,8.869,8.869,0,0,0,.492,1.573,9.491,9.491,0,0,0,6.992-4.446C209.51,80.276,209.129,77.644,207.722,76.165Z" transform="translate(-201.283 -75.194)" fill="#4c281b"/>
            </g>
            <g id="Group_51876" data-name="Group 51876" transform="translate(4.802)">
              <path id="Path_42838" data-name="Path 42838" d="M227.964,72.832A12.255,12.255,0,0,0,235.617,75c-.484-8.689-7.124-12.23-12.322-8.715A12.257,12.257,0,0,0,227.964,72.832Z" transform="translate(-222.832 -64.94)" fill="#5a301f"/>
              <path id="Path_42839" data-name="Path 42839" d="M226.439,77.262a12.257,12.257,0,0,1-4.669-6.548c-.146.1-.29.2-.433.31-.391,4.792,3.08,11,12.762,10.366a19.014,19.014,0,0,0-.007-1.961A12.255,12.255,0,0,1,226.439,77.262Z" transform="translate(-221.308 -69.37)" fill="#4c281b"/>
            </g>
          </g>
        </g>
        <g id="Group_51888" data-name="Group 51888" transform="translate(0 30.634)">
          <g id="Group_51886" data-name="Group 51886" transform="translate(0 0)">
            <g id="Group_51881" data-name="Group 51881" transform="translate(1.403)">
              <path id="Path_42840" data-name="Path 42840" d="M197.878,230.637l1.148-.921.668,1.141Z" transform="translate(-190.307 -221.99)" fill="#fed8a2"/>
              <g id="Group_51879" data-name="Group 51879" transform="translate(0.799)">
                <path id="Path_42841" data-name="Path 42841" d="M168.785,196.856l1.337-.326c3.032,1.4,6.091,5.067,6.585,7.726l-1.148.921Z" transform="translate(-168.785 -196.53)" fill="#fcf1dc"/>
                <path id="Path_42842" data-name="Path 42842" d="M168.785,197.93a6.822,6.822,0,0,1,0,3.39l6.773,4.93C175.207,203.178,170.382,198.614,168.785,197.93Z" transform="translate(-168.785 -197.604)" fill="#f0be64"/>
              </g>
              <path id="Path_42843" data-name="Path 42843" d="M172.926,207.969l-7.18-3.35a27.291,27.291,0,0,0-.391-4.45C168.289,201,172.014,205.182,172.926,207.969Z" transform="translate(-165.355 -199.323)" fill="#fed8a2"/>
              <g id="Group_51880" data-name="Group 51880" transform="translate(8.72 2.637)">
                <path id="Path_42844" data-name="Path 42844" d="M212.794,208.635l-1.3-.777a14.315,14.315,0,0,0-8.679,5.088l.668,1.141Z" transform="translate(-202.811 -207.858)" fill="#fcf1dc"/>
                <path id="Path_42845" data-name="Path 42845" d="M205.682,216.649c1.247-2.592,6.919-5.354,9.315-5.452l-.538,3.032Z" transform="translate(-205.014 -210.42)" fill="#fed8a2"/>
              </g>
            </g>
            <g id="Group_51885" data-name="Group 51885" transform="translate(0 1.811)">
              <g id="Group_51883" data-name="Group 51883" transform="translate(7.79 2.914)">
                <g id="Group_51882" data-name="Group 51882" transform="translate(0 3.921)">
                  <path id="Path_42846" data-name="Path 42846" d="M192.792,282.216l1.436.328.37-3.22c-.466.2-1.092.414-1.6.587Z" transform="translate(-192.792 -268.696)" fill="#dda852"/>
                  <path id="Path_42847" data-name="Path 42847" d="M194.641,233.671l-.982,11.215c.512-.173,1.138-.39,1.6-.587l1.195-10.408Z" transform="translate(-193.457 -233.671)" fill="#dda852"/>
                </g>
                <path id="Path_42848" data-name="Path 42848" d="M209.343,224.99c1.027-4.183,2.367-8.161,2.367-8.161a19.425,19.425,0,0,0-9.966,4.141l-1.195,10.408A23.974,23.974,0,0,0,209.343,224.99Z" transform="translate(-198.743 -216.829)" fill="#f0be64"/>
                <path id="Path_42849" data-name="Path 42849" d="M199.331,258.274l-.37,3.22c2.719-2.323,8.1-4.015,8.1-4.015a44.715,44.715,0,0,1,1.065-5.593A23.968,23.968,0,0,1,199.331,258.274Z" transform="translate(-197.525 -243.725)" fill="#e2ac56"/>
              </g>
              <g id="Group_51884" data-name="Group 51884">
                <path id="Path_42850" data-name="Path 42850" d="M159.459,253.915c-.044.268-.084.538-.131.805h0a17.291,17.291,0,0,1,7.791,6.535l.81-9.253a8.874,8.874,0,0,1-8.47,1.912Z" transform="translate(-159.328 -240.9)" fill="#ce973e"/>
                <path id="Path_42851" data-name="Path 42851" d="M160.468,204.31l.08,1.768a54.893,54.893,0,0,1-.656,11.246,8.875,8.875,0,0,0,8.47-1.912l.374-4.267A19.193,19.193,0,0,0,160.468,204.31Z" transform="translate(-159.761 -204.31)" fill="#f0be64"/>
              </g>
            </g>
          </g>
          <g id="Group_51887" data-name="Group 51887" transform="translate(2.471 12.433)">
            <path id="Path_42852" data-name="Path 42852" d="M175.176,253.38a1.232,1.232,0,0,0-.466-1.4l-.141-.1-.927,2.614v-.2a9.284,9.284,0,0,1,.295-2.321v0a.664.664,0,0,0-.262-.714l-1.776-1.231a.522.522,0,0,0-.761.19l-.989,1.914a1.854,1.854,0,0,0-.188,1.116l.173,1.2a6.02,6.02,0,0,0,1.765,3.459l.8.775a1.239,1.239,0,0,0,.955.364,1.18,1.18,0,0,0,1.068-1.363l-.257-1.607a1.586,1.586,0,0,1,.062-.755Z" transform="translate(-169.942 -249.934)" fill="#facab6"/>
            <path id="Path_42853" data-name="Path 42853" d="M175.672,252.066l-.82,1.155a2.019,2.019,0,0,0-.361,1.389l.094.86.067-.776a4.379,4.379,0,0,1,.53-1.74Z" transform="translate(-173.422 -251.57)" fill="#f9ac94"/>
            <path id="Path_42854" data-name="Path 42854" d="M180.487,254.945l-.413.907a1.9,1.9,0,0,0-.145,1.1l.231,1.384v-1.5a3.88,3.88,0,0,1,.093-.847Z" transform="translate(-177.584 -253.778)" fill="#f9ac94"/>
          </g>
        </g>
        <g id="Group_51892" data-name="Group 51892" transform="translate(28.067 21.37)">
          <g id="Group_51889" data-name="Group 51889" transform="translate(9.084 14.941)">
            <path id="Path_42855" data-name="Path 42855" d="M323.024,223.123a6.063,6.063,0,0,0-2.034-.6,5.438,5.438,0,0,0-1.337-.066,2.7,2.7,0,0,0-.739.18c-.019.494.2,1.382,1.706,2.164,2.064,1.07,3.111.078,3.421-.807A3.063,3.063,0,0,0,323.024,223.123Z" transform="translate(-318.911 -222.087)" fill="#473942"/>
            <path id="Path_42856" data-name="Path 42856" d="M320.994,221.356a6.071,6.071,0,0,1,2.034.6,3.059,3.059,0,0,1,1.016.874,1.97,1.97,0,0,0,.062-.214c-.82-1.331-3.777-2.043-5.118-1.526a1.183,1.183,0,0,0-.071.383,2.683,2.683,0,0,1,.739-.18A5.426,5.426,0,0,1,320.994,221.356Z" transform="translate(-318.916 -220.917)" fill="#695964"/>
          </g>
          <g id="Group_51890" data-name="Group 51890" transform="translate(9.628)">
            <path id="Path_42857" data-name="Path 42857" d="M321.248,172.3l1.979-8.164a3.011,3.011,0,0,1,.37-2.484,8.35,8.35,0,0,1,1.682-1.852l2.774-2.5a1.41,1.41,0,0,1,.181,1.19,3.613,3.613,0,0,1-.55,1.017l-.649.942c.774-.422,1.464-.788,2.238-1.21l1.976-2.154a1.086,1.086,0,0,1,1.609.009l.67.746-1.329,2.6a1.427,1.427,0,0,1-.314.409l-1.21,1.091,1.352-.551,1.139-1.143a.9.9,0,0,1,1.114-.132h0l-1.857,2.3-5.865,3.36-1.469,8.307A3.732,3.732,0,0,1,321.248,172.3Z" transform="translate(-321.248 -156.738)" fill="#facab6"/>
            <path id="Path_42858" data-name="Path 42858" d="M341.71,172.7a4.231,4.231,0,0,1-1.333,3.239A2.185,2.185,0,0,0,341.71,172.7Z" transform="translate(-335.924 -168.987)" fill="#f9ac94"/>
          </g>
          <g id="Group_51891" data-name="Group 51891" transform="translate(0 8.546)">
            <path id="Path_42859" data-name="Path 42859" d="M307.232,241.578l1.32-3.02-.533-1.29A6.235,6.235,0,0,0,307.232,241.578Z" transform="translate(-300.793 -227.067)" fill="#473942"/>
            <path id="Path_42860" data-name="Path 42860" d="M288.53,202.813l-.88,2.127-1.32,3.02a6.235,6.235,0,0,1,.788-4.31l-3.26-7.894a4.376,4.376,0,0,0-2.221-2.307l-1.746,5.672a86.739,86.739,0,0,0,4.624,11.174,7.782,7.782,0,0,0,2.979,3.635,3.3,3.3,0,0,0,1.85.4c1.79-.166,2.129-1.708,2.56-3.175a31.245,31.245,0,0,0,1.206-6.02Z" transform="translate(-279.89 -193.449)" fill="#695964"/>
          </g>
          <path id="Path_42861" data-name="Path 42861" d="M319.9,227.253a4.273,4.273,0,0,1-5.266-1.237,1.765,1.765,0,0,1-.333-1.928c.226-.359.665-.592.749-1.008a2.666,2.666,0,0,0-.068-.762c-.023-.256.081-.615.331-.672a5.058,5.058,0,0,0,5.118,1.526,1.079,1.079,0,0,1,0,1.058,2.332,2.332,0,0,0-.38,1,1.867,1.867,0,0,0,.172.661,1.464,1.464,0,0,1,.136.667A1.094,1.094,0,0,1,319.9,227.253Z" transform="translate(-306.159 -206.535)" fill="#7c6977"/>
        </g>
      </g>
    </g>
  </g>
</svg>
