<svg xmlns="http://www.w3.org/2000/svg" width="67.731" height="50.579" viewBox="0 0 67.731 50.579">
  <g id="Group_53819" data-name="Group 53819" transform="translate(-11.345 -40.879)">
    <path id="Path_45791" data-name="Path 45791" d="M156.369,155.729v7.52a2.531,2.531,0,0,1-2.532,2.532H122.791a2.531,2.531,0,0,1-2.532-2.532v-7.519A10.128,10.128,0,0,1,130.387,145.6h15.855A10.128,10.128,0,0,1,156.369,155.729Z" transform="translate(-77.298 -74.324)" fill="#8c3f0a"/>
    <path id="Path_45792" data-name="Path 45792" d="M151.8,151.335a10.076,10.076,0,0,1,1.664,5.56v7.52a2.531,2.531,0,0,1-2.532,2.532H120.259v.371a2.531,2.531,0,0,0,2.532,2.532h31.045a2.531,2.531,0,0,0,2.532-2.532V159.8A10.117,10.117,0,0,0,151.8,151.335Z" transform="translate(-77.298 -78.393)" fill="#7c3108"/>
    <path id="Path_45793" data-name="Path 45793" d="M153.043,93.827H141.31a8.557,8.557,0,0,1-8.185-11.054l2.351-7.707h23.4l2.351,7.707A8.558,8.558,0,0,1,153.043,93.827Z" transform="translate(-86.161 -24.264)" fill="#f79219"/>
    <path id="Path_45794" data-name="Path 45794" d="M172.433,126.9v7.2a2.91,2.91,0,1,0,5.819,0v-7.2Z" transform="translate(-114.327 -61.055)" fill="#fcc4ae"/>
    <path id="Path_45795" data-name="Path 45795" d="M173.006,141.6l-3.626-1.636v1.572l-2.919,4.549-2.919-4.549v-1.572l-3.624,1.636,4.322,11.731a2.367,2.367,0,0,0,4.442,0Z" transform="translate(-105.445 -70.325)" fill="#e63950"/>
    <path id="Path_45796" data-name="Path 45796" d="M159.919,141.6l2.733,7.412a.441.441,0,0,0,.725.159l3.085-3.085-2.919-4.549v-1.572Z" transform="translate(-105.446 -70.326)" fill="#e8566f"/>
    <path id="Path_45797" data-name="Path 45797" d="M189,141.6l-2.735,7.412a.441.441,0,0,1-.725.159l-3.085-3.085,2.919-4.549v-1.572Z" transform="translate(-121.442 -70.326)" fill="#e8566f"/>
    <path id="Path_45798" data-name="Path 45798" d="M172.433,129.156a9.165,9.165,0,0,0,5.82,0V126.9h-5.82Z" transform="translate(-114.327 -61.054)" fill="#f2ad97"/>
    <path id="Path_45799" data-name="Path 45799" d="M160.035,75.453a9.17,9.17,0,0,1-9.171-9.17V61.522a9.17,9.17,0,1,1,18.34,0v4.76A9.17,9.17,0,0,1,160.035,75.453Z" transform="translate(-99.019 -8.143)" fill="#ffd2c0"/>
    <path id="Path_45800" data-name="Path 45800" d="M166.006,93.487a1.111,1.111,0,1,1-1.111-1.111A1.111,1.111,0,0,1,166.006,93.487Zm8.619,0a1.111,1.111,0,1,1-1.111-1.111A1.111,1.111,0,0,1,174.625,93.487Z" transform="translate(-108.189 -36.549)" fill="#995222"/>
    <path id="Path_45801" data-name="Path 45801" d="M149.8,43.679a13.124,13.124,0,0,1-6.854,11.528,1.264,1.264,0,0,1-1.866-1.2,13.352,13.352,0,0,1,4.16-8.649,11.977,11.977,0,0,1,4.522-2.639c.025.319.038.64.038.965Z" transform="translate(-92.07 -1.303)" fill="#f79219"/>
    <path id="Path_45802" data-name="Path 45802" d="M174.607,53.1a13.478,13.478,0,0,1-19.185-9.05,11.981,11.981,0,0,1,4.493-2.63c7.147-2.32,14.269,3.119,15.354,10.388a1.252,1.252,0,0,1-.662,1.292Z" transform="translate(-102.254 0)" fill="#ffa91a"/>
    <path id="Path_45803" data-name="Path 45803" d="M175.269,51.81c-1.085-7.269-8.207-12.708-15.354-10.388a11.976,11.976,0,0,0-4.493,2.63c.06.277.129.549.2.818a11.98,11.98,0,0,1,1.385-.545c6.924-2.248,13.825,2.788,15.235,9.715a13.048,13.048,0,0,0,2.36-.937A1.253,1.253,0,0,0,175.269,51.81Z" transform="translate(-102.254 -0.001)" fill="#f79219"/>
    <path id="Path_45804" data-name="Path 45804" d="M175.269,51.81c-1.085-7.269-8.207-12.708-15.354-10.388a11.976,11.976,0,0,0-4.493,2.63c.019.087.043.171.064.257a11.942,11.942,0,0,1,2.978-1.435c7.147-2.32,14.269,3.119,15.354,10.388a1.209,1.209,0,0,1,.012.209q.394-.171.777-.368a1.253,1.253,0,0,0,.662-1.292Z" transform="translate(-102.254 -0.001)" fill="#ef7816"/>
    <path id="Path_45805" data-name="Path 45805" d="M179.133,112.051a.394.394,0,0,1,.385.481,2.072,2.072,0,0,1-4.031,0,.394.394,0,0,1,.385-.481Z" transform="translate(-116.487 -50.513)" fill="#e59076"/>
    <path id="Path_45806" data-name="Path 45806" d="M222.459,147.933v19.488h3.911a2.531,2.531,0,0,0,2.532-2.532v-7.519A10.131,10.131,0,0,0,222.459,147.933Z" transform="translate(-149.832 -75.979)" fill="#e63950"/>
    <path id="Path_45807" data-name="Path 45807" d="M228.843,158.743a10.143,10.143,0,0,0-4.508-7.409A10.076,10.076,0,0,1,226,156.9v7.52a2.531,2.531,0,0,1-2.532,2.532h-1.008v2.888h3.911A2.531,2.531,0,0,0,228.9,167.3C228.883,166.632,228.956,159.187,228.843,158.743Z" transform="translate(-149.832 -78.393)" fill="#d10028"/>
    <path id="Path_45808" data-name="Path 45808" d="M126.779,147.882a10.131,10.131,0,0,0-6.52,9.466v7.52a2.531,2.531,0,0,0,2.532,2.532h3.987Z" transform="translate(-77.298 -75.942)" fill="#e63950"/>
    <path id="Path_45809" data-name="Path 45809" d="M120.259,205.118v.371a2.531,2.531,0,0,0,2.532,2.532h3.987v-2.9Z" transform="translate(-77.298 -116.564)" fill="#d10028"/>
    <path id="Path_45810" data-name="Path 45810" d="M47.455,155.729v7.52a2.531,2.531,0,0,1-2.532,2.532H13.877a2.531,2.531,0,0,1-2.532-2.532v-7.519A10.128,10.128,0,0,1,21.473,145.6H37.327A10.128,10.128,0,0,1,47.455,155.729Z" transform="translate(0 -74.324)" fill="#58595b"/>
    <path id="Path_45811" data-name="Path 45811" d="M42.888,151.335a10.076,10.076,0,0,1,1.664,5.56v7.52a2.531,2.531,0,0,1-2.532,2.532H11.345v.371a2.531,2.531,0,0,0,2.532,2.532H44.923a2.531,2.531,0,0,0,2.532-2.532V159.8A10.117,10.117,0,0,0,42.888,151.335Z" transform="translate(0 -78.393)" fill="#414042"/>
    <path id="Path_45812" data-name="Path 45812" d="M54.757,89.086H41.7a3.825,3.825,0,0,1-3.825-3.825V82.5H58.581v2.756a3.825,3.825,0,0,1-3.824,3.824Z" transform="translate(-18.827 -29.543)" fill="#ffa91a"/>
    <path id="Path_45813" data-name="Path 45813" d="M63.406,165.781H57.943L55.411,145.6H65.937Z" transform="translate(-31.275 -74.324)" fill="#f1f2f2"/>
    <path id="Path_45814" data-name="Path 45814" d="M63.243,208.021h5.463l.364-2.9H62.879Z" transform="translate(-36.575 -116.564)" fill="#d1d3d4"/>
    <path id="Path_45815" data-name="Path 45815" d="M59,145.6a4.33,4.33,0,1,0,7.907,0Z" transform="translate(-33.558 -74.324)" fill="#e6e7e8"/>
    <path id="Path_45816" data-name="Path 45816" d="M45.931,163.25,40.058,154.4a.506.506,0,0,1,.094-.666l1.359-1.156a.506.506,0,0,0-.109-.842l-2.181-1.046a.507.507,0,0,1-.212-.722L41.69,145.6h2.027l2.214,17.648Zm6.1,0L57.9,154.4a.506.506,0,0,0-.094-.666l-1.359-1.156a.506.506,0,0,1,.109-.842l2.181-1.046a.507.507,0,0,0,.212-.722L56.271,145.6H54.244L52.03,163.25Z" transform="translate(-19.581 -74.324)" fill="#808285"/>
    <path id="Path_45817" data-name="Path 45817" d="M63.519,126.9v7.2a2.91,2.91,0,1,0,5.819,0v-7.2Z" transform="translate(-37.029 -61.055)" fill="#fcc4ae"/>
    <path id="Path_45818" data-name="Path 45818" d="M63.519,129.156a9.165,9.165,0,0,0,5.82,0V126.9h-5.82Z" transform="translate(-37.029 -61.054)" fill="#f2ad97"/>
    <circle id="Ellipse_2182" data-name="Ellipse 2182" cx="2.949" cy="2.949" r="2.949" transform="translate(17.297 55.337)" fill="#ffd2c0"/>
    <circle id="Ellipse_2183" data-name="Ellipse 2183" cx="1.694" cy="1.694" r="1.694" transform="translate(18.551 56.591)" fill="#f2ad97"/>
    <circle id="Ellipse_2184" data-name="Ellipse 2184" cx="2.949" cy="2.949" r="2.949" transform="translate(35.605 55.337)" fill="#ffd2c0"/>
    <circle id="Ellipse_2185" data-name="Ellipse 2185" cx="1.694" cy="1.694" r="1.694" transform="translate(36.86 56.591)" fill="#f2ad97"/>
    <path id="Path_45819" data-name="Path 45819" d="M51.122,75.453a9.17,9.17,0,0,1-9.171-9.17V61.522a9.17,9.17,0,1,1,18.34,0v4.76A9.17,9.17,0,0,1,51.122,75.453Z" transform="translate(-21.722 -8.143)" fill="#ffd2c0"/>
    <path id="Path_45820" data-name="Path 45820" d="M57.092,93.487a1.111,1.111,0,1,1-1.111-1.111A1.111,1.111,0,0,1,57.092,93.487Zm8.619,0A1.111,1.111,0,1,1,64.6,92.376,1.111,1.111,0,0,1,65.711,93.487Z" transform="translate(-30.891 -36.549)" fill="#995222"/>
    <path id="Path_45821" data-name="Path 45821" d="M40.885,43.679a13.124,13.124,0,0,1-6.854,11.528A1.264,1.264,0,0,1,32.165,54a13.352,13.352,0,0,1,4.16-8.649,11.977,11.977,0,0,1,4.522-2.639C40.871,43.033,40.885,43.354,40.885,43.679Z" transform="translate(-14.773 -1.303)" fill="#f79219"/>
    <path id="Path_45822" data-name="Path 45822" d="M65.693,53.1a13.478,13.478,0,0,1-19.185-9.05A11.979,11.979,0,0,1,51,41.421c7.147-2.32,14.269,3.119,15.354,10.388A1.252,1.252,0,0,1,65.693,53.1Z" transform="translate(-24.956 0)" fill="#ffa91a"/>
    <path id="Path_45823" data-name="Path 45823" d="M63.91,64.24H63.9a12.42,12.42,0,0,1-10.978-7.257.585.585,0,0,1,.293-.769.592.592,0,0,1,.766.293,11.234,11.234,0,0,0,9.951,6.572.581.581,0,0,1-.017,1.161Zm2.314-.171a.581.581,0,0,1-.1-1.152h0a.579.579,0,0,1,.575.9.57.57,0,0,1-.372.238l0,0A.628.628,0,0,1,66.224,64.068Z" transform="translate(-29.469 -10.85)" fill="#ffc91d"/>
    <path id="Path_45824" data-name="Path 45824" d="M66.355,51.81C65.27,44.54,58.148,39.1,51,41.422a11.976,11.976,0,0,0-4.493,2.63c.06.277.129.549.2.818a11.978,11.978,0,0,1,1.385-.545c6.924-2.248,13.825,2.788,15.235,9.715a13.047,13.047,0,0,0,2.36-.937A1.253,1.253,0,0,0,66.355,51.81Z" transform="translate(-24.956 -0.001)" fill="#f79219"/>
    <path id="Path_45825" data-name="Path 45825" d="M70.219,112.051a.394.394,0,0,1,.385.481,2.072,2.072,0,0,1-4.031,0,.394.394,0,0,1,.385-.481Z" transform="translate(-39.188 -50.513)" fill="#e59076"/>
    <g id="Group_53818" data-name="Group 53818" transform="translate(20.23 58.14)">
      <path id="Path_45826" data-name="Path 45826" d="M58.418,124.5a9.137,9.137,0,0,1-6.186-2.4,6.206,6.206,0,0,0,12.372,0,9.136,9.136,0,0,1-6.186,2.4Z" transform="translate(-49.248 -115.781)" fill="#f79219"/>
      <path id="Path_45827" data-name="Path 45827" d="M59.217,101.355a8.158,8.158,0,0,1-16.19,0,1.013,1.013,0,0,0-1.013-1.013h-.062a9.17,9.17,0,1,0,18.34,0H60.23A1.013,1.013,0,0,0,59.217,101.355Z" transform="translate(-41.952 -100.342)" fill="#f79219"/>
      <path id="Path_45828" data-name="Path 45828" d="M70.85,125.333a9.24,9.24,0,0,1-3.727,0l.927-1.853a1.047,1.047,0,0,1,1.873,0Z" transform="translate(-59.816 -116.352)" fill="#f79219"/>
      <path id="Path_45829" data-name="Path 45829" d="M67.547,113.351v2.9a9.538,9.538,0,0,1-1.228.516v-3.413a.9.9,0,0,0-.9-.9H61.375a.9.9,0,0,0-.9.9v3.413a9.5,9.5,0,0,1-1.228-.516v-2.9a2.128,2.128,0,0,1,2.127-2.124h4.046A2.128,2.128,0,0,1,67.547,113.351Z" transform="translate(-54.227 -108.067)" fill="#f79219"/>
    </g>
  </g>
</svg>
