<svg xmlns="http://www.w3.org/2000/svg" width="75.015" height="48.785" viewBox="0 0 75.015 48.785">
  <g id="Group_51800" data-name="Group 51800" transform="translate(-37.909 -72.574)">
    <path id="Path_42613" data-name="Path 42613" d="M69.569,134.5H37.909c.435-1.987,2.308-11.032,3.207-11.977.929-.97,6.733-1.92,8.046-2.112.583.156,4.251,1.154,4.579,1.242l4.579-1.242c1.352.211,7.1,1.128,8.042,2.112.406.427,1.012,2.5,1.593,4.826C68.662,130.19,69.331,133.41,69.569,134.5Z" transform="translate(0 -24.862)" fill="#4cdbc4"/>
    <path id="Path_42614" data-name="Path 42614" d="M64.678,105.436h5.947v9.325H64.678Z" transform="translate(-13.912 -17.078)" fill="#facab6"/>
    <path id="Path_42615" data-name="Path 42615" d="M61.792,119.8l4.36,14.38,4.241-14.38-4.24,1.078Z" transform="translate(-12.412 -24.545)" fill="#fff"/>
    <path id="Path_42616" data-name="Path 42616" d="M70.763,123.385l-1.32-1.339-1.32,1.339.865.877-.866,9.516,1.321,1.572,1.32-1.572-.865-9.515Z" transform="translate(-15.702 -25.71)" fill="#ff7058"/>
    <path id="Path_42617" data-name="Path 42617" d="M70.871,122.046h0v13.3h0l1.32-1.572-.865-9.515.865-.877Z" transform="translate(-17.13 -25.71)" fill="#f9533d"/>
    <path id="Path_42618" data-name="Path 42618" d="M70.279,118.947c-3.65,3.927-3.051,3.9-5.067.864l2.974-2.069Zm-8.042-1.2,2.975,2.069c-2.055,3.163-1.45,2.965-5.231-.816Z" transform="translate(-11.47 -23.474)" fill="#e7eaef"/>
    <path id="Path_42619" data-name="Path 42619" d="M62.112,133.987l6.456-7.19-2.215-.84,3.854-5.234-3.688-1.3Zm0,0-6.456-7.19,2.215-.84-3.854-5.234,3.6-1.261Z" transform="translate(-8.371 -24.348)" fill="#2cc4a7"/>
    <path id="Path_42620" data-name="Path 42620" d="M70.625,105.436v5.913l-1.7,1.183-4.246-2.806v-4.289Z" transform="translate(-13.911 -17.078)" opacity="0.1"/>
    <path id="Path_42621" data-name="Path 42621" d="M70.339,86.1c0-11.4-13.347-11.4-13.347,0,0,7.3,2.988,9.825,6.673,9.825S70.339,93.089,70.339,86.1Z" transform="translate(-9.917 -2.585)" fill="#facab6"/>
    <path id="Path_42622" data-name="Path 42622" d="M69.735,76.731l-3.782,1.381-6.569,2.4a.232.232,0,0,1-.135,0c-7.516-2.741-5.91-2.155-8.156-2.975l-.322-.116-1.879-.685a.2.2,0,0,1,0-.368l1.879-.685.322-.116,8.15-2.978a.232.232,0,0,1,.135,0l10.357,3.78A.2.2,0,0,1,69.735,76.731Z" transform="translate(-5.64)" fill="#324a5e"/>
    <path id="Path_42623" data-name="Path 42623" d="M70.37,81.237v4.322a6.734,6.734,0,0,0-5.877.4,1.307,1.307,0,0,1-1.342,0,6.752,6.752,0,0,0-5.885-.4V81.237C57.266,79.841,70.37,79.84,70.37,81.237Z" transform="translate(-10.06 -3.958)" fill="#2b3b4e"/>
    <path id="Path_42624" data-name="Path 42624" d="M53.267,78.795v5.7h-.322V78.911Z" transform="translate(-7.814 -3.233)" fill="#ff7058"/>
    <g id="Group_51796" data-name="Group 51796" transform="translate(44.754 80.18)">
      <path id="Path_42625" data-name="Path 42625" d="M53.235,90.923a.537.537,0,1,1-1.075,0,17.893,17.893,0,0,1,.537-1.981A17.893,17.893,0,0,1,53.235,90.923Z" transform="translate(-52.16 -88.686)" fill="#ff7058"/>
      <path id="Path_42626" data-name="Path 42626" d="M52.834,89.239a.415.415,0,0,1,0-.829A.415.415,0,0,1,52.834,89.239Z" transform="translate(-52.298 -88.409)" fill="#ff7058"/>
    </g>
    <g id="Group_51797" data-name="Group 51797" transform="translate(45.864 83.056)">
      <path id="Path_42627" data-name="Path 42627" d="M57.176,96.442a2.61,2.61,0,0,0-1.485-2.012.76.76,0,0,0-.335-.025c-.719.1-1.071,1.188-.786,2.417a2.607,2.607,0,0,0,1.488,2.016.782.782,0,0,0,.326.021c.719-.1,1.075-1.188.791-2.417Zm12.177-2.036a.766.766,0,0,0-.334.025,2.605,2.605,0,0,0-1.48,2.012c-.284,1.23.067,2.313.786,2.417a.807.807,0,0,0,.3-.017,2.567,2.567,0,0,0,1.514-2.02C70.424,95.594,70.073,94.511,69.353,94.406Z" transform="translate(-54.472 -94.398)" fill="#facab6"/>
    </g>
    <path id="Path_42628" data-name="Path 42628" d="M159.834,134.5h-31.66c.435-1.987,2.308-11.032,3.207-11.977.927-.969,6.715-1.918,8.046-2.112.6.161,4.243,1.152,4.579,1.242l4.579-1.242c1.352.211,7.1,1.128,8.042,2.112.405.427,1.012,2.5,1.593,4.826C158.927,130.19,159.6,133.41,159.834,134.5Z" transform="translate(-46.91 -24.862)" fill="#ff7058"/>
    <path id="Path_42629" data-name="Path 42629" d="M154.942,105.436h5.947v9.325h-5.947Z" transform="translate(-60.822 -17.078)" fill="#facab6"/>
    <path id="Path_42630" data-name="Path 42630" d="M152.057,119.8l4.36,14.38,4.241-14.38-4.24,1.078Z" transform="translate(-59.322 -24.545)" fill="#e7eaef"/>
    <path id="Path_42631" data-name="Path 42631" d="M161.028,123.385l-1.32-1.339-1.32,1.339.865.877-.866,9.516,1.321,1.572,1.32-1.572-.865-9.515Z" transform="translate(-62.612 -25.71)" fill="#54c0eb"/>
    <path id="Path_42632" data-name="Path 42632" d="M161.136,122.046h0v13.3h0l1.32-1.572-.865-9.515.865-.877Z" transform="translate(-64.04 -25.71)" fill="#84dbff"/>
    <path id="Path_42633" data-name="Path 42633" d="M160.544,118.947c-3.65,3.927-3.051,3.9-5.067.864l2.974-2.069,2.094,1.2Zm-8.042-1.2,2.975,2.069c-2.055,3.163-1.45,2.965-5.231-.816Z" transform="translate(-58.381 -23.474)" fill="#adb3ba"/>
    <path id="Path_42634" data-name="Path 42634" d="M152.377,133.987l6.456-7.19-2.215-.84,3.854-5.234-3.688-1.3Zm0,0-6.456-7.19,2.215-.84-3.854-5.234,3.6-1.261Z" transform="translate(-55.282 -24.348)" fill="#f9533d"/>
    <path id="Path_42635" data-name="Path 42635" d="M160.89,105.436v5.913l-1.7,1.183-4.246-2.806v-4.289Z" transform="translate(-60.822 -17.078)" opacity="0.1"/>
    <path id="Path_42636" data-name="Path 42636" d="M160.6,86.135c0-5.426-2.988-8.511-6.673-8.511s-6.673,3.085-6.673,8.511c0,7.3,2.988,9.825,6.673,9.825S160.6,93.129,160.6,86.135Z" transform="translate(-56.828 -2.624)" fill="#facab6"/>
    <path id="Path_42637" data-name="Path 42637" d="M160,76.731l-3.782,1.381-6.569,2.4a.232.232,0,0,1-.135,0l-6.4-2.334-1.755-.642-.322-.116-1.879-.685a.2.2,0,0,1,0-.368l1.879-.685.322-.116,8.15-2.978a.232.232,0,0,1,.135,0L160,76.364A.2.2,0,0,1,160,76.731Z" transform="translate(-52.55)" fill="#324a5e"/>
    <path id="Path_42638" data-name="Path 42638" d="M160.635,81.219v4.322a6.734,6.734,0,0,0-5.877.4,1.307,1.307,0,0,1-1.342,0,6.752,6.752,0,0,0-5.885-.4V81.219c0-.7,3.494-1.052,6.556-1.064C157.141,80.167,160.635,80.521,160.635,81.219Z" transform="translate(-56.97 -3.94)" fill="#2b3b4e"/>
    <path id="Path_42639" data-name="Path 42639" d="M143.532,78.795v5.7h-.322V78.911Z" transform="translate(-54.725 -3.233)" fill="#ff7058"/>
    <g id="Group_51798" data-name="Group 51798" transform="translate(88.108 80.18)">
      <path id="Path_42640" data-name="Path 42640" d="M143.5,90.923a.537.537,0,1,1-1.075,0,17.89,17.89,0,0,1,.537-1.981A17.893,17.893,0,0,1,143.5,90.923Z" transform="translate(-142.425 -88.686)" fill="#ff7058"/>
      <path id="Path_42641" data-name="Path 42641" d="M143.511,88.821a.419.419,0,0,1-.417.417.414.414,0,0,1-.412-.417.41.41,0,0,1,.412-.412A.414.414,0,0,1,143.511,88.821Z" transform="translate(-142.559 -88.409)" fill="#ff7058"/>
    </g>
    <g id="Group_51799" data-name="Group 51799" transform="translate(89.219 83.056)">
      <path id="Path_42642" data-name="Path 42642" d="M147.441,96.442a2.61,2.61,0,0,0-1.485-2.012.761.761,0,0,0-.335-.025c-.719.1-1.071,1.188-.786,2.417a2.607,2.607,0,0,0,1.488,2.016.783.783,0,0,0,.326.021c.72-.1,1.075-1.188.791-2.417Zm12.177-2.036a.766.766,0,0,0-.334.025,2.605,2.605,0,0,0-1.48,2.012c-.284,1.23.067,2.313.786,2.417a.807.807,0,0,0,.3-.017,2.567,2.567,0,0,0,1.514-2.02C160.689,95.594,160.338,94.511,159.618,94.406Z" transform="translate(-144.737 -94.398)" fill="#facab6"/>
    </g>
    <path id="Path_42643" data-name="Path 42643" d="M114.949,112.564c.776,6.332-3.289,7.545-8.487,7.545s-9.264-1.212-8.487-7.545c.656-5.353,4.417-9.121,8.487-9.121S114.293,107.211,114.949,112.564Z" transform="translate(-31.166 -16.043)" fill="#2b3b4e"/>
    <path id="Path_42644" data-name="Path 42644" d="M114.949,112.564c.776,6.332-3.289,7.545-8.487,7.545s-9.264-1.212-8.487-7.545c.656-5.353,4.417-9.121,8.487-9.121S114.293,107.211,114.949,112.564Z" transform="translate(-31.166 -16.043)" opacity="0.2"/>
    <path id="Path_42645" data-name="Path 42645" d="M114.51,156.647H78.169c.5-2.279,2.647-12.66,3.682-13.745,1.188-1.244,9.232-2.427,9.232-2.427l5.256,1.429,5.256-1.429s8.044,1.183,9.232,2.427c1.034,1.084,3.184,11.466,3.682,13.744Z" transform="translate(-20.923 -35.288)" fill="#324a5e"/>
    <path id="Path_42646" data-name="Path 42646" d="M108.892,123.289h6.826v10.7h-6.826Z" transform="translate(-36.89 -26.356)" fill="#facab6"/>
    <path id="Path_42647" data-name="Path 42647" d="M105.58,139.78l5,16.506,4.868-16.506-4.866,1.237Z" transform="translate(-35.168 -34.927)" fill="#e7eaef"/>
    <path id="Path_42648" data-name="Path 42648" d="M115.877,143.89l-1.515-1.537-1.515,1.537.992,1.007-.994,10.922,1.516,1.8,1.515-1.8-.993-10.922Z" transform="translate(-38.944 -36.264)" fill="#ff7058"/>
    <path id="Path_42649" data-name="Path 42649" d="M116,142.353v15.269h0l1.515-1.8-.993-10.922.993-1.007Z" transform="translate(-40.584 -36.264)" fill="#f9533d"/>
    <path id="Path_42650" data-name="Path 42650" d="M121.818,138.8c-4.18,4.5-3.5,4.483-5.816.992l3.413-2.374Z" transform="translate(-40.585 -33.697)" fill="#adb3ba"/>
    <path id="Path_42651" data-name="Path 42651" d="M106.091,137.414l3.415,2.374c-2.358,3.631-1.664,3.4-6-.936Z" transform="translate(-34.088 -33.697)" fill="#adb3ba"/>
    <path id="Path_42652" data-name="Path 42652" d="M105.947,156.06l7.41-8.253-2.542-.963,4.423-6.009-4.233-1.49Zm0,0-7.41-8.253,2.543-.963-4.424-6.009,4.13-1.447Z" transform="translate(-30.531 -34.701)" fill="#2b3b4e"/>
    <path id="Path_42653" data-name="Path 42653" d="M115.718,123.289v6.786l-1.953,1.357-4.873-3.221v-4.923Z" transform="translate(-36.89 -26.356)" opacity="0.1"/>
    <path id="Path_42654" data-name="Path 42654" d="M115.39,101.135c0-6.228-3.429-9.769-7.66-9.769s-7.659,3.541-7.659,9.769c0,8.376,3.429,11.277,7.659,11.277S115.39,109.162,115.39,101.135Z" transform="translate(-32.305 -9.766)" fill="#facab6"/>
    <path id="Path_42655" data-name="Path 42655" d="M97.293,113.4c-.327-1.412.078-2.654.9-2.774s1.76.928,2.086,2.34-.079,2.654-.9,2.774-1.759-.928-2.085-2.34Zm15.787,2.34c-.825-.121-1.231-1.364-.9-2.774s1.259-2.46,2.086-2.34,1.229,1.362.9,2.774S113.9,115.862,113.079,115.743Z" transform="translate(-30.803 -19.772)" fill="#facab6"/>
    <path id="Path_42656" data-name="Path 42656" d="M114.68,90.335l-4.336,1.583-7.53,2.747a.267.267,0,0,1-.155,0L95.322,91.99l-2.012-.736-.369-.134-2.154-.785a.224.224,0,0,1,0-.422l2.154-.785.369-.134,9.342-3.414a.267.267,0,0,1,.155,0l11.872,4.333a.226.226,0,0,1,0,.423Z" transform="translate(-27.403 -6.753)" fill="#324a5e"/>
    <path id="Path_42657" data-name="Path 42657" d="M95.8,92.7v6.534h-.369v-6.4Z" transform="translate(-29.895 -10.46)" fill="#ff7058"/>
    <path id="Path_42658" data-name="Path 42658" d="M115.41,95.48v4.955a7.729,7.729,0,0,0-6.742.454,1.5,1.5,0,0,1-1.539,0,7.737,7.737,0,0,0-6.746-.454V95.48c0-.8,4.005-1.206,7.515-1.219C111.405,94.274,115.41,94.679,115.41,95.48Z" transform="translate(-32.468 -11.271)" fill="#2b3b4e"/>
    <path id="Path_42659" data-name="Path 42659" d="M95.766,106.6a.616.616,0,0,1-1.232,0,20.526,20.526,0,0,1,.616-2.271A20.525,20.525,0,0,1,95.766,106.6Z" transform="translate(-29.428 -16.505)" fill="#ff7058"/>
    <path id="Path_42660" data-name="Path 42660" d="M95.779,104.195a.48.48,0,0,1-.478.478.475.475,0,0,1-.473-.478.47.47,0,0,1,.473-.473A.475.475,0,0,1,95.779,104.195Z" transform="translate(-29.581 -16.188)" fill="#ff7058"/>
  </g>
</svg>
