<svg id="Group_140" data-name="Group 140" xmlns="http://www.w3.org/2000/svg" width="25.236" height="25.235" viewBox="0 0 25.236 25.235">
  <path id="Path_270" data-name="Path 270" d="M29.236,7.605A3.6,3.6,0,0,0,25.63,4H7.605A3.6,3.6,0,0,0,4,7.605V25.63a3.6,3.6,0,0,0,3.605,3.605H25.63a3.6,3.6,0,0,0,3.605-3.605V7.605Z" transform="translate(-4 -4)" fill="#30c768" fill-rule="evenodd"/>
  <path id="Path_271" data-name="Path 271" d="M14.532,30.393h1.8l4.813-5.471,4.186,5.462h4.894l-6.422-8.49L29.24,15.72h-1.8l-4.466,5.074-3.83-5.07H14.09L20.3,23.831,14.527,30.4Zm2.3-13.321h1.64l9.04,11.96H26l-9.166-11.96Z" transform="translate(-9.543 -10.439)" fill="#fff"/>
</svg>
