<svg id="Group_140" data-name="Group 140" xmlns="http://www.w3.org/2000/svg" width="28.755" height="28.755" viewBox="0 0 28.755 28.755">
  <path id="Path_270" data-name="Path 270" d="M32.755,8.108A4.107,4.107,0,0,0,28.647,4H8.108A4.107,4.107,0,0,0,4,8.108V28.647a4.107,4.107,0,0,0,4.108,4.108H28.647a4.107,4.107,0,0,0,4.108-4.108V8.108Z" transform="translate(-4 -4)" fill="#fff" fill-rule="evenodd"/>
  <path id="Path_271" data-name="Path 271" d="M14.593,32.439h2.054l5.484-6.234,4.77,6.223h5.576l-7.317-9.674,6.193-7.035H29.3L24.211,21.5l-4.365-5.777H14.09l7.081,9.238-6.583,7.481ZM17.217,17.26h1.869l10.3,13.628h-1.72L17.222,17.26Z" transform="translate(-8.909 -9.702)" fill="#00be55"/>
</svg>
