<svg xmlns="http://www.w3.org/2000/svg" width="40" height="40" viewBox="0 0 40 40">
  <g id="Group_52520" data-name="Group 52520" transform="translate(-4678 3219)">
    <path id="Path_44099" data-name="Path 44099" d="M32.5,40H7.5A7.5,7.5,0,0,1,0,32.5V7.5A7.5,7.5,0,0,1,7.5,0h25A7.5,7.5,0,0,1,40,7.5v25A7.5,7.5,0,0,1,32.5,40Z" transform="translate(4678 -3219)" fill="#c7def3"/>
    <g id="Group_52518" data-name="Group 52518" transform="translate(4686 -3211)">
      <path id="Path_44097" data-name="Path 44097" d="M19,22H5a3,3,0,0,1-3-3V15a1,1,0,0,1,2,0v4a1,1,0,0,0,1,1H19a1,1,0,0,0,1-1V15a1,1,0,0,1,2,0v4A3,3,0,0,1,19,22Z" fill="#044783"/>
      <path id="Path_44098" data-name="Path 44098" d="M16.707,6.293l-4-4a1,1,0,0,0-1.414,0h0l-4,4A1,1,0,0,0,8.707,7.707L11,5.414V15a1,1,0,0,0,2,0V5.414l2.293,2.293a1,1,0,0,0,1.414-1.414Z" fill="#044783"/>
    </g>
  </g>
</svg>
