<svg xmlns="http://www.w3.org/2000/svg" width="24" height="20" viewBox="0 0 24 20">
  <g id="Group_54301" data-name="Group 54301" transform="translate(0 -2)">
    <path id="Path_51575" data-name="Path 51575" d="M5,10A.945.945,0,0,1,4,9a6.957,6.957,0,0,1,7-7,7.182,7.182,0,0,1,6.7,4.9A.949.949,0,0,1,17,8.1a1.04,1.04,0,0,1-1.3-.6A4.831,4.831,0,0,0,11,4,4.951,4.951,0,0,0,6,9,.945.945,0,0,1,5,10Z" fill="#fff"/>
    <path id="Path_51576" data-name="Path 51576" d="M18,18a1,1,0,0,1,0-2,4,4,0,0,0,0-8,3.4,3.4,0,0,0-1,.1,1.028,1.028,0,0,1-1.2-.7,1.028,1.028,0,0,1,.7-1.2A7.719,7.719,0,0,1,18,6a6,6,0,1,1,0,12ZM8,18H5a1,1,0,0,1,0-2H8a1,1,0,0,1,0,2Z" fill="#fff"/>
    <path id="Path_51577" data-name="Path 51577" d="M18,18H16a1,1,0,0,1,0-2h2a1,1,0,0,1,0,2ZM5,18A5,5,0,0,1,5,8,.945.945,0,0,1,6,9a.945.945,0,0,1-1,1,3,3,0,0,0,0,6,1,1,0,0,1,0,2Zm7,4a.945.945,0,0,1-1-1V11a1,1,0,0,1,2,0V21A.945.945,0,0,1,12,22Z" fill="#fff"/>
    <path id="Path_51578" data-name="Path 51578" d="M9,15a.908.908,0,0,1-.7-.3.967.967,0,0,1,0-1.4l3-3a.99.99,0,0,1,1.4,1.4l-3,3A.908.908,0,0,1,9,15Z" fill="#fff"/>
    <path id="Path_51579" data-name="Path 51579" d="M15,15a.908.908,0,0,1-.7-.3l-3-3a.99.99,0,0,1,1.4-1.4l3,3a.967.967,0,0,1,0,1.4A.908.908,0,0,1,15,15Z" fill="#fff"/>
  </g>
</svg>
