<svg xmlns="http://www.w3.org/2000/svg" width="15.04" height="18.8" viewBox="0 0 15.04 18.8">
  <path id="Path_43757" data-name="Path 43757" d="M15.784,11.276a2.256,2.256,0,0,1,2.256,2.256v.752c0,2.965-2.8,6.016-7.52,6.016S3,17.249,3,14.284v-.752a2.256,2.256,0,0,1,2.256-2.256Zm0,1.5H5.256a.752.752,0,0,0-.752.752v.752c0,2.162,2.154,4.512,6.016,4.512s6.016-2.35,6.016-4.512v-.752A.752.752,0,0,0,15.784,12.78ZM10.52,1.5A4.136,4.136,0,1,1,6.384,5.636,4.136,4.136,0,0,1,10.52,1.5Zm0,1.5a2.632,2.632,0,1,0,2.632,2.632A2.632,2.632,0,0,0,10.52,3Z" transform="translate(-3 -1.5)" fill="#B6B6B6"/>
</svg>
