<svg xmlns="http://www.w3.org/2000/svg" width="18.83" height="16.08" viewBox="0 0 18.83 16.08">
  <g id="Group_52581" data-name="Group 52581" transform="translate(-49.116 -156)">
    <path id="Path_42462" data-name="Path 42462" d="M13.935,9.862a1.93,1.93,0,0,1,1.93,1.93v.643c0,2.536-2.392,5.146-6.432,5.146S3,14.971,3,12.435v-.643a1.93,1.93,0,0,1,1.93-1.93Zm0,1.286h-9a.643.643,0,0,0-.643.643v.643c0,1.849,1.842,3.859,5.146,3.859s5.146-2.01,5.146-3.859v-.643A.643.643,0,0,0,13.935,11.148ZM9.432,1.5A3.538,3.538,0,1,1,5.894,5.038,3.538,3.538,0,0,1,9.432,1.5Zm0,1.286a2.251,2.251,0,1,0,2.251,2.251A2.251,2.251,0,0,0,9.432,2.786Z" transform="translate(46.116 154.5)" fill="#fff"/>
    <path id="Subtraction_1" data-name="Subtraction 1" d="M6.433,0A6.962,6.962,0,0,0,1.7,1.622,4.758,4.758,0,0,0,0,5.145v.644A1.931,1.931,0,0,0,1.93,7.717H6.769A1.948,1.948,0,0,1,5.024,6.431H1.93a.644.644,0,0,1-.644-.642V5.145A3.49,3.49,0,0,1,2.621,2.522,5.757,5.757,0,0,1,6.433,1.286c.195,0,.388.007.574.021A6.454,6.454,0,0,1,8.889.362,8.134,8.134,0,0,0,6.433,0Zm0,9a3.537,3.537,0,1,0,2.455,6.084,3.534,3.534,0,0,1-.759-1.067,2.251,2.251,0,1,1,0-2.957A3.525,3.525,0,0,1,8.888,10,3.518,3.518,0,0,0,6.433,9Z" transform="translate(67.947 172.078) rotate(180)" fill="#fff"/>
  </g>
</svg>
