<svg xmlns="http://www.w3.org/2000/svg" width="48.723" height="48.723" viewBox="0 0 48.723 48.723">
  <g id="Group_54708" data-name="Group 54708" transform="translate(-1622 -308)">
    <path id="Path_45889" data-name="Path 45889" d="M39.587,48.723H9.135A9.135,9.135,0,0,1,0,39.587V9.135A9.135,9.135,0,0,1,9.135,0H39.587a9.135,9.135,0,0,1,9.135,9.135V39.587A9.135,9.135,0,0,1,39.587,48.723Z" transform="translate(1622 308)" fill="#ffbcec"/>
    <g id="Group_54679" data-name="Group 54679" transform="translate(1632.75 317.75)">
      <path id="Path_45887" data-name="Path 45887" d="M4.25,5.158a.908.908,0,0,1,.908-.908H22.1a.908.908,0,0,1,.908.908,9.38,9.38,0,0,1-5.349,8.471A9.38,9.38,0,0,1,23.008,22.1a.908.908,0,0,1-.908.908H5.158A.908.908,0,0,1,4.25,22.1,9.38,9.38,0,0,1,9.6,13.629,9.38,9.38,0,0,1,4.25,5.158Zm9.379,9.379a7.565,7.565,0,0,0-7.51,6.656h15.02A7.565,7.565,0,0,0,13.629,14.537ZM6.119,6.065a7.565,7.565,0,0,0,15.02,0Z" transform="translate(0 0.631)" fill="#4b3e2c" fill-rule="evenodd"/>
      <path id="Path_45888" data-name="Path 45888" d="M5.158,1.25a.908.908,0,1,0,0,1.815H22.1a.908.908,0,0,0,0-1.815Zm0,24.2a.908.908,0,0,0,0,1.815H22.1a.908.908,0,0,0,0-1.815Z" fill="#4b3e2c"/>
    </g>
  </g>
</svg>
