<svg xmlns="http://www.w3.org/2000/svg" xmlns:xlink="http://www.w3.org/1999/xlink" width="28.753" height="35.008" viewBox="0 0 28.753 35.008">
  <defs>
    <linearGradient id="linear-gradient" y1="0.5" x2="1" y2="0.5" gradientUnits="objectBoundingBox">
      <stop offset="0" stop-color="#00438c"/>
      <stop offset="1" stop-color="#1265da"/>
    </linearGradient>
  </defs>
  <path id="Path_44650" data-name="Path 44650" d="M31.885,13.8A7.488,7.488,0,0,0,21.451,3.368l-.083-.083a.625.625,0,1,0-.884.884h0l-.029.028a7.443,7.443,0,0,0-2.163,4.926L7.807,22.84A1.863,1.863,0,0,0,7.7,24.911l-.5.5a1.86,1.86,0,0,0-.335,2.145L5.426,28.993a3.184,3.184,0,0,0,4.5,4.5L12.3,31.125l0,0L12.421,31a1.934,1.934,0,1,1,2.736,2.736l-2.2,2.2a.625.625,0,0,0,.884.885l2.2-2.2a3.183,3.183,0,0,0,0-4.5,3.257,3.257,0,0,0-4.5,0L9.166,32.492a0,0,0,0,1,0,0l-.116.116A1.934,1.934,0,1,1,6.31,29.877l1.442-1.442a1.831,1.831,0,0,0,2.094-.368l.51-.51a1.771,1.771,0,0,0,2.065-.1L26.137,16.97a7.449,7.449,0,0,0,4.927-2.163c.01-.01.015-.021.025-.031l0,0a.625.625,0,0,0,.884-.884l-.094-.094ZM8.964,27.183a.621.621,0,0,1-.81.048c-.013-.015-.018-.034-.031-.048a.6.6,0,0,0-.075-.05.62.62,0,0,1,.033-.835l.443-.443.441.443.443.443ZM24,17.031,11.665,26.463a.628.628,0,0,1-.823-.055l-.994-.994-.884-.884-.11-.11A.625.625,0,0,1,8.8,23.6l9.432-12.333v0l.963-1.263,6.063,6.063L24,17.031h0Zm6.185-3.111a6.21,6.21,0,0,1-3.54,1.765L19.578,8.62a6.194,6.194,0,0,1,1.763-3.54c.01-.01.023-.016.031-.025l8.836,8.834C30.2,13.9,30.193,13.911,30.183,13.92ZM31,12.912,22.352,4.267A6.247,6.247,0,0,1,31,12.914ZM16.921,15.691l-1.768,1.768A1.875,1.875,0,1,0,17.8,20.11l1.769-1.768a1.875,1.875,0,0,0-2.651-2.652Zm1.768,1.768-1.768,1.768a.638.638,0,0,1-.884,0,.621.621,0,0,1,0-.884l1.768-1.768a.625.625,0,1,1,.884.884Z" transform="translate(-4.496 -2)" fill="url(#linear-gradient)"/>
</svg>
