<svg xmlns="http://www.w3.org/2000/svg" width="90.439" height="105.14" viewBox="0 0 90.439 105.14">
  <g id="Group_52432" data-name="Group 52432" transform="translate(-5.856 -2.5)">
    <path id="Path_44011" data-name="Path 44011" d="M85.674,68.178v32.779a6.655,6.655,0,0,1-6.647,6.681H12.537a6.683,6.683,0,0,1-6.681-6.681V9.183A6.683,6.683,0,0,1,12.537,2.5h49.6L85.674,26.039v8.97" transform="translate(0 0.002)" fill="#ededed"/>
    <path id="Path_44012" data-name="Path 44012" d="M55.108,26.044H38.235a6.68,6.68,0,0,1-6.681-6.664V2.507Z" transform="translate(30.583 0)" fill="#dbdbdb"/>
    <path id="Path_44013" data-name="Path 44013" d="M68.951,81.957H12a1.7,1.7,0,1,0,0,3.391H68.951a1.7,1.7,0,0,0,0-3.391ZM12,73.15H68.951a1.7,1.7,0,0,0,0-3.392H12a1.7,1.7,0,0,0,0,3.392Zm0-12.2H40.473a1.7,1.7,0,0,0,0-3.391H12a1.7,1.7,0,1,0,0,3.391Zm0-12.2H40.473a1.7,1.7,0,0,0,0-3.391H12a1.7,1.7,0,0,0,0,3.391Zm0-12.2H40.473a1.7,1.7,0,0,0,0-3.391H12a1.7,1.7,0,0,0,0,3.391Zm0-12.2H40.473a1.7,1.7,0,0,0,0-3.391H12a1.7,1.7,0,1,0,0,3.391ZM12,12.488H40.483a1.7,1.7,0,1,0,0-3.391H12a1.7,1.7,0,1,0,0,3.391Z" transform="translate(5.291 7.852)" fill="#fff"/>
    <g id="Group_52432-2" data-name="Group 52432" transform="translate(57.054 35.018)">
      <path id="Path_44014" data-name="Path 44014" d="M68.471,22.925v22a5.579,5.579,0,0,1-5.579,5.579H34.809a5.579,5.579,0,0,1-5.579-5.579v-22a5.579,5.579,0,0,1,5.579-5.579H62.891A5.579,5.579,0,0,1,68.471,22.925Z" transform="translate(-29.229 -17.346)" fill="#00aeff"/>
    </g>
    <g id="Group_52433" data-name="Group 52433" transform="translate(63.11 43.362)">
      <path id="Path_44015" data-name="Path 44015" d="M41.655,37.63H37.693l-5.7-16.475h3.592L39.673,33.6l4.089-12.45h3.592L51.442,33.6l4.087-12.45h3.594l-5.7,16.475H49.46l-3.9-11.272Z" transform="translate(-31.994 -21.155)" fill="#fff"/>
    </g>
  </g>
</svg>
