<svg xmlns="http://www.w3.org/2000/svg" width="55.55" height="64.58" viewBox="0 0 55.55 64.58">
  <g id="Group_52817" data-name="Group 52817" transform="translate(-5.856 -2.5)">
    <path id="Path_44137" data-name="Path 44137" d="M54.883,42.842V62.975a4.087,4.087,0,0,1-4.083,4.1H9.959a4.105,4.105,0,0,1-4.1-4.1V6.605a4.105,4.105,0,0,1,4.1-4.1H40.425L54.882,16.959v5.51" transform="translate(0 0.001)" fill="#ededed"/>
    <path id="Path_44138" data-name="Path 44138" d="M46.019,16.961H35.655a4.1,4.1,0,0,1-4.1-4.093V2.5Z" transform="translate(8.874 0)" fill="#dbdbdb"/>
    <path id="Path_44139" data-name="Path 44139" d="M46.326,53.849H11.342a1.042,1.042,0,1,0,0,2.083H46.326a1.042,1.042,0,0,0,0-2.083ZM11.342,48.44H46.326a1.042,1.042,0,0,0,0-2.083H11.342a1.042,1.042,0,1,0,0,2.083Zm0-7.492H28.833a1.042,1.042,0,1,0,0-2.083H11.342a1.042,1.042,0,1,0,0,2.083Zm0-7.492H28.833a1.042,1.042,0,1,0,0-2.083H11.342a1.042,1.042,0,1,0,0,2.083Zm0-7.492H28.833a1.042,1.042,0,1,0,0-2.083H11.342a1.042,1.042,0,0,0,0,2.083Zm0-7.492H28.833a1.042,1.042,0,1,0,0-2.083H11.342a1.042,1.042,0,1,0,0,2.083Zm.005-7.291H28.839a1.042,1.042,0,1,0,0-2.083H11.347a1.042,1.042,0,0,0,0,2.083Z" transform="translate(1.535 2.278)" fill="#fff"/>
    <g id="Group_52812" data-name="Group 52812" transform="translate(37.303 22.474)">
      <path id="Path_44140" data-name="Path 44140" d="M53.332,20.773V34.288a3.427,3.427,0,0,1-3.427,3.427H32.656a3.427,3.427,0,0,1-3.427-3.427V20.773a3.427,3.427,0,0,1,3.427-3.427H49.905A3.427,3.427,0,0,1,53.332,20.773Z" transform="translate(-29.229 -17.346)" fill="#00aeff"/>
    </g>
    <g id="Group_52813" data-name="Group 52813" transform="translate(41.023 27.599)">
      <path id="Path_44141" data-name="Path 44141" d="M37.928,31.275H35.494l-3.5-10.12H34.2l2.51,7.647,2.512-7.647h2.206L43.94,28.8l2.51-7.647h2.207l-3.5,10.12H42.722l-2.4-6.924Z" transform="translate(-31.994 -21.155)" fill="#fff"/>
    </g>
  </g>
</svg>
