<svg xmlns="http://www.w3.org/2000/svg" width="53.824" height="67.526" viewBox="0 0 53.824 67.526">
  <g id="Group_52797" data-name="Group 52797" transform="translate(0)">
    <g id="Group_52797-2" data-name="Group 52797" transform="translate(0 0)">
      <path id="Path_44130" data-name="Path 44130" d="M6.968,375.71v6.858H3.429A3.429,3.429,0,0,1,0,379.119a3.112,3.112,0,0,1,.018-.338,3.429,3.429,0,0,1,3.411-3.072Z" transform="translate(0 -326.159)" fill="#00a649"/>
      <path id="Path_44131" data-name="Path 44131" d="M53.944,212.726v1.269l-44.158.011H3.551A3.429,3.429,0,0,0,.14,217.078l.058-24.2a3.429,3.429,0,0,1,3.429-3.429H7.09l46.854-.009Z" transform="translate(-0.121 -164.456)" fill="#05db5c"/>
      <path id="Path_44132" data-name="Path 44132" d="M99.694,375.63v11.1a6.89,6.89,0,0,1-6.89,6.89H59.731a6.89,6.89,0,0,1-6.891-6.891V375.641h2.7Z" transform="translate(-45.871 -326.09)" fill="#e7e7e9"/>
      <path id="Path_44133" data-name="Path 44133" d="M314.063,2.37a4.113,4.113,0,0,1,1.176.732l9.839,8.747a4.135,4.135,0,0,1,1.319,2.363h-8.2a4.133,4.133,0,0,1-4.133-4.133V2.37Z" transform="translate(-272.64 -2.057)" fill="#a3a2a3"/>
      <path id="Path_44134" data-name="Path 44134" d="M85.728,0A4.106,4.106,0,0,1,87.3.313V8.021a4.133,4.133,0,0,0,4.133,4.133h8.2a4.022,4.022,0,0,1,.065.725V24.986l-46.854.009V8.268A8.268,8.268,0,0,1,61.117,0Z" transform="translate(-45.88 0)" fill="#e7e7e9"/>
      <path id="Path_44135" data-name="Path 44135" d="M99.686,244.959a7.741,7.741,0,0,1-1.325-.036,1.372,1.372,0,0,1-1.113-1.347V232.543a1.373,1.373,0,1,1,2.745,0v9.671c.646,0,1.451,0,2.209-.009h.009a1.373,1.373,0,0,1,.009,2.745C101.041,244.959,100.238,244.959,99.686,244.959ZM98.722,242.209Zm12.86,2.75a6.639,6.639,0,0,1-4.868-2.089,1.374,1.374,0,1,1,2.035-1.846,3.855,3.855,0,0,0,2.833,1.187,1.869,1.869,0,0,0,1.936-1.262c.148-.827-.967-1.333-1.451-1.513-1.715-.632-3.234-1.308-3.3-1.336a1.488,1.488,0,0,1-.191-.1,3.5,3.5,0,0,1-1.562-3.467,3.875,3.875,0,0,1,2.809-3.128,6.424,6.424,0,0,1,5.6,1.224,1.374,1.374,0,1,1-1.759,2.11,3.688,3.688,0,0,0-3.047-.7,1.119,1.119,0,0,0-.885.892.774.774,0,0,0,.274.727c.388.17,1.651.715,3.008,1.216,2.783,1.025,3.48,3.033,3.206,4.57A4.55,4.55,0,0,1,111.582,244.959Zm-18.345,0a1.372,1.372,0,0,1-1.124-.583l-7.767-11.044a1.372,1.372,0,0,1,2.242-1.583l7.768,11.044a1.373,1.373,0,0,1-1.121,2.163Z" transform="translate(-73.004 -200.645)" fill="#fff"/>
      <path id="Path_44136" data-name="Path 44136" d="M81.229,245.473a1.373,1.373,0,0,1-1.121-2.164l7.781-11.044a1.373,1.373,0,0,1,2.242,1.583L82.35,244.891A1.368,1.368,0,0,1,81.229,245.473Z" transform="translate(-69.325 -201.16)" fill="#fff"/>
    </g>
  </g>
</svg>
