<svg xmlns="http://www.w3.org/2000/svg" width="35.871" height="26.741" viewBox="0 0 35.871 26.741">
  <g id="Group_53682" data-name="Group 53682" transform="translate(-4.501 -11.5)">
    <path id="Path_44651" data-name="Path 44651" d="M47.392,28.791A4.892,4.892,0,1,1,52.283,23.9,4.9,4.9,0,0,1,47.392,28.791Zm0-9.131A4.239,4.239,0,1,0,51.631,23.9,4.244,4.244,0,0,0,47.392,19.66Z" transform="translate(-13.215 -2.611)" fill="#263238"/>
    <path id="Path_44652" data-name="Path 44652" d="M50.732,21.435l.34-.283A4.566,4.566,0,0,0,43,24.075h.431A11.419,11.419,0,0,0,50.732,21.435Z" transform="translate(-13.39 -2.786)" fill="#ffd740"/>
    <path id="Path_44653" data-name="Path 44653" d="M35.283,24.226h-.431a.326.326,0,0,1-.326-.326,4.891,4.891,0,0,1,8.648-3.132.326.326,0,0,1-.042.459l-.34.284h0A11.769,11.769,0,0,1,35.283,24.226Zm-.092-.652h.093a11.11,11.11,0,0,0,7.092-2.564l.08-.067a4.239,4.239,0,0,0-7.264,2.631Zm7.392-2.313h0ZM34.409,33.247a1.95,1.95,0,0,1-1.121-.354L20.407,23.869a1.957,1.957,0,0,1,2.246-3.206l12.881,9.024a1.957,1.957,0,0,1-1.124,3.559ZM21.531,20.963a1.3,1.3,0,0,0-.751,2.373l12.881,9.023a1.34,1.34,0,0,0,1.816-.32,1.3,1.3,0,0,0-.32-1.817L22.278,21.2A1.3,1.3,0,0,0,21.531,20.963Z" transform="translate(-5.242 -2.611)" fill="#263238"/>
    <path id="Path_44654" data-name="Path 44654" d="M17.4,40.562a.333.333,0,0,1-.057-.005,6.831,6.831,0,0,1-2.229-.8L6.295,34.669a3.587,3.587,0,0,1-1.109-5.215l7.165-9.862A2.622,2.622,0,0,1,16.028,19a2.509,2.509,0,0,1,.965,1.422.326.326,0,0,1-.393.4,1.3,1.3,0,0,0-1.061,2.332l.284.2a.326.326,0,0,1,.088.443l-4.5,7.043L17.562,34.4a.325.325,0,0,1,.163.282v5.559a.325.325,0,0,1-.327.325ZM14.476,19.154a1.967,1.967,0,0,0-1.6.821L5.714,29.837A2.936,2.936,0,0,0,6.621,34.1l8.817,5.089a6.052,6.052,0,0,0,1.634.642V34.865l-6.287-3.628a.324.324,0,0,1-.112-.458l4.519-7.067-.027-.02a1.955,1.955,0,0,1,1.017-3.555,1.794,1.794,0,0,0-.532-.6,2.014,2.014,0,0,0-1.174-.382Z" transform="translate(0 -2.434)" fill="#263238"/>
    <path id="Path_44655" data-name="Path 44655" d="M40.856,34.416a3.913,3.913,0,0,0-5.418-1.489l-.464.273,2.007,1.406a1.631,1.631,0,0,1-1.871,2.671l-3.223-2.258-7.612,4.486v5.56a6.523,6.523,0,0,0,1.138.113h1.1a13.046,13.046,0,0,0,6.623-1.806l6.141-3.619A4.022,4.022,0,0,0,40.856,34.416Z" transform="translate(-6.877 -7.263)" fill="#40c4ff"/>
    <path id="Path_44656" data-name="Path 44656" d="M26.334,45.329h-1.1a6.717,6.717,0,0,1-1.194-.118.326.326,0,0,1-.269-.321V39.33a.327.327,0,0,1,.16-.281l7.612-4.486a.325.325,0,0,1,.353.014l3.223,2.258a1.34,1.34,0,0,0,1.816-.32,1.3,1.3,0,0,0-.32-1.817l-2.008-1.406a.326.326,0,0,1,.022-.548l.464-.273a4.238,4.238,0,0,1,5.869,1.613,4.356,4.356,0,0,1-1.706,5.775l-6.141,3.619a13.37,13.37,0,0,1-6.788,1.852Zm-1.906-.716a5.6,5.6,0,0,0,.811.064h1.1a12.729,12.729,0,0,0,6.457-1.761L38.932,39.3A3.7,3.7,0,0,0,40.4,34.4a3.587,3.587,0,0,0-4.966-1.366l-.027.016L37,34.164a1.957,1.957,0,0,1,.479,2.726,2.009,2.009,0,0,1-2.725.48L31.7,35.231l-7.271,4.285v5.1Z" transform="translate(-6.703 -7.088)" fill="#263238"/>
    <path id="Path_44657" data-name="Path 44657" d="M15.141,26.634l-4.1-2.486L5.623,31.609A3.261,3.261,0,0,0,6.631,36.35l8.817,5.089a6.531,6.531,0,0,0,2.124.761v-5.56l-6.45-3.722,4.019-6.285Z" transform="translate(-0.174 -4.399)" fill="#40c4ff"/>
    <path id="Path_44658" data-name="Path 44658" d="M17.4,38.824a.333.333,0,0,1-.057-.005,6.831,6.831,0,0,1-2.229-.8L6.295,32.93a3.587,3.587,0,0,1-1.109-5.215l5.421-7.461a.326.326,0,0,1,.433-.087l4.1,2.486a.326.326,0,0,1,.106.455l-3.835,6,6.154,3.552a.325.325,0,0,1,.163.282V38.5a.325.325,0,0,1-.327.326ZM10.959,20.879,5.714,28.1a2.936,2.936,0,0,0,.907,4.267l8.817,5.089a6.052,6.052,0,0,0,1.634.642V33.127L10.785,29.5a.324.324,0,0,1-.112-.458l3.839-6-3.553-2.158Zm21.587-6.727H29.937a.326.326,0,0,1,0-.652h2.609a.326.326,0,0,1,0,.652Z" transform="translate(0 -0.696)" fill="#263238"/>
    <path id="Path_44659" data-name="Path 44659" d="M42.544,14.761a.326.326,0,0,1-.326-.326V11.826a.326.326,0,0,1,.652,0v2.609A.326.326,0,0,1,42.544,14.761Zm-2.609,1.631H37.326a.326.326,0,1,1,0-.652h2.609a.326.326,0,0,1,0,.652Z" transform="translate(-11.303 0)" fill="#263238"/>
    <path id="Path_44660" data-name="Path 44660" d="M39.326,19.261A.326.326,0,0,1,39,18.935V16.326a.326.326,0,0,1,.652,0v2.609A.326.326,0,0,1,39.326,19.261ZM52.044,39.806h-1.3a.326.326,0,0,1,0-.652h1.3a.326.326,0,0,1,0,.652Zm-2.609,0H39.326a.326.326,0,0,1,0-.652H49.435a.326.326,0,1,1,0,.652Z" transform="translate(-11.998 -1.565)" fill="#263238"/>
  </g>
</svg>
