<svg id="Group_141" data-name="Group 141" xmlns="http://www.w3.org/2000/svg" width="34.418" height="24.173" viewBox="0 0 34.418 24.173">
  <path id="Path_273" data-name="Path 273" d="M36.027,29.062c-3.156-1.686-6.177-3.237-9.266-4.856V33.89c3.25-1.767,6.676-3.385,9.28-4.828h-.013Z" transform="translate(-13.1 -17.327)" fill="#fff"/>
  <path id="Path_274" data-name="Path 274" d="M36.027,29.062c-3.156-1.686-9.266-4.856-9.266-4.856l8.147,5.476s-1.484.823,1.119-.62Z" transform="translate(-13.1 -17.327)" fill="#e8e0e0"/>
  <path id="Path_275" data-name="Path 275" d="M19.623,37.577c-6.555-.121-8.794-.229-10.17-.513A4.47,4.47,0,0,1,7.12,35.851a4.912,4.912,0,0,1-1.106-2.132,13.94,13.94,0,0,1-.472-3.129,74.323,74.323,0,0,1,0-10.143c.211-1.874.313-4.1,1.713-5.4a4.592,4.592,0,0,1,2.293-1.16,126.623,126.623,0,0,1,13.043-.458,126.856,126.856,0,0,1,13.043.458,4.487,4.487,0,0,1,2.684,1.591c1.277,2.009,1.3,4.507,1.429,6.461.054.931.054,6.218,0,7.149-.2,3.088-.364,4.181-.822,5.313a3.917,3.917,0,0,1-.944,1.511,4.524,4.524,0,0,1-2.4,1.227c-5.672.427-10.489.519-15.956.432Zm8.686-12.409c-3.156-1.686-6.177-3.25-9.266-4.869v9.684c3.25-1.767,6.677-3.386,9.28-4.829Z" transform="translate(-5.368 -13.434)" fill="#30c768"/>
</svg>
