<svg id="Group_141" data-name="Group 141" xmlns="http://www.w3.org/2000/svg" width="39.219" height="27.545" viewBox="0 0 39.219 27.545">
  <path id="Path_273" data-name="Path 273" d="M37.32,29.739c-3.6-1.922-7.039-3.688-10.559-5.533V35.24c3.7-2.013,7.607-3.857,10.574-5.5H37.32Z" transform="translate(-11.195 -16.368)" fill="#00be55"/>
  <path id="Path_274" data-name="Path 274" d="M37.32,29.739c-3.6-1.922-10.559-5.533-10.559-5.533l9.283,6.239s-1.691.938,1.276-.707Z" transform="translate(-11.195 -16.368)" fill="#fff"/>
  <path id="Path_275" data-name="Path 275" d="M21.611,40.944c-7.469-.138-10.02-.261-11.588-.584a5.094,5.094,0,0,1-2.659-1.382A5.6,5.6,0,0,1,6.1,36.548a15.885,15.885,0,0,1-.538-3.565,84.689,84.689,0,0,1,0-11.558c.24-2.135.357-4.669,1.951-6.148a5.232,5.232,0,0,1,2.613-1.321,144.283,144.283,0,0,1,14.862-.522,144.548,144.548,0,0,1,14.862.522,5.113,5.113,0,0,1,3.058,1.813c1.455,2.289,1.481,5.136,1.628,7.362.061,1.061.061,7.085,0,8.146-.23,3.519-.415,4.764-.937,6.055a4.463,4.463,0,0,1-1.076,1.722,5.155,5.155,0,0,1-2.736,1.4c-6.463.486-11.952.592-18.181.492Zm9.9-14.139c-3.6-1.922-7.039-3.7-10.559-5.548V32.292c3.7-2.013,7.608-3.858,10.574-5.5Z" transform="translate(-5.368 -13.434)" fill="#fff"/>
</svg>
